# Blender v2.93.18 OBJ File: 'Ford cargo 4532 with new interior.blend'
# www.blender.org
mtllib Ford cargo 4532 interior dash labels.mtl
o interiror_dash_labels_piece_13.001
v -29.182032 33.334675 -106.710022
v -28.942051 33.315536 -106.729065
v -28.705601 33.336075 -106.773682
v -28.481770 33.395496 -106.842178
v -29.416327 33.392761 -106.717300
v -29.832403 33.615402 -106.808678
v -29.635931 33.487553 -106.750603
v -29.998199 33.771431 -106.889259
v -28.279160 33.491528 -106.931900
v -28.105566 33.620476 -107.039413
v -27.967646 33.777374 -107.160591
v -27.870716 33.956211 -107.290749
v -27.854376 34.552963 -107.684631
v -27.818487 34.150101 -107.424896
v -27.812963 34.351593 -107.557907
v -27.941114 34.746441 -107.800240
v -28.069849 34.924618 -107.900246
v -28.235636 35.080631 -107.980835
v -28.432114 35.208488 -108.038879
v -28.886017 35.361366 -108.079453
v -28.651722 35.303288 -108.072205
v -30.213673 34.143082 -107.104858
v -30.126936 33.949600 -106.989258
v -30.255085 34.344444 -107.231583
v -30.249567 34.545948 -107.364578
v -30.197336 34.739822 -107.498741
v -30.100393 34.918667 -107.628914
v -29.962482 35.075573 -107.750069
v -29.586273 35.300545 -107.947304
v -29.788883 35.204521 -107.857590
v -29.125998 35.380505 -108.060425
v -29.362457 35.359966 -108.015816
v -10.029948 34.150101 -107.424911
v -9.977718 33.956211 -107.290756
v -9.880774 33.777374 -107.160576
v -9.742855 33.620476 -107.039413
v -10.035468 34.351589 -107.557907
v -9.994060 34.552959 -107.684631
v -9.569273 33.491528 -106.931908
v -9.366660 33.395504 -106.842194
v -9.416318 35.208485 -108.038895
v -9.907318 34.746441 -107.800247
v -9.778583 34.924618 -107.900246
v -9.612800 35.080631 -107.980835
v -8.962424 35.361366 -108.079475
v -9.196715 35.303288 -108.072212
v -8.262156 35.300537 -107.947319
v -8.722431 35.380505 -108.060440
v -8.485984 35.359966 -108.015823
v -8.059558 35.204521 -107.857597
v -7.885953 35.075573 -107.750084
v -7.748040 34.918663 -107.628922
v -7.651105 34.739822 -107.498756
v -7.593356 34.344444 -107.231583
v -7.598866 34.545948 -107.364594
v -8.432109 33.392761 -106.717316
v -9.142832 33.336075 -106.773689
v -8.906386 33.315529 -106.729065
v -8.666400 33.334675 -106.710022
v -7.721499 33.949604 -106.989273
v -7.634748 34.143082 -107.104866
v -8.016031 33.615410 -106.808678
v -7.850234 33.771431 -106.889259
v -8.212498 33.487553 -106.750610
v -12.662210 37.515366 -110.008736
v -12.524297 37.358456 -109.887550
v -12.350699 37.229507 -109.780060
v -12.148087 37.133484 -109.690331
v -12.759140 37.694191 -110.138893
v -11.924266 37.074055 -109.621834
v -11.447829 37.072655 -109.558182
v -11.687799 37.053509 -109.577217
v -10.993925 37.225540 -109.598763
v -11.213529 37.130741 -109.565445
v -10.797453 37.353397 -109.656815
v -10.631654 37.509418 -109.737419
v -10.380309 38.283920 -110.212746
v -10.502926 37.687584 -109.837418
v -10.416184 37.881069 -109.953003
v -10.374778 38.082439 -110.079742
v -10.432532 38.477829 -110.346909
v -10.529469 38.656654 -110.477066
v -10.667382 38.813560 -110.598228
v -10.840993 38.942497 -110.705742
v -11.267406 39.097946 -110.863953
v -11.043585 39.038540 -110.795464
v -11.503866 39.118500 -110.908592
v -11.743838 39.099346 -110.927620
v -11.978144 39.041267 -110.920349
v -12.775489 38.290939 -110.532799
v -12.811378 37.888100 -110.273048
v -12.816895 38.089596 -110.406059
v -12.394218 38.818626 -110.828972
v -12.197754 38.946480 -110.887039
v -12.688753 38.484428 -110.648376
v -12.560018 38.662605 -110.748405
v -10.609584 33.771423 -107.258980
v -10.480857 33.949600 -107.358978
v -10.775389 33.615402 -107.178383
v -10.971862 33.487556 -107.120338
v -10.394120 34.143074 -107.474579
v -10.352707 34.344440 -107.601295
v -10.358239 34.545940 -107.734329
v -11.425765 33.334675 -107.079742
v -11.191466 33.392754 -107.087021
v -11.902202 33.336067 -107.143410
v -11.665742 33.315529 -107.098793
v -12.328630 33.491528 -107.301620
v -12.126018 33.395496 -107.211899
v -12.640140 33.777374 -107.530296
v -12.502234 33.620461 -107.409134
v -12.737070 33.956203 -107.660469
v -10.818923 35.204514 -108.227310
v -10.645318 35.075565 -108.119797
v -10.410462 34.739822 -107.868462
v -10.507398 34.918663 -107.998642
v -11.021515 35.300545 -108.317055
v -11.245336 35.359966 -108.385536
v -11.481802 35.380505 -108.430145
v -11.721766 35.361374 -108.449188
v -11.956072 35.303288 -108.441917
v -12.175682 35.208485 -108.408607
v -12.789307 34.150105 -107.794632
v -12.794825 34.351601 -107.927612
v -12.753425 34.552959 -108.054367
v -12.666682 34.746441 -108.169952
v -12.537946 34.924618 -108.269966
v -12.372156 35.080631 -108.350548
v -27.376022 34.918663 -107.998642
v -27.472960 34.739822 -107.868454
v -27.238108 35.075565 -108.119797
v -27.064505 35.204514 -108.227310
v -27.525187 34.545940 -107.734322
v -26.638071 35.359966 -108.385536
v -26.861898 35.300545 -108.317047
v -26.401621 35.380505 -108.430145
v -27.530710 34.344440 -107.601311
v -27.489298 34.143074 -107.474571
v -26.161642 35.361374 -108.449188
v -25.927343 35.303288 -108.441910
v -25.707737 35.208485 -108.408607
v -26.911551 33.487556 -107.120331
v -27.402557 33.949600 -107.358978
v -27.273829 33.771423 -107.258972
v -27.108030 33.615402 -107.178375
v -25.345472 34.924618 -108.269966
v -25.511259 35.080631 -108.350540
v -25.216736 34.746441 -108.169952
v -25.088596 34.351601 -107.927620
v -25.129995 34.552959 -108.054375
v -25.094107 34.150105 -107.794632
v -25.146341 33.956203 -107.660469
v -25.243280 33.777367 -107.530296
v -25.554792 33.491528 -107.301620
v -25.381189 33.620457 -107.409134
v -26.691950 33.392754 -107.087013
v -26.457655 33.334675 -107.079750
v -25.981216 33.336067 -107.143410
v -26.217672 33.315529 -107.098785
v -25.757395 33.395496 -107.211891
v -28.637323 35.550896 -108.739792
v -28.210997 35.445305 -108.725830
v -29.036921 35.722958 -108.801620
v -29.394428 35.954876 -108.908897
v -27.774302 35.410233 -108.760239
v -29.930363 36.560658 -109.241768
v -29.696112 36.237747 -109.057503
v -30.163544 37.276016 -109.687714
v -30.088200 36.911243 -109.454559
v -30.153507 37.640949 -109.932312
v -27.344053 35.447033 -108.841698
v -26.936771 35.554302 -108.967072
v -26.252218 35.961151 -109.328819
v -26.568094 35.727882 -109.131554
v -26.001266 36.245094 -109.551292
v -28.539280 39.113857 -111.127609
v -29.631113 38.599754 -110.640495
v -30.058462 37.992065 -110.178894
v -29.882078 38.315811 -110.418015
v -28.946573 39.006607 -111.002251
v -29.315235 38.833015 -110.837769
v -25.952972 38.000233 -110.727547
v -27.246021 39.009991 -111.229515
v -28.109037 39.150650 -111.209084
v -27.672352 39.115593 -111.243500
v -26.846415 38.837940 -111.167702
v -26.488897 38.606022 -111.060425
v -26.187225 38.323166 -110.911804
v -25.719793 37.284882 -110.281586
v -25.795130 37.649654 -110.514763
v -25.824873 36.568848 -109.790428
v -25.729832 36.919933 -110.037018
v -17.786383 33.683952 -108.872215
v -17.280207 33.907452 -109.024696
v -18.335638 33.546318 -108.778328
v -18.906824 33.499859 -108.746620
v -16.836527 34.208237 -109.229912
v -16.035257 35.446583 -110.074783
v -16.472420 34.574726 -109.479958
v -16.201859 34.992867 -109.765221
v -15.978998 35.918430 -110.396675
v -20.027250 33.683952 -108.872231
v -19.478016 33.546318 -108.778328
v -16.035257 36.390255 -110.718597
v -16.201859 36.843971 -111.028122
v -16.472427 37.262115 -111.313408
v -16.836542 37.628616 -111.563469
v -17.280214 37.929394 -111.768661
v -17.786404 38.152897 -111.921135
v -18.335646 38.290527 -112.015053
v -18.906824 38.337006 -112.046745
v -19.478016 38.290527 -112.015038
v -20.027273 38.152897 -111.921150
v -20.533453 37.929386 -111.768661
v -21.341234 37.262115 -111.313408
v -20.977121 37.628616 -111.563469
v -21.611803 36.843964 -111.028130
v -21.778406 36.390259 -110.718597
v -20.977114 34.208229 -109.229912
v -20.533445 33.907444 -109.024704
v -21.611795 34.992870 -109.765244
v -21.341234 34.574726 -109.479958
v -21.834665 35.918400 -110.396675
v -21.778406 35.446583 -110.074783
v -9.797206 38.828114 -110.569916
v -9.937922 38.633350 -110.460579
v -9.615977 38.998642 -110.657997
v -9.401221 39.138393 -110.721458
v -10.077991 38.201767 -110.195702
v -10.032740 38.421848 -110.334213
v -9.161179 39.242004 -110.757866
v -10.071978 37.981491 -110.050316
v -10.014873 37.769547 -109.903679
v -9.908914 37.574074 -109.761391
v -9.758165 37.402554 -109.628937
v -9.568397 37.261612 -109.511414
v -8.384279 39.303970 -110.696220
v -8.905056 39.305511 -110.765808
v -8.642753 39.326439 -110.745010
v -7.918170 39.134056 -110.523285
v -8.139616 39.239033 -110.621361
v -7.577643 38.821598 -110.273323
v -7.728394 38.993099 -110.405769
v -7.414594 38.414177 -109.984383
v -7.471679 38.626122 -110.131035
v -8.325388 37.153652 -109.276848
v -9.346934 37.156647 -109.413338
v -9.102280 37.091679 -109.338478
v -8.843806 37.069229 -109.289719
v -8.581495 37.090153 -109.268890
v -7.453818 37.973816 -109.700462
v -7.408555 38.193932 -109.839005
v -7.689345 37.567566 -109.464813
v -7.548629 37.762318 -109.574127
v -8.085338 37.257263 -109.313255
v -7.870566 37.397030 -109.376709
v -14.361610 34.247368 -108.224716
v -14.382384 33.222267 -107.543953
v -13.079486 33.266125 -107.438156
v -13.058713 34.291225 -108.118919
v -24.887846 36.394169 -109.263687
v -24.873310 35.367924 -108.584488
v -23.574707 35.295101 -108.722305
v -23.589247 36.321346 -109.401512
v -13.017163 36.341415 -109.480446
v -14.320061 36.297558 -109.586250
v -14.340835 35.272453 -108.905479
v -13.037936 35.316315 -108.799675
v -23.603785 37.347595 -110.080704
v -24.902388 37.420410 -109.942886
v -12.975616 38.391628 -110.841980
v -14.278513 38.347771 -110.947777
v -14.299286 37.322670 -110.267014
v -12.996388 37.366528 -110.161209
v -23.618322 38.373840 -110.759911
v -24.916925 38.446655 -110.622086
vt 1.510234 0.577155
vt 1.526962 0.576523
vt 1.543500 0.579163
vt 1.559214 0.584974
vt 1.493960 0.581034
vt 1.465230 0.597820
vt 1.478764 0.588012
vt 1.453879 0.610082
vt 1.573498 0.593731
vt 1.585804 0.605099
vt 1.595659 0.618640
vt 1.602684 0.633835
vt 1.604685 0.683319
vt 1.606610 0.650099
vt 1.607286 0.666808
vt 1.598907 0.698998
vt 1.590176 0.713241
vt 1.578825 0.725503
vt 1.565292 0.735310
vt 1.533821 0.746168
vt 1.550095 0.742289
vt 1.439371 0.640004
vt 1.445148 0.624326
vt 1.436769 0.656515
vt 1.437445 0.673223
vt 1.441370 0.689487
vt 1.448396 0.704683
vt 1.458251 0.718224
vt 1.484842 0.738349
vt 1.470558 0.729592
vt 1.517093 0.746799
vt 1.500554 0.744160
vt 1.440268 0.646764
vt 1.444873 0.631085
vt 1.452443 0.616590
vt 1.462687 0.603837
vt 1.438805 0.663025
vt 1.440541 0.679244
vt 1.475211 0.593316
vt 1.489534 0.585432
vt 1.476374 0.731746
vt 1.445409 0.694797
vt 1.453220 0.709086
vt 1.463675 0.721563
vt 1.506479 0.743776
vt 1.490827 0.739247
vt 1.554523 0.738396
vt 1.522728 0.745158
vt 1.538951 0.743342
vt 1.568847 0.730512
vt 1.581371 0.719991
vt 1.591615 0.707238
vt 1.599185 0.692743
vt 1.605252 0.660803
vt 1.603790 0.677065
vt 1.553230 0.584581
vt 1.505107 0.580486
vt 1.521329 0.578670
vt 1.537579 0.580052
vt 1.598649 0.629032
vt 1.603517 0.644584
vt 1.580381 0.602266
vt 1.590838 0.614742
vt 1.567683 0.592082
vt 1.652554 0.617870
vt 1.662728 0.605166
vt 1.675174 0.594681
vt 1.689415 0.586815
vt 1.645043 0.632302
vt 1.704902 0.581872
vt 1.737211 0.581395
vt 1.721042 0.580042
vt 1.767182 0.593321
vt 1.752791 0.585878
vt 1.779831 0.603436
vt 1.790253 0.615836
vt 1.803227 0.677826
vt 1.798045 0.630041
vt 1.802910 0.645510
vt 1.804660 0.661645
vt 1.798668 0.693434
vt 1.791157 0.707866
vt 1.780983 0.720570
vt 1.768535 0.731056
vt 1.738809 0.743864
vt 1.754295 0.738922
vt 1.722669 0.745694
vt 1.706500 0.744342
vt 1.690920 0.739858
vt 1.640801 0.680227
vt 1.640483 0.647910
vt 1.639051 0.664092
vt 1.663879 0.722301
vt 1.676528 0.732415
vt 1.645666 0.695695
vt 1.653458 0.709902
vt 1.588787 0.726881
vt 1.597173 0.741441
vt 1.577715 0.714252
vt 1.564382 0.704040
vt 1.602551 0.757372
vt 1.604714 0.774061
vt 1.603579 0.790870
vt 1.533052 0.692324
vt 1.549301 0.696634
vt 1.499566 0.693518
vt 1.516259 0.691271
vt 1.469024 0.707440
vt 1.483618 0.698976
vt 1.446074 0.731970
vt 1.456347 0.718579
vt 1.438600 0.747095
vt 1.568765 0.846804
vt 1.581442 0.835663
vt 1.599190 0.807148
vt 1.591715 0.822274
vt 1.554172 0.855267
vt 1.538223 0.860726
vt 1.521531 0.862972
vt 1.504738 0.861920
vt 1.488488 0.857608
vt 1.473408 0.850204
vt 1.434210 0.763375
vt 1.433076 0.780182
vt 1.435239 0.796872
vt 1.440617 0.812802
vt 1.449003 0.827362
vt 1.460075 0.839991
vt 1.218134 0.715770
vt 1.211354 0.701452
vt 1.227578 0.728498
vt 1.239322 0.739148
vt 1.207498 0.686097
vt 1.267834 0.752673
vt 1.252915 0.747312
vt 1.283507 0.755027
vt 1.206712 0.670291
vt 1.209031 0.654644
vt 1.299330 0.754284
vt 1.314698 0.750472
vt 1.329017 0.743736
vt 1.245856 0.605103
vt 1.214361 0.639757
vt 1.222500 0.626203
vt 1.233135 0.614501
vt 1.352372 0.722636
vt 1.341738 0.734337
vt 1.360511 0.709081
vt 1.368159 0.678548
vt 1.365842 0.694195
vt 1.367375 0.662744
vt 1.363518 0.647386
vt 1.356738 0.633069
vt 1.335551 0.609690
vt 1.347295 0.620340
vt 1.260175 0.598367
vt 1.275541 0.594555
vt 1.307038 0.596166
vt 1.291365 0.593811
vt 1.321958 0.601527
vt 1.497429 0.796950
vt 1.512005 0.794261
vt 1.483664 0.802432
vt 1.471238 0.810495
vt 1.526832 0.794467
vt 1.452244 0.833040
vt 1.460628 0.820831
vt 1.443339 0.861152
vt 1.446406 0.846655
vt 1.443162 0.875974
vt 1.541339 0.797561
vt 1.554968 0.803423
vt 1.577555 0.822456
vt 1.567197 0.811829
vt 1.585645 0.834894
vt 1.495696 0.941658
vt 1.459479 0.916763
vt 1.445880 0.890552
vt 1.451390 0.904325
vt 1.482066 0.935796
vt 1.469837 0.927390
vt 1.584791 0.906178
vt 1.539605 0.942268
vt 1.510203 0.944752
vt 1.525029 0.944958
vt 1.553371 0.936787
vt 1.565797 0.928723
vt 1.576406 0.918388
vt 1.593695 0.878067
vt 1.590629 0.892564
vt 1.591154 0.848667
vt 1.593873 0.863245
vt 1.329737 0.755792
vt 1.348502 0.766146
vt 1.309311 0.749299
vt 1.288012 0.746916
vt 1.364888 0.779961
vt 1.394062 0.836332
vt 1.378263 0.796707
vt 1.388114 0.815741
vt 1.395880 0.857687
vt 1.246066 0.754682
vt 1.266657 0.748733
vt 1.393496 0.878986
vt 1.387003 0.899411
vt 1.376649 0.918177
vt 1.362834 0.934563
vt 1.346087 0.947938
vt 1.327053 0.957789
vt 1.306463 0.963738
vt 1.285108 0.965555
vt 1.263808 0.963172
vt 1.243383 0.956678
vt 1.224617 0.946325
vt 1.194857 0.915763
vt 1.208232 0.932510
vt 1.185005 0.896729
vt 1.179057 0.876139
vt 1.210286 0.777908
vt 1.227032 0.764532
vt 1.186117 0.813059
vt 1.196470 0.794293
vt 1.177239 0.854783
vt 1.179623 0.833484
vt 1.654974 0.889575
vt 1.645965 0.871735
vt 1.667300 0.905296
vt 1.682466 0.918295
vt 1.639140 0.832502
vt 1.640619 0.852463
vt 1.699893 0.928073
vt 1.641584 0.812614
vt 1.647860 0.793567
vt 1.657725 0.776093
vt 1.670800 0.760860
vt 1.686583 0.748457
vt 1.758756 0.935023
vt 1.718910 0.934255
vt 1.738784 0.936602
vt 1.795937 0.920483
vt 1.778054 0.929581
vt 1.824795 0.892849
vt 1.811721 0.908081
vt 1.840936 0.856327
vt 1.834661 0.875374
vt 1.782628 0.740868
vt 1.704468 0.739360
vt 1.723765 0.733917
vt 1.743736 0.732340
vt 1.763611 0.734686
vt 1.841902 0.816477
vt 1.843382 0.836441
vt 1.827547 0.779368
vt 1.836556 0.797206
vt 1.800054 0.750646
vt 1.815222 0.763646
vt 0.911241 0.146686
vt 0.911241 0.104100
vt 0.952750 0.104096
vt 0.952750 0.146681
vt 0.757080 0.198539
vt 0.757080 0.155953
vt 0.798589 0.155963
vt 0.798589 0.198548
vt 0.851598 0.094039
vt 0.810089 0.094043
vt 0.810089 0.051458
vt 0.851598 0.051453
vt 0.901353 0.250040
vt 0.859844 0.250031
vt 0.859844 0.207445
vt 0.901353 0.207455
vt 0.901194 0.198973
vt 0.859685 0.198977
vt 0.859685 0.156391
vt 0.901194 0.156387
vt 0.850469 0.198726
vt 0.808961 0.198716
vt 0.808961 0.156131
vt 0.850469 0.156140
vt 0.953306 0.250031
vt 0.911798 0.250035
vt 0.911798 0.207449
vt 0.953306 0.207445
vn 0.1094 0.5455 0.8309
vn 0.1094 0.5454 0.8310
vn 0.1094 0.5456 0.8309
vn 0.1095 0.5454 0.8310
vn 0.1096 0.5457 0.8308
vn 0.1094 0.5455 0.8310
vn 0.1093 0.5455 0.8310
vn 0.1099 0.5452 0.8311
vn 0.1095 0.5455 0.8310
vn 0.1095 0.5455 0.8309
vn 0.1106 0.5454 0.8308
vn 0.1100 0.5457 0.8307
vn 0.1099 0.5456 0.8308
vn 0.1097 0.5459 0.8306
vn 0.1093 0.5456 0.8309
vn 0.1100 0.5454 0.8309
vn 0.1092 0.5455 0.8310
vn 0.1094 0.5457 0.8308
vn 0.1093 0.5461 0.8306
vn -0.1094 0.5455 0.8310
vn -0.1099 0.5454 0.8310
vn -0.1094 0.5455 0.8309
vn -0.1096 0.5454 0.8310
vn -0.1093 0.5455 0.8310
vn -0.1094 0.5456 0.8309
vn -0.1095 0.5454 0.8310
vn -0.1093 0.5455 0.8309
vn -0.1096 0.5456 0.8309
vn -0.1093 0.5458 0.8308
vn -0.1095 0.5455 0.8309
vn -0.1099 0.5455 0.8309
vn -0.1094 0.5459 0.8307
vn -0.1089 0.5454 0.8311
vn -0.1086 0.5456 0.8310
vn -0.1096 0.5457 0.8308
vn -0.1089 0.5459 0.8307
vn -0.1094 0.5452 0.8312
vn -0.1094 0.5458 0.8308
vn -0.1099 0.5458 0.8307
vn -0.1100 0.5455 0.8309
vn -0.1096 0.5455 0.8309
vn -0.1096 0.5453 0.8310
vn -0.1094 0.5454 0.8310
vn -0.1095 0.5452 0.8311
vn -0.1091 0.5455 0.8310
vn -0.1090 0.5455 0.8310
vn -0.1093 0.5454 0.8310
vn -0.1086 0.5453 0.8312
vn -0.1095 0.5456 0.8309
vn -0.1102 0.5455 0.8308
vn -0.1095 0.5451 0.8312
vn -0.1093 0.5456 0.8309
vn -0.1099 0.5452 0.8310
vn -0.1092 0.5460 0.8306
vn -0.1100 0.5454 0.8309
vn -0.1099 0.5456 0.8308
vn 0.1093 0.5457 0.8308
vn 0.1095 0.5457 0.8308
vn 0.1093 0.5455 0.8309
vn 0.1093 0.5454 0.8310
vn 0.1092 0.5457 0.8309
vn 0.1096 0.5452 0.8311
vn 0.1106 0.5456 0.8307
vn 0.1096 0.5454 0.8310
vn 0.1096 0.5453 0.8310
vn 0.1091 0.5458 0.8308
vn 0.1094 0.5515 0.8270
vn 0.1094 0.5513 0.8271
vn 0.1095 0.5513 0.8271
vn 0.1098 0.5515 0.8269
vn 0.1094 0.5512 0.8272
vn 0.1095 0.5512 0.8272
vn 0.1095 0.5511 0.8272
vn -0.1095 -0.5511 -0.8272
vn 0.1093 0.5514 0.8271
vn 0.1097 0.5512 0.8271
vn 0.1099 0.5512 0.8271
vn 0.1093 0.5513 0.8271
vn 0.1095 0.5514 0.8270
vn 0.1094 0.5514 0.8270
vn 0.1097 0.5513 0.8270
vn 0.0000 0.5636 0.8260
vn 0.0000 0.5636 0.8261
vn 0.0000 0.5635 0.8261
vn 0.0001 0.5636 0.8261
vn -0.0002 0.5637 0.8260
vn -0.0002 0.5635 0.8261
vn 0.0001 0.5637 0.8260
vn 0.0000 0.5638 0.8259
vn -0.0001 0.5636 0.8260
vn -0.1095 0.5455 0.8310
vn -0.1098 0.5455 0.8309
vn -0.1094 0.5453 0.8311
vn -0.1094 0.5457 0.8308
vn -0.1097 0.5453 0.8310
vn -0.1089 0.5457 0.8309
vn -0.1092 0.5455 0.8310
vn -0.1094 0.5453 0.8310
vn -0.1100 0.5458 0.8306
vn -0.0859 0.5524 0.8292
vn 0.1186 0.5492 0.8272
usemtl mat_0009_gostnormal.001
s 1
f 1/1/1 2/2/2 3/3/3
f 4/4/1 1/1/1 3/3/3
f 4/4/1 5/5/1 1/1/1
f 6/6/4 7/7/5 5/5/1
f 8/8/6 6/6/4 5/5/1
f 4/4/1 9/9/7 10/10/1
f 10/10/1 11/11/8 12/12/9
f 4/4/1 10/10/1 12/12/9
f 13/13/10 4/4/1 12/12/9
f 4/4/1 13/13/10 5/5/1
f 13/13/10 12/12/9 14/14/6
f 15/15/11 13/13/10 14/14/6
f 16/16/12 17/17/3 13/13/10
f 18/18/13 19/19/10 17/17/3
f 17/17/3 19/19/10 13/13/10
f 13/13/10 19/19/10 20/20/1
f 19/19/10 21/21/14 20/20/1
f 13/13/10 20/20/1 5/5/1
f 20/20/1 22/22/1 5/5/1
f 22/22/1 8/8/6 5/5/1
f 22/22/1 23/23/15 8/8/6
f 24/24/7 22/22/1 25/25/16
f 22/22/1 26/26/17 25/25/16
f 26/26/17 22/22/1 27/27/7
f 22/22/1 28/28/1 27/27/7
f 28/28/1 22/22/1 29/29/1
f 22/22/1 20/20/1 29/29/1
f 29/29/1 30/30/15 28/28/1
f 20/20/1 31/31/18 29/29/1
f 31/31/18 32/32/19 29/29/1
f 33/33/20 34/34/21 35/35/22
f 35/35/22 36/36/22 33/33/20
f 36/36/22 37/37/23 33/33/20
f 38/38/22 37/37/23 36/36/22
f 39/39/24 40/40/20 36/36/22
f 41/41/22 38/38/22 36/36/22
f 38/38/22 41/41/22 42/42/25
f 41/41/22 43/43/26 42/42/25
f 41/41/22 44/44/27 43/43/26
f 45/45/22 46/46/28 41/41/22
f 41/41/22 47/47/22 45/45/22
f 41/41/22 36/36/22 47/47/22
f 45/45/22 47/47/22 48/48/25
f 47/47/22 49/49/29 48/48/25
f 50/50/23 47/47/22 51/51/26
f 47/47/22 52/52/26 51/51/26
f 53/53/30 52/52/26 47/47/22
f 47/47/22 36/36/22 53/53/30
f 54/54/22 55/55/31 53/53/30
f 36/36/22 56/56/22 53/53/30
f 54/54/22 53/53/30 56/56/22
f 36/36/22 40/40/20 56/56/22
f 40/40/20 57/57/25 56/56/22
f 56/56/22 57/57/25 58/58/22
f 59/59/32 56/56/22 58/58/22
f 60/60/20 61/61/33 54/54/22
f 56/56/22 60/60/20 54/54/22
f 62/62/22 60/60/20 56/56/22
f 63/63/34 60/60/20 62/62/22
f 64/64/35 62/62/22 56/56/22
f 65/65/30 66/66/36 67/67/23
f 67/67/23 68/68/22 65/65/30
f 65/65/30 68/68/22 69/69/22
f 70/70/25 71/71/20 68/68/22
f 70/70/25 72/72/37 71/71/20
f 71/71/20 73/73/22 68/68/22
f 71/71/20 74/74/38 73/73/22
f 73/73/22 75/75/39 76/76/22
f 73/73/22 77/77/30 68/68/22
f 76/76/22 77/77/30 73/73/22
f 69/69/22 68/68/22 77/77/30
f 77/77/30 76/76/22 78/78/22
f 79/79/40 77/77/30 78/78/22
f 79/79/40 80/80/41 77/77/30
f 77/77/30 81/81/23 82/82/20
f 82/82/20 83/83/42 84/84/43
f 77/77/30 82/82/20 84/84/43
f 77/77/30 84/84/43 85/85/22
f 84/84/43 86/86/44 85/85/22
f 69/69/22 77/77/30 85/85/22
f 85/85/22 87/87/25 88/88/22
f 85/85/22 88/88/22 89/89/20
f 69/69/22 85/85/22 90/90/22
f 90/90/22 85/85/22 89/89/20
f 91/91/45 69/69/22 90/90/22
f 90/90/22 92/92/46 91/91/45
f 90/90/22 89/89/20 93/93/47
f 89/89/20 94/94/45 93/93/47
f 90/90/22 93/93/47 95/95/43
f 93/93/47 96/96/39 95/95/43
f 97/97/48 98/98/49 99/99/22
f 98/98/49 100/100/22 99/99/22
f 101/101/41 100/100/22 98/98/49
f 101/101/41 102/102/50 103/103/30
f 100/100/22 101/101/41 103/103/30
f 104/104/22 105/105/45 100/100/22
f 106/106/26 107/107/51 104/104/22
f 104/104/22 108/108/22 106/106/26
f 108/108/22 109/109/27 106/106/26
f 104/104/22 100/100/22 108/108/22
f 110/110/52 111/111/53 108/108/22
f 112/112/22 110/110/52 108/108/22
f 112/112/22 108/108/22 100/100/22
f 113/113/22 100/100/22 103/103/30
f 113/113/22 112/112/22 100/100/22
f 113/113/22 103/103/30 114/114/24
f 114/114/24 103/103/30 115/115/21
f 116/116/52 114/114/24 115/115/21
f 113/113/22 117/117/54 118/118/29
f 118/118/29 119/119/22 113/113/22
f 113/113/22 119/119/22 112/112/22
f 119/119/22 120/120/43 121/121/26
f 122/122/30 119/119/22 121/121/26
f 112/112/22 119/119/22 122/122/30
f 123/123/55 112/112/22 124/124/20
f 124/124/20 112/112/22 122/122/30
f 125/125/56 124/124/20 126/126/30
f 126/126/30 124/124/20 122/122/30
f 122/122/30 127/127/22 126/126/30
f 122/122/30 128/128/23 127/127/22
f 129/129/57 130/130/4 131/131/1
f 130/130/4 132/132/1 131/131/1
f 133/133/1 132/132/1 130/130/4
f 134/134/57 135/135/58 132/132/1
f 134/134/57 132/132/1 136/136/1
f 133/133/1 137/137/59 138/138/1
f 139/139/1 136/136/1 140/140/4
f 136/136/1 141/141/6 140/140/4
f 142/142/1 133/133/1 138/138/1
f 142/142/1 132/132/1 133/133/1
f 136/136/1 132/132/1 142/142/1
f 142/142/1 138/138/1 143/143/10
f 144/144/60 142/142/1 143/143/10
f 144/144/60 145/145/61 142/142/1
f 146/146/6 147/147/62 141/141/6
f 146/146/6 141/141/6 148/148/10
f 141/141/6 149/149/10 148/148/10
f 141/141/6 136/136/1 149/149/10
f 149/149/10 150/150/63 148/148/10
f 136/136/1 142/142/1 149/149/10
f 151/151/7 149/149/10 152/152/64
f 149/149/10 153/153/9 152/152/64
f 149/149/10 154/154/1 153/153/9
f 154/154/1 149/149/10 142/142/1
f 154/154/1 155/155/65 153/153/9
f 142/142/1 156/156/3 157/157/10
f 157/157/10 154/154/1 142/142/1
f 157/157/10 158/158/6 154/154/1
f 157/157/10 159/159/1 158/158/6
f 158/158/6 160/160/66 154/154/1
f 161/161/67 162/162/68 163/163/69
f 162/162/68 164/164/69 163/163/69
f 164/164/69 162/162/68 165/165/68
f 166/166/68 167/167/70 164/164/69
f 166/166/68 164/164/69 165/165/68
f 168/168/69 169/169/68 166/166/68
f 170/170/68 168/168/69 166/166/68
f 165/165/68 171/171/71 172/172/68
f 172/172/68 166/166/68 165/165/68
f 172/172/72 173/173/73 174/174/74
f 172/172/68 173/173/75 175/175/68
f 170/170/68 166/166/68 176/176/68
f 176/176/68 166/166/68 172/172/68
f 177/177/68 170/170/68 176/176/68
f 177/177/68 178/178/76 170/170/68
f 177/177/68 179/179/77 178/178/76
f 180/180/78 181/181/69 177/177/68
f 180/180/78 177/177/68 176/176/68
f 182/182/68 176/176/68 172/172/68
f 172/172/68 175/175/68 182/182/68
f 183/183/68 176/176/68 182/182/68
f 183/183/68 184/184/79 176/176/68
f 183/183/68 185/185/80 184/184/79
f 183/183/68 182/182/68 186/186/68
f 182/182/68 187/187/68 186/186/68
f 182/182/68 188/188/69 187/187/68
f 182/182/68 175/175/68 189/189/68
f 189/189/68 190/190/81 182/182/68
f 175/175/68 191/191/69 189/189/68
f 191/191/69 192/192/68 189/189/68
f 193/193/82 194/194/83 195/195/84
f 194/194/83 196/196/83 195/195/84
f 197/197/83 196/196/83 194/194/83
f 197/197/83 198/198/83 196/196/83
f 198/198/83 197/197/83 199/199/85
f 200/200/86 198/198/83 199/199/85
f 198/198/83 201/201/83 196/196/83
f 202/202/83 196/196/83 201/201/83
f 202/202/83 203/203/84 196/196/83
f 201/201/83 204/204/83 202/202/83
f 205/205/87 206/206/83 204/204/83
f 206/206/83 207/207/88 208/208/82
f 209/209/83 206/206/83 208/208/82
f 204/204/83 206/206/83 209/209/83
f 204/204/83 209/209/83 202/202/83
f 209/209/83 210/210/89 211/211/83
f 209/209/83 211/211/83 212/212/83
f 213/213/90 214/214/83 212/212/83
f 214/214/83 209/209/83 212/212/83
f 209/209/83 214/214/83 215/215/83
f 216/216/86 215/215/83 214/214/83
f 209/209/83 215/215/83 202/202/83
f 215/215/83 217/217/83 218/218/83
f 202/202/83 215/215/83 218/218/83
f 219/219/83 220/220/83 202/202/83
f 202/202/83 218/218/83 219/219/83
f 218/218/83 221/221/83 219/219/83
f 221/221/83 222/222/90 219/219/83
f 223/223/83 221/221/83 218/218/83
f 223/223/83 224/224/85 221/221/83
f 225/225/25 226/226/22 227/227/41
f 226/226/22 228/228/22 227/227/41
f 229/229/22 228/228/22 226/226/22
f 230/230/43 229/229/22 226/226/22
f 231/231/22 228/228/22 229/229/22
f 229/229/22 232/232/20 233/233/26
f 234/234/91 229/229/22 233/233/26
f 234/234/91 235/235/92 236/236/22
f 236/236/22 229/229/22 234/234/91
f 237/237/22 231/231/22 229/229/22
f 237/237/22 238/238/93 231/231/22
f 237/237/22 239/239/94 238/238/93
f 240/240/22 241/241/95 237/237/22
f 229/229/22 240/240/22 237/237/22
f 242/242/27 243/243/96 240/240/22
f 244/244/22 242/242/27 240/240/22
f 229/229/22 244/244/22 240/240/22
f 244/244/22 245/245/22 242/242/27
f 246/246/20 229/229/22 236/236/22
f 244/244/22 229/229/22 246/246/20
f 246/246/20 236/236/22 247/247/22
f 248/248/97 249/249/98 247/247/22
f 249/249/98 246/246/20 247/247/22
f 250/250/25 246/246/20 249/249/98
f 251/251/22 252/252/20 244/244/22
f 244/244/22 246/246/20 253/253/22
f 253/253/22 251/251/22 244/244/22
f 253/253/22 254/254/93 251/251/22
f 246/246/20 255/255/24 253/253/22
f 255/255/24 256/256/99 253/253/22
usemtl mat_0011_gostanimasyon.001
f 257/257/100 258/258/100 259/259/100
f 260/260/100 257/257/100 259/259/100
f 261/261/101 262/262/101 263/263/101
f 264/264/101 261/261/101 263/263/101
f 265/265/100 266/266/100 267/267/100
f 268/268/100 265/265/100 267/267/100
f 269/269/101 270/270/101 261/271/101
f 264/272/101 269/269/101 261/271/101
f 271/273/100 272/274/100 273/275/100
f 274/276/100 271/273/100 273/275/100
f 275/277/101 276/278/101 270/279/101
f 269/280/101 275/277/101 270/279/101
f 274/281/100 273/282/100 266/283/100
f 265/284/100 274/281/100 266/283/100
