# Blender v2.93.18 OBJ File: 'Ford cargo 4532 with new interior.blend'
# www.blender.org
mtllib Ford cargo 4532 interior button labels.mtl
o interior_button_labels_piece_16
v -27.053843 33.642052 -106.838470
v -27.272562 33.642052 -106.802917
v -27.252409 33.459518 -106.678917
v -27.033682 33.459518 -106.714455
v -28.122160 33.712765 -106.698051
v -28.102009 33.530231 -106.574043
v -27.883280 33.530231 -106.609589
v -27.903440 33.712761 -106.733620
v 12.290624 34.803307 -106.780312
v 12.290616 34.462051 -106.347198
v 12.883087 34.462051 -106.347198
v 12.883094 34.803299 -106.780312
v 14.115638 34.803299 -106.780312
v 13.523166 34.803299 -106.780312
v 13.523166 34.462051 -106.347198
v 14.115638 34.462051 -106.347198
v 15.341728 34.803299 -106.780312
v 14.749257 34.803299 -106.780312
v 14.749257 34.462051 -106.347198
v 15.341728 34.462051 -106.347198
v 15.341728 33.089535 -105.623123
v 14.749257 33.089535 -105.623123
v 14.749257 32.748276 -105.190010
v 15.341728 32.748276 -105.190010
v 14.115638 33.089535 -105.623123
v 13.523166 33.089535 -105.623123
v 13.523166 32.748276 -105.190010
v 14.115638 32.748276 -105.190010
v 12.883087 33.089535 -105.623123
v 12.290616 33.089535 -105.623123
v 12.290616 32.748283 -105.190010
v 12.883087 32.748276 -105.190010
v -3.621240 33.089531 -105.623116
v -4.213706 33.089531 -105.623116
v -4.213704 32.748283 -105.190002
v -3.621240 32.748283 -105.190002
v -2.388694 33.089531 -105.623116
v -2.981152 33.089531 -105.623116
v -2.981152 32.748283 -105.190002
v -2.388694 32.748283 -105.190002
v -1.162606 33.089531 -105.623116
v -1.755069 33.089531 -105.623116
v -1.755069 32.748283 -105.190002
v -1.162606 32.748283 -105.190002
v -1.162606 34.803299 -106.780296
v -1.755069 34.803299 -106.780296
v -1.755069 34.462051 -106.347191
v -1.162606 34.462051 -106.347191
v -2.388694 34.803299 -106.780296
v -2.981152 34.803299 -106.780296
v -2.981152 34.462051 -106.347191
v -2.388694 34.462051 -106.347191
v -3.621240 34.803299 -106.780296
v -4.213699 34.803299 -106.780296
v -4.213699 34.462051 -106.347191
v -3.621240 34.462051 -106.347191
v -25.970020 33.448990 -106.031448
v -25.999701 33.476357 -106.048378
v -26.035065 33.498707 -106.061272
v -25.947163 33.417648 -106.011154
v -26.074751 33.515171 -106.069656
v -26.117231 33.525120 -106.073196
v -26.160879 33.528172 -106.071793
v -25.980829 33.218273 -105.867355
v -26.050085 33.177956 -105.833160
v -26.012863 33.195221 -105.848419
v -26.091043 33.167137 -105.822136
v -25.926792 33.312344 -105.938332
v -25.932001 33.383549 -105.988281
v -25.925119 33.347992 -105.963684
v -25.936941 33.277977 -105.913185
v -25.955191 33.246208 -105.889236
v -26.220306 33.176193 -105.817924
v -26.134174 33.163185 -105.815796
v -26.177826 33.166233 -105.814377
v -26.368256 33.379013 -105.949242
v -26.204010 33.524216 -106.065445
v -26.295355 33.215004 -105.839218
v -26.259993 33.192650 -105.826317
v -26.347898 33.273712 -105.876427
v -26.325037 33.242367 -105.856133
v -26.363056 33.307816 -105.899307
v -26.369934 33.343369 -105.923889
v -26.339865 33.445148 -105.998360
v -26.358114 33.413383 -105.974388
v -26.282190 33.496132 -106.039162
v -26.314228 33.473087 -106.020226
v -26.244974 33.513401 -106.054420
vt 0.829333 0.968919
vt 0.815101 0.968763
vt 0.815101 0.954630
vt 0.829333 0.954786
vt 0.772749 0.970311
vt 0.772749 0.953530
vt 0.789647 0.953716
vt 0.789647 0.970497
vt 0.922308 0.901968
vt 0.922308 0.880118
vt 0.941743 0.880118
vt 0.941743 0.901967
vt 0.940584 0.871665
vt 0.919908 0.871665
vt 0.919908 0.852496
vt 0.940584 0.852496
vt 0.946181 0.936129
vt 0.919880 0.936129
vt 0.919880 0.912491
vt 0.946181 0.912491
vt 0.936637 0.816910
vt 0.918591 0.816910
vt 0.918591 0.798967
vt 0.936637 0.798967
vt 0.941753 0.972380
vt 0.921464 0.972380
vt 0.921464 0.952536
vt 0.941753 0.952536
vt 0.919306 0.823777
vt 0.942404 0.823777
vt 0.942404 0.846727
vt 0.919306 0.846728
vt 0.906398 0.976583
vt 0.875224 0.976583
vt 0.875224 0.946729
vt 0.906398 0.946729
vt 0.903786 0.874563
vt 0.879336 0.874563
vt 0.879336 0.852099
vt 0.903786 0.852099
vt 0.905016 0.847136
vt 0.880408 0.847136
vt 0.880407 0.823506
vt 0.905016 0.823506
vt 0.903297 0.818640
vt 0.879018 0.818640
vt 0.879018 0.795600
vt 0.903297 0.795600
vt 0.905410 0.937261
vt 0.876217 0.937261
vt 0.876217 0.910001
vt 0.905410 0.910000
vt 0.903242 0.902520
vt 0.878765 0.902520
vt 0.878765 0.877386
vt 0.903242 0.877386
vt 0.851914 0.964734
vt 0.851312 0.966249
vt 0.850426 0.967617
vt 0.852211 0.963131
vt 0.849292 0.968785
vt 0.847953 0.969709
vt 0.846460 0.970353
vt 0.847771 0.955038
vt 0.844666 0.954137
vt 0.846263 0.954434
vt 0.843042 0.954159
vt 0.851214 0.958408
vt 0.852191 0.961501
vt 0.851854 0.959906
vt 0.850295 0.957064
vt 0.849132 0.955926
vt 0.838622 0.956066
vt 0.841453 0.954498
vt 0.839961 0.955142
vt 0.836700 0.966444
vt 0.844872 0.970692
vt 0.836602 0.958602
vt 0.837488 0.957234
vt 0.835703 0.961720
vt 0.835999 0.960117
vt 0.835723 0.963351
vt 0.836059 0.964946
vt 0.838781 0.968925
vt 0.837619 0.967788
vt 0.841651 0.970417
vt 0.840143 0.969813
vt 0.843248 0.970714
vn 0.1321 0.5670 0.8131
vn 0.1322 0.5670 0.8131
vn 0.1321 0.5670 0.8130
vn 0.1321 0.5671 0.8130
vn 0.0000 0.7855 0.6189
vn 0.0656 0.5765 0.8145
vn 0.0698 0.5768 0.8139
vn 0.0668 0.5762 0.8146
vn 0.0667 0.5762 0.8146
vn 0.0668 0.5759 0.8148
vn 0.0663 0.5740 0.8161
vn 0.0669 0.5761 0.8147
vn 0.0670 0.5762 0.8146
vn 0.0680 0.5757 0.8148
vn 0.0650 0.5773 0.8139
vn 0.0670 0.5761 0.8146
vn 0.0655 0.5765 0.8145
vn 0.0663 0.5763 0.8145
vn 0.0637 0.5770 0.8142
vn 0.0679 0.5757 0.8148
vn 0.0668 0.5761 0.8147
vn 0.0669 0.5763 0.8145
vn 0.0667 0.5743 0.8159
vn 0.0671 0.5760 0.8147
vn 0.0669 0.5762 0.8146
vn 0.0662 0.5747 0.8157
vn 0.0680 0.5762 0.8145
vn 0.0662 0.5765 0.8144
vn 0.0650 0.5761 0.8148
vn 0.0666 0.5763 0.8145
vn 0.0662 0.5755 0.8151
vn 0.0668 0.5760 0.8147
vn 0.0664 0.5760 0.8148
vn 0.0682 0.5743 0.8158
usemtl mat_0010_gostnormal
s 1
f 1/1/1 2/2/2 3/3/1
f 4/4/1 1/1/1 3/3/1
f 5/5/3 6/6/1 7/7/3
f 8/8/4 5/5/3 7/7/3
f 9/9/5 10/10/5 11/11/5
f 12/12/5 9/9/5 11/11/5
f 13/13/5 14/14/5 15/15/5
f 16/16/5 13/13/5 15/15/5
f 17/17/5 18/18/5 19/19/5
f 20/20/5 17/17/5 19/19/5
f 21/21/5 22/22/5 23/23/5
f 24/24/5 21/21/5 23/23/5
f 25/25/5 26/26/5 27/27/5
f 28/28/5 25/25/5 27/27/5
f 29/29/5 30/30/5 31/31/5
f 32/32/5 29/29/5 31/31/5
f 33/33/5 34/34/5 35/35/5
f 36/36/5 33/33/5 35/35/5
f 37/37/5 38/38/5 39/39/5
f 40/40/5 37/37/5 39/39/5
f 41/41/5 42/42/5 43/43/5
f 44/44/5 41/41/5 43/43/5
f 45/45/5 46/46/5 47/47/5
f 48/48/5 45/45/5 47/47/5
f 49/49/5 50/50/5 51/51/5
f 52/52/5 49/49/5 51/51/5
f 53/53/5 54/54/5 55/55/5
f 56/56/5 53/53/5 55/55/5
f 57/57/6 58/58/7 59/59/8
f 57/57/6 59/59/8 60/60/9
f 59/59/8 61/61/10 60/60/9
f 61/61/10 62/62/11 63/63/12
f 61/61/10 63/63/12 60/60/9
f 63/63/12 64/64/13 60/60/9
f 65/65/14 66/66/15 64/64/13
f 67/67/16 65/65/14 64/64/13
f 60/60/9 64/64/13 68/68/13
f 60/60/9 68/68/13 69/69/17
f 68/68/13 70/70/18 69/69/17
f 71/71/19 68/68/13 72/72/20
f 68/68/13 64/64/13 72/72/20
f 73/73/21 67/67/16 64/64/13
f 73/73/21 74/74/22 67/67/16
f 73/73/21 75/75/23 74/74/22
f 63/63/12 76/76/8 64/64/13
f 76/76/8 73/73/21 64/64/13
f 76/76/8 63/63/12 77/77/24
f 78/78/25 79/79/26 73/73/21
f 73/73/21 76/76/8 78/78/25
f 80/80/27 81/81/28 78/78/25
f 82/82/16 80/80/27 78/78/25
f 76/76/8 82/82/16 78/78/25
f 76/76/8 83/83/29 82/82/16
f 84/84/30 85/85/31 76/76/8
f 76/76/8 77/77/24 84/84/30
f 84/84/30 77/77/24 86/86/32
f 87/87/33 84/84/30 86/86/32
f 77/77/24 88/88/34 86/86/32
