# Blender v2.93.18 OBJ File: '1957 Bel Air 17.blend'
# www.blender.org
mtllib 1957 Bel Air steering logo.mtl
o steering_logo_belair57_seats.016
v 0.753983 1.091152 2.837471
v 0.754043 0.592834 2.832144
v -0.766879 1.091041 2.837787
v -0.766789 0.592632 2.832688
v -1.220101 0.120607 2.827688
v 1.207414 0.120866 2.827136
v -1.220011 -0.329644 2.823016
v 1.207310 -0.329318 2.822653
vt 0.265358 0.233096
vt 0.000702 0.233096
vt 0.265353 0.146369
vt 0.000702 0.146369
vt 0.005196 0.140624
vt 0.005196 0.085894
vt 0.300272 0.140624
vt 0.300272 0.085894
vn 0.0002 -0.0107 0.9999
vn 0.0003 -0.0103 0.9999
vn 0.0002 -0.0106 0.9999
vn 0.0003 -0.0102 0.9999
vn 0.0002 -0.0104 0.9999
vn 0.0002 -0.0103 0.9999
vn 0.0002 -0.0100 0.9999
vn 0.0001 -0.0099 0.9999
usemtl interior.001
s 1
f 1/1/1 3/2/2 2/3/3
f 2/3/3 3/2/2 4/4/4
f 5/5/5 7/6/6 6/7/7
f 6/7/7 7/6/6 8/8/8
