# Blender v2.93.18 OBJ File: '1957 Bel Air 15.blend'
# www.blender.org
mtllib 1957 Bel Air steering logo.mtl
o steering_logo_belair57_seats.016
v 0.019151 0.027715 0.072072
v 0.019153 0.015058 0.071937
v -0.019479 0.027713 0.072080
v -0.019476 0.015053 0.071950
v -0.030991 0.003063 0.071823
v 0.030668 0.003070 0.071809
v -0.030988 -0.008373 0.071705
v 0.030666 -0.008365 0.071696
vt 0.265358 0.233096
vt 0.000702 0.233096
vt 0.265353 0.146369
vt 0.000702 0.146369
vt 0.005196 0.140624
vt 0.005196 0.085894
vt 0.300272 0.140624
vt 0.300272 0.085894
vn 0.0002 -0.0107 0.9999
vn 0.0003 -0.0103 0.9999
vn 0.0002 -0.0106 0.9999
vn 0.0003 -0.0102 0.9999
vn 0.0002 -0.0104 0.9999
vn 0.0002 -0.0103 0.9999
vn 0.0002 -0.0100 0.9999
vn 0.0001 -0.0099 0.9999
usemtl interior.001
s 1
f 1/1/1 3/2/2 2/3/3
f 2/3/3 3/2/2 4/4/4
f 5/5/5 7/6/6 6/7/7
f 6/7/7 7/6/6 8/8/8
