# Blender v2.93.18 OBJ File: 'Beliveau Meteor new 8.blend'
# www.blender.org
mtllib Beliveau meteor door l window.mtl
o door_l_window_x0_window_fl
v -8.161110 26.388927 -44.536507
v -6.607136 20.355915 -44.959995
v -8.027960 25.851128 -44.854385
v -8.250165 26.733244 -44.005959
v -8.473943 27.102488 -39.332031
v -8.803037 27.420744 -32.203846
v -7.286623 21.262297 -28.999535
v -9.105713 27.558098 -25.044176
v -9.296067 27.594915 -20.312233
v -7.574770 21.480951 -20.278839
v -6.239106 15.366989 -20.245445
v -6.004459 15.035175 -29.375038
v -6.887608 20.857267 -39.018768
v -5.686901 14.612051 -38.705463
v -5.428398 14.118279 -44.249081
v -5.477649 14.385002 -44.756016
v -5.571981 14.860312 -45.065548
v -9.264570 26.377911 -13.535883
v -9.200240 26.099058 -13.387596
v -9.289177 26.562527 -13.799416
v -9.019256 26.926758 -19.613806
v -9.185360 26.729601 -15.636912
v -6.325286 16.087576 -19.555214
v -7.479457 21.507563 -19.584543
v -7.693984 21.427473 -13.665360
v -6.435010 16.278933 -14.447689
v -6.573316 16.755890 -13.943122
v -6.491074 16.459568 -14.137072
vt 0.970703 -0.962402
vt 0.975586 -0.952637
vt 0.980957 -0.943359
vt 0.908203 -0.965820
vt 0.984863 -0.840332
vt 0.914063 -0.834473
vt 0.988281 -0.683105
vt 0.918457 -0.613770
vt 0.989746 -0.525391
vt 0.990234 -0.420898
vt 0.920410 -0.421631
vt 0.851563 -0.421875
vt 0.848145 -0.623047
vt 0.843750 -0.828613
vt 0.838379 -0.951172
vt 0.847168 -0.968750
vt 0.842773 -0.959961
vt 0.676270 -0.621094
vt 0.673828 -0.625488
vt 0.670898 -0.629883
vt 0.617188 -0.622559
vt 0.678223 -0.580566
vt 0.618164 -0.491943
vt 0.680176 -0.492676
vt 0.559082 -0.604004
vt 0.557129 -0.491699
vt 0.564453 -0.615234
vt 0.562012 -0.609863
vn 0.9685 0.2490 -0.0053
vn 0.9722 0.2340 0.0113
vn 0.9692 0.2457 0.0179
vn 0.9761 0.2158 0.0255
vn 0.9685 0.2470 0.0299
vn 0.9751 0.2198 0.0292
vn 0.9669 0.2530 0.0323
vn 0.9730 0.2294 0.0269
vn 0.9642 0.2633 0.0321
vn 0.9619 0.2710 0.0366
vn 0.9703 0.2403 0.0284
vn 0.9778 0.2084 0.0233
vn 0.9795 0.2004 0.0213
vn 0.9810 0.1919 0.0288
vn 0.9817 0.1896 0.0182
vn 0.9824 0.1868 -0.0030
vn 0.9794 0.2014 0.0108
vn 0.9505 0.2956 0.0962
vn 0.9556 0.2757 0.1039
vn 0.9468 0.2953 0.1278
vn 0.9644 0.2606 0.0455
vn 0.9565 0.2857 0.0591
vn 0.9675 0.2503 0.0354
vn 0.9605 0.2732 0.0537
vn 0.9737 0.2255 0.0321
vn 0.9780 0.2083 0.0132
vn 0.9716 0.2319 0.0471
vn 0.9680 0.2491 0.0298
usemtl Window_Glass
s 1
f 3/1/1 1/2/2 4/3/3
f 2/4/4 3/1/1 4/3/3
f 2/4/4 4/3/3 5/5/5
f 2/4/4 5/5/5 13/6/6
f 13/6/6 5/5/5 6/7/7
f 6/7/7 7/8/8 13/6/6
f 7/8/8 6/7/7 8/9/9
f 8/9/9 9/10/10 10/11/11
f 10/11/11 7/8/8 8/9/9
f 7/8/8 10/11/11 11/12/12
f 11/12/12 12/13/13 7/8/8
f 7/8/8 12/13/13 14/14/14
f 14/14/14 13/6/6 7/8/8
f 14/14/14 15/15/15 13/6/6
f 15/15/15 2/4/4 13/6/6
f 15/15/15 17/16/16 2/4/4
f 15/15/15 16/17/17 17/16/16
f 20/18/18 18/19/19 19/20/20
f 20/18/18 19/20/20 25/21/21
f 22/22/22 20/18/18 25/21/21
f 24/23/23 21/24/24 22/22/22
f 24/23/23 22/22/22 25/21/21
f 26/25/25 23/26/26 24/23/23
f 25/21/21 26/25/25 24/23/23
f 25/21/21 27/27/27 26/25/25
f 27/27/27 28/28/28 26/25/25
