# Blender v2.93.18 OBJ File: 'Beliveau Meteor new 8.blend'
# www.blender.org
mtllib Beliveau meteor steering.mtl
o steering_x0_steering_wheel
v 0.801258 0.801229 16.564800
v 1.133147 0.000068 16.565018
v 1.133147 -0.000019 -0.623525
v 0.000000 1.133195 16.564983
v 0.801258 0.801228 -0.623519
v 0.000000 1.133130 -0.623526
v -0.801258 0.801229 16.564800
v -1.133148 0.000068 16.565018
v -0.801258 0.801228 -0.623519
v -0.801258 -0.801259 16.564875
v -1.133148 -0.000019 -0.623525
v 0.000000 -1.133226 16.564693
v -0.801258 -0.801265 -0.623533
v 0.000000 -1.133134 -0.623544
v 0.801258 -0.801259 16.564875
v 0.801258 -0.801265 -0.623533
v -7.837897 0.000016 -9.670378
v -7.823843 -3.240737 -10.138184
v -7.136482 -0.782002 -10.138184
v 0.000000 0.253394 -4.063496
v -7.136482 0.781987 -10.138169
v -8.468448 0.000019 -10.138170
v -6.736955 -2.790531 -10.138166
v -7.241757 2.999628 -9.669930
v -7.241757 -2.999629 -9.669944
v 0.000000 1.035381 -3.022278
v 0.000000 1.817361 -4.063515
v 7.837896 0.000016 -9.670378
v 7.136483 -0.782002 -10.138184
v 0.000000 1.035397 -4.531306
v 7.241757 -2.999629 -9.669944
v 7.837896 0.000001 -10.605993
v 7.136483 0.000001 -10.605993
v 6.736954 -2.790531 -10.138166
v 5.156249 -5.156226 -10.138197
v 5.542587 -5.542605 -9.669950
v 7.241757 -2.999644 -10.606424
v 8.468447 0.000019 -10.138170
v 5.542587 -5.542601 -10.606395
v 7.823802 -3.240737 -10.138184
v 5.988098 -5.988089 -10.138165
v 2.999640 -7.241773 -9.669930
v 2.999640 -7.241753 -10.606428
v 3.240741 -7.823833 -10.138165
v 0.000000 -8.468432 -10.138190
v 0.000000 -7.838413 -9.669958
v 0.000000 -7.838408 -10.606404
v -2.999640 -7.241753 -10.606428
v -2.790545 -6.736932 -10.138195
v 0.000000 -7.291997 -10.138181
v 2.790545 -6.736932 -10.138195
v -2.999640 -7.241738 -9.669950
v -3.240741 -7.823833 -10.138165
v -5.542588 -5.542605 -9.669950
v -5.988098 -5.988089 -10.138165
v -5.156250 -5.156226 -10.138197
v -5.542588 -5.542601 -10.606395
v -7.241757 -2.999624 -10.606389
v -7.837897 0.000001 -10.605993
v -7.241757 2.999511 -10.606350
v -7.136482 0.000001 -10.605993
v -6.736955 2.790535 -10.138151
v -5.156250 5.156379 -10.138254
v -5.542588 5.542672 -9.669962
v -7.823803 3.240720 -10.138168
v -5.988098 5.987957 -10.138075
v -2.999640 7.241598 -9.669846
v -3.240741 7.823987 -10.138287
v -2.790545 6.737053 -10.138237
v 0.000000 7.838447 -9.669934
v 2.999640 7.241598 -9.669846
v 0.000000 7.292118 -10.138251
v 0.000000 8.468279 -10.138083
v 3.240741 7.823646 -10.138089
v 2.999640 7.241826 -10.606462
v 0.000000 7.838328 -10.606354
v -2.999640 7.241826 -10.606462
v 2.790545 6.737053 -10.138237
v 5.156249 5.156379 -10.138254
v 5.542587 5.542672 -9.669962
v 7.241757 2.999628 -9.669930
v 5.988098 5.987957 -10.138075
v 5.542587 5.542557 -10.606383
v 7.823802 3.240720 -10.138168
v 7.241757 2.999511 -10.606350
v 7.136483 0.781987 -10.138169
v 6.736954 2.790515 -10.138186
v -5.542588 5.542557 -10.606383
v 4.470935 -0.000010 -8.830980
v 4.151724 -1.719693 -8.830979
v 5.218768 -0.000010 -8.830980
v 4.821525 -1.997127 -8.830960
v 3.690229 -3.690210 -8.830952
v 3.177592 -3.177568 -8.830976
v 1.719681 -4.151687 -8.830962
v 0.000000 -4.493785 -8.830977
v 1.997121 -4.821509 -8.830974
v 0.000000 -5.218747 -8.830976
v -1.719682 -4.151687 -8.830962
v -1.997122 -4.821509 -8.830974
v -3.690229 -3.690210 -8.830952
v -3.177592 -3.177568 -8.830976
v -4.151724 -1.719693 -8.830979
v -4.821526 -1.997127 -8.830960
v -4.470936 -0.000010 -8.830980
v -5.218769 -0.000010 -8.830980
v 1.250549 -1.250554 0.000005
v 0.000000 -1.768579 -0.000000
v 0.000000 -2.264198 -5.406696
v 1.601060 -1.601028 -5.406711
v 1.768579 0.000012 -0.000007
v 2.264208 -0.000000 -5.406715
v 1.250549 1.250547 0.000002
v 1.601060 1.601047 -5.406685
v 0.000000 1.768571 0.000005
v 0.000000 2.264218 -5.406697
v -1.250549 1.250547 0.000002
v -1.601060 1.601047 -5.406685
v -1.768579 0.000012 -0.000007
v -2.264208 -0.000000 -5.406715
v -1.250549 -1.250554 0.000005
v -1.601060 -1.601028 -5.406711
v -1.250549 -1.250562 -8.709598
v -1.768579 0.000008 -8.709609
v 0.000000 0.000006 -9.103706
v -1.250549 1.250574 -8.709621
v 0.000000 1.768567 -8.709598
v 1.250549 1.250574 -8.709621
v 1.768579 0.000008 -8.709609
v 1.250549 -1.250562 -8.709598
v 0.000000 -1.768551 -8.709621
vt 0.065613 -0.781250
vt 0.069458 -0.781250
vt 0.069458 -0.705078
vt 0.065613 -0.705078
vt 0.061737 -0.781250
vt 0.061737 -0.705078
vt 0.057892 -0.781250
vt 0.057892 -0.705078
vt 0.054047 -0.781250
vt 0.054047 -0.705078
vt 0.050171 -0.781250
vt 0.050171 -0.705078
vt 0.046326 -0.781250
vt 0.046326 -0.705078
vt 0.042481 -0.781250
vt 0.042481 -0.705078
vt 0.038605 -0.781250
vt 0.038605 -0.705078
vt 0.791016 -0.406494
vt 0.792480 -0.409912
vt 0.811035 -0.406250
vt 0.811035 -0.402344
vt 0.793457 -0.413086
vt 0.806152 -0.410645
vt 0.812500 -0.454346
vt 0.816895 -0.454346
vt 0.829102 -0.409912
vt 0.815430 -0.410645
vt 0.821777 -0.454346
vt 0.811035 -0.406250
vt 0.806152 -0.410400
vt 0.550781 -0.350586
vt 0.538574 -0.268555
vt 0.529785 -0.268555
vt 0.541504 -0.350586
vt 0.792480 -0.409912
vt 0.793457 -0.412842
vt 0.538574 -0.260498
vt 0.506348 -0.273193
vt 0.779297 -0.422607
vt 0.776855 -0.420166
vt 0.479248 -0.291260
vt 0.503906 -0.267334
vt 0.538574 -0.253174
vt 0.501465 -0.260498
vt 0.474854 -0.286865
vt 0.791016 -0.406250
vt 0.773926 -0.417480
vt 0.469727 -0.281738
vt 0.811035 -0.402344
vt 0.455322 -0.316162
vt 0.766113 -0.435791
vt 0.762695 -0.434326
vt 0.448486 -0.313232
vt 0.762695 -0.454346
vt 0.758789 -0.454346
vt 0.441162 -0.350586
vt 0.448486 -0.350586
vt 0.455322 -0.315918
vt 0.448486 -0.350342
vt 0.441162 -0.350342
vt 0.454590 -0.350586
vt 0.461182 -0.318359
vt 0.454590 -0.350342
vt 0.769531 -0.437256
vt 0.766113 -0.454346
vt 0.461182 -0.318359
vt 0.766113 -0.436035
vt 0.762695 -0.454590
vt 0.766113 -0.454590
vt 0.769531 -0.437256
vt 0.758789 -0.454590
vt 0.762695 -0.434570
vt 0.776855 -0.420410
vt 0.773926 -0.417725
vt 0.779297 -0.422852
vt 0.479248 -0.291260
vt 0.506348 -0.272949
vt 0.474854 -0.286621
vt 0.448486 -0.313232
vt 0.469727 -0.281494
vt 0.503906 -0.267090
vt 0.501465 -0.260498
vt 0.529785 -0.268311
vt 0.538574 -0.260254
vt 0.538574 -0.252930
vt 0.573242 -0.267090
vt 0.538574 -0.268311
vt 0.547363 -0.268311
vt 0.570801 -0.272949
vt 0.597656 -0.291260
vt 0.828125 -0.413086
vt 0.842285 -0.422852
vt 0.844727 -0.420410
vt 0.830566 -0.406494
vt 0.847656 -0.417725
vt 0.855469 -0.436035
vt 0.858887 -0.434570
vt 0.858887 -0.454346
vt 0.852051 -0.437256
vt 0.855469 -0.436035
vt 0.855469 -0.454346
vt 0.862793 -0.454346
vt 0.858887 -0.434326
vt 0.636230 -0.350586
vt 0.628418 -0.313232
vt 0.622070 -0.316162
vt 0.628906 -0.350586
vt 0.628418 -0.313232
vt 0.636230 -0.350342
vt 0.628906 -0.350342
vt 0.622070 -0.315918
vt 0.622559 -0.350342
vt 0.616211 -0.318359
vt 0.622559 -0.350586
vt 0.852051 -0.437256
vt 0.842285 -0.422607
vt 0.844727 -0.420410
vt 0.597656 -0.291260
vt 0.847656 -0.417480
vt 0.829102 -0.409912
vt 0.607422 -0.281738
vt 0.602539 -0.286865
vt 0.573242 -0.267334
vt 0.830566 -0.406250
vt 0.575684 -0.260498
vt 0.547363 -0.268555
vt 0.570801 -0.273193
vt 0.828125 -0.412842
vt 0.815430 -0.410400
vt 0.559570 -0.350586
vt 0.616211 -0.318359
vt 0.602539 -0.286621
vt 0.607422 -0.281494
vt 0.575684 -0.260498
vt 0.550781 -0.350342
vt 0.559570 -0.350342
vt 0.541504 -0.350342
vt 0.503906 -0.302734
vt 0.523926 -0.299072
vt 0.523926 -0.290527
vt 0.500977 -0.295166
vt 0.481445 -0.308105
vt 0.487305 -0.313965
vt 0.476074 -0.330811
vt 0.472168 -0.350586
vt 0.468262 -0.327637
vt 0.463867 -0.350586
vt 0.463867 -0.350342
vt 0.468262 -0.327393
vt 0.476074 -0.330566
vt 0.472168 -0.350342
vt 0.481445 -0.308105
vt 0.487305 -0.313965
vt 0.503906 -0.302734
vt 0.523926 -0.299072
vt 0.500977 -0.294922
vt 0.523926 -0.290527
vt 0.727051 -0.771484
vt 0.727051 -0.760254
vt 0.692871 -0.760254
vt 0.692871 -0.771484
vt 0.727051 -0.782715
vt 0.727051 -0.793457
vt 0.692871 -0.782715
vt 0.692871 -0.793457
vt 0.727051 -0.804688
vt 0.727051 -0.815918
vt 0.692871 -0.804688
vt 0.692871 -0.815918
vt 0.727051 -0.826660
vt 0.727051 -0.837891
vt 0.692871 -0.826660
vt 0.692871 -0.837891
vt 0.727051 -0.849121
vt 0.670898 -0.826660
vt 0.692871 -0.849121
vt 0.670898 -0.837891
vt 0.495850 -0.317871
vt 0.510254 -0.312012
vt 0.510254 -0.332275
vt 0.524414 -0.317871
vt 0.670898 -0.815918
vt 0.530762 -0.332275
vt 0.670898 -0.804688
vt 0.524414 -0.346680
vt 0.670898 -0.793457
vt 0.510254 -0.352539
vt 0.670898 -0.782715
vt 0.495850 -0.346680
vt 0.670898 -0.771484
vt 0.489990 -0.332275
vt 0.670898 -0.760254
vt 0.670898 -0.849121
vn 0.7071 0.7071 -0.0000
vn 1.0000 0.0000 -0.0000
vn -0.0000 1.0000 -0.0000
vn -0.7071 0.7071 -0.0000
vn -1.0000 0.0000 0.0000
vn -0.7072 -0.7070 0.0000
vn -0.7071 -0.7071 -0.0000
vn 0.0000 -1.0000 -0.0000
vn 0.7072 -0.7070 -0.0000
vn 0.7071 -0.7071 0.0000
vn -0.5511 -0.2282 0.8027
vn -0.5511 -0.2282 0.8026
vn -0.5959 -0.0001 0.8031
vn 0.6012 0.2490 0.7593
vn 0.6454 0.1284 0.7530
vn 0.6453 0.1284 0.7530
vn -0.3949 -0.7092 0.5841
vn -0.3966 -0.7064 0.5863
vn -0.0044 -0.7988 0.6016
vn -0.0016 -0.7981 0.6026
vn 0.6012 -0.2490 0.7593
vn 0.6453 -0.1284 0.7530
vn -0.4990 0.7251 0.4746
vn -0.4968 0.7281 0.4723
vn -0.5280 0.6826 0.5052
vn -0.5511 0.2283 0.8026
vn 0.5227 0.6839 0.5090
vn 0.5239 0.6811 0.5115
vn 0.5041 0.7246 0.4699
vn -0.5313 0.6774 0.5087
vn 0.3985 -0.7098 0.5809
vn 0.4004 -0.7075 0.5823
vn -0.6443 0.0400 -0.7637
vn -0.3142 -0.0101 -0.9493
vn -0.5928 -0.1612 -0.7891
vn -0.6271 -0.3999 -0.6685
vn -0.6012 0.2490 0.7593
vn -0.6453 0.1284 0.7530
vn -0.3051 -0.2723 -0.9126
vn -0.6012 0.2490 -0.7593
vn -0.4601 0.4601 0.7593
vn -0.4601 0.4601 -0.7593
vn 0.5511 -0.2283 -0.8026
vn 0.5959 0.0001 -0.8031
vn 0.4218 -0.4218 -0.8026
vn 0.5511 -0.2283 0.8026
vn 0.4218 -0.4218 0.8026
vn 0.5959 0.0001 0.8031
vn 0.2283 -0.5511 -0.8026
vn 0.2283 -0.5511 0.8026
vn -0.0000 -0.5965 0.8026
vn 0.0000 -0.5965 -0.8026
vn -0.2283 -0.5511 -0.8026
vn -0.2490 0.6012 -0.7593
vn -0.0000 0.6507 -0.7593
vn 0.2490 0.6012 -0.7593
vn -0.2490 0.6012 0.7593
vn 0.0000 0.6507 0.7593
vn 0.2490 0.6012 0.7593
vn -0.2283 -0.5511 0.8026
vn -0.4218 -0.4218 0.8026
vn 0.4601 0.4601 0.7593
vn 0.4601 0.4601 -0.7593
vn 0.6012 0.2490 -0.7593
vn -0.4218 -0.4218 -0.8026
vn -0.5511 -0.2282 -0.8026
vn -0.5510 -0.2282 -0.8027
vn 0.5928 -0.1612 -0.7891
vn 0.3051 -0.2723 -0.9126
vn -0.5959 -0.0001 -0.8031
vn -0.5510 0.2282 -0.8027
vn 0.3142 -0.0101 -0.9493
vn 0.3051 0.2723 -0.9126
vn 0.5625 0.1837 -0.8061
vn 0.6012 -0.2490 -0.7593
vn 0.4601 -0.4601 -0.7593
vn 0.4602 -0.4602 0.7592
vn 0.4602 -0.4602 0.7593
vn -0.4218 0.4218 0.8026
vn -0.2283 0.5511 0.8026
vn 0.2491 -0.6014 0.7591
vn 0.0000 0.5965 0.8026
vn -0.0000 -0.6508 0.7592
vn -0.2491 -0.6014 0.7591
vn 0.2283 0.5511 0.8026
vn 0.0000 0.5966 -0.8025
vn 0.2284 0.5513 -0.8024
vn 0.0000 0.5966 -0.8026
vn -0.2282 0.5510 -0.8027
vn -0.2283 0.5510 -0.8027
vn 0.2490 -0.6012 -0.7593
vn -0.0000 -0.6507 -0.7593
vn -0.2490 -0.6012 -0.7593
vn -0.4602 -0.4602 0.7593
vn -0.4602 -0.4602 0.7592
vn -0.4601 -0.4601 -0.7593
vn 0.4218 0.4218 0.8026
vn 0.5512 0.2282 0.8026
vn -0.6012 -0.2490 0.7593
vn 0.4219 0.4218 -0.8026
vn 0.4219 0.4219 -0.8025
vn 0.5511 0.2282 -0.8026
vn 0.5511 0.2282 0.8026
vn 0.5510 0.2282 -0.8027
vn -0.5625 0.1837 -0.8061
vn -0.6011 -0.2490 -0.7594
vn -0.6012 -0.2490 -0.7593
vn -0.3051 0.2723 -0.9126
vn -0.6453 -0.1284 0.7530
vn -0.5485 0.4293 -0.7175
vn 0.5020 0.7288 0.4656
vn -0.4218 0.4219 -0.8025
vn -0.4219 0.4218 -0.8026
vn -0.5511 0.2283 -0.8026
vn 0.6443 0.0400 -0.7637
vn 0.5485 0.4293 -0.7175
vn 0.6271 -0.3999 -0.6685
vn 0.0000 -0.0000 -1.0000
vn 0.7042 -0.7042 0.0913
vn 0.0000 -0.9958 0.0913
vn 0.0000 -0.9996 -0.0280
vn 0.7068 -0.7068 -0.0280
vn 0.9958 0.0000 0.0913
vn 0.7042 0.7042 0.0913
vn 0.9996 -0.0000 -0.0280
vn 0.7068 0.7068 -0.0280
vn -0.0000 0.9958 0.0913
vn -0.7041 0.7042 0.0913
vn -0.0000 0.9996 -0.0280
vn -0.7068 0.7068 -0.0280
vn -0.9958 0.0000 0.0913
vn -0.7042 -0.7042 0.0913
vn -0.9996 -0.0000 -0.0280
vn -0.7068 -0.7068 -0.0280
vn -0.9889 0.0000 -0.1484
vn -0.6993 -0.6993 -0.1484
vn -0.1538 -0.1538 -0.9761
vn -0.2175 -0.0000 -0.9761
vn -0.1538 0.1538 -0.9761
vn -0.6993 0.6993 -0.1484
vn 0.0000 0.2175 -0.9761
vn 0.0000 0.9889 -0.1484
vn 0.1538 0.1538 -0.9761
vn 0.6993 0.6993 -0.1484
vn 0.2175 -0.0000 -0.9761
vn 0.9889 -0.0000 -0.1484
vn 0.1538 -0.1538 -0.9761
vn 0.6993 -0.6993 -0.1484
vn 0.0000 -0.2175 -0.9761
vn -0.0000 -0.9889 -0.1484
usemtl Cabin
s 1
f 1/1/1 2/2/2 3/3/2
f 3/3/2 5/4/1 1/1/1
f 4/5/3 1/1/1 5/4/1
f 5/4/1 6/6/3 4/5/3
f 7/7/4 4/5/3 6/6/3
f 6/6/3 9/8/4 7/7/4
f 8/9/5 7/7/4 9/8/4
f 9/8/4 11/10/5 8/9/5
f 10/11/6 8/9/5 11/10/5
f 11/10/5 13/12/7 10/11/6
f 12/13/8 10/11/6 13/12/7
f 13/12/7 14/14/8 12/13/8
f 15/15/9 12/13/8 14/14/8
f 14/14/8 16/16/10 15/15/9
f 2/17/2 15/15/9 16/16/10
f 16/16/10 3/18/2 2/17/2
f 18/19/11 25/20/12 17/21/13
f 17/21/13 22/22/13 18/19/11
f 23/23/14 19/24/15 17/21/16
f 17/21/17 19/24/18 20/25/19
f 20/25/19 26/26/20 17/21/17
f 24/27/21 17/21/22 21/28/22
f 21/28/23 17/21/24 26/26/25
f 22/22/13 17/21/13 24/27/26
f 17/21/16 25/20/14 23/23/14
f 27/29/27 26/26/28 28/30/29
f 26/26/25 27/29/30 21/28/23
f 29/31/31 28/30/32 26/26/20
f 26/26/20 20/25/19 29/31/31
f 30/32/33 33/33/34 29/34/35
f 29/34/35 20/35/36 30/32/33
f 31/36/37 28/30/38 29/31/38
f 29/31/38 34/37/37 31/36/37
f 32/38/39 29/34/35 33/33/34
f 34/39/40 29/34/35 32/38/39
f 34/37/37 35/40/41 36/41/41
f 35/42/42 34/39/40 37/43/40
f 36/41/41 31/36/37 34/37/37
f 32/38/39 37/43/40 34/39/40
f 37/43/43 32/38/44 38/44/44
f 38/44/44 40/45/43 37/43/43
f 37/43/40 39/46/42 35/42/42
f 39/46/45 37/43/43 40/45/43
f 40/47/46 31/36/46 36/41/47
f 36/41/47 41/48/47 40/47/46
f 40/45/43 41/49/45 39/46/45
f 31/36/46 40/47/46 38/50/48
f 43/51/49 39/46/45 41/49/45
f 41/48/47 36/41/47 42/52/50
f 42/52/50 44/53/50 41/48/47
f 41/49/45 44/54/49 43/51/49
f 46/55/51 45/56/51 44/53/50
f 44/54/49 45/57/52 47/58/52
f 44/53/50 42/52/50 46/55/51
f 47/58/52 43/51/49 44/54/49
f 48/59/53 47/60/52 45/61/52
f 43/51/54 47/58/55 50/62/55
f 47/60/55 48/59/56 49/63/56
f 49/63/56 50/64/55 47/60/55
f 51/65/57 50/66/58 46/55/58
f 50/62/55 51/67/54 43/51/54
f 52/68/59 46/69/58 50/70/58
f 50/70/58 49/71/59 52/68/59
f 45/72/51 46/69/51 52/68/60
f 52/68/60 53/73/60 45/72/51
f 53/73/60 52/68/60 54/74/61
f 54/74/62 52/68/59 49/71/59
f 54/74/61 55/75/61 53/73/60
f 55/75/61 54/74/61 25/20/12
f 49/71/59 56/76/62 54/74/62
f 25/20/14 54/74/62 56/76/62
f 56/76/62 23/23/14 25/20/14
f 56/77/63 49/63/56 48/59/56
f 23/78/64 56/77/63 57/79/63
f 48/59/56 57/79/63 56/77/63
f 53/80/53 55/81/65 57/79/65
f 58/82/66 57/79/65 55/81/65
f 57/79/65 48/59/53 53/80/53
f 57/79/63 58/82/64 23/78/64
f 55/81/65 18/83/67 58/82/66
f 19/84/68 23/78/64 58/82/64
f 58/82/64 59/85/69 19/84/68
f 59/85/70 58/82/66 18/83/67
f 18/83/67 22/86/70 59/85/70
f 60/87/71 59/85/70 22/86/70
f 61/88/72 19/84/68 59/85/69
f 59/85/73 21/89/74 61/88/72
f 62/90/75 21/89/74 59/85/73
f 59/85/73 60/87/75 62/90/75
f 63/91/76 62/90/75 60/87/75
f 62/92/21 63/93/77 64/94/78
f 64/94/78 24/27/21 62/92/21
f 21/28/22 62/92/21 24/27/21
f 65/95/26 24/27/26 64/94/79
f 64/94/79 66/96/79 65/95/26
f 66/96/79 64/94/79 67/97/80
f 67/97/81 64/94/78 63/93/77
f 67/97/80 68/98/80 66/96/79
f 68/98/80 67/97/80 70/99/82
f 63/93/77 69/100/81 67/97/81
f 70/99/83 67/97/81 69/100/81
f 71/101/84 70/99/83 72/102/83
f 73/103/82 70/99/82 71/101/85
f 70/99/82 73/103/82 68/98/80
f 69/100/81 72/102/83 70/99/83
f 71/101/85 74/104/85 73/103/82
f 73/105/86 74/106/87 75/107/87
f 75/107/87 76/108/88 73/105/86
f 68/109/89 73/110/86 76/111/88
f 76/111/88 77/112/90 68/109/89
f 77/112/91 76/111/92 72/113/92
f 76/108/92 75/107/93 78/114/93
f 78/114/93 72/115/92 76/108/92
f 72/102/83 78/116/84 71/101/84
f 78/116/84 79/117/94 80/118/95
f 79/119/96 78/114/93 75/107/93
f 80/118/95 71/101/84 78/116/84
f 82/120/97 80/118/97 81/121/98
f 81/121/99 80/118/95 79/117/94
f 74/104/85 71/101/85 80/118/97
f 80/118/97 82/120/97 74/104/85
f 74/106/87 82/122/100 83/123/101
f 85/124/102 83/123/101 82/122/100
f 81/121/98 84/125/103 82/120/97
f 82/122/100 84/126/104 85/124/102
f 86/127/105 87/128/106 85/124/107
f 85/124/107 32/38/108 86/127/105
f 32/38/44 85/124/102 84/126/104
f 83/123/96 85/124/107 87/128/106
f 87/129/99 86/130/109 28/30/109
f 28/30/109 81/121/99 87/129/99
f 79/117/94 87/129/99 81/121/99
f 87/128/106 79/119/96 83/123/96
f 86/127/105 33/33/34 30/32/33
f 30/32/33 27/131/110 86/127/105
f 28/30/29 86/130/111 27/29/27
f 86/127/105 32/38/108 33/33/34
f 28/30/48 38/50/48 84/125/103
f 84/126/104 38/44/44 32/38/44
f 84/125/103 81/121/98 28/30/48
f 75/107/93 83/123/96 79/119/96
f 83/123/101 75/107/87 74/106/87
f 72/113/92 69/132/91 77/112/91
f 88/133/76 77/112/91 69/132/91
f 77/112/90 88/133/112 66/134/113
f 66/134/113 68/109/89 77/112/90
f 65/135/114 66/134/113 88/133/112
f 88/133/112 60/87/71 65/135/114
f 69/132/91 63/91/76 88/133/76
f 60/87/75 88/133/76 63/91/76
f 24/27/26 65/95/26 22/22/13
f 22/86/70 65/135/114 60/87/71
f 30/136/115 61/88/72 21/89/74
f 19/84/68 61/88/72 30/136/115
f 25/20/12 18/19/11 55/75/61
f 45/61/52 53/80/53 48/59/53
f 35/40/41 51/65/57 42/52/57
f 46/55/58 42/52/57 51/65/57
f 39/46/42 43/51/54 51/67/54
f 51/67/54 35/42/42 39/46/42
f 42/52/57 36/41/41 35/40/41
f 38/50/48 28/30/48 31/36/46
f 21/89/74 27/137/116 30/136/115
f 30/136/115 20/138/117 19/84/68
f 90/139/118 89/140/118 91/141/118
f 91/141/118 92/142/118 90/139/118
f 92/142/118 93/143/118 94/144/118
f 94/144/118 90/139/118 92/142/118
f 95/145/118 94/144/118 93/143/118
f 96/146/118 95/145/118 97/147/118
f 93/143/118 97/147/118 95/145/118
f 97/147/118 98/148/118 96/146/118
f 98/149/118 100/150/118 99/151/118
f 99/151/118 96/152/118 98/149/118
f 100/150/118 101/153/118 102/154/118
f 102/154/118 99/151/118 100/150/118
f 103/155/118 102/154/118 101/153/118
f 105/156/118 103/155/118 104/157/118
f 101/153/118 104/157/118 103/155/118
f 104/157/118 106/158/118 105/156/118
f 107/159/119 108/160/120 109/161/121
f 109/161/121 110/162/122 107/159/119
f 111/163/123 107/159/119 110/162/122
f 113/164/124 111/163/123 112/165/125
f 110/162/122 112/165/125 111/163/123
f 112/165/125 114/166/126 113/164/124
f 115/167/127 113/164/124 114/166/126
f 117/168/128 115/167/127 116/169/129
f 114/166/126 116/169/129 115/167/127
f 116/169/129 118/170/130 117/168/128
f 119/171/131 117/168/128 118/170/130
f 121/172/132 119/171/131 120/173/133
f 118/170/130 120/173/133 119/171/131
f 120/173/133 122/174/134 121/172/132
f 108/175/120 121/172/132 122/174/134
f 122/174/134 120/173/133 124/176/135
f 109/177/121 122/174/134 123/178/136
f 124/176/135 123/178/136 122/174/134
f 122/174/134 109/177/121 108/175/120
f 123/179/137 124/180/138 125/181/118
f 124/180/138 126/182/139 125/181/118
f 126/183/140 124/176/135 120/173/133
f 126/182/139 127/184/141 125/181/118
f 127/185/142 126/183/140 118/170/130
f 120/173/133 118/170/130 126/183/140
f 127/184/141 128/186/143 125/181/118
f 128/187/144 127/185/142 116/169/129
f 118/170/130 116/169/129 127/185/142
f 128/186/143 129/188/145 125/181/118
f 116/169/129 114/166/126 128/187/144
f 129/189/146 128/187/144 114/166/126
f 129/188/145 130/190/147 125/181/118
f 130/191/148 129/189/146 112/165/125
f 114/166/126 112/165/125 129/189/146
f 130/190/147 131/192/149 125/181/118
f 131/193/150 130/191/148 110/162/122
f 112/165/125 110/162/122 130/191/148
f 110/162/122 109/161/121 131/193/150
f 131/192/149 123/179/137 125/181/118
f 123/178/136 131/194/150 109/177/121
