# Blender v2.93.18 OBJ File: 'CMA Scania 8.blend'
# www.blender.org
mtllib CMA Scania door l comp 2.mtl
o door_l_comp_2_wing_lr_ok.003
v 2.386163 -42.594105 2.053839
v 0.604119 -8.931023 35.892910
v 0.604119 -8.931023 -35.900658
v 0.625915 -9.496314 35.892910
v 0.376193 -2.600093 -35.900658
v 0.487094 -5.765260 35.892910
v 0.727112 -12.096148 35.892910
v 2.073922 -43.237545 -1.917465
v 0.998550 -18.844557 35.892910
v 1.184849 -23.324564 -35.900646
v 1.384930 -28.007793 35.892910
v 0.749535 -12.661477 -35.900646
v 0.019821 -0.645938 35.892910
v -0.001344 -0.000259 35.892910
v 1.521588 -41.939201 -1.917465
v 0.608323 -36.895599 -1.917465
v 0.608323 -37.142654 -35.900570
v 1.582652 -42.257759 -1.917465
v 1.101166 -31.780514 -1.917465
v 1.580536 -31.444162 -1.917465
v 1.580536 -31.444166 -35.900608
v 1.363724 -31.444166 -35.900608
v 1.845214 -42.594105 -1.917465
v 2.321757 -42.594105 -1.917465
v 2.321757 -42.594112 -35.900608
v 1.164312 -31.553373 35.892910
v 1.363724 -31.444162 2.053839
v 1.164312 -31.553373 2.053839
v 1.582652 -42.257759 2.053839
v 0.608323 -36.895599 2.053839
v 0.608323 -37.142647 2.053839
v 1.521588 -41.939201 2.053839
v 0.619357 -36.777634 2.053839
v 1.055260 -32.117924 2.053839
v 1.845214 -42.594105 2.053839
v 2.321757 -42.594105 35.892910
v 2.321757 -42.594105 2.053839
v 2.044078 -42.594105 35.892910
v 2.044078 -42.594105 2.053839
v 0.621791 -37.245892 2.053839
v 1.101166 -31.780514 35.892910
v 1.580536 -31.444162 35.892910
v 1.580536 -31.444162 2.053839
v 0.621791 -37.245892 1.896759
v 2.321757 -42.594105 1.896759
v 0.619357 -36.777634 1.896759
v 2.236266 -46.740761 2.053839
v 2.236266 -46.740761 -1.917465
v 2.236266 -46.740761 35.892910
v 0.608323 -37.142647 1.896759
v 0.608323 -36.895599 -1.760385
v 0.608323 -37.142647 -1.760385
v 1.582652 -42.257759 -1.760385
v 0.619357 -36.777634 -1.760385
v 1.645803 -42.484898 1.896759
v 1.645803 -42.484898 -1.760385
v 1.845214 -42.594105 -1.760385
v 2.321757 -42.594105 -1.760385
v 1.101166 -31.780514 1.896759
v 1.101166 -31.780514 -1.760385
v 1.580536 -31.444162 1.896759
v 1.580536 -31.444162 -1.760385
v 1.363724 -31.444162 -1.760385
v 1.164312 -31.553373 -1.760385
v 1.560860 -31.553335 1.896759
v 1.587801 -31.553335 1.896759
v 1.845214 -42.594105 1.896759
v 1.582652 -42.257759 1.896759
v 1.521588 -41.939201 1.896759
v 1.363724 -31.444162 1.896759
v 1.278467 -31.553335 1.896759
v 1.424909 -31.553335 1.896759
v 1.164312 -31.553373 1.896759
v 1.495396 -31.553335 1.896759
v 1.055260 -32.117924 1.896759
v 0.608323 -36.895599 1.896759
v 0.621791 -37.245892 -1.760385
v 1.521588 -41.939201 -1.760385
v 1.560860 -31.553335 -1.760385
v 1.587801 -31.553335 -1.760385
v 1.278467 -31.553335 -1.760385
v 1.424909 -31.553335 -1.760385
v 1.495396 -31.553335 -1.760385
v 1.055260 -32.117924 -1.760385
v 0.608323 -37.142647 -1.917465
v 0.621791 -37.245892 -1.917465
v 0.619357 -36.777634 -1.917465
v 1.055260 -32.117924 -1.917465
v 1.363724 -31.444162 -1.917465
v 1.164312 -31.553373 -1.917465
v 1.645803 -42.484898 -1.917465
v 1.101166 -31.780514 2.053839
v 1.645803 -42.484898 2.053839
v 1.536746 -31.444162 -1.917465
v 1.536746 -31.444162 -1.760385
v 1.536746 -31.444162 1.896759
v 1.536746 -31.444162 2.053839
v 2.044078 -42.594105 -1.917465
v 2.044078 -42.594105 -1.760385
v 2.044078 -42.594105 1.896759
v 2.386163 -42.594105 -1.917465
v 2.416007 -43.237545 2.053839
v 2.416007 -43.237545 -1.917465
v 2.073922 -43.237545 2.053839
v 0.621791 -37.245934 35.892944
v 0.619357 -36.777672 35.892944
v 1.363724 -31.444162 35.892944
v 1.582652 -42.257759 35.892952
v 1.845214 -42.594105 35.892952
v 1.645803 -42.484898 35.892952
v 1.521588 -41.939201 35.892952
v 0.608323 -37.142647 35.892944
v 0.608323 -36.895641 35.892944
v 1.055260 -32.117958 35.892944
v 0.619357 -36.777634 -35.900570
v 1.521588 -41.939201 -35.900570
v 1.645803 -42.484898 -35.900570
v 1.582652 -42.257759 -35.900570
v 1.845214 -42.594112 -35.900536
v 1.101166 -31.780514 -35.900570
v 1.164312 -31.553377 -35.900570
v 1.055260 -32.117928 -35.900570
v 0.608323 -36.895603 -35.900570
v 0.621791 -37.245895 -35.900570
v 0.749535 -12.661519 35.892986
v 0.541993 -12.378855 35.892986
v 0.418648 -9.213687 35.892986
v 0.300875 -6.048552 35.892986
v 0.507318 -6.330631 35.892986
v 0.395831 -3.165426 35.892986
v 0.189665 -2.883309 35.892986
v 0.541993 -12.378855 -35.900608
v 0.727112 -12.096148 -35.900608
v 0.418648 -9.213607 -35.900620
v 0.625915 -9.496314 -35.900620
v 0.300875 -6.048477 -35.900620
v 0.487094 -5.765260 -35.900620
v 0.507318 -6.330552 -35.900620
v 0.189665 -2.883272 -35.900620
v 0.395831 -3.165389 -35.900620
v 0.310261 -0.645938 -35.900620
v 1.536746 -31.444166 -35.900570
v 2.044078 -42.594112 -35.900570
v 0.343485 -1.658711 -35.900620
v 0.833219 -14.771029 -35.900608
v 1.384930 -28.007799 -35.900570
v 0.998550 -18.844557 -35.900608
v 2.236266 -46.740761 -35.900646
v 2.073922 -43.237545 -35.900570
v 1.536746 -31.444162 35.892986
v 0.376193 -2.600093 35.892910
v 0.343485 -1.658711 35.892910
v 0.833219 -14.771029 35.892910
v 1.184849 -23.324564 35.892910
v 2.073922 -43.237545 35.892986
v 0.310261 -0.645938 35.892910
v 0.019821 -0.645938 -35.900620
v -0.001344 -0.000217 -35.900620
v 0.749535 -12.661519 35.892986
v 0.507318 -6.330631 35.892986
v 0.395831 -3.165426 35.892986
v 0.727112 -12.096148 -35.900608
v 0.625915 -9.496314 -35.900620
v 0.507318 -6.330552 -35.900620
v 0.487094 -5.765260 -35.900620
v 0.395831 -3.165389 -35.900620
v 0.376193 -2.600093 35.892910
v 0.604119 -8.931023 -35.900658
v 0.604119 -8.931023 35.892910
v 0.019821 -0.645938 35.892910
v 1.582652 -42.257759 -1.917465
v 1.521588 -41.939201 -1.917465
v 1.580536 -31.444162 -1.917465
v 2.321757 -42.594105 -1.917465
v 1.845214 -42.594105 -1.917465
v 1.363724 -31.444162 2.053839
v 1.164312 -31.553373 2.053839
v 0.608323 -36.895599 2.053839
v 0.608323 -37.142647 2.053839
v 1.521588 -41.939201 2.053839
v 1.582652 -42.257759 2.053839
v 0.619357 -36.777634 2.053839
v 1.055260 -32.117924 2.053839
v 1.845214 -42.594105 2.053839
v 2.321757 -42.594105 2.053839
v 2.044078 -42.594105 2.053839
v 2.044078 -42.594105 2.053839
v 2.044078 -42.594105 2.053839
v 0.621791 -37.245892 2.053839
v 1.580536 -31.444162 2.053839
v 0.608323 -36.895599 -1.760385
v 0.608323 -37.142647 -1.760385
v 0.619357 -36.777634 -1.760385
v 1.645803 -42.484898 -1.760385
v 1.845214 -42.594105 -1.760385
v 2.321757 -42.594105 -1.760385
v 1.580536 -31.444162 1.896759
v 1.580536 -31.444162 -1.760385
v 1.363724 -31.444162 -1.760385
v 1.164312 -31.553373 -1.760385
v 1.101166 -31.780514 -1.760385
v 1.582652 -42.257759 -1.760385
v 0.621791 -37.245892 1.896759
v 1.521588 -41.939201 1.896759
v 1.845214 -42.594105 1.896759
v 2.321757 -42.594105 1.896759
v 1.055260 -32.117924 1.896759
v 0.619357 -36.777634 1.896759
v 1.582652 -42.257759 1.896759
v 0.608323 -36.895599 1.896759
v 1.521588 -41.939201 -1.760385
v 0.621791 -37.245892 -1.760385
v 0.608323 -37.142647 -1.917465
v 0.621791 -37.245892 -1.917465
v 1.055260 -32.117924 -1.917465
v 0.619357 -36.777634 -1.917465
v 1.363724 -31.444162 -1.917465
v 1.164312 -31.553373 -1.917465
v 1.363724 -31.444162 1.896759
v 1.164312 -31.553373 1.896759
v 2.044078 -42.594105 -1.917465
v 2.044078 -42.594105 -1.917465
v 2.044078 -42.594105 -1.917465
v 2.416007 -43.237545 2.053839
v 2.416007 -43.237545 2.053839
v 2.416007 -43.237545 -1.917465
v 2.416007 -43.237545 -1.917465
v 2.073922 -43.237545 2.053839
v 2.073922 -43.237545 2.053839
v 0.727112 -12.096148 35.892910
v 0.625915 -9.496314 35.892910
v 0.487094 -5.765260 35.892910
v 0.749535 -12.661477 -35.900646
v 0.376193 -2.600093 -35.900658
v 0.310261 -0.645938 -35.900620
v 0.310261 -0.645938 35.892910
v 0.019821 -0.645938 -35.900620
v 2.386163 -42.594105 -1.917465
v 2.386163 -42.594105 -1.917465
v 2.386163 -42.594105 2.053839
v 2.386163 -42.594105 2.053839
v 2.073922 -43.237545 -1.917465
v 2.073922 -43.237545 -1.917465
v 0.608323 -36.895599 -1.917465
v 1.101166 -31.780514 -1.917465
v 1.645803 -42.484898 -1.917465
v 1.645803 -42.484898 2.053839
v 1.101166 -31.780514 2.053839
v 0.608323 -37.142647 1.896759
v 1.055260 -32.117924 -1.760385
v 1.645803 -42.484898 1.896759
v 1.101166 -31.780514 1.896759
vt 0.473200 0.769900
vt 0.480700 0.769900
vt 0.480700 0.769900
vt 0.473200 0.769900
vt 0.544600 0.839400
vt 0.544600 0.844300
vt 0.409100 0.844300
vt 0.409100 0.839400
vt 0.544600 0.833400
vt 0.544600 0.838300
vt 0.409100 0.838300
vt 0.409100 0.833400
vt 0.544600 0.827500
vt 0.544600 0.832400
vt 0.409100 0.832400
vt 0.409100 0.827500
vt 0.544600 0.844300
vt 0.544600 0.844800
vt 0.409100 0.844800
vt 0.409100 0.844300
vt 0.544600 0.832400
vt 0.544600 0.832900
vt 0.409100 0.832900
vt 0.409100 0.832400
vt 0.544600 0.845400
vt 0.409100 0.845400
vt 0.544600 0.833400
vt 0.409100 0.833400
vt 0.544600 0.847200
vt 0.544600 0.849100
vt 0.409100 0.849100
vt 0.409100 0.847200
vt 0.544600 0.845400
vt 0.409100 0.845400
vt 0.544600 0.838300
vt 0.544600 0.838900
vt 0.409100 0.838900
vt 0.409100 0.838300
vt 0.544600 0.839400
vt 0.409100 0.839400
vt 0.544600 0.826400
vt 0.544600 0.826900
vt 0.409100 0.826900
vt 0.409100 0.826400
vt 0.544600 0.827500
vt 0.409100 0.827500
vt 0.473200 0.768700
vt 0.473200 0.769900
vt 0.409100 0.769900
vt 0.409100 0.768700
vt 0.544600 0.806300
vt 0.544600 0.814700
vt 0.409100 0.814700
vt 0.409100 0.806300
vt 0.544600 0.797400
vt 0.409100 0.797400
vt 0.544600 0.822400
vt 0.544600 0.826400
vt 0.409100 0.826400
vt 0.409100 0.822400
vt 0.409100 0.850300
vt 0.409100 0.849100
vt 0.544600 0.849100
vt 0.544600 0.850300
vt 0.409100 0.849100
vt 0.409100 0.849100
vt 0.544600 0.849100
vt 0.544600 0.849100
vt 0.473200 0.771100
vt 0.473200 0.780000
vt 0.409100 0.780000
vt 0.409100 0.771100
vt 0.473200 0.780200
vt 0.473200 0.780600
vt 0.409100 0.780600
vt 0.409100 0.780200
vt 0.473200 0.770500
vt 0.409100 0.770500
vt 0.473200 0.789700
vt 0.473200 0.790300
vt 0.409100 0.790300
vt 0.409100 0.789700
vt 0.473200 0.780900
vt 0.409100 0.780900
vt 0.473200 0.790900
vt 0.473200 0.790900
vt 0.409100 0.790900
vt 0.409100 0.790900
vt 0.473200 0.790700
vt 0.409100 0.790700
vt 0.473200 0.769900
vt 0.473200 0.770100
vt 0.409100 0.770100
vt 0.409100 0.769900
vt 0.473200 0.769900
vt 0.409100 0.769900
vt 0.544600 0.790700
vt 0.544600 0.790900
vt 0.480700 0.790900
vt 0.480700 0.790700
vt 0.544600 0.770100
vt 0.544600 0.770500
vt 0.480700 0.770500
vt 0.480700 0.770100
vt 0.544600 0.780200
vt 0.544600 0.780600
vt 0.480700 0.780600
vt 0.480700 0.780200
vt 0.544600 0.771100
vt 0.480700 0.771100
vt 0.544600 0.780900
vt 0.480700 0.780900
vt 0.544600 0.789700
vt 0.480700 0.789700
vt 0.544600 0.769900
vt 0.480700 0.769900
vt 0.544600 0.769900
vt 0.480700 0.769900
vt 0.544600 0.768700
vt 0.544600 0.769900
vt 0.480700 0.769900
vt 0.480700 0.768700
vt 0.544600 0.780000
vt 0.480700 0.780000
vt 0.544600 0.790300
vt 0.480700 0.790300
vt 0.544600 0.790900
vt 0.480700 0.790900
vt 0.480400 0.780000
vt 0.480400 0.769900
vt 0.480400 0.780900
vt 0.480700 0.762100
vt 0.473200 0.762100
vt 0.544600 0.762100
vt 0.409100 0.762100
vt 0.480400 0.780200
vt 0.480400 0.780600
vt 0.473500 0.780600
vt 0.473500 0.780200
vt 0.480400 0.770500
vt 0.480400 0.771100
vt 0.473500 0.771100
vt 0.473500 0.770500
vt 0.480400 0.780900
vt 0.473500 0.780900
vt 0.480400 0.789700
vt 0.473500 0.789700
vt 0.480400 0.769900
vt 0.480400 0.770100
vt 0.473500 0.770100
vt 0.473500 0.769900
vt 0.480400 0.769900
vt 0.473500 0.769900
vt 0.480400 0.780000
vt 0.473500 0.780000
vt 0.480400 0.790300
vt 0.473500 0.790300
vt 0.480400 0.790900
vt 0.480400 0.790900
vt 0.473500 0.790900
vt 0.473500 0.790900
vt 0.480400 0.790700
vt 0.473500 0.790700
vt 0.480400 0.790900
vt 0.480400 0.790700
vt 0.480400 0.790700
vt 0.480400 0.769900
vt 0.480400 0.770500
vt 0.480400 0.770100
vt 0.480400 0.771100
vt 0.480400 0.790900
vt 0.480400 0.790700
vt 0.480400 0.790700
vt 0.480400 0.790300
vt 0.480400 0.790700
vt 0.480400 0.790700
vt 0.480400 0.789700
vt 0.480400 0.780200
vt 0.480400 0.780600
vt 0.473500 0.780900
vt 0.473500 0.780000
vt 0.473500 0.780600
vt 0.473500 0.771100
vt 0.473500 0.769900
vt 0.473500 0.780200
vt 0.473500 0.770500
vt 0.473500 0.770100
vt 0.473500 0.769900
vt 0.473500 0.790700
vt 0.473500 0.790700
vt 0.473500 0.790900
vt 0.473500 0.790700
vt 0.473500 0.790700
vt 0.473500 0.790700
vt 0.473500 0.790700
vt 0.473500 0.789700
vt 0.473500 0.790300
vt 0.473500 0.790900
vt 0.473200 0.780200
vt 0.473200 0.780000
vt 0.473200 0.780600
vt 0.473200 0.790900
vt 0.473200 0.780900
vt 0.473200 0.769900
vt 0.473200 0.789700
vt 0.473200 0.790300
vt 0.473200 0.790900
vt 0.473200 0.790700
vt 0.473200 0.770500
vt 0.473200 0.769900
vt 0.473200 0.770100
vt 0.473200 0.771100
vt 0.480700 0.790900
vt 0.480700 0.790300
vt 0.480700 0.790900
vt 0.480700 0.770500
vt 0.480700 0.769900
vt 0.480700 0.769900
vt 0.480700 0.790700
vt 0.480700 0.789700
vt 0.480700 0.780900
vt 0.480700 0.780600
vt 0.480700 0.780000
vt 0.480700 0.780200
vt 0.480700 0.771100
vt 0.480700 0.770100
vt 0.473200 0.790900
vt 0.473500 0.790900
vt 0.480400 0.790900
vt 0.409100 0.790900
vt 0.544600 0.790900
vt 0.480700 0.790900
vt 0.473200 0.769900
vt 0.473500 0.769900
vt 0.480400 0.769900
vt 0.480700 0.769900
vt 0.480700 0.768700
vt 0.480700 0.769900
vt 0.473200 0.769900
vt 0.473200 0.768700
vt 0.480700 0.769900
vt 0.480700 0.768700
vt 0.480700 0.768700
vt 0.480700 0.769900
vt 0.473200 0.768700
vt 0.473200 0.769900
vt 0.473200 0.769900
vt 0.473200 0.768700
vt 0.480700 0.768700
vt 0.473200 0.768700
vt 0.473200 0.768700
vt 0.480700 0.768700
vn 0.0000 -1.0000 0.0000
vn -0.9994 -0.0351 0.0000
vn -0.9993 -0.0372 0.0000
vn -0.9992 -0.0389 0.0000
vn -0.8074 -0.5900 0.0000
vn -0.9997 -0.0244 0.0000
vn -0.9997 -0.0243 0.0000
vn -0.8064 -0.5914 0.0000
vn -0.9996 -0.0260 0.0000
vn -0.9997 -0.0258 0.0000
vn -0.8065 -0.5913 0.0000
vn -0.8351 0.5500 0.0000
vn -0.8351 0.5501 0.0000
vn -0.8361 0.5486 0.0000
vn -0.8360 0.5487 0.0000
vn -0.9994 -0.0338 0.0000
vn -0.9995 -0.0328 0.0000
vn -0.9994 -0.0347 0.0000
vn -0.8070 -0.5906 0.0000
vn -0.9997 -0.0252 0.0000
vn -0.9997 -0.0251 0.0000
vn -0.8069 -0.5906 0.0000
vn -0.8356 0.5493 0.0000
vn -0.8355 0.5494 0.0000
vn -0.8061 -0.5918 0.0000
vn -0.9996 -0.0268 0.0000
vn -0.8060 -0.5919 0.0000
vn -0.8366 0.5478 0.0000
vn -0.9989 -0.0463 0.0000
vn -0.9991 -0.0421 0.0000
vn -0.9991 -0.0410 0.0000
vn -0.9991 -0.0434 0.0000
vn -0.9992 -0.0401 0.0000
vn -0.9992 -0.0396 0.0000
vn -0.9995 -0.0327 0.0000
vn -0.9821 -0.1883 0.0000
vn -0.9873 -0.1589 0.0000
vn -0.9979 -0.0648 0.0000
vn -0.9989 0.0466 0.0000
vn -0.9736 -0.2282 0.0000
vn -0.9935 0.1140 0.0000
vn -0.9794 0.2018 0.0000
vn -0.9956 0.0931 0.0000
vn -0.2479 0.9688 0.0000
vn 0.0000 1.0000 0.0000
vn -0.7835 0.6213 0.0000
vn -0.7835 0.6214 0.0000
vn -0.2479 -0.9688 0.0000
vn -0.7835 -0.6213 0.0000
vn -0.9873 -0.1588 0.0000
vn 0.0000 0.0000 1.0000
vn 0.0000 0.0000 -1.0000
vn 0.9429 0.3331 0.0000
vn -0.4388 -0.8986 0.0000
vn -0.9990 -0.0446 0.0000
vn -0.9990 -0.0441 0.0000
vn -0.9990 -0.0454 0.0000
usemtl primary
s 1
f 238/1/1 240/2/1 187/3/1
f 222/4/1 238/1/1 187/3/1
f 6/5/2 130/6/2 140/7/2
f 137/8/2 6/5/2 140/7/2
f 169/9/3 129/10/3 138/11/3
f 168/12/3 169/9/3 138/11/3
f 7/13/4 4/14/4 135/15/4
f 133/16/4 7/13/4 135/15/4
f 161/17/5 131/18/6 139/19/7
f 166/20/5 161/17/5 139/19/7
f 231/21/8 127/22/9 134/23/10
f 163/24/11 231/21/8 134/23/10
f 131/18/6 151/25/12 234/26/13
f 139/19/7 131/18/6 234/26/13
f 127/22/9 2/27/14 3/28/15
f 134/23/10 127/22/9 3/28/15
f 152/29/16 236/30/17 235/31/17
f 144/32/16 152/29/16 235/31/17
f 167/33/18 152/29/16 144/32/16
f 5/34/18 167/33/18 144/32/16
f 160/35/19 128/36/20 136/37/21
f 164/38/22 160/35/19 136/37/21
f 128/36/20 232/39/23 165/40/24
f 136/37/21 128/36/20 165/40/24
f 159/41/25 126/42/26 132/43/26
f 233/44/27 159/41/25 132/43/26
f 126/42/26 230/45/28 162/46/28
f 132/43/26 126/42/26 162/46/28
f 242/47/29 223/48/29 143/49/29
f 149/50/29 242/47/29 143/49/29
f 154/51/30 9/52/31 147/53/31
f 10/54/30 154/51/30 147/53/31
f 11/55/32 154/51/30 10/54/30
f 146/56/32 11/55/32 10/54/30
f 153/57/33 125/58/34 12/59/34
f 145/60/33 153/57/33 12/59/34
f 9/52/31 153/57/33 145/60/33
f 147/53/31 9/52/31 145/60/33
f 158/61/35 237/62/35 170/63/35
f 14/64/35 158/61/35 170/63/35
f 157/65/1 141/66/1 156/67/1
f 13/68/1 157/65/1 156/67/1
f 172/69/36 214/70/37 124/71/37
f 116/72/36 172/69/36 124/71/37
f 213/73/38 244/74/39 123/75/39
f 17/76/38 213/73/38 123/75/39
f 214/70/37 213/73/38 17/76/38
f 124/71/37 214/70/37 17/76/38
f 171/77/40 172/69/36 116/72/36
f 118/78/40 171/77/40 116/72/36
f 215/79/41 245/80/42 120/81/42
f 122/82/41 215/79/41 120/81/42
f 244/74/39 216/83/43 115/84/43
f 123/75/39 244/74/39 115/84/43
f 217/85/44 173/86/45 21/87/45
f 22/88/44 217/85/44 21/87/45
f 216/83/43 215/79/41 122/82/41
f 115/84/43 216/83/43 122/82/41
f 245/80/42 218/89/46 121/90/47
f 120/81/42 245/80/42 121/90/47
f 175/91/48 246/92/49 117/93/49
f 119/94/48 175/91/48 117/93/49
f 218/89/46 217/85/44 22/88/44
f 121/90/47 218/89/46 22/88/44
f 174/95/1 175/91/48 119/94/48
f 25/96/1 174/95/1 119/94/48
f 246/92/49 171/77/40 118/78/40
f 117/93/49 246/92/49 118/78/40
f 26/97/46 107/98/44 176/99/44
f 177/100/46 26/97/46 176/99/44
f 110/101/49 108/102/40 181/103/40
f 247/104/49 110/101/49 181/103/40
f 112/105/38 113/106/39 178/107/39
f 179/108/38 112/105/38 178/107/39
f 108/102/40 111/109/36 180/110/36
f 181/103/40 108/102/40 180/110/36
f 113/106/39 106/111/43 182/112/43
f 178/107/39 113/106/39 182/112/43
f 106/111/43 114/113/41 183/114/41
f 182/112/43 106/111/43 183/114/41
f 109/115/48 110/101/49 247/104/49
f 184/116/48 109/115/48 247/104/49
f 36/117/1 109/115/48 184/116/48
f 185/118/1 36/117/1 184/116/48
f 155/119/29 38/120/29 186/121/29
f 229/122/29 155/119/29 186/121/29
f 111/109/36 105/123/50 189/124/37
f 180/110/36 111/109/36 189/124/37
f 105/123/50 112/105/38 179/108/38
f 189/124/37 105/123/50 179/108/38
f 114/113/41 41/125/42 248/126/42
f 183/114/41 114/113/41 248/126/42
f 107/98/44 42/127/45 190/128/45
f 176/99/44 107/98/44 190/128/45
f 41/125/42 26/97/46 177/100/46
f 248/126/42 41/125/42 177/100/46
f 203/129/51 206/130/51 208/131/51
f 47/132/29 229/122/29 242/47/29
f 48/133/29 47/132/29 242/47/29
f 49/134/29 155/119/29 229/122/29
f 47/132/29 49/134/29 229/122/29
f 48/133/29 242/47/29 149/50/29
f 148/135/29 48/133/29 149/50/29
f 249/136/38 76/137/39 191/138/39
f 192/139/38 249/136/38 191/138/39
f 68/140/40 204/141/36 211/142/36
f 202/143/40 68/140/40 211/142/36
f 76/137/39 46/144/43 193/145/43
f 191/138/39 76/137/39 193/145/43
f 46/144/43 75/146/41 84/147/41
f 193/145/43 46/144/43 84/147/41
f 67/148/48 251/149/49 194/150/49
f 195/151/48 67/148/48 194/150/49
f 45/152/1 67/148/48 195/151/48
f 196/153/1 45/152/1 195/151/48
f 204/141/36 44/154/37 212/155/37
f 211/142/36 204/141/36 212/155/37
f 44/154/37 249/136/38 192/139/38
f 212/155/37 44/154/37 192/139/38
f 75/146/41 252/156/42 201/157/42
f 84/147/41 75/146/41 201/157/42
f 70/158/44 197/159/45 198/160/45
f 199/161/44 70/158/44 198/160/45
f 252/156/42 73/162/46 200/163/46
f 201/157/42 252/156/42 200/163/46
f 73/162/46 70/158/44 199/161/44
f 200/163/46 73/162/46 199/161/44
f 251/149/49 68/140/40 202/143/40
f 194/150/49 251/149/49 202/143/40
f 61/164/51 65/165/51 66/166/51
f 205/167/51 209/168/51 55/169/51
f 69/170/51 206/130/51 203/129/51
f 205/167/51 206/130/51 209/168/51
f 219/171/51 71/172/51 72/173/51
f 59/174/51 71/172/51 220/175/51
f 65/165/51 74/176/51 207/177/51
f 208/131/51 65/165/51 207/177/51
f 50/178/51 203/129/51 210/179/51
f 209/168/51 206/130/51 69/170/51
f 207/177/51 74/176/51 72/173/51
f 59/174/51 207/177/51 72/173/51
f 210/179/51 203/129/51 208/131/51
f 54/180/52 77/181/52 51/182/52
f 78/183/52 77/181/52 58/184/52
f 52/185/52 51/182/52 77/181/52
f 78/183/52 58/184/52 53/186/52
f 56/187/52 53/186/52 57/188/52
f 54/180/52 79/189/52 80/190/52
f 58/184/52 54/180/52 80/190/52
f 63/191/52 81/192/52 64/193/52
f 82/194/52 83/195/52 250/196/52
f 60/197/52 82/194/52 250/196/52
f 54/180/52 58/184/52 77/181/52
f 53/186/52 58/184/52 57/188/52
f 62/198/52 82/194/52 63/191/52
f 83/195/52 79/189/52 54/180/52
f 250/196/52 83/195/52 54/180/52
f 85/199/51 86/200/51 16/201/51
f 20/202/51 87/203/51 24/204/51
f 87/203/51 20/202/51 88/205/51
f 19/206/51 89/207/51 90/208/51
f 89/207/51 19/206/51 20/202/51
f 24/204/51 18/209/51 23/210/51
f 91/211/51 23/210/51 18/209/51
f 15/212/51 24/204/51 86/200/51
f 16/201/51 86/200/51 87/203/51
f 19/206/51 88/205/51 20/202/51
f 24/204/51 15/212/51 18/209/51
f 86/200/51 24/204/51 87/203/51
f 43/213/52 92/214/52 27/215/52
f 29/216/52 37/217/52 35/218/52
f 28/219/52 27/215/52 92/214/52
f 34/220/52 43/213/52 33/221/52
f 30/222/52 40/223/52 31/224/52
f 32/225/52 37/217/52 29/216/52
f 30/222/52 33/221/52 40/223/52
f 92/214/52 43/213/52 34/220/52
f 37/217/52 40/223/52 33/221/52
f 93/226/52 29/216/52 35/218/52
f 40/223/52 37/217/52 32/225/52
f 43/213/52 37/217/52 33/221/52
f 65/165/51 61/164/51 74/176/51
f 208/131/51 206/130/51 66/166/51
f 65/165/51 208/131/51 66/166/51
f 71/172/51 59/174/51 72/173/51
f 72/173/51 61/164/51 219/171/51
f 71/172/51 219/171/51 220/175/51
f 94/227/53 95/228/54 96/229/55
f 142/230/56 94/227/53 96/229/55
f 146/56/32 142/230/56 96/229/55
f 11/55/32 146/56/32 96/229/55
f 150/231/56 11/55/32 96/229/55
f 97/232/54 150/231/56 96/229/55
f 74/176/51 61/164/51 72/173/51
f 81/192/52 60/197/52 64/193/52
f 82/194/52 60/197/52 81/192/52
f 81/192/52 63/191/52 82/194/52
f 82/194/52 62/198/52 83/195/52
f 83/195/52 62/198/52 79/189/52
f 79/189/52 62/198/52 80/190/52
f 221/233/57 99/234/57 95/228/54
f 94/227/53 221/233/57 95/228/54
f 100/235/57 188/236/57 97/232/54
f 96/229/55 100/235/57 97/232/54
f 224/237/29 241/238/29 239/239/29
f 226/240/29 224/237/29 239/239/29
f 1/241/52 225/242/52 228/243/52
f 39/244/52 1/241/52 228/243/52
f 227/245/51 101/246/51 98/247/51
f 243/248/51 227/245/51 98/247/51
f 102/249/45 103/250/45 8/251/45
f 104/252/45 102/249/45 8/251/45
