# Blender v2.93.18 OBJ File: 'CMA Scania 9.blend'
# www.blender.org
mtllib CMA Scania interior gauges.mtl
o interior_gauges_painel
v -23.140022 26.970779 -252.517838
v -26.359901 27.161875 -252.684311
v -26.300564 27.348244 -252.846649
v -25.712101 25.982601 -251.657089
v -23.316580 26.416248 -252.034775
v -26.203291 26.416248 -252.034775
v -24.259342 28.132473 -253.529800
v -26.300564 26.593325 -252.189072
v -23.449394 27.688765 -253.143204
v -23.219305 26.593325 -252.189072
v -25.013325 28.177244 -253.568741
v -24.759918 28.192282 -253.581818
v -24.259342 25.809101 -251.505966
v -25.260496 25.809101 -251.505966
v -25.260496 28.132473 -253.529800
v -24.024502 25.882458 -251.569870
v -23.614481 27.834532 -253.270172
v -25.495367 25.882458 -251.569870
v -24.759918 25.749327 -251.453873
v -24.506546 25.764370 -251.466873
v -25.013325 25.764370 -251.466873
v -24.024502 28.059168 -253.465866
v -25.495367 28.059168 -253.465866
v -23.807770 27.958977 -253.378586
v -25.712101 27.958977 -253.378586
v -25.905388 27.834547 -253.270172
v -23.159969 26.779675 -252.351318
v -26.379848 26.970768 -252.517822
v -26.359901 26.779675 -252.351318
v -23.614481 26.107071 -251.765579
v -23.449394 26.252808 -251.892441
v -26.070480 26.252808 -251.892441
v -25.905388 26.107071 -251.765579
v -24.506504 28.177259 -253.568726
v -26.203291 27.525301 -253.000900
v -23.219305 27.348248 -252.846603
v -23.316580 27.525301 -253.000900
v -26.070480 27.688755 -253.143204
v -23.807770 25.982595 -251.657089
v -23.159969 27.161888 -252.684265
v -29.649282 25.496469 -250.783600
v -29.451796 25.253471 -250.571899
v -29.894722 25.713169 -250.972382
v -33.546257 25.496696 -250.783264
v -33.300823 25.713404 -250.972092
v -33.013439 25.898434 -251.133301
v -32.691196 26.047367 -251.262985
v -30.182104 25.898233 -251.133453
v -30.504354 26.047165 -251.263138
v -30.853498 26.156256 -251.358185
v -32.342041 26.156372 -251.358078
v -31.974508 26.222908 -251.415939
v -31.220995 26.222824 -251.416077
v -31.597754 26.245195 -251.435547
v -33.743710 25.253704 -250.571655
v -33.888344 24.990402 -250.342361
v -29.307203 24.990210 -250.342606
v -29.218964 24.713079 -250.101257
v -29.189318 24.429001 -249.853714
v -33.976582 24.713284 -250.100967
v -34.006233 24.429152 -249.853668
v -29.218964 24.144918 -249.606277
v -33.976582 24.145035 -249.606171
v -33.888344 23.867899 -249.364777
v -29.307203 23.867785 -249.364899
v -29.451796 23.604513 -249.135559
v -29.649282 23.361517 -248.923935
v -33.743710 23.604559 -249.135468
v -33.546257 23.361517 -248.923935
v -33.300823 23.144827 -248.735153
v -29.894722 23.144825 -248.735168
v -30.182104 22.959745 -248.573914
v -30.504354 22.810827 -248.444214
v -33.013439 22.959745 -248.573914
v -32.691196 22.810827 -248.444214
v -30.853498 22.701794 -248.349152
v -32.342041 22.701794 -248.349152
v -31.974552 22.635263 -248.291367
v -31.220995 22.635263 -248.291367
v -31.597795 22.612913 -248.271851
vt 0.235921 0.270136
vt 0.271815 0.272929
vt 0.200024 0.272929
vt 0.340102 0.699124
vt 0.306834 0.712741
vt 0.165009 0.712741
vt 0.131737 0.699124
vt 0.398186 0.657406
vt 0.370805 0.680520
vt 0.101033 0.680520
vt 0.073652 0.657406
vt 0.462572 0.461498
vt 0.465400 0.496987
vt 0.006439 0.496987
vt 0.009265 0.461498
vt 0.398186 0.336578
vt 0.421572 0.363644
vt 0.050265 0.363644
vt 0.073652 0.336578
vt 0.271820 0.721056
vt 0.235921 0.723849
vt 0.200024 0.721056
vt 0.031450 0.393998
vt 0.440388 0.393998
vt 0.017671 0.426885
vt 0.454167 0.426885
vt 0.031450 0.599977
vt 0.017671 0.567092
vt 0.454167 0.567092
vt 0.440388 0.599977
vt 0.165009 0.281236
vt 0.306834 0.281236
vt 0.131737 0.294859
vt 0.340102 0.294859
vt 0.050265 0.630334
vt 0.421572 0.630334
vt 0.101033 0.313459
vt 0.370805 0.313459
vt 0.462572 0.532477
vt 0.009265 0.532477
vt 0.959347 0.604454
vt 0.940779 0.634672
vt 0.574399 0.634702
vt 0.917704 0.661620
vt 0.597475 0.661650
vt 0.624493 0.684660
vt 0.654789 0.703179
vt 0.890685 0.684635
vt 0.860389 0.703155
vt 0.687619 0.716736
vt 0.827563 0.716721
vt 0.722170 0.725009
vt 0.793013 0.724999
vt 0.757591 0.727783
vt 0.555835 0.604483
vt 0.542238 0.571738
vt 0.972941 0.571714
vt 0.981237 0.537256
vt 0.533942 0.537275
vt 0.984024 0.501924
vt 0.531154 0.501943
vt 0.533942 0.466610
vt 0.981237 0.466595
vt 0.542238 0.432146
vt 0.972941 0.432132
vt 0.959347 0.399392
vt 0.555835 0.399397
vt 0.940779 0.369173
vt 0.574399 0.369177
vt 0.597475 0.342225
vt 0.917704 0.342225
vt 0.890685 0.319209
vt 0.860389 0.300691
vt 0.624493 0.319209
vt 0.654789 0.300691
vt 0.827563 0.287130
vt 0.687616 0.287130
vt 0.722166 0.278857
vt 0.793013 0.278857
vt 0.757591 0.276078
vn 0.0000 0.6539 0.7566
vn 0.0000 0.6579 0.7531
vn 0.0000 0.6569 0.7540
vn 0.0000 0.6572 0.7537
vn 0.0000 0.6569 0.7539
vn 0.0000 0.6568 0.7540
vn 0.0000 0.6568 0.7541
vn 0.0000 0.6567 0.7541
vn 0.0000 0.6560 0.7547
vn 0.0000 0.6567 0.7542
vn -0.0001 0.6564 0.7544
vn 0.0000 0.6566 0.7542
vn 0.0000 0.6570 0.7539
vn 0.0001 0.6568 0.7540
vn 0.0001 0.6569 0.7539
vn 0.0001 0.6567 0.7541
vn 0.0001 0.6568 0.7541
vn 0.0001 0.6567 0.7542
vn 0.0001 0.6566 0.7542
vn 0.0001 0.6569 0.7540
vn 0.0001 0.6571 0.7538
vn 0.0001 0.6570 0.7538
vn 0.0002 0.6556 0.7551
vn 0.0002 0.6585 0.7526
vn 0.0000 0.6570 0.7538
vn 0.0000 0.6558 0.7549
vn 0.0000 0.6577 0.7532
usemtl left_rear_light
s 1
f 19/1/1 20/2/2 21/3/2
f 22/4/3 7/5/4 15/6/4
f 23/7/5 22/4/3 15/6/4
f 17/8/6 24/9/6 25/10/3
f 26/11/7 17/8/6 25/10/3
f 27/12/7 1/13/6 28/14/3
f 29/15/7 27/12/7 28/14/3
f 30/16/8 31/17/8 32/18/8
f 33/19/8 30/16/8 32/18/8
f 7/5/4 34/20/9 15/6/4
f 12/21/10 11/22/11 34/20/9
f 6/23/6 32/18/8 31/17/8
f 5/24/6 6/23/6 31/17/8
f 29/15/7 8/25/7 10/26/7
f 27/12/7 29/15/7 10/26/7
f 35/27/7 3/28/6 36/29/3
f 37/30/6 35/27/7 36/29/3
f 23/7/5 25/10/3 24/9/6
f 22/4/3 23/7/5 24/9/6
f 14/31/5 21/3/2 13/32/5
f 20/2/2 13/32/5 21/3/2
f 11/22/11 15/6/4 34/20/9
f 18/33/7 14/31/5 13/32/5
f 16/34/7 18/33/7 13/32/5
f 26/11/7 38/35/10 9/36/12
f 17/8/6 26/11/7 9/36/12
f 5/24/6 10/26/7 8/25/7
f 6/23/6 5/24/6 8/25/7
f 33/19/8 4/37/13 39/38/13
f 30/16/8 33/19/8 39/38/13
f 40/39/7 36/29/3 3/28/6
f 2/40/6 40/39/7 3/28/6
f 37/30/6 9/36/12 38/35/10
f 35/27/7 37/30/6 38/35/10
f 16/34/7 39/38/13 4/37/13
f 18/33/7 16/34/7 4/37/13
f 2/40/6 28/14/3 1/13/6
f 40/39/7 2/40/6 1/13/6
f 42/41/14 41/42/15 44/43/16
f 43/44/14 45/45/14 41/42/15
f 45/45/14 44/43/16 41/42/15
f 45/45/14 43/44/14 46/46/17
f 47/47/18 46/46/17 48/48/19
f 43/44/14 48/48/19 46/46/17
f 49/49/20 47/47/18 48/48/19
f 47/47/18 49/49/20 51/50/21
f 49/49/20 50/51/22 51/50/21
f 52/52/23 51/50/21 53/53/19
f 50/51/22 53/53/19 51/50/21
f 54/54/24 52/52/23 53/53/19
f 55/55/16 42/41/14 44/43/16
f 55/55/16 56/56/17 57/57/17
f 42/41/14 55/55/16 57/57/17
f 58/58/14 57/57/17 56/56/17
f 58/58/14 60/59/12 59/60/6
f 60/59/12 58/58/14 56/56/17
f 60/59/12 61/61/8 59/60/6
f 63/62/6 62/63/7 61/61/8
f 62/63/7 59/60/6 61/61/8
f 63/62/6 64/64/7 65/65/7
f 62/63/7 63/62/6 65/65/7
f 66/66/7 65/65/7 64/64/7
f 68/67/12 66/66/7 64/64/7
f 66/66/7 68/67/12 67/68/7
f 68/67/12 69/69/12 67/68/7
f 70/70/6 71/71/6 69/69/12
f 71/71/6 67/68/7 69/69/12
f 71/71/6 70/70/6 72/72/3
f 73/73/6 72/72/3 74/74/6
f 70/70/6 74/74/6 72/72/3
f 75/75/6 73/73/6 74/74/6
f 73/73/6 75/75/6 76/76/25
f 75/75/6 77/77/25 76/76/25
f 77/77/25 78/78/26 76/76/25
f 79/79/26 76/76/25 78/78/26
f 80/80/27 79/79/26 78/78/26
