# Blender v2.93.18 OBJ File: 'peterbilt 359 low poly 11.blend'
# www.blender.org
mtllib Peterbilt 359 hood logo.mtl
o hood_logo_bonnet_ok.009
v 4.397659 44.348732 0.524723
v 4.397659 43.749123 0.524723
v -0.772694 45.551716 0.524723
v -2.397357 45.324276 0.524723
v -3.600594 44.901852 0.524723
v -4.384168 44.348732 0.524723
v -4.384168 43.749123 0.524723
v -2.397357 42.768803 0.524723
v -0.772694 42.537319 0.524723
v 2.430851 42.768803 0.524723
v 3.625332 43.194328 0.524723
v 0.003558 44.043423 0.377672
v 3.625332 44.901852 0.524723
v 2.430851 45.324276 0.524723
v 0.808834 45.551716 0.524723
v -3.600594 43.194328 0.524723
v 0.808834 42.537319 0.524723
v 27.404623 33.878262 32.692554
v 27.331526 33.455826 31.491537
v 27.331526 31.748295 31.491537
v 27.599400 31.091282 35.892857
v 27.697937 31.322760 37.511902
v 27.770504 31.748295 38.704185
v 27.817423 32.303097 39.475090
v 27.817423 32.902702 39.475090
v 27.697264 32.597397 35.080128
v 27.770504 33.455826 38.704185
v 27.697937 33.878262 37.511902
v 27.599400 34.105701 35.892857
v 27.503323 34.105701 34.314240
v 27.283924 32.902702 30.709396
v 27.283924 32.303097 30.709396
v 27.404623 31.322760 32.692554
v 27.503323 31.091282 34.314240
v -27.257484 32.902695 30.710060
v -27.475496 34.105686 34.292255
v -27.571569 34.105686 35.870865
v -27.743361 33.455818 38.693550
v -27.790960 32.303101 39.475681
v -27.743361 31.748304 38.693550
v -27.670267 31.322775 37.492531
v -27.376961 31.322775 32.673229
v -27.304399 31.748299 31.480957
v -27.257484 32.303101 30.710060
v -27.671194 32.597397 35.087112
v -27.304399 33.455818 31.480957
v -27.376961 33.878254 32.673229
v -27.670267 33.878254 37.492531
v -27.790960 32.902695 39.475681
v -27.571569 31.091295 35.870865
v -27.475496 31.091295 34.292255
vt 0.722005 0.061841
vt 0.722005 0.046427
vt 0.828387 0.053993
vt 0.740703 0.076061
vt 0.769622 0.086920
vt 0.808891 0.092767
vt 0.847180 0.092767
vt 0.886514 0.086920
vt 0.915645 0.076061
vt 0.934615 0.061841
vt 0.934615 0.046427
vt 0.915645 0.032165
vt 0.886514 0.021226
vt 0.847180 0.015275
vt 0.808891 0.015275
vt 0.769622 0.021226
vt 0.740703 0.032165
vt 0.722005 0.061841
vt 0.722005 0.046427
vt 0.828387 0.053993
vt 0.740703 0.076061
vt 0.769622 0.086920
vt 0.808891 0.092767
vt 0.847180 0.092767
vt 0.886514 0.086920
vt 0.915645 0.076061
vt 0.934615 0.061841
vt 0.934615 0.046427
vt 0.915645 0.032165
vt 0.886514 0.021226
vt 0.847180 0.015275
vt 0.808891 0.015275
vt 0.769622 0.021226
vt 0.740703 0.032165
vt 0.722005 0.061841
vt 0.722005 0.046427
vt 0.828387 0.053993
vt 0.740703 0.076061
vt 0.769622 0.086920
vt 0.808891 0.092767
vt 0.847180 0.092767
vt 0.886514 0.086920
vt 0.915645 0.076061
vt 0.934615 0.061841
vt 0.934615 0.046427
vt 0.915645 0.032165
vt 0.886514 0.021226
vt 0.847180 0.015275
vt 0.808891 0.015275
vt 0.769622 0.021226
vt 0.740703 0.032165
vn 0.0325 0.0134 -0.9994
vn 0.0325 -0.0134 -0.9994
vn -0.0001 -0.0001 -1.0000
vn 0.0292 0.0477 -0.9984
vn 0.0218 0.0732 -0.9971
vn 0.0081 0.0927 -0.9956
vn -0.0080 0.0929 -0.9956
vn -0.0218 0.0736 -0.9970
vn -0.0292 0.0483 -0.9984
vn -0.0325 0.0135 -0.9994
vn -0.0326 -0.0135 -0.9994
vn -0.0293 -0.0483 -0.9984
vn -0.0219 -0.0737 -0.9970
vn -0.0082 -0.0930 -0.9956
vn 0.0082 -0.0928 -0.9956
vn 0.0219 -0.0732 -0.9971
vn 0.0293 -0.0478 -0.9984
vn 0.9995 0.0134 -0.0282
vn 0.9995 -0.0134 -0.0282
vn 0.9981 -0.0001 -0.0608
vn 0.9984 0.0478 -0.0315
vn 0.9966 0.0732 -0.0388
vn 0.9943 0.0927 -0.0524
vn 0.9933 0.0929 -0.0685
vn 0.9939 0.0736 -0.0823
vn 0.9948 0.0483 -0.0898
vn 0.9955 0.0135 -0.0932
vn 0.9955 -0.0135 -0.0932
vn 0.9948 -0.0483 -0.0899
vn 0.9938 -0.0737 -0.0825
vn 0.9933 -0.0930 -0.0686
vn 0.9943 -0.0928 -0.0522
vn 0.9966 -0.0732 -0.0386
vn 0.9984 -0.0478 -0.0313
vn -0.9955 0.0134 -0.0931
vn -0.9955 -0.0134 -0.0932
vn -0.9981 -0.0001 -0.0606
vn -0.9948 0.0478 -0.0898
vn -0.9939 0.0732 -0.0823
vn -0.9933 0.0927 -0.0685
vn -0.9943 0.0929 -0.0524
vn -0.9965 0.0736 -0.0388
vn -0.9983 0.0483 -0.0315
vn -0.9995 0.0135 -0.0282
vn -0.9995 -0.0135 -0.0282
vn -0.9983 -0.0483 -0.0313
vn -0.9965 -0.0737 -0.0386
vn -0.9943 -0.0930 -0.0523
vn -0.9933 -0.0928 -0.0687
vn -0.9939 -0.0732 -0.0825
vn -0.9948 -0.0478 -0.0899
usemtl inside.11
s 1
f 1/1/1 2/2/2 12/3/3
f 13/4/4 1/1/1 12/3/3
f 14/5/5 13/4/4 12/3/3
f 15/6/6 14/5/5 12/3/3
f 3/7/7 15/6/6 12/3/3
f 4/8/8 3/7/7 12/3/3
f 5/9/9 4/8/8 12/3/3
f 6/10/10 5/9/9 12/3/3
f 7/11/11 6/10/10 12/3/3
f 16/12/12 7/11/11 12/3/3
f 8/13/13 16/12/12 12/3/3
f 9/14/14 8/13/13 12/3/3
f 17/15/15 9/14/14 12/3/3
f 10/16/16 17/15/15 12/3/3
f 11/17/17 10/16/16 12/3/3
f 2/2/2 11/17/17 12/3/3
f 25/18/18 24/19/19 26/20/20
f 27/21/21 25/18/18 26/20/20
f 28/22/22 27/21/21 26/20/20
f 29/23/23 28/22/22 26/20/20
f 30/24/24 29/23/23 26/20/20
f 18/25/25 30/24/24 26/20/20
f 19/26/26 18/25/25 26/20/20
f 31/27/27 19/26/26 26/20/20
f 32/28/28 31/27/27 26/20/20
f 20/29/29 32/28/28 26/20/20
f 33/30/30 20/29/29 26/20/20
f 34/31/31 33/30/30 26/20/20
f 21/32/32 34/31/31 26/20/20
f 22/33/33 21/32/32 26/20/20
f 23/34/34 22/33/33 26/20/20
f 24/19/19 23/34/34 26/20/20
f 35/35/35 44/36/36 45/37/37
f 46/38/38 35/35/35 45/37/37
f 47/39/39 46/38/38 45/37/37
f 36/40/40 47/39/39 45/37/37
f 37/41/41 36/40/40 45/37/37
f 48/42/42 37/41/41 45/37/37
f 38/43/43 48/42/42 45/37/37
f 49/44/44 38/43/43 45/37/37
f 39/45/45 49/44/44 45/37/37
f 40/46/46 39/45/45 45/37/37
f 41/47/47 40/46/46 45/37/37
f 50/48/48 41/47/47 45/37/37
f 51/49/49 50/48/48 45/37/37
f 42/50/50 51/49/49 45/37/37
f 43/51/51 42/50/50 45/37/37
f 44/36/36 43/51/51 45/37/37
