# Blender v2.93.18 OBJ File: 'Chevrolet Chevelle SS 1967 11.blend'
# www.blender.org
mtllib 1967 chevelle gauges.mtl
o gauges_chevelle67_gauges.001
v -21.991657 5.142509 -38.965328
v -21.992643 5.682259 -39.487087
v -11.464906 5.147477 -38.970783
v -11.465917 5.688221 -39.492592
v -22.223337 4.048590 -39.062653
v -22.227217 4.512900 -39.409882
v -11.256112 4.045305 -39.059570
v -11.260719 4.511569 -39.409130
v -8.888082 4.799570 -39.885448
v -8.884697 3.527771 -38.931015
v -9.261417 4.481357 -39.646992
v -9.264560 3.800600 -39.136826
v -7.635032 4.486965 -39.652557
v -7.635575 3.808900 -39.142906
v -7.999746 4.806009 -39.893051
v -7.999360 3.540211 -38.940037
v -25.562302 4.729964 -39.865833
v -25.559473 3.458097 -38.908871
v -25.935066 4.412333 -39.624825
v -25.938807 3.731602 -39.115349
v -24.309118 4.418124 -39.630291
v -24.309584 3.740078 -39.119949
v -24.673746 4.736670 -39.870350
v -24.673038 3.470274 -38.917904
v -24.721395 3.633182 -38.698189
v -25.508230 3.635374 -38.701920
v -24.722736 3.737490 -38.817219
v -25.508924 3.738063 -38.818691
v -24.729389 4.735302 -39.552765
v -25.514477 4.737504 -39.554050
v -24.729349 4.886468 -39.605522
v -25.514740 4.887385 -39.606564
v -8.046329 3.706416 -38.729748
v -8.832334 3.707540 -38.731403
v -8.047295 3.837039 -38.865307
v -8.833496 3.837644 -38.867535
v -8.052316 4.781583 -39.561596
v -8.838837 4.781869 -39.562267
v -8.052707 4.992010 -39.632469
v -8.839942 4.993306 -39.634987
v 0.114675 -9.426745 -33.693417
v 1.532367 -9.477773 -31.019562
v 1.548536 -9.511309 -33.694477
v -0.558373 11.811104 -36.576687
v -0.557626 11.250418 -40.567619
v -1.680961 11.249544 -40.569576
v -1.681347 11.809414 -36.577114
v -2.804056 11.808124 -36.577766
v -2.803539 11.246937 -40.567749
v -3.929477 11.243352 -40.567417
v -3.929866 11.804978 -36.578220
v -5.055284 11.800396 -36.577866
v -5.055624 11.239881 -40.569294
v 5.085808 11.802963 -36.578911
v 5.085722 11.241911 -40.568851
v 3.963040 11.807049 -36.578228
v 3.962926 11.245377 -40.568199
v 2.840209 11.809123 -36.578876
v 2.840347 11.247764 -40.568546
v 1.713807 11.249544 -40.567184
v 1.713944 11.809909 -36.577141
v 0.577972 11.811599 -36.578857
v 0.577354 11.250418 -40.567619
v -6.152782 8.415577 -35.838821
v -6.152321 8.199395 -35.894394
v -5.692830 8.418297 -35.841240
v -5.693077 8.202605 -35.896805
v -26.510136 7.938480 -35.685352
v -25.735115 7.954700 -35.696621
v -26.510603 8.166129 -35.625687
v -25.735764 8.177452 -35.638939
v -23.032110 8.002492 -35.733154
v -22.350122 8.011129 -35.740894
v -23.034443 8.216918 -35.677498
v -22.353815 8.227241 -35.684166
v -6.691589 8.197824 -35.892319
v -6.301204 8.199548 -35.894268
v -6.691666 8.412533 -35.836742
v -6.301558 8.414856 -35.838696
v -7.167372 8.195620 -35.890636
v -6.871543 8.196943 -35.892292
v -7.167108 8.410940 -35.835052
v -6.871489 8.412939 -35.836712
v -8.043465 8.185163 -35.892200
v -7.369210 8.187341 -35.893795
v -8.043650 8.399598 -35.836597
v -7.369856 8.402952 -35.839260
v -10.884532 8.162192 -35.879696
v -10.013385 8.170836 -35.880543
v -10.883921 8.377052 -35.822914
v -10.013327 8.386260 -35.824883
v 0.821174 4.346090 -39.116604
v 0.820894 4.531253 -39.304169
v -0.985052 4.346141 -39.116573
v -0.984464 4.531323 -39.304108
v -2.646425 -0.164222 -37.942738
v -2.359465 -0.165217 -37.942585
v -2.645614 -0.024548 -37.857388
v -2.358353 -0.024513 -37.857174
v -2.690640 0.477092 -37.557606
v -2.285157 0.476677 -37.556976
v -2.690611 0.619990 -37.469753
v -2.285326 0.620345 -37.471249
v -2.643828 1.127314 -37.167740
v -2.356446 1.127861 -37.168098
v -2.643572 1.278716 -37.076283
v -2.357022 1.279181 -37.076580
v 1.400435 1.251880 -37.092304
v 1.401171 1.105246 -37.179527
v 1.694377 1.251913 -37.092854
v 1.693796 1.105227 -37.178967
v 2.409554 1.237261 -37.100208
v 2.409893 1.114112 -37.173851
v 2.577062 1.237460 -37.099564
v 2.576720 1.114278 -37.173176
v -1.378377 1.271034 -37.081081
v -1.377868 1.088294 -37.189587
v -1.036892 1.270829 -37.081673
v -1.037324 1.088139 -37.190228
v 2.406175 0.595318 -37.485928
v 2.405258 0.452577 -37.570534
v 2.690065 0.595581 -37.485329
v 2.691013 0.452769 -37.570957
v -0.740250 0.610904 -37.476086
v -0.740369 0.454414 -37.570961
v 0.685415 0.611118 -37.474945
v 0.685377 0.454632 -37.569817
v -0.600904 -0.028859 -37.859531
v -0.600692 -0.195522 -37.959633
v 0.558589 -0.028859 -37.860626
v 0.559346 -0.196622 -37.960732
v 2.194425 -0.011585 -37.850395
v 2.195504 -0.165039 -37.941391
v 2.726831 -0.012252 -37.849697
v 2.728559 -0.164985 -37.942783
v 0.114021 -9.394356 -31.020641
v 25.674778 24.705090 -20.866371
v 25.731205 24.745752 -20.533348
v 25.327513 24.679644 -20.806225
v 25.383081 24.719179 -20.476290
v 24.041769 24.810158 -21.036427
v 24.105560 24.837852 -20.694181
v 23.704578 24.913029 -20.988293
v 23.767899 24.945520 -20.649567
v 25.084946 24.670172 -21.751993
v 25.089806 24.666042 -21.412508
v 24.732468 24.661461 -21.748833
v 24.737467 24.657335 -21.412682
v 24.803640 24.779055 -20.276619
v 24.863764 24.862892 -19.942850
v 24.453299 24.828556 -20.230007
v 24.512770 24.917202 -19.901209
v -25.370243 24.735830 -20.512505
v -25.721800 24.764290 -20.536732
v -25.347164 24.698359 -20.846720
v -25.698528 24.726810 -20.873671
v -23.752285 24.930662 -20.683119
v -24.091188 24.824341 -20.696480
v -23.720490 24.900911 -21.025465
v -24.062925 24.800505 -21.044348
v -24.729265 24.667206 -21.451582
v -25.080046 24.678699 -21.418268
v -24.754557 24.673128 -21.786873
v -25.107265 24.684664 -21.757673
v -24.498123 24.914015 -19.935934
v -24.852802 24.862398 -19.945349
v -24.470667 24.826899 -20.270071
v -24.822336 24.778694 -20.283131
v -28.593945 24.007900 -21.629385
v -28.930946 23.826754 -21.650917
v -28.552687 23.945864 -21.962631
v -28.891687 23.782589 -21.989416
v 28.891678 23.782501 -21.989283
v 28.932552 23.827740 -21.651857
v 28.552652 23.944565 -21.962505
v 28.592699 24.007807 -21.628029
v 16.831205 4.001981 -37.948784
v 18.026831 3.675278 -37.436203
v 17.930229 3.573350 -37.277222
v 17.779625 3.492651 -37.149643
v 17.379784 3.422337 -37.040485
v 17.171005 3.441009 -37.069363
v 17.930271 4.001397 -37.950146
v 18.027119 3.900386 -37.791828
v 16.982189 4.082037 -38.077351
v 20.791588 3.910160 -37.640606
v 25.795626 4.315741 -38.160378
v 25.843113 3.894123 -37.597092
v 25.860159 3.923480 -37.638023
v 25.845190 4.305096 -38.146545
v 25.863148 4.275242 -38.106846
v 17.170872 4.134749 -38.158340
v 17.380514 4.152335 -38.186420
v 17.590210 4.134376 -38.158928
v 17.780552 4.081976 -38.077457
v 18.059292 3.787933 -37.613483
v 17.590792 3.440927 -37.069828
v 16.981379 3.492067 -37.150513
v 16.831236 3.573296 -37.276836
v 16.735542 3.674502 -37.437180
v 16.702528 3.787992 -37.614811
v 16.734106 3.899900 -37.789486
v 20.862339 4.302402 -38.161755
v 20.808029 3.880156 -37.598732
v 20.794104 4.261261 -38.108669
v 20.811472 4.291972 -38.149841
v 25.792685 3.883497 -37.584656
v 20.858631 3.870124 -37.585247
v -0.557626 11.250418 -40.567619
v -1.680961 11.249544 -40.569576
v -2.804056 11.808124 -36.577766
v -2.803539 11.246937 -40.567749
v -3.929477 11.243352 -40.567417
v -3.929866 11.804978 -36.578220
v 3.963040 11.807049 -36.578228
v 3.962926 11.245377 -40.568199
v 2.840209 11.809123 -36.578876
v 2.840347 11.247764 -40.568546
v 1.713807 11.249544 -40.567184
v 0.577972 11.811599 -36.578857
v 1.713944 11.809909 -36.577141
v 0.577354 11.250418 -40.567619
v -0.558373 11.811104 -36.576687
v -1.681347 11.809414 -36.577114
vt 0.038963 0.889554
vt 0.986559 0.887931
vt 0.039065 0.957320
vt 0.985933 0.955405
vt 0.039983 0.833888
vt 0.986807 0.832487
vt 0.039109 0.884379
vt 0.986326 0.882714
vt 0.199711 0.527127
vt 0.149155 0.472127
vt 0.204462 0.309720
vt 0.151632 0.355924
vt 0.371039 0.474291
vt 0.320002 0.527293
vt 0.373633 0.358088
vt 0.324622 0.310525
vt 0.319419 0.527335
vt 0.372336 0.474596
vt 0.324156 0.309942
vt 0.374930 0.358394
vt 0.371039 0.474291
vt 0.320002 0.527293
vt 0.373633 0.358088
vt 0.324622 0.310525
vt 0.492875 0.326440
vt 0.492875 0.346114
vt 0.390349 0.326440
vt 0.390349 0.346114
vt 0.492875 0.505607
vt 0.390349 0.505607
vt 0.492875 0.525281
vt 0.390349 0.525281
vt 0.314508 0.319808
vt 0.314391 0.343908
vt 0.211982 0.321362
vt 0.211851 0.345448
vt 0.313590 0.494646
vt 0.211049 0.496033
vt 0.313458 0.518746
vt 0.210918 0.520120
vt 0.725632 0.303019
vt 0.893011 0.302533
vt 0.725486 0.239610
vt 0.892865 0.239125
vt 0.725632 0.303019
vt 0.893011 0.302533
vt 0.725486 0.239610
vt 0.892865 0.239125
vt 0.725632 0.303019
vt 0.893011 0.302533
vt 0.725486 0.239610
vt 0.892865 0.239125
vt 0.725632 0.303019
vt 0.893011 0.302533
vt 0.725486 0.239610
vt 0.892865 0.239125
vt 0.725632 0.303019
vt 0.893011 0.302533
vt 0.725486 0.239610
vt 0.892865 0.239125
vt 0.725632 0.303019
vt 0.893011 0.302519
vt 0.725486 0.239610
vt 0.892865 0.239125
vt 0.725632 0.303019
vt 0.893011 0.302519
vt 0.725486 0.239610
vt 0.892865 0.239125
vt 0.725632 0.303019
vt 0.893011 0.302533
vt 0.725486 0.239610
vt 0.892865 0.239125
vt 0.725632 0.303019
vt 0.893011 0.302533
vt 0.725486 0.239610
vt 0.892865 0.239125
vt 0.628586 0.325357
vt 0.628309 0.290406
vt 0.700958 0.325149
vt 0.700682 0.290198
vt 0.519006 0.331115
vt 0.641542 0.332669
vt 0.519064 0.367190
vt 0.641571 0.367981
vt 0.662251 0.368814
vt 0.770081 0.369397
vt 0.662105 0.402877
vt 0.769732 0.403460
vt 0.566866 0.290587
vt 0.628309 0.290406
vt 0.567143 0.325538
vt 0.628586 0.325357
vt 0.520390 0.290712
vt 0.566866 0.290587
vt 0.520667 0.325663
vt 0.567143 0.325538
vt 0.643932 0.332794
vt 0.749941 0.332281
vt 0.644208 0.367759
vt 0.750218 0.367232
vt 0.520376 0.369077
vt 0.657354 0.368300
vt 0.520653 0.404028
vt 0.657631 0.403251
vt 0.617553 0.172705
vt 0.617553 0.210112
vt 0.332025 0.172567
vt 0.332025 0.210112
vt 0.584238 0.482297
vt 0.633949 0.482297
vt 0.584354 0.510699
vt 0.634022 0.510699
vt 0.509241 0.481603
vt 0.579385 0.481603
vt 0.509241 0.511615
vt 0.579385 0.511615
vt 0.585141 0.481340
vt 0.634896 0.481340
vt 0.585141 0.511892
vt 0.634896 0.511892
vt 0.733574 0.510338
vt 0.733574 0.480840
vt 0.784378 0.510338
vt 0.784378 0.480840
vt 0.787278 0.509367
vt 0.787278 0.479924
vt 0.821672 0.509367
vt 0.821672 0.479924
vt 0.735003 0.478578
vt 0.735003 0.441727
vt 0.794070 0.478578
vt 0.794070 0.441727
vt 0.825768 0.508632
vt 0.825768 0.479924
vt 0.875114 0.508632
vt 0.875114 0.479924
vt 0.511413 0.440034
vt 0.511413 0.405208
vt 0.783008 0.440034
vt 0.783008 0.405208
vt 0.510130 0.479564
vt 0.510072 0.442074
vt 0.733283 0.479564
vt 0.733327 0.442074
vt 0.636353 0.510657
vt 0.636441 0.480840
vt 0.728619 0.510657
vt 0.728750 0.480840
vt 0.923135 0.325815
vt 0.994050 0.325815
vt 0.923135 0.449871
vt 0.994050 0.449871
vt 0.812753 0.377874
vt 0.812753 0.423342
vt 0.860059 0.377874
vt 0.860059 0.423328
vt 0.812753 0.377014
vt 0.812753 0.423759
vt 0.860059 0.377014
vt 0.860059 0.423759
vt 0.812753 0.377874
vt 0.812753 0.423342
vt 0.860059 0.377874
vt 0.860059 0.423328
vt 0.812753 0.377014
vt 0.812753 0.423759
vt 0.860059 0.377014
vt 0.860059 0.423759
vt 0.860059 0.423328
vt 0.812753 0.423342
vt 0.860059 0.377874
vt 0.812753 0.377874
vt 0.860059 0.423759
vt 0.812753 0.423759
vt 0.860059 0.377014
vt 0.812753 0.377014
vt 0.860059 0.423328
vt 0.812753 0.423342
vt 0.860059 0.377874
vt 0.812753 0.377874
vt 0.860059 0.423759
vt 0.812753 0.423759
vt 0.860059 0.377014
vt 0.812753 0.377014
vt 0.860059 0.423328
vt 0.812753 0.423342
vt 0.860059 0.377874
vt 0.812753 0.377874
vt 0.812753 0.377874
vt 0.812753 0.423342
vt 0.860059 0.377874
vt 0.860059 0.423328
vt 0.766846 0.332267
vt 0.772049 0.322291
vt 0.765054 0.343325
vt 0.772063 0.364360
vt 0.766861 0.354384
vt 0.813030 0.377347
vt 0.838345 0.343312
vt 0.813016 0.309290
vt 0.836552 0.332253
vt 0.831335 0.322277
vt 0.823232 0.314368
vt 0.801692 0.307542
vt 0.790368 0.309290
vt 0.780152 0.314368
vt 0.823246 0.372269
vt 0.831349 0.364346
vt 0.836552 0.354370
vt 0.780167 0.372269
vt 0.790383 0.377361
vt 0.801706 0.379109
vt 0.278438 0.052049
vt 0.279371 0.049079
vt 0.278452 0.086486
vt 0.282212 0.048094
vt 0.558952 0.090260
vt 0.279400 0.089442
vt 0.282227 0.090427
vt 0.558923 0.048025
vt 0.561750 0.049010
vt 0.562698 0.051965
vt 0.561780 0.089275
vt 0.562727 0.086320
vn 0.0000 0.6950 0.7190
vn 0.0000 0.6944 0.7196
vn -0.0000 0.5989 0.8008
vn 0.0000 0.5998 0.8001
vn -0.0007 0.6002 0.7998
vn -0.0010 0.6001 0.7999
vn -0.0021 0.5999 0.8001
vn -0.0028 0.5997 0.8002
vn -0.0015 0.6008 0.7994
vn -0.0004 0.6011 0.7992
vn 0.0009 0.6014 0.7989
vn 0.0013 0.6015 0.7989
vn 0.0043 0.6012 0.7990
vn 0.0033 0.6010 0.7992
vn -0.0008 0.5999 0.8000
vn -0.0038 0.5992 0.8006
vn -0.0006 0.6013 0.7990
vn -0.0011 0.6012 0.7990
vn -0.0017 0.6011 0.7992
vn -0.0019 0.6011 0.7992
vn -0.0010 0.7521 0.6590
vn -0.0010 0.6770 0.7360
vn -0.0007 0.7511 0.6602
vn -0.0006 0.6756 0.7373
vn -0.0004 0.4669 0.8843
vn -0.0002 0.4662 0.8847
vn -0.0006 0.3296 0.9441
vn -0.0009 0.3306 0.9437
vn -0.0004 0.7201 0.6939
vn -0.0012 0.6596 0.7516
vn -0.0013 0.7225 0.6914
vn -0.0013 0.6601 0.7511
vn -0.0008 0.4619 0.8869
vn -0.0013 0.4633 0.8862
vn -0.0010 0.3202 0.9473
vn -0.0025 0.3252 0.9456
vn -0.0007 0.9902 -0.1393
vn -0.0001 0.9903 -0.1391
vn -0.0005 0.9902 -0.1393
vn 0.0000 0.9903 -0.1391
vn -0.0014 0.9903 -0.1391
vn -0.0007 0.9903 -0.1389
vn -0.0013 0.9903 -0.1391
vn -0.0005 0.9903 -0.1389
vn -0.0010 0.9903 -0.1389
vn -0.0023 0.9902 -0.1392
vn -0.0013 0.9903 -0.1389
vn -0.0025 0.9902 -0.1393
vn -0.0027 0.9902 -0.1393
vn -0.0031 0.9902 -0.1394
vn -0.0028 0.9902 -0.1393
vn -0.0032 0.9902 -0.1394
vn -0.0041 0.9902 -0.1394
vn -0.0030 0.9903 -0.1391
vn -0.0038 0.9902 -0.1393
vn -0.0028 0.9903 -0.1390
vn 0.0035 0.9902 -0.1392
vn 0.0031 0.9902 -0.1393
vn 0.0034 0.9902 -0.1393
vn 0.0030 0.9902 -0.1394
vn 0.0019 0.9902 -0.1394
vn 0.0021 0.9902 -0.1393
vn 0.0005 0.9902 -0.1393
vn 0.0012 0.9903 -0.1391
vn 0.0006 0.9902 -0.1393
vn 0.0014 0.9903 -0.1391
vn 0.0017 0.9903 -0.1391
vn 0.0009 0.9902 -0.1393
vn 0.0015 0.9903 -0.1391
vn 0.0008 0.9902 -0.1393
vn 0.0066 -0.2489 0.9685
vn 0.0066 -0.2491 0.9684
vn 0.0067 -0.2493 0.9684
vn 0.0068 -0.2495 0.9684
vn 0.0193 -0.2534 0.9671
vn 0.0200 -0.2511 0.9677
vn 0.0195 -0.2529 0.9673
vn 0.0202 -0.2506 0.9679
vn 0.0142 -0.2510 0.9679
vn 0.0135 -0.2531 0.9673
vn 0.0140 -0.2516 0.9677
vn 0.0133 -0.2536 0.9672
vn 0.0059 -0.2506 0.9680
vn 0.0062 -0.2501 0.9682
vn 0.0060 -0.2503 0.9681
vn 0.0063 -0.2499 0.9682
vn 0.0065 -0.2499 0.9682
vn 0.0069 -0.2495 0.9683
vn 0.0067 -0.2496 0.9683
vn 0.0071 -0.2492 0.9684
vn 0.0031 -0.2510 0.9680
vn 0.0046 -0.2463 0.9691
vn 0.0035 -0.2498 0.9683
vn 0.0050 -0.2452 0.9695
vn 0.0035 -0.2555 0.9668
vn 0.0046 -0.2510 0.9680
vn 0.0037 -0.2546 0.9670
vn 0.0048 -0.2501 0.9682
vn 0.0000 0.7116 0.7025
vn 0.0000 0.7115 0.7026
vn -0.0022 -0.5214 0.8533
vn -0.0011 -0.5197 0.8543
vn -0.0017 -0.5206 0.8538
vn -0.0006 -0.5189 0.8548
vn -0.0019 -0.5237 0.8519
vn 0.0022 -0.5152 0.8570
vn -0.0005 -0.5209 0.8536
vn 0.0036 -0.5124 0.8587
vn 0.0020 -0.5170 0.8559
vn 0.0018 -0.5173 0.8558
vn 0.0019 -0.5172 0.8558
vn 0.0017 -0.5175 0.8557
vn 0.0016 -0.5112 0.8594
vn 0.0005 -0.5095 0.8604
vn -0.0005 -0.5079 0.8614
vn -0.0017 -0.5062 0.8624
vn -0.0027 -0.5132 0.8582
vn -0.0028 -0.5131 0.8583
vn -0.0030 -0.5130 0.8584
vn 0.0012 -0.5105 0.8598
vn 0.0012 -0.5106 0.8598
vn 0.0013 -0.5107 0.8597
vn 0.0014 -0.5108 0.8597
vn -0.0013 -0.5099 0.8602
vn -0.0003 -0.5113 0.8594
vn 0.0006 -0.5128 0.8585
vn 0.0016 -0.5142 0.8576
vn -0.0006 -0.5184 0.8551
vn 0.0008 -0.5149 0.8572
vn 0.0007 -0.5146 0.8574
vn 0.0004 -0.5126 0.8586
vn 0.0003 -0.5124 0.8587
vn -0.0017 -0.5101 0.8601
vn -0.0009 -0.5122 0.8589
vn 0.0014 -0.5183 0.8552
vn 0.0023 -0.5204 0.8539
vn 0.0587 0.9982 -0.0121
vn 0.0588 0.9982 -0.0121
vn 0.0908 -0.9902 0.1055
vn 0.0916 -0.9903 0.1043
vn 0.0917 -0.9903 0.1043
vn 0.0925 -0.9904 0.1031
vn -0.2726 -0.9536 0.1280
vn -0.2779 -0.9510 0.1358
vn -0.2781 -0.9509 0.1361
vn -0.2833 -0.9481 0.1439
vn 0.0246 -0.9996 -0.0125
vn 0.0247 -0.9996 -0.0126
vn -0.1012 -0.9604 0.2595
vn -0.1078 -0.9572 0.2685
vn -0.1080 -0.9571 0.2688
vn -0.1146 -0.9537 0.2778
vn -0.0874 -0.9906 0.1050
vn -0.0878 -0.9906 0.1046
vn -0.0882 -0.9906 0.1041
vn 0.2936 -0.9496 0.1098
vn 0.2845 -0.9536 0.0986
vn 0.2848 -0.9534 0.0990
vn 0.2758 -0.9572 0.0880
vn -0.0342 -0.9993 -0.0151
vn -0.0340 -0.9993 -0.0150
vn -0.0339 -0.9993 -0.0148
vn 0.1323 -0.9564 0.2602
vn 0.1273 -0.9586 0.2546
vn 0.1274 -0.9586 0.2548
vn 0.1224 -0.9607 0.2491
vn 0.4514 -0.8655 0.2170
vn 0.4335 -0.8810 0.1894
vn 0.4358 -0.8791 0.1929
vn 0.4174 -0.8936 0.1650
vn -0.4140 -0.8942 0.1700
vn -0.4288 -0.8827 0.1924
vn -0.4309 -0.8809 0.1957
vn -0.4450 -0.8687 0.2175
vn -0.0157 0.8412 0.5405
vn -0.0019 0.8426 0.5386
vn -0.0062 0.8429 0.5380
vn -0.0014 0.8443 0.5358
vn -0.0001 0.8420 0.5394
vn 0.0015 0.8446 0.5354
vn 0.0007 0.8438 0.5365
vn -0.0004 0.8434 0.5373
vn -0.0113 0.8449 0.5348
vn -0.0015 0.8436 0.5370
vn -0.0111 0.8509 0.5251
vn 0.0007 0.8422 0.5390
vn 0.0001 0.8432 0.5376
vn -0.0101 0.8356 0.5492
vn 0.0075 0.8489 0.5285
vn 0.0030 0.8452 0.5344
vn 0.0147 0.8470 0.5314
vn -0.0209 0.8595 0.5106
vn 0.0002 0.8445 0.5356
vn 0.0015 0.8424 0.5388
vn -0.0675 0.7983 0.5984
vn -0.0094 0.8008 0.5988
vn -0.0031 0.8014 0.5981
vn -0.0017 0.8009 0.5988
vn 0.0004 0.7997 0.6004
vn -0.0025 0.7962 0.6050
vn -0.0022 0.7570 0.6533
vn -0.0021 0.7645 0.6446
vn -0.0025 0.8066 0.5911
vn -0.0021 0.8055 0.5926
vn 0.0041 0.7999 0.6001
vn 0.0030 0.7998 0.6002
usemtl chassis.003
s 1
f 1/1/1 3/2/2 2/3/1
f 2/3/1 3/2/2 4/4/2
f 5/5/3 7/6/4 6/7/3
f 6/7/3 7/6/4 8/8/4
f 9/9/5 11/10/6 10/11/7
f 10/11/7 11/10/6 12/12/8
f 13/13/9 15/14/10 14/15/11
f 14/15/11 15/14/10 16/16/12
f 17/17/13 19/18/14 18/19/15
f 18/19/15 19/18/14 20/20/16
f 21/21/17 23/22/18 22/23/19
f 22/23/19 23/22/18 24/24/20
f 25/25/21 27/26/22 26/27/23
f 26/27/23 27/26/22 28/28/24
f 28/28/24 27/26/22 29/29/25
f 28/28/24 29/29/25 30/30/26
f 30/30/26 29/29/25 31/31/27
f 30/30/26 31/31/27 32/32/28
f 33/33/29 35/34/30 34/35/31
f 34/35/31 35/34/30 36/36/32
f 36/36/32 35/34/30 37/37/33
f 36/36/32 37/37/33 38/38/34
f 38/38/34 37/37/33 39/39/35
f 38/38/34 39/39/35 40/40/36
f 62/41/37 222/42/38 223/43/39
f 223/43/39 222/42/38 45/44/40
f 44/45/41 209/46/42 224/47/43
f 224/47/43 209/46/42 210/48/44
f 47/49/45 46/50/46 211/51/47
f 211/51/47 46/50/46 212/52/48
f 48/53/49 49/54/50 51/55/51
f 51/55/51 49/54/50 213/56/52
f 214/57/53 50/58/54 52/59/55
f 52/59/55 50/58/54 53/60/56
f 54/61/57 55/62/58 215/63/59
f 215/63/59 55/62/58 216/64/60
f 56/65/61 57/66/62 217/67/61
f 217/67/61 57/66/62 218/68/62
f 58/69/63 59/70/64 61/71/65
f 61/71/65 59/70/64 219/72/66
f 221/73/67 60/74/68 220/75/69
f 220/75/69 60/74/68 63/76/70
f 64/77/71 65/78/72 66/79/73
f 66/79/73 65/78/72 67/80/74
f 68/81/75 69/82/76 70/83/77
f 70/83/77 69/82/76 71/84/78
f 72/85/79 73/86/80 74/87/81
f 74/87/81 73/86/80 75/88/82
f 76/89/83 77/90/84 78/91/85
f 78/91/85 77/90/84 79/92/86
f 80/93/87 81/94/88 82/95/89
f 82/95/89 81/94/88 83/96/90
f 84/97/91 85/98/92 86/99/93
f 86/99/93 85/98/92 87/100/94
f 88/101/95 89/102/96 90/103/97
f 90/103/97 89/102/96 91/104/98
f 92/105/99 93/106/99 94/107/100
f 94/107/100 93/106/99 95/108/100
f 96/109/101 97/110/102 98/111/103
f 98/111/103 97/110/102 99/112/104
f 100/113/105 101/114/106 102/115/107
f 102/115/107 101/114/106 103/116/108
f 104/117/109 105/118/110 106/119/111
f 106/119/111 105/118/110 107/120/112
f 108/121/113 109/122/114 110/123/115
f 110/123/115 109/122/114 111/124/116
f 112/125/117 113/126/118 114/127/118
f 114/127/118 113/126/118 115/128/119
f 116/129/120 117/130/121 118/131/122
f 118/131/122 117/130/121 119/132/123
f 120/133/124 121/134/125 122/135/126
f 122/135/126 121/134/125 123/136/127
f 124/137/128 125/138/128 126/139/128
f 126/139/128 125/138/128 127/140/128
f 128/141/129 129/142/130 130/143/131
f 130/143/131 129/142/130 131/144/132
f 132/145/133 133/146/134 134/147/135
f 134/147/135 133/146/134 135/148/136
f 136/149/137 42/150/137 41/151/138
f 41/151/138 42/150/137 43/152/138
f 137/153/139 138/154/140 139/155/141
f 139/155/141 138/154/140 140/156/142
f 141/157/143 142/158/144 143/159/145
f 143/159/145 142/158/144 144/160/146
f 145/161/147 146/162/147 147/163/147
f 147/163/147 146/162/147 148/164/148
f 149/165/149 150/166/150 151/167/151
f 151/167/151 150/166/150 152/168/152
f 153/169/153 154/170/154 155/171/154
f 155/171/154 154/170/154 156/172/155
f 157/173/156 158/174/157 159/175/158
f 159/175/158 158/174/157 160/176/159
f 161/177/160 162/178/161 163/179/161
f 163/179/161 162/178/161 164/180/162
f 165/181/163 166/182/164 167/183/165
f 167/183/165 166/182/164 168/184/166
f 169/185/167 170/186/168 171/187/169
f 171/187/169 170/186/168 172/188/170
f 173/189/171 174/190/172 175/191/173
f 175/191/173 174/190/172 176/192/174
f 200/193/175 199/194/176 201/195/177
f 201/195/177 199/194/176 177/196/178
f 201/195/177 177/196/178 202/197/179
f 194/198/180 177/196/178 196/199/181
f 196/199/181 177/196/178 199/194/176
f 196/199/181 199/194/176 197/200/182
f 178/201/183 196/199/181 179/202/184
f 179/202/184 196/199/181 197/200/182
f 179/202/184 197/200/182 180/203/185
f 181/204/186 197/200/182 182/205/187
f 182/205/187 197/200/182 199/194/176
f 182/205/187 199/194/176 198/206/188
f 195/207/189 194/198/180 183/208/190
f 183/208/190 194/198/180 196/199/181
f 183/208/190 196/199/181 184/209/191
f 185/210/192 177/196/178 192/211/193
f 192/211/193 177/196/178 194/198/180
f 192/211/193 194/198/180 193/212/194
f 186/213/195 204/214/196 205/215/197
f 205/215/197 204/214/196 208/216/198
f 205/215/197 208/216/198 187/217/199
f 205/215/197 187/217/199 206/218/200
f 206/218/200 187/217/199 203/219/201
f 207/220/202 188/221/203 208/216/198
f 208/216/198 188/221/203 189/222/204
f 208/216/198 189/222/204 187/217/199
f 187/217/199 189/222/204 190/223/205
f 190/223/205 189/222/204 191/224/206
