# Blender v2.93.18 OBJ File: 'Mercedes Axor New 12.blend'
# www.blender.org
o cab_fenders_lights_piece_15
v 47.498993 -1.248244 35.719383
v 47.498993 -2.924560 35.719383
v 47.797707 -1.330879 35.857464
v 47.797707 -2.848404 35.857464
v 47.498993 -3.281822 35.958881
v 47.931858 -0.935202 36.085335
v 47.498993 -0.803760 35.958881
v 47.931858 -3.158066 36.085335
v 47.498993 -3.424594 36.915524
v 48.102268 -0.709000 36.995541
v 47.498993 -0.568110 36.915524
v 48.102268 -3.293086 36.995541
v 47.498997 -3.518530 37.981770
v 48.221920 -0.594185 38.010044
v 47.498997 -0.453286 37.981770
v 48.221920 -3.387022 38.010044
v 47.498997 -3.549848 39.252567
v 48.298054 -0.531558 39.219162
v 47.498997 -0.390659 39.252567
v 48.298054 -3.418340 39.219162
v 47.498997 -3.432487 40.692291
v 48.330688 -0.632619 40.589005
v 47.498997 -0.497281 40.692291
v 48.330688 -3.305669 40.589005
v 47.498997 -3.044852 41.036201
v 48.330688 -1.040711 40.916222
v 47.498997 -0.947514 41.036201
v 48.330688 -2.958388 40.916222
v 47.498997 -2.599469 41.111423
v 48.330688 -1.474812 40.987797
v 47.498997 -1.422278 41.111423
v 48.330688 -2.551157 40.987797
v 47.498997 -2.060280 41.143780
v 48.330688 -2.029983 41.018581
v -47.499928 -2.924560 35.719383
v -47.499928 -1.248244 35.719383
v -47.798641 -1.330879 35.857464
v -47.798641 -2.848404 35.857464
v -47.499928 -3.281822 35.958881
v -47.932793 -0.935202 36.085335
v -47.499928 -0.803760 35.958881
v -47.932793 -3.158066 36.085335
v -47.499928 -3.424594 36.915524
v -48.103207 -0.709000 36.995541
v -47.499928 -0.568110 36.915524
v -48.103207 -3.293086 36.995541
v -47.499935 -3.518530 37.981770
v -48.222855 -0.594185 38.010044
v -47.499935 -0.453286 37.981770
v -48.222855 -3.387022 38.010044
v -47.499935 -3.549848 39.252567
v -48.298988 -0.531558 39.219162
v -47.499935 -0.390659 39.252567
v -48.298988 -3.418340 39.219162
v -47.499935 -3.432487 40.692291
v -48.331627 -0.632619 40.589005
v -47.499935 -0.497281 40.692291
v -48.331627 -3.305669 40.589005
v -47.499935 -3.044852 41.036201
v -48.331627 -1.040711 40.916222
v -47.499935 -0.947514 41.036201
v -48.331627 -2.958388 40.916222
v -47.499935 -2.599469 41.111423
v -48.331627 -1.474812 40.987797
v -47.499935 -1.422278 41.111423
v -48.331627 -2.551157 40.987797
v -47.499935 -2.060280 41.143780
v -48.331627 -2.029983 41.018581
vt 0.948186 0.211096
vt 0.888106 0.216205
vt 0.951301 0.216205
vt 0.890977 0.211096
vt 0.874638 0.207342
vt 0.963103 0.202663
vt 0.968058 0.207342
vt 0.879304 0.202663
vt 0.869256 0.171940
vt 0.971630 0.168979
vt 0.976942 0.171940
vt 0.874213 0.168979
vt 0.865715 0.132482
vt 0.975959 0.131436
vt 0.981271 0.132482
vt 0.870672 0.131436
vt 0.864534 0.085453
vt 0.978320 0.086690
vt 0.983631 0.085453
vt 0.869491 0.086690
vt 0.868958 0.032174
vt 0.974510 0.035996
vt 0.979612 0.032174
vt 0.873739 0.035996
vt 0.883572 0.019447
vt 0.959125 0.023887
vt 0.962639 0.019447
vt 0.886831 0.023887
vt 0.900362 0.016663
vt 0.942760 0.021238
vt 0.944741 0.016663
vt 0.902183 0.021238
vt 0.920689 0.015466
vt 0.921831 0.020099
vt 0.948186 0.211096
vt 0.951301 0.216205
vt 0.888106 0.216205
vt 0.890977 0.211096
vt 0.874638 0.207342
vt 0.963103 0.202663
vt 0.968058 0.207342
vt 0.879304 0.202663
vt 0.869256 0.171940
vt 0.971630 0.168979
vt 0.976942 0.171940
vt 0.874213 0.168979
vt 0.865715 0.132482
vt 0.975959 0.131436
vt 0.981271 0.132482
vt 0.870672 0.131436
vt 0.864534 0.085453
vt 0.978320 0.086690
vt 0.983631 0.085453
vt 0.869491 0.086690
vt 0.868958 0.032174
vt 0.974510 0.035996
vt 0.979612 0.032174
vt 0.873739 0.035996
vt 0.883572 0.019447
vt 0.959125 0.023887
vt 0.962639 0.019447
vt 0.886831 0.023887
vt 0.900362 0.016663
vt 0.942760 0.021238
vt 0.944741 0.016663
vt 0.902183 0.021238
vt 0.920689 0.015466
vt 0.921831 0.020099
vn 0.6483 0.0975 -0.7551
vn 0.4600 -0.2719 -0.8452
vn 0.4288 0.2113 -0.8783
vn 0.6332 -0.1566 -0.7580
vn 0.3972 -0.7536 -0.5238
vn 0.7352 0.4718 -0.4867
vn 0.3691 0.7187 -0.5892
vn 0.7218 -0.5303 -0.4446
vn 0.2405 -0.9616 -0.1319
vn 0.7719 0.6010 -0.2072
vn 0.2377 0.9543 -0.1812
vn 0.7681 -0.6149 -0.1789
vn 0.1884 -0.9800 -0.0643
vn 0.7687 0.6295 -0.1133
vn 0.1897 0.9784 -0.0816
vn 0.7609 -0.6408 -0.1014
vn 0.1665 -0.9857 0.0255
vn 0.7578 0.6521 -0.0228
vn 0.1728 0.9849 0.0121
vn 0.7547 -0.6559 -0.0136
vn 0.1897 -0.8746 0.4461
vn 0.7052 0.6334 0.3184
vn 0.1933 0.8611 0.4703
vn 0.7060 -0.6431 0.2965
vn 0.1785 -0.4337 0.8832
vn 0.7193 0.2756 0.6377
vn 0.1733 0.3948 0.9023
vn 0.7107 -0.3113 0.6308
vn 0.1537 -0.1143 0.9814
vn 0.7486 0.0707 0.6592
vn 0.1518 0.1049 0.9828
vn 0.7476 -0.0763 0.6598
vn 0.1489 -0.0056 0.9888
vn 0.7467 -0.0010 0.6652
vn -0.6483 0.0975 -0.7551
vn -0.4288 0.2113 -0.8783
vn -0.4600 -0.2719 -0.8452
vn -0.6332 -0.1566 -0.7580
vn -0.3972 -0.7536 -0.5238
vn -0.7352 0.4718 -0.4867
vn -0.3691 0.7187 -0.5892
vn -0.7218 -0.5303 -0.4447
vn -0.2405 -0.9616 -0.1319
vn -0.7719 0.6010 -0.2072
vn -0.2377 0.9543 -0.1812
vn -0.7681 -0.6149 -0.1789
vn -0.1884 -0.9800 -0.0643
vn -0.7687 0.6295 -0.1133
vn -0.1897 0.9784 -0.0816
vn -0.7609 -0.6408 -0.1014
vn -0.1665 -0.9857 0.0255
vn -0.7578 0.6521 -0.0228
vn -0.1728 0.9849 0.0121
vn -0.7547 -0.6559 -0.0136
vn -0.1897 -0.8746 0.4461
vn -0.7052 0.6334 0.3184
vn -0.1933 0.8611 0.4703
vn -0.7060 -0.6431 0.2964
vn -0.1785 -0.4337 0.8832
vn -0.7193 0.2756 0.6377
vn -0.1733 0.3948 0.9023
vn -0.7107 -0.3113 0.6308
vn -0.1537 -0.1143 0.9814
vn -0.7486 0.0707 0.6592
vn -0.1518 0.1049 0.9828
vn -0.7476 -0.0763 0.6598
vn -0.1489 -0.0056 0.9888
vn -0.7467 -0.0010 0.6652
s 1
f 3/1/1 2/2/2 1/3/3
f 3/1/1 4/4/4 2/2/2
f 4/4/4 5/5/5 2/2/2
f 6/6/6 3/1/1 1/3/3
f 6/6/6 4/4/4 3/1/1
f 6/6/6 1/3/3 7/7/7
f 4/4/4 8/8/8 5/5/5
f 6/6/6 8/8/8 4/4/4
f 8/8/8 9/9/9 5/5/5
f 10/10/10 6/6/6 7/7/7
f 10/10/10 7/7/7 11/11/11
f 12/12/12 8/8/8 6/6/6
f 8/8/8 12/12/12 9/9/9
f 12/12/12 6/6/6 10/10/10
f 12/12/12 13/13/13 9/9/9
f 14/14/14 10/10/10 11/11/11
f 12/12/12 10/10/10 14/14/14
f 14/14/14 11/11/11 15/15/15
f 12/12/12 16/16/16 13/13/13
f 12/12/12 14/14/14 16/16/16
f 16/16/16 17/17/17 13/13/13
f 18/18/18 14/14/14 15/15/15
f 16/16/16 14/14/14 18/18/18
f 18/18/18 15/15/15 19/19/19
f 16/16/16 20/20/20 17/17/17
f 16/16/16 18/18/18 20/20/20
f 20/20/20 21/21/21 17/17/17
f 22/22/22 18/18/18 19/19/19
f 20/20/20 18/18/18 22/22/22
f 22/22/22 19/19/19 23/23/23
f 20/20/20 24/24/24 21/21/21
f 20/20/20 22/22/22 24/24/24
f 24/24/24 25/25/25 21/21/21
f 26/26/26 22/22/22 23/23/23
f 24/24/24 22/22/22 26/26/26
f 26/26/26 23/23/23 27/27/27
f 24/24/24 28/28/28 25/25/25
f 24/24/24 26/26/26 28/28/28
f 28/28/28 29/29/29 25/25/25
f 30/30/30 26/26/26 27/27/27
f 28/28/28 26/26/26 30/30/30
f 30/30/30 27/27/27 31/31/31
f 28/28/28 32/32/32 29/29/29
f 28/28/28 30/30/30 32/32/32
f 32/32/32 33/33/33 29/29/29
f 34/34/34 30/30/30 31/31/31
f 30/30/30 34/34/34 32/32/32
f 34/34/34 31/31/31 33/33/33
f 32/32/32 34/34/34 33/33/33
f 37/35/35 36/36/36 35/37/37
f 37/35/35 35/37/37 38/38/38
f 38/38/38 35/37/37 39/39/39
f 40/40/40 36/36/36 37/35/35
f 40/40/40 37/35/35 38/38/38
f 40/40/40 41/41/41 36/36/36
f 38/38/38 39/39/39 42/42/42
f 40/40/40 38/38/38 42/42/42
f 42/42/42 39/39/39 43/43/43
f 44/44/44 41/41/41 40/40/40
f 44/44/44 45/45/45 41/41/41
f 46/46/46 40/40/40 42/42/42
f 42/42/42 43/43/43 46/46/46
f 46/46/46 44/44/44 40/40/40
f 46/46/46 43/43/43 47/47/47
f 48/48/48 45/45/45 44/44/44
f 46/46/46 48/48/48 44/44/44
f 48/48/48 49/49/49 45/45/45
f 46/46/46 47/47/47 50/50/50
f 46/46/46 50/50/50 48/48/48
f 50/50/50 47/47/47 51/51/51
f 52/52/52 49/49/49 48/48/48
f 50/50/50 52/52/52 48/48/48
f 52/52/52 53/53/53 49/49/49
f 50/50/50 51/51/51 54/54/54
f 50/50/50 54/54/54 52/52/52
f 54/54/54 51/51/51 55/55/55
f 56/56/56 53/53/53 52/52/52
f 54/54/54 56/56/56 52/52/52
f 56/56/56 57/57/57 53/53/53
f 54/54/54 55/55/55 58/58/58
f 54/54/54 58/58/58 56/56/56
f 58/58/58 55/55/55 59/59/59
f 60/60/60 57/57/57 56/56/56
f 58/58/58 60/60/60 56/56/56
f 60/60/60 61/61/61 57/57/57
f 58/58/58 59/59/59 62/62/62
f 58/58/58 62/62/62 60/60/60
f 62/62/62 59/59/59 63/63/63
f 64/64/64 61/61/61 60/60/60
f 62/62/62 64/64/64 60/60/60
f 64/64/64 65/65/65 61/61/61
f 62/62/62 63/63/63 66/66/66
f 62/62/62 66/66/66 64/64/64
f 66/66/66 63/63/63 67/67/67
f 68/68/68 65/65/65 64/64/64
f 64/64/64 66/66/66 68/68/68
f 68/68/68 67/67/67 65/65/65
f 66/66/66 67/67/67 68/68/68
