# Blender v2.93.18 OBJ File: 'Mercedes Axor New 12.blend'
# www.blender.org
o headlights_piece_118
v -43.149204 -13.371920 -116.652756
v -43.149204 -19.305796 -116.513771
v -42.747971 -19.305796 -116.609612
v -42.289200 -13.371920 -116.863548
v -42.289200 -19.305796 -116.724564
v -41.709091 -19.305412 -116.864052
v -41.070168 -13.799900 -117.071075
v -41.408562 -14.177555 -117.020874
v -38.942375 -13.729937 -117.375351
v -41.358673 -18.003950 -116.954460
v -36.012981 -13.371164 -117.735306
v -35.058994 -14.094204 -117.797997
v -34.459122 -13.378979 -117.918854
v -38.930172 -19.305042 -117.261200
v -36.012981 -19.305042 -117.596329
v -32.892338 -13.371164 -118.039764
v -32.848061 -13.729939 -118.028511
v -34.416943 -19.316853 -117.741333
v -31.907574 -13.726395 -118.118446
v -32.892338 -19.305042 -117.900780
v -28.856783 -13.371164 -118.418503
v -30.797251 -19.305042 -118.107849
v -31.022738 -18.226873 -118.113617
v -28.856783 -19.305042 -118.279518
v -28.253380 -19.305042 -118.330902
v -43.149204 -10.392902 -117.300354
v -42.747971 -10.062828 -117.396210
v -42.289200 -9.842781 -117.511147
v -41.709091 -9.767660 -117.650238
v -39.640472 -10.668865 -117.919601
v -39.747215 -12.092871 -117.906471
v -38.930172 -9.767210 -118.047775
v -39.353638 -12.814951 -117.982010
v -36.025028 -10.442043 -118.383469
v -36.012981 -9.942339 -118.382904
v -32.907669 -10.788185 -118.686386
v -32.892338 -10.312057 -118.687378
v -36.012981 -13.371164 -118.382904
v -32.893360 -12.836784 -118.686035
v -30.797251 -10.662317 -118.894447
v -30.653440 -11.299669 -118.907669
v -30.808586 -12.837671 -118.895042
v -28.856783 -11.245842 -119.066116
v -30.514860 -11.564983 -118.924446
v -30.436876 -12.076113 -118.940231
v -30.537643 -12.734043 -118.930809
v -30.458759 -12.533039 -118.948807
v -28.253380 -11.649609 -119.117485
v -43.149204 -13.371920 -117.300354
v -42.747971 -13.371920 -117.396210
v -42.747971 -13.371920 -116.748589
v -42.289200 -13.371920 -117.511147
v -41.709091 -13.371534 -117.650650
v -41.709091 -13.371534 -117.003029
v -38.930172 -13.371164 -118.047775
v -38.930172 -13.371164 -117.400177
v -32.892338 -13.371164 -118.687378
v -30.797251 -13.371164 -118.894447
v -30.797251 -13.371164 -118.246826
v -28.856783 -13.371164 -119.066116
v -28.253380 -13.371164 -119.117485
v -28.253380 -13.371164 -118.469887
v 43.149204 -19.305796 -116.513771
v 42.747971 -13.371920 -116.748589
v 42.747971 -19.305796 -116.609612
v 42.289200 -19.305796 -116.724564
v 41.709091 -19.305412 -116.864052
v 41.408562 -14.177555 -117.020874
v 41.606636 -14.884083 -116.982658
v 38.942375 -13.729937 -117.375351
v 38.930172 -13.371164 -117.400177
v 41.559460 -16.633553 -116.948952
v 36.012981 -13.371164 -117.735306
v 35.058994 -14.094204 -117.797997
v 34.459122 -13.378979 -117.918854
v 38.930172 -19.305042 -117.261200
v 34.384926 -14.785097 -117.845299
v 33.715630 -14.104277 -117.935371
v 36.012981 -19.305042 -117.596329
v 32.848061 -13.729939 -118.028511
v 34.416943 -19.316853 -117.741333
v 31.907574 -13.726395 -118.118446
v 32.830788 -18.604753 -117.930984
v 32.892338 -19.305042 -117.900780
v 28.856783 -13.371164 -118.418503
v 30.006845 -15.671846 -118.250969
v 30.797251 -19.305042 -118.107849
v 30.003416 -16.641508 -118.231567
v 31.022738 -18.226873 -118.113617
v 30.360121 -17.538708 -118.192711
v 28.856783 -19.305042 -118.279518
v 28.253380 -19.305042 -118.330902
v 43.149204 -13.371920 -117.300354
v 43.149204 -10.392902 -117.300354
v 42.747971 -10.062828 -117.396210
v 42.289200 -9.842781 -117.511147
v 41.709091 -9.767660 -117.650238
v 41.709091 -13.371534 -117.650650
v 39.640472 -10.668865 -117.919601
v 38.930172 -9.767210 -118.047775
v 39.567116 -12.574175 -117.938141
v 36.025028 -10.442043 -118.383469
v 38.928024 -12.832741 -118.047661
v 36.012981 -9.942339 -118.382904
v 38.930172 -13.371164 -118.047775
v 32.892338 -10.312057 -118.687378
v 30.802816 -11.185421 -118.895172
v 32.893360 -12.836784 -118.686035
v 30.797251 -10.662317 -118.894447
v 30.653440 -11.299669 -118.907669
v 28.856783 -11.245842 -119.066116
v 30.797251 -13.371164 -118.894447
v 30.674442 -12.821398 -118.908585
v 30.458759 -12.533039 -118.948807
v 28.253380 -11.649609 -119.117485
v 28.253380 -13.371164 -119.117485
v 43.149204 -13.371920 -116.652756
v 42.747971 -13.371920 -117.396210
v 42.289200 -13.371920 -117.511147
v 42.289200 -13.371920 -116.863548
v 41.709091 -13.371534 -117.003029
v 36.012981 -13.371164 -118.382904
v 32.892338 -13.371164 -118.687378
v 32.892338 -13.371164 -118.039764
v 30.797251 -13.371164 -118.246826
v 28.856783 -13.371164 -119.066116
v 28.253380 -13.371164 -118.469887
v -38.928024 -12.832741 -118.047661
v -39.567116 -12.574175 -117.938141
v -38.929859 -12.363453 -117.797752
v -36.020527 -12.836468 -118.383484
v -38.931644 -11.898722 -117.700180
v -39.773907 -11.301762 -117.899582
v -36.019970 -12.445311 -117.968063
v -38.931644 -11.319401 -117.699654
v -36.021759 -11.992508 -117.870483
v -32.894699 -12.495089 -118.373787
v -38.930584 -10.778419 -117.796516
v -39.393661 -10.331785 -117.940239
v -38.933136 -10.261463 -118.047943
v -36.021759 -11.454317 -117.869957
v -36.020683 -10.912573 -117.966827
v -32.896492 -12.092094 -118.276207
v -32.896492 -11.646360 -118.275681
v -32.895409 -11.218916 -118.372551
v -30.812094 -12.539772 -118.816475
v -30.674442 -12.821398 -118.908585
v -30.813881 -12.201765 -118.718895
v -30.813881 -11.866289 -118.718369
v -30.812805 -11.498251 -118.815239
v -30.802816 -11.185421 -118.895172
v 39.353638 -12.814951 -117.982010
v 38.929859 -12.363453 -117.797752
v 39.747215 -12.092871 -117.906471
v 36.020527 -12.836468 -118.383484
v 38.931644 -11.898722 -117.700180
v 39.773907 -11.301762 -117.899582
v 36.019970 -12.445311 -117.968063
v 38.931644 -11.319401 -117.699654
v 36.021759 -11.992508 -117.870483
v 32.894699 -12.495089 -118.373787
v 30.808586 -12.837671 -118.895042
v 38.930584 -10.778419 -117.796516
v 39.393661 -10.331785 -117.940239
v 38.933136 -10.261463 -118.047943
v 36.021759 -11.454317 -117.869957
v 36.020683 -10.912573 -117.966827
v 32.896492 -12.092094 -118.276207
v 32.896492 -11.646360 -118.275681
v 32.895409 -11.218916 -118.372551
v 32.907669 -10.788185 -118.686386
v 30.812094 -12.539772 -118.816475
v 30.537643 -12.734043 -118.930809
v 30.813881 -12.201765 -118.718895
v 30.436876 -12.076113 -118.940231
v 30.813881 -11.866289 -118.718369
v 30.514860 -11.564983 -118.924446
v 30.812805 -11.498251 -118.815239
v -36.425125 -11.348337 -118.166702
v -37.039974 -11.348337 -118.202370
v -37.039974 -10.714285 -118.135788
v -37.039974 -11.982391 -118.135788
v -37.474739 -10.899994 -118.079102
v -37.474739 -11.796682 -118.079102
v 37.039974 -11.348337 -118.202370
v 37.654831 -11.348337 -118.053337
v -36.425125 -11.348337 -117.511665
v -36.605209 -10.899994 -117.511665
v -36.605209 -10.899994 -118.151253
v -36.605209 -11.796682 -117.511665
v -37.039974 -10.714285 -117.511665
v -36.605209 -11.796682 -118.151253
v -37.039974 -11.982391 -117.511665
v -37.474739 -10.899994 -117.511665
v -37.654831 -11.348337 -118.053337
v -37.474739 -11.796682 -117.511665
v -37.654831 -11.348337 -117.511665
v 36.425125 -11.348337 -117.511665
v 36.425125 -11.348337 -118.166702
v 36.605209 -10.899994 -118.151253
v 36.605209 -10.899994 -117.511665
v 36.605209 -11.796682 -117.511665
v 37.039974 -10.714285 -118.135788
v 36.605209 -11.796682 -118.151253
v 37.039974 -10.714285 -117.511665
v 37.039974 -11.982391 -117.511665
v 37.474739 -10.899994 -118.079102
v 37.039974 -11.982391 -118.135788
v 37.474739 -10.899994 -117.511665
v 37.474739 -11.796682 -117.511665
v 37.474739 -11.796682 -118.079102
v 37.654831 -11.348337 -117.511665
v -34.374771 -17.546690 -117.789986
v -35.404648 -17.162712 -116.857407
v -35.044353 -18.226866 -117.719315
v -35.894569 -17.655724 -116.842102
v -36.000660 -18.591047 -117.619827
v -35.340359 -16.518919 -116.872948
v -36.921963 -16.586657 -116.231430
v -36.594135 -17.919695 -116.821693
v -38.926666 -18.594410 -117.277847
v -37.202160 -16.809160 -116.234276
v -38.738586 -17.922140 -116.721870
v -41.057331 -18.389992 -116.983215
v -37.535023 -16.928291 -116.239746
v -40.304981 -17.773968 -116.603882
v -38.429832 -16.929399 -116.219429
v -38.086681 -16.241249 -116.095558
v -40.525150 -17.494146 -116.600006
v -41.559460 -16.633553 -116.948952
v -39.140667 -16.862522 -116.159584
v -40.670399 -16.500849 -116.611015
v -41.606636 -14.884083 -116.982658
v -39.240013 -16.736240 -116.163849
v -38.290031 -16.305502 -116.095596
v -38.481869 -16.234608 -116.095390
v -39.304970 -16.287952 -116.180222
v -40.700794 -15.232777 -116.648369
v -39.317017 -15.715670 -116.218643
v -40.554028 -14.720655 -116.670113
v -38.478172 -15.973076 -116.095802
v -40.304897 -14.446918 -116.692223
v -39.249950 -15.484547 -116.234894
v -38.739525 -14.396212 -116.820084
v -36.017906 -13.726393 -117.715645
v -39.136738 -15.361008 -116.247780
v -36.596352 -14.393641 -116.918335
v -38.425945 -15.338118 -116.317497
v -38.281509 -15.930071 -116.096214
v -37.456154 -15.336952 -116.336311
v -35.896736 -14.660236 -116.921516
v -38.094780 -15.976583 -116.096046
v -37.140842 -15.457275 -116.313614
v -35.406071 -15.161020 -116.913223
v -36.920158 -15.683281 -116.287178
v -36.917187 -16.145838 -116.200745
v -35.319881 -15.730520 -116.901031
v 35.404648 -17.162712 -116.857407
v 35.044353 -18.226866 -117.719315
v 35.894569 -17.655724 -116.842102
v 36.000660 -18.591047 -117.619827
v 35.340359 -16.518919 -116.872948
v 34.389027 -16.627968 -117.584305
v 36.921963 -16.586657 -116.231430
v 36.594135 -17.919695 -116.821693
v 38.926666 -18.594410 -117.277847
v 37.202160 -16.809160 -116.234276
v 38.738586 -17.922140 -116.721870
v 41.057331 -18.389992 -116.983215
v 37.535023 -16.928291 -116.239746
v 40.304981 -17.773968 -116.603882
v 41.358673 -18.003950 -116.954460
v 38.429832 -16.929399 -116.219429
v 38.086681 -16.241249 -116.095558
v 40.525150 -17.494146 -116.600006
v 39.140667 -16.862522 -116.159584
v 40.670399 -16.500849 -116.611015
v 39.240013 -16.736240 -116.163849
v 38.290031 -16.305502 -116.095596
v 38.481869 -16.234608 -116.095390
v 39.304970 -16.287952 -116.180222
v 40.700794 -15.232777 -116.648369
v 39.317017 -15.715670 -116.218643
v 40.554028 -14.720655 -116.670113
v 41.070168 -13.799900 -117.071075
v 38.478172 -15.973076 -116.095802
v 40.304897 -14.446918 -116.692223
v 39.249950 -15.484547 -116.234894
v 38.739525 -14.396212 -116.820084
v 36.017906 -13.726393 -117.715645
v 39.136738 -15.361008 -116.247780
v 36.596352 -14.393641 -116.918335
v 38.425945 -15.338118 -116.317497
v 38.281509 -15.930071 -116.096214
v 37.456154 -15.336952 -116.336311
v 35.896736 -14.660236 -116.921516
v 38.094780 -15.976583 -116.096046
v 37.140842 -15.457275 -116.313614
v 35.406071 -15.161020 -116.913223
v 34.391132 -15.665522 -117.591835
v 36.920158 -15.683281 -116.287178
v 36.917187 -16.145838 -116.200745
v 35.319881 -15.730520 -116.901031
v -32.045704 -14.478224 -117.454910
v -31.037361 -14.094191 -118.196289
v -31.435293 -14.734304 -117.469971
v -30.369909 -14.777349 -118.247948
v -32.705975 -14.480686 -117.432816
v -30.967880 -15.209972 -117.473526
v -30.006845 -15.671846 -118.250969
v -32.268856 -15.502354 -116.942551
v -30.716064 -15.832777 -117.450508
v -30.003416 -16.641508 -118.231567
v -32.015579 -15.606274 -116.942604
v -31.822823 -15.799280 -116.942154
v -32.543667 -15.503349 -116.942139
v -32.390049 -16.201597 -116.939438
v -32.799061 -15.609119 -116.941162
v -33.316036 -14.741331 -117.402351
v -33.715630 -14.104277 -117.935371
v -32.997787 -15.801409 -116.939873
v -33.787437 -15.214626 -117.369598
v -34.384926 -14.785097 -117.845299
v -33.081203 -16.048040 -116.939835
v -34.006485 -15.829447 -117.342445
v -34.391132 -15.665522 -117.591835
v -33.079643 -16.334904 -116.939796
v -34.005009 -16.502384 -117.334923
v -34.389027 -16.627968 -117.584305
v -33.005367 -16.581596 -116.936539
v -33.786404 -17.136570 -117.314171
v -32.810390 -16.776737 -116.936180
v -33.313896 -17.618790 -117.319038
v -33.700985 -18.236942 -117.852692
v -32.557030 -16.880653 -116.936256
v -32.703445 -17.874880 -117.334541
v -32.830788 -18.604753 -117.930984
v -32.282230 -16.879648 -116.936668
v -32.043179 -17.872416 -117.356644
v -31.890308 -18.601213 -118.020943
v -32.026928 -16.773895 -116.937607
v -31.433165 -17.611774 -117.386658
v -31.830389 -16.579449 -116.938820
v -30.966452 -17.132629 -117.417870
v -30.360121 -17.538708 -118.192711
v -31.725286 -16.325968 -116.939232
v -30.715563 -16.507927 -117.430962
v -31.722618 -16.052006 -116.940430
v 32.045704 -14.478224 -117.454910
v 31.037361 -14.094191 -118.196289
v 31.435293 -14.734304 -117.469971
v 30.369909 -14.777349 -118.247948
v 32.705975 -14.480686 -117.432816
v 30.967880 -15.209972 -117.473526
v 32.268856 -15.502354 -116.942551
v 30.716064 -15.832777 -117.450508
v 32.015579 -15.606274 -116.942604
v 31.822823 -15.799280 -116.942154
v 32.543667 -15.503349 -116.942139
v 32.390049 -16.201597 -116.939438
v 32.799061 -15.609119 -116.941162
v 33.316036 -14.741331 -117.402351
v 32.997787 -15.801409 -116.939873
v 33.787437 -15.214626 -117.369598
v 33.081203 -16.048040 -116.939835
v 34.006485 -15.829447 -117.342445
v 33.079643 -16.334904 -116.939796
v 34.005009 -16.502384 -117.334923
v 33.005367 -16.581596 -116.936539
v 33.786404 -17.136570 -117.314171
v 34.374771 -17.546690 -117.789986
v 32.810390 -16.776737 -116.936180
v 33.313896 -17.618790 -117.319038
v 33.700985 -18.236942 -117.852692
v 32.557030 -16.880653 -116.936256
v 32.703445 -17.874880 -117.334541
v 32.282230 -16.879648 -116.936668
v 32.043179 -17.872416 -117.356644
v 31.890308 -18.601213 -118.020943
v 32.026928 -16.773895 -116.937607
v 31.433165 -17.611774 -117.386658
v 31.830389 -16.579449 -116.938820
v 30.966452 -17.132629 -117.417870
v 31.725286 -16.325968 -116.939232
v 30.715563 -16.507927 -117.430962
v 31.722618 -16.052006 -116.940430
vt 0.041296 0.794994
vt 0.018483 0.437405
vt 0.018483 0.794994
vt 0.041296 0.437405
vt 0.067379 0.794994
vt 0.067379 0.437405
vt 0.100363 0.795016
vt 0.100363 0.437426
vt 0.090977 0.723700
vt 0.109764 0.745943
vt 0.085542 0.681195
vt 0.243973 0.753058
vt 0.258362 0.795036
vt 0.094750 0.585449
vt 0.425259 0.747556
vt 0.113132 0.515574
vt 0.424224 0.795036
vt 0.131127 0.494290
vt 0.480525 0.728543
vt 0.245576 0.476627
vt 0.512571 0.794605
vt 0.258362 0.437447
vt 0.516790 0.686653
vt 0.421014 0.466160
vt 0.558408 0.729392
vt 0.424224 0.437447
vt 0.601653 0.795036
vt 0.487354 0.486949
vt 0.612356 0.751520
vt 0.514968 0.436796
vt 0.670838 0.751729
vt 0.517367 0.534393
vt 0.720772 0.795036
vt 0.559319 0.485103
vt 0.724951 0.729988
vt 0.613430 0.463361
vt 0.766455 0.689606
vt 0.601653 0.437447
vt 0.831101 0.795036
vt 0.671911 0.463570
vt 0.789031 0.636730
vt 0.720772 0.437447
vt 0.789245 0.579412
vt 0.725860 0.485698
vt 0.767063 0.526377
vt 0.831101 0.437447
vt 0.865408 0.795036
vt 0.865408 0.437447
vt 0.041296 0.947016
vt 0.018483 0.788276
vt 0.018483 0.931174
vt 0.041296 0.788276
vt 0.067379 0.957577
vt 0.067379 0.788276
vt 0.100363 0.961182
vt 0.100363 0.788299
vt 0.209605 0.917929
vt 0.202019 0.887553
vt 0.203536 0.849583
vt 0.223638 0.934107
vt 0.258362 0.961204
vt 0.213777 0.826483
vt 0.258193 0.937482
vt 0.225914 0.814926
vt 0.415105 0.928815
vt 0.258484 0.814073
vt 0.415891 0.952798
vt 0.258362 0.788321
vt 0.626677 0.912202
vt 0.415399 0.813894
vt 0.627678 0.935054
vt 0.415891 0.788321
vt 0.764007 0.893136
vt 0.627611 0.813879
vt 0.764370 0.918243
vt 0.627678 0.788321
vt 0.773753 0.887653
vt 0.763631 0.813836
vt 0.870363 0.890236
vt 0.764370 0.788321
vt 0.782794 0.874919
vt 0.870363 0.788321
vt 0.772383 0.814617
vt 0.787883 0.850387
vt 0.781308 0.818810
vt 0.786456 0.828457
vt 0.904670 0.870857
vt 0.904670 0.788321
vt 0.018483 0.788276
vt 0.041296 0.788276
vt 0.067379 0.788276
vt 0.100363 0.788299
vt 0.258362 0.788321
vt 0.415891 0.788321
vt 0.627678 0.788321
vt 0.764370 0.788321
vt 0.870363 0.788321
vt 0.904670 0.788321
vt 0.041292 0.794994
vt 0.018480 0.794994
vt 0.018480 0.437405
vt 0.041292 0.437405
vt 0.067376 0.794994
vt 0.067376 0.437405
vt 0.100360 0.795016
vt 0.100360 0.437426
vt 0.090978 0.723700
vt 0.109764 0.745943
vt 0.085538 0.681195
vt 0.243973 0.753058
vt 0.258362 0.795036
vt 0.094750 0.585449
vt 0.425259 0.747556
vt 0.113133 0.515574
vt 0.424223 0.795036
vt 0.131128 0.494290
vt 0.480524 0.728543
vt 0.245576 0.476627
vt 0.512570 0.794605
vt 0.258362 0.437447
vt 0.516789 0.686653
vt 0.421014 0.466160
vt 0.558408 0.729392
vt 0.424223 0.437447
vt 0.601653 0.795036
vt 0.487354 0.486949
vt 0.612355 0.751520
vt 0.514968 0.436796
vt 0.670838 0.751729
vt 0.517367 0.534393
vt 0.720772 0.795036
vt 0.559318 0.485103
vt 0.724951 0.729988
vt 0.613430 0.463361
vt 0.766455 0.689606
vt 0.601653 0.437447
vt 0.831101 0.795036
vt 0.671911 0.463570
vt 0.789031 0.636730
vt 0.720772 0.437447
vt 0.789245 0.579412
vt 0.725860 0.485698
vt 0.767063 0.526377
vt 0.831101 0.437447
vt 0.865408 0.795036
vt 0.865408 0.437447
vt 0.041292 0.947016
vt 0.018480 0.931174
vt 0.018480 0.788276
vt 0.041292 0.788276
vt 0.067376 0.957577
vt 0.067376 0.788276
vt 0.100360 0.961182
vt 0.100360 0.788299
vt 0.202019 0.887553
vt 0.209605 0.917929
vt 0.203536 0.849583
vt 0.223638 0.934107
vt 0.258362 0.961204
vt 0.213777 0.826483
vt 0.258193 0.937482
vt 0.225914 0.814926
vt 0.415105 0.928815
vt 0.258484 0.814073
vt 0.415891 0.952798
vt 0.258362 0.788321
vt 0.626676 0.912202
vt 0.415398 0.813894
vt 0.627678 0.935054
vt 0.415891 0.788321
vt 0.764007 0.893136
vt 0.627610 0.813879
vt 0.764370 0.918243
vt 0.627678 0.788321
vt 0.773753 0.887653
vt 0.763631 0.813836
vt 0.870363 0.890236
vt 0.764370 0.788321
vt 0.782794 0.874919
vt 0.870363 0.788321
vt 0.772383 0.814617
vt 0.787883 0.850387
vt 0.781308 0.818810
vt 0.786456 0.828457
vt 0.904670 0.870857
vt 0.904670 0.788321
vt 0.018480 0.788276
vt 0.041292 0.788276
vt 0.067376 0.788276
vt 0.100360 0.788299
vt 0.258362 0.788321
vt 0.415891 0.788321
vt 0.627678 0.788321
vt 0.764370 0.788321
vt 0.870363 0.788321
vt 0.904670 0.788321
vt 0.258380 0.836596
vt 0.258278 0.858901
vt 0.415435 0.832667
vt 0.258278 0.886706
vt 0.415318 0.854400
vt 0.627523 0.830278
vt 0.258339 0.912670
vt 0.415318 0.880231
vt 0.415388 0.906232
vt 0.627406 0.849620
vt 0.627406 0.871013
vt 0.627476 0.891529
vt 0.763402 0.828134
vt 0.763285 0.844357
vt 0.763285 0.860458
vt 0.763355 0.878122
vt 0.258379 0.836596
vt 0.258278 0.858901
vt 0.415435 0.832667
vt 0.258278 0.886706
vt 0.415318 0.854400
vt 0.627523 0.830278
vt 0.258339 0.912670
vt 0.415318 0.880231
vt 0.415388 0.906232
vt 0.627406 0.849620
vt 0.627406 0.871013
vt 0.627476 0.891529
vt 0.763402 0.828134
vt 0.763285 0.844357
vt 0.763285 0.860458
vt 0.763355 0.878122
vt 0.351916 0.885554
vt 0.374869 0.906387
vt 0.380869 0.885554
vt 0.371336 0.864720
vt 0.351916 0.915016
vt 0.351916 0.856091
vt 0.331790 0.906387
vt 0.330024 0.864720
vt 0.322963 0.885554
vt 0.351916 0.885554
vt 0.380869 0.885554
vt 0.374869 0.906387
vt 0.371336 0.864720
vt 0.351916 0.915016
vt 0.351916 0.856091
vt 0.331789 0.906387
vt 0.330023 0.864720
vt 0.322963 0.885554
vt 0.374869 0.906387
vt 0.380869 0.885554
vt 0.371336 0.864720
vt 0.351916 0.915016
vt 0.351916 0.856091
vt 0.331790 0.906387
vt 0.330024 0.864720
vt 0.322963 0.885554
vt 0.380869 0.885554
vt 0.374869 0.906387
vt 0.371336 0.864720
vt 0.351916 0.915016
vt 0.351916 0.856091
vt 0.331789 0.906387
vt 0.330023 0.864720
vt 0.322963 0.885554
vt 0.455896 0.555564
vt 0.426640 0.528382
vt 0.459734 0.591059
vt 0.516556 0.585047
vt 0.365289 0.587324
vt 0.384864 0.513828
vt 0.348556 0.575057
vt 0.256808 0.513693
vt 0.328680 0.568488
vt 0.163270 0.521862
vt 0.275246 0.568427
vt 0.295736 0.606368
vt 0.150122 0.537290
vt 0.232798 0.572115
vt 0.141448 0.592055
vt 0.226865 0.579077
vt 0.283593 0.602826
vt 0.272138 0.606734
vt 0.222987 0.603793
vt 0.139634 0.661970
vt 0.222266 0.635346
vt 0.148398 0.690206
vt 0.272359 0.621154
vt 0.163275 0.705298
vt 0.226272 0.648089
vt 0.256752 0.708094
vt 0.233032 0.654900
vt 0.384733 0.708236
vt 0.275477 0.656162
vt 0.284102 0.623525
vt 0.333389 0.656226
vt 0.426510 0.693537
vt 0.295253 0.620961
vt 0.352218 0.649592
vt 0.455810 0.665926
vt 0.516437 0.638111
vt 0.365396 0.637132
vt 0.365574 0.611629
vt 0.460957 0.634527
vt 0.455896 0.555564
vt 0.426639 0.528382
vt 0.459734 0.591059
vt 0.516556 0.585047
vt 0.365289 0.587324
vt 0.384864 0.513828
vt 0.348556 0.575057
vt 0.256808 0.513693
vt 0.328679 0.568488
vt 0.163269 0.521862
vt 0.275245 0.568427
vt 0.295736 0.606368
vt 0.150122 0.537290
vt 0.232798 0.572115
vt 0.141448 0.592055
vt 0.226865 0.579077
vt 0.283593 0.602826
vt 0.272138 0.606734
vt 0.222986 0.603793
vt 0.139634 0.661970
vt 0.222266 0.635346
vt 0.148397 0.690206
vt 0.272359 0.621154
vt 0.163275 0.705298
vt 0.226272 0.648089
vt 0.256752 0.708094
vt 0.233032 0.654900
vt 0.384732 0.708236
vt 0.275477 0.656162
vt 0.284102 0.623525
vt 0.333388 0.656226
vt 0.426509 0.693537
vt 0.295252 0.620961
vt 0.352217 0.649592
vt 0.455810 0.665926
vt 0.516437 0.638111
vt 0.365396 0.637132
vt 0.365574 0.611629
vt 0.460957 0.634527
vt 0.662248 0.707287
vt 0.700206 0.692150
vt 0.621191 0.707142
vt 0.729271 0.664032
vt 0.648372 0.646749
vt 0.744930 0.627217
vt 0.664121 0.640606
vt 0.676108 0.629197
vt 0.631283 0.646690
vt 0.640836 0.605416
vt 0.615403 0.640438
vt 0.583256 0.691735
vt 0.603045 0.629072
vt 0.553942 0.663757
vt 0.597858 0.614493
vt 0.540321 0.627414
vt 0.597955 0.597536
vt 0.540414 0.587636
vt 0.602573 0.582953
vt 0.554007 0.550148
vt 0.614698 0.571418
vt 0.583388 0.521643
vt 0.630452 0.565275
vt 0.621348 0.506505
vt 0.647541 0.565335
vt 0.662405 0.506651
vt 0.663415 0.571586
vt 0.700338 0.522058
vt 0.675637 0.583080
vt 0.729361 0.550381
vt 0.682173 0.598064
vt 0.744960 0.587308
vt 0.682338 0.614258
vt 0.662248 0.707287
vt 0.700206 0.692150
vt 0.621191 0.707142
vt 0.729271 0.664032
vt 0.648372 0.646749
vt 0.744930 0.627217
vt 0.664121 0.640606
vt 0.676108 0.629197
vt 0.631283 0.646690
vt 0.640836 0.605416
vt 0.615402 0.640438
vt 0.583256 0.691735
vt 0.603044 0.629072
vt 0.553941 0.663757
vt 0.597858 0.614493
vt 0.540321 0.627414
vt 0.597955 0.597536
vt 0.540412 0.587636
vt 0.602573 0.582953
vt 0.554007 0.550148
vt 0.614697 0.571418
vt 0.583388 0.521643
vt 0.630452 0.565275
vt 0.621347 0.506505
vt 0.647541 0.565335
vt 0.662405 0.506651
vt 0.663415 0.571586
vt 0.700338 0.522058
vt 0.675637 0.583080
vt 0.729361 0.550381
vt 0.682173 0.598064
vt 0.744960 0.587308
vt 0.682338 0.614258
vn -0.1664 -0.7139 -0.6802
vn -0.2322 -0.0228 -0.9724
vn -0.1752 -0.6567 -0.7335
vn -0.2376 -0.0227 -0.9711
vn -0.1662 -0.7161 -0.6779
vn -0.2384 -0.0227 -0.9709
vn -0.1240 -0.7278 -0.6744
vn -0.1892 -0.0252 -0.9816
vn 0.0390 -0.1100 -0.9931
vn -0.0477 -0.1838 -0.9818
vn 0.0688 -0.0525 -0.9962
vn -0.1054 -0.3665 -0.9244
vn -0.0872 -0.7323 -0.6754
vn 0.0968 -0.0018 -0.9953
vn -0.1659 -0.3434 -0.9244
vn 0.0338 0.0587 -0.9977
vn -0.0769 -0.7291 -0.6800
vn -0.0300 0.1336 -0.9906
vn -0.2642 -0.2730 -0.9250
vn -0.0952 0.3290 -0.9395
vn -0.1006 -0.0602 -0.9931
vn -0.1286 -0.0232 -0.9914
vn -0.0890 -0.3121 -0.9459
vn -0.1697 0.3067 -0.9365
vn 0.0731 -0.2709 -0.9598
vn -0.1027 -0.0312 -0.9942
vn -0.0616 -0.7237 -0.6873
vn -0.2542 0.2214 -0.9414
vn -0.0315 -0.3073 -0.9510
vn -0.0975 -0.0301 -0.9948
vn -0.1470 -0.3173 -0.9368
vn -0.0694 0.2600 -0.9631
vn -0.0682 -0.7197 -0.6909
vn 0.0708 0.2314 -0.9703
vn -0.2623 -0.2743 -0.9251
vn -0.0319 0.2802 -0.9594
vn -0.3408 -0.1982 -0.9190
vn -0.1003 -0.0332 -0.9944
vn -0.0610 -0.7161 -0.6953
vn -0.1561 0.2875 -0.9449
vn -0.4026 -0.0868 -0.9112
vn -0.0925 -0.0263 -0.9954
vn -0.4054 0.0429 -0.9131
vn -0.2726 0.2437 -0.9307
vn -0.3526 0.1607 -0.9218
vn -0.0861 -0.0232 -0.9960
vn -0.0576 -0.7335 -0.6773
vn -0.0848 -0.0233 -0.9961
vn -0.2397 0.0000 -0.9708
vn -0.1525 -0.7544 -0.6384
vn -0.2324 0.0000 -0.9726
vn -0.1678 -0.7083 -0.6856
vn -0.2371 0.0000 -0.9715
vn -0.1685 -0.7061 -0.6877
vn -0.1795 -0.0042 -0.9837
vn -0.1321 -0.6954 -0.7064
vn 0.0060 -0.0527 -0.9986
vn 0.0407 -0.0142 -0.9991
vn 0.0226 0.0442 -0.9987
vn -0.0847 -0.1266 -0.9883
vn -0.1478 -0.0194 -0.9888
vn -0.0435 0.1140 -0.9925
vn -0.1474 -0.2155 -0.9653
vn -0.1503 0.0474 -0.9875
vn -0.1317 -0.3417 -0.9305
vn -0.0949 0.2180 -0.9713
vn -0.1055 0.0035 -0.9944
vn -0.0909 -0.7038 -0.7045
vn -0.1480 -0.2907 -0.9453
vn -0.0837 0.3856 -0.9188
vn -0.0976 0.0012 -0.9952
vn -0.0745 -0.7060 -0.7043
vn -0.1299 -0.1010 -0.9864
vn -0.0945 0.3635 -0.9268
vn -0.0931 0.0018 -0.9956
vn -0.0696 -0.7066 -0.7042
vn -0.1835 -0.0791 -0.9798
vn -0.1250 0.1338 -0.9831
vn -0.0855 0.0010 -0.9963
vn -0.0659 -0.7070 -0.7041
vn -0.2445 -0.0565 -0.9680
vn -0.0593 -0.7074 -0.7043
vn -0.1467 0.0666 -0.9869
vn -0.2846 0.0115 -0.9585
vn -0.1909 0.0044 -0.9816
vn -0.2283 0.0414 -0.9727
vn -0.0848 0.0000 -0.9964
vn -0.0616 -0.6872 -0.7238
vn 0.1664 -0.7139 -0.6802
vn 0.1752 -0.6567 -0.7335
vn 0.2322 -0.0228 -0.9724
vn 0.2376 -0.0227 -0.9711
vn 0.1662 -0.7161 -0.6779
vn 0.2384 -0.0227 -0.9709
vn 0.1240 -0.7278 -0.6744
vn 0.1892 -0.0252 -0.9816
vn -0.0390 -0.1100 -0.9931
vn 0.0477 -0.1838 -0.9818
vn -0.0688 -0.0525 -0.9962
vn 0.1054 -0.3665 -0.9244
vn 0.0872 -0.7323 -0.6754
vn -0.0968 -0.0018 -0.9953
vn 0.1659 -0.3434 -0.9244
vn -0.0338 0.0587 -0.9977
vn 0.0769 -0.7291 -0.6800
vn 0.0300 0.1336 -0.9906
vn 0.2642 -0.2730 -0.9250
vn 0.0952 0.3290 -0.9395
vn 0.1006 -0.0602 -0.9931
vn 0.1286 -0.0232 -0.9914
vn 0.0890 -0.3121 -0.9459
vn 0.1697 0.3067 -0.9365
vn -0.0731 -0.2709 -0.9598
vn 0.1027 -0.0312 -0.9942
vn 0.0616 -0.7237 -0.6873
vn 0.2542 0.2214 -0.9414
vn 0.0315 -0.3073 -0.9510
vn 0.0975 -0.0301 -0.9948
vn 0.1470 -0.3173 -0.9368
vn 0.0694 0.2600 -0.9631
vn 0.0682 -0.7197 -0.6909
vn -0.0708 0.2314 -0.9703
vn 0.2623 -0.2743 -0.9251
vn 0.0319 0.2802 -0.9594
vn 0.3408 -0.1982 -0.9190
vn 0.1003 -0.0332 -0.9944
vn 0.0610 -0.7161 -0.6953
vn 0.1561 0.2875 -0.9449
vn 0.4026 -0.0868 -0.9112
vn 0.0925 -0.0263 -0.9954
vn 0.4054 0.0429 -0.9131
vn 0.2726 0.2437 -0.9307
vn 0.3526 0.1607 -0.9218
vn 0.0861 -0.0232 -0.9960
vn 0.0576 -0.7335 -0.6773
vn 0.0848 -0.0233 -0.9961
vn 0.2397 0.0000 -0.9708
vn 0.2324 0.0000 -0.9726
vn 0.1525 -0.7544 -0.6384
vn 0.1678 -0.7083 -0.6856
vn 0.2371 0.0000 -0.9715
vn 0.1685 -0.7061 -0.6877
vn 0.1795 -0.0042 -0.9837
vn 0.1321 -0.6954 -0.7064
vn -0.0407 -0.0142 -0.9991
vn -0.0060 -0.0527 -0.9986
vn -0.0226 0.0442 -0.9987
vn 0.0847 -0.1266 -0.9883
vn 0.1478 -0.0194 -0.9888
vn 0.0435 0.1140 -0.9925
vn 0.1474 -0.2155 -0.9653
vn 0.1503 0.0474 -0.9875
vn 0.1317 -0.3417 -0.9305
vn 0.0949 0.2180 -0.9713
vn 0.1055 0.0035 -0.9944
vn 0.0909 -0.7038 -0.7045
vn 0.1480 -0.2907 -0.9453
vn 0.0837 0.3856 -0.9188
vn 0.0976 0.0012 -0.9952
vn 0.0745 -0.7060 -0.7043
vn 0.1299 -0.1010 -0.9864
vn 0.0945 0.3635 -0.9268
vn 0.0931 0.0018 -0.9956
vn 0.0696 -0.7066 -0.7042
vn 0.1835 -0.0791 -0.9798
vn 0.1250 0.1338 -0.9831
vn 0.0855 0.0010 -0.9963
vn 0.0659 -0.7070 -0.7041
vn 0.2445 -0.0565 -0.9680
vn 0.0593 -0.7074 -0.7043
vn 0.1467 0.0666 -0.9869
vn 0.2846 0.0115 -0.9585
vn 0.1909 0.0044 -0.9816
vn 0.2283 0.0414 -0.9727
vn 0.0848 0.0000 -0.9964
vn 0.0616 -0.6872 -0.7238
vn 0.0301 0.3260 -0.9449
vn 0.0824 0.0966 -0.9919
vn -0.0683 0.4871 -0.8706
vn 0.0730 -0.0774 -0.9943
vn -0.0902 0.1061 -0.9902
vn -0.1268 0.4540 -0.8819
vn 0.0012 -0.2771 -0.9608
vn -0.0977 -0.0875 -0.9913
vn -0.1249 -0.4267 -0.8957
vn -0.1635 0.1173 -0.9795
vn -0.1775 -0.1083 -0.9781
vn -0.1936 -0.4106 -0.8910
vn -0.2496 0.2329 -0.9399
vn -0.3345 0.1150 -0.9353
vn -0.3536 -0.0990 -0.9301
vn -0.2751 -0.2371 -0.9317
vn -0.0301 0.3260 -0.9449
vn -0.0824 0.0966 -0.9919
vn 0.0683 0.4871 -0.8706
vn -0.0730 -0.0774 -0.9943
vn 0.0902 0.1061 -0.9902
vn 0.1268 0.4540 -0.8819
vn -0.0012 -0.2771 -0.9608
vn 0.0977 -0.0875 -0.9913
vn 0.1249 -0.4267 -0.8957
vn 0.1635 0.1173 -0.9795
vn 0.1775 -0.1083 -0.9781
vn 0.1936 -0.4106 -0.8910
vn 0.2496 0.2329 -0.9399
vn 0.3345 0.1150 -0.9353
vn 0.3536 -0.0990 -0.9301
vn 0.2751 -0.2371 -0.9317
vn -0.0851 0.0000 -0.9963
vn 0.5585 0.5676 -0.6048
vn 0.7833 0.0000 -0.6216
vn 0.5585 -0.5676 -0.6048
vn -0.0347 0.7955 -0.6049
vn -0.0347 -0.7955 -0.6049
vn -0.6180 0.5539 -0.5578
vn -0.6180 -0.5539 -0.5579
vn -0.8402 0.0000 -0.5422
vn 0.0851 0.0000 -0.9963
vn -0.7833 0.0000 -0.6216
vn -0.5585 0.5676 -0.6048
vn -0.5585 -0.5676 -0.6048
vn 0.0347 0.7955 -0.6049
vn 0.0347 -0.7955 -0.6049
vn 0.6180 0.5539 -0.5578
vn 0.6180 -0.5539 -0.5579
vn 0.8402 0.0000 -0.5422
vn 0.7147 0.6994 0.0000
vn 1.0000 0.0000 0.0000
vn 0.7147 -0.6994 0.0000
vn 0.0000 1.0000 0.0000
vn 0.0000 -1.0000 0.0000
vn -0.7147 0.6994 0.0000
vn -0.7147 -0.6994 0.0000
vn -1.0000 0.0000 0.0000
vn -0.4894 0.2083 -0.8468
vn -0.3143 0.4551 -0.8331
vn -0.5080 0.0214 -0.8611
vn -0.0382 0.1142 -0.9927
vn -0.2319 0.1495 -0.9611
vn -0.1391 0.5743 -0.8067
vn -0.1281 0.2638 -0.9560
vn -0.0323 0.5526 -0.8328
vn -0.0550 0.3302 -0.9423
vn 0.1160 0.3690 -0.9221
vn -0.0356 0.3374 -0.9406
vn -0.0457 0.0775 -0.9959
vn 0.2917 0.1241 -0.9484
vn 0.0602 0.2506 -0.9662
vn 0.3278 0.0095 -0.9447
vn 0.1948 0.0493 -0.9796
vn -0.0259 0.1059 -0.9940
vn 0.0528 0.0155 -0.9985
vn 0.2042 -0.0298 -0.9785
vn 0.3019 -0.0725 -0.9506
vn 0.1960 -0.0863 -0.9768
vn 0.2438 -0.1939 -0.9502
vn 0.0525 -0.1269 -0.9905
vn 0.0664 -0.4245 -0.9030
vn 0.1566 -0.1690 -0.9731
vn -0.0562 -0.5793 -0.8131
vn 0.0241 -0.3349 -0.9419
vn -0.1245 -0.6029 -0.7880
vn -0.0439 -0.4165 -0.9080
vn 0.0041 -0.1914 -0.9815
vn -0.0516 -0.4182 -0.9069
vn -0.3071 -0.4868 -0.8177
vn -0.0575 -0.1332 -0.9894
vn -0.1372 -0.3470 -0.9278
vn -0.4592 -0.2680 -0.8469
vn -0.0753 -0.1590 -0.9844
vn -0.2326 -0.2348 -0.9438
vn -0.2394 -0.0492 -0.9696
vn -0.4943 -0.0596 -0.8672
vn 0.4894 0.2083 -0.8468
vn 0.3143 0.4551 -0.8331
vn 0.5080 0.0214 -0.8611
vn 0.0382 0.1142 -0.9927
vn 0.2319 0.1495 -0.9611
vn 0.1391 0.5743 -0.8067
vn 0.1281 0.2638 -0.9560
vn 0.0323 0.5526 -0.8328
vn 0.0550 0.3302 -0.9423
vn -0.1160 0.3690 -0.9221
vn 0.0356 0.3374 -0.9406
vn 0.0457 0.0775 -0.9959
vn -0.2917 0.1241 -0.9484
vn -0.0602 0.2506 -0.9662
vn -0.3278 0.0095 -0.9447
vn -0.1948 0.0493 -0.9796
vn 0.0259 0.1059 -0.9940
vn -0.0528 0.0155 -0.9985
vn -0.2042 -0.0298 -0.9785
vn -0.3019 -0.0725 -0.9506
vn -0.1960 -0.0863 -0.9768
vn -0.2438 -0.1939 -0.9502
vn -0.0525 -0.1269 -0.9905
vn -0.0664 -0.4245 -0.9030
vn -0.1566 -0.1690 -0.9731
vn 0.0562 -0.5793 -0.8131
vn -0.0241 -0.3349 -0.9419
vn 0.1245 -0.6029 -0.7880
vn 0.0439 -0.4165 -0.9080
vn -0.0041 -0.1914 -0.9815
vn 0.0516 -0.4182 -0.9069
vn 0.3071 -0.4868 -0.8177
vn 0.0575 -0.1332 -0.9894
vn 0.1372 -0.3470 -0.9278
vn 0.4592 -0.2680 -0.8469
vn 0.0753 -0.1590 -0.9844
vn 0.2326 -0.2348 -0.9438
vn 0.2394 -0.0492 -0.9696
vn 0.4943 -0.0596 -0.8672
vn -0.1403 -0.5505 -0.8230
vn -0.3479 -0.4823 -0.8039
vn 0.0698 -0.5348 -0.8420
vn -0.5105 -0.3424 -0.7888
vn -0.0517 -0.2508 -0.9666
vn -0.6017 -0.1398 -0.7864
vn -0.1452 -0.2172 -0.9652
vn -0.2149 -0.1487 -0.9652
vn 0.0449 -0.2456 -0.9683
vn -0.0009 -0.0042 -1.0000
vn 0.1269 -0.2051 -0.9705
vn 0.2478 -0.4472 -0.8594
vn 0.1992 -0.1299 -0.9713
vn 0.3850 -0.2937 -0.8749
vn 0.2207 -0.0391 -0.9745
vn 0.4556 -0.1009 -0.8844
vn 0.2156 0.0240 -0.9762
vn 0.4647 0.0563 -0.8836
vn 0.1891 0.1009 -0.9767
vn 0.4016 0.2432 -0.8829
vn 0.1148 0.1699 -0.9787
vn 0.2572 0.4150 -0.8727
vn 0.0377 0.2026 -0.9785
vn 0.0700 0.5083 -0.8583
vn -0.0464 0.2066 -0.9773
vn -0.1479 0.5217 -0.8401
vn -0.1298 0.1811 -0.9749
vn -0.3587 0.4477 -0.8191
vn -0.2010 0.1260 -0.9714
vn -0.5187 0.3014 -0.8000
vn -0.2405 0.0444 -0.9696
vn -0.6042 0.0958 -0.7910
vn -0.2461 -0.0532 -0.9678
vn 0.1403 -0.5505 -0.8230
vn 0.3479 -0.4823 -0.8039
vn -0.0698 -0.5348 -0.8420
vn 0.5105 -0.3424 -0.7888
vn 0.0517 -0.2508 -0.9666
vn 0.6017 -0.1398 -0.7864
vn 0.1452 -0.2172 -0.9652
vn 0.2149 -0.1487 -0.9652
vn -0.0449 -0.2456 -0.9683
vn 0.0009 -0.0042 -1.0000
vn -0.1269 -0.2051 -0.9705
vn -0.2478 -0.4472 -0.8594
vn -0.1992 -0.1299 -0.9713
vn -0.3850 -0.2937 -0.8749
vn -0.2207 -0.0391 -0.9745
vn -0.4556 -0.1009 -0.8844
vn -0.2156 0.0240 -0.9762
vn -0.4647 0.0563 -0.8836
vn -0.1891 0.1009 -0.9767
vn -0.4016 0.2432 -0.8829
vn -0.1148 0.1699 -0.9787
vn -0.2572 0.4150 -0.8727
vn -0.0377 0.2026 -0.9785
vn -0.0700 0.5083 -0.8583
vn 0.0464 0.2066 -0.9773
vn 0.1479 0.5217 -0.8401
vn 0.1298 0.1811 -0.9749
vn 0.3587 0.4477 -0.8191
vn 0.2010 0.1260 -0.9714
vn 0.5187 0.3014 -0.8000
vn 0.2405 0.0444 -0.9696
vn 0.6042 0.0958 -0.7910
vn 0.2461 -0.0532 -0.9678
s 1
f 51/1/1 2/2/2 1/3/3
f 51/1/1 3/4/4 2/2/2
f 4/5/5 3/4/4 51/1/1
f 4/5/5 5/6/6 3/4/4
f 54/7/7 5/6/6 4/5/5
f 54/7/7 6/8/8 5/6/6
f 8/9/9 54/7/7 7/10/10
f 233/11/11 54/7/7 8/9/9
f 54/7/7 9/12/12 7/10/10
f 54/7/7 233/11/11 6/8/8
f 54/7/7 56/13/13 9/12/12
f 233/11/11 230/14/14 6/8/8
f 56/13/13 245/15/15 9/12/12
f 230/14/14 10/16/16 6/8/8
f 56/13/13 11/17/17 245/15/15
f 10/16/16 224/18/18 6/8/8
f 12/19/19 245/15/15 11/17/17
f 6/8/8 224/18/18 221/20/20
f 12/19/19 11/17/17 13/21/21
f 6/8/8 221/20/20 14/22/22
f 12/19/19 13/21/21 323/23/23
f 14/22/22 221/20/20 217/24/24
f 323/23/23 13/21/21 320/25/25
f 14/22/22 217/24/24 15/26/26
f 320/25/25 13/21/21 16/27/27
f 215/28/28 15/26/26 217/24/24
f 320/25/25 16/27/27 17/29/29
f 215/28/28 18/30/30 15/26/26
f 17/29/29 16/27/27 19/31/31
f 18/30/30 215/28/28 213/32/32
f 19/31/31 16/27/27 59/33/33
f 18/30/30 213/32/32 334/34/34
f 305/35/35 19/31/31 59/33/33
f 18/30/30 334/34/34 337/36/36
f 307/37/37 305/35/35 59/33/33
f 18/30/30 337/36/36 20/38/38
f 307/37/37 59/33/33 21/39/39
f 337/36/36 340/40/40 20/38/38
f 310/41/41 307/37/37 21/39/39
f 20/38/38 340/40/40 22/42/42
f 313/43/43 310/41/41 21/39/39
f 340/40/40 23/44/44 22/42/42
f 23/44/44 345/45/45 22/42/42
f 345/45/45 24/46/46 22/42/42
f 313/43/43 24/46/46 345/45/45
f 313/43/43 21/39/39 24/46/46
f 62/47/47 24/46/46 21/39/39
f 62/47/47 25/48/48 24/46/46
f 27/49/49 49/50/50 26/51/51
f 27/49/49 50/52/52 49/50/50
f 28/53/53 50/52/52 27/49/49
f 28/53/53 52/54/54 50/52/52
f 29/55/55 52/54/54 28/53/53
f 29/55/55 53/56/56 52/54/54
f 29/55/55 30/57/57 133/58/58
f 29/55/55 133/58/58 31/59/59
f 29/55/55 139/60/60 30/57/57
f 29/55/55 31/59/59 53/56/56
f 32/61/61 139/60/60 29/55/55
f 53/56/56 31/59/59 129/62/62
f 32/61/61 140/63/63 139/60/60
f 53/56/56 129/62/62 33/64/64
f 32/61/61 34/65/65 140/63/63
f 53/56/56 33/64/64 128/66/66
f 32/61/61 35/67/67 34/65/65
f 53/56/56 128/66/66 55/68/68
f 35/67/67 36/69/69 34/65/65
f 55/68/68 128/66/66 131/70/70
f 35/67/67 37/71/71 36/69/69
f 55/68/68 131/70/70 38/72/72
f 37/71/71 151/73/73 36/69/69
f 38/72/72 131/70/70 39/74/74
f 37/71/71 40/75/75 151/73/73
f 38/72/72 39/74/74 57/76/76
f 151/73/73 40/75/75 41/77/77
f 57/76/76 39/74/74 42/78/78
f 40/75/75 43/79/79 41/77/77
f 57/76/76 42/78/78 58/80/80
f 44/81/81 41/77/77 43/79/79
f 60/82/82 58/80/80 42/78/78
f 44/81/81 43/79/79 60/82/82
f 147/83/83 60/82/82 42/78/78
f 44/81/81 60/82/82 45/84/84
f 46/85/85 60/82/82 147/83/83
f 45/84/84 60/82/82 47/86/86
f 47/86/86 60/82/82 46/85/85
f 48/87/87 60/82/82 43/79/79
f 48/87/87 61/88/88 60/82/82
f 50/52/52 1/89/3 49/50/50
f 50/52/52 51/90/1 1/89/3
f 52/54/54 51/90/1 50/52/52
f 52/54/54 4/91/5 51/90/1
f 53/56/56 4/91/5 52/54/54
f 53/56/56 54/92/7 4/91/5
f 55/68/68 54/92/7 53/56/56
f 55/68/68 56/93/13 54/92/7
f 38/72/72 56/93/13 55/68/68
f 38/72/72 11/94/17 56/93/13
f 57/76/76 11/94/17 38/72/72
f 57/76/76 16/95/27 11/94/17
f 58/80/80 16/95/27 57/76/76
f 58/80/80 59/96/33 16/95/27
f 60/82/82 59/96/33 58/80/80
f 60/82/82 21/97/39 59/96/33
f 61/88/88 21/97/39 60/82/82
f 61/88/88 62/98/47 21/97/39
f 64/99/89 117/100/90 63/101/91
f 64/99/89 63/101/91 65/102/92
f 120/103/93 64/99/89 65/102/92
f 120/103/93 65/102/92 66/104/94
f 121/105/95 120/103/93 66/104/94
f 121/105/95 66/104/94 67/106/96
f 68/107/97 285/108/98 121/105/95
f 69/109/99 68/107/97 121/105/95
f 121/105/95 285/108/98 70/110/100
f 121/105/95 67/106/96 69/109/99
f 121/105/95 70/110/100 71/111/101
f 69/109/99 67/106/96 72/112/102
f 71/111/101 70/110/100 290/113/103
f 72/112/102 67/106/96 272/114/104
f 71/111/101 290/113/103 73/115/105
f 272/114/104 67/106/96 269/116/106
f 74/117/107 73/115/105 290/113/103
f 67/106/96 266/118/108 269/116/106
f 74/117/107 75/119/109 73/115/105
f 67/106/96 76/120/110 266/118/108
f 74/117/107 77/121/111 75/119/109
f 76/120/110 261/122/112 266/118/108
f 77/121/111 78/123/113 75/119/109
f 76/120/110 79/124/114 261/122/112
f 78/123/113 124/125/115 75/119/109
f 259/126/116 261/122/112 79/124/114
f 78/123/113 80/127/117 124/125/115
f 259/126/116 79/124/114 81/128/118
f 80/127/117 82/129/119 124/125/115
f 81/128/118 371/130/120 259/126/116
f 82/129/119 125/131/121 124/125/115
f 81/128/118 374/132/122 371/130/120
f 350/133/123 125/131/121 82/129/119
f 81/128/118 83/134/124 374/132/122
f 352/135/125 125/131/121 350/133/123
f 81/128/118 84/136/126 83/134/124
f 352/135/125 85/137/127 125/131/121
f 83/134/124 84/136/126 379/138/128
f 86/139/129 85/137/127 352/135/125
f 84/136/126 87/140/130 379/138/128
f 88/141/131 85/137/127 86/139/129
f 379/138/128 87/140/130 89/142/132
f 89/142/132 87/140/130 90/143/133
f 90/143/133 87/140/130 91/144/134
f 88/141/131 90/143/133 91/144/134
f 88/141/131 91/144/134 85/137/127
f 127/145/135 85/137/127 91/144/134
f 127/145/135 91/144/134 92/146/136
f 95/147/137 94/148/138 93/149/139
f 95/147/137 93/149/139 118/150/140
f 96/151/141 95/147/137 118/150/140
f 96/151/141 118/150/140 119/152/142
f 97/153/143 96/151/141 119/152/142
f 97/153/143 119/152/142 98/154/144
f 97/153/143 157/155/145 99/156/146
f 97/153/143 154/157/147 157/155/145
f 97/153/143 99/156/146 164/158/148
f 97/153/143 98/154/144 154/157/147
f 100/159/149 97/153/143 164/158/148
f 98/154/144 101/160/150 154/157/147
f 100/159/149 164/158/148 165/161/151
f 98/154/144 152/162/152 101/160/150
f 100/159/149 165/161/151 102/163/153
f 98/154/144 103/164/154 152/162/152
f 100/159/149 102/163/153 104/165/155
f 98/154/144 105/166/156 103/164/154
f 104/165/155 102/163/153 171/167/157
f 105/166/156 155/168/158 103/164/154
f 104/165/155 171/167/157 106/169/159
f 105/166/156 122/170/160 155/168/158
f 106/169/159 171/167/157 107/171/161
f 122/170/160 108/172/162 155/168/158
f 106/169/159 107/171/161 109/173/163
f 122/170/160 123/174/164 108/172/162
f 107/171/161 110/175/165 109/173/163
f 123/174/164 162/176/166 108/172/162
f 109/173/163 110/175/165 111/177/167
f 123/174/164 112/178/168 162/176/166
f 177/179/169 111/177/167 110/175/165
f 126/180/170 162/176/166 112/178/168
f 177/179/169 126/180/170 111/177/167
f 113/181/171 162/176/166 126/180/170
f 177/179/169 175/182/172 126/180/170
f 173/183/173 113/181/171 126/180/170
f 175/182/172 114/184/174 126/180/170
f 114/184/174 173/183/173 126/180/170
f 115/185/175 111/177/167 126/180/170
f 115/185/175 126/180/170 116/186/176
f 118/150/140 93/149/139 117/187/90
f 118/150/140 117/187/90 64/188/89
f 119/152/142 118/150/140 64/188/89
f 119/152/142 64/188/89 120/189/93
f 98/154/144 119/152/142 120/189/93
f 98/154/144 120/189/93 121/190/95
f 105/166/156 98/154/144 121/190/95
f 105/166/156 121/190/95 71/191/101
f 122/170/160 105/166/156 71/191/101
f 122/170/160 71/191/101 73/192/105
f 123/174/164 122/170/160 73/192/105
f 123/174/164 73/192/105 124/193/115
f 112/178/168 123/174/164 124/193/115
f 112/178/168 124/193/115 125/194/121
f 126/180/170 112/178/168 125/194/121
f 126/180/170 125/194/121 85/195/127
f 116/186/176 126/180/170 85/195/127
f 116/186/176 85/195/127 127/196/135
f 129/62/62 128/66/66 33/64/64
f 129/62/62 130/197/177 128/66/66
f 31/59/59 130/197/177 129/62/62
f 130/197/177 131/70/70 128/66/66
f 31/59/59 132/198/178 130/197/177
f 133/58/58 132/198/178 31/59/59
f 130/197/177 134/199/179 131/70/70
f 132/198/178 134/199/179 130/197/177
f 134/199/179 39/74/74 131/70/70
f 133/58/58 135/200/180 132/198/178
f 30/57/57 135/200/180 133/58/58
f 132/198/178 136/201/181 134/199/179
f 135/200/180 136/201/181 132/198/178
f 134/199/179 137/202/182 39/74/74
f 136/201/181 137/202/182 134/199/179
f 137/202/182 42/78/78 39/74/74
f 30/57/57 138/203/183 135/200/180
f 139/60/60 138/203/183 30/57/57
f 139/60/60 140/63/63 138/203/183
f 135/200/180 141/204/184 136/201/181
f 138/203/183 141/204/184 135/200/180
f 140/63/63 142/205/185 138/203/183
f 138/203/183 142/205/185 141/204/184
f 140/63/63 34/65/65 142/205/185
f 141/204/184 143/206/186 136/201/181
f 136/201/181 143/206/186 137/202/182
f 142/205/185 144/207/187 141/204/184
f 141/204/184 144/207/187 143/206/186
f 34/65/65 145/208/188 142/205/185
f 142/205/185 145/208/188 144/207/187
f 34/65/65 36/69/69 145/208/188
f 143/206/186 146/209/189 137/202/182
f 137/202/182 146/209/189 42/78/78
f 147/83/83 42/78/78 146/209/189
f 46/85/85 147/83/83 146/209/189
f 47/86/86 46/85/85 146/209/189
f 143/206/186 148/210/190 146/209/189
f 146/209/189 148/210/190 47/86/86
f 144/207/187 148/210/190 143/206/186
f 47/86/86 148/210/190 45/84/84
f 144/207/187 149/211/191 148/210/190
f 148/210/190 149/211/191 45/84/84
f 145/208/188 149/211/191 144/207/187
f 44/81/81 45/84/84 149/211/191
f 145/208/188 150/212/192 149/211/191
f 149/211/191 150/212/192 44/81/81
f 36/69/69 150/212/192 145/208/188
f 44/81/81 150/212/192 41/77/77
f 36/69/69 151/73/73 150/212/192
f 41/77/77 150/212/192 151/73/73
f 101/160/150 152/162/152 103/164/154
f 101/160/150 103/164/154 153/213/193
f 154/157/147 101/160/150 153/213/193
f 153/213/193 103/164/154 155/168/158
f 154/157/147 153/213/193 156/214/194
f 157/155/145 154/157/147 156/214/194
f 153/213/193 155/168/158 158/215/195
f 156/214/194 153/213/193 158/215/195
f 158/215/195 155/168/158 108/172/162
f 157/155/145 156/214/194 159/216/196
f 99/156/146 157/155/145 159/216/196
f 156/214/194 158/215/195 160/217/197
f 159/216/196 156/214/194 160/217/197
f 158/215/195 108/172/162 161/218/198
f 160/217/197 158/215/195 161/218/198
f 161/218/198 108/172/162 162/176/166
f 99/156/146 159/216/196 163/219/199
f 164/158/148 99/156/146 163/219/199
f 164/158/148 163/219/199 165/161/151
f 159/216/196 160/217/197 166/220/200
f 163/219/199 159/216/196 166/220/200
f 165/161/151 163/219/199 167/221/201
f 163/219/199 166/220/200 167/221/201
f 165/161/151 167/221/201 102/163/153
f 166/220/200 160/217/197 168/222/202
f 160/217/197 161/218/198 168/222/202
f 167/221/201 166/220/200 169/223/203
f 166/220/200 168/222/202 169/223/203
f 102/163/153 167/221/201 170/224/204
f 167/221/201 169/223/203 170/224/204
f 102/163/153 170/224/204 171/167/157
f 168/222/202 161/218/198 172/225/205
f 161/218/198 162/176/166 172/225/205
f 113/181/171 172/225/205 162/176/166
f 173/183/173 172/225/205 113/181/171
f 114/184/174 172/225/205 173/183/173
f 168/222/202 172/225/205 174/226/206
f 172/225/205 114/184/174 174/226/206
f 169/223/203 168/222/202 174/226/206
f 114/184/174 175/182/172 174/226/206
f 169/223/203 174/226/206 176/227/207
f 174/226/206 175/182/172 176/227/207
f 170/224/204 169/223/203 176/227/207
f 177/179/169 176/227/207 175/182/172
f 170/224/204 176/227/207 178/228/208
f 176/227/207 177/179/169 178/228/208
f 171/167/157 170/224/204 178/228/208
f 177/179/169 110/175/165 178/228/208
f 171/167/157 178/228/208 107/171/161
f 110/175/165 107/171/161 178/228/208
f 180/229/209 189/230/210 179/231/211
f 180/229/209 179/231/211 192/232/212
f 180/229/209 181/233/213 189/230/210
f 180/229/209 192/232/212 182/234/214
f 180/229/209 183/235/215 181/233/213
f 180/229/209 182/234/214 184/236/216
f 180/229/209 195/237/217 183/235/215
f 180/229/209 184/236/216 195/237/217
f 185/238/218 199/239/219 200/240/220
f 185/238/218 204/241/221 199/239/219
f 185/238/218 200/240/220 203/242/222
f 185/238/218 208/243/223 204/241/221
f 185/238/218 203/242/222 207/244/224
f 185/238/218 211/245/225 208/243/223
f 185/238/218 207/244/224 186/246/226
f 185/238/218 186/246/226 211/245/225
f 189/230/210 188/247/227 187/248/228
f 189/230/210 187/248/228 179/231/211
f 181/233/213 188/247/227 189/230/210
f 179/231/211 187/248/228 190/249/229
f 181/233/213 191/250/230 188/247/227
f 179/231/211 190/249/229 192/232/212
f 183/235/215 191/250/230 181/233/213
f 192/232/212 190/249/229 193/251/231
f 183/235/215 194/252/232 191/250/230
f 192/232/212 193/251/231 182/234/214
f 195/237/217 194/252/232 183/235/215
f 182/234/214 193/251/231 196/253/233
f 195/237/217 197/254/234 194/252/232
f 182/234/214 196/253/233 184/236/216
f 184/236/216 197/254/234 195/237/217
f 184/236/216 196/253/233 197/254/234
f 200/240/220 199/239/219 198/255/234
f 200/240/220 198/255/234 201/256/232
f 199/239/219 202/257/233 198/255/234
f 203/242/222 200/240/220 201/256/232
f 199/239/219 204/241/221 202/257/233
f 203/242/222 201/256/232 205/258/230
f 204/241/221 206/259/231 202/257/233
f 207/244/224 203/242/222 205/258/230
f 204/241/221 208/243/223 206/259/231
f 207/244/224 205/258/230 209/260/227
f 208/243/223 210/261/229 206/259/231
f 186/246/226 207/244/224 209/260/227
f 208/243/223 211/245/225 210/261/229
f 186/246/226 209/260/227 212/262/228
f 211/245/225 212/262/228 210/261/229
f 211/245/225 186/246/226 212/262/228
f 215/28/28 214/263/235 213/32/32
f 215/28/28 216/264/236 214/263/235
f 217/24/24 216/264/236 215/28/28
f 218/265/237 213/32/32 214/263/235
f 218/265/237 329/266/238 213/32/32
f 216/264/236 219/267/239 214/263/235
f 218/265/237 214/263/235 219/267/239
f 217/24/24 220/268/240 216/264/236
f 221/20/20 220/268/240 217/24/24
f 216/264/236 222/269/241 219/267/239
f 220/268/240 222/269/241 216/264/236
f 221/20/20 223/270/242 220/268/240
f 224/18/18 223/270/242 221/20/20
f 220/268/240 225/271/243 222/269/241
f 223/270/242 225/271/243 220/268/240
f 224/18/18 226/272/244 223/270/242
f 10/16/16 226/272/244 224/18/18
f 223/270/242 227/273/245 225/271/243
f 226/272/244 227/273/245 223/270/242
f 222/269/241 225/271/243 228/274/246
f 227/273/245 228/274/246 225/271/243
f 219/267/239 222/269/241 228/274/246
f 10/16/16 229/275/247 226/272/244
f 230/14/14 229/275/247 10/16/16
f 226/272/244 231/276/248 227/273/245
f 229/275/247 231/276/248 226/272/244
f 230/14/14 232/277/249 229/275/247
f 233/11/11 232/277/249 230/14/14
f 229/275/247 234/278/250 231/276/248
f 232/277/249 234/278/250 229/275/247
f 231/276/248 235/279/251 227/273/245
f 227/273/245 235/279/251 228/274/246
f 231/276/248 234/278/250 236/280/252
f 231/276/248 236/280/252 235/279/251
f 232/277/249 237/281/253 234/278/250
f 234/278/250 237/281/253 236/280/252
f 233/11/11 238/282/254 232/277/249
f 238/282/254 237/281/253 232/277/249
f 8/9/9 238/282/254 233/11/11
f 238/282/254 239/283/255 237/281/253
f 239/283/255 236/280/252 237/281/253
f 8/9/9 240/284/256 238/282/254
f 240/284/256 239/283/255 238/282/254
f 7/10/10 240/284/256 8/9/9
f 239/283/255 241/285/257 236/280/252
f 7/10/10 242/286/258 240/284/256
f 9/12/12 242/286/258 7/10/10
f 240/284/256 243/287/259 239/283/255
f 242/286/258 243/287/259 240/284/256
f 239/283/255 243/287/259 241/285/257
f 9/12/12 244/288/260 242/286/258
f 245/15/15 244/288/260 9/12/12
f 242/286/258 246/289/261 243/287/259
f 244/288/260 246/289/261 242/286/258
f 243/287/259 246/289/261 241/285/257
f 245/15/15 247/290/262 244/288/260
f 12/19/19 247/290/262 245/15/15
f 244/288/260 248/291/263 246/289/261
f 248/291/263 241/285/257 246/289/261
f 247/290/262 248/291/263 244/288/260
f 236/280/252 241/285/257 249/292/264
f 248/291/263 249/292/264 241/285/257
f 236/280/252 249/292/264 235/279/251
f 228/274/246 235/279/251 249/292/264
f 247/290/262 250/293/265 248/291/263
f 250/293/265 249/292/264 248/291/263
f 12/19/19 251/294/266 247/290/262
f 251/294/266 250/293/265 247/290/262
f 323/23/23 251/294/266 12/19/19
f 250/293/265 252/295/267 249/292/264
f 249/292/264 252/295/267 228/274/246
f 251/294/266 253/296/268 250/293/265
f 250/293/265 253/296/268 252/295/267
f 323/23/23 254/297/269 251/294/266
f 254/297/269 253/296/268 251/294/266
f 254/297/269 323/23/23 326/298/270
f 253/296/268 255/299/271 252/295/267
f 254/297/269 255/299/271 253/296/268
f 228/274/246 252/295/267 256/300/272
f 252/295/267 255/299/271 256/300/272
f 256/300/272 219/267/239 228/274/246
f 218/265/237 219/267/239 256/300/272
f 257/301/273 255/299/271 254/297/269
f 257/301/273 256/300/272 255/299/271
f 257/301/273 218/265/237 256/300/272
f 254/297/269 326/298/270 257/301/273
f 257/301/273 329/266/238 218/265/237
f 257/301/273 326/298/270 329/266/238
f 259/126/116 371/130/120 258/302/274
f 259/126/116 258/302/274 260/303/275
f 261/122/112 259/126/116 260/303/275
f 262/304/276 258/302/274 371/130/120
f 262/304/276 371/130/120 263/305/277
f 260/303/275 258/302/274 264/306/278
f 262/304/276 264/306/278 258/302/274
f 261/122/112 260/303/275 265/307/279
f 266/118/108 261/122/112 265/307/279
f 260/303/275 264/306/278 267/308/280
f 265/307/279 260/303/275 267/308/280
f 266/118/108 265/307/279 268/309/281
f 269/116/106 266/118/108 268/309/281
f 265/307/279 267/308/280 270/310/282
f 268/309/281 265/307/279 270/310/282
f 269/116/106 268/309/281 271/311/283
f 272/114/104 269/116/106 271/311/283
f 268/309/281 270/310/282 273/312/284
f 271/311/283 268/309/281 273/312/284
f 267/308/280 274/313/285 270/310/282
f 273/312/284 270/310/282 274/313/285
f 264/306/278 274/313/285 267/308/280
f 272/114/104 271/311/283 275/314/286
f 72/112/102 272/114/104 275/314/286
f 271/311/283 273/312/284 276/315/287
f 275/314/286 271/311/283 276/315/287
f 72/112/102 275/314/286 277/316/288
f 69/109/99 72/112/102 277/316/288
f 275/314/286 276/315/287 278/317/289
f 277/316/288 275/314/286 278/317/289
f 276/315/287 273/312/284 279/318/290
f 273/312/284 274/313/285 279/318/290
f 276/315/287 280/319/291 278/317/289
f 276/315/287 279/318/290 280/319/291
f 277/316/288 278/317/289 281/320/292
f 278/317/289 280/319/291 281/320/292
f 69/109/99 277/316/288 282/321/293
f 282/321/293 277/316/288 281/320/292
f 68/107/97 69/109/99 282/321/293
f 282/321/293 281/320/292 283/322/294
f 283/322/294 281/320/292 280/319/291
f 68/107/97 282/321/293 284/323/295
f 284/323/295 282/321/293 283/322/294
f 285/108/98 68/107/97 284/323/295
f 283/322/294 280/319/291 286/324/296
f 285/108/98 284/323/295 287/325/297
f 70/110/100 285/108/98 287/325/297
f 284/323/295 283/322/294 288/326/298
f 287/325/297 284/323/295 288/326/298
f 283/322/294 286/324/296 288/326/298
f 70/110/100 287/325/297 289/327/299
f 290/113/103 70/110/100 289/327/299
f 287/325/297 288/326/298 291/328/300
f 289/327/299 287/325/297 291/328/300
f 288/326/298 286/324/296 291/328/300
f 290/113/103 289/327/299 292/329/301
f 74/117/107 290/113/103 292/329/301
f 289/327/299 291/328/300 293/330/302
f 293/330/302 291/328/300 286/324/296
f 292/329/301 289/327/299 293/330/302
f 286/324/296 280/319/291 294/331/303
f 293/330/302 286/324/296 294/331/303
f 280/319/291 279/318/290 294/331/303
f 279/318/290 274/313/285 294/331/303
f 292/329/301 293/330/302 295/332/304
f 295/332/304 293/330/302 294/331/303
f 74/117/107 292/329/301 296/333/305
f 296/333/305 292/329/301 295/332/304
f 77/121/111 74/117/107 296/333/305
f 295/332/304 294/331/303 297/334/306
f 297/334/306 294/331/303 274/313/285
f 296/333/305 295/332/304 298/335/307
f 295/332/304 297/334/306 298/335/307
f 77/121/111 296/333/305 299/336/308
f 299/336/308 296/333/305 298/335/307
f 299/336/308 300/337/309 77/121/111
f 298/335/307 297/334/306 301/338/310
f 299/336/308 298/335/307 301/338/310
f 274/313/285 302/339/311 297/334/306
f 297/334/306 302/339/311 301/338/310
f 302/339/311 274/313/285 264/306/278
f 262/304/276 302/339/311 264/306/278
f 303/340/312 299/336/308 301/338/310
f 303/340/312 301/338/310 302/339/311
f 299/336/308 303/340/312 300/337/309
f 303/340/312 302/339/311 262/304/276
f 303/340/312 263/305/277 300/337/309
f 303/340/312 262/304/276 263/305/277
f 305/35/35 304/341/313 19/31/31
f 305/35/35 306/342/314 304/341/313
f 307/37/37 306/342/314 305/35/35
f 19/31/31 304/341/313 308/343/315
f 19/31/31 308/343/315 17/29/29
f 307/37/37 309/344/316 306/342/314
f 310/41/41 309/344/316 307/37/37
f 306/342/314 311/345/317 304/341/313
f 310/41/41 312/346/318 309/344/316
f 313/43/43 312/346/318 310/41/41
f 309/344/316 314/347/319 306/342/314
f 306/342/314 314/347/319 311/345/317
f 309/344/316 315/348/320 314/347/319
f 312/346/318 315/348/320 309/344/316
f 304/341/313 311/345/317 316/349/321
f 304/341/313 316/349/321 308/343/315
f 311/345/317 314/347/319 317/350/322
f 316/349/321 311/345/317 317/350/322
f 314/347/319 315/348/320 317/350/322
f 308/343/315 316/349/321 318/351/323
f 318/351/323 316/349/321 317/350/322
f 308/343/315 318/351/323 319/352/324
f 17/29/29 308/343/315 319/352/324
f 17/29/29 319/352/324 320/25/25
f 319/352/324 318/351/323 321/353/325
f 321/353/325 318/351/323 317/350/322
f 320/25/25 319/352/324 322/354/326
f 319/352/324 321/353/325 322/354/326
f 320/25/25 322/354/326 323/23/23
f 324/355/327 322/354/326 321/353/325
f 324/355/327 321/353/325 317/350/322
f 325/356/328 323/23/23 322/354/326
f 324/355/327 325/356/328 322/354/326
f 325/356/328 326/298/270 323/23/23
f 327/357/329 325/356/328 324/355/327
f 327/357/329 324/355/327 317/350/322
f 328/358/330 326/298/270 325/356/328
f 327/357/329 328/358/330 325/356/328
f 328/358/330 329/266/238 326/298/270
f 330/359/331 328/358/330 327/357/329
f 330/359/331 327/357/329 317/350/322
f 331/360/332 329/266/238 328/358/330
f 330/359/331 331/360/332 328/358/330
f 331/360/332 213/32/32 329/266/238
f 331/360/332 330/359/331 332/361/333
f 332/361/333 330/359/331 317/350/322
f 213/32/32 331/360/332 333/362/334
f 331/360/332 332/361/333 333/362/334
f 213/32/32 333/362/334 334/34/34
f 333/362/334 332/361/333 335/363/335
f 335/363/335 332/361/333 317/350/322
f 334/34/34 333/362/334 336/364/336
f 333/362/334 335/363/335 336/364/336
f 334/34/34 336/364/336 337/36/36
f 336/364/336 335/363/335 338/365/337
f 338/365/337 335/363/335 317/350/322
f 337/36/36 336/364/336 339/366/338
f 336/364/336 338/365/337 339/366/338
f 337/36/36 339/366/338 340/40/40
f 339/366/338 338/365/337 341/367/339
f 341/367/339 338/365/337 317/350/322
f 340/40/40 339/366/338 342/368/340
f 339/366/338 341/367/339 342/368/340
f 340/40/40 342/368/340 23/44/44
f 342/368/340 341/367/339 343/369/341
f 343/369/341 341/367/339 317/350/322
f 23/44/44 342/368/340 344/370/342
f 342/368/340 343/369/341 344/370/342
f 23/44/44 344/370/342 345/45/45
f 346/371/343 343/369/341 317/350/322
f 344/370/342 343/369/341 346/371/343
f 345/45/45 344/370/342 347/372/344
f 344/370/342 346/371/343 347/372/344
f 345/45/45 347/372/344 313/43/43
f 313/43/43 347/372/344 312/346/318
f 348/373/345 346/371/343 317/350/322
f 347/372/344 346/371/343 348/373/345
f 347/372/344 348/373/345 312/346/318
f 315/348/320 348/373/345 317/350/322
f 312/346/318 348/373/345 315/348/320
f 350/133/123 82/129/119 349/374/346
f 350/133/123 349/374/346 351/375/347
f 352/135/125 350/133/123 351/375/347
f 82/129/119 353/376/348 349/374/346
f 82/129/119 80/127/117 353/376/348
f 352/135/125 351/375/347 354/377/349
f 86/139/129 352/135/125 354/377/349
f 351/375/347 349/374/346 355/378/350
f 86/139/129 354/377/349 356/379/351
f 88/141/131 86/139/129 356/379/351
f 354/377/349 351/375/347 357/380/352
f 351/375/347 355/378/350 357/380/352
f 354/377/349 357/380/352 358/381/353
f 356/379/351 354/377/349 358/381/353
f 349/374/346 359/382/354 355/378/350
f 349/374/346 353/376/348 359/382/354
f 355/378/350 360/383/355 357/380/352
f 359/382/354 360/383/355 355/378/350
f 357/380/352 360/383/355 358/381/353
f 353/376/348 361/384/356 359/382/354
f 361/384/356 360/383/355 359/382/354
f 353/376/348 362/385/357 361/384/356
f 80/127/117 362/385/357 353/376/348
f 80/127/117 78/123/113 362/385/357
f 362/385/357 363/386/358 361/384/356
f 363/386/358 360/383/355 361/384/356
f 78/123/113 364/387/359 362/385/357
f 362/385/357 364/387/359 363/386/358
f 78/123/113 77/121/111 364/387/359
f 365/388/360 363/386/358 364/387/359
f 365/388/360 360/383/355 363/386/358
f 366/389/361 364/387/359 77/121/111
f 365/388/360 364/387/359 366/389/361
f 366/389/361 77/121/111 300/337/309
f 367/390/362 365/388/360 366/389/361
f 367/390/362 360/383/355 365/388/360
f 368/391/363 366/389/361 300/337/309
f 367/390/362 366/389/361 368/391/363
f 368/391/363 300/337/309 263/305/277
f 369/392/364 367/390/362 368/391/363
f 369/392/364 360/383/355 367/390/362
f 370/393/365 368/391/363 263/305/277
f 369/392/364 368/391/363 370/393/365
f 370/393/365 263/305/277 371/130/120
f 370/393/365 372/394/366 369/392/364
f 372/394/366 360/383/355 369/392/364
f 371/130/120 373/395/367 370/393/365
f 370/393/365 373/395/367 372/394/366
f 371/130/120 374/132/122 373/395/367
f 373/395/367 375/396/368 372/394/366
f 375/396/368 360/383/355 372/394/366
f 374/132/122 376/397/369 373/395/367
f 373/395/367 376/397/369 375/396/368
f 374/132/122 83/134/124 376/397/369
f 376/397/369 377/398/370 375/396/368
f 377/398/370 360/383/355 375/396/368
f 83/134/124 378/399/371 376/397/369
f 376/397/369 378/399/371 377/398/370
f 83/134/124 379/138/128 378/399/371
f 378/399/371 380/400/372 377/398/370
f 380/400/372 360/383/355 377/398/370
f 379/138/128 381/401/373 378/399/371
f 378/399/371 381/401/373 380/400/372
f 379/138/128 89/142/132 381/401/373
f 381/401/373 382/402/374 380/400/372
f 382/402/374 360/383/355 380/400/372
f 89/142/132 383/403/375 381/401/373
f 381/401/373 383/403/375 382/402/374
f 89/142/132 90/143/133 383/403/375
f 384/404/376 360/383/355 382/402/374
f 383/403/375 384/404/376 382/402/374
f 90/143/133 385/405/377 383/403/375
f 383/403/375 385/405/377 384/404/376
f 90/143/133 88/141/131 385/405/377
f 88/141/131 356/379/351 385/405/377
f 386/406/378 360/383/355 384/404/376
f 385/405/377 386/406/378 384/404/376
f 385/405/377 356/379/351 386/406/378
f 358/381/353 360/383/355 386/406/378
f 356/379/351 358/381/353 386/406/378
