# Blender v2.93.18 OBJ File: 'Mercedes Axor New 12.blend'
# www.blender.org
o cab_daycab_lights_piece_6
v -38.845371 67.825539 23.392597
v -38.179253 69.452248 23.380791
v -39.497658 69.374344 24.420912
v -39.656212 67.917747 24.413599
v 38.193512 69.452255 23.380800
v 38.839687 67.825554 23.392607
v 39.399326 69.374367 24.420921
v 39.557896 67.917778 24.413580
vt 0.714999 0.402724
vt 0.513632 0.420460
vt 0.612264 0.018132
vt 0.738476 0.039124
vt 0.714994 0.402728
vt 0.625977 0.018134
vt 0.530299 0.420460
vt 0.738473 0.039128
vn -0.6857 0.1796 -0.7054
vn -0.6095 0.2441 -0.7543
vn -0.6946 0.1713 -0.6987
vn -0.7762 0.0876 -0.6243
vn 0.7170 0.1867 -0.6715
vn 0.7315 0.1735 -0.6594
vn 0.6417 0.2496 -0.7252
vn 0.8106 0.0912 -0.5784
s 1
f 3/1/1 2/2/2 1/3/3
f 3/1/1 1/3/3 4/4/4
f 7/5/5 6/6/6 5/7/7
f 7/5/5 8/8/8 6/6/6
