# Blender v2.93.18 OBJ File: 'Mercedes Axor New 12.blend'
# www.blender.org
o interior_gauge_labels_interior_gauge_labels_piece_11.001
v -33.910881 34.814320 9.889046
v -34.294857 34.734718 9.917757
v -34.239571 34.641750 9.951712
v -33.966164 34.907284 9.855091
v -34.210323 34.979469 9.828565
v -34.420727 34.974377 9.830241
v -34.407040 34.928089 9.847135
v -34.224007 35.025753 9.811665
v -34.301979 35.479862 9.645979
v -34.501526 35.542683 9.622891
v -34.505520 35.494789 9.640362
v -34.297989 35.527756 9.628508
v -34.080746 35.228436 9.737856
v -34.470505 35.277023 9.719808
v -34.452408 35.171883 9.758174
v -34.098846 35.333572 9.699497
v -34.089592 35.672207 9.575983
v -34.438122 35.843086 9.513367
v -34.459389 35.738476 9.551507
v -34.068321 35.776829 9.537849
v -34.205929 35.979584 9.463788
v -34.370548 36.102730 9.418726
v -34.391739 36.058994 9.434661
v -34.184734 36.023304 9.447846
v -33.936340 36.092094 9.422961
v -34.201603 36.364670 9.323318
v -34.259678 36.273193 9.356638
v -33.878269 36.183578 9.389641
v -33.933746 36.418339 9.303966
v -34.043591 36.586960 9.242371
v -34.079422 36.552681 9.254845
v -33.897919 36.452629 9.291498
v -33.639484 36.437458 9.297242
v -33.789486 36.778866 9.172580
v -33.877357 36.711548 9.197055
v -33.551613 36.504776 9.272759
v -33.518276 36.743233 9.185815
v -33.560093 36.936996 9.115093
v -33.606239 36.916290 9.122606
v -33.472126 36.763939 9.178288
v -33.234821 36.666649 9.213969
v -33.251472 37.035686 9.079349
v -33.358540 37.000660 9.092027
v -33.127750 36.701672 9.201283
v -33.009617 36.915062 9.123550
v -32.978363 37.110588 9.052251
v -33.029263 37.105957 9.053907
v -32.958717 36.919693 9.121902
v -32.771168 36.752007 9.183214
v -32.652454 37.104187 9.054858
v -32.765812 37.105663 9.054217
v -32.657810 36.750526 9.183848
v -32.469131 36.913090 9.124713
v -32.368572 37.086823 9.061419
v -32.418087 37.098820 9.057001
v -32.419613 36.901096 9.129132
v -32.304440 36.683250 9.208676
v -32.064686 36.976074 9.102062
v -32.170654 37.013897 9.088179
v -32.198471 36.645428 9.222560
v -31.962002 36.737595 9.189134
v -31.804272 36.868549 9.141500
v -31.846426 36.895725 9.131549
v -31.919847 36.710403 9.199085
v -31.890936 36.468670 9.287277
v -31.559059 36.666824 9.215266
v -31.644855 36.736408 9.189817
v -31.805140 36.399075 9.312739
v -31.549398 36.409718 9.309074
v -31.353521 36.482094 9.282816
v -31.383232 36.521194 9.268538
v -31.519686 36.370617 9.323353
v -31.580530 36.134148 9.409551
v -31.196560 36.213730 9.380832
v -31.251841 36.306698 9.346863
v -31.525253 36.041180 9.443505
v -31.281090 35.968990 9.470038
v -31.070688 35.974087 9.468340
v -31.084372 36.020374 9.451441
v -31.267405 35.922710 9.486932
v -31.410662 35.720024 9.560733
v -31.020908 35.671440 9.578767
v -31.039003 35.776573 9.540401
v -31.392567 35.614891 9.599092
v -31.189430 35.468601 9.652624
v -30.989885 35.405781 9.675691
v -30.985897 35.453674 9.658234
v -31.193426 35.420704 9.670088
v -31.401821 35.276260 9.722599
v -31.053295 35.105358 9.785208
v -31.032022 35.209988 9.747067
v -31.423094 35.171635 9.760754
v -31.285488 34.968887 9.834808
v -31.120867 34.845730 9.879855
v -31.099674 34.889462 9.863929
v -31.306677 34.925156 9.850750
v -31.555071 34.856365 9.875628
v -31.289808 34.583778 9.975265
v -31.231733 34.675266 9.941936
v -31.613146 34.764881 9.908955
v -33.403164 32.851173 10.445866
v -33.717823 32.986004 10.549724
v -33.716824 32.897320 10.582079
v -33.404171 32.939873 10.413510
v -32.798340 33.509602 10.206203
v -32.707371 33.854477 10.233787
v -32.801785 33.853512 10.234068
v -32.703930 33.510563 10.205928
v -32.097656 32.941578 10.413961
v -31.783218 32.905437 10.580705
v -31.784222 32.994137 10.548343
v -32.096653 32.852879 10.446317
v -33.245872 33.298023 10.283006
v -33.403996 33.616795 10.319913
v -33.470051 33.553394 10.342979
v -33.179821 33.361431 10.259925
v -32.322735 33.361958 10.260447
v -32.036022 33.559830 10.341817
v -32.103489 33.621861 10.319131
v -32.255264 33.299927 10.283126
v -32.544895 33.480217 10.217133
v -32.340485 33.769894 10.264943
v -32.428093 33.802933 10.252821
v -32.457283 33.447178 10.229255
v -32.165688 33.172813 10.329568
v -31.840334 33.256275 10.452687
v -31.877394 33.337849 10.422905
v -32.128628 33.091236 10.359351
v -33.044491 33.445625 10.229332
v -33.080826 33.800720 10.253089
v -33.167667 33.765877 10.265725
v -32.957649 33.480453 10.216703
v -33.371822 33.089287 10.359040
v -33.627678 33.330711 10.424075
v -33.662884 33.248398 10.454069
v -33.336617 33.171608 10.329046
v -25.328022 35.454548 9.655690
v -25.702858 35.565968 9.614723
v -25.704470 35.459503 9.653646
v -25.326410 35.561005 9.616774
v -22.604280 35.782932 9.486177
v -22.604460 35.468811 9.600917
v -22.831816 35.782845 9.485951
v -23.061037 35.468811 9.600917
v -22.831966 35.468712 9.600663
v -23.060911 35.782986 9.486333
v -23.251266 36.472511 9.235013
v -23.460371 36.158306 9.349520
v -23.460342 36.472454 9.234872
v -23.023849 36.472569 9.235154
v -23.251358 36.158379 9.349704
v -23.024031 36.158447 9.349894
v -23.740999 36.771999 9.125446
v -23.741180 36.457886 9.240179
v -24.454142 36.530293 9.212934
v -24.452143 36.216137 9.327525
v -25.130690 35.799374 9.478756
v -25.362820 35.485119 9.593122
v -25.130785 35.485203 9.593349
v -25.362684 35.799335 9.478651
v -24.492580 33.117664 10.390177
v -24.628540 32.859814 10.483993
v -24.492689 32.859848 10.484097
v -24.628374 33.117638 10.390092
v -23.385805 33.117981 10.391044
v -23.505957 32.860123 10.484866
v -23.385904 32.860165 10.484979
v -23.505846 33.117947 10.390944
v -23.885387 33.586124 10.220192
v -24.041298 33.328274 10.314021
v -23.885418 33.328327 10.314156
v -24.041231 33.586082 10.220078
v -23.240988 33.118019 10.391156
v -23.241064 32.860207 10.485106
v -24.678289 36.529243 9.213279
v -24.861322 36.215336 9.327525
v -24.677259 36.215069 9.327849
v -24.861280 36.529526 9.212969
v -23.962080 36.771957 9.125312
v -24.130890 36.457752 9.239812
v -23.962141 36.457817 9.239982
v -24.130875 36.771931 9.125220
v -32.019260 35.468925 9.601234
v -31.833097 35.468811 9.600917
v -32.019058 35.783157 9.486797
v -31.383635 35.782932 9.486192
v -31.611324 35.468727 9.600684
v -31.383818 35.468811 9.600931
v -31.611172 35.782845 9.485973
v -31.832973 35.782986 9.486333
v -32.011883 36.483181 9.231115
v -32.220985 36.168991 9.345623
v -32.011971 36.169048 9.345792
v -32.220959 36.483139 9.230975
v -31.784466 36.483246 9.231250
v -31.784649 36.169125 9.345983
v -32.717663 36.771957 9.125312
v -32.932987 36.457741 9.239777
v -32.932987 36.771915 9.125185
v -32.496582 36.771999 9.125446
v -32.717724 36.457817 9.239967
v -32.496761 36.457886 9.240179
v -33.454544 36.540760 9.209071
v -33.674103 36.226837 9.323261
v -33.453514 36.226582 9.323635
v -33.674065 36.541027 9.208726
v -33.230396 36.541801 9.208733
v -33.228394 36.227638 9.323324
v -33.879040 35.799381 9.478756
v -34.108437 35.485119 9.593122
v -33.879139 35.485210 9.593362
v -34.108303 35.799335 9.478658
v -33.656593 35.799408 9.478841
v -33.656773 35.485287 9.593574
v -33.741402 35.096657 9.734826
v -33.966625 34.782475 9.849368
v -33.741581 34.782536 9.849551
v -33.966503 35.096607 9.734664
v -32.048813 35.007908 9.769091
v -32.208099 34.705769 9.878940
v -32.048943 34.705841 9.879123
v -32.207909 35.007843 9.768935
v -31.843901 35.007851 9.768950
v -31.843996 34.705841 9.879129
v -31.646755 35.007782 9.768760
v -31.646927 34.705826 9.879073
v -33.033398 35.129208 9.724304
v -32.438244 34.894501 9.810114
v -32.437752 35.129307 9.724586
v -33.034122 34.894402 9.809825
v -33.605186 34.668770 9.891688
v -33.364891 34.492851 9.955891
v -33.364445 34.668812 9.891801
v -33.605724 34.492809 9.955778
v -33.311142 33.117653 10.390134
v -33.447102 32.859791 10.483943
v -33.311253 32.859829 10.484056
v -33.446941 33.117622 10.390050
v -32.678017 33.601185 10.214652
v -32.832203 33.343334 10.308454
v -32.832138 33.601135 10.214511
v -32.953979 33.343288 10.308334
v -32.953869 33.601116 10.214419
v -32.037308 33.117996 10.391092
v -32.159149 32.860153 10.484951
v -32.037373 32.860195 10.485043
v -32.159039 33.117970 10.391022
v -32.523899 33.601219 10.214766
v -32.678062 33.343380 10.308609
v -32.523926 33.343426 10.308743
v -24.608158 32.853104 10.451151
v -24.922791 32.976898 10.524748
v -24.921787 32.888199 10.557096
v -24.609159 32.941803 10.418797
v -23.302643 32.943501 10.419240
v -22.988184 32.896332 10.555721
v -22.989187 32.985031 10.523359
v -23.301640 32.854809 10.451595
v -24.598320 33.013355 10.392714
v -24.878660 33.210735 10.439502
v -24.902128 33.124813 10.470814
v -24.574854 33.099285 10.361395
v -24.544668 33.165771 10.337158
v -24.771620 33.425880 10.361119
v -24.817957 33.348583 10.389267
v -24.498331 33.243069 10.309004
v -24.323288 33.406765 10.249438
v -24.401770 33.743763 10.245471
v -24.483030 33.698574 10.261885
v -24.242025 33.451954 10.233018
v -24.170645 33.478931 10.223243
v -24.164162 33.824821 10.216090
v -24.255098 33.800938 10.224730
v -24.079708 33.502823 10.214596
v -23.832752 33.502331 10.214976
v -23.663446 33.803974 10.224110
v -23.754906 33.825993 10.215991
v -23.741295 33.480312 10.223088
v -23.670532 33.451969 10.233483
v -23.434465 33.703472 10.260947
v -23.516731 33.746983 10.245020
v -23.588266 33.408459 10.249425
v -23.414062 33.244053 10.309518
v -23.096203 33.356102 10.387928
v -23.144276 33.432434 10.360042
v -23.365990 33.167732 10.337405
v -23.337288 33.100681 10.361881
v -23.009974 33.132904 10.469404
v -23.035379 33.218330 10.438219
v -23.311884 33.015251 10.393065
v -24.450861 33.299953 10.288284
v -24.608963 33.607689 10.294930
v -24.675013 33.544285 10.317996
v -24.384811 33.363361 10.265224
v -23.527725 33.363884 10.265733
v -23.240990 33.550716 10.316833
v -23.308460 33.612751 10.294147
v -23.460257 33.301846 10.288418
v -22.589006 35.500412 9.636725
v -22.214172 35.388584 9.676564
v -22.212561 35.495113 9.637803
v -22.590620 35.393898 9.675487
v -23.983309 36.764091 9.176956
v -23.864603 37.115986 9.047868
v -23.977957 37.117573 9.047473
v -23.869955 36.762512 9.177343
v -25.434570 35.696247 9.567407
v -25.663542 35.799965 9.529350
v -25.675446 35.735340 9.552995
v -25.422667 35.760872 9.543777
v -25.380022 35.910477 9.489236
v -25.588892 36.046570 9.439389
v -25.611412 35.984489 9.462111
v -25.357498 35.972549 9.466529
v -25.290464 36.114037 9.414927
v -25.474096 36.279121 9.354397
v -25.506683 36.221127 9.375638
v -25.257879 36.172035 9.393686
v -25.168125 36.301922 9.346278
v -25.321981 36.491962 9.276677
v -25.363832 36.439465 9.295918
v -25.126280 36.354416 9.327045
v -24.944431 36.371040 9.321091
v -25.125542 36.698742 9.201086
v -25.206837 36.624565 9.228296
v -24.863138 36.445217 9.293887
v -24.837828 36.612644 9.232652
v -24.921610 36.838043 9.150126
v -24.978689 36.800274 9.164010
v -24.780750 36.650417 9.218782
v -24.638002 36.727863 9.190495
v -24.683207 36.962776 9.104430
v -24.745876 36.933853 9.115087
v -24.575335 36.756779 9.179846
v -24.421452 36.812267 9.159534
v -24.426962 37.050922 9.072083
v -24.493681 37.031578 9.079250
v -24.354736 36.831623 9.152389
v -24.193501 36.863815 9.140563
v -24.159178 37.100327 9.053851
v -24.228306 37.091022 9.057361
v -24.124378 36.873116 9.137060
v -23.725994 36.864052 9.140098
v -23.615511 37.079002 9.061188
v -23.684326 37.090221 9.057199
v -23.657183 36.852840 9.144087
v -23.497952 36.812748 9.158605
v -23.353008 37.008793 9.086573
v -23.419113 37.029995 9.078954
v -23.431849 36.791557 9.166229
v -23.281246 36.728573 9.189141
v -23.105417 36.900890 9.125721
v -23.167185 36.931541 9.114650
v -23.219481 36.697918 9.200212
v -23.081217 36.613571 9.230926
v -22.878828 36.757935 9.177689
v -22.934738 36.797272 9.163446
v -23.025312 36.574219 9.245175
v -23.007652 36.403461 9.307679
v -22.658669 36.573311 9.244816
v -22.737680 36.649742 9.217098
v -22.928642 36.327045 9.335404
v -22.750368 36.303181 9.343854
v -22.510338 36.381699 9.314607
v -22.550579 36.435349 9.295128
v -22.710129 36.249531 9.363340
v -22.627684 36.115417 9.412229
v -22.377504 36.157688 9.396195
v -22.408323 36.216591 9.374800
v -22.596869 36.056526 9.433645
v -22.537777 35.911957 9.486367
v -22.283606 35.916931 9.483930
v -22.304241 35.979641 9.461131
v -22.517143 35.849255 9.509173
v -22.482855 35.697784 9.564446
v -22.230947 35.665352 9.575673
v -22.240891 35.730316 9.552043
v -22.472910 35.632835 9.588083
v -22.482458 35.258587 9.724614
v -22.253487 35.154602 9.761980
v -22.241581 35.219269 9.738441
v -22.494368 35.193916 9.748167
v -22.536997 35.044357 9.802820
v -22.328135 34.908009 9.851983
v -22.305611 34.970127 9.829368
v -22.559521 34.982239 9.825442
v -22.626591 34.840820 9.877129
v -22.442924 34.675430 9.936898
v -22.410336 34.733467 9.915763
v -22.659178 34.782784 9.898264
v -22.748901 34.652897 9.945728
v -22.595043 34.462616 10.014688
v -22.553196 34.515148 9.995540
v -22.790749 34.600368 9.964876
v -25.166662 34.651646 9.948174
v -25.406696 34.572876 9.976695
v -25.366451 34.519257 9.996286
v -25.206902 34.705261 9.928603
v -25.289343 34.839417 9.879834
v -25.539528 34.796894 9.895148
v -25.508709 34.738026 9.916657
v -25.320160 34.898293 9.858339
v -25.379250 35.042877 9.805674
v -25.633425 35.037632 9.807386
v -25.612789 34.974968 9.830297
v -25.399883 35.105541 9.782777
v -25.434177 35.257057 9.727631
v -25.686087 35.289223 9.715657
v -25.676142 35.224293 9.739386
v -25.444122 35.321983 9.703901
v -33.392578 33.021427 10.383932
v -33.669811 33.234547 10.459453
v -33.694939 33.149014 10.490553
v -33.367447 33.106968 10.352846
v -33.402996 32.967598 10.403637
v -33.694363 33.157341 10.487783
v -33.711468 33.070053 10.519455
v -33.385891 33.054886 10.371973
v -33.408379 32.913105 10.423532
v -33.711658 33.078396 10.516685
v -33.720600 32.990013 10.548688
v -33.399429 33.001488 10.391537
v -24.000435 33.492443 10.213299
v -23.912607 33.827076 10.206830
v -24.006994 33.825245 10.208296
v -23.906046 33.494282 10.211820
v -23.746576 33.326279 10.315008
v -24.180151 33.103882 10.395695
v -23.746660 33.103992 10.396040
v -24.179966 33.326172 10.314691
vt 0.968629 0.023937
vt 0.998653 0.043054
vt 0.998653 0.023937
vt 0.968629 0.043054
vt 0.981787 0.001567
vt 0.998799 0.010190
vt 0.998799 0.001567
vt 0.981787 0.010190
vt 0.981787 0.001567
vt 0.998799 0.010190
vt 0.998799 0.001567
vt 0.981787 0.010190
vt 0.968629 0.023937
vt 0.998653 0.043054
vt 0.998653 0.023937
vt 0.968629 0.043054
vt 0.968629 0.023937
vt 0.998653 0.043054
vt 0.998653 0.023937
vt 0.968629 0.043054
vt 0.981787 0.001567
vt 0.998799 0.010190
vt 0.998799 0.001567
vt 0.981787 0.010190
vt 0.968629 0.023937
vt 0.998653 0.043054
vt 0.998653 0.023937
vt 0.968629 0.043054
vt 0.981787 0.001567
vt 0.998799 0.010190
vt 0.998799 0.001567
vt 0.981787 0.010190
vt 0.968629 0.023937
vt 0.998653 0.043054
vt 0.998653 0.023937
vt 0.968629 0.043054
vt 0.981787 0.001567
vt 0.998799 0.010190
vt 0.998799 0.001567
vt 0.981787 0.010190
vt 0.968629 0.023937
vt 0.998653 0.043054
vt 0.998653 0.023937
vt 0.968629 0.043054
vt 0.981787 0.001567
vt 0.998799 0.010190
vt 0.998799 0.001567
vt 0.981787 0.010190
vt 0.968629 0.023937
vt 0.998653 0.043054
vt 0.998653 0.023937
vt 0.968629 0.043054
vt 0.981787 0.001567
vt 0.998799 0.010190
vt 0.998799 0.001567
vt 0.981787 0.010190
vt 0.968629 0.023937
vt 0.998653 0.043054
vt 0.998653 0.023937
vt 0.968629 0.043054
vt 0.981787 0.001567
vt 0.998799 0.010190
vt 0.998799 0.001567
vt 0.981787 0.010190
vt 0.968629 0.023937
vt 0.998653 0.043054
vt 0.998653 0.023937
vt 0.968629 0.043054
vt 0.981787 0.001567
vt 0.998799 0.010190
vt 0.998799 0.001567
vt 0.981787 0.010190
vt 0.968629 0.023937
vt 0.998653 0.043054
vt 0.998653 0.023937
vt 0.968629 0.043054
vt 0.981787 0.001567
vt 0.998799 0.010190
vt 0.998799 0.001567
vt 0.981787 0.010190
vt 0.968629 0.023937
vt 0.998653 0.043054
vt 0.998653 0.023937
vt 0.968629 0.043054
vt 0.981787 0.001567
vt 0.998799 0.010190
vt 0.998799 0.001567
vt 0.981787 0.010190
vt 0.968629 0.023937
vt 0.998653 0.043054
vt 0.998653 0.023937
vt 0.968629 0.043054
vt 0.981787 0.001567
vt 0.998799 0.010190
vt 0.998799 0.001567
vt 0.981787 0.010190
vt 0.968629 0.023937
vt 0.998653 0.043054
vt 0.998653 0.023937
vt 0.968629 0.043054
vt 0.969023 0.024713
vt 0.998030 0.041531
vt 0.998030 0.024713
vt 0.969023 0.041531
vt 0.969023 0.024713
vt 0.998030 0.041531
vt 0.998030 0.024713
vt 0.969023 0.041531
vt 0.969023 0.024713
vt 0.998030 0.041531
vt 0.998030 0.024713
vt 0.969023 0.041531
vt 0.975889 0.001249
vt 0.999040 0.010427
vt 0.999040 0.001249
vt 0.975889 0.010427
vt 0.975889 0.001249
vt 0.999040 0.010427
vt 0.999040 0.001249
vt 0.975889 0.010427
vt 0.975889 0.001249
vt 0.999040 0.010427
vt 0.999040 0.001249
vt 0.975889 0.010427
vt 0.975889 0.001249
vt 0.999040 0.010427
vt 0.999040 0.001249
vt 0.975889 0.010427
vt 0.975889 0.001249
vt 0.999040 0.010427
vt 0.999040 0.001249
vt 0.975889 0.010427
vt 0.975889 0.001249
vt 0.999040 0.010427
vt 0.999040 0.001249
vt 0.975889 0.010427
vt 0.968629 0.023937
vt 0.998653 0.043054
vt 0.998653 0.023937
vt 0.968629 0.043054
vt 0.902329 0.081089
vt 0.886510 0.035115
vt 0.902315 0.035115
vt 0.886519 0.081090
vt 0.851462 0.081089
vt 0.836122 0.035115
vt 0.851448 0.035115
vt 0.836131 0.081090
vt 0.851088 0.081090
vt 0.837381 0.035116
vt 0.851083 0.035116
vt 0.837383 0.081090
vt 0.818139 0.081089
vt 0.803278 0.035115
vt 0.818126 0.035115
vt 0.803286 0.081090
vt 0.902015 0.081089
vt 0.886196 0.035115
vt 0.902001 0.035115
vt 0.886205 0.081090
vt 0.818139 0.081089
vt 0.803278 0.035115
vt 0.818126 0.035115
vt 0.803286 0.081090
vt 0.902266 0.081092
vt 0.885823 0.035118
vt 0.902260 0.035117
vt 0.885834 0.081092
vt 0.879920 0.031701
vt 0.871905 0.000408
vt 0.879913 0.000408
vt 0.871915 0.031702
vt 0.888538 0.031701
vt 0.881356 0.000408
vt 0.888534 0.000408
vt 0.881362 0.031701
vt 0.939205 0.031701
vt 0.930014 0.000408
vt 0.939203 0.000408
vt 0.930018 0.031701
vt 0.908664 0.031701
vt 0.898641 0.000408
vt 0.908660 0.000408
vt 0.898648 0.031701
vt 0.831746 0.081091
vt 0.820303 0.035117
vt 0.831746 0.035117
vt 0.820306 0.081092
vt 0.831442 0.081091
vt 0.820703 0.035116
vt 0.831441 0.035116
vt 0.820704 0.081091
vt 0.832821 0.081092
vt 0.821430 0.035118
vt 0.832812 0.035118
vt 0.821444 0.081093
vt 0.817948 0.081089
vt 0.803088 0.035115
vt 0.817935 0.035115
vt 0.803096 0.081090
vt 0.817948 0.081089
vt 0.803088 0.035115
vt 0.817935 0.035115
vt 0.803096 0.081090
vt 0.952787 0.081090
vt 0.936422 0.035116
vt 0.952782 0.035116
vt 0.936425 0.081090
vt 0.818139 0.081089
vt 0.803278 0.035115
vt 0.818126 0.035115
vt 0.803286 0.081090
vt 0.918043 0.081091
vt 0.902944 0.035116
vt 0.918043 0.035116
vt 0.902945 0.081091
vt 0.818139 0.081089
vt 0.803278 0.035115
vt 0.818126 0.035115
vt 0.803286 0.081090
vt 0.885332 0.081091
vt 0.869943 0.035117
vt 0.885332 0.035117
vt 0.869945 0.081092
vt 0.818139 0.081089
vt 0.803278 0.035115
vt 0.818126 0.035115
vt 0.803286 0.081090
vt 0.852430 0.081092
vt 0.836485 0.035118
vt 0.852425 0.035117
vt 0.836496 0.081092
vt 0.818139 0.081089
vt 0.803278 0.035115
vt 0.818126 0.035115
vt 0.803286 0.081090
vt 0.817934 0.081089
vt 0.803074 0.035115
vt 0.817921 0.035115
vt 0.803082 0.081090
vt 0.831894 0.081092
vt 0.820504 0.035118
vt 0.831885 0.035118
vt 0.820517 0.081093
vt 0.852997 0.081092
vt 0.837052 0.035118
vt 0.852991 0.035117
vt 0.837062 0.081092
vt 0.818353 0.081089
vt 0.803493 0.035115
vt 0.818340 0.035115
vt 0.803501 0.081090
vt 0.832001 0.033670
vt 0.870551 0.001321
vt 0.870553 0.033670
vt 0.831985 0.001321
vt 0.832001 0.033670
vt 0.852786 0.001321
vt 0.852794 0.033670
vt 0.831985 0.001321
vt 0.879920 0.031701
vt 0.871905 0.000408
vt 0.879913 0.000408
vt 0.871915 0.031702
vt 0.860427 0.033695
vt 0.852747 0.001347
vt 0.860425 0.001347
vt 0.852751 0.033696
vt 0.888538 0.031701
vt 0.881356 0.000408
vt 0.888534 0.000408
vt 0.881362 0.031701
vt 0.888538 0.031701
vt 0.881356 0.000408
vt 0.888534 0.000408
vt 0.881362 0.031701
vt 0.897957 0.031701
vt 0.888766 0.000408
vt 0.897955 0.000408
vt 0.888770 0.031701
vt 0.968491 0.024713
vt 0.997286 0.041531
vt 0.997286 0.024713
vt 0.968491 0.041531
vt 0.968491 0.024713
vt 0.997286 0.041531
vt 0.997286 0.024713
vt 0.968491 0.041531
vt 0.974293 0.001249
vt 0.998401 0.010427
vt 0.998401 0.001249
vt 0.974293 0.010427
vt 0.974293 0.001249
vt 0.998401 0.010427
vt 0.998401 0.001249
vt 0.974293 0.010427
vt 0.974293 0.001249
vt 0.998401 0.010427
vt 0.998401 0.001249
vt 0.974293 0.010427
vt 0.974293 0.001249
vt 0.998401 0.010427
vt 0.998401 0.001249
vt 0.974293 0.010427
vt 0.974954 0.106851
vt 0.998791 0.116029
vt 0.998791 0.106851
vt 0.974954 0.116029
vt 0.974293 0.001249
vt 0.998401 0.010427
vt 0.998401 0.001249
vt 0.974293 0.010427
vt 0.974293 0.001249
vt 0.998401 0.010427
vt 0.998401 0.001249
vt 0.974293 0.010427
vt 0.974293 0.001249
vt 0.998401 0.010427
vt 0.998401 0.001249
vt 0.974293 0.010427
vt 0.968491 0.024713
vt 0.997286 0.041531
vt 0.997286 0.024713
vt 0.968491 0.041531
vt 0.968491 0.024713
vt 0.997286 0.041531
vt 0.997286 0.024713
vt 0.968491 0.041531
vt 0.968629 0.117644
vt 0.999769 0.136760
vt 0.999769 0.117644
vt 0.968629 0.136760
vt 0.968629 0.055121
vt 0.999786 0.074238
vt 0.999786 0.055121
vt 0.968629 0.074238
vt 0.979730 0.001371
vt 0.999528 0.010372
vt 0.999528 0.001371
vt 0.979730 0.010372
vt 0.980391 0.043884
vt 0.999819 0.053745
vt 0.999819 0.043884
vt 0.980391 0.053745
vt 0.980391 0.043884
vt 0.999819 0.053745
vt 0.999819 0.043884
vt 0.980391 0.053745
vt 0.980391 0.043884
vt 0.999819 0.053745
vt 0.999819 0.043884
vt 0.980391 0.053745
vt 0.968629 0.055121
vt 0.999786 0.074238
vt 0.999786 0.055121
vt 0.968629 0.074238
vt 0.980391 0.043884
vt 0.999819 0.053745
vt 0.999819 0.043884
vt 0.980391 0.053745
vt 0.980391 0.043884
vt 0.999819 0.053745
vt 0.999819 0.043884
vt 0.980391 0.053745
vt 0.980391 0.043884
vt 0.999819 0.053745
vt 0.999819 0.043884
vt 0.980391 0.053745
vt 0.980391 0.043884
vt 0.999819 0.053745
vt 0.999819 0.043884
vt 0.980391 0.053745
vt 0.980391 0.075621
vt 0.999859 0.084622
vt 0.999859 0.075621
vt 0.980391 0.084622
vt 0.980391 0.075621
vt 0.999859 0.084622
vt 0.999859 0.075621
vt 0.980391 0.084622
vt 0.980391 0.075621
vt 0.999859 0.084622
vt 0.999859 0.075621
vt 0.980391 0.084622
vt 0.980391 0.075621
vt 0.999859 0.084622
vt 0.999859 0.075621
vt 0.980391 0.084622
vt 0.968629 0.085598
vt 0.999842 0.104715
vt 0.999842 0.085598
vt 0.968629 0.104715
vt 0.980391 0.075621
vt 0.999859 0.084622
vt 0.999859 0.075621
vt 0.980391 0.084622
vt 0.980391 0.075621
vt 0.999859 0.084622
vt 0.999859 0.075621
vt 0.980391 0.084622
vt 0.980391 0.075621
vt 0.999859 0.084622
vt 0.999859 0.075621
vt 0.980391 0.084622
vt 0.980391 0.075621
vt 0.999859 0.084622
vt 0.999859 0.075621
vt 0.980391 0.084622
vt 0.980391 0.106973
vt 0.999918 0.115974
vt 0.999918 0.106973
vt 0.980391 0.115974
vt 0.980391 0.106973
vt 0.999918 0.115974
vt 0.999918 0.106973
vt 0.980391 0.115974
vt 0.980391 0.106973
vt 0.999918 0.115974
vt 0.999918 0.106973
vt 0.980391 0.115974
vt 0.980391 0.106973
vt 0.999918 0.115974
vt 0.999918 0.106973
vt 0.980391 0.115974
vt 0.979730 0.001371
vt 0.999528 0.010372
vt 0.999528 0.001371
vt 0.979730 0.010372
vt 0.979730 0.001371
vt 0.999528 0.010372
vt 0.999528 0.001371
vt 0.979730 0.010372
vt 0.979730 0.001371
vt 0.999528 0.010372
vt 0.999528 0.001371
vt 0.979730 0.010372
vt 0.979730 0.001371
vt 0.999528 0.010372
vt 0.999528 0.001371
vt 0.979730 0.010372
vt 0.976549 0.106851
vt 0.999429 0.116029
vt 0.999429 0.106851
vt 0.976549 0.116029
vt 0.976549 0.106851
vt 0.999429 0.116029
vt 0.999429 0.106851
vt 0.976549 0.116029
vt 0.976549 0.106851
vt 0.999429 0.116029
vt 0.999429 0.106851
vt 0.976549 0.116029
vt 0.968491 0.024713
vt 0.997286 0.041531
vt 0.997286 0.024713
vt 0.968491 0.041531
vt 0.827916 0.031701
vt 0.804239 0.000357
vt 0.827912 0.000357
vt 0.804248 0.031701
vn -0.0008 0.3427 0.9395
vn -0.0008 0.3426 0.9395
vn -0.0008 0.3427 0.9394
vn -0.0008 0.3428 0.9394
vn -0.0007 0.3428 0.9394
vn -0.0009 0.3426 0.9395
vn -0.0006 0.3427 0.9394
vn -0.0009 0.3427 0.9395
vn -0.0007 0.3427 0.9395
vn -0.0006 0.3427 0.9395
vn -0.0006 0.3425 0.9395
vn -0.0006 0.3426 0.9395
vn -0.0007 0.3427 0.9394
vn -0.0008 0.3425 0.9395
vn -0.0007 0.3426 0.9395
vn -0.0006 0.3428 0.9394
vn 0.4167 0.3157 0.8525
vn 0.0037 -0.0807 0.9967
vn 0.0038 -0.0807 0.9967
vn -0.4181 0.3071 0.8549
vn -0.4181 0.3072 0.8549
vn 0.2976 0.0372 0.9540
vn 0.2975 0.0371 0.9540
vn -0.2927 0.0311 0.9557
vn -0.1563 -0.0525 0.9863
vn -0.3846 0.1574 0.9096
vn -0.3845 0.1574 0.9096
vn 0.1631 -0.0492 0.9854
vn 0.3866 0.1653 0.9073
vn -0.0006 0.3434 0.9392
vn -0.0011 0.3430 0.9393
vn -0.0011 0.3431 0.9393
vn -0.0012 0.3431 0.9393
vn 0.0015 0.3428 0.9394
vn 0.0014 0.3429 0.9394
vn 0.0012 0.3430 0.9393
vn 0.0018 0.3426 0.9395
vn -0.0008 0.3429 0.9394
vn -0.0009 0.3429 0.9394
vn -0.0009 0.3430 0.9393
vn -0.0008 0.3430 0.9393
vn -0.0009 0.3431 0.9393
vn -0.0007 0.3430 0.9393
vn -0.0006 0.3429 0.9394
vn -0.0002 0.3426 0.9395
vn -0.0003 0.3427 0.9395
vn -0.0007 0.3424 0.9395
vn -0.0010 0.3427 0.9395
vn -0.0005 0.3423 0.9396
vn -0.0007 0.3422 0.9396
vn -0.0008 0.3423 0.9396
vn -0.0006 0.3422 0.9396
vn -0.0009 0.3423 0.9396
vn -0.0010 0.3423 0.9396
vn -0.0008 0.3424 0.9396
vn -0.0009 0.3424 0.9395
vn -0.0009 0.3425 0.9395
vn -0.0009 0.3424 0.9396
vn -0.0011 0.3426 0.9395
vn -0.0012 0.3426 0.9395
vn -0.0011 0.3425 0.9395
vn -0.0009 0.3428 0.9394
vn -0.0011 0.3429 0.9394
vn 0.0024 0.3423 0.9396
vn 0.0021 0.3425 0.9395
vn 0.0027 0.3422 0.9396
vn -0.0010 0.3430 0.9393
vn 0.0013 0.3429 0.9394
vn 0.0011 0.3430 0.9393
vn 0.0017 0.3426 0.9395
vn -0.0007 0.3429 0.9394
vn -0.0010 0.3429 0.9394
vn -0.0010 0.3431 0.9393
vn -0.0003 0.3426 0.9395
vn -0.0011 0.3427 0.9394
vn -0.0004 0.3427 0.9394
vn -0.0011 0.3422 0.9396
vn -0.0012 0.3422 0.9396
vn -0.0012 0.3423 0.9396
vn 0.0005 0.3424 0.9395
vn 0.0002 0.3426 0.9395
vn -0.0000 0.3427 0.9394
vn 0.0007 0.3422 0.9396
vn 0.0008 0.3429 0.9394
vn 0.0005 0.3430 0.9393
vn 0.0003 0.3431 0.9393
vn 0.0010 0.3427 0.9394
vn -0.0005 0.3422 0.9396
vn -0.0010 0.3424 0.9396
vn -0.0011 0.3424 0.9395
vn -0.0007 0.3424 0.9396
vn -0.0008 0.3424 0.9395
vn -0.0006 0.3423 0.9396
vn 0.3351 0.3262 0.8839
vn -0.3366 0.3194 0.8858
vn 0.3246 0.2444 0.9137
vn 0.3246 0.2444 0.9138
vn 0.3246 0.2443 0.9138
vn 0.2919 0.1680 0.9416
vn 0.2919 0.1679 0.9416
vn 0.1703 0.0513 0.9841
vn 0.1703 0.0512 0.9841
vn 0.0897 0.0189 0.9958
vn -0.0842 0.0171 0.9963
vn -0.0843 0.0171 0.9963
vn -0.0843 0.0172 0.9963
vn -0.1656 0.0478 0.9850
vn -0.1655 0.0478 0.9851
vn -0.1654 0.0477 0.9851
vn -0.2898 0.1621 0.9433
vn -0.3242 0.2378 0.9156
vn 0.2392 0.1020 0.9656
vn 0.2392 0.1021 0.9656
vn 0.2393 0.1021 0.9656
vn -0.2357 0.0973 0.9669
vn -0.2357 0.0973 0.9670
vn 0.0021 0.3419 0.9397
vn 0.0021 0.3420 0.9397
vn 0.0016 0.3439 0.9390
vn -0.0005 0.3435 0.9391
vn -0.0004 0.3436 0.9391
vn -0.0002 0.3437 0.9391
vn -0.0001 0.3437 0.9391
vn -0.0001 0.3438 0.9391
vn -0.0002 0.3436 0.9391
vn -0.0002 0.3440 0.9390
vn 0.0001 0.3440 0.9390
vn 0.0002 0.3440 0.9390
vn 0.0003 0.3440 0.9390
vn 0.0004 0.3440 0.9390
vn 0.0006 0.3440 0.9390
vn 0.0007 0.3440 0.9390
vn 0.0007 0.3441 0.9389
vn 0.0005 0.3440 0.9390
vn 0.0008 0.3441 0.9389
vn 0.0011 0.3441 0.9389
vn 0.0013 0.3440 0.9390
vn 0.0014 0.3441 0.9389
vn 0.0019 0.3437 0.9391
vn 0.0019 0.3436 0.9391
vn 0.0020 0.3436 0.9391
vn 0.0021 0.3435 0.9392
vn 0.0022 0.3432 0.9392
vn 0.0022 0.3431 0.9393
vn 0.0023 0.3430 0.9393
vn 0.0023 0.3429 0.9394
vn 0.0023 0.3428 0.9394
vn 0.0023 0.3425 0.9395
vn 0.0023 0.3424 0.9396
vn 0.0023 0.3423 0.9396
vn 0.0022 0.3423 0.9396
vn 0.0022 0.3422 0.9396
vn 0.0022 0.3421 0.9396
vn 0.0019 0.3419 0.9397
vn 0.0019 0.3418 0.9398
vn 0.0018 0.3416 0.9398
vn 0.0018 0.3416 0.9399
vn 0.0018 0.3415 0.9399
vn 0.0016 0.3414 0.9399
vn 0.0015 0.3414 0.9399
vn 0.0013 0.3416 0.9398
vn 0.0012 0.3416 0.9398
vn 0.0012 0.3416 0.9399
vn -0.0008 0.3431 0.9393
vn -0.0008 0.3432 0.9393
vn 0.4016 0.2063 0.8923
vn 0.4017 0.2064 0.8922
vn 0.4099 0.2390 0.8803
vn 0.4099 0.2391 0.8803
vn 0.4151 0.2722 0.8681
vn 0.4151 0.2723 0.8681
vn 0.4150 0.2722 0.8681
vn 0.0153 0.0153 0.9998
vn 0.0152 0.0153 0.9998
vn 0.0154 0.0153 0.9998
s 1
f 1/1/1 2/2/1 3/3/2
f 1/1/1 4/4/1 2/2/1
f 5/5/3 6/6/3 7/7/3
f 5/5/3 8/8/3 6/6/3
f 9/9/4 10/10/4 11/11/4
f 9/9/4 12/12/4 10/10/4
f 13/13/2 14/14/2 15/15/2
f 13/13/2 16/16/2 14/14/2
f 17/17/2 18/18/1 19/19/1
f 17/17/2 20/20/2 18/18/1
f 21/21/5 22/22/3 23/23/1
f 21/21/5 24/24/5 22/22/3
f 25/25/1 26/26/1 27/27/1
f 25/25/1 28/28/1 26/26/1
f 29/29/6 30/30/1 31/31/3
f 29/29/6 32/32/6 30/30/1
f 33/33/1 34/34/1 35/35/1
f 33/33/1 36/36/1 34/34/1
f 37/37/7 38/38/3 39/39/3
f 37/37/7 40/40/7 38/38/3
f 41/41/1 42/42/1 43/43/8
f 41/41/1 44/44/1 42/42/1
f 45/45/9 46/46/10 47/47/10
f 45/45/9 48/48/1 46/46/10
f 49/49/1 50/50/1 51/51/1
f 49/49/1 52/52/1 50/50/1
f 53/53/4 54/54/3 55/55/3
f 53/53/4 56/56/4 54/54/3
f 57/57/3 58/58/3 59/59/3
f 57/57/3 60/60/3 58/58/3
f 61/61/2 62/62/1 63/63/3
f 61/61/2 64/64/2 62/62/1
f 65/65/3 66/66/1 67/67/1
f 65/65/3 68/68/3 66/66/1
f 69/69/11 70/70/12 71/71/12
f 69/69/11 72/72/11 70/70/12
f 73/73/3 74/74/4 75/75/4
f 73/73/3 76/76/1 74/74/4
f 77/77/13 78/78/5 79/79/5
f 77/77/13 80/80/13 78/78/5
f 81/81/2 82/82/3 83/83/13
f 81/81/2 84/84/2 82/82/3
f 85/85/2 86/86/14 87/87/14
f 85/85/2 88/88/2 86/86/14
f 89/89/13 90/90/15 91/91/2
f 89/89/13 92/92/13 90/90/15
f 93/93/13 94/94/2 95/95/2
f 93/93/13 96/96/16 94/94/2
f 97/97/13 98/98/13 99/99/13
f 97/97/13 100/100/13 98/98/13
f 101/101/17 102/102/17 103/103/17
f 101/101/17 104/104/17 102/102/17
f 105/105/18 106/106/19 107/107/19
f 105/105/18 108/108/18 106/106/19
f 109/109/20 110/110/21 111/111/21
f 109/109/20 112/112/20 110/110/21
f 113/113/22 114/114/23 115/115/23
f 113/113/22 116/116/22 114/114/23
f 117/117/24 118/118/24 119/119/24
f 117/117/24 120/120/24 118/118/24
f 121/121/25 122/122/25 123/123/25
f 121/121/25 124/124/25 122/122/25
f 125/125/26 126/126/26 127/127/26
f 125/125/26 128/128/27 126/126/26
f 129/129/28 130/130/28 131/131/28
f 129/129/28 132/132/28 130/130/28
f 133/133/29 134/134/29 135/135/29
f 133/133/29 136/136/29 134/134/29
f 137/137/30 138/138/30 139/139/30
f 137/137/30 140/140/30 138/138/30
f 141/141/31 145/142/32 142/143/33
f 141/141/31 143/144/31 145/142/32
f 143/145/34 144/146/35 145/147/36
f 143/145/34 146/148/37 144/146/35
f 147/149/38 148/150/39 151/151/40
f 147/149/38 149/152/5 148/150/39
f 150/153/41 151/154/41 152/155/42
f 150/153/41 147/156/43 151/154/41
f 153/157/41 181/158/41 154/159/42
f 153/157/41 179/160/44 181/158/41
f 155/161/45 177/162/45 156/163/46
f 155/161/45 175/164/45 177/162/45
f 157/165/47 158/166/14 159/167/48
f 157/165/47 160/168/49 158/166/14
f 161/169/50 162/170/51 163/171/51
f 161/169/50 164/172/52 162/170/51
f 165/173/53 166/174/54 167/175/54
f 165/173/53 168/176/53 166/174/54
f 169/177/55 170/178/56 171/179/57
f 169/177/55 172/180/51 170/178/56
f 173/181/53 167/182/58 174/183/58
f 173/181/53 165/184/51 167/182/58
f 175/185/59 176/186/59 177/187/60
f 175/185/59 178/188/61 176/186/59
f 179/189/13 180/190/62 181/191/63
f 179/189/13 182/192/12 180/190/62
f 190/193/64 183/194/65 184/195/37
f 190/193/64 185/196/66 183/194/65
f 186/197/32 187/198/32 188/199/32
f 186/197/32 189/200/67 187/198/32
f 189/201/34 184/202/68 187/203/69
f 189/201/34 190/204/70 184/202/68
f 191/205/71 192/206/38 193/207/39
f 191/205/71 194/208/5 192/206/38
f 195/209/43 193/210/41 196/211/42
f 195/209/43 191/212/44 193/210/41
f 197/213/13 198/214/4 201/215/72
f 197/213/13 199/216/10 198/214/4
f 200/217/38 201/218/40 202/219/73
f 200/217/38 197/220/44 201/218/40
f 203/221/61 204/222/61 205/223/60
f 203/221/61 206/224/61 204/222/61
f 207/225/45 205/226/74 208/227/46
f 207/225/45 203/228/45 205/226/74
f 209/229/47 210/230/57 211/231/75
f 209/229/47 212/232/49 210/230/57
f 213/233/16 211/234/38 214/235/73
f 213/233/16 209/236/76 211/234/38
f 215/237/41 216/238/41 217/239/40
f 215/237/41 218/240/41 216/238/41
f 219/241/77 220/242/78 221/243/79
f 219/241/77 222/244/77 220/242/78
f 223/245/80 221/246/81 224/247/82
f 223/245/80 219/248/83 221/246/81
f 225/249/84 224/250/85 226/251/86
f 225/249/84 223/252/87 224/250/85
f 227/253/88 228/254/88 229/255/49
f 227/253/88 230/256/88 228/254/88
f 231/257/88 232/258/88 233/259/88
f 231/257/88 234/260/88 232/258/88
f 235/261/50 236/262/51 237/263/53
f 235/261/50 238/264/50 236/262/51
f 239/265/89 240/266/89 249/267/90
f 239/265/89 241/268/89 240/266/89
f 241/269/51 242/270/54 240/271/89
f 241/269/51 243/272/51 242/270/54
f 244/273/91 245/274/55 246/275/92
f 244/273/91 247/276/93 245/274/55
f 248/277/92 249/278/57 250/279/57
f 248/277/92 239/280/55 249/278/57
f 251/281/94 252/282/94 253/283/94
f 251/281/94 254/284/94 252/282/94
f 255/285/95 256/286/95 257/287/95
f 255/285/95 258/288/95 256/286/95
f 259/289/96 260/290/97 261/291/98
f 259/289/96 262/292/96 260/290/97
f 263/293/99 264/294/100 265/295/100
f 263/293/99 266/296/99 264/294/100
f 267/297/101 268/298/102 269/299/102
f 267/297/101 270/300/101 268/298/102
f 271/301/103 272/302/103 273/303/103
f 271/301/103 274/304/103 272/302/103
f 275/305/104 276/306/105 277/307/106
f 275/305/104 278/308/104 276/306/105
f 279/309/107 280/310/108 281/311/109
f 279/309/107 282/312/107 280/310/108
f 283/313/110 284/314/110 285/315/110
f 283/313/110 286/316/110 284/314/110
f 287/317/111 288/318/111 289/319/111
f 287/317/111 290/320/111 288/318/111
f 291/321/112 292/322/113 293/323/114
f 291/321/112 294/324/112 292/322/113
f 295/325/115 296/326/116 297/327/116
f 295/325/115 298/328/115 296/326/116
f 299/329/117 300/330/117 301/331/117
f 299/329/117 302/332/118 300/330/117
f 303/333/119 304/334/119 305/335/119
f 303/333/119 306/336/119 304/334/119
f 307/337/120 308/338/121 309/339/121
f 307/337/120 310/340/120 308/338/121
f 311/341/122 312/342/123 313/343/124
f 311/341/122 314/344/125 312/342/123
f 315/345/126 316/346/126 317/347/126
f 315/345/126 318/348/126 316/346/126
f 319/349/127 320/350/127 321/351/128
f 319/349/127 322/352/127 320/350/127
f 323/353/129 324/354/129 325/355/130
f 323/353/129 326/356/129 324/354/129
f 327/357/131 328/358/132 329/359/133
f 327/357/131 330/360/134 328/358/132
f 331/361/135 332/362/135 333/363/135
f 331/361/135 334/364/135 332/362/135
f 335/365/135 336/366/136 337/367/136
f 335/365/135 338/368/133 336/366/136
f 339/369/137 340/370/138 341/371/138
f 339/369/137 342/372/137 340/370/138
f 343/373/119 344/374/119 345/375/119
f 343/373/119 346/376/119 344/374/119
f 347/377/139 348/378/140 349/379/141
f 347/377/139 350/380/139 348/378/140
f 351/381/142 352/382/142 353/383/142
f 351/381/142 354/384/142 352/382/142
f 355/385/143 356/386/143 357/387/143
f 355/385/143 358/388/143 356/386/143
f 359/389/144 360/390/145 361/391/145
f 359/389/144 362/392/144 360/390/145
f 363/393/146 364/394/147 365/395/147
f 363/393/146 366/396/146 364/394/147
f 367/397/147 368/398/148 369/399/148
f 367/397/147 370/400/147 368/398/148
f 371/401/148 372/402/149 373/403/150
f 371/401/148 374/404/148 372/402/149
f 375/405/151 376/406/152 377/407/153
f 375/405/151 378/408/151 376/406/152
f 379/409/154 380/410/155 381/411/155
f 379/409/154 382/412/154 380/410/155
f 383/413/156 384/414/157 385/415/158
f 383/413/156 386/416/156 384/414/157
f 387/417/159 388/418/159 389/419/160
f 387/417/159 390/420/159 388/418/159
f 391/421/161 392/422/162 393/423/163
f 391/421/161 394/424/161 392/422/162
f 395/425/47 396/426/2 397/427/2
f 395/425/47 398/428/91 396/426/2
f 399/429/15 400/430/4 401/431/4
f 399/429/15 402/432/15 400/430/4
f 403/433/41 404/434/164 405/435/165
f 403/433/41 406/436/38 404/434/164
f 407/437/165 408/438/164 409/439/164
f 407/437/165 410/440/165 408/438/164
f 411/441/166 412/442/167 413/443/167
f 411/441/166 414/444/166 412/442/167
f 415/445/168 416/446/169 417/447/169
f 415/445/168 418/448/168 416/446/169
f 419/449/170 420/450/171 421/451/171
f 419/449/170 422/452/172 420/450/171
f 423/453/173 424/454/173 425/455/174
f 423/453/173 426/456/175 424/454/173
f 427/457/14 428/458/92 429/459/14
f 427/457/14 430/460/55 428/458/92
