# Blender v2.93.18 OBJ File: 'Mercedes Axor New 12.blend'
# www.blender.org
o interior_labels_interior_labels_piece_11
v -11.535850 38.631245 17.794352
v -12.067383 38.789394 17.355465
v -12.103796 38.627754 17.409616
v -11.496202 38.792419 17.736034
v -11.151064 38.986378 17.865841
v -10.716636 38.532635 18.407122
v -10.603141 38.991341 18.239315
v -11.264954 38.530945 18.033302
v -9.770157 38.991264 18.795994
v -10.454802 38.532650 18.584042
v -9.884237 38.530914 18.966013
v -10.340232 38.996429 18.414274
v -9.534892 38.626690 19.148500
v -8.943940 38.936314 19.394028
v -9.459135 38.938660 19.035833
v -9.015146 38.623497 19.498541
v -11.782098 38.036064 17.924116
v -12.189774 37.814049 17.753885
v -11.832566 37.802925 17.999159
v -12.138879 38.035908 17.678780
v -11.483554 37.611153 18.322086
v -10.899763 37.995331 18.546711
v -11.403507 37.994816 18.202639
v -10.981093 37.609863 18.667336
v -10.103460 37.527969 19.292065
v -10.562592 37.997227 18.774019
v -10.662288 37.526104 18.921396
v -10.004610 37.996647 19.146872
v -18.861744 36.144871 14.073821
v -19.166090 36.493065 13.692884
v -19.245979 36.142349 13.811549
v -18.777098 36.494884 13.949045
v -16.521282 38.990719 14.235660
v -16.950480 38.590397 14.162965
v -16.620733 38.589142 14.383719
v -16.850777 38.993694 14.015032
v -16.145525 38.528450 14.732414
v -15.619603 39.052006 14.825095
v -16.018839 39.053589 14.544261
v -15.740332 38.525757 15.002571
v -18.159555 38.635769 13.316346
v -18.706434 38.889503 12.820917
v -18.764244 38.632061 12.906932
v -18.096266 38.892403 13.223270
v -18.442064 37.973404 13.453229
v -18.916321 37.573940 13.327812
v -18.529966 37.567646 13.583917
v -18.824087 37.974110 13.191796
v -17.260796 33.707302 16.360518
v -16.765890 34.230957 16.430979
v -17.133955 34.232414 16.172083
v -16.887236 33.704823 16.609575
v -19.443203 33.706928 14.885660
v -19.656235 34.230873 14.478733
v -19.776625 33.704700 14.657428
v -19.316612 34.232189 14.698966
v -17.593813 34.196770 15.877203
v -18.076080 33.759617 15.788799
v -17.702433 33.758247 16.038942
v -17.967155 34.200279 15.627201
v -4.008839 32.923553 24.416908
v -4.529727 33.372639 24.163839
v -4.535302 32.920807 24.401869
v -4.002220 33.373169 24.167236
v -1.386526 32.922657 24.460701
v -1.021128 33.422676 24.200592
v -1.379969 33.423492 24.185469
v -1.028248 32.920162 24.466972
v -1.447422 32.452457 24.708321
v -0.969653 31.949482 24.981775
v -0.963744 32.451492 24.715515
v -1.454140 31.941877 24.965969
v -12.188033 37.605747 17.856941
v -11.876268 37.601025 18.064129
v -12.140706 37.813667 17.787022
v -37.439377 30.049938 17.082066
v -38.008816 30.611214 17.077351
v -37.998619 30.048141 17.153173
v -37.450516 30.615280 16.992281
v -35.504009 30.618013 16.728325
v -35.943157 30.051130 16.885815
v -35.491028 30.050192 16.822803
v -35.955647 30.621481 16.791872
v -12.135954 36.199318 18.557697
v -12.519988 36.466255 18.084320
v -12.613648 36.191032 18.221371
v -12.037534 36.472618 18.413754
v -13.816902 35.686947 17.706358
v -13.939667 35.891037 17.521904
v -14.008071 35.736385 17.553864
v -13.728687 35.889660 17.664030
v -13.722325 36.087200 17.572512
v -13.935915 36.041641 17.451775
v -14.979749 36.366978 16.592091
v -14.974003 36.228905 16.661064
v -14.913016 36.304855 16.668528
v -15.045452 36.285229 16.584183
v -13.815518 36.292881 17.413324
v -13.940100 36.321281 17.319649
v -13.908576 36.237247 17.378523
v -13.849500 36.383709 17.349573
v -14.133353 35.467808 17.610540
v -13.989828 35.487885 17.692940
v -14.063256 35.548725 17.613937
v -14.065946 35.399784 17.689161
v -14.321191 35.208488 17.627934
v -14.263951 35.358219 17.585739
v -14.353266 35.305504 17.558136
v -14.224051 35.265938 17.658117
v -15.015673 35.373299 17.069252
v -15.027761 35.218918 17.145056
v -14.952520 35.314770 17.148382
v -15.097072 35.283142 17.058470
v -14.431458 36.759686 16.812422
v -14.315655 36.529762 17.002104
v -14.244650 36.761791 16.938635
v -14.463202 36.528099 16.902313
v -14.605244 35.282726 17.422710
v -14.836498 35.057293 17.379059
v -14.641542 35.052502 17.515102
v -14.758468 35.286404 17.315632
v -15.086288 35.830963 16.776205
v -15.250350 35.997303 16.581970
v -15.296805 35.816586 16.639519
v -15.049071 35.975895 16.730059
v -15.036044 34.756470 17.391018
v -15.297313 34.515087 17.312180
v -15.091920 34.511932 17.473495
v -15.247198 34.757549 17.225094
v -15.252383 34.750092 17.224966
v -15.534149 34.528748 17.121164
v -15.298958 34.525124 17.305872
v -15.483048 34.751278 17.043804
v -14.491198 38.325748 15.970012
v -14.558353 38.459759 15.855413
v -14.590794 38.327202 15.897493
v -14.455951 38.458214 15.933231
v -9.614444 36.539288 20.127224
v -10.014476 36.138153 20.077644
v -9.714891 36.136074 20.277264
v -9.909932 36.540642 19.921635
v -10.705313 34.070480 20.607121
v -10.507540 34.268604 20.644621
v -10.655405 34.269596 20.543144
v -10.552569 34.068378 20.712481
v -10.472436 34.007511 20.797297
v -10.197261 34.223732 20.878624
v -10.422683 34.223980 20.724474
v -10.244380 34.007122 20.953432
v -13.195276 38.754066 16.631943
v -13.392735 38.382713 16.685892
v -13.405161 38.129154 16.798454
v -13.474404 38.600658 16.534145
v -13.260059 38.784428 16.578030
v -13.638238 38.749611 16.366127
v -13.841768 39.057331 16.088726
v -13.862285 38.805584 16.205685
v -14.092138 38.752785 16.060501
v -14.311358 38.818558 15.861678
v -14.309813 38.606480 15.968814
v -14.483778 38.721561 15.780203
v -14.482737 38.390461 15.947058
v -14.824088 34.112080 18.084440
v -14.635963 34.083382 18.140495
v -14.695216 34.171581 18.055157
v -14.765535 34.024929 18.168755
v -15.026177 33.975544 18.083771
v -14.967694 33.888493 18.167988
v -14.865691 36.251175 16.990011
v -14.777486 36.397453 16.889133
v -14.879958 36.312630 16.859535
v -14.764442 36.334984 17.019258
v -14.802338 36.109188 17.177925
v -14.701199 36.192905 17.207144
v -13.966126 38.646904 16.417728
v -13.779387 38.712959 16.428680
v -13.882711 38.739662 16.343943
v -13.864036 38.620525 16.501467
v -14.083894 38.449505 16.499239
v -13.981910 38.423145 16.582880
v -14.642751 38.338169 15.853370
v -14.585009 38.137428 15.998307
v -14.502647 38.341198 15.957030
v -14.976235 36.879356 16.335133
v -14.600945 37.885944 16.114843
v -14.553922 37.750492 16.220167
v -14.750628 36.898426 16.503130
v -14.892949 36.297470 16.708740
v -15.122902 36.265213 16.544703
v -14.056552 34.457989 18.120014
v -14.371097 33.471268 18.441013
v -14.285203 33.455540 18.456059
v -14.133853 34.471615 18.097872
v -14.455383 33.660892 18.298288
v -14.471774 33.475716 18.378347
v -14.441955 33.914082 18.185268
v -14.523767 34.131290 18.032753
v -14.687808 34.279549 17.864241
v -14.865760 34.521896 17.644051
v -14.909619 34.335789 17.704441
v -15.139632 34.282341 17.555809
v -15.514126 34.531948 17.135019
v -15.357486 34.136436 17.464502
v -15.531057 33.920643 17.443241
v -15.633406 33.667950 17.495583
v -15.685884 33.504089 17.541384
v -15.750323 33.504230 17.492565
v -15.795650 33.491791 17.417877
v -15.562507 34.524067 17.070267
v -14.723499 36.587551 16.674433
v -14.776787 36.437405 16.705505
v -14.692382 36.494328 16.741385
v -14.815222 36.525787 16.635622
v -13.944692 36.519402 17.227961
v -14.086076 36.494255 17.151913
v -14.020067 36.434536 17.219082
v -14.016228 36.584137 17.154957
v -15.114345 35.568558 16.892284
v -15.183499 35.421864 16.921446
v -15.086190 35.486885 16.955774
v -15.214169 35.510811 16.852514
v -15.127991 32.624817 20.901598
v -15.975477 31.720516 22.063591
v -15.112139 31.701601 22.678595
v -14.264639 32.605953 21.516588
v -36.882137 33.851021 14.224087
v -37.323952 34.153961 14.224686
v -37.417152 33.906105 14.284378
v -36.869820 34.106659 14.173627
v -36.961746 33.633820 14.315711
v -36.641766 33.798531 14.260769
v -36.915134 33.872616 14.252347
v -36.649517 33.627102 14.305252
v -38.179062 33.287647 14.814925
v -38.294987 32.954964 15.109311
v -38.073555 33.042763 14.905421
v -38.444565 33.302044 14.981069
v -38.019859 32.672543 15.171251
v -37.879417 32.843521 14.949108
v -37.729786 34.283863 14.305950
v -37.874722 33.914730 14.423467
v -37.693993 33.943306 14.352732
v -37.985962 34.243397 14.406194
v -37.340927 34.283066 14.205545
v -37.570297 34.323490 14.254490
v -37.582554 33.965149 14.315104
v -37.420860 33.936646 14.280607
v -37.523720 33.868668 14.658330
v -37.391548 33.858746 14.634608
v -37.403503 33.951382 14.524690
v -37.537270 33.961426 14.548693
v -37.513557 33.669632 14.797722
v -37.381531 33.659725 14.774021
v -10.819316 33.963837 20.804337
v -10.642099 34.051563 20.795176
v -10.752607 34.056046 20.715567
v -10.710123 33.959396 20.882999
v -10.906684 33.765297 20.914516
v -10.797611 33.760857 20.993111
v -34.845325 31.364225 21.401630
v -35.240292 31.140137 21.656601
v -34.878994 31.107584 21.373419
v -34.999725 30.918987 21.254698
v -35.353043 30.964508 21.545658
v -35.209133 31.379440 21.682676
v -34.635086 31.251169 20.956259
v -34.336685 31.135309 20.620510
v -34.302708 31.244137 20.652407
v -34.666702 31.149834 20.926596
v -34.308517 31.986023 20.047749
v -34.269817 31.879465 20.348831
v -34.137257 31.878761 20.225204
v -34.439903 31.986010 20.172596
v -34.383060 31.796333 20.556385
v -34.666439 31.707754 20.912613
v -34.333321 31.698486 20.609644
v -34.712856 31.799061 20.862923
v -34.551609 31.954542 20.380524
v -34.809357 31.911489 20.761616
v -34.476231 31.907324 20.458616
v -34.879524 31.955479 20.688906
v -34.291599 31.536669 20.656248
v -34.614910 31.428181 20.972334
v -34.283234 31.415503 20.667883
v -34.622715 31.541243 20.961473
v -34.176090 31.857279 20.298977
v -34.136757 31.640612 20.483318
v -34.065361 31.639442 20.417536
v -34.247086 31.857660 20.365194
v -33.128178 31.869041 19.319761
v -33.205379 31.619385 19.647095
v -32.999523 31.616045 19.457418
v -33.332874 31.870121 19.510677
v -33.411907 31.622747 19.837397
v -33.538246 31.871191 19.702213
v -34.157242 31.305929 20.555786
v -34.233749 31.060888 20.483980
v -34.023979 31.051945 20.289597
v -33.946632 31.299627 20.362186
v -33.976101 31.605587 20.352890
v -34.163887 31.608639 20.525934
v -34.145367 31.340376 20.551672
v -33.957405 31.334761 20.378895
v -36.687729 31.580822 21.821426
v -36.471119 31.150278 22.053308
v -36.294735 31.333399 22.228558
v -36.511341 31.763943 21.996668
v -35.310730 31.319798 21.746187
v -35.501846 31.165571 21.860540
v -35.332855 31.150398 21.727934
v -35.480614 31.328848 21.878038
v -35.631565 31.178427 21.958683
v -35.611111 31.336346 21.975527
v -35.579891 31.043848 21.784033
v -35.707092 31.060783 21.884649
v -35.413761 31.024010 21.648636
v -34.599133 31.083700 21.152178
v -34.424870 31.156507 21.021074
v -34.589207 31.165979 21.160465
v -34.676514 31.090904 21.212132
v -34.640549 31.020710 21.111282
v -34.477280 31.008314 20.970869
v -34.435108 31.072630 21.012505
v -34.542160 31.172653 20.858940
v -34.584278 31.108480 20.817360
v -34.531994 31.256399 20.867439
v -34.717388 31.028858 21.171778
v -34.666782 31.172054 21.220243
v -22.336161 32.495556 18.963652
v -22.506929 32.758263 18.963680
v -22.714991 32.623707 18.881119
v -22.542782 32.358776 18.881084
v -22.515623 32.754688 18.962187
v -22.619795 33.012554 18.817841
v -22.828733 32.880161 18.734060
v -22.723690 32.620132 18.879625
v -21.785717 32.992695 19.198065
v -22.002314 32.949100 19.129789
v -21.957333 32.879978 19.129635
v -21.830368 33.061295 19.198206
v -19.876335 34.203197 19.716534
v -19.672478 34.188370 19.274656
v -19.799948 34.429794 19.207748
v -20.003803 34.444630 19.649624
v -22.073277 33.137794 19.095757
v -22.110641 33.230873 19.043091
v -22.200768 33.173393 19.007065
v -22.163263 33.079956 19.059935
v -22.060329 33.434883 18.936739
v -22.125937 33.438404 18.850922
v -22.123953 33.394768 18.910965
v -22.062309 33.478409 18.876856
v -21.146719 34.218327 19.225437
v -21.138542 34.023373 19.495045
v -20.771919 34.232304 19.623844
v -20.779655 34.416664 19.368889
v -21.423222 34.069710 19.114256
v -21.854635 33.612465 19.245157
v -21.414562 33.863255 19.399750
v -21.863829 33.831635 18.942074
v -21.401594 34.105743 19.011787
v -21.839098 33.869751 18.829454
v -21.393713 33.792599 19.456806
v -21.830587 33.533829 19.306709
v -20.679701 34.395294 19.374393
v -20.368765 34.424034 19.723488
v -20.375433 34.582996 19.503672
v -20.672916 34.233696 19.597853
v -21.976862 33.198143 19.134666
v -22.014227 33.291225 19.081993
v -22.104351 33.233742 19.045980
v -22.066849 33.140312 19.098837
vt 0.455789 0.815751
vt 0.322639 0.848129
vt 0.322905 0.814873
vt 0.455779 0.849200
vt 0.410269 0.995681
vt 0.477096 0.946355
vt 0.477406 0.995762
vt 0.410269 0.946257
vt 0.409962 0.996298
vt 0.342223 0.947473
vt 0.409938 0.947370
vt 0.341935 0.996386
vt 0.615506 0.763400
vt 0.696565 0.811810
vt 0.615459 0.812602
vt 0.696505 0.763018
vt 0.136101 0.999104
vt 0.058132 0.956353
vt 0.136059 0.954124
vt 0.058231 0.999468
vt 0.133553 0.946791
vt 0.212148 0.998619
vt 0.133580 0.998735
vt 0.212421 0.946690
vt 0.341598 0.949128
vt 0.277536 0.996072
vt 0.277236 0.949057
vt 0.341604 0.996162
vt 0.214737 0.784530
vt 0.146685 0.835892
vt 0.148583 0.782019
vt 0.212905 0.838740
vt 0.762901 0.811470
vt 0.697445 0.740281
vt 0.762948 0.740183
vt 0.697134 0.811556
vt 0.830630 0.800957
vt 0.884337 0.861866
vt 0.830741 0.862423
vt 0.883867 0.800653
vt 0.608631 0.763616
vt 0.481386 0.810246
vt 0.481777 0.762772
vt 0.608627 0.811382
vt 0.736552 0.863944
vt 0.683486 0.816008
vt 0.736417 0.815401
vt 0.683864 0.864288
vt 0.890722 0.803813
vt 0.936083 0.859661
vt 0.890815 0.860131
vt 0.935687 0.803557
vt 0.823345 0.738666
vt 0.765643 0.817595
vt 0.766170 0.738339
vt 0.823174 0.818190
vt 0.511388 0.667906
vt 0.427146 0.579608
vt 0.511422 0.579481
vt 0.426735 0.668015
vt 0.118101 0.891217
vt 0.077243 0.927865
vt 0.078296 0.888603
vt 0.117263 0.930660
vt 0.005317 0.879717
vt 0.028374 0.915231
vt 0.005424 0.915469
vt 0.028119 0.879587
vt 0.038580 0.915472
vt 0.069646 0.880182
vt 0.069354 0.915647
vt 0.038671 0.879804
vt 0.430915 0.915776
vt 0.323278 0.854704
vt 0.430857 0.853536
vt 0.323414 0.919205
vt 0.550424 0.888819
vt 0.494481 0.943664
vt 0.494879 0.888502
vt 0.550378 0.944242
vt 0.540941 0.996357
vt 0.498859 0.944200
vt 0.540950 0.944136
vt 0.498623 0.996411
vt 0.687035 0.821036
vt 0.611914 0.859757
vt 0.612861 0.818947
vt 0.686071 0.862198
vt 0.158132 0.834255
vt 0.195923 0.876836
vt 0.202188 0.843226
vt 0.150090 0.877256
vt 0.195923 0.876229
vt 0.150090 0.875809
vt 0.158627 0.834540
vt 0.202563 0.844076
vt 0.287626 0.719281
vt 0.294242 0.781181
vt 0.263484 0.759615
vt 0.321489 0.742922
vt 0.287626 0.719281
vt 0.294242 0.781181
vt 0.263484 0.759615
vt 0.321489 0.742922
vt 0.263484 0.759615
vt 0.321489 0.742922
vt 0.294242 0.781181
vt 0.287626 0.719281
vt 0.287626 0.719281
vt 0.294242 0.781181
vt 0.263484 0.759615
vt 0.321489 0.742922
vt 0.263484 0.759615
vt 0.321489 0.742922
vt 0.294242 0.781181
vt 0.287626 0.719281
vt 0.157284 0.837031
vt 0.191258 0.880199
vt 0.194745 0.836192
vt 0.162122 0.880847
vt 0.191590 0.881481
vt 0.155065 0.836970
vt 0.196146 0.836535
vt 0.159662 0.881813
vt 0.558162 0.741880
vt 0.533771 0.757414
vt 0.533460 0.740057
vt 0.558404 0.755426
vt 0.271335 0.649649
vt 0.256184 0.635014
vt 0.271388 0.634496
vt 0.255694 0.650066
vt 0.957626 0.794069
vt 0.906123 0.753800
vt 0.958998 0.752034
vt 0.905736 0.795417
vt 0.334445 0.708898
vt 0.323782 0.721856
vt 0.323471 0.709706
vt 0.335848 0.721513
vt 0.612155 0.863638
vt 0.568500 0.811358
vt 0.611611 0.810721
vt 0.569050 0.864557
vt 0.468354 0.837442
vt 0.504189 0.881539
vt 0.470232 0.882352
vt 0.503605 0.836379
vt 0.509749 0.838577
vt 0.563471 0.880040
vt 0.510515 0.881045
vt 0.563305 0.837523
vt 0.455891 0.719303
vt 0.443421 0.685061
vt 0.448415 0.661878
vt 0.429043 0.704794
vt 0.448007 0.721960
vt 0.407444 0.718038
vt 0.377026 0.745981
vt 0.381577 0.722678
vt 0.356073 0.718255
vt 0.328551 0.724779
vt 0.334311 0.705247
vt 0.310844 0.716195
vt 0.319705 0.685683
vt 0.422195 0.788006
vt 0.393002 0.814957
vt 0.393169 0.787663
vt 0.422028 0.814976
vt 0.471043 0.788326
vt 0.470875 0.815262
vt 0.422199 0.788006
vt 0.392998 0.814960
vt 0.393169 0.787663
vt 0.422031 0.814976
vt 0.471050 0.788322
vt 0.470886 0.815266
vt 0.422195 0.788006
vt 0.392998 0.814957
vt 0.393169 0.787663
vt 0.422028 0.814976
vt 0.471043 0.788322
vt 0.470875 0.815262
vt 0.010956 0.489827
vt 0.026325 0.464014
vt 0.031553 0.489917
vt 0.010956 0.304058
vt 0.032627 0.431818
vt 0.044291 0.414333
vt 0.044229 0.305734
vt 0.046344 0.230050
vt 0.012935 0.226653
vt 0.406737 0.662392
vt 0.397918 0.550570
vt 0.407253 0.550459
vt 0.394342 0.662841
vt 0.382144 0.571467
vt 0.385469 0.550786
vt 0.376597 0.599659
vt 0.360439 0.623565
vt 0.336184 0.639571
vt 0.307636 0.665961
vt 0.307437 0.645201
vt 0.278668 0.639765
vt 0.221122 0.668909
vt 0.254392 0.623887
vt 0.238148 0.600034
vt 0.232454 0.571855
vt 0.230677 0.553510
vt 0.222196 0.553658
vt 0.212891 0.553825
vt 0.212565 0.669152
vt 0.287626 0.719281
vt 0.294242 0.781181
vt 0.263484 0.759615
vt 0.321489 0.742922
vt 0.287626 0.719281
vt 0.294242 0.781181
vt 0.263484 0.759615
vt 0.321489 0.742922
vt 0.263484 0.759615
vt 0.321489 0.742922
vt 0.294242 0.781181
vt 0.287626 0.719281
vt 0.932698 0.440281
vt 0.932784 0.389087
vt 0.986243 0.389044
vt 0.986158 0.440239
vt 0.271215 0.818547
vt 0.225606 0.846847
vt 0.217044 0.821031
vt 0.271589 0.844683
vt -0.005081 0.952695
vt 0.052181 1.000424
vt -0.005718 1.004174
vt 0.057792 0.964561
vt 0.253684 0.751640
vt 0.230498 0.706119
vt 0.261865 0.721394
vt 0.218897 0.748986
vt 0.234794 0.756616
vt 0.266161 0.741341
vt 0.239566 0.705774
vt 0.216027 0.731524
vt 0.226469 0.893709
vt 0.208020 0.842023
vt 0.233267 0.848359
vt 0.190685 0.884733
vt 0.267431 0.889192
vt 0.237666 0.893134
vt 0.236248 0.847281
vt 0.257230 0.844501
vt 0.421947 0.814674
vt 0.422253 0.787949
vt 0.393623 0.787460
vt 0.393318 0.814503
vt 0.470215 0.815205
vt 0.470520 0.788513
vt 0.421635 0.787731
vt 0.392216 0.815308
vt 0.392231 0.787548
vt 0.421619 0.815163
vt 0.471195 0.787777
vt 0.471180 0.815178
vt 0.314328 0.921839
vt 0.270078 0.896728
vt 0.315096 0.896728
vt 0.314351 0.872393
vt 0.269369 0.874063
vt 0.269346 0.920116
vt 0.468597 0.787083
vt 0.389015 0.812342
vt 0.389015 0.787093
vt 0.468597 0.812327
vt 0.247187 0.900325
vt 0.266421 0.928835
vt 0.247187 0.928834
vt 0.266421 0.900327
vt 0.389015 0.787053
vt 0.468597 0.812320
vt 0.389015 0.812322
vt 0.468597 0.787057
vt 0.389015 0.787729
vt 0.468597 0.812982
vt 0.389015 0.812978
vt 0.468597 0.787738
vt 0.389015 0.788288
vt 0.468597 0.813548
vt 0.389015 0.813558
vt 0.468597 0.788285
vt 0.237753 0.901503
vt 0.249218 0.929247
vt 0.237753 0.929248
vt 0.249218 0.901503
vt 0.341005 0.551424
vt 0.284363 0.616749
vt 0.341005 0.616750
vt 0.284363 0.551426
vt 0.341191 0.616746
vt 0.341191 0.551428
vt 0.270412 0.867820
vt 0.270412 0.832295
vt 0.305931 0.832288
vt 0.305931 0.867816
vt 0.308624 0.824415
vt 0.272057 0.824416
vt 0.272057 0.783952
vt 0.308624 0.783947
vt 0.681918 0.637085
vt 0.767490 0.636930
vt 0.767429 0.686331
vt 0.681856 0.686486
vt 0.193679 0.838984
vt 0.176540 0.860525
vt 0.176540 0.838441
vt 0.193038 0.861054
vt 0.176540 0.877226
vt 0.192505 0.877751
vt 0.160261 0.861047
vt 0.160787 0.877744
vt 0.159629 0.838977
vt 0.407750 0.799841
vt 0.438996 0.810947
vt 0.407424 0.810696
vt 0.393819 0.799841
vt 0.407413 0.788597
vt 0.438985 0.788338
vt 0.439309 0.799841
vt 0.440068 0.799841
vt 0.439744 0.788332
vt 0.439755 0.810953
vt 0.393484 0.788746
vt 0.393496 0.810553
vt 0.156779 0.835519
vt 0.156877 0.881042
vt 0.194508 0.881042
vt 0.194410 0.835519
vt 0.156877 0.881042
vt 0.156265 0.835519
vt 0.193891 0.835519
vt 0.194508 0.881042
vt 0.468572 0.790632
vt 0.397300 0.814273
vt 0.398366 0.787518
vt 0.467513 0.817193
vt 0.327958 0.910344
vt 0.376911 0.910344
vt 0.376911 0.938607
vt 0.327958 0.938607
vt 0.158930 0.878184
vt 0.195705 0.877299
vt 0.194576 0.840686
vt 0.157662 0.841574
vt 0.313430 0.731517
vt 0.269131 0.771466
vt 0.269556 0.730482
vt 0.313006 0.772391
vt 0.191811 0.838947
vt 0.161331 0.838947
vt 0.161331 0.876234
vt 0.191811 0.876234
vt 0.614481 0.849215
vt 0.565626 0.822398
vt 0.614515 0.823367
vt 0.565622 0.850132
vt 0.614677 0.861930
vt 0.565649 0.863729
vt 0.614720 0.811815
vt 0.565655 0.809950
vt 0.191811 0.833576
vt 0.161331 0.875925
vt 0.191811 0.875925
vt 0.161331 0.833576
vt 0.158930 0.840686
vt 0.195705 0.841571
vt 0.194576 0.878184
vt 0.157662 0.877296
vn -0.5114 0.3967 0.7623
vn -0.5197 0.3786 0.7659
vn -0.5217 0.3743 0.7666
vn -0.5094 0.4008 0.7614
vn -0.5165 0.4054 0.7543
vn -0.5168 0.4049 0.7543
vn -0.5177 0.4040 0.7542
vn -0.5156 0.4063 0.7544
vn -0.5070 0.4054 0.7606
vn -0.5068 0.4049 0.7610
vn -0.5074 0.4064 0.7598
vn -0.5064 0.4040 0.7618
vn -0.5204 0.3915 0.7589
vn -0.5182 0.3825 0.7649
vn -0.5222 0.3990 0.7537
vn -0.5163 0.3748 0.7700
vn -0.5215 0.3671 0.7702
vn -0.5231 0.3729 0.7664
vn -0.5201 0.3617 0.7738
vn -0.5246 0.3785 0.7626
vn -0.5287 0.3518 0.7725
vn -0.5289 0.3523 0.7721
vn -0.5284 0.3509 0.7731
vn -0.5292 0.3531 0.7715
vn -0.5192 0.3519 0.7789
vn -0.5188 0.3523 0.7789
vn -0.5179 0.3533 0.7790
vn -0.5200 0.3509 0.7788
vn -0.5140 0.3878 0.7651
vn -0.5162 0.3855 0.7648
vn -0.5237 0.3777 0.7636
vn -0.5064 0.3956 0.7662
vn -0.5068 0.4052 0.7609
vn -0.5069 0.4053 0.7608
vn -0.5073 0.4059 0.7602
vn -0.5063 0.4045 0.7616
vn -0.5189 0.3862 0.7627
vn -0.5204 0.3881 0.7607
vn -0.5271 0.3965 0.7516
vn -0.5119 0.3776 0.7716
vn -0.5093 0.3952 0.7645
vn -0.5179 0.3800 0.7664
vn -0.5217 0.3734 0.7671
vn -0.5055 0.4016 0.7637
vn -0.5163 0.3705 0.7721
vn -0.5167 0.3713 0.7715
vn -0.5110 0.3618 0.7797
vn -0.5219 0.3799 0.7637
vn -0.5181 0.3871 0.7627
vn -0.5205 0.3897 0.7598
vn -0.5270 0.3970 0.7515
vn -0.5115 0.3796 0.7709
vn -0.5153 0.3851 0.7656
vn -0.5102 0.3885 0.7673
vn -0.5244 0.3789 0.7625
vn -0.5010 0.3945 0.7703
vn -0.5068 0.4053 0.7608
vn -0.5074 0.4060 0.7601
vn -0.5062 0.4045 0.7617
vn -0.0167 0.4761 0.8792
vn -0.0171 0.4758 0.8794
vn -0.0277 0.4662 0.8843
vn -0.0061 0.4855 0.8742
vn -0.0207 0.4732 0.8807
vn -0.0274 0.4770 0.8785
vn -0.0358 0.4817 0.8756
vn -0.0122 0.4685 0.8834
vn -0.0230 0.4606 0.8873
vn -0.0255 0.4587 0.8882
vn -0.0122 0.4686 0.8833
vn -0.0362 0.4506 0.8920
vn -0.5137 0.3666 0.7757
vn -0.5151 0.3714 0.7725
vn -0.5122 0.3616 0.7790
vn -0.5165 0.3762 0.7692
vn 0.1361 0.1463 0.9798
vn 0.1362 0.1464 0.9798
vn 0.1246 0.1346 0.9830
vn 0.1476 0.1580 0.9763
vn 0.1377 0.1646 0.9767
vn 0.1374 0.1649 0.9767
vn 0.1365 0.1656 0.9767
vn 0.1387 0.1639 0.9767
vn -0.4863 0.5310 0.6939
vn -0.4930 0.5233 0.6950
vn -0.4990 0.5164 0.6960
vn -0.4802 0.5379 0.6929
vn -0.5135 0.3844 0.7671
vn -0.5147 0.3787 0.7692
vn -0.5125 0.3853 0.7674
vn -0.5154 0.3787 0.7687
vn -0.5162 0.3731 0.7709
vn -0.5156 0.3722 0.7717
vn -0.5386 0.3585 0.7625
vn -0.5388 0.3584 0.7624
vn -0.5394 0.3582 0.7620
vn -0.5380 0.3587 0.7628
vn -0.5071 0.3594 0.7834
vn -0.5074 0.3586 0.7836
vn -0.5069 0.3601 0.7832
vn -0.4980 0.3982 0.7704
vn -0.4980 0.3981 0.7704
vn -0.4979 0.3990 0.7700
vn -0.4981 0.3973 0.7707
vn -0.4797 0.4030 0.7794
vn -0.4796 0.4030 0.7795
vn -0.4788 0.4029 0.7800
vn -0.4804 0.4031 0.7789
vn -0.5453 0.4035 0.7347
vn -0.5462 0.4033 0.7342
vn -0.5445 0.4036 0.7353
vn -0.5231 0.3699 0.7678
vn -0.5232 0.3699 0.7678
vn -0.5229 0.3701 0.7678
vn -0.5234 0.3697 0.7677
vn -0.5214 0.3877 0.7601
vn -0.5214 0.3876 0.7602
vn -0.5212 0.3874 0.7605
vn -0.5217 0.3880 0.7598
vn -0.5223 0.3776 0.7646
vn -0.5223 0.3777 0.7646
vn -0.5695 0.3781 0.7299
vn -0.5686 0.3766 0.7313
vn -0.5704 0.3795 0.7284
vn -0.5683 0.3816 0.7290
vn -0.5685 0.3820 0.7286
vn -0.5677 0.3801 0.7302
vn -0.5692 0.3835 0.7273
vn -0.5518 0.3649 0.7500
vn -0.5532 0.3637 0.7494
vn -0.5429 0.3719 0.7530
vn -0.5618 0.3567 0.7464
vn -0.5110 0.4167 0.7518
vn -0.5094 0.4149 0.7539
vn -0.5041 0.4087 0.7608
vn -0.5163 0.4228 0.7448
vn -0.5224 0.3767 0.7649
vn -0.5224 0.3767 0.7650
vn -0.5225 0.3767 0.7649
vn -0.5225 0.3775 0.7645
vn -0.5226 0.3775 0.7645
vn -0.5225 0.3773 0.7646
vn -0.5226 0.3777 0.7643
vn -0.4833 0.3733 0.7919
vn -0.4865 0.3734 0.7899
vn -0.4880 0.3740 0.7887
vn -0.4811 0.3709 0.7944
vn -0.4815 0.3763 0.7916
vn -0.4752 0.3905 0.7885
vn -0.5168 0.3931 0.7605
vn -0.5051 0.3971 0.7663
vn -0.5553 0.3828 0.7383
vn -0.5583 0.3741 0.7405
vn -0.5592 0.3710 0.7414
vn -0.5586 0.3713 0.7417
vn -0.5581 0.3720 0.7417
vn -0.2412 0.5862 0.7734
vn -0.1263 0.6446 0.7540
vn -0.1263 0.6447 0.7540
vn -0.3523 0.5176 0.7797
vn -0.6347 0.5944 0.4938
vn -0.6525 0.6556 0.3801
vn -0.6060 0.5229 0.5994
vn -0.3711 0.6546 0.6587
vn -0.2982 0.7439 0.5980
vn -0.3711 0.6546 0.6586
vn -0.4379 0.5537 0.7083
vn -0.5581 0.3742 0.7406
vn -0.5613 0.3731 0.7388
vn -0.5566 0.3751 0.7413
vn -0.5724 0.3790 0.7271
vn -0.5738 0.3735 0.7289
vn -0.5695 0.3728 0.7326
vn -0.5731 0.3788 0.7267
vn -0.5715 0.3839 0.7253
vn -0.5713 0.3840 0.7254
vn -0.1930 0.3586 0.9133
vn -0.2959 0.3684 0.8813
vn -0.1022 0.3371 0.9359
vn -0.3398 0.3757 0.8622
vn -0.4742 0.3839 0.7923
vn -0.4756 0.3842 0.7913
vn -0.4646 0.3820 0.7989
vn -0.4682 0.3841 0.7958
vn -0.4701 0.3803 0.7965
vn -0.5213 0.3763 0.7660
vn -0.5220 0.3721 0.7675
vn -0.5659 0.3802 0.7316
vn -0.6791 0.3713 0.6332
vn -0.5652 0.3843 0.7300
vn -0.5704 0.3823 0.7270
vn -0.5583 0.3840 0.7354
vn -0.5570 0.3842 0.7363
vn -0.7036 0.3723 0.6053
vn -0.8245 0.3451 0.4485
vn -0.7696 0.3530 0.5321
vn -0.5568 0.3532 0.7518
vn -0.5569 0.3532 0.7518
vn -0.5576 0.3533 0.7511
vn -0.5561 0.3531 0.7524
vn -0.4911 0.3538 0.7960
vn -0.4911 0.3529 0.7964
vn -0.4911 0.3547 0.7956
vn -0.5297 0.3985 0.7487
vn -0.5296 0.3985 0.7488
vn -0.5304 0.3988 0.7481
vn -0.5290 0.3983 0.7494
vn -0.2966 0.8464 0.4424
vn 0.1289 0.1861 0.9740
vn 0.0378 0.2494 0.9677
vn 0.4841 0.4791 0.7321
vn 0.4549 0.5244 0.7198
vn 0.4549 0.5243 0.7198
vn 0.4841 0.4792 0.7321
vn 0.4242 0.5680 0.7053
vn 0.3371 0.1628 0.9273
vn 0.3372 0.1628 0.9273
vn 0.2321 0.1545 0.9603
vn 0.2322 0.1545 0.9603
vn 0.1794 0.6722 0.7183
vn 0.1693 0.7626 0.6243
vn 0.1864 0.5700 0.8002
vn -0.4108 0.6789 0.6085
vn -0.3530 0.7688 0.5333
vn -0.4618 0.5771 0.6736
vn 0.5991 -0.1643 0.7836
vn 0.5323 -0.4295 0.7295
vn 0.5327 -0.4298 0.7291
vn 0.4246 -0.6616 0.6181
vn 0.4236 -0.6623 0.6180
vn 0.5988 -0.1634 0.7840
vn 0.6162 -0.3922 0.6830
vn 0.6161 -0.3925 0.6830
vn 0.6160 -0.3925 0.6830
vn 0.2747 0.9170 0.2892
vn 0.2746 0.9170 0.2892
vn 0.5486 0.5973 0.5850
vn 0.5487 0.5973 0.5850
vn 0.2747 0.9170 0.2894
vn 0.2748 0.9169 0.2894
vn 0.2747 0.9170 0.2893
vn 0.6740 0.1166 0.7295
vn 0.6740 0.1166 0.7294
vn 0.5487 0.5973 0.5849
vn 0.5488 0.5973 0.5849
vn 0.6161 -0.3925 0.6829
vn 0.6160 -0.3925 0.6829
vn 0.6740 0.1165 0.7294
vn 0.6741 0.1165 0.7294
vn -0.7139 0.0178 0.7000
vn -0.7140 0.0178 0.7000
vn -0.7139 0.0179 0.7000
vn 0.5998 -0.1624 0.7835
vn 0.5261 -0.4276 0.7351
vn 0.5337 -0.4283 0.7292
vn 0.5923 -0.1614 0.7894
vn 0.5181 -0.4269 0.7412
vn 0.5848 -0.1606 0.7951
vn 0.4178 -0.6603 0.6240
vn 0.4103 -0.6597 0.6297
vn 0.4255 -0.6608 0.6183
vn 0.5479 -0.4314 0.7168
vn 0.9918 -0.1239 0.0312
vn 0.6151 -0.1519 0.7736
vn 0.5275 -0.4293 0.7331
vn 0.4320 -0.6736 0.5997
vn 0.8559 -0.5113 -0.0776
vn 0.9206 -0.3673 0.1323
vn 0.7947 -0.0744 -0.6025
vn 0.7794 -0.1121 -0.6164
vn 0.8078 -0.0383 -0.5882
vn 0.4129 -0.6719 0.6149
vn 0.5960 -0.1503 0.7888
vn -0.2650 -0.1724 0.9487
vn -0.4975 0.2619 0.8270
vn -0.2641 -0.1739 0.9487
vn -0.2640 -0.1739 0.9487
vn -0.2641 -0.1738 0.9487
vn 0.7868 0.5112 0.3458
vn 0.7868 0.5113 0.3458
vn -0.4993 0.2661 0.8245
vn -0.5986 0.6385 0.4838
vn -0.5987 0.6384 0.4838
vn -0.5548 0.6661 0.4985
vn -0.5472 0.7617 0.3470
vn -0.5404 0.5558 0.6317
vn -0.5405 0.5630 0.6253
vn -0.5476 0.7647 0.3398
vn -0.5217 0.8337 0.1809
vn -0.5215 0.8365 0.1686
vn -0.5112 0.4416 0.7373
vn -0.5099 0.4281 0.7461
vn -0.5992 0.6400 0.4810
vn -0.4993 0.2662 0.8245
vn -0.4993 0.2660 0.8246
s 1
f 1/1/1 2/2/2 3/3/3
f 1/1/1 4/4/4 2/2/2
f 5/5/5 6/6/6 7/7/7
f 5/5/5 8/8/8 6/6/6
f 9/9/9 10/10/10 11/11/11
f 9/9/9 12/12/12 10/10/10
f 13/13/13 14/14/14 15/15/15
f 13/13/13 16/16/16 14/14/14
f 17/17/17 18/18/18 19/19/19
f 17/17/17 20/20/20 18/18/18
f 21/21/21 22/22/22 23/23/23
f 21/21/21 24/24/24 22/22/22
f 25/25/25 26/26/26 27/27/27
f 25/25/25 28/28/28 26/26/26
f 29/29/29 30/30/30 31/31/31
f 29/29/29 32/32/32 30/30/30
f 33/33/33 34/34/34 35/35/35
f 33/33/33 36/36/36 34/34/34
f 37/37/37 38/38/38 39/39/39
f 37/37/37 40/40/40 38/38/38
f 41/41/41 42/42/42 43/43/43
f 41/41/41 44/44/44 42/42/42
f 45/45/45 46/46/46 47/47/47
f 45/45/45 48/48/48 46/46/46
f 49/49/49 50/50/50 51/51/51
f 49/49/49 52/52/52 50/50/50
f 53/53/53 54/54/54 55/55/55
f 53/53/53 56/56/56 54/54/54
f 57/57/33 58/58/57 59/59/58
f 57/57/33 60/60/59 58/58/57
f 61/61/60 62/62/61 63/63/62
f 61/61/60 64/64/63 62/62/61
f 65/65/64 66/66/65 67/67/66
f 65/65/64 68/68/67 66/66/65
f 69/69/68 70/70/69 71/71/70
f 69/69/68 72/72/71 70/70/69
f 19/73/72 73/74/73 74/75/74
f 19/73/72 75/76/75 73/74/73
f 76/77/76 77/78/77 78/79/78
f 76/77/76 79/80/79 77/78/77
f 80/81/80 81/82/81 82/83/82
f 80/81/80 83/84/83 81/82/81
f 84/85/84 85/86/85 86/87/86
f 84/85/84 87/88/87 85/86/85
f 88/89/88 89/90/89 90/91/90
f 88/89/88 91/92/91 89/90/89
f 89/93/89 91/94/91 92/95/92
f 89/93/89 92/95/92 93/96/93
f 94/97/94 95/98/95 96/99/96
f 94/97/94 97/100/97 95/98/95
f 98/101/98 99/102/98 100/103/99
f 98/101/98 101/104/100 99/102/98
f 102/105/101 103/106/102 104/107/103
f 102/105/101 105/108/104 103/106/102
f 106/109/105 107/110/106 108/111/107
f 106/109/105 109/112/108 107/110/106
f 110/113/109 111/114/109 112/115/110
f 110/113/109 113/116/111 111/114/109
f 114/117/112 115/118/113 116/119/114
f 114/117/112 117/120/115 115/118/113
f 118/121/116 119/122/117 120/123/118
f 118/121/116 121/124/119 119/122/117
f 122/125/120 123/126/121 124/127/121
f 122/125/120 125/128/120 123/126/121
f 126/129/122 127/130/122 128/131/123
f 126/129/122 129/132/124 127/130/122
f 130/133/125 131/134/126 132/135/127
f 130/133/125 133/136/128 131/134/126
f 134/137/129 135/138/130 136/139/131
f 134/137/129 137/140/132 135/138/130
f 138/141/133 139/142/134 140/143/135
f 138/141/133 141/144/136 139/142/134
f 142/145/137 143/146/137 144/147/138
f 142/145/137 145/148/139 143/146/137
f 146/149/140 147/150/141 148/151/142
f 146/149/140 149/152/143 147/150/141
f 150/153/144 151/154/145 152/155/146
f 150/153/144 153/156/147 151/154/145
f 150/153/144 154/157/148 153/156/147
f 154/157/148 155/158/149 153/156/147
f 156/159/150 155/158/149 154/157/148
f 156/159/150 157/160/151 155/158/149
f 156/159/150 158/161/152 157/160/151
f 156/159/150 159/162/153 158/161/152
f 158/161/152 159/162/153 160/163/154
f 160/163/154 159/162/153 161/164/155
f 160/163/154 161/164/155 162/165/156
f 163/166/157 164/167/158 165/168/159
f 163/166/157 166/169/157 164/167/158
f 166/169/157 163/166/157 167/170/160
f 166/169/157 167/170/160 168/171/160
f 169/172/161 170/173/162 171/174/162
f 169/172/161 172/175/161 170/173/162
f 172/175/161 169/172/161 173/176/163
f 172/175/161 173/176/163 174/177/163
f 175/178/164 176/179/165 177/180/165
f 175/178/164 178/181/166 176/179/165
f 178/181/166 175/178/164 179/182/167
f 178/181/166 179/182/167 180/183/167
f 181/184/168 182/185/169 183/186/170
f 181/184/168 184/187/171 182/185/169
f 182/185/169 184/187/171 185/188/172
f 186/189/173 185/188/172 184/187/171
f 186/189/173 184/187/171 187/190/174
f 188/191/175 187/190/174 184/187/171
f 188/191/175 184/187/171 189/192/176
f 190/193/177 191/194/178 192/195/179
f 190/193/177 193/196/180 191/194/178
f 191/194/178 193/196/180 194/197/181
f 191/194/178 194/197/181 195/198/182
f 193/196/180 196/199/183 194/197/181
f 193/196/180 197/200/184 196/199/183
f 198/201/185 197/200/184 193/196/180
f 198/201/185 193/196/180 199/202/186
f 198/201/185 199/202/186 200/203/187
f 199/202/186 201/204/188 200/203/187
f 199/202/186 202/205/189 201/204/188
f 201/204/188 202/205/189 203/206/190
f 203/206/190 202/205/189 204/207/191
f 204/207/191 202/205/189 205/208/192
f 206/209/193 205/208/192 202/205/189
f 206/209/193 202/205/189 207/210/194
f 202/205/189 208/211/195 207/210/194
f 202/205/189 209/212/196 208/211/195
f 210/213/197 211/214/198 212/215/199
f 210/213/197 213/216/200 211/214/198
f 214/217/201 215/218/201 216/219/202
f 214/217/201 217/220/203 215/218/201
f 218/221/204 219/222/205 220/223/206
f 218/221/204 221/224/207 219/222/205
f 222/225/208 223/226/208 224/227/208
f 222/225/208 224/227/208 225/228/208
f 226/229/209 227/230/209 228/231/209
f 226/229/209 229/232/209 227/230/209
f 230/233/210 231/234/210 232/235/210
f 230/233/210 233/236/210 231/234/210
f 234/237/211 235/238/212 236/239/213
f 234/237/211 237/240/214 235/238/212
f 236/241/213 235/242/212 238/243/215
f 236/241/213 238/243/215 239/244/215
f 240/245/216 241/246/217 242/247/217
f 240/245/216 243/248/216 241/246/217
f 244/249/218 245/250/219 246/251/218
f 244/249/218 246/251/218 247/252/218
f 248/253/220 249/254/220 250/255/221
f 248/253/220 250/255/221 251/256/221
f 249/254/220 248/253/220 252/257/222
f 249/254/220 252/257/222 253/258/222
f 254/259/223 255/260/224 256/261/224
f 254/259/223 257/262/223 255/260/224
f 257/262/223 254/259/223 258/263/225
f 257/262/223 258/263/225 259/264/225
f 260/265/226 261/266/227 262/267/228
f 263/268/229 262/267/228 261/266/227
f 263/268/229 261/266/227 264/269/230
f 260/265/226 265/270/231 261/266/227
f 266/271/232 267/272/233 268/273/234
f 266/271/232 269/274/232 267/272/233
f 270/275/235 271/276/235 272/277/236
f 270/275/235 273/278/235 271/276/235
f 274/279/237 275/280/238 276/281/237
f 274/279/237 277/282/238 275/280/238
f 278/283/239 279/284/240 280/285/241
f 278/283/239 281/286/240 279/284/240
f 282/287/242 283/288/243 284/289/242
f 282/287/242 285/290/243 283/288/243
f 286/291/244 287/292/244 288/293/244
f 286/291/244 289/294/245 287/292/244
f 290/295/238 291/296/238 292/297/238
f 290/295/238 293/298/238 291/296/238
f 293/298/238 294/299/238 291/296/238
f 293/298/238 295/300/238 294/299/238
f 296/301/246 297/302/246 298/303/246
f 296/301/246 298/303/246 299/304/247
f 300/305/248 301/306/249 302/307/248
f 300/305/248 302/307/248 303/308/242
f 304/309/250 305/310/251 306/311/250
f 304/309/250 306/311/250 307/312/252
f 308/313/253 309/314/254 310/315/255
f 308/313/253 311/316/256 309/314/254
f 312/317/257 309/314/254 311/316/256
f 312/317/257 311/316/256 313/318/258
f 314/319/259 309/314/254 312/317/257
f 314/319/259 312/317/257 315/320/260
f 316/321/261 309/314/254 314/319/259
f 316/321/261 310/315/255 309/314/254
f 317/322/262 318/323/263 319/324/264
f 319/324/264 320/325/265 317/322/262
f 321/326/266 317/322/262 320/325/265
f 322/327/267 317/322/262 321/326/266
f 317/322/262 323/328/268 318/323/263
f 322/327/267 323/328/268 317/322/262
f 322/327/267 324/329/269 323/328/268
f 322/327/267 325/330/270 324/329/269
f 324/329/269 318/323/263 323/328/268
f 324/329/269 326/331/271 318/323/263
f 321/326/266 320/325/265 327/332/272
f 319/324/264 328/333/273 320/325/265
f 329/334/274 330/335/274 331/336/274
f 329/334/274 331/336/274 332/337/274
f 333/338/275 334/339/275 335/340/275
f 333/338/275 335/340/275 336/341/275
f 337/342/276 338/343/277 339/344/277
f 337/342/276 340/345/278 338/343/277
f 341/346/279 342/347/280 343/348/280
f 341/346/279 343/348/280 344/349/279
f 345/350/281 346/351/281 347/352/281
f 345/350/281 347/352/281 348/353/281
f 349/354/282 350/355/282 351/356/282
f 349/354/282 352/357/283 350/355/282
f 353/358/284 354/359/284 355/360/284
f 353/358/284 355/360/284 356/361/284
f 357/362/285 358/363/286 359/364/287
f 357/362/285 360/365/288 358/363/286
f 360/365/288 357/362/285 361/366/289
f 360/365/288 361/366/289 362/367/290
f 358/363/286 363/368/291 359/364/287
f 358/363/286 364/369/292 363/368/291
f 365/370/293 366/371/293 367/372/293
f 365/370/293 368/373/293 366/371/293
f 369/374/281 370/375/294 371/376/281
f 369/374/281 371/376/281 372/377/295
