# Blender v2.93.18 OBJ File: 'Ferrari 330 P4 14.blend'
# www.blender.org
mtllib Ferrari 330 P4 headlights.mtl
o headlights_wing_lf_ok.009
v -27.874516 -3.956501 -77.101112
v -28.817457 1.391212 -77.101112
v -34.133942 -1.678259 -77.101112
v -31.205080 -5.168731 -77.101112
v -28.817457 -4.747727 -77.101112
v -26.886133 -4.860674 -85.630371
v -33.920193 -2.890487 -77.101112
v -28.077980 -4.860674 -85.630371
v -24.803970 -7.471607 -85.630371
v -25.812302 -5.377800 -85.630371
v 27.259031 -0.466030 -77.101128
v 31.205057 1.812214 -77.101128
v 27.874493 0.599983 -77.101128
v 25.812265 -9.565412 -85.630386
v 25.069151 -8.633581 -85.630386
v 29.974129 -5.168731 -77.101128
v 32.361755 -4.747728 -77.101128
v 29.894894 -6.309630 -85.630386
v 30.160105 -7.471607 -85.630386
v 29.894894 -8.633581 -85.630386
v -31.205080 1.812214 -77.101112
v -29.894918 -6.309630 -85.630371
v -25.069180 -6.309630 -85.630371
v -25.069187 -8.633581 -85.630371
v -28.077980 -10.082540 -85.630371
v -30.160124 -7.471607 -85.630371
v 33.920158 -0.466030 -77.101128
v 33.304699 -3.956500 -77.101128
v 28.817436 1.391209 -77.101128
v 27.259031 -2.890487 -77.101128
v 28.077955 -10.082540 -85.630371
v 34.133915 -1.678262 -77.101128
v -27.045300 -1.678259 -77.101112
v -27.259045 -2.890487 -77.101112
v -25.812302 -9.565412 -85.630371
v 24.803944 -7.471607 -85.630371
v 26.886095 -10.082540 -85.630386
v 25.812265 -5.377800 -85.630386
v 28.077955 -4.860672 -85.630371
v 33.920166 -2.890487 -77.101128
v -29.974155 -5.168731 -77.101112
v 33.304699 0.599985 -77.101128
v 32.361755 1.391207 -77.101128
v -29.151825 -5.377800 -85.630363
v -29.894924 -8.633581 -85.630363
v -29.151825 -9.565412 -85.630363
v -26.886133 -10.082540 -85.630371
v -27.259052 -0.466030 -77.101112
v -27.874516 0.599983 -77.101112
v -29.974155 1.812214 -77.101112
v 27.045277 -1.678262 -77.101128
v -32.361786 1.391212 -77.101112
v 27.874493 -3.956502 -77.101128
v -33.304726 0.599985 -77.101112
v -33.920185 -0.466030 -77.101112
v 28.817436 -4.747727 -77.101128
v 31.205051 -5.168731 -77.101128
v -33.304726 -3.956499 -77.101112
v -32.361786 -4.747727 -77.101112
v 29.974129 1.812214 -77.101128
v 25.069151 -6.309630 -85.630386
v 26.886095 -4.860674 -85.630386
v 29.151785 -5.377800 -85.630386
v 29.151785 -9.565412 -85.630386
v -30.038639 -6.251657 -80.525490
v -30.805073 -5.694810 -80.525490
v -30.038639 -8.053660 -80.525490
v -29.745882 -7.152661 -80.525490
v -30.805073 -8.610512 -80.525490
v -31.752447 -8.610513 -80.525490
v -32.811638 -7.152661 -80.525490
v 30.805050 -8.610511 -80.525497
v 31.752424 -8.610511 -80.525497
v 32.518856 -8.053660 -80.525497
v -30.324768 -6.459542 -81.607437
v -31.643150 -8.274152 -81.607437
v -30.914370 -8.274151 -81.607437
v -32.232758 -7.845778 -81.607437
v -31.752447 -5.694810 -80.525490
v -32.518883 -6.251660 -80.525490
v -30.914370 -6.031169 -81.607437
v -31.643150 -6.031168 -81.607437
v -32.518883 -8.053661 -80.525490
v -32.232758 -6.459542 -81.607437
v -32.457966 -7.152663 -81.607437
v 32.518864 -6.251660 -80.525497
v 32.232731 -7.845778 -81.607445
v 31.643131 -8.274151 -81.607445
v 32.457939 -7.152661 -81.607445
v 30.805050 -5.694810 -80.525497
v -30.324768 -7.845778 -81.607437
v 31.752428 -5.694808 -80.525497
v 30.324745 -6.459542 -81.607445
v -30.099558 -7.152663 -81.607437
v 30.038614 -6.251660 -80.525497
v 30.914341 -6.031172 -81.607445
v 32.811615 -7.152661 -80.525497
v 31.643131 -6.031168 -81.607445
v 32.232731 -6.459542 -81.607445
v 30.324745 -7.845778 -81.607445
v 30.038614 -8.053660 -80.525497
v 30.914341 -8.274152 -81.607445
v 29.745859 -7.152663 -80.525497
v 30.099533 -7.152660 -81.607445
vt 0.988360 0.732347
vt 0.974749 0.654632
vt 0.974749 0.810063
vt 0.875515 0.929130
vt 0.723478 0.508575
vt 0.875515 0.535565
vt 0.935558 0.586290
vt 0.935558 0.878404
vt 0.801860 0.508575
vt 0.649823 0.535565
vt 0.589779 0.586290
vt 0.589779 0.878404
vt 0.536978 0.732347
vt 0.550588 0.654632
vt 0.723478 0.956120
vt 0.649823 0.929130
vt 0.801860 0.956120
vt 0.550589 0.810063
vt 0.554761 0.351297
vt 0.618252 0.432295
vt 0.532102 0.250294
vt 0.618252 0.068294
vt 0.967072 0.351297
vt 0.811832 0.477244
vt 0.710001 0.477244
vt 0.554761 0.149292
vt 0.903580 0.432295
vt 0.989731 0.250294
vt 0.967072 0.149292
vt 0.811832 0.023344
vt 0.903580 0.068294
vt 0.710001 0.023344
vt 0.935558 0.878404
vt 0.875515 0.929130
vt 0.974749 0.810063
vt 0.974749 0.654632
vt 0.723478 0.508575
vt 0.589779 0.878404
vt 0.723478 0.956120
vt 0.801860 0.956120
vt 0.988360 0.732347
vt 0.649823 0.929130
vt 0.550589 0.810063
vt 0.536978 0.732347
vt 0.589779 0.586290
vt 0.550588 0.654632
vt 0.649823 0.535565
vt 0.801860 0.508575
vt 0.875515 0.535565
vt 0.935558 0.586290
vt 0.710001 0.023344
vt 0.811832 0.023344
vt 0.618252 0.068294
vt 0.967072 0.351297
vt 0.967072 0.149292
vt 0.903580 0.068294
vt 0.618252 0.432295
vt 0.811832 0.477244
vt 0.903580 0.432295
vt 0.532102 0.250294
vt 0.554761 0.351297
vt 0.554761 0.149292
vt 0.710001 0.477244
vt 0.989731 0.250294
vt 0.324618 0.241542
vt 0.370491 0.241542
vt 0.341758 0.294737
vt 0.378870 0.215538
vt 0.341758 0.188347
vt 0.400806 0.199466
vt 0.386630 0.155471
vt 0.427920 0.199466
vt 0.442096 0.155471
vt 0.378870 0.267546
vt 0.400806 0.283617
vt 0.449856 0.267546
vt 0.449856 0.215538
vt 0.386630 0.327612
vt 0.442096 0.327612
vt 0.427920 0.283617
vt 0.486968 0.294737
vt 0.504108 0.241542
vt 0.458234 0.241542
vt 0.486968 0.188347
vt 0.504108 0.241542
vt 0.486968 0.294737
vt 0.458234 0.241542
vt 0.449856 0.215538
vt 0.427920 0.199466
vt 0.378870 0.215538
vt 0.378870 0.267546
vt 0.427920 0.283617
vt 0.449856 0.267546
vt 0.442096 0.327612
vt 0.486968 0.188347
vt 0.442096 0.155471
vt 0.400806 0.199466
vt 0.386630 0.155471
vt 0.341757 0.188347
vt 0.370491 0.241542
vt 0.324618 0.241542
vt 0.341757 0.294737
vt 0.400806 0.283617
vt 0.386630 0.327612
vn 0.0000 0.0000 -1.0000
vn 0.9505 0.0000 -0.3107
vn 0.6539 0.0000 -0.7566
vn 0.7690 0.5587 -0.3107
vn 0.5290 -0.3844 -0.7566
vn 0.7690 -0.5587 -0.3107
vn 0.2021 -0.6219 -0.7566
vn 0.2937 -0.9040 -0.3107
vn -0.2021 -0.6219 -0.7566
vn -0.2937 -0.9040 -0.3107
vn 0.5290 0.3844 -0.7566
vn 0.2021 0.6219 -0.7566
vn -0.5290 0.3844 -0.7566
vn -0.5290 -0.3844 -0.7566
vn 0.2937 0.9040 -0.3107
vn -0.2937 0.9040 -0.3107
vn -0.2021 0.6219 -0.7566
vn -0.7690 0.5587 -0.3107
vn -0.9505 0.0000 -0.3107
vn -0.6539 0.0000 -0.7566
vn -0.7690 -0.5587 -0.3107
vn -0.7689 0.5587 -0.3107
vn -0.7689 -0.5587 -0.3107
vn 0.6539 0.0000 -0.7565
vn 0.2020 0.6219 -0.7566
usemtl glass
s 1
f 33/1/1 34/2/1 48/3/1
f 34/2/1 2/4/1 48/3/1
f 4/5/1 2/4/1 34/2/1
f 5/6/1 4/5/1 34/2/1
f 1/7/1 5/6/1 34/2/1
f 2/4/1 49/8/1 48/3/1
f 41/9/1 4/5/1 5/6/1
f 59/10/1 58/11/1 4/5/1
f 58/11/1 54/12/1 4/5/1
f 3/13/1 54/12/1 58/11/1
f 7/14/1 3/13/1 58/11/1
f 54/12/1 2/4/1 4/5/1
f 21/15/1 2/4/1 54/12/1
f 52/16/1 21/15/1 54/12/1
f 50/17/1 2/4/1 21/15/1
f 55/18/1 54/12/1 3/13/1
f 22/19/1 44/20/1 26/21/1
f 44/20/1 46/22/1 26/21/1
f 23/23/1 46/22/1 44/20/1
f 6/24/1 23/23/1 44/20/1
f 8/25/1 6/24/1 44/20/1
f 46/22/1 45/26/1 26/21/1
f 10/27/1 23/23/1 6/24/1
f 9/28/1 24/29/1 23/23/1
f 24/29/1 47/30/1 23/23/1
f 35/31/1 47/30/1 24/29/1
f 47/30/1 46/22/1 23/23/1
f 25/32/1 46/22/1 47/30/1
f 13/33/1 29/34/1 11/35/1
f 29/34/1 30/36/1 11/35/1
f 57/37/1 30/36/1 29/34/1
f 42/38/1 57/37/1 29/34/1
f 12/39/1 42/38/1 29/34/1
f 60/40/1 12/39/1 29/34/1
f 30/36/1 51/41/1 11/35/1
f 43/42/1 42/38/1 12/39/1
f 27/43/1 32/44/1 42/38/1
f 32/44/1 28/45/1 42/38/1
f 40/46/1 28/45/1 32/44/1
f 28/45/1 57/37/1 42/38/1
f 17/47/1 57/37/1 28/45/1
f 16/48/1 56/49/1 57/37/1
f 56/49/1 30/36/1 57/37/1
f 53/50/1 30/36/1 56/49/1
f 31/51/1 37/52/1 64/53/1
f 37/52/1 61/54/1 64/53/1
f 15/55/1 61/54/1 37/52/1
f 14/56/1 15/55/1 37/52/1
f 61/54/1 63/57/1 64/53/1
f 62/58/1 63/57/1 61/54/1
f 38/59/1 62/58/1 61/54/1
f 63/57/1 19/60/1 64/53/1
f 18/61/1 19/60/1 63/57/1
f 19/60/1 20/62/1 64/53/1
f 39/63/1 63/57/1 62/58/1
f 36/64/1 61/54/1 15/55/1
usemtl wing_lf_ok.4
f 68/65/2 94/66/3 65/67/4
f 94/66/3 68/65/2 91/68/5
f 67/69/6 91/68/5 68/65/2
f 91/68/5 67/69/6 77/70/7
f 69/71/8 77/70/7 67/69/6
f 77/70/7 69/71/8 76/72/9
f 70/73/10 76/72/9 69/71/8
f 75/74/11 65/67/4 94/66/3
f 81/75/12 75/74/11 94/66/3
f 84/76/13 81/75/12 94/66/3
f 78/77/14 84/76/13 94/66/3
f 77/70/7 78/77/14 94/66/3
f 91/68/5 77/70/7 94/66/3
f 65/67/4 75/74/11 66/78/15
f 81/75/12 66/78/15 75/74/11
f 66/78/15 81/75/12 79/79/16
f 82/80/17 79/79/16 81/75/12
f 82/80/17 81/75/12 84/76/13
f 84/76/13 80/81/18 82/80/17
f 80/81/18 84/76/13 71/82/19
f 85/83/20 71/82/19 84/76/13
f 85/83/20 84/76/13 78/77/14
f 79/79/16 82/80/17 80/81/18
f 71/82/19 85/83/20 83/84/21
f 78/77/14 83/84/21 85/83/20
f 83/84/21 78/77/14 70/73/10
f 76/72/9 70/73/10 78/77/14
f 76/72/9 78/77/14 77/70/7
f 103/85/19 95/86/22 104/87/20
f 104/87/20 100/88/14 103/85/19
f 100/88/14 104/87/20 102/89/9
f 102/89/9 104/87/20 87/90/5
f 87/90/5 104/87/20 99/91/11
f 104/87/20 96/92/17 99/91/11
f 93/93/13 96/92/17 104/87/20
f 93/93/13 104/87/20 95/86/22
f 95/86/22 90/94/16 93/93/13
f 101/95/23 103/85/19 100/88/14
f 100/88/14 102/89/9 101/95/23
f 72/96/10 101/95/23 102/89/9
f 102/89/9 88/97/7 72/96/10
f 88/97/7 102/89/9 87/90/5
f 88/97/7 87/90/5 73/98/8
f 74/99/6 73/98/8 87/90/5
f 87/90/5 89/100/24 74/99/6
f 89/100/24 87/90/5 99/91/11
f 73/98/8 72/96/10 88/97/7
f 97/101/2 74/99/6 89/100/24
f 89/100/24 99/91/11 97/101/2
f 86/102/4 97/101/2 99/91/11
f 99/91/11 98/103/25 86/102/4
f 96/92/17 98/103/25 99/91/11
f 98/103/25 96/92/17 92/104/15
f 90/94/16 92/104/15 96/92/17
f 96/92/17 93/93/13 90/94/16
f 92/104/15 86/102/4 98/103/25
