# Blender v2.93.18 OBJ File: 'Ferrari 330 P4 14.blend'
# www.blender.org
mtllib Ferrari 330 P4 steering logo.mtl
o steering_logo_330P4F67_interior.117
v 0.727576 -0.727542 0.432289
v -0.571539 -0.855345 0.432288
v 0.000004 -1.028916 0.432288
v 0.393764 -0.950590 0.432288
v -0.950617 -0.393736 0.432287
v -0.727569 -0.727542 0.432289
v -0.727569 0.727602 0.432287
v 0.855377 0.571570 0.432288
v -1.028941 0.000030 0.432287
v -0.200695 1.009013 0.432288
v 1.028948 0.000030 0.432287
v 0.000004 1.028973 0.432288
v 0.950624 0.393788 0.432288
v 0.200703 -1.008953 0.432289
v -0.393757 -0.950590 0.432288
v -0.200695 -1.008953 0.432289
v 0.000004 0.000030 0.432287
v 1.008987 0.200728 0.432287
v 0.950624 -0.393729 0.432288
v 0.855379 -0.571517 0.432288
v 0.571546 -0.855345 0.432288
v -0.855370 -0.571517 0.432288
v -1.008980 -0.200671 0.432288
v 0.393764 0.950647 0.432288
v -1.008980 0.200728 0.432287
v -0.393757 0.950647 0.432288
v 0.727576 0.727602 0.432287
v 0.200703 1.009013 0.432288
v 1.008987 -0.200671 0.432288
v 0.571546 0.855405 0.432286
v -0.950617 0.393788 0.432288
v -0.855371 0.571570 0.432288
v -0.571539 0.855405 0.432286
vt 0.533117 0.461217
vt 0.296968 0.303269
vt 0.564535 0.414244
vt 0.501699 0.508190
vt 0.454697 0.539564
vt 0.407695 0.570938
vt 0.352264 0.581937
vt 0.296834 0.592937
vt 0.241413 0.581886
vt 0.575586 0.358824
vt 0.586636 0.303404
vt 0.575637 0.247972
vt 0.564637 0.192541
vt 0.533263 0.145539
vt 0.501889 0.098538
vt 0.454917 0.067120
vt 0.407944 0.035701
vt 0.352524 0.024651
vt 0.297103 0.013602
vt 0.241672 0.024600
vt 0.186242 0.035599
vt 0.139240 0.066973
vt 0.092238 0.098348
vt 0.060820 0.145321
vt 0.029402 0.192294
vt 0.018351 0.247714
vt 0.007300 0.303134
vt 0.018299 0.358564
vt 0.029298 0.413995
vt 0.060673 0.460997
vt 0.092047 0.507999
vt 0.139020 0.539418
vt 0.185993 0.570836
vn 0.0000 0.0000 1.0000
usemtl wing_lf_ok.3
s 1
f 8/1/1 17/2/1 13/3/1
f 8/1/1 27/4/1 17/2/1
f 30/5/1 17/2/1 27/4/1
f 30/5/1 24/6/1 17/2/1
f 28/7/1 17/2/1 24/6/1
f 28/7/1 12/8/1 17/2/1
f 10/9/1 17/2/1 12/8/1
f 18/10/1 13/3/1 17/2/1
f 18/10/1 17/2/1 11/11/1
f 29/12/1 11/11/1 17/2/1
f 29/12/1 17/2/1 19/13/1
f 20/14/1 19/13/1 17/2/1
f 20/14/1 17/2/1 1/15/1
f 21/16/1 1/15/1 17/2/1
f 21/16/1 17/2/1 4/17/1
f 14/18/1 4/17/1 17/2/1
f 14/18/1 17/2/1 3/19/1
f 16/20/1 3/19/1 17/2/1
f 16/20/1 17/2/1 15/21/1
f 2/22/1 15/21/1 17/2/1
f 2/22/1 17/2/1 6/23/1
f 22/24/1 6/23/1 17/2/1
f 22/24/1 17/2/1 5/25/1
f 23/26/1 5/25/1 17/2/1
f 23/26/1 17/2/1 9/27/1
f 25/28/1 9/27/1 17/2/1
f 25/28/1 17/2/1 31/29/1
f 32/30/1 31/29/1 17/2/1
f 32/30/1 17/2/1 7/31/1
f 33/32/1 7/31/1 17/2/1
f 33/32/1 17/2/1 26/33/1
f 10/9/1 26/33/1 17/2/1
