# Blender v2.93.18 OBJ File: 'Ferrari 330 P4 14.blend'
# www.blender.org
mtllib Ferrari 330 P4 wheel r tire.mtl
o wheel_r_tire_3DWheel_Rear_L_0
v -6.708648 3.754888 -14.013447
v 6.326759 3.754888 -14.013447
v -6.708648 0.000002 -14.507792
v 6.326759 0.000002 -14.507792
v -6.708648 7.253894 -12.564117
v 6.326759 7.253894 -12.564117
v -6.708648 3.754888 -14.013447
v 6.326759 3.754888 -14.013447
v -6.708648 10.258559 -10.258555
v 6.326759 10.258559 -10.258555
v -6.708648 7.253894 -12.564117
v 6.326759 7.253894 -12.564117
v -6.708648 12.564119 -7.253894
v 6.326759 12.564119 -7.253894
v -6.708648 10.258559 -10.258555
v 6.326759 10.258559 -10.258555
v -6.708648 14.013449 -3.754891
v 6.326759 14.013449 -3.754891
v -6.708648 12.564119 -7.253894
v 6.326759 12.564119 -7.253894
v -6.708648 14.507792 0.000002
v 6.326759 14.507792 0.000002
v -6.708648 14.013449 -3.754891
v 6.326759 14.013449 -3.754891
v -6.708648 14.013447 3.754895
v 6.326759 14.013447 3.754895
v -6.708648 14.507792 0.000002
v 6.326759 14.507792 0.000002
v -6.708648 12.564117 7.253898
v 6.326759 12.564117 7.253898
v -6.708648 14.013447 3.754895
v 6.326759 14.013447 3.754895
v -6.708648 10.258555 10.258555
v 6.326759 10.258555 10.258555
v -6.708648 12.564117 7.253898
v 6.326759 12.564117 7.253898
v -6.708648 7.253891 12.564116
v 6.326759 7.253891 12.564116
v -6.708648 10.258555 10.258555
v 6.326759 10.258555 10.258555
v -6.708648 3.754883 14.013449
v 6.326759 3.754883 14.013449
v -6.708648 7.253891 12.564116
v 6.326759 7.253891 12.564116
v -6.708648 -0.000002 14.507792
v 6.326759 -0.000002 14.507792
v -6.708648 3.754883 14.013449
v 6.326759 3.754883 14.013449
v -6.708648 -3.754888 14.013447
v 6.326759 -3.754888 14.013447
v -6.708648 -0.000002 14.507792
v 6.326759 -0.000002 14.507792
v -6.708648 -7.253902 12.564114
v 6.326759 -7.253902 12.564114
v -6.708648 -3.754888 14.013447
v 6.326759 -3.754888 14.013447
v -6.708648 -10.258559 10.258552
v 6.326759 -10.258559 10.258552
v -6.708648 -7.253902 12.564114
v 6.326759 -7.253902 12.564114
v -6.708648 -12.564116 7.253894
v 6.326759 -12.564116 7.253894
v -6.708648 -10.258559 10.258552
v 6.326759 -10.258559 10.258552
v -6.708648 -14.013449 3.754890
v 6.326759 -14.013449 3.754890
v -6.708648 -12.564116 7.253894
v 6.326759 -12.564116 7.253894
v -6.708648 -14.507792 -0.000002
v 6.326759 -14.507792 -0.000002
v -6.708648 -14.013449 3.754890
v 6.326759 -14.013449 3.754890
v -6.708648 -14.013447 -3.754895
v 6.326759 -14.013447 -3.754895
v -6.708648 -14.507792 -0.000002
v 6.326759 -14.507792 -0.000002
v -6.708648 -12.564114 -7.253898
v 6.326759 -12.564114 -7.253898
v -6.708648 -14.013447 -3.754895
v 6.326759 -14.013447 -3.754895
v -6.708648 -10.258555 -10.258559
v 6.326759 -10.258555 -10.258559
v -6.708648 -12.564114 -7.253898
v 6.326759 -12.564114 -7.253898
v -6.708648 -3.754883 -14.013449
v 6.326759 -3.754883 -14.013449
v -6.708648 -7.253899 -12.564119
v 6.326759 -7.253899 -12.564119
v -6.708648 0.000002 -14.507792
v 6.326759 0.000002 -14.507792
v -6.708648 -3.754883 -14.013449
v 6.326759 -3.754883 -14.013449
v 7.496048 10.452022 6.034486
v 6.326759 12.564117 7.253898
v 7.496048 8.534050 8.534043
v 6.326759 14.013447 3.754895
v 7.496048 11.657715 3.123679
v 6.846443 8.215488 4.743218
v 6.846443 6.707924 6.707922
v 6.846443 4.743215 8.215490
v 6.846443 2.455268 9.163190
v 7.496048 6.034482 10.452028
v 6.326759 10.258555 10.258555
v 7.496048 3.123664 11.657721
v 6.326759 7.253891 12.564116
v 6.326759 3.754883 14.013449
v 6.326759 -0.000002 14.507792
v 7.496048 -0.000002 12.068959
v 7.496048 -3.123667 11.657719
v 6.846443 -0.000002 9.486433
v 6.846443 -2.455271 9.163190
v 6.846443 -4.743218 8.215488
v 6.846443 -6.707926 6.707920
v 7.496048 -6.034486 10.452026
v 7.496048 -8.534052 8.534041
v 6.326759 -7.253902 12.564114
v 6.326759 -3.754888 14.013447
v 6.326759 -10.258559 10.258552
v 6.326759 -12.564116 7.253894
v 7.496048 -10.452024 6.034482
v 7.496048 -11.657717 3.123675
v 6.846443 -8.215490 4.743215
v 6.846443 -9.163198 2.455268
v 6.846443 -9.486437 -0.000001
v 6.846443 -9.163198 -2.455270
v 7.496048 -12.068959 -0.000002
v 7.496048 -11.657715 -3.123680
v 6.326759 -14.507792 -0.000002
v 6.326759 -14.013449 3.754890
v 6.326759 -14.013447 -3.754895
v 6.326759 -12.564114 -7.253898
v 7.496048 -10.452022 -6.034486
v 7.496048 -8.534050 -8.534043
v 6.846443 -8.215488 -4.743222
v 6.846443 -6.707924 -6.707922
v 6.846443 -4.743215 -8.215494
v 6.846443 -2.455268 -9.163190
v 7.496048 -6.034482 -10.452028
v 7.496048 -3.123664 -11.657721
v 6.326759 -7.253899 -12.564119
v 6.326759 -10.258555 -10.258559
v 6.326759 -3.754883 -14.013449
v 6.326759 0.000002 -14.507792
v 7.496048 0.000002 -12.068963
v 7.496048 3.123667 -11.657719
v 6.846443 0.000002 -9.486433
v 6.846443 2.455271 -9.163190
v 6.846443 4.743218 -8.215492
v 6.846443 6.707926 -6.707920
v 7.496048 6.034486 -10.452026
v 7.496048 8.534052 -8.534041
v 6.326759 7.253894 -12.564117
v 6.326759 3.754888 -14.013447
v 6.326759 10.258559 -10.258555
v 6.326759 12.564119 -7.253894
v 7.496048 10.452024 -6.034482
v 7.496048 11.657717 -3.123676
v 6.846443 9.163198 -2.455267
v 6.846443 8.215490 -4.743219
v 6.846443 9.486437 0.000002
v 7.496048 12.068963 0.000002
v 6.846443 9.163198 2.455271
v 6.326759 14.507792 0.000002
v 6.326759 14.013449 -3.754891
v -2.811017 4.444936 -4.444943
v -2.811017 5.600955 -2.853825
v -2.811017 2.853822 -5.600954
v -2.811017 4.444943 4.444945
v -2.811017 2.853831 5.600955
v -2.811017 5.600954 2.853830
v -2.811017 0.983360 6.208704
v -2.811017 0.983362 -6.208708
v -2.811017 -0.983362 6.208708
v -2.811017 -2.853822 5.600950
v -2.811017 -0.983360 -6.208708
v -2.811017 -2.853831 -5.600955
v -2.811017 -4.444936 4.444939
v -2.811017 -4.444943 -4.444945
v -2.811017 -5.600954 -2.853832
v -2.811017 -5.600955 2.853825
v -2.811017 -6.208704 0.983360
v -2.811017 -6.208704 -0.983363
v -6.708643 4.959046 -4.959049
v -6.708643 6.073569 -3.506578
v -6.708648 10.258559 -10.258555
v -6.708648 7.253894 -12.564117
v -6.708643 3.506576 -6.073573
v -6.708643 1.815134 -6.774189
v -6.708648 3.754888 -14.013447
v -6.708648 0.000002 -14.507792
v -6.708643 -0.000004 -7.013157
v -6.708648 -3.754883 -14.013449
v -6.708648 -7.253899 -12.564119
v -6.708643 -1.815142 -6.774189
v -6.708643 -3.506584 -6.073574
v -6.708643 -4.959053 -4.959051
v -6.708648 -10.258555 -10.258559
v -6.708648 -12.564114 -7.253898
v -6.708643 -6.073576 -3.506580
v -6.708648 -14.013447 -3.754895
v -6.708643 -6.774198 -1.815140
v -6.708648 -14.507792 -0.000002
v -6.708643 -7.013162 -0.000002
v -6.708648 -14.013449 3.754890
v -6.708648 -12.564116 7.253894
v -6.708643 -6.774199 1.815136
v -6.708643 -6.073577 3.506575
v -6.708643 -4.959055 4.959044
v -6.708648 -10.258559 10.258552
v -6.708648 -7.253902 12.564114
v -6.708643 -3.506586 6.073568
v -6.708648 -3.754888 14.013447
v -6.708643 -1.815144 6.774185
v -6.708648 -0.000002 14.507792
v -6.708643 -0.000006 7.013157
v -6.708648 3.754883 14.013449
v -6.708648 7.253891 12.564116
v -6.708643 1.815132 6.774186
v -6.708643 3.506574 6.073569
v -6.708643 4.959044 4.959046
v -6.708648 10.258555 10.258555
v -6.708648 12.564117 7.253898
v -6.708643 6.073568 3.506577
v -6.708648 14.013447 3.754895
v -6.708648 14.507792 0.000002
v -6.708643 6.774189 1.815138
v -6.708643 7.013149 -0.000000
v -6.708648 14.013449 -3.754891
v -6.708643 6.774189 -1.815138
v -6.708648 12.564119 -7.253894
v -6.708648 -7.253899 -12.564119
v 6.326759 -7.253899 -12.564119
v -6.708648 -10.258555 -10.258559
v 6.326759 -10.258555 -10.258559
v -0.039372 2.631061 -1.512423
v -0.039372 3.018389 -0.320331
v -0.039372 1.574783 -1.572351
v -0.039372 2.204300 0.365098
v -0.039372 1.991849 1.018954
v -0.039372 1.018586 -1.976456
v -0.039372 -1.991838 1.018954
v -0.039372 -1.018575 -1.976456
v -0.039372 0.626724 -2.968659
v -0.039372 -0.626713 -2.968659
v -0.039372 -1.574773 -1.572351
v -0.039372 -3.018379 -0.320331
v -0.039372 -2.631050 -1.512424
v -0.039372 -2.204289 0.365098
v -0.039372 0.343751 2.216362
v -0.039372 -2.252797 2.035910
v -0.039372 -0.343741 2.216362
v -0.039372 -1.238750 2.772662
v -0.039372 2.252807 2.035911
v -0.039372 1.238759 2.772662
v -0.212601 2.864957 -2.968526
v -0.212601 2.864957 2.971390
v -0.212601 -2.864946 -2.968526
v -0.212601 -2.864947 2.971390
vt 0.755000 0.994000
vt 0.995000 0.994000
vt 0.755000 0.898000
vt 0.995000 0.898000
vt 0.755000 0.994000
vt 0.995000 0.994000
vt 0.755000 0.898000
vt 0.995000 0.898000
vt 0.755000 0.994000
vt 0.995000 0.994000
vt 0.755000 0.898000
vt 0.995000 0.898000
vt 0.755000 0.994000
vt 0.995000 0.994000
vt 0.755000 0.898000
vt 0.995000 0.898000
vt 0.755000 0.994000
vt 0.995000 0.994000
vt 0.755000 0.898000
vt 0.995000 0.898000
vt 0.755000 0.994000
vt 0.995000 0.994000
vt 0.755000 0.898000
vt 0.995000 0.898000
vt 0.755000 0.994000
vt 0.995000 0.994000
vt 0.755000 0.898000
vt 0.995000 0.898000
vt 0.755000 0.994000
vt 0.995000 0.994000
vt 0.755000 0.898000
vt 0.995000 0.898000
vt 0.755000 0.994000
vt 0.995000 0.994000
vt 0.755000 0.898000
vt 0.995000 0.898000
vt 0.755000 0.994000
vt 0.995000 0.994000
vt 0.755000 0.898000
vt 0.995000 0.898000
vt 0.755000 0.994000
vt 0.995000 0.994000
vt 0.755000 0.898000
vt 0.995000 0.898000
vt 0.755000 0.994000
vt 0.995000 0.994000
vt 0.755000 0.898000
vt 0.995000 0.898000
vt 0.755000 0.994000
vt 0.995000 0.994000
vt 0.755000 0.898000
vt 0.995000 0.898000
vt 0.755000 0.994000
vt 0.995000 0.994000
vt 0.755000 0.898000
vt 0.995000 0.898000
vt 0.755000 0.994000
vt 0.995000 0.994000
vt 0.755000 0.898000
vt 0.995000 0.898000
vt 0.755000 0.994000
vt 0.995000 0.994000
vt 0.755000 0.898000
vt 0.995000 0.898000
vt 0.755000 0.994000
vt 0.995000 0.994000
vt 0.755000 0.898000
vt 0.995000 0.898000
vt 0.755000 0.994000
vt 0.995000 0.994000
vt 0.755000 0.898000
vt 0.995000 0.898000
vt 0.755000 0.994000
vt 0.995000 0.994000
vt 0.755000 0.898000
vt 0.995000 0.898000
vt 0.755000 0.994000
vt 0.995000 0.994000
vt 0.755000 0.898000
vt 0.995000 0.898000
vt 0.755000 0.994000
vt 0.995000 0.994000
vt 0.755000 0.898000
vt 0.995000 0.898000
vt 0.755000 0.994000
vt 0.995000 0.994000
vt 0.755000 0.898000
vt 0.995000 0.898000
vt 0.755000 0.994000
vt 0.995000 0.994000
vt 0.755000 0.898000
vt 0.995000 0.898000
vt 0.035659 0.873750
vt 0.071690 0.852947
vt 0.010933 0.814058
vt 0.104411 0.895589
vt 0.130201 0.869799
vt 0.051122 0.803289
vt 0.103276 0.834711
vt 0.165289 0.896724
vt 0.147053 0.928309
vt 0.206150 0.913649
vt 0.074991 0.925009
vt 0.126250 0.964341
vt 0.196711 0.948878
vt 0.185942 0.989067
vt 0.250000 0.997500
vt 0.250000 0.955894
vt 0.303289 0.948878
vt 0.293850 0.913649
vt 0.250000 0.919422
vt 0.334711 0.896724
vt 0.352947 0.928309
vt 0.369799 0.869799
vt 0.395589 0.895589
vt 0.373750 0.964341
vt 0.314058 0.989067
vt 0.425009 0.925009
vt 0.464341 0.873750
vt 0.428309 0.852947
vt 0.448878 0.803289
vt 0.413649 0.793850
vt 0.396724 0.834711
vt 0.419422 0.750000
vt 0.455894 0.750000
vt 0.413649 0.706150
vt 0.448878 0.696711
vt 0.497500 0.750000
vt 0.489067 0.814058
vt 0.489067 0.685942
vt 0.464341 0.626250
vt 0.428309 0.647053
vt 0.395589 0.604411
vt 0.369799 0.630201
vt 0.396724 0.665289
vt 0.334711 0.603276
vt 0.352947 0.571691
vt 0.293850 0.586351
vt 0.303289 0.551122
vt 0.373750 0.535659
vt 0.425009 0.574991
vt 0.314058 0.510933
vt 0.250000 0.502500
vt 0.250000 0.544106
vt 0.196711 0.551122
vt 0.206150 0.586351
vt 0.250000 0.580578
vt 0.165289 0.603276
vt 0.147053 0.571691
vt 0.130201 0.630201
vt 0.104411 0.604411
vt 0.126250 0.535659
vt 0.185942 0.510933
vt 0.074991 0.574991
vt 0.035659 0.626250
vt 0.071690 0.647053
vt 0.051122 0.696711
vt 0.086351 0.706150
vt 0.103276 0.665289
vt 0.080578 0.750000
vt 0.044106 0.750000
vt 0.086351 0.793850
vt 0.002500 0.750000
vt 0.010933 0.685942
vt 0.868150 0.571657
vt 0.854277 0.590752
vt 0.868150 0.678343
vt 0.887244 0.557784
vt 0.854277 0.659248
vt 0.887244 0.692216
vt 0.909691 0.699509
vt 0.909691 0.550490
vt 0.933294 0.699509
vt 0.955741 0.692216
vt 0.933294 0.550491
vt 0.955741 0.557784
vt 0.974835 0.571657
vt 0.974835 0.678343
vt 0.988708 0.590752
vt 0.988708 0.659248
vt 0.996002 0.636801
vt 0.996002 0.613199
vt 0.130436 0.630436
vt 0.103565 0.665456
vt 0.074991 0.574991
vt 0.126250 0.535659
vt 0.165456 0.603565
vt 0.206237 0.586673
vt 0.185942 0.510933
vt 0.250000 0.502500
vt 0.314058 0.510933
vt 0.250000 0.580912
vt 0.373750 0.535659
vt 0.293763 0.586673
vt 0.334544 0.603565
vt 0.369564 0.630436
vt 0.425009 0.574991
vt 0.464341 0.626250
vt 0.489067 0.685942
vt 0.396435 0.665456
vt 0.497500 0.750000
vt 0.413327 0.706237
vt 0.419088 0.750000
vt 0.489067 0.814058
vt 0.464341 0.873750
vt 0.413327 0.793763
vt 0.396435 0.834544
vt 0.425009 0.925009
vt 0.369564 0.869564
vt 0.373750 0.964341
vt 0.334544 0.896435
vt 0.314058 0.989067
vt 0.250000 0.997500
vt 0.293763 0.913327
vt 0.185942 0.989067
vt 0.250000 0.919088
vt 0.126250 0.964341
vt 0.206237 0.913327
vt 0.165456 0.896435
vt 0.074991 0.925009
vt 0.130436 0.869564
vt 0.035659 0.873750
vt 0.010933 0.814058
vt 0.103565 0.834544
vt 0.002500 0.750000
vt 0.086673 0.793763
vt 0.080912 0.750000
vt 0.010933 0.685942
vt 0.086673 0.706237
vt 0.035659 0.626250
vt 0.755000 0.994000
vt 0.995000 0.994000
vt 0.755000 0.898000
vt 0.995000 0.898000
vt 0.214001 0.729127
vt 0.208702 0.745437
vt 0.228453 0.728307
vt 0.219840 0.754816
vt 0.222747 0.763762
vt 0.236063 0.722778
vt 0.263936 0.722778
vt 0.277253 0.763762
vt 0.241425 0.709202
vt 0.258575 0.709202
vt 0.271547 0.728307
vt 0.280160 0.754816
vt 0.285999 0.729127
vt 0.291298 0.745437
vt 0.254703 0.780145
vt 0.245297 0.780145
vt 0.280823 0.777676
vt 0.266949 0.787757
vt 0.219177 0.777676
vt 0.233051 0.787757
vt 0.001070 0.918737
vt 0.001070 0.984557
vt 0.064563 0.918737
vt 0.064563 0.984557
vn 0.0000 0.2588 -0.9659
vn 0.0000 -0.0000 -1.0000
vn 0.0000 0.5000 -0.8660
vn 0.0000 0.7071 -0.7071
vn 0.0000 0.8660 -0.5000
vn 0.0000 0.9659 -0.2588
vn 0.0000 1.0000 0.0000
vn 0.0000 0.9659 0.2588
vn 0.0000 0.8660 0.5000
vn 0.0000 0.7071 0.7071
vn 0.0000 0.5000 0.8660
vn 0.0000 0.2588 0.9659
vn 0.0000 -0.0000 1.0000
vn 0.0000 -0.2588 0.9659
vn 0.0000 -0.5000 0.8660
vn 0.0000 -0.7071 0.7071
vn 0.0000 -0.8660 0.5000
vn 0.0000 -0.9659 0.2588
vn 0.0000 -1.0000 -0.0000
vn 0.0000 -0.9659 -0.2588
vn 0.0000 -0.8660 -0.5000
vn 0.0000 -0.7071 -0.7071
vn 0.0000 -0.2588 -0.9659
vn -0.0001 -0.2588 -0.9659
vn 0.0000 -0.5000 -0.8660
vn 0.9017 0.3744 0.2162
vn 0.9950 0.0866 0.0500
vn 0.9017 0.4176 0.1119
vn 0.9950 0.0707 0.0707
vn 0.9698 -0.1725 -0.1725
vn 0.9950 0.0965 0.0259
vn 0.9698 -0.2113 -0.1220
vn 0.9698 -0.1220 -0.2113
vn 0.9950 0.0500 0.0866
vn 0.9698 -0.0631 -0.2356
vn 0.9017 0.3057 0.3057
vn 0.9017 0.2162 0.3744
vn 0.9950 0.0259 0.0966
vn 0.9017 0.1119 0.4176
vn 0.9017 -0.0000 0.4323
vn 0.9950 -0.0000 0.1000
vn 0.9950 -0.0259 0.0966
vn 0.9698 0.0631 -0.2356
vn 0.9698 0.0000 -0.2439
vn 0.9698 0.1220 -0.2113
vn 0.9950 -0.0500 0.0866
vn 0.9698 0.1725 -0.1725
vn 0.9950 -0.0707 0.0707
vn 0.9017 -0.2162 0.3744
vn 0.9017 -0.1119 0.4176
vn 0.9017 -0.3057 0.3057
vn 0.9017 -0.3744 0.2162
vn 0.9950 -0.0866 0.0500
vn 0.9950 -0.0966 0.0259
vn 0.9698 0.2356 -0.0631
vn 0.9698 0.2113 -0.1220
vn 0.9698 0.2439 -0.0000
vn 0.9950 -0.1000 0.0000
vn 0.9698 0.2356 0.0631
vn 0.9950 -0.0966 -0.0259
vn 0.9017 -0.4323 -0.0000
vn 0.9017 -0.4176 0.1119
vn 0.9017 -0.4176 -0.1119
vn 0.9017 -0.3744 -0.2162
vn 0.9950 -0.0866 -0.0500
vn 0.9950 -0.0707 -0.0707
vn 0.9698 0.1725 0.1725
vn 0.9698 0.2113 0.1220
vn 0.9698 0.1220 0.2113
vn 0.9950 -0.0500 -0.0865
vn 0.9698 0.0631 0.2356
vn 0.9950 -0.0259 -0.0966
vn 0.9017 -0.2162 -0.3744
vn 0.9017 -0.3057 -0.3057
vn 0.9017 -0.1119 -0.4176
vn 0.9017 0.0000 -0.4323
vn 0.9950 -0.0000 -0.1000
vn 0.9950 0.0259 -0.0966
vn 0.9698 -0.0631 0.2356
vn 0.9698 0.0000 0.2439
vn 0.9698 -0.1220 0.2113
vn 0.9950 0.0500 -0.0866
vn 0.9698 -0.1725 0.1725
vn 0.9950 0.0707 -0.0707
vn 0.9017 0.2162 -0.3744
vn 0.9017 0.1119 -0.4176
vn 0.9017 0.3057 -0.3057
vn 0.9017 0.3744 -0.2162
vn 0.9950 0.0866 -0.0500
vn 0.9950 0.0966 -0.0259
vn 0.9698 -0.2356 0.0631
vn 0.9698 -0.2113 0.1220
vn 0.9698 -0.2439 0.0000
vn 0.9950 0.1000 -0.0000
vn 0.9698 -0.2356 -0.0631
vn 0.9017 0.4323 0.0000
vn 0.9017 0.4176 -0.1119
vn 1.0000 0.0000 0.0000
vn -1.0000 -0.0000 0.0000
usemtl Default_OBJ
s 1
f 1/1/1 2/2/1 3/3/2
f 4/4/2 3/3/2 2/2/1
f 5/5/3 6/6/3 7/7/1
f 8/8/1 7/7/1 6/6/3
f 9/9/4 10/10/4 11/11/3
f 12/12/3 11/11/3 10/10/4
f 13/13/5 14/14/5 15/15/4
f 16/16/4 15/15/4 14/14/5
f 17/17/6 18/18/6 19/19/5
f 20/20/5 19/19/5 18/18/6
f 21/21/7 22/22/7 23/23/6
f 24/24/6 23/23/6 22/22/7
f 25/25/8 26/26/8 27/27/7
f 28/28/7 27/27/7 26/26/8
f 29/29/9 30/30/9 31/31/8
f 32/32/8 31/31/8 30/30/9
f 33/33/10 34/34/10 35/35/9
f 36/36/9 35/35/9 34/34/10
f 37/37/11 38/38/11 39/39/10
f 40/40/10 39/39/10 38/38/11
f 41/41/12 42/42/12 43/43/11
f 44/44/11 43/43/11 42/42/12
f 45/45/13 46/46/13 47/47/12
f 48/48/12 47/47/12 46/46/13
f 49/49/14 50/50/14 51/51/13
f 52/52/13 51/51/13 50/50/14
f 53/53/15 54/54/15 55/55/14
f 56/56/14 55/55/14 54/54/15
f 57/57/16 58/58/16 59/59/15
f 60/60/15 59/59/15 58/58/16
f 61/61/17 62/62/17 63/63/16
f 64/64/16 63/63/16 62/62/17
f 65/65/18 66/66/18 67/67/17
f 68/68/17 67/67/17 66/66/18
f 69/69/19 70/70/19 71/71/18
f 72/72/18 71/71/18 70/70/19
f 73/73/20 74/74/20 75/75/19
f 76/76/19 75/75/19 74/74/20
f 77/77/21 78/78/21 79/79/20
f 80/80/20 79/79/20 78/78/21
f 81/81/22 82/82/22 83/83/21
f 84/84/21 83/83/21 82/82/22
f 85/85/23 86/86/24 87/87/25
f 88/88/25 87/87/25 86/86/24
f 89/89/2 90/90/2 91/91/23
f 92/92/23 91/91/23 90/90/2
f 94/93/26 93/94/27 96/95/28
f 93/94/27 94/93/26 95/96/29
f 95/96/29 99/97/30 93/94/27
f 97/98/31 96/95/28 93/94/27
f 93/94/27 98/99/32 97/98/31
f 98/99/32 93/94/27 99/97/30
f 99/97/30 95/96/29 100/100/33
f 102/101/34 100/100/33 95/96/29
f 100/100/33 102/101/34 101/102/35
f 95/96/29 103/103/36 102/101/34
f 105/104/37 102/101/34 103/103/36
f 104/105/38 101/102/35 102/101/34
f 102/101/34 105/104/37 104/105/38
f 106/106/39 104/105/38 105/104/37
f 107/107/40 108/108/41 106/106/39
f 104/105/38 106/106/39 108/108/41
f 109/109/42 111/110/43 108/108/41
f 108/108/41 107/107/40 109/109/42
f 108/108/41 110/111/44 104/105/38
f 110/111/44 108/108/41 111/110/43
f 111/110/43 109/109/42 112/112/45
f 112/112/45 114/113/46 113/114/47
f 114/113/46 112/112/45 109/109/42
f 115/115/48 113/114/47 114/113/46
f 114/113/46 116/116/49 115/115/48
f 116/116/49 114/113/46 117/117/50
f 109/109/42 117/117/50 114/113/46
f 117/117/50 109/109/42 107/107/40
f 118/118/51 115/115/48 116/116/49
f 119/119/52 120/120/53 118/118/51
f 115/115/48 118/118/51 120/120/53
f 121/121/54 123/122/55 120/120/53
f 120/120/53 119/119/52 121/121/54
f 120/120/53 122/123/56 115/115/48
f 122/123/56 120/120/53 123/122/55
f 123/122/55 121/121/54 124/124/57
f 124/124/57 126/125/58 125/126/59
f 126/125/58 124/124/57 121/121/54
f 127/127/60 125/126/59 126/125/58
f 126/125/58 128/128/61 127/127/60
f 128/128/61 126/125/58 129/129/62
f 121/121/54 129/129/62 126/125/58
f 129/129/62 121/121/54 119/119/52
f 130/130/63 127/127/60 128/128/61
f 131/131/64 132/132/65 130/130/63
f 127/127/60 130/130/63 132/132/65
f 133/133/66 135/134/67 132/132/65
f 132/132/65 131/131/64 133/133/66
f 132/132/65 134/135/68 127/127/60
f 134/135/68 132/132/65 135/134/67
f 135/134/67 133/133/66 136/136/69
f 136/136/69 138/137/70 137/138/71
f 138/137/70 136/136/69 133/133/66
f 139/139/72 137/138/71 138/137/70
f 138/137/70 140/140/73 139/139/72
f 140/140/73 138/137/70 141/141/74
f 133/133/66 141/141/74 138/137/70
f 141/141/74 133/133/66 131/131/64
f 142/142/75 139/139/72 140/140/73
f 143/143/76 144/144/77 142/142/75
f 139/139/72 142/142/75 144/144/77
f 145/145/78 147/146/79 144/144/77
f 144/144/77 143/143/76 145/145/78
f 144/144/77 146/147/80 139/139/72
f 146/147/80 144/144/77 147/146/79
f 147/146/79 145/145/78 148/148/81
f 150/149/82 148/148/81 145/145/78
f 148/148/81 150/149/82 149/150/83
f 151/151/84 149/150/83 150/149/82
f 150/149/82 152/152/85 151/151/84
f 152/152/85 150/149/82 153/153/86
f 145/145/78 153/153/86 150/149/82
f 153/153/86 145/145/78 143/143/76
f 154/154/87 151/151/84 152/152/85
f 155/155/88 156/156/89 154/154/87
f 151/151/84 154/154/87 156/156/89
f 157/157/90 158/158/91 156/156/89
f 156/156/89 155/155/88 157/157/90
f 156/156/89 159/159/92 151/151/84
f 159/159/92 156/156/89 158/158/91
f 149/150/83 151/151/84 159/159/92
f 158/158/91 157/157/90 160/160/93
f 160/160/93 161/161/94 162/162/95
f 161/161/94 160/160/93 157/157/90
f 162/162/95 97/98/31 98/99/32
f 97/98/31 162/162/95 161/161/94
f 161/161/94 163/163/96 97/98/31
f 163/163/96 161/161/94 164/164/97
f 157/157/90 164/164/97 161/161/94
f 164/164/97 157/157/90 155/155/88
f 96/95/28 97/98/31 163/163/96
f 137/138/71 139/139/72 146/147/80
f 125/126/59 127/127/60 134/135/68
f 113/114/47 115/115/48 122/123/56
f 101/102/35 104/105/38 110/111/44
f 103/103/36 95/96/29 94/93/26
f 165/165/98 166/166/98 168/167/98
f 165/165/98 168/167/98 167/168/98
f 170/169/98 168/167/98 166/166/98
f 169/170/98 167/168/98 168/167/98
f 169/170/98 171/171/98 167/168/98
f 172/172/98 167/168/98 171/171/98
f 171/171/98 173/173/98 172/172/98
f 173/173/98 174/174/98 175/175/98
f 175/175/98 172/172/98 173/173/98
f 176/176/98 175/175/98 174/174/98
f 178/177/98 176/176/98 177/178/98
f 174/174/98 177/178/98 176/176/98
f 179/179/98 178/177/98 180/180/98
f 177/178/98 180/180/98 178/177/98
f 180/180/98 181/181/98 179/179/98
f 182/182/98 179/179/98 181/181/98
f 183/183/99 184/184/99 185/185/99
f 185/185/99 186/186/99 183/183/99
f 187/187/99 183/183/99 186/186/99
f 188/188/99 187/187/99 189/189/99
f 186/186/99 189/189/99 187/187/99
f 189/189/99 190/190/99 188/188/99
f 190/190/99 192/191/99 191/192/99
f 191/192/99 188/188/99 190/190/99
f 192/191/99 193/193/99 194/194/99
f 194/194/99 191/192/99 192/191/99
f 195/195/99 194/194/99 193/193/99
f 196/196/99 195/195/99 197/197/99
f 193/193/99 197/197/99 195/195/99
f 197/197/99 198/198/99 196/196/99
f 198/198/99 200/199/99 199/200/99
f 199/200/99 196/196/99 198/198/99
f 200/199/99 202/201/99 201/202/99
f 201/202/99 199/200/99 200/199/99
f 203/203/99 201/202/99 202/201/99
f 202/201/99 204/204/99 203/203/99
f 204/204/99 205/205/99 206/206/99
f 206/206/99 203/203/99 204/204/99
f 207/207/99 206/206/99 205/205/99
f 205/205/99 209/208/99 207/207/99
f 208/209/99 207/207/99 209/208/99
f 209/208/99 210/210/99 208/209/99
f 211/211/99 208/209/99 210/210/99
f 210/210/99 212/212/99 211/211/99
f 212/212/99 214/213/99 213/214/99
f 213/214/99 211/211/99 212/212/99
f 214/213/99 216/215/99 215/216/99
f 215/216/99 213/214/99 214/213/99
f 216/215/99 217/217/99 218/218/99
f 218/218/99 215/216/99 216/215/99
f 219/219/99 218/218/99 217/217/99
f 217/217/99 221/220/99 219/219/99
f 220/221/99 219/219/99 221/220/99
f 221/220/99 222/222/99 220/221/99
f 222/222/99 224/223/99 223/224/99
f 223/224/99 220/221/99 222/222/99
f 224/223/99 225/225/99 226/226/99
f 226/226/99 223/224/99 224/223/99
f 227/227/99 226/226/99 225/225/99
f 225/225/99 228/228/99 227/227/99
f 229/229/99 227/227/99 228/228/99
f 228/228/99 230/230/99 229/229/99
f 184/184/99 229/229/99 230/230/99
f 230/230/99 185/185/99 184/184/99
f 231/231/25 232/232/25 233/233/22
f 234/234/22 233/233/22 232/232/25
f 235/235/98 236/236/98 237/237/98
f 238/238/98 239/239/98 237/237/98
f 238/238/98 237/237/98 236/236/98
f 240/240/98 237/237/98 239/239/98
f 242/241/98 240/240/98 241/242/98
f 239/239/98 241/242/98 240/240/98
f 240/240/98 242/241/98 243/243/98
f 244/244/98 243/243/98 242/241/98
f 242/241/98 241/242/98 245/245/98
f 248/246/98 245/245/98 241/242/98
f 247/247/98 245/245/98 246/248/98
f 248/246/98 246/248/98 245/245/98
f 251/249/98 241/242/98 249/250/98
f 239/239/98 249/250/98 241/242/98
f 241/242/98 251/249/98 250/251/98
f 252/252/98 250/251/98 251/249/98
f 239/239/98 253/253/98 249/250/98
f 254/254/98 249/250/98 253/253/98
f 255/255/98 256/256/98 257/257/98
f 258/258/98 257/257/98 256/256/98
