# Blender v2.93.18 OBJ File: ''
# www.blender.org
mtllib Kleiner eyeball_r.mtl
o eyeball_r_kleiner_head.003
v -1.411688 6.745659 3.589958
v -1.426300 6.956772 3.600256
v -1.496612 6.956993 3.604887
v -1.342014 6.747406 3.582557
v -1.356742 6.948135 3.591585
v -1.289394 6.928864 3.580242
v -1.685942 6.733330 3.551236
v -1.755082 6.891853 3.541159
v -1.746334 6.731277 3.521676
v -1.696718 6.918518 3.570256
v -1.620504 6.735535 3.572233
v -1.632984 6.937645 3.590756
v -1.565887 6.950455 3.602139
v -1.552286 6.738625 3.585241
v -1.482359 6.742249 3.590943
v -1.397076 6.534554 3.579659
v -1.327286 6.546677 3.573529
v -1.275374 6.745186 3.568581
v -1.223739 6.895752 3.557670
v -1.213974 6.731239 3.546301
v -1.166422 6.699989 3.519411
v -1.196837 6.581650 3.528968
v -1.260370 6.562714 3.556130
v -1.150604 6.748810 3.510336
v -1.608024 6.533424 3.553709
v -1.538684 6.526787 3.568346
v -1.468106 6.527519 3.577002
v -1.137818 6.602814 3.494872
v -1.088045 6.626411 3.457968
v -1.133364 6.773918 3.497694
v -1.160042 6.847511 3.517157
v -1.103673 6.791489 3.469327
v -1.095162 6.724884 3.464858
v -1.066884 6.701149 3.437365
v -1.053674 6.653755 3.424914
v -1.042630 6.689201 3.410810
v -1.061713 6.736603 3.429097
v -1.675167 6.548172 3.532217
v -1.737585 6.570694 3.502192
v -1.799323 6.728432 3.484135
v -1.792989 6.600113 3.463356
v -1.843400 6.724380 3.443729
v -1.841606 6.634323 3.421834
v -1.872993 6.719963 3.411701
v -1.881542 6.671806 3.387538
v -1.900272 6.714470 3.378651
v -1.886167 6.763687 3.409392
v -1.850713 6.813232 3.458700
v -1.806347 6.856613 3.504045
vt 0.648150 0.535561
vt 0.634475 0.910291
vt 0.567486 0.915548
vt 0.713924 0.539302
vt 0.701463 0.905033
vt 0.763364 0.863122
vt 0.389934 0.514874
vt 0.320426 0.805474
vt 0.332612 0.512307
vt 0.379223 0.843410
vt 0.451475 0.517880
vt 0.438020 0.881346
vt 0.502753 0.898447
vt 0.515795 0.523103
vt 0.581543 0.529380
vt 0.662033 0.161442
vt 0.729446 0.179768
vt 0.776415 0.535673
vt 0.825265 0.821211
vt 0.834246 0.512612
vt 0.879114 0.457231
vt 0.852400 0.245107
vt 0.790923 0.212438
vt 0.894426 0.544628
vt 0.462339 0.151876
vt 0.528480 0.147496
vt 0.594620 0.143115
vt 0.907085 0.285188
vt 0.961770 0.325268
vt 0.910403 0.588432
vt 0.885886 0.719586
vt 0.946507 0.617960
vt 0.947257 0.501920
vt 0.973542 0.460633
vt 0.988473 0.375637
vt 1.015176 0.426005
vt 0.980842 0.521983
vt 0.399590 0.186229
vt 0.336841 0.220581
vt 0.283221 0.508453
vt 0.288471 0.280944
vt 0.241495 0.502837
vt 0.240100 0.341307
vt 0.213333 0.495441
vt 0.202878 0.409823
vt 0.165655 0.478338
vt 0.198507 0.572775
vt 0.231358 0.667211
vt 0.275892 0.736343
vn 0.0620 -0.0473 0.9970
vn 0.0736 -0.0470 0.9962
vn -0.0077 -0.0650 0.9979
vn 0.1552 -0.0386 0.9871
vn -0.2640 -0.2920 0.9193
vn -0.2632 -0.2262 0.9378
vn -0.3674 -0.1172 0.9227
vn -0.4600 -0.1306 0.8782
vn -0.5013 -0.1334 0.8549
vn -0.3387 -0.1154 0.9338
vn -0.2416 -0.1027 0.9649
vn -0.2194 -0.1012 0.9704
vn -0.1075 -0.0846 0.9906
vn -0.1293 -0.0864 0.9878
vn -0.0301 -0.0664 0.9973
vn -0.2160 0.1476 0.9652
vn 0.1615 -0.0382 0.9861
vn 0.2742 -0.0408 0.9608
vn 0.3796 -0.6776 0.6299
vn 0.4227 -0.0392 0.9054
vn 0.5350 -0.0398 0.8439
vn 0.4264 -0.0516 0.9031
vn -0.1026 0.7912 0.6029
vn 0.5631 -0.0189 0.8262
vn -0.2491 -0.1024 0.9631
vn -0.2307 -0.0210 0.9728
vn -0.1245 0.1195 0.9850
vn 0.5470 -0.0442 0.8360
vn -0.2294 0.8827 0.4101
vn 0.6257 0.0141 0.7799
vn 0.4998 -0.6704 0.5485
vn 0.6864 0.0456 0.7258
vn 0.6785 0.0166 0.7344
vn 0.7215 0.0262 0.6920
vn 0.7122 0.0137 0.7018
vn 0.7466 0.0392 0.6642
vn 0.7282 0.0465 0.6838
vn 0.7283 0.0465 0.6837
vn -0.3480 -0.1248 0.9292
vn -0.5354 -0.0759 0.8412
vn -0.6156 -0.1531 0.7730
vn -0.6536 -0.1255 0.7464
vn -0.6893 -0.1717 0.7039
vn -0.6978 -0.1726 0.6951
vn -0.7265 -0.1848 0.6618
vn -0.7292 -0.1877 0.6580
vn -0.7413 -0.1906 0.6435
vn -0.7293 -0.1877 0.6580
vn -0.7184 -0.1793 0.6721
vn -0.6593 -0.1663 0.7332
vn -0.5720 -0.1490 0.8066
usemtl eyeball_r
s 1
f 1/1/1 2/2/2 3/3/3
f 4/4/4 2/2/2 1/1/1
f 4/4/4 5/5/5 2/2/2
f 4/4/4 6/6/6 5/5/5
f 7/7/7 8/8/8 9/9/9
f 7/7/7 10/10/10 8/8/8
f 11/11/11 10/10/10 7/7/7
f 11/11/11 12/12/12 10/10/10
f 11/11/11 13/13/13 12/12/12
f 11/11/11 14/14/14 13/13/13
f 14/14/14 3/3/3 13/13/13
f 14/14/14 15/15/15 3/3/3
f 1/1/1 3/3/3 15/15/15
f 16/16/16 1/1/1 15/15/15
f 17/17/17 1/1/1 16/16/16
f 17/17/17 4/4/4 1/1/1
f 17/17/17 18/18/18 4/4/4
f 4/4/4 18/18/18 6/6/6
f 18/18/18 19/19/19 6/6/6
f 18/18/18 20/20/20 19/19/19
f 19/19/19 20/20/20 21/21/21
f 22/22/22 21/21/21 20/20/20
f 17/17/17 23/23/23 18/18/18
f 23/23/23 20/20/20 18/18/18
f 23/23/23 22/22/22 20/20/20
f 19/19/19 21/21/21 24/24/24
f 25/25/25 14/14/14 11/11/11
f 25/25/25 26/26/26 14/14/14
f 26/26/26 15/15/15 14/14/14
f 26/26/26 27/27/27 15/15/15
f 16/16/16 15/15/15 27/27/27
f 22/22/22 28/28/28 21/21/21
f 29/29/29 21/21/21 28/28/28
f 29/29/29 24/24/24 21/21/21
f 29/29/29 30/30/30 24/24/24
f 19/19/19 24/24/24 30/30/30
f 19/19/19 30/30/30 31/31/31
f 32/32/32 31/31/31 30/30/30
f 32/32/32 30/30/30 33/33/33
f 32/32/32 33/33/33 34/34/34
f 29/29/29 34/34/34 33/33/33
f 29/29/29 35/35/35 34/34/34
f 36/36/36 34/34/34 35/35/35
f 36/36/36 37/37/37 34/34/34
f 32/32/32 34/34/34 37/37/38
f 29/29/29 33/33/33 30/30/30
f 25/25/25 11/11/11 7/7/7
f 25/25/25 7/7/7 38/38/39
f 38/38/39 7/7/7 9/9/9
f 38/38/39 9/9/9 39/39/40
f 39/39/40 9/9/9 40/40/41
f 39/39/40 40/40/41 41/41/42
f 41/41/42 40/40/41 42/42/43
f 41/41/42 42/42/43 43/43/44
f 43/43/44 42/42/43 44/44/45
f 43/43/44 44/44/45 45/45/46
f 46/46/47 45/45/48 44/44/45
f 46/46/47 44/44/45 47/47/49
f 48/48/50 47/47/49 44/44/45
f 48/48/50 44/44/45 42/42/43
f 40/40/41 48/48/50 42/42/43
f 40/40/41 49/49/51 48/48/50
f 9/9/9 49/49/51 40/40/41
f 9/9/9 8/8/8 49/49/51
