# Blender v2.93.18 OBJ File: 'Gol G2 Plus 1.0 9.blend'
# www.blender.org
mtllib Gol g2 plus headlights back.mtl
o headlights_back_vidro_farol_r
v -0.835267 0.403065 1.900514
v -0.858785 0.327574 1.905418
v -0.860245 0.322476 1.905762
v -0.871667 0.275466 1.908061
v -0.815604 0.450032 1.889671
v -0.820094 0.440458 1.893862
v -0.879469 0.205768 1.912153
v -0.882458 0.180166 1.918040
v -0.883623 0.159660 1.933889
v -0.881785 0.155931 1.965800
v -0.875279 0.155751 1.986570
v -0.864762 0.155995 1.998120
v -0.845201 0.155995 2.015333
v -0.816947 0.155995 2.025988
v -0.742904 0.155995 2.043111
v -0.615537 0.156018 2.063119
v -0.618062 0.219929 2.060263
v -0.621569 0.288766 2.056138
v -0.625497 0.341624 2.050361
v -0.632370 0.372935 2.045650
v -0.805102 0.451370 1.926737
v -0.778838 0.449726 1.962945
v -0.746324 0.445063 1.986500
v -0.712007 0.435622 2.009618
v -0.681691 0.422818 2.026268
v -0.657157 0.409179 2.035047
v -0.639922 0.389916 2.040757
v -0.869056 0.219608 1.970723
v -0.855083 0.219852 1.993681
v -0.831067 0.219852 2.014251
v -0.801894 0.219852 2.024907
v -0.733225 0.219852 2.042549
v -0.858438 0.288954 1.964461
v -0.842996 0.289199 1.987231
v -0.819405 0.289199 2.007116
v -0.791968 0.289199 2.021814
v -0.727331 0.289199 2.039042
v -0.846479 0.337843 1.957615
v -0.829731 0.339677 1.980626
v -0.808564 0.339677 1.997294
v -0.780961 0.339677 2.013634
v -0.716440 0.339677 2.032357
v -0.835577 0.372272 1.951877
v -0.818717 0.374107 1.976370
v -0.801481 0.374107 1.987973
v -0.774743 0.374107 2.007136
v -0.708726 0.374107 2.028630
v -0.828183 0.394774 1.946710
v -0.810762 0.395008 1.973644
v -0.794835 0.395008 1.981460
v -0.768619 0.395008 2.002593
v -0.702602 0.395008 2.024813
v -0.809730 0.441684 1.930839
v -0.783797 0.440415 1.965339
v -0.755016 0.435258 1.990638
v -0.713592 0.427127 2.012224
v 0.835283 0.403065 1.900514
v 0.858802 0.327574 1.905418
v 0.860262 0.322476 1.905762
v 0.871684 0.275466 1.908061
v 0.815620 0.450032 1.889671
v 0.820110 0.440458 1.893862
v 0.879486 0.205768 1.912153
v 0.882475 0.180166 1.918040
v 0.883641 0.159660 1.933889
v 0.881802 0.155931 1.965800
v 0.875296 0.155751 1.986570
v 0.864779 0.155995 1.998120
v 0.845218 0.155995 2.015333
v 0.816963 0.155995 2.025988
v 0.742919 0.155995 2.043111
v 0.615549 0.156018 2.063119
v 0.618074 0.219929 2.060263
v 0.621581 0.288766 2.056138
v 0.625509 0.341624 2.050361
v 0.632383 0.372935 2.045650
v 0.805118 0.451370 1.926737
v 0.778853 0.449726 1.962945
v 0.746339 0.445063 1.986500
v 0.712021 0.435622 2.009618
v 0.681704 0.422818 2.026268
v 0.657170 0.409179 2.035047
v 0.639935 0.389916 2.040757
v 0.869073 0.219608 1.970723
v 0.855100 0.219852 1.993681
v 0.831083 0.219852 2.014251
v 0.801910 0.219852 2.024907
v 0.733240 0.219852 2.042549
v 0.858454 0.288954 1.964461
v 0.843013 0.289199 1.987231
v 0.819421 0.289199 2.007116
v 0.791984 0.289199 2.021814
v 0.727345 0.289199 2.039042
v 0.846496 0.337843 1.957615
v 0.829747 0.339677 1.980626
v 0.808580 0.339677 1.997294
v 0.780977 0.339677 2.013634
v 0.716454 0.339677 2.032357
v 0.835593 0.372272 1.951877
v 0.818733 0.374107 1.976370
v 0.801496 0.374107 1.987973
v 0.774758 0.374107 2.007136
v 0.708739 0.374107 2.028630
v 0.828199 0.394774 1.946710
v 0.810778 0.395008 1.973644
v 0.794851 0.395008 1.981460
v 0.768634 0.395008 2.002593
v 0.702616 0.395008 2.024813
v 0.809746 0.441684 1.930839
v 0.783812 0.440415 1.965339
v 0.755031 0.435258 1.990638
v 0.713606 0.427127 2.012224
vt 0.870716 0.163425
vt 0.905635 0.164184
vt 0.882111 0.038436
vt 0.908334 0.039175
vt 0.818364 0.162478
vt 0.840139 0.037515
vt 0.762461 0.162082
vt 0.784236 0.037119
vt 0.628359 0.161465
vt 0.641764 0.036874
vt 0.847561 0.299789
vt 0.886762 0.300758
vt 0.798181 0.298924
vt 0.742274 0.298218
vt 0.615078 0.297447
vt 0.827037 0.405062
vt 0.866400 0.402769
vt 0.780379 0.404136
vt 0.722506 0.403420
vt 0.598209 0.402548
vt 0.803377 0.476291
vt 0.840796 0.474204
vt 0.766220 0.475446
vt 0.711400 0.474693
vt 0.586734 0.473679
vt 0.935440 0.046708
vt 0.952082 0.056579
vt 0.974518 0.097784
vt 0.971219 0.156228
vt 0.952694 0.279259
vt 0.932356 0.375458
vt 0.929801 0.385940
vt 0.867602 0.540396
vt 0.440050 0.471074
vt 0.425659 0.406713
vt 0.416286 0.297182
vt 0.408302 0.162577
vt 0.413826 0.044814
vt 0.786696 0.519418
vt 0.828104 0.520869
vt 0.756433 0.518811
vt 0.701839 0.517905
vt 0.576903 0.516838
vt 0.455754 0.506100
vt 0.828064 0.605357
vt 0.792100 0.610849
vt 0.748311 0.610875
vt 0.685980 0.601045
vt 0.601796 0.583380
vt 0.537926 0.573959
vt 0.489560 0.545723
vt 0.804663 0.611053
vt 0.788244 0.614670
vt 0.740090 0.630183
vt 0.671548 0.621547
vt 0.599854 0.600983
vt 0.905635 0.164184
vt 0.870716 0.163425
vt 0.882111 0.038436
vt 0.908334 0.039175
vt 0.818364 0.162478
vt 0.840139 0.037515
vt 0.762461 0.162082
vt 0.784236 0.037119
vt 0.628359 0.161465
vt 0.641764 0.036874
vt 0.886762 0.300758
vt 0.847561 0.299789
vt 0.798181 0.298924
vt 0.742274 0.298218
vt 0.615078 0.297447
vt 0.866400 0.402769
vt 0.827037 0.405062
vt 0.780379 0.404136
vt 0.722506 0.403420
vt 0.598209 0.402548
vt 0.840796 0.474204
vt 0.803377 0.476291
vt 0.766220 0.475446
vt 0.711400 0.474693
vt 0.586734 0.473679
vt 0.935440 0.046708
vt 0.952082 0.056579
vt 0.974518 0.097784
vt 0.971219 0.156228
vt 0.952694 0.279259
vt 0.932356 0.375458
vt 0.929801 0.385940
vt 0.867602 0.540396
vt 0.440050 0.471074
vt 0.425659 0.406713
vt 0.416286 0.297182
vt 0.408302 0.162577
vt 0.413826 0.044814
vt 0.828104 0.520869
vt 0.786696 0.519418
vt 0.756433 0.518811
vt 0.701839 0.517905
vt 0.576903 0.516838
vt 0.455754 0.506100
vt 0.828064 0.605357
vt 0.792100 0.610849
vt 0.748311 0.610875
vt 0.685980 0.601045
vt 0.601796 0.583380
vt 0.537926 0.573959
vt 0.489560 0.545723
vt 0.804663 0.611053
vt 0.788244 0.614670
vt 0.740090 0.630183
vt 0.671548 0.621547
vt 0.599854 0.600983
vn -0.7496 0.1711 0.6393
vn -0.9279 0.1727 0.3304
vn -0.7082 0.1855 0.6812
vn -0.8388 0.2067 0.5036
vn -0.4948 0.1469 0.8565
vn -0.5260 0.1280 0.8408
vn -0.2991 0.0938 0.9496
vn -0.2959 0.0837 0.9515
vn -0.2015 0.0528 0.9781
vn -0.1993 0.0466 0.9788
vn -0.7241 0.2289 0.6506
vn -0.9058 0.2213 0.3612
vn -0.5384 0.2075 0.8167
vn -0.3652 0.1626 0.9166
vn -0.2176 0.1196 0.9687
vn -0.7001 0.2936 0.6508
vn -0.8819 0.2996 0.3640
vn -0.5331 0.2852 0.7965
vn -0.3894 0.2406 0.8891
vn -0.2438 0.1713 0.9546
vn -0.6780 0.3312 0.6562
vn -0.8652 0.3449 0.3639
vn -0.5172 0.3367 0.7869
vn -0.4380 0.2801 0.8542
vn -0.2594 0.2056 0.9436
vn -0.9663 0.1788 0.1850
vn -0.9792 0.1729 0.1058
vn -0.9790 0.1526 0.1348
vn -0.9778 0.1451 0.1509
vn -0.9662 0.1759 0.1881
vn -0.9501 0.2576 0.1759
vn -0.9423 0.2913 0.1648
vn -0.9096 0.3660 0.1965
vn -0.2086 0.1427 0.9675
vn -0.1807 0.1108 0.9773
vn -0.1563 0.0745 0.9849
vn -0.1531 0.0435 0.9872
vn -0.1551 0.0380 0.9872
vn -0.6166 0.4073 0.6737
vn -0.8441 0.3985 0.3587
vn -0.4902 0.3890 0.7799
vn -0.4459 0.3469 0.8251
vn -0.2923 0.2286 0.9286
vn -0.2326 0.1475 0.9613
vn -0.8622 0.4557 0.2210
vn -0.7859 0.4900 0.3771
vn -0.5993 0.4765 0.6432
vn -0.4296 0.4935 0.7562
vn -0.3836 0.2719 0.8825
vn -0.3058 0.1911 0.9327
vn -0.2461 0.0926 0.9648
vn -0.8422 0.4917 0.2209
vn -0.7748 0.5213 0.3576
vn -0.5816 0.4821 0.6552
vn -0.3786 0.6066 0.6990
vn -0.3622 0.3612 0.8592
vn 0.9279 0.1727 0.3304
vn 0.7496 0.1711 0.6393
vn 0.7082 0.1855 0.6812
vn 0.8388 0.2067 0.5036
vn 0.4948 0.1469 0.8565
vn 0.5260 0.1280 0.8408
vn 0.2991 0.0938 0.9496
vn 0.2959 0.0837 0.9515
vn 0.2015 0.0528 0.9781
vn 0.1993 0.0466 0.9788
vn 0.9058 0.2213 0.3612
vn 0.7241 0.2289 0.6506
vn 0.5384 0.2075 0.8167
vn 0.3651 0.1626 0.9166
vn 0.2176 0.1196 0.9687
vn 0.8819 0.2996 0.3641
vn 0.7001 0.2936 0.6508
vn 0.5330 0.2852 0.7965
vn 0.3894 0.2406 0.8891
vn 0.2437 0.1713 0.9546
vn 0.8652 0.3449 0.3639
vn 0.6780 0.3312 0.6562
vn 0.5172 0.3367 0.7869
vn 0.4380 0.2801 0.8542
vn 0.2594 0.2056 0.9436
vn 0.9663 0.1788 0.1850
vn 0.9792 0.1729 0.1058
vn 0.9790 0.1526 0.1348
vn 0.9778 0.1451 0.1510
vn 0.9662 0.1759 0.1881
vn 0.9501 0.2576 0.1759
vn 0.9423 0.2913 0.1648
vn 0.9096 0.3660 0.1965
vn 0.2086 0.1427 0.9675
vn 0.1807 0.1108 0.9773
vn 0.1563 0.0745 0.9849
vn 0.1531 0.0435 0.9872
vn 0.1551 0.0380 0.9872
vn 0.8441 0.3985 0.3587
vn 0.6166 0.4073 0.6737
vn 0.4902 0.3890 0.7799
vn 0.4459 0.3469 0.8251
vn 0.2923 0.2286 0.9286
vn 0.2326 0.1475 0.9613
vn 0.8622 0.4557 0.2210
vn 0.7859 0.4900 0.3771
vn 0.5993 0.4765 0.6432
vn 0.4296 0.4935 0.7562
vn 0.3836 0.2719 0.8825
vn 0.3058 0.1911 0.9327
vn 0.2461 0.0926 0.9648
vn 0.8422 0.4917 0.2209
vn 0.7748 0.5213 0.3576
vn 0.5816 0.4821 0.6552
vn 0.3786 0.6066 0.6990
vn 0.3622 0.3612 0.8593
usemtl vidro_farol_r.0
s 1
f 29/1/1 28/2/2 12/3/3
f 28/2/2 11/4/4 12/3/3
f 30/5/5 29/1/1 13/6/6
f 29/1/1 12/3/3 13/6/6
f 31/7/7 30/5/5 14/8/8
f 30/5/5 13/6/6 14/8/8
f 32/9/9 31/7/7 15/10/10
f 31/7/7 14/8/8 15/10/10
f 34/11/11 33/12/12 29/1/1
f 33/12/12 28/2/2 29/1/1
f 35/13/13 34/11/11 30/5/5
f 34/11/11 29/1/1 30/5/5
f 36/14/14 35/13/13 31/7/7
f 35/13/13 30/5/5 31/7/7
f 37/15/15 36/14/14 32/9/9
f 36/14/14 31/7/7 32/9/9
f 39/16/16 38/17/17 34/11/11
f 38/17/17 33/12/12 34/11/11
f 40/18/18 39/16/16 35/13/13
f 39/16/16 34/11/11 35/13/13
f 41/19/19 40/18/18 36/14/14
f 40/18/18 35/13/13 36/14/14
f 42/20/20 41/19/19 37/15/15
f 41/19/19 36/14/14 37/15/15
f 44/21/21 43/22/22 39/16/16
f 43/22/22 38/17/17 39/16/16
f 45/23/23 44/21/21 40/18/18
f 44/21/21 39/16/16 40/18/18
f 46/24/24 45/23/23 41/19/19
f 45/23/23 40/18/18 41/19/19
f 47/25/25 46/24/24 42/20/20
f 46/24/24 41/19/19 42/20/20
f 10/26/26 11/4/4 28/2/2
f 10/26/26 28/2/2 9/27/27
f 9/27/27 28/2/2 8/28/28
f 8/28/28 28/2/2 7/29/29
f 7/29/29 28/2/2 33/12/12
f 7/29/29 33/12/12 4/30/30
f 4/30/30 33/12/12 38/17/17
f 4/30/30 38/17/17 3/31/31
f 3/31/31 38/17/17 2/32/32
f 2/32/32 38/17/17 1/33/33
f 1/33/33 38/17/17 43/22/22
f 20/34/34 47/25/25 42/20/20
f 20/34/34 42/20/20 19/35/35
f 19/35/35 42/20/20 37/15/15
f 19/35/35 37/15/15 18/36/36
f 18/36/36 37/15/15 32/9/9
f 18/36/36 32/9/9 17/37/37
f 17/37/37 32/9/9 15/10/10
f 17/37/37 15/10/10 16/38/38
f 49/39/39 48/40/40 44/21/21
f 48/40/40 43/22/22 44/21/21
f 50/41/41 49/39/39 45/23/23
f 49/39/39 44/21/21 45/23/23
f 51/42/42 50/41/41 46/24/24
f 50/41/41 45/23/23 46/24/24
f 52/43/43 51/42/42 47/25/25
f 51/42/42 46/24/24 47/25/25
f 52/43/43 47/25/25 20/34/34
f 52/43/43 20/34/34 27/44/44
f 1/33/33 43/22/22 48/40/40
f 1/33/33 48/40/40 6/45/45
f 6/45/45 48/40/40 53/46/46
f 53/46/46 48/40/40 49/39/39
f 53/46/46 49/39/39 54/47/47
f 54/47/47 49/39/39 50/41/41
f 54/47/47 50/41/41 51/42/42
f 54/47/47 51/42/42 55/48/48
f 55/48/48 51/42/42 52/43/43
f 55/48/48 52/43/43 56/49/49
f 56/49/49 52/43/43 25/50/50
f 25/50/50 52/43/43 26/51/51
f 26/51/51 52/43/43 27/44/44
f 5/52/52 6/45/45 21/53/53
f 21/53/53 6/45/45 53/46/46
f 21/53/53 53/46/46 22/54/54
f 22/54/54 53/46/46 54/47/47
f 22/54/54 54/47/47 23/55/55
f 23/55/55 54/47/47 55/48/48
f 23/55/55 55/48/48 24/56/56
f 24/56/56 55/48/48 56/49/49
f 24/56/56 56/49/49 25/50/50
f 84/57/57 85/58/58 68/59/59
f 67/60/60 84/57/57 68/59/59
f 85/58/58 86/61/61 69/62/62
f 68/59/59 85/58/58 69/62/62
f 86/61/61 87/63/63 70/64/64
f 69/62/62 86/61/61 70/64/64
f 87/63/63 88/65/65 71/66/66
f 70/64/64 87/63/63 71/66/66
f 89/67/67 90/68/68 85/58/58
f 84/57/57 89/67/67 85/58/58
f 90/68/68 91/69/69 86/61/61
f 85/58/58 90/68/68 86/61/61
f 91/69/69 92/70/70 87/63/63
f 86/61/61 91/69/69 87/63/63
f 92/70/70 93/71/71 88/65/65
f 87/63/63 92/70/70 88/65/65
f 94/72/72 95/73/73 90/68/68
f 89/67/67 94/72/72 90/68/68
f 95/73/73 96/74/74 91/69/69
f 90/68/68 95/73/73 91/69/69
f 96/74/74 97/75/75 92/70/70
f 91/69/69 96/74/74 92/70/70
f 97/75/75 98/76/76 93/71/71
f 92/70/70 97/75/75 93/71/71
f 99/77/77 100/78/78 95/73/73
f 94/72/72 99/77/77 95/73/73
f 100/78/78 101/79/79 96/74/74
f 95/73/73 100/78/78 96/74/74
f 101/79/79 102/80/80 97/75/75
f 96/74/74 101/79/79 97/75/75
f 102/80/80 103/81/81 98/76/76
f 97/75/75 102/80/80 98/76/76
f 67/60/60 66/82/82 84/57/57
f 84/57/57 66/82/82 65/83/83
f 84/57/57 65/83/83 64/84/84
f 84/57/57 64/84/84 63/85/85
f 84/57/57 63/85/85 89/67/67
f 89/67/67 63/85/85 60/86/86
f 89/67/67 60/86/86 94/72/72
f 94/72/72 60/86/86 59/87/87
f 94/72/72 59/87/87 58/88/88
f 94/72/72 58/88/88 57/89/89
f 94/72/72 57/89/89 99/77/77
f 103/81/81 76/90/90 98/76/76
f 98/76/76 76/90/90 75/91/91
f 98/76/76 75/91/91 93/71/71
f 93/71/71 75/91/91 74/92/92
f 93/71/71 74/92/92 88/65/65
f 88/65/65 74/92/92 73/93/93
f 88/65/65 73/93/93 71/66/66
f 71/66/66 73/93/93 72/94/94
f 104/95/95 105/96/96 100/78/78
f 99/77/77 104/95/95 100/78/78
f 105/96/96 106/97/97 101/79/79
f 100/78/78 105/96/96 101/79/79
f 106/97/97 107/98/98 102/80/80
f 101/79/79 106/97/97 102/80/80
f 107/98/98 108/99/99 103/81/81
f 102/80/80 107/98/98 103/81/81
f 103/81/81 108/99/99 76/90/90
f 76/90/90 108/99/99 83/100/100
f 99/77/77 57/89/89 104/95/95
f 104/95/95 57/89/89 62/101/101
f 104/95/95 62/101/101 109/102/102
f 104/95/95 109/102/102 105/96/96
f 105/96/96 109/102/102 110/103/103
f 105/96/96 110/103/103 106/97/97
f 106/97/97 110/103/103 107/98/98
f 107/98/98 110/103/103 111/104/104
f 107/98/98 111/104/104 108/99/99
f 108/99/99 111/104/104 112/105/105
f 108/99/99 112/105/105 81/106/106
f 108/99/99 81/106/106 82/107/107
f 108/99/99 82/107/107 83/100/100
f 62/101/101 61/108/108 77/109/109
f 62/101/101 77/109/109 109/102/102
f 109/102/102 77/109/109 78/110/110
f 109/102/102 78/110/110 110/103/103
f 110/103/103 78/110/110 79/111/111
f 110/103/103 79/111/111 111/104/104
f 111/104/104 79/111/111 80/112/112
f 111/104/104 80/112/112 112/105/105
f 112/105/105 80/112/112 81/106/106
