# Blender v2.93.18 OBJ File: ''
# www.blender.org
o Top_russian\R111_ISU130\normal\l\Hull.pri~11~5.2310
v 46.397541 49.952660 50.913277
v 39.385746 49.952648 -21.023586
v -46.400974 49.952705 50.913597
v -39.385746 49.952694 -21.023586
v -44.753849 49.948769 50.952919
v -40.082596 49.952663 72.484093
v 40.082596 49.952663 72.484093
v -40.082596 51.452663 72.484093
v 38.913307 51.452663 70.818748
v -38.964489 51.452663 70.822685
v -46.397541 51.452660 50.913277
v 40.082596 51.452663 72.484093
v 46.397541 51.452660 50.913277
v 39.385746 51.452648 -21.023586
v -39.385746 51.452648 -21.023586
vt 0.258600 0.297500
vt 0.218600 0.285800
vt 0.218600 0.285800
vt 0.258600 0.297500
vt 0.218600 0.135200
vt 0.218600 0.135200
vt 0.258600 0.123600
vt 0.258600 0.123600
vt 0.395200 0.136800
vt 0.395200 0.136800
vt 0.395200 0.284300
vt 0.395200 0.284300
vt 0.258700 0.295200
vt 0.220800 0.284100
vt 0.220700 0.137000
vt 0.000000 0.000000
vt 0.000000 0.000000
vt 0.000000 0.000000
vn -0.7450 -0.6634 0.0703
vn -0.4826 -0.5934 0.6442
vn -0.4823 0.5942 0.6437
vn -0.7410 0.6675 0.0726
vn 0.4824 -0.5938 0.6439
vn 0.4824 0.5938 0.6439
vn 0.7420 -0.6668 0.0698
vn 0.7420 0.6668 0.0698
vn 0.5461 -0.5826 -0.6019
vn 0.5461 0.5826 -0.6019
vn -0.5463 -0.5822 -0.6022
vn -0.5459 0.5830 -0.6017
vn 0.0002 -1.0000 -0.0008
vn -0.0000 1.0000 -0.0000
s 1
f 3/1/1 6/2/2 8/3/3 11/4/4
f 6/2/2 7/5/5 12/6/6 8/3/3
f 7/5/5 1/7/7 13/8/8 12/6/6
f 1/7/7 2/9/9 14/10/10 13/8/8
f 4/11/11 3/1/1 11/4/4 15/12/12
f 4/11/11 15/12/12 14/10/10 2/9/9
f 5/13/13 6/2/2 3/1/1
f 4/11/11 5/13/13 3/1/1
f 10/14/14 8/3/3 12/6/6 9/15/14
f 7/5/5 6/2/2 5/16/13 1/7/7
f 10/14/14 15/17/12 8/3/3
f 15/12/12 11/4/4 8/3/3
f 14/18/10 15/12/12 10/14/14 9/15/14
f 2/9/9 1/7/7 5/13/13 4/11/11
f 13/8/8 14/10/10 12/6/6
f 14/18/10 9/15/14 12/6/6
