# Blender v2.93.18 OBJ File: ''
# www.blender.org
o Front_Top_russian\R111_ISU130\normal\l\Hull.pri~11~5.2316
v 42.485176 11.285859 93.921066
v 40.082184 50.702686 71.185104
v 42.488106 12.035424 95.220284
v 31.515684 12.078732 95.220284
v 40.082596 51.452663 72.484093
v -40.082596 51.452663 72.484093
v -42.488106 12.039361 95.220284
v -31.515684 12.078732 95.220284
v -40.082230 50.702641 71.185104
v -42.485451 11.289750 93.921066
vt 0.128000 0.131900
vt 0.212000 0.136500
vt 0.212000 0.136500
vt 0.128000 0.131900
vt 0.128000 0.152100
vt 0.212000 0.283800
vt 0.212000 0.283800
vt 0.128000 0.288300
vt 0.128000 0.288300
vt 0.128000 0.268100
vn 0.5914 -0.7771 -0.2152
vn 0.5603 0.2215 -0.7981
vn 0.5608 0.8018 0.2066
vn 0.5948 -0.2037 0.7776
vn -0.0003 0.2594 0.9658
vn -0.5598 0.2216 -0.7984
vn -0.5603 0.8020 0.2071
vn -0.5952 -0.7744 -0.2147
vn -0.5948 -0.2035 0.7777
vn 0.0003 0.2595 0.9657
s 1
f 1/1/1 2/2/2 5/3/3 3/4/4
f 4/5/5 3/4/4 5/3/3
f 2/2/2 9/6/6 6/7/7 5/3/3
f 4/5/5 5/3/3 6/7/7
f 9/6/6 10/8/8 7/9/9 6/7/7
f 6/7/7 7/9/9 8/10/10
f 8/10/10 4/5/5 6/7/7
f 7/9/9 10/8/8 1/1/1 3/4/4
f 9/6/6 2/2/2 1/1/1 10/8/8
f 4/5/5 8/10/10 7/9/9
f 4/5/5 7/9/9 3/4/4
