# Blender v2.93.18 OBJ File: ''
# www.blender.org
o Rear_Bottom_russian\R111_ISU130\normal\l\Hull.pri~11~5.2307
v 31.515684 -18.331778 -114.834343
v 31.515684 -2.308191 -135.991776
v -31.515684 -18.331778 -114.834343
v 31.515684 -19.527538 -115.739922
v -31.515684 -19.527538 -115.739922
v -31.515684 -3.503952 -136.897354
v -31.515684 -2.308191 -135.991776
v 31.535370 9.108079 -120.102325
v -31.535370 9.108079 -120.102325
v 31.515684 -4.635991 -135.913315
v -31.515684 -4.635991 -135.913315
v 31.535370 10.240117 -121.086365
v -31.535370 10.240117 -121.086365
v 31.515684 -3.503952 -136.897354
vt 0.774000 0.150700
vt 0.774000 0.266700
vt 0.774000 0.266700
vt 0.774000 0.150700
vt 0.681400 0.266700
vt 0.681400 0.150700
vt 0.681400 0.150700
vt 0.681400 0.266700
vt 0.719900 0.150700
vt 0.719900 0.150700
vt 0.000000 0.000000
vt 0.719900 0.266700
vt 0.000000 0.000000
vt 0.000000 0.000000
vt 0.725200 0.266700
vt 0.000000 0.000000
vt 0.725200 0.150700
vt 0.000000 0.000000
vt 0.000000 0.000000
vt 0.725200 0.266700
vn 0.6249 -0.1784 0.7601
vn -0.6265 -0.1810 0.7582
vn -0.5745 -0.8104 0.1151
vn 0.5760 -0.8091 0.1168
vn -0.6534 0.3309 0.6809
vn 0.6534 0.3309 0.6809
vn 0.5785 0.8132 0.0632
vn -0.5785 0.8132 0.0632
vn 0.6849 -0.5366 -0.4930
vn 0.5893 -0.0289 -0.8074
vn -0.6806 -0.5383 -0.4970
vn -0.5879 -0.0274 -0.8085
vn -0.6788 0.5043 -0.5338
vn 0.6815 0.5011 -0.5334
s 1
f 1/1/1 3/2/2 5/3/3 4/4/4
f 9/5/5 8/6/6 12/7/7 13/8/8
f 8/6/6 10/9/9 14/10/10 12/7/7
f 4/11/4 5/3/3 11/12/11 10/9/9
f 3/2/2 9/13/5 5/3/3
f 9/5/5 11/12/11 5/3/3
f 10/9/9 11/12/11 6/14/12 14/10/10
f 7/15/13 13/8/8 12/16/7 2/17/14
f 9/5/5 3/2/2 1/18/1 8/6/6
f 14/19/10 6/14/12 7/15/13 2/17/14
f 10/9/9 8/6/6 4/11/4
f 8/6/6 1/18/1 4/4/4
f 7/15/13 6/20/12 13/8/8
f 6/14/12 11/12/11 9/5/5 13/8/8
f 14/19/10 2/17/14 12/16/7
