# Blender v2.93.18 OBJ File: ''
# www.blender.org
o Rear_Roof_russian\R111_ISU130\normal\l\Hull.pri~11~5.2302
v 45.806992 23.499945 -21.023582
v 45.806992 23.499931 -103.987984
v -45.806992 23.499990 -21.023582
v 45.806992 24.999945 -21.023582
v 45.806992 24.999931 -103.987984
v -45.806992 24.999945 -21.023582
v -45.806992 24.999931 -103.987984
v -45.806992 23.499931 -103.987984
vt 0.479300 0.124000
vt 0.631700 0.124000
vt 0.631700 0.124000
vt 0.479300 0.124000
vt 0.479300 0.292700
vt 0.479300 0.292700
vt 0.631700 0.292700
vt 0.631700 0.292700
vn 0.5774 -0.5774 0.5774
vn 0.5774 -0.5774 -0.5774
vn 0.5774 0.5774 -0.5774
vn 0.5774 0.5774 0.5774
vn -0.5774 -0.5773 0.5774
vn -0.5774 0.5774 0.5774
vn -0.5774 -0.5774 -0.5774
vn -0.5774 0.5774 -0.5774
s 1
f 1/1/1 2/2/2 5/3/3 4/4/4
f 3/5/5 1/1/1 4/4/4 6/6/6
f 8/7/7 3/5/5 6/6/6 7/8/8
f 2/2/2 8/7/7 7/8/8 5/3/3
f 4/4/4 5/3/3 7/8/8 6/6/6
f 8/7/7 2/2/2 1/1/1 3/5/5
