# Blender v2.93.18 OBJ File: ''
# www.blender.org
o Rear_Top_russian\R111_ISU130\normal\l\Hull.pri~11~5.2321
v 49.767612 9.104692 -120.106216
v 45.806992 23.864506 -103.007835
v 49.767612 10.240117 -121.086365
v 45.806992 24.999931 -103.987984
v -45.806992 24.999931 -103.987984
v -49.767612 10.240117 -121.086365
v -45.806992 23.864506 -103.007835
v -49.767612 9.104692 -120.106216
vt 0.639800 0.124400
vt 0.681400 0.117100
vt 0.681400 0.117100
vt 0.639800 0.124400
vt 0.681400 0.300300
vt 0.000000 0.000000
vt 0.681400 0.300300
vt 0.639800 0.293000
vt 0.639800 0.293000
vn 0.5193 -0.0461 0.8533
vn 0.6317 -0.7747 -0.0293
vn 0.6240 0.0854 -0.7767
vn 0.5243 0.8478 0.0800
vn -0.6240 0.0854 -0.7767
vn -0.6240 -0.7808 -0.0289
vn -0.5266 -0.0375 0.8493
vn -0.5168 0.8523 0.0804
s 1
f 2/1/1 1/2/2 3/3/3 4/4/4
f 6/5/5 3/3/3 1/6/2 8/7/6
f 8/7/6 7/8/7 5/9/8 6/5/5
f 7/8/7 2/1/1 4/4/4 5/9/8
f 8/7/6 1/6/2 2/1/1 7/8/7
f 4/4/4 3/3/3 6/5/5 5/9/8
