# Blender v2.93.18 OBJ File: 'Ibishu covet 9.blend'
# www.blender.org
mtllib Ibishu covet lettering_ibishu.mtl
o lettering_ibishu_covet_lettering_ibishu
v 22.479837 -21.873560 -16.109337
v 20.062754 -21.875410 -16.275991
v 20.110865 -20.794390 -16.028473
v 22.306568 -20.792933 -15.876504
v 24.964043 -21.872812 -15.776345
v 24.914320 -20.792618 -15.512645
vt 0.498553 0.893135
vt 0.270744 1.003037
vt 0.253150 0.893323
vt 0.005982 1.003068
vt 0.000934 0.893400
vt 0.493666 1.002891
vn 0.0671 0.2200 -0.9732
vn 0.0980 0.2245 -0.9695
vn 0.1029 0.2269 -0.9685
vn 0.1304 0.2377 -0.9625
vn 0.1289 0.2408 -0.9620
vn 0.0672 0.2198 -0.9732
usemtl covet_lettering
s 1
f 2/1/1 4/2/2 1/3/3
f 1/3/3 6/4/4 5/5/5
f 2/1/1 3/6/6 4/2/2
f 1/3/3 4/2/2 6/4/4
