# Blender v2.93.18 OBJ File: 'Ibishu covet 8.blend'
# www.blender.org
o gauges_covet_gauges
v 10.010255 12.242962 25.426765
v 9.988011 12.219772 25.419365
v 9.989940 12.469341 25.499323
v 10.009272 12.448040 25.492514
v 9.896633 11.385366 25.152632
v 9.894587 11.168516 25.082869
v 9.872027 11.151430 25.077396
v 9.875414 11.406588 25.159443
v 8.535023 12.220718 25.418221
v 8.531124 12.472252 25.498417
v 8.513723 12.240047 25.424324
v 8.512738 12.450954 25.491608
v 8.643487 11.156231 25.078024
v 8.642109 11.407965 25.157946
v 8.624313 11.174696 25.083851
v 8.622266 11.383989 25.150230
v 17.108429 10.874184 24.983774
v 16.765045 12.531742 25.517591
v 19.381575 13.531780 25.829561
v 19.803740 12.554733 25.517591
v 7.668449 13.934536 25.960897
v 10.088838 14.368431 26.100346
v 9.989940 12.469341 25.499323
v 8.531124 12.472252 25.498417
v 13.228319 14.405399 26.110975
v 13.228319 12.542805 25.517591
v 10.010255 12.242962 25.426765
v 10.009272 12.448040 25.492514
v 16.367802 14.381264 26.100346
v 13.228123 10.868517 24.983774
v 20.295353 10.922375 24.998026
v 20.260078 10.877571 24.983774
v 18.900158 14.133823 26.021370
v 19.181574 13.872959 25.938221
v 20.288816 11.041901 25.036135
v 18.502443 14.266975 26.063890
v 7.556520 14.124298 26.021370
v 7.954197 14.256855 26.063890
v 9.875414 11.406588 25.159443
v 8.642109 11.407965 25.157946
v 8.535023 12.220718 25.418221
v 9.988011 12.219772 25.419365
v 8.512738 12.450954 25.491608
v 8.513723 12.240047 25.424324
v 6.652939 12.545166 25.517591
v 7.075065 13.523472 25.829561
v 8.622266 11.383989 25.150230
v 8.624313 11.174696 25.083851
v 6.170224 11.016390 25.036135
v 8.643487 11.156231 25.078024
v 9.348209 10.859264 24.983774
v 9.894587 11.168516 25.082869
v 9.896633 11.385366 25.152632
v 9.872027 11.151430 25.077396
v 7.275064 13.864021 25.938221
v 6.200066 10.849737 24.983774
v 6.164515 10.895130 24.998026
vt 0.623033 0.404819
vt 0.624356 0.399068
vt 0.624243 0.461020
vt 0.623092 0.455737
vt 0.629784 0.192035
vt 0.629904 0.138171
vt 0.631247 0.133936
vt 0.631046 0.197288
vt 0.710721 0.399187
vt 0.710951 0.461612
vt 0.711986 0.403984
vt 0.712044 0.456325
vt 0.704291 0.135353
vt 0.704360 0.197579
vt 0.705428 0.139920
vt 0.705539 0.191634
vt 0.200752 0.061666
vt 0.221152 0.474247
vt 0.065670 0.722130
vt 0.040588 0.479120
vt 0.762216 0.824683
vt 0.618394 0.933591
vt 0.624243 0.461020
vt 0.710951 0.461612
vt 0.431580 0.941899
vt 0.431580 0.478522
vt 0.623033 0.404819
vt 0.623092 0.455737
vt 0.244750 0.933591
vt 0.431593 0.061670
vt 0.011378 0.072804
vt 0.013473 0.061666
vt 0.094277 0.871904
vt 0.077556 0.806984
vt 0.011766 0.102544
vt 0.117914 0.905127
vt 0.768869 0.871904
vt 0.745232 0.905127
vt 0.631046 0.197288
vt 0.704360 0.197579
vt 0.710721 0.399187
vt 0.624356 0.399068
vt 0.712044 0.456325
vt 0.711986 0.403984
vt 0.822559 0.479120
vt 0.797477 0.722130
vt 0.705539 0.191634
vt 0.705428 0.139920
vt 0.851380 0.102544
vt 0.704291 0.135353
vt 0.662406 0.061666
vt 0.629904 0.138171
vt 0.629784 0.192035
vt 0.631247 0.133936
vt 0.785590 0.806984
vt 0.849672 0.061666
vt 0.851770 0.072804
vn -0.0013 0.3052 -0.9523
vn -0.0007 0.3062 -0.9520
vn 0.0011 0.3044 -0.9525
vn 0.0027 0.3039 -0.9527
vn 0.0011 0.3044 -0.9526
vn 0.0035 0.3025 -0.9531
vn -0.0023 0.3051 -0.9523
vn 0.0010 0.3018 -0.9534
vn -0.0015 0.3037 -0.9528
vn 0.0001 0.3020 -0.9533
vn 0.0002 0.3052 -0.9523
vn -0.0003 0.3034 -0.9529
vn -0.0000 0.3036 -0.9528
vn -0.0003 0.3038 -0.9528
vn 0.0000 0.3043 -0.9526
vn -0.0003 0.3032 -0.9529
vn 0.0004 0.3039 -0.9527
vn -0.0009 0.3008 -0.9537
vn 0.0004 0.3045 -0.9525
vn 0.0012 0.3047 -0.9524
vn 0.0020 0.3032 -0.9529
vn 0.0027 0.3037 -0.9528
vn 0.0023 0.3052 -0.9523
vn -0.0010 0.3023 -0.9532
vn -0.0008 0.3006 -0.9537
vn -0.0008 0.3007 -0.9537
vn -0.0011 0.3041 -0.9527
vn -0.0008 0.3066 -0.9518
vn -0.0015 0.3047 -0.9525
vn -0.0017 0.3054 -0.9522
vn -0.0003 0.3017 -0.9534
vn -0.0018 0.3040 -0.9527
vn 0.0014 0.3025 -0.9532
vn 0.0005 0.3039 -0.9527
vn -0.0007 0.3063 -0.9519
vn -0.0007 0.3006 -0.9538
vn 0.0024 0.3052 -0.9523
vn 0.0002 0.3038 -0.9527
vn -0.0009 0.2989 -0.9543
vn -0.0009 0.2995 -0.9541
vn -0.0009 0.2999 -0.9540
vn -0.0005 0.3059 -0.9521
vn 0.0007 0.3040 -0.9527
vn -0.0007 0.3010 -0.9536
s off
f 1/1/1 2/2/1 3/3/1 4/4/1
f 5/5/2 6/6/2 7/7/2 8/8/2
f 9/9/3 10/10/3 3/3/3 2/2/3
f 9/9/4 11/11/4 12/12/4 10/10/4
f 13/13/5 14/14/5 8/8/5 7/7/5
f 13/13/6 15/15/6 16/16/6 14/14/6
f 17/17/7 18/18/7 19/19/7 20/20/7
f 21/21/8 22/22/8 23/23/8 24/24/8
f 25/25/9 26/26/9 27/27/9 28/28/9
f 29/29/10 18/18/10 26/26/10 25/25/10
f 18/18/11 17/17/11 30/30/11 26/26/11
f 17/17/12 31/31/12 32/32/12
f 29/29/13 33/33/13 34/34/13
f 17/17/14 35/35/14 31/31/14
f 29/29/15 36/36/15 33/33/15
f 20/20/16 35/35/16 17/17/16
f 22/22/17 21/21/17 37/37/17
f 29/29/18 34/34/18 19/19/18 18/18/18
f 22/22/19 37/37/19 38/38/19
f 39/39/20 40/40/20 41/41/20 42/42/20
f 43/43/21 44/44/21 45/45/21 46/46/21
f 46/46/22 24/24/22 43/43/22
f 44/44/23 41/41/23 40/40/23 45/45/23
f 47/47/24 48/48/24 49/49/24
f 48/48/25 50/50/25 49/49/25
f 50/50/26 51/51/26 49/49/26
f 52/52/27 53/53/27 26/26/27 30/30/27
f 54/54/28 52/52/28 30/30/28
f 42/42/29 27/27/29 26/26/29 39/39/29
f 26/26/30 53/53/30 39/39/30
f 23/23/31 22/22/31 25/25/31
f 25/25/32 28/28/32 23/23/32
f 46/46/33 55/55/33 21/21/33 24/24/33
f 21/21/34 55/55/34 37/37/34
f 54/54/35 30/30/35 51/51/35
f 47/47/36 49/49/36 45/45/36
f 40/40/37 47/47/37 45/45/37
s 1
f 51/51/38 56/56/39 57/57/40
f 51/51/38 57/57/40 49/49/41
f 54/54/42 51/51/43 50/50/44
