# Blender v2.93.18 OBJ File: 'Ibishu covet 9.blend'
# www.blender.org
mtllib Ibishu covet lettering_15zxi.mtl
o lettering_15zxi_covet_lettering_15zxi
v -21.738697 -21.873444 -16.173668
v -24.296959 -21.875095 -15.877564
v -24.258732 -20.794548 -15.620167
v -21.750311 -20.795256 -15.920049
v -20.159643 -21.872892 -16.286503
v -20.204054 -20.793011 -16.038591
vt 0.517626 0.481563
vt 0.260148 0.591432
vt 0.259028 0.482404
vt 0.360819 0.692793
vt 0.205481 0.802158
vt 0.200982 0.692849
vt 0.513754 0.590933
vt 0.361996 0.801930
vn -0.1145 0.2320 -0.9659
vn -0.0943 0.2280 -0.9691
vn -0.0921 0.2256 -0.9699
vn -0.0716 0.2232 -0.9721
vn -0.0696 0.2205 -0.9729
vn -0.1153 0.2340 -0.9654
usemtl covet_lettering
s 1
f 2/1/1 4/2/2 1/3/3
f 1/4/3 6/5/4 5/6/5
f 2/1/1 3/7/6 4/2/2
f 1/4/3 4/8/2 6/5/4
