# Blender v2.93.18 OBJ File: 'Ibishu covet 9.blend'
# www.blender.org
mtllib Ibishu covet lettering_13s.mtl
o lettering_13s_covet_lettering_13s
v -21.738697 -21.873444 -16.173668
v -22.830544 -21.874151 -16.047293
v -22.820900 -20.794939 -15.792053
v -21.750311 -20.795256 -15.920049
v -20.159643 -21.872892 -16.286503
v -20.204054 -20.793011 -16.038591
vt 0.975209 0.477874
vt 0.865960 0.587261
vt 0.864839 0.478233
vt 0.506736 0.692793
vt 0.351398 0.802158
vt 0.346899 0.692849
vt 0.974199 0.587048
vt 0.507913 0.801930
vn -0.1138 0.2280 -0.9670
vn -0.0947 0.2278 -0.9691
vn -0.0921 0.2256 -0.9699
vn -0.0716 0.2232 -0.9721
vn -0.0696 0.2205 -0.9729
vn -0.1155 0.2296 -0.9664
usemtl covet_lettering
s 1
f 2/1/1 4/2/2 1/3/3
f 1/4/3 6/5/4 5/6/5
f 2/1/1 3/7/6 4/2/2
f 1/4/3 4/8/2 6/5/4
