# Blender v2.93.18 OBJ File: 'Ibishu covet 8.blend'
# www.blender.org
o lettering_15zxi_covet_lettering_15zxi
v -21.738697 -21.873444 -16.173668
v -24.296959 -21.875095 -15.877564
v -24.258732 -20.794548 -15.620167
v -21.750311 -20.795256 -15.920049
v -20.159643 -21.872892 -16.286503
v -20.204054 -20.793011 -16.038591
vt 0.259028 0.482404
vt 0.517626 0.481563
vt 0.513754 0.590933
vt 0.260148 0.591432
vt 0.200982 0.692849
vt 0.360819 0.692793
vt 0.361996 0.801930
vt 0.205481 0.802158
vn -0.0925 0.2271 -0.9695
vn -0.1137 0.2302 -0.9665
vn -0.0934 0.2272 -0.9694
vn -0.0722 0.2240 -0.9719
s 1
f 1/1/1 2/2/2 3/3/2 4/4/3
f 5/5/4 1/6/1 4/7/3 6/8/4
