# Blender v2.93.18 OBJ File: 'Ibishu covet 9.blend'
# www.blender.org
mtllib Ibishu covet hood_logo.mtl
o hood_logo_covet_logo_F
v 0.000000 -5.455940 41.742481
v 0.000000 -5.654049 42.031807
v 1.250824 -5.657553 41.987633
v 1.251493 -5.459246 41.702400
v 0.000000 -4.957357 40.465511
v 1.253620 -4.960114 40.431850
v -1.251533 -5.459246 41.702400
v -1.250824 -5.657553 41.987633
v -1.253659 -4.960074 40.431850
vt 0.688819 0.218498
vt 0.899138 0.161808
vt 0.899149 0.222704
vt 0.688819 0.458301
vt 0.899173 0.462459
vt 0.478499 0.161808
vt 0.688819 0.157483
vt 0.478488 0.222704
vt 0.478465 0.462459
vn 0.0000 0.8828 0.4697
vn 0.0208 0.8216 0.5697
vn 0.0168 0.8830 0.4690
vn 0.0000 0.9311 0.3647
vn 0.0119 0.9307 0.3656
vn -0.0208 0.8216 0.5697
vn 0.0000 0.8251 0.5650
vn -0.0168 0.8830 0.4690
vn -0.0118 0.9307 0.3657
usemtl covet_lettering
s 1
f 1/1/1 3/2/2 4/3/3
f 5/4/4 4/3/3 6/5/5
f 1/1/1 8/6/6 2/7/7
f 5/4/4 7/8/8 1/1/1
f 1/1/1 2/7/7 3/2/2
f 5/4/4 1/1/1 4/3/3
f 1/1/1 7/8/8 8/6/6
f 5/4/4 9/9/9 7/8/8
