# Blender v2.93.18 OBJ File: 'Ibishu covet 9.blend'
# www.blender.org
mtllib Ibishu covet lettering_dohc.mtl
o lettering_dohc_covet_lettering_dohc
v 0.000630 4.481497 -71.627563
v -1.944799 4.479254 -71.595398
v -1.942870 5.159449 -71.487686
v 0.000630 5.161140 -71.533905
v 1.945547 5.159330 -71.487717
v 1.947201 4.479254 -71.595398
vt 0.418888 0.164172
vt 0.212952 0.249302
vt 0.212952 0.164173
vt 0.004260 0.164172
vt 0.418888 0.249309
vt 0.004260 0.249294
vn -0.0221 0.1521 -0.9881
vn -0.0000 0.1408 -0.9900
vn -0.0000 0.1365 -0.9906
vn 0.0221 0.1521 -0.9881
vn -0.0236 0.1564 -0.9874
vn 0.0236 0.1564 -0.9874
usemtl covet_lettering
s 1
f 2/1/1 4/2/2 1/3/3
f 4/2/2 6/4/4 1/3/3
f 2/1/1 3/5/5 4/2/2
f 4/2/2 5/6/6 6/4/4
