# Blender v2.93.18 OBJ File: 'Ibishu covet 8.blend'
# www.blender.org
o boot_light_covet_chmsl
v 2.649128 -14.378074 -11.315053
v -0.000079 -15.163269 -11.516315
v -0.000039 -14.199018 -11.297415
v -2.649128 -14.378074 -11.315053
v 2.413263 -14.200318 -11.277811
v -2.413302 -14.200318 -11.277811
v 3.027120 -15.164056 -11.487296
v -3.027081 -15.164016 -11.487339
vt 0.043569 0.396729
vt 0.129268 0.370518
vt 0.129268 0.402502
vt 0.214963 0.396728
vt 0.051199 0.402602
vt 0.207335 0.402602
vt 0.031340 0.370701
vt 0.227190 0.370700
vn 0.0090 0.2181 -0.9759
vn 0.0000 0.2208 -0.9753
vn 0.0000 0.2211 -0.9752
vn -0.0090 0.2181 -0.9759
vn 0.0080 0.2153 -0.9765
vn -0.0080 0.2153 -0.9765
vn 0.0094 0.2184 -0.9758
vn -0.0094 0.2184 -0.9758
s 1
f 1/1/1 2/2/2 3/3/3
f 2/2/2 4/4/4 3/3/3
f 3/3/3 5/5/5 1/1/1
f 4/4/4 6/6/6 3/3/3
f 1/1/1 7/7/7 2/2/2
f 2/2/2 8/8/8 4/4/4
