# Blender v2.93.18 OBJ File: 'Scania 111 new 10.blend'
# www.blender.org
mtllib Scania 110 gauge speedo.mtl
o gauge_speedo_piece_11.005
v -22.533945 30.533806 -51.443596
v -22.533945 29.592484 -50.698845
v -22.960894 31.403435 -52.131592
v -22.696680 30.986420 -51.801704
v -24.781473 32.429192 -52.943405
v -23.750118 32.068909 -52.658318
v -23.316599 31.768898 -52.421021
v -24.244637 32.292091 -52.834801
v -26.928581 32.068909 -52.658318
v -25.897480 32.429192 -52.943405
v -25.339346 32.475616 -52.980057
v -26.434071 32.292091 -52.834801
v -28.145021 30.533806 -51.443596
v -27.717810 31.403435 -52.131592
v -27.362108 31.768898 -52.421021
v -27.982290 30.986420 -51.801704
v -27.717810 28.722847 -50.010849
v -28.145021 29.592484 -50.698845
v -28.199978 30.063004 -51.071350
v -27.982290 29.139870 -50.340996
v -25.897232 27.697083 -49.199310
v -26.928581 28.057114 -49.484390
v -27.362108 28.357384 -49.721687
v -26.434071 27.834206 -49.307915
v -23.750118 28.057373 -49.484390
v -24.781473 27.697083 -49.199310
v -25.339346 27.650650 -49.162651
v -24.244637 27.834206 -49.307915
v -22.960894 28.722847 -50.010849
v -23.316599 28.357384 -49.721687
v -22.696680 29.139870 -50.340996
v -22.479000 30.063004 -51.071350
vt 0.896338 0.767788
vt 0.967909 0.410915
vt 0.967909 0.596416
vt 0.940629 0.685603
vt 0.764036 0.898924
vt 0.591139 0.969922
vt 0.836708 0.839801
vt 0.681135 0.942902
vt 0.404057 0.969922
vt 0.231207 0.898924
vt 0.497622 0.979071
vt 0.314108 0.942902
vt 0.098906 0.767788
vt 0.027285 0.596416
vt 0.158532 0.839801
vt 0.054568 0.685603
vt 0.027285 0.410915
vt 0.098906 0.239546
vt 0.018078 0.503642
vt 0.054568 0.321729
vt 0.231207 0.108356
vt 0.404101 0.037414
vt 0.158532 0.167531
vt 0.314108 0.064432
vt 0.591139 0.037414
vt 0.764036 0.108412
vt 0.497622 0.028261
vt 0.681135 0.064432
vt 0.896338 0.239546
vt 0.836708 0.167531
vt 0.940629 0.321729
vt 0.977120 0.503642
vn -0.0000 0.6205 0.7842
vn 0.0002 0.6204 0.7843
vn 0.0002 0.6205 0.7842
vn -0.0002 0.6204 0.7843
vn 0.0001 0.6207 0.7841
vn -0.0000 0.6204 0.7842
vn 0.0000 0.6204 0.7843
vn 0.0003 0.6204 0.7843
vn -0.0001 0.6205 0.7842
vn -0.0001 0.6204 0.7843
vn 0.0001 0.6205 0.7842
vn 0.0000 0.6206 0.7841
vn -0.0000 0.6206 0.7842
vn 0.0001 0.6204 0.7843
usemtl mat_0011
s 1
f 3/1/1 2/2/2 1/3/3
f 3/1/1 1/3/3 4/4/4
f 6/5/5 5/6/6 3/1/1
f 6/5/5 3/1/1 7/7/1
f 5/6/6 6/5/5 8/8/1
f 10/9/7 9/10/1 5/6/6
f 10/9/7 5/6/6 11/11/7
f 9/10/1 10/9/7 12/12/1
f 14/13/8 13/14/9 9/10/1
f 14/13/8 9/10/1 15/15/1
f 13/14/9 14/13/8 16/16/2
f 13/14/9 2/2/2 5/6/6
f 13/14/9 5/6/6 9/10/1
f 18/17/10 17/18/10 13/14/9
f 18/17/10 13/14/9 19/19/1
f 17/18/10 18/17/10 20/20/1
f 22/21/1 21/22/7 17/18/10
f 22/21/1 17/18/10 23/23/11
f 21/22/7 22/21/1 24/24/9
f 21/22/7 2/2/2 13/14/9
f 21/22/7 13/14/9 17/18/10
f 26/25/7 25/26/7 21/22/7
f 26/25/7 21/22/7 27/27/12
f 25/26/7 26/25/7 28/28/13
f 29/29/14 2/2/2 25/26/7
f 29/29/14 25/26/7 30/30/1
f 2/2/2 29/29/14 31/31/1
f 2/2/2 21/22/7 25/26/7
f 2/2/2 3/1/1 5/6/6
f 2/2/2 32/32/1 1/3/3
