# Blender v2.93.18 OBJ File: 'Scania 111 new 10.blend'
# www.blender.org
mtllib Scania 110 gauge multi.mtl
o gauge_multi_piece_7.005
v -14.339607 30.267723 -51.301056
v -15.458249 31.679565 -52.418037
v -14.732640 31.067589 -51.933662
v -14.489460 30.683937 -51.630119
v -15.059691 31.403717 -52.199745
v -15.458249 31.679565 -52.418037
v -17.135027 32.030342 -52.695518
v -16.281389 31.978760 -52.654793
v -15.913066 31.884552 -52.580124
v -16.704660 32.030342 -52.695518
v -16.281389 31.978760 -52.654793
v -17.135027 32.030342 -52.695518
v -16.919712 27.616165 -49.203110
v -17.135027 32.030342 -52.695518
v -17.135027 32.030342 -52.695518
v -18.779989 31.403717 -52.199745
v -17.926619 31.884552 -52.580124
v -17.558035 31.978760 -52.654793
v -18.381433 31.679565 -52.418037
v -17.926619 31.884552 -52.580124
v -18.779989 31.403717 -52.199745
v -19.550558 29.834923 -50.958412
v -19.350222 30.683937 -51.630119
v -19.107040 31.067589 -51.933662
v -19.499813 30.267723 -51.301056
v -19.350222 30.683937 -51.630119
v -19.550558 29.834923 -50.958412
v -18.779989 28.266167 -49.717346
v -19.350222 28.985939 -50.286690
v -19.499813 29.402138 -50.616035
v -19.107040 28.602287 -49.983154
v -19.350222 28.985939 -50.286690
v -18.779989 28.266167 -49.717346
v -17.926619 27.785049 -49.336685
v -18.381433 27.990311 -49.499054
v -17.433153 27.658806 -49.236771
v -15.059691 28.266167 -49.717346
v -15.913066 27.785049 -49.336685
v -16.406532 27.658806 -49.236771
v -15.458249 27.990311 -49.499054
v -14.489460 28.985939 -50.286690
v -14.732640 28.602287 -49.983154
v -15.059691 28.266167 -49.717346
v -14.489460 28.985939 -50.286690
v -14.339607 30.267723 -51.301056
v -14.289133 29.834923 -50.958412
v -14.339607 29.402138 -50.616035
v -14.489460 28.985939 -50.286690
vt 0.831502 0.703940
vt 0.721018 0.812402
vt 0.891347 0.562179
vt 0.868530 0.635948
vt 0.781704 0.763512
vt 0.595684 0.865429
vt 0.465706 0.874574
vt 0.721018 0.812402
vt 0.651766 0.848731
vt 0.465706 0.874574
vt 0.595684 0.865429
vt 0.531235 0.874574
vt 0.465706 0.874574
vt 0.498490 0.092241
vt 0.345175 0.848731
vt 0.215237 0.763512
vt 0.465706 0.874574
vt 0.401297 0.865429
vt 0.215237 0.763512
vt 0.345175 0.848731
vt 0.275923 0.812402
vt 0.128412 0.635948
vt 0.097908 0.485477
vt 0.165440 0.703940
vt 0.097908 0.485477
vt 0.128412 0.635948
vt 0.105634 0.562179
vt 0.128412 0.335007
vt 0.215237 0.207440
vt 0.105634 0.408773
vt 0.215237 0.207440
vt 0.128412 0.335007
vt 0.165440 0.267013
vt 0.345175 0.122173
vt 0.275923 0.158552
vt 0.420312 0.099799
vt 0.651766 0.122173
vt 0.781704 0.207440
vt 0.576629 0.099799
vt 0.721018 0.158552
vt 0.868530 0.335007
vt 0.868530 0.335007
vt 0.781704 0.207440
vt 0.831502 0.267013
vt 0.891347 0.408773
vt 0.899033 0.485477
vt 0.891347 0.562179
vt 0.868530 0.335007
vn -0.0003 0.6204 0.7843
vn -0.0000 0.6205 0.7842
vn -0.0001 0.6204 0.7843
vn 0.0001 0.6205 0.7842
vn 0.0001 0.6206 0.7841
vn 0.0001 0.6207 0.7840
vn 0.0001 0.6207 0.7841
vn 0.0000 0.6197 0.7849
vn -0.0001 0.6206 0.7841
vn -0.0000 0.6206 0.7842
vn -0.0001 0.6207 0.7840
vn -0.0001 0.6205 0.7842
vn -0.0002 0.6205 0.7842
vn 0.0000 0.6204 0.7843
vn 0.0001 0.6206 0.7842
vn -0.0001 0.6206 0.7842
vn -0.0003 0.6208 0.7840
vn 0.0000 0.6206 0.7841
vn -0.0002 0.6206 0.7842
usemtl mat_0007
s 1
f 3/1/1 2/2/2 1/3/3
f 3/1/1 1/3/3 4/4/4
f 2/2/2 3/1/1 5/5/5
f 8/6/5 7/7/6 6/8/7
f 8/6/5 6/8/7 9/9/5
f 12/10/8 11/11/8 10/12/8
f 14/13/2 13/14/2 1/3/3
f 14/13/2 1/3/3 2/2/2
f 17/15/9 16/16/10 15/17/9
f 17/15/9 15/17/9 18/18/11
f 21/19/10 20/20/10 19/21/10
f 23/22/2 22/23/2 21/19/2
f 23/22/2 21/19/2 24/24/4
f 27/25/12 26/26/12 25/27/12
f 22/23/2 13/14/2 14/13/2
f 22/23/2 14/13/2 21/19/2
f 29/28/13 28/29/2 22/23/2
f 29/28/13 22/23/2 30/30/12
f 33/31/14 32/32/14 31/33/14
f 34/34/15 13/14/2 28/29/2
f 34/34/15 28/29/2 35/35/2
f 13/14/2 34/34/15 36/36/14
f 13/14/2 22/23/2 28/29/2
f 38/37/16 37/38/12 13/14/2
f 38/37/16 13/14/2 39/39/14
f 37/38/12 38/37/16 40/40/17
f 37/38/12 41/41/2 1/3/3
f 37/38/12 1/3/3 13/14/2
f 44/42/18 43/43/18 42/44/18
f 47/45/19 46/46/12 45/47/12
f 47/45/19 45/47/12 48/48/16
