# Blender v2.93.18 OBJ File: 'Ford Fiesta HFHV 7.blend'
# www.blender.org
mtllib Fiesta HFHV door r window.mtl
o door_r_window_x0_window_fr
v 6.576442 22.589254 -41.100540
v 4.824477 18.102449 -33.209770
v 4.548180 18.205204 -33.209770
v 4.598139 17.493946 -33.064377
v 6.282624 22.781771 -34.385120
v 4.748178 18.756977 -40.131569
v 4.523101 18.151937 -39.974083
v 4.321802 17.596703 -33.064377
v 6.596599 23.219564 -47.954151
v 6.300144 22.692009 -41.100540
v 5.061288 18.589655 -47.111713
v 4.799398 18.049143 -39.974083
v 6.407899 22.651854 -41.100540
v 6.332584 22.070354 -34.239727
v 6.056287 22.173109 -34.239727
v 6.525182 23.297125 -41.258022
v 6.558922 22.679016 -34.385120
v 6.820222 23.821138 -48.067928
v 6.801482 23.194372 -41.258022
v 7.096519 23.718384 -48.067928
v 6.704354 23.179804 -47.954151
v 6.872899 23.116810 -47.954151
v 4.784990 18.692410 -47.111713
v 5.284910 19.190834 -47.204975
v 5.116365 19.253433 -47.204975
v 5.008610 19.293589 -47.204975
v 4.855934 18.716816 -40.131569
v 5.024476 18.654217 -40.131569
v 5.637783 21.465631 -46.713203
v 5.637783 21.465631 -46.516354
v 5.995222 21.300667 -46.713203
v 5.566325 21.310907 -46.811630
v 5.852310 20.990828 -46.713203
v 5.494870 21.156181 -46.713203
v 5.923767 21.145945 -46.811630
v 5.494870 21.156181 -46.516354
v 5.923767 21.145945 -46.417931
v 5.566325 21.310907 -46.417931
v 5.852310 20.990828 -46.516354
v 5.995222 21.300667 -46.516354
v 3.590701 13.151784 -13.013197
v 3.670660 12.527139 -8.324112
v 4.606486 15.874535 -9.042261
v 4.506249 16.176857 -11.717058
v 3.595070 14.046588 -20.771765
v 4.510973 17.013905 -19.885820
v 4.631091 17.772367 -28.253950
v 3.726723 14.775249 -28.458006
v 4.756997 18.162054 -33.186893
v 3.972864 15.551351 -37.414955
v 4.965894 18.718786 -40.163258
v 4.237903 16.189304 -45.518166
v 5.185225 19.184534 -45.901196
v 4.556210 16.492926 -50.328785
v 5.484357 19.498707 -51.018112
v 7.615653 25.161289 -46.664032
v 7.868526 25.346333 -52.369926
v 9.567183 29.231363 -47.231152
v 9.748995 29.195932 -53.222168
v 9.148839 28.849077 -38.279404
v 7.230967 24.578613 -38.110191
v 8.689745 28.024672 -31.487881
v 8.327817 27.244751 -28.047968
v 6.828094 23.562078 -27.946510
v 6.250341 22.054207 -34.254295
v 8.001517 26.412071 -24.949942
v 7.575927 25.271132 -21.395895
v 6.339750 22.005390 -18.398420
v 6.042309 20.397516 -10.008989
v 6.567505 22.249876 -13.843706
v 7.092661 23.876644 -17.841846
v 6.501245 22.596338 -41.077148
vt 0.442871 -0.232300
vt 0.513184 -0.248291
vt 0.509766 -0.175415
vt 0.442139 -0.159546
vt 0.513184 -0.248291
vt 0.509766 -0.175415
vt 0.582031 -0.275391
vt 0.581543 -0.264160
vt 0.581543 -0.264160
vt 0.582031 -0.275391
vt 0.578125 -0.190918
vt 0.577637 -0.179688
vt 0.577637 -0.179810
vt 0.578125 -0.190918
vt 0.513184 -0.248291
vt 0.442871 -0.232300
vt 0.442871 -0.243286
vt 0.513672 -0.259521
vt 0.509277 -0.164307
vt 0.441895 -0.148560
vt 0.442139 -0.159546
vt 0.509766 -0.175415
vt 0.442871 -0.243286
vt 0.513672 -0.259521
vt 0.509277 -0.164307
vt 0.441895 -0.148438
vt 0.442139 -0.159546
vt 0.442871 -0.232300
vt 0.492188 -0.164063
vt 0.491699 -0.167236
vt 0.494141 -0.169312
vt 0.503906 -0.171265
vt 0.504883 -0.164795
vt 0.503906 -0.164551
vt 0.499512 -0.163818
vt 0.498535 -0.163574
vt 0.497314 -0.169922
vt 0.498291 -0.170166
vt 0.499512 -0.170410
vt 0.500488 -0.163940
vt 0.497070 -0.168335
vt 0.497803 -0.165039
vt 0.501953 -0.164185
vt 0.500488 -0.170654
vt 0.501465 -0.170776
vt 0.502930 -0.164429
vt 0.495361 -0.162964
vt 0.502441 -0.171021
vt 0.776367 -0.367432
vt 0.822266 -0.380615
vt 0.820801 -0.321045
vt 0.794434 -0.314697
vt 0.699707 -0.346436
vt 0.713379 -0.294434
vt 0.630859 -0.274658
vt 0.623535 -0.327637
vt 0.581543 -0.263672
vt 0.535156 -0.306396
vt 0.454834 -0.287842
vt 0.512695 -0.247559
vt 0.455811 -0.234009
vt 0.407227 -0.277100
vt 0.405273 -0.223022
vt 0.458496 -0.123535
vt 0.401611 -0.114258
vt 0.459961 -0.046417
vt 0.399902 -0.040863
vt 0.548828 -0.062561
vt 0.543457 -0.142334
vt 0.615723 -0.084106
vt 0.643555 -0.169434
vt 0.648926 -0.101624
vt 0.577637 -0.191650
vt 0.736816 -0.205200
vt 0.678711 -0.119446
vt 0.712402 -0.143188
vt 0.745605 -0.171265
vt 0.818359 -0.239624
vt 0.783203 -0.203735
vt 0.510254 -0.175781
vn -0.9288 0.3705 -0.0097
vn -0.9308 0.3655 -0.0065
vn -0.9298 0.3680 -0.0082
vn -0.9277 0.3730 -0.0114
vn 0.0778 0.2094 0.9747
vn 0.0777 0.2094 0.9747
vn 0.0762 0.2048 0.9758
vn -0.9376 0.3476 -0.0046
vn -0.9376 0.3475 -0.0082
vn -0.9377 0.3475 -0.0082
vn -0.9375 0.3480 -0.0028
vn -0.9372 0.3488 0.0007
vn -0.9382 0.3460 -0.0113
vn -0.9381 0.3461 -0.0140
vn -0.9381 0.3460 -0.0140
vn -0.9381 0.3463 -0.0098
vn -0.9378 0.3470 -0.0071
vn -0.3475 -0.9339 -0.0843
vn -0.3474 -0.9340 -0.0835
vn -0.3474 -0.9339 -0.0843
vn -0.3473 -0.9339 -0.0852
vn -0.3479 -0.9337 -0.0850
vn -0.3449 -0.9346 -0.0869
vn -0.3476 -0.9338 -0.0843
vn -0.3474 -0.9340 -0.0830
vn -0.3470 -0.9342 -0.0830
vn 0.3473 0.9339 0.0846
vn 0.3474 0.9341 0.0823
vn 0.3473 0.9337 0.0869
vn -0.0608 -0.1635 -0.9847
vn -0.0604 -0.1638 -0.9846
vn -0.0608 -0.1637 -0.9846
vn -0.0609 -0.1637 -0.9846
vn -0.0610 -0.1634 -0.9847
vn -0.0536 -0.1443 -0.9881
vn -0.0555 -0.1493 -0.9872
vn -0.0502 -0.1349 -0.9896
vn -0.0502 -0.1348 -0.9896
vn 0.3476 0.9338 0.0842
vn 0.3480 0.9338 0.0837
vn 0.3480 0.9337 0.0841
vn 0.3473 0.9339 0.0845
vn 0.3469 0.9341 0.0845
vn -0.9079 0.4193 -0.0000
vn 0.4190 0.9080 0.0000
vn 0.2096 0.4541 -0.8660
vn -0.2098 -0.4537 -0.8661
vn -0.2092 -0.4534 -0.8664
vn -0.2095 -0.4535 -0.8663
vn -0.2100 -0.4539 -0.8660
vn -0.4199 -0.9076 0.0000
vn -0.2096 -0.4538 0.8661
vn -0.2096 -0.4532 0.8664
vn -0.2096 -0.4534 0.8663
vn -0.2096 -0.4541 0.8660
vn -0.4198 -0.9076 0.0000
vn 0.2096 0.4541 0.8660
vn -0.9604 0.2753 0.0427
vn -0.9586 0.2795 0.0536
vn -0.9548 0.2904 0.0635
vn -0.9535 0.2971 0.0503
vn -0.9574 0.2880 0.0200
vn -0.9495 0.3131 0.0227
vn -0.9471 0.3207 0.0066
vn -0.9574 0.2887 0.0048
vn -0.9489 0.3156 -0.0006
vn -0.9560 0.2933 -0.0051
vn -0.9545 0.2971 -0.0255
vn -0.9489 0.3155 -0.0074
vn -0.9420 0.3346 -0.0242
vn -0.9562 0.2900 -0.0404
vn -0.9406 0.3379 -0.0336
vn -0.9163 0.3998 -0.0230
vn -0.9131 0.4067 -0.0287
vn -0.9023 0.4303 -0.0259
vn -0.9007 0.4334 -0.0299
vn -0.9108 0.4126 -0.0144
vn -0.9242 0.3817 -0.0088
vn -0.9212 0.3892 -0.0042
vn -0.9304 0.3666 0.0038
vn -0.9262 0.3770 -0.0055
vn -0.9333 0.3591 -0.0012
vn -0.9358 0.3519 0.0221
vn -0.9272 0.3745 0.0070
vn -0.9305 0.3660 0.0120
vn -0.9298 0.3675 0.0222
vn -0.9439 0.3276 0.0418
vn -0.9419 0.3346 0.0291
vn -0.9301 0.3672 -0.0119
usemtl Window_Glass
s 1
f 25/1/1 27/2/2 13/3/3
f 13/3/3 21/4/4 25/1/1
f 28/5/5 1/6/6 13/3/6
f 13/3/6 27/2/5 28/5/5
f 4/7/7 2/8/7 3/9/7
f 3/9/7 8/10/7 4/7/7
f 14/11/7 17/12/7 5/13/7
f 5/13/7 15/14/7 14/11/7
f 6/15/8 26/16/9 23/17/10
f 23/17/10 7/18/11 6/15/8
f 3/9/12 6/15/8 7/18/11
f 7/18/11 8/10/12 3/9/12
f 16/19/13 18/20/14 9/21/15
f 9/21/15 10/22/16 16/19/13
f 5/13/17 16/19/13 10/22/16
f 10/22/16 15/14/17 5/13/17
f 7/18/18 23/17/19 11/23/19
f 11/23/19 12/24/20 7/18/18
f 8/10/21 7/18/18 12/24/20
f 12/24/20 4/7/21 8/10/21
f 10/22/22 9/21/23 21/4/23
f 21/4/23 13/3/24 10/22/22
f 13/3/24 15/14/25 10/22/22
f 13/3/24 1/6/26 15/14/25
f 1/6/26 14/11/25 15/14/25
f 16/19/27 5/13/28 17/12/28
f 17/12/28 19/25/27 16/19/27
f 18/20/29 16/19/27 19/25/27
f 19/25/27 20/26/29 18/20/29
f 21/4/30 9/21/31 18/20/32
f 20/26/33 21/4/30 18/20/32
f 20/26/33 22/27/34 21/4/30
f 25/1/35 21/4/30 22/27/34
f 22/27/34 24/28/36 25/1/35
f 25/1/35 23/17/37 26/16/38
f 25/1/35 24/28/36 23/17/37
f 24/28/36 11/23/37 23/17/37
f 27/2/39 25/1/40 26/16/40
f 26/16/40 6/15/41 27/2/39
f 27/2/39 6/15/41 3/9/42
f 2/8/42 27/2/39 3/9/42
f 2/8/42 28/5/43 27/2/39
f 30/29/44 29/30/44 32/31/44
f 31/32/45 29/33/45 30/34/45
f 32/35/46 29/36/46 31/37/46
f 32/35/47 35/38/48 33/39/49
f 33/39/49 34/40/50 32/35/47
f 32/31/44 34/41/44 36/42/44
f 31/37/46 35/38/46 32/35/46
f 30/29/44 32/31/44 36/42/44
f 36/43/51 34/40/51 33/39/51
f 36/43/52 39/44/53 37/45/54
f 37/45/54 38/46/55 36/43/52
f 38/47/44 30/29/44 36/42/44
f 33/39/51 39/44/56 36/43/51
f 30/34/57 38/46/57 37/45/57
f 37/45/57 40/48/57 30/34/57
f 30/34/45 40/48/45 31/32/45
f 41/49/58 42/50/59 43/51/60
f 43/51/60 44/52/61 41/49/58
f 45/53/62 41/49/58 44/52/61
f 44/52/61 46/54/63 45/53/62
f 45/53/62 46/54/63 47/55/64
f 47/55/64 48/56/65 45/53/62
f 48/56/65 47/55/64 49/57/66
f 50/58/67 48/56/65 49/57/66
f 52/59/68 50/58/67 51/60/69
f 50/58/67 49/57/66 51/60/69
f 51/60/69 53/61/70 52/59/68
f 54/62/71 52/59/68 53/61/70
f 53/61/70 55/63/72 54/62/71
f 55/63/72 53/61/70 56/64/73
f 56/64/73 57/65/74 55/63/72
f 57/65/74 56/64/73 58/66/75
f 58/66/75 59/67/76 57/65/74
f 60/68/77 58/66/75 56/64/73
f 56/64/73 61/69/78 60/68/77
f 62/70/79 60/68/77 61/69/78
f 62/70/79 64/71/80 63/72/81
f 61/69/78 64/71/80 62/70/79
f 65/73/82 64/71/80 61/69/78
f 64/71/80 65/73/82 49/57/66
f 49/57/66 47/55/64 64/71/80
f 68/74/83 64/71/80 47/55/64
f 63/72/81 64/71/80 66/75/84
f 67/76/85 66/75/84 64/71/80
f 64/71/80 68/74/83 67/76/85
f 71/77/86 67/76/85 68/74/83
f 47/55/64 46/54/63 68/74/83
f 69/78/87 68/74/83 46/54/63
f 69/78/87 70/79/88 68/74/83
f 68/74/83 70/79/88 71/77/86
f 43/51/60 69/78/87 44/52/61
f 46/54/63 44/52/61 69/78/87
f 61/69/78 72/80/89 65/73/82
f 72/80/89 56/64/73 53/61/70
f 53/61/70 51/60/69 72/80/89
f 72/80/89 61/69/78 56/64/73
