# Blender v2.93.18 OBJ File: 'Ford Fiesta HFHV 7.blend'
# www.blender.org
mtllib Fiesta HFHV door l window.mtl
o door_l_window_x0_window_fl
v -6.409082 22.651854 -41.100582
v -4.857116 18.716816 -40.131569
v -6.577624 22.589254 -41.100582
v -4.825660 18.102449 -33.209770
v -4.599282 17.493946 -33.064377
v -6.560104 22.679016 -34.385120
v -5.009793 19.293589 -47.204975
v -4.749361 18.756977 -40.131569
v -4.549362 18.205204 -33.209770
v -4.322985 17.596703 -33.064377
v -6.821404 23.821138 -48.067928
v -6.526364 23.297125 -41.258022
v -6.597782 23.219959 -47.954151
v -6.283807 22.781771 -34.385120
v -4.786173 18.692410 -47.111713
v -4.524284 18.151937 -39.974129
v -4.800581 18.049143 -39.974129
v -5.062470 18.589655 -47.111713
v -6.301327 22.692009 -41.100582
v -6.057469 22.173109 -34.239727
v -6.333767 22.070354 -34.239727
v -6.802664 23.194372 -41.258022
v -6.705537 23.179804 -47.954151
v -7.097702 23.718384 -48.067928
v -6.874082 23.116810 -47.954151
v -5.117548 19.253433 -47.204975
v -5.286093 19.190834 -47.204975
v -5.025659 18.654217 -40.131569
v -4.758180 18.162054 -33.186893
v -3.727906 14.775249 -28.458006
v -4.632273 17.772367 -28.253950
v -3.974047 15.551351 -37.414955
v -4.967077 18.718786 -40.163258
v -6.829277 23.562078 -27.946510
v -6.251523 22.054207 -34.254295
v -7.232150 24.578613 -38.110191
v -6.502428 22.596338 -41.077148
v -7.616836 25.161289 -46.664070
v -5.186407 19.184534 -45.901196
v -4.239085 16.189304 -45.518166
v -4.557352 16.492926 -50.328785
v -5.485540 19.498707 -51.018112
v -7.869709 25.346333 -52.369926
v -9.568365 29.231363 -47.231194
v -9.750177 29.195932 -53.222168
v -9.150022 28.849077 -38.279404
v -8.690928 28.024672 -31.487881
v -8.328959 27.244751 -28.047968
v -8.002700 26.412071 -24.949942
v -7.577109 25.271132 -21.395895
v -7.093843 23.876644 -17.841887
v -6.340933 22.005390 -18.398420
v -4.512116 17.013905 -19.885820
v -6.043492 20.397516 -10.008989
v -6.568688 22.249876 -13.843744
v -4.607669 15.874535 -9.042261
v -4.507432 16.176857 -11.717058
v -3.591883 13.151784 -13.013197
v -3.596253 14.046588 -20.771765
v -3.671843 12.527139 -8.324112
v -5.638925 21.465631 -46.516396
v -5.638925 21.465631 -46.713238
v -5.996405 21.300667 -46.713238
v -5.996405 21.300667 -46.516396
v -5.924950 21.145945 -46.417969
v -5.567508 21.310907 -46.417969
v -5.567508 21.310907 -46.811668
v -5.496053 21.156181 -46.516396
v -5.853492 20.990828 -46.516396
v -5.853492 20.990828 -46.713238
v -5.496053 21.156181 -46.713238
v -5.924950 21.145945 -46.811668
vt 0.442871 -0.232300
vt 0.442139 -0.159546
vt 0.509766 -0.175415
vt 0.513184 -0.248291
vt 0.513184 -0.248291
vt 0.509766 -0.175415
vt 0.582031 -0.275391
vt 0.582031 -0.275391
vt 0.581543 -0.264160
vt 0.581543 -0.264160
vt 0.578125 -0.190918
vt 0.578125 -0.190918
vt 0.577637 -0.179810
vt 0.577637 -0.179688
vt 0.442871 -0.243286
vt 0.442871 -0.232300
vt 0.513184 -0.248291
vt 0.513672 -0.259521
vt 0.442139 -0.159546
vt 0.441895 -0.148560
vt 0.509277 -0.164307
vt 0.509766 -0.175415
vt 0.442871 -0.243286
vt 0.513672 -0.259521
vt 0.509277 -0.164307
vt 0.441895 -0.148438
vt 0.442139 -0.159546
vt 0.442871 -0.232300
vt 0.728516 -0.018127
vt 0.682129 -0.060913
vt 0.640137 0.003220
vt 0.633301 -0.049805
vt 0.643555 -0.169434
vt 0.630859 -0.274658
vt 0.581543 -0.263672
vt 0.750977 -0.076904
vt 0.577637 -0.191650
vt 0.543457 -0.142334
vt 0.510254 -0.175781
vt 0.458496 -0.123535
vt 0.455811 -0.234009
vt 0.512695 -0.247559
vt 0.807617 -0.090454
vt 0.809082 -0.036682
vt 0.856445 -0.047455
vt 0.858398 -0.101501
vt 0.405273 -0.223022
vt 0.401611 -0.114258
vt 0.459961 -0.046417
vt 0.399902 -0.040863
vt 0.548828 -0.062561
vt 0.615723 -0.084106
vt 0.648926 -0.101624
vt 0.678711 -0.119446
vt 0.712402 -0.143188
vt 0.745605 -0.171265
vt 0.736816 -0.205200
vt 0.713379 -0.294434
vt 0.818359 -0.239624
vt 0.783203 -0.203735
vt 0.820801 -0.321045
vt 0.794434 -0.314697
vt 0.776367 -0.367432
vt 0.699707 -0.346436
vt 0.623535 -0.327637
vt 0.822266 -0.380615
vt 0.494141 -0.169312
vt 0.491699 -0.167236
vt 0.492188 -0.164063
vt 0.503906 -0.164551
vt 0.504883 -0.164795
vt 0.503906 -0.171265
vt 0.502441 -0.171021
vt 0.501465 -0.170776
vt 0.502930 -0.164429
vt 0.495361 -0.162964
vt 0.497803 -0.165039
vt 0.501953 -0.164185
vt 0.500488 -0.170654
vt 0.499512 -0.170410
vt 0.500488 -0.163940
vt 0.497070 -0.168335
vt 0.499512 -0.163818
vt 0.498291 -0.170166
vt 0.497314 -0.169922
vt 0.498535 -0.163574
vn 0.9288 0.3705 -0.0097
vn 0.9277 0.3730 -0.0114
vn 0.9298 0.3680 -0.0082
vn 0.9308 0.3655 -0.0065
vn -0.0778 0.2094 0.9747
vn -0.0777 0.2094 0.9747
vn -0.0762 0.2048 0.9758
vn -0.0761 0.2048 0.9758
vn 0.9377 0.3475 -0.0082
vn 0.9376 0.3475 -0.0082
vn 0.9376 0.3476 -0.0046
vn 0.9375 0.3480 -0.0028
vn 0.9372 0.3488 0.0007
vn 0.9380 0.3462 -0.0140
vn 0.9380 0.3463 -0.0140
vn 0.9382 0.3460 -0.0112
vn 0.9381 0.3463 -0.0098
vn 0.9378 0.3470 -0.0071
vn 0.3474 -0.9340 -0.0835
vn 0.3475 -0.9339 -0.0843
vn 0.3473 -0.9339 -0.0852
vn 0.3479 -0.9335 -0.0870
vn 0.3479 -0.9337 -0.0850
vn 0.3476 -0.9338 -0.0843
vn 0.3474 -0.9340 -0.0830
vn 0.3470 -0.9342 -0.0830
vn -0.3474 0.9341 0.0823
vn -0.3473 0.9339 0.0846
vn -0.3473 0.9337 0.0869
vn 0.0609 -0.1637 -0.9846
vn 0.0610 -0.1637 -0.9846
vn 0.0610 -0.1635 -0.9847
vn 0.0611 -0.1634 -0.9847
vn 0.0536 -0.1443 -0.9881
vn 0.0555 -0.1493 -0.9872
vn 0.0502 -0.1349 -0.9896
vn 0.0502 -0.1348 -0.9896
vn -0.3480 0.9338 0.0836
vn -0.3476 0.9338 0.0842
vn -0.3480 0.9337 0.0841
vn -0.3473 0.9339 0.0845
vn -0.3469 0.9341 0.0845
vn 0.9560 0.2933 -0.0051
vn 0.9489 0.3156 -0.0006
vn 0.9574 0.2887 0.0048
vn 0.9471 0.3207 0.0066
vn 0.9304 0.3666 0.0038
vn 0.9489 0.3155 -0.0074
vn 0.9333 0.3591 -0.0012
vn 0.9242 0.3817 -0.0088
vn 0.9301 0.3672 -0.0119
vn 0.9163 0.3998 -0.0230
vn 0.9420 0.3346 -0.0241
vn 0.9545 0.2971 -0.0255
vn 0.9562 0.2900 -0.0404
vn 0.9406 0.3379 -0.0336
vn 0.9131 0.4067 -0.0287
vn 0.9023 0.4303 -0.0259
vn 0.9007 0.4334 -0.0299
vn 0.9108 0.4126 -0.0144
vn 0.9212 0.3892 -0.0042
vn 0.9262 0.3770 -0.0056
vn 0.9272 0.3744 0.0070
vn 0.9305 0.3660 0.0120
vn 0.9298 0.3675 0.0222
vn 0.9358 0.3519 0.0221
vn 0.9495 0.3131 0.0227
vn 0.9439 0.3276 0.0418
vn 0.9419 0.3346 0.0291
vn 0.9548 0.2904 0.0635
vn 0.9535 0.2971 0.0503
vn 0.9604 0.2753 0.0427
vn 0.9574 0.2879 0.0199
vn 0.9586 0.2795 0.0536
vn 0.9079 0.4192 -0.0000
vn 0.9079 0.4191 0.0000
vn -0.4190 0.9080 0.0000
vn -0.2096 0.4541 0.8659
vn -0.2095 0.4541 0.8660
vn 0.9079 0.4192 0.0002
vn 0.2096 -0.4538 0.8661
vn 0.2096 -0.4541 0.8660
vn 0.2096 -0.4535 0.8663
vn 0.2097 -0.4532 0.8664
vn 0.4199 -0.9076 0.0000
vn 0.4198 -0.9076 0.0000
vn 0.9079 0.4193 0.0000
vn 0.2098 -0.4538 -0.8661
vn 0.2100 -0.4539 -0.8659
vn 0.2095 -0.4535 -0.8663
vn 0.2092 -0.4534 -0.8664
vn -0.2096 0.4541 -0.8659
usemtl Window_Glass
s 1
f 26/1/1 23/2/2 1/3/3
f 1/3/3 2/4/4 26/1/1
f 28/5/5 2/4/5 1/3/6
f 1/3/6 3/6/6 28/5/5
f 5/7/7 10/8/7 9/9/7
f 9/9/7 4/10/7 5/7/7
f 21/11/7 20/12/8 14/13/7
f 14/13/7 6/14/7 21/11/7
f 15/15/9 7/16/10 8/17/11
f 8/17/11 16/18/12 15/15/9
f 16/18/12 8/17/11 9/9/13
f 9/9/13 10/8/13 16/18/12
f 13/19/14 11/20/15 12/21/16
f 12/21/16 19/22/17 13/19/14
f 19/22/17 12/21/16 14/13/18
f 14/13/18 20/12/18 19/22/17
f 18/23/19 15/15/19 16/18/20
f 16/18/20 17/24/20 18/23/19
f 17/24/20 16/18/20 10/8/21
f 10/8/21 5/7/21 17/24/20
f 23/2/22 13/19/22 19/22/23
f 19/22/23 1/3/24 23/2/22
f 1/3/24 19/22/23 20/12/25
f 1/3/24 20/12/25 3/6/26
f 20/12/25 21/11/25 3/6/26
f 6/14/27 14/13/27 12/21/28
f 12/21/28 22/25/28 6/14/27
f 22/25/28 12/21/28 11/20/29
f 11/20/29 24/26/29 22/25/28
f 11/20/30 13/19/31 23/2/32
f 24/26/30 11/20/30 23/2/32
f 24/26/30 23/2/32 25/27/33
f 25/27/33 23/2/32 26/1/34
f 26/1/34 27/28/35 25/27/33
f 15/15/36 18/23/36 27/28/35
f 26/1/34 15/15/36 27/28/35
f 26/1/34 7/16/37 15/15/36
f 7/16/38 26/1/38 2/4/39
f 2/4/39 8/17/40 7/16/38
f 9/9/41 8/17/40 2/4/39
f 4/10/41 9/9/41 2/4/39
f 4/10/41 2/4/39 28/5/42
f 32/29/43 29/30/44 30/31/45
f 29/30/44 31/32/46 30/31/45
f 34/33/47 31/34/46 29/35/44
f 32/29/43 33/36/48 29/30/44
f 29/35/44 35/37/49 34/33/47
f 36/38/50 34/33/47 35/37/49
f 35/37/49 37/39/51 36/38/50
f 37/39/51 38/40/52 36/38/50
f 39/41/53 38/40/52 37/39/51
f 37/39/51 33/42/48 39/41/53
f 39/43/53 40/44/54 41/45/55
f 40/44/54 39/43/53 33/36/48
f 41/45/55 42/46/56 39/43/53
f 38/40/52 39/41/53 42/47/56
f 42/47/56 43/48/57 38/40/52
f 44/49/58 38/40/52 43/48/57
f 43/48/57 45/50/59 44/49/58
f 38/40/52 44/49/58 46/51/60
f 46/51/60 36/38/50 38/40/52
f 36/38/50 46/51/60 47/52/61
f 47/52/61 34/33/47 36/38/50
f 47/52/61 48/53/62 34/33/47
f 48/53/62 49/54/63 34/33/47
f 34/33/47 49/54/63 50/55/64
f 51/56/65 52/57/66 50/55/64
f 50/55/64 52/57/66 34/33/47
f 52/57/66 53/58/67 31/34/46
f 53/58/67 52/57/66 54/59/68
f 54/59/68 52/57/66 55/60/69
f 31/34/46 34/33/47 52/57/66
f 52/57/66 51/56/65 55/60/69
f 56/61/70 57/62/71 54/59/68
f 54/59/68 57/62/71 53/58/67
f 57/62/71 58/63/72 59/64/73
f 58/63/72 57/62/71 56/61/70
f 59/64/73 53/58/67 57/62/71
f 59/64/73 30/65/45 31/34/46
f 31/34/46 53/58/67 59/64/73
f 56/61/70 60/66/74 58/63/72
f 33/36/48 32/29/43 40/44/54
f 67/67/75 62/68/76 61/69/75
f 61/70/77 62/71/77 63/72/77
f 63/72/77 64/73/77 61/70/77
f 61/70/78 64/73/79 65/74/78
f 65/74/78 66/75/78 61/70/78
f 66/76/80 68/77/75 61/69/75
f 68/77/75 67/67/75 61/69/75
f 68/78/81 66/75/82 65/74/83
f 65/74/83 69/79/84 68/78/81
f 68/78/85 69/79/86 70/80/85
f 70/80/85 71/81/85 68/78/85
f 68/77/75 71/82/87 67/67/75
f 67/83/88 71/81/89 70/80/90
f 70/80/90 72/84/91 67/83/88
f 67/83/92 72/84/92 63/85/92
f 63/85/92 62/86/92 67/83/92
