# Blender v2.93.18 OBJ File: 'Dodge Ram SRT-10 10.blend'
# www.blender.org
o engine_chassis_ok.168
v 40.498341 15.818482 -59.401905
v 40.439854 16.025972 -59.142708
v 40.554867 15.598978 -59.753014
v 36.798096 14.494183 -61.563679
v 40.602211 15.374991 -60.191418
v 40.630241 15.150179 -60.712177
v 40.633915 14.941690 -61.302803
v 40.598579 14.772367 -61.954136
v 40.497471 14.611373 -62.928413
v 37.840565 16.915876 -58.126045
v 40.274818 16.538824 -58.543938
v 40.371807 16.252625 -58.888481
v 40.091316 14.318778 -66.169456
v 40.153206 16.835772 -58.176975
v 40.005367 17.096169 -57.863087
v 39.831951 17.313683 -57.600712
v 39.622456 17.479361 -57.380669
v 39.342644 17.623777 -57.186440
v 38.965271 17.775219 -56.996513
v 38.547909 17.911234 -56.828766
v 38.147167 18.020851 -56.694027
v 37.823112 18.090565 -56.592651
v 37.639275 18.118443 -56.533295
v 9.787205 20.172451 -66.752159
v 17.290564 20.061033 -65.895683
v 18.504967 19.967407 -65.694115
v 20.344677 19.547918 -65.338020
v 29.657146 18.766245 -62.536598
v 31.221645 18.651011 -61.837955
v 33.624985 18.464985 -60.499069
v -3.213609 20.218309 -67.089592
v -6.464164 20.194130 -66.966179
v -18.504967 19.967407 -65.694115
v -20.344677 19.547918 -65.338020
v -20.884998 19.442677 -65.220032
v -21.477951 19.362272 -65.083397
v -22.123688 19.291155 -64.925926
v -24.639408 19.101519 -64.220215
v -28.074781 18.874542 -63.134197
v -31.221645 18.651011 -61.837955
v -29.657146 18.766245 -62.536598
v 21.477951 19.362272 -65.083397
v 22.123688 19.291155 -64.925926
v 26.420025 18.982872 -63.677681
v 0.000000 17.238111 -71.947655
v -32.182514 14.732075 -65.464745
v -26.420025 18.982872 -63.677681
v -32.598362 18.545614 -61.129391
v -23.090336 19.209826 -64.662376
v -19.847967 19.693499 -65.439751
v -13.173268 17.152216 -71.681168
v -19.276325 19.842384 -65.547150
v -17.290564 20.061033 -65.895683
v -15.390570 20.117659 -66.171906
v -12.867274 20.148216 -66.472443
v -9.787205 20.172451 -66.752159
v 0.000000 20.230883 -67.124504
v 3.213609 20.218309 -67.089592
v 6.464164 20.194130 -66.966179
v 12.867274 20.148216 -66.472443
v 15.390570 20.117659 -66.171906
v 19.276325 19.842384 -65.547150
v 19.847967 19.693499 -65.439751
v 25.897623 15.461071 -68.714119
v 20.884998 19.442677 -65.220032
v 23.090336 19.209826 -64.662376
v 24.639408 19.101519 -64.220215
v 28.074781 18.874542 -63.134197
v 32.182514 14.732075 -65.464745
v 32.598362 18.545614 -61.129391
v -36.861832 14.494562 -60.971478
v -33.624985 18.464985 -60.499069
v -25.897623 15.461071 -68.714119
v 13.173268 17.152216 -71.681168
v 36.798096 14.494183 -61.563679
v 34.473351 18.398067 -59.850403
v 33.624985 18.464985 -60.499069
v 35.317383 18.334684 -59.079140
v 36.798096 14.494183 -61.563679
v 37.840565 16.915876 -58.126045
v 36.078552 18.293282 -58.262142
v 36.664776 18.294079 -57.462257
v 37.214832 18.138750 -56.587624
v 37.351730 18.131334 -56.516994
v 37.511303 18.122540 -56.490559
v 37.639275 18.118443 -56.533295
v -35.317383 18.334684 -59.079140
v -36.078552 18.293282 -58.262142
v -34.473351 18.398067 -59.850403
v -37.840565 16.915876 -58.126045
v -36.861832 14.494562 -60.971478
v -33.624985 18.464985 -60.499069
v -37.511303 18.122540 -56.490559
v -37.351730 18.131334 -56.516994
v -37.214832 18.138750 -56.587624
v -36.664776 18.294079 -57.462257
v -37.639275 18.118443 -56.533295
v -12.244396 11.981257 -109.217628
v -12.486833 13.189991 -101.364090
v -0.061434 13.396288 -102.071396
v -23.281012 10.166117 -107.482353
v -0.062402 12.274085 -109.747620
v 12.117778 11.981030 -109.215866
v 12.362099 13.189564 -101.361427
v 23.158199 10.166150 -107.483543
v 23.778875 11.903655 -100.149315
v 30.781008 9.108325 -102.245430
v 29.550179 8.378387 -105.146690
v 31.980160 9.811449 -99.158958
v 30.345182 11.573688 -91.341782
v 33.126862 10.488139 -95.976265
v 34.134655 11.069400 -92.935928
v 34.973190 11.527165 -90.208572
v 35.922348 12.028639 -86.814140
v 32.079197 12.193255 -83.456459
v 36.874981 12.536188 -83.078140
v 37.768570 13.029042 -79.185852
v 38.549904 13.465068 -75.411049
v 34.574760 13.409518 -71.879295
v 39.265182 13.849226 -71.399780
v 36.798096 14.494183 -61.563679
v 40.091316 14.318778 -66.169456
v 32.182514 14.732075 -65.464745
v 25.897623 15.461071 -68.714119
v 13.173268 17.152216 -71.681168
v 24.806465 13.681667 -84.730194
v 12.737704 15.170727 -86.821251
v 0.000000 17.238111 -71.947655
v -0.061284 15.316988 -87.309456
v -12.860212 15.171562 -86.817215
v -23.902250 11.904068 -100.150078
v -24.930145 13.682819 -84.729607
v -13.173268 17.152216 -71.681168
v -25.897623 15.461071 -68.714119
v -32.202049 12.194133 -83.454475
v -34.697735 13.411422 -71.880013
v -32.182514 14.732075 -65.464745
v -36.861832 14.494562 -60.971478
v -40.152348 14.319239 -65.573402
v -39.329670 13.849170 -70.805855
v -38.673630 13.467034 -75.412086
v -37.892838 13.030567 -79.187805
v -37.000111 12.534421 -83.075470
v -36.046936 12.029469 -86.816360
v -30.468794 11.574138 -91.338921
v -35.098568 11.527689 -90.206268
v -34.258705 11.066585 -92.939186
v -33.251637 10.488207 -95.975128
v -32.102604 9.811287 -99.156555
v -30.904427 9.107985 -102.241951
v -29.672194 8.381297 -105.146004
v 0.000000 -4.362964 -109.602341
v 23.663397 3.441751 -106.751205
v -12.244396 11.981257 -109.217628
v -0.062402 12.274085 -109.747620
v 12.117778 11.981030 -109.215866
v -23.663397 3.441751 -106.751205
v 23.872910 -4.270899 -106.782906
v -23.872910 -4.270899 -106.782906
v -23.281012 10.166117 -107.482353
v 23.158199 10.166150 -107.483543
v -39.831951 17.313683 -57.600712
v -37.840565 16.915876 -58.126045
v -39.622456 17.479361 -57.380669
v -40.005367 17.096169 -57.863087
v -40.153206 16.835772 -58.176975
v -40.274818 16.538824 -58.543938
v -40.371807 16.252625 -58.888481
v -36.861832 14.494562 -60.971478
v -40.152348 14.319239 -65.573402
v -40.497471 14.611373 -62.928413
v -40.598579 14.772367 -61.954136
v -40.633915 14.941690 -61.302803
v -40.630241 15.150179 -60.712177
v -40.602211 15.374991 -60.191418
v -40.554867 15.598978 -59.753014
v -40.498341 15.818482 -59.401905
v -40.439854 16.025972 -59.142708
v -39.342644 17.623777 -57.186440
v -38.965271 17.775219 -56.996513
v -38.547909 17.911234 -56.828766
v -38.147167 18.020851 -56.694027
v -37.823112 18.090565 -56.592651
v -37.639275 18.118443 -56.533295
v -37.068359 18.306675 -56.817764
v -36.664776 18.294079 -57.462257
v -37.214832 18.138750 -56.587624
v 37.068359 18.306675 -56.817764
v 36.664776 18.294079 -57.462257
v 37.214832 18.138750 -56.587624
vt 0.369417 0.996123
vt 0.369146 0.996245
vt 0.369146 0.996230
vt 0.369138 0.996214
vt 0.369138 0.996199
vt 0.369130 0.996184
vt 0.369130 0.996169
vt 0.369138 0.996154
vt 0.369146 0.996138
vt 0.369169 0.996108
vt 0.369340 0.996305
vt 0.369161 0.996275
vt 0.369154 0.996260
vt 0.369169 0.996305
vt 0.369177 0.996321
vt 0.369192 0.996336
vt 0.369208 0.996351
vt 0.369231 0.996366
vt 0.369254 0.996381
vt 0.369293 0.996381
vt 0.369316 0.996397
vt 0.369347 0.996397
vt 0.369355 0.996397
vt 0.773047 0.008906
vt 0.770961 0.017869
vt 0.770457 0.007706
vt 0.768046 0.006506
vt 0.761866 0.010911
vt 0.765750 0.005199
vt 0.763479 0.003695
vt 0.761486 0.002176
vt 0.755220 0.001568
vt 0.760005 0.000839
vt 0.775311 0.009909
vt 0.776715 0.010501
vt 0.777661 0.010866
vt 0.778529 0.011185
vt 0.779320 0.011458
vt 0.780041 0.011686
vt 0.789548 0.024675
vt 0.780879 0.011944
vt 0.782003 0.012294
vt 0.783786 0.012780
vt 0.786570 0.013463
vt 0.790277 0.014238
vt 0.794797 0.014998
vt 0.799674 0.015651
vt 0.808941 0.026088
vt 0.804459 0.016107
vt 0.809197 0.016411
vt 0.813934 0.016547
vt 0.818726 0.016517
vt 0.828357 0.026437
vt 0.823635 0.016304
vt 0.828186 0.015955
vt 0.831916 0.015514
vt 0.834731 0.015089
vt 0.836530 0.014770
vt 0.837677 0.014527
vt 0.838523 0.014345
vt 0.847261 0.021333
vt 0.839259 0.014177
vt 0.840066 0.013965
vt 0.840942 0.013737
vt 0.841903 0.013463
vt 0.843338 0.012992
vt 0.845648 0.012203
vt 0.848300 0.011245
vt 0.850766 0.010258
vt 0.856698 0.015211
vt 0.853123 0.009164
vt 0.855465 0.007858
vt 0.857535 0.006536
vt 0.863700 0.007691
vt 0.859078 0.005336
vt 0.369658 0.996427
vt 0.369596 0.996427
vt 0.369417 0.996123
vt 0.369534 0.996412
vt 0.369340 0.996305
vt 0.369479 0.996412
vt 0.369433 0.996412
vt 0.369386 0.996397
vt 0.369378 0.996397
vt 0.369371 0.996397
vt 0.369355 0.996397
vt 0.375039 0.996305
vt 0.374899 0.996412
vt 0.374845 0.996412
vt 0.374961 0.996123
vt 0.374783 0.996427
vt 0.374721 0.996427
vt 0.375008 0.996397
vt 0.375000 0.996397
vt 0.375023 0.996397
vt 0.374985 0.996397
vt 0.374946 0.996412
vt 0.788989 0.084363
vt 0.788927 0.100163
vt 0.772760 0.095939
vt 0.807250 0.086627
vt 0.806847 0.102046
vt 0.824821 0.101788
vt 0.825596 0.086034
vt 0.841174 0.099053
vt 0.852681 0.089027
vt 0.842477 0.084348
vt 0.850712 0.094785
vt 0.854612 0.082905
vt 0.852619 0.067090
vt 0.856473 0.076600
vt 0.858109 0.070554
vt 0.859497 0.065130
vt 0.861071 0.058370
vt 0.855589 0.051367
vt 0.862676 0.050926
vt 0.864196 0.043163
vt 0.865545 0.035628
vt 0.859877 0.028275
vt 0.866817 0.027622
vt 0.868306 0.017170
vt 0.863700 0.007691
vt 0.856698 0.015211
vt 0.847261 0.021333
vt 0.844803 0.053433
vt 0.828357 0.026437
vt 0.826914 0.056836
vt 0.808941 0.026088
vt 0.808033 0.056957
vt 0.789207 0.055119
vt 0.789548 0.024675
vt 0.772233 0.081158
vt 0.771535 0.050106
vt 0.770961 0.017869
vt 0.760889 0.047067
vt 0.757826 0.023642
vt 0.761866 0.010911
vt 0.755220 0.001568
vt 0.750126 0.010592
vt 0.751064 0.021166
vt 0.751778 0.030463
vt 0.752731 0.038104
vt 0.753840 0.045989
vt 0.755042 0.053554
vt 0.763021 0.063019
vt 0.756267 0.060436
vt 0.757361 0.065981
vt 0.758679 0.072149
vt 0.760206 0.078621
vt 0.761804 0.084910
vt 0.763471 0.090820
vt 0.465188 0.381725
vt 0.395797 0.334722
vt 0.432055 0.289968
vt 0.464800 0.289162
vt 0.432055 0.473483
vt 0.395797 0.429199
vt 0.394548 0.381968
vt 0.464800 0.474288
vt 0.403512 0.471994
vt 0.403512 0.291927
vt 0.375039 0.996305
vt 0.375202 0.996321
vt 0.375186 0.996336
vt 0.375171 0.996351
vt 0.375210 0.996305
vt 0.375217 0.996275
vt 0.374961 0.996123
vt 0.375225 0.996260
vt 0.375210 0.996108
vt 0.375233 0.996138
vt 0.375241 0.996154
vt 0.375248 0.996169
vt 0.375248 0.996184
vt 0.375241 0.996199
vt 0.375241 0.996214
vt 0.375233 0.996230
vt 0.375233 0.996245
vt 0.375147 0.996366
vt 0.375116 0.996381
vt 0.375085 0.996381
vt 0.375054 0.996397
vt 0.375031 0.996397
vt 0.375023 0.996397
vt 0.374946 0.996412
vt 0.374985 0.996397
vt 0.374977 0.996412
vt 0.369402 0.996412
vt 0.369386 0.996397
vt 0.369433 0.996412
vn -0.0323 0.9357 -0.3512
vn 0.0986 0.7672 -0.6338
vn 0.0512 0.8102 -0.5839
vn -0.0114 0.8639 -0.5034
vn -0.0513 0.8990 -0.4348
vn -0.0761 0.9257 -0.3706
vn -0.0912 0.9519 -0.2925
vn -0.0919 0.9756 -0.1995
vn -0.0729 0.9910 -0.1125
vn -0.0618 0.9947 -0.0820
vn 0.0130 0.8000 -0.5997
vn 0.0397 0.7909 -0.6106
vn 0.0924 0.7709 -0.6302
vn 0.0130 0.7768 -0.6297
vn 0.0126 0.7730 -0.6342
vn 0.0069 0.7843 -0.6203
vn -0.0015 0.7994 -0.6008
vn 0.0025 0.7968 -0.6042
vn 0.0104 0.7908 -0.6120
vn 0.0108 0.7904 -0.6124
vn -0.0067 0.7924 -0.6100
vn -0.0542 0.7924 -0.6076
vn -0.0760 0.7911 -0.6069
vn -0.2233 0.7870 -0.5750
vn -0.2840 0.7660 -0.5768
vn -0.2345 0.7851 -0.5733
vn -0.3124 0.7265 -0.6120
vn -0.4408 0.6642 -0.6037
vn -0.3166 0.6790 -0.6623
vn -0.3592 0.6798 -0.6394
vn -0.4827 0.5982 -0.6397
vn -0.5647 0.5711 -0.5958
vn -0.4855 0.4825 -0.7290
vn -0.2215 0.7875 -0.5751
vn -0.2251 0.7882 -0.5727
vn -0.2337 0.7910 -0.5654
vn -0.2622 0.8016 -0.5372
vn -0.3196 0.8227 -0.4702
vn -0.2763 0.7811 -0.5599
vn -0.0998 0.8432 -0.5282
vn -0.2885 0.7376 -0.6105
vn -0.2156 0.7956 -0.5661
vn -0.1369 0.8425 -0.5210
vn -0.0881 0.8619 -0.4994
vn -0.0608 0.8668 -0.4950
vn -0.0429 0.8647 -0.5004
vn -0.0237 0.8523 -0.5225
vn 0.0000 0.8490 -0.5283
vn -0.0208 0.8460 -0.5327
vn 0.0000 0.8497 -0.5272
vn 0.0208 0.8460 -0.5327
vn 0.0237 0.8523 -0.5225
vn 0.0998 0.8432 -0.5282
vn 0.0429 0.8647 -0.5004
vn 0.0608 0.8668 -0.4950
vn 0.0881 0.8619 -0.4994
vn 0.1369 0.8425 -0.5210
vn 0.2156 0.7956 -0.5661
vn 0.2885 0.7376 -0.6105
vn 0.2763 0.7811 -0.5599
vn 0.2840 0.7660 -0.5768
vn 0.3196 0.8227 -0.4702
vn 0.2622 0.8016 -0.5372
vn 0.2337 0.7910 -0.5654
vn 0.2251 0.7882 -0.5727
vn 0.2215 0.7875 -0.5751
vn 0.2233 0.7870 -0.5750
vn 0.2345 0.7851 -0.5733
vn 0.3124 0.7265 -0.6120
vn 0.4246 0.6706 -0.6082
vn 0.3166 0.6790 -0.6623
vn 0.3592 0.6798 -0.6394
vn 0.4559 0.6232 -0.6354
vn 0.5199 0.6037 -0.6044
vn 0.4660 0.5567 -0.6877
vn 0.5217 0.5837 -0.6221
vn 0.5426 0.5868 -0.6010
vn 0.5513 0.5903 -0.5895
vn 0.5626 0.6069 -0.5614
vn 0.5540 0.6635 -0.5027
vn 0.5663 0.6782 -0.4682
vn 0.6157 0.6998 -0.3622
vn 0.4653 0.7753 -0.4270
vn 0.2248 0.8091 -0.5429
vn 0.0089 0.8055 -0.5925
vn -0.1779 0.7744 -0.6072
vn -0.5525 0.6383 -0.5360
vn -0.5663 0.6782 -0.4682
vn -0.5728 0.5634 -0.5953
vn -0.5548 0.5339 -0.6380
vn -0.5637 0.5275 -0.6356
vn -0.5438 0.5216 -0.6574
vn -0.0089 0.8055 -0.5925
vn -0.2248 0.8091 -0.5429
vn 0.1779 0.7744 -0.6071
vn -0.4653 0.7753 -0.4270
vn -0.6157 0.6998 -0.3622
vn -0.0851 0.9845 -0.1530
vn -0.0999 0.9832 -0.1528
vn -0.2200 0.9465 -0.2361
vn 0.0000 0.9903 -0.1386
vn 0.0000 0.9895 -0.1446
vn 0.0999 0.9832 -0.1527
vn 0.0851 0.9845 -0.1530
vn 0.2200 0.9465 -0.2361
vn 0.2999 0.9035 -0.3060
vn 0.2017 0.9599 -0.1948
vn 0.3737 0.8495 -0.3723
vn 0.2253 0.9474 -0.2275
vn 0.1435 0.9788 -0.1461
vn 0.0283 0.9769 -0.2118
vn 0.0494 0.9800 -0.1925
vn 0.0507 0.9847 -0.1668
vn -0.0217 0.9940 -0.1067
vn 0.0801 0.9905 -0.1119
vn -0.0619 0.9915 -0.1143
vn -0.0798 0.9924 -0.0938
vn -0.0934 0.9916 -0.0895
vn 0.0474 0.9926 -0.1122
vn -0.0852 0.9933 -0.0775
vn -0.0751 0.9935 -0.0856
vn 0.0353 0.9931 -0.1120
vn 0.1738 0.9753 -0.1363
vn 0.1773 0.9757 -0.1284
vn 0.1831 0.9751 -0.1246
vn 0.0870 0.9880 -0.1276
vn 0.0770 0.9884 -0.1309
vn 0.0000 0.9919 -0.1274
vn 0.0000 0.9917 -0.1284
vn -0.0771 0.9884 -0.1306
vn -0.0865 0.9881 -0.1269
vn -0.2018 0.9598 -0.1948
vn -0.1831 0.9752 -0.1239
vn -0.1762 0.9761 -0.1268
vn -0.0799 0.9905 -0.1115
vn -0.0490 0.9928 -0.1094
vn -0.1779 0.9753 -0.1310
vn -0.0387 0.9936 -0.1063
vn 0.0688 0.9941 -0.0836
vn 0.0765 0.9942 -0.0751
vn 0.0912 0.9920 -0.0870
vn 0.0797 0.9923 -0.0941
vn 0.0613 0.9915 -0.1147
vn 0.0216 0.9940 -0.1065
vn -0.1436 0.9788 -0.1462
vn -0.0508 0.9846 -0.1672
vn -0.0499 0.9800 -0.1927
vn -0.0283 0.9769 -0.2118
vn -0.2254 0.9473 -0.2275
vn -0.2999 0.9036 -0.3058
vn -0.3731 0.8503 -0.3711
vn 0.0002 -0.0363 -0.9993
vn 0.1129 -0.0629 -0.9916
vn 0.1325 -0.0502 -0.9899
vn 0.1173 0.0073 -0.9931
vn -0.1327 -0.0516 -0.9898
vn -0.1132 -0.0644 -0.9915
vn 0.0000 -0.0087 -0.9999
vn -0.1173 0.0073 -0.9931
vn -0.1386 -0.0992 -0.9854
vn 0.1387 -0.0969 -0.9856
vn -0.0040 0.7758 -0.6309
vn -0.0126 0.7730 -0.6342
vn -0.0069 0.7843 -0.6203
vn 0.0015 0.7994 -0.6008
vn -0.0130 0.7768 -0.6297
vn -0.0049 0.7699 -0.6381
vn 0.0697 0.9118 -0.4046
vn -0.0031 0.7616 -0.6480
vn 0.0848 0.9915 -0.0984
vn 0.0955 0.9883 -0.1184
vn 0.1229 0.9736 -0.1920
vn 0.1375 0.9483 -0.2860
vn 0.1349 0.9204 -0.3670
vn 0.1194 0.8926 -0.4347
vn 0.0891 0.8573 -0.5070
vn 0.0367 0.8041 -0.5933
vn -0.0066 0.7603 -0.6495
vn -0.0025 0.7968 -0.6042
vn -0.0104 0.7908 -0.6120
vn -0.0108 0.7904 -0.6124
vn 0.0067 0.7924 -0.6100
vn 0.0543 0.7924 -0.6076
vn 0.0760 0.7911 -0.6069
vn -0.8474 0.0115 -0.5308
vn 0.8474 0.0116 -0.5308
s 1
f 4/1/1 2/2/2 1/3/3
f 1/3/3 3/4/4 4/1/1
f 4/1/1 3/4/4 5/5/5
f 4/1/1 5/5/5 6/6/6
f 4/1/1 6/6/6 7/7/7
f 4/1/1 7/7/7 8/8/8
f 4/1/1 8/8/8 9/9/9
f 4/1/1 9/9/9 13/10/10
f 10/11/11 11/12/12 4/1/1
f 4/1/1 11/12/12 12/13/13
f 4/1/1 12/13/13 2/2/2
f 10/11/11 14/14/14 11/12/12
f 10/11/11 15/15/15 14/14/14
f 10/11/11 16/16/16 15/15/15
f 10/11/11 17/17/17 16/16/16
f 10/11/11 18/18/18 17/17/17
f 10/11/11 19/19/19 18/18/18
f 10/11/11 20/20/20 19/19/19
f 10/11/11 21/21/21 20/20/20
f 10/11/11 22/22/22 21/21/21
f 23/23/23 22/22/22 10/11/11
f 38/24/24 73/25/25 47/26/26
f 47/26/26 73/25/25 39/27/27
f 39/27/27 73/25/25 46/28/28
f 39/27/27 46/28/28 41/29/29
f 41/29/29 46/28/28 40/30/30
f 40/30/30 46/28/28 48/31/31
f 48/31/31 46/28/28 71/32/32
f 48/31/31 71/32/32 72/33/33
f 38/24/24 49/34/34 73/25/25
f 73/25/25 49/34/34 37/35/35
f 73/25/25 37/35/35 36/36/36
f 73/25/25 36/36/36 35/37/37
f 73/25/25 35/37/37 34/38/38
f 73/25/25 34/38/38 50/39/39
f 73/25/25 50/39/39 51/40/40
f 51/40/40 50/39/39 52/41/41
f 51/40/40 52/41/41 33/42/42
f 51/40/40 33/42/42 53/43/43
f 51/40/40 53/43/43 54/44/44
f 51/40/40 54/44/44 55/45/45
f 51/40/40 55/45/45 56/46/46
f 51/40/40 56/46/46 32/47/47
f 51/40/40 32/47/47 45/48/48
f 45/48/48 32/47/47 31/49/49
f 45/48/48 31/49/49 57/50/50
f 45/48/48 57/50/50 58/51/51
f 45/48/48 58/51/51 59/52/52
f 45/48/48 59/52/52 74/53/53
f 74/53/53 59/52/52 24/54/54
f 74/53/53 24/54/54 60/55/55
f 74/53/53 60/55/55 61/56/56
f 74/53/53 61/56/56 25/57/57
f 74/53/53 25/57/57 26/58/58
f 74/53/53 26/58/58 62/59/59
f 74/53/53 62/59/59 63/60/60
f 74/53/53 63/60/60 64/61/61
f 63/60/60 27/62/62 64/61/61
f 64/61/61 27/62/62 65/63/63
f 64/61/61 65/63/63 42/64/64
f 64/61/61 42/64/64 43/65/65
f 64/61/61 43/65/65 66/66/66
f 64/61/61 66/66/66 67/67/67
f 64/61/61 67/67/67 44/68/68
f 64/61/61 44/68/68 68/69/69
f 64/61/61 68/69/69 69/70/70
f 69/70/70 68/69/69 28/71/71
f 69/70/70 28/71/71 29/72/72
f 69/70/70 29/72/72 70/73/73
f 69/70/70 70/73/73 75/74/74
f 75/74/74 70/73/73 30/75/75
f 77/76/76 76/77/77 79/78/78
f 79/78/78 76/77/77 78/79/79
f 79/78/78 78/79/79 80/80/80
f 80/80/80 81/81/81 82/82/82
f 80/80/80 78/79/79 81/81/81
f 80/80/80 82/82/82 83/83/83
f 80/80/80 83/83/83 84/84/84
f 80/80/80 84/84/84 85/85/85
f 80/80/80 85/85/85 86/86/86
f 90/87/87 88/88/88 87/89/89
f 91/90/90 87/89/89 89/91/91
f 90/87/87 87/89/89 91/90/90
f 91/90/90 89/91/91 92/92/92
f 90/87/87 93/93/93 94/94/94
f 97/95/95 93/93/93 90/87/87
f 90/87/87 94/94/94 95/96/96
f 90/87/87 95/96/96 96/97/97
f 90/87/87 96/97/97 88/88/88
f 99/98/98 98/99/99 101/100/100
f 99/98/98 100/101/101 98/99/99
f 100/101/101 102/102/102 98/99/99
f 100/101/101 103/103/103 102/102/102
f 104/104/104 103/103/103 100/101/101
f 104/104/104 105/105/105 103/103/103
f 107/106/106 105/105/105 106/107/107
f 106/107/107 105/105/105 104/104/104
f 108/108/108 105/105/105 107/106/106
f 107/106/106 106/107/107 109/109/109
f 109/109/109 106/107/107 110/110/110
f 109/109/109 110/110/110 111/111/111
f 111/111/111 110/110/110 112/112/112
f 112/112/112 110/110/110 113/113/113
f 113/113/113 110/110/110 114/114/114
f 114/114/114 110/110/110 115/115/115
f 114/114/114 115/115/115 116/116/116
f 116/116/116 115/115/115 117/117/117
f 118/118/118 117/117/117 119/119/119
f 119/119/119 117/117/117 115/115/115
f 118/118/118 119/119/119 120/120/120
f 120/120/120 119/119/119 122/121/121
f 121/122/122 119/119/119 123/123/123
f 122/121/121 119/119/119 121/122/122
f 119/119/119 115/115/115 124/124/124
f 123/123/123 119/119/119 124/124/124
f 124/124/124 126/125/125 125/126/126
f 124/124/124 115/115/115 126/125/125
f 115/115/115 110/110/110 126/125/125
f 126/125/125 106/107/107 127/127/127
f 125/126/126 126/125/125 127/127/127
f 126/125/125 110/110/110 106/107/107
f 128/128/128 127/127/127 129/129/129
f 125/126/126 127/127/127 128/128/128
f 127/127/127 104/104/104 129/129/129
f 127/127/127 106/107/107 104/104/104
f 128/128/128 129/129/129 130/130/130
f 130/130/130 129/129/129 99/98/98
f 129/129/129 100/101/101 99/98/98
f 129/129/129 104/104/104 100/101/101
f 128/128/128 130/130/130 133/131/131
f 130/130/130 99/98/98 131/132/132
f 130/130/130 131/132/132 132/133/133
f 133/131/131 130/130/130 132/133/133
f 133/131/131 132/133/133 134/134/134
f 134/134/134 132/133/133 135/135/135
f 134/134/134 135/135/135 136/136/136
f 136/136/136 137/137/137 134/134/134
f 136/136/136 138/138/138 137/137/137
f 136/136/136 139/139/139 138/138/138
f 136/136/136 140/140/140 139/139/139
f 136/136/136 141/141/141 140/140/140
f 136/136/136 142/142/142 141/141/141
f 136/136/136 135/135/135 142/142/142
f 135/135/135 143/143/143 142/142/142
f 135/135/135 144/144/144 143/143/143
f 135/135/135 145/145/145 144/144/144
f 145/145/145 146/146/146 144/144/144
f 145/145/145 147/147/147 146/146/146
f 145/145/145 148/148/148 147/147/147
f 145/145/145 149/149/149 148/148/148
f 150/150/150 149/149/149 131/132/132
f 131/132/132 149/149/149 145/145/145
f 131/132/132 101/100/100 150/150/150
f 150/150/150 101/100/100 151/151/151
f 132/133/133 131/132/132 145/145/145
f 132/133/133 145/145/145 135/135/135
f 131/132/132 99/98/98 101/100/100
f 152/152/152 156/153/153 153/154/154
f 158/155/155 152/152/152 153/154/154
f 157/156/156 154/157/157 152/152/152
f 154/157/157 155/158/158 152/152/152
f 152/152/152 155/158/158 156/153/153
f 157/156/156 152/152/152 159/159/159
f 160/160/160 154/157/157 157/156/156
f 153/154/154 156/153/153 161/161/161
f 163/162/162 165/163/163 162/164/164
f 162/164/164 164/165/165 163/162/162
f 163/162/162 166/166/166 165/163/163
f 163/162/162 167/167/167 166/166/166
f 169/168/168 168/169/169 167/167/167
f 169/168/168 167/167/167 163/162/162
f 170/170/170 171/171/171 169/168/168
f 169/168/168 171/171/171 172/172/172
f 169/168/168 172/172/172 173/173/173
f 169/168/168 173/173/173 174/174/174
f 169/168/168 174/174/174 175/175/175
f 169/168/168 175/175/175 176/176/176
f 169/168/168 176/176/176 177/177/177
f 169/168/168 177/177/177 178/178/178
f 169/168/168 178/178/178 168/169/169
f 163/162/162 164/165/165 179/179/179
f 163/162/162 179/179/179 180/180/180
f 163/162/162 180/180/180 181/181/181
f 163/162/162 181/181/181 182/182/182
f 163/162/162 182/182/182 183/183/183
f 163/162/162 183/183/183 184/184/184
f 186/185/185 187/186/185 185/187/185
f 188/188/186 190/189/186 189/190/186
