# Blender v2.93.18 OBJ File: 'Renault Alpine A110 For Sable 5.blend'
# www.blender.org
o door_l_interior_door_lf_ok.002
v 5.743269 10.776957 9.951912
v 0.147542 -7.700960 0.337746
v 1.576589 1.418962 49.197144
v 4.688412 10.492634 49.775383
v 1.389400 -3.308273 49.266247
v 1.100884 -7.700970 47.372135
v 0.761460 -13.082726 1.501377
v 0.152442 -5.384477 1.416961
v 0.011585 -3.308268 -0.023689
v 1.104409 5.758638 -0.129307
v 2.078238 7.370450 0.289173
v 1.456716 6.321342 1.315108
v 4.081171 9.479777 8.914657
v 5.106578 10.258535 9.555999
v 5.740620 10.942097 31.294888
v 5.711639 10.818079 12.033021
v 1.571398 0.318402 48.997746
v 6.285440 2.332242 48.601425
v 6.907451 9.299259 3.830447
v 4.122141 -5.164057 16.902323
v 6.101959 2.332244 35.888252
v 6.881101 6.408276 35.888252
v 1.646413 1.291739 50.459164
v 0.926165 -10.551362 45.497204
v 0.771846 -12.981421 12.033044
v 0.340102 3.308273 -0.255549
v 3.498417 8.895141 1.422835
v 5.872639 10.987835 40.484959
v 6.114635 11.007934 49.331406
v 4.484461 10.386446 49.632771
v 0.741163 -12.777556 1.122130
v 3.928426 9.257773 3.830447
v 2.904073 8.413152 2.433012
v 1.229878 -5.711931 46.833424
v 3.977494 -9.644968 43.380474
v 6.072589 11.004838 48.020660
v 7.067233 6.408276 48.543671
v 3.400708 -11.289571 2.110476
v 3.921342 -5.164055 1.435544
v 4.386105 -5.164060 35.888252
v 3.789956 -10.846186 31.272610
v 5.833295 2.332246 16.902323
v 6.615077 6.408278 16.902323
v 5.803547 10.690077 49.470703
v 5.698308 10.636868 10.001543
v 3.302494 9.073713 50.282772
v 2.193202 7.343480 50.652599
v 1.488851 5.758622 50.793041
v 0.954705 3.308266 50.675880
v 0.906972 1.777260 50.538235
v 1.591985 0.029529 50.231754
v 1.313653 -4.930635 48.660271
v 1.040681 -9.059123 46.594742
v 0.790558 -11.696634 44.154224
v 0.659984 -12.415134 42.441490
v 0.679543 -12.490423 40.480530
v 0.769804 -12.636648 31.294907
v 0.796607 -12.804837 21.771610
v 0.754819 -13.081444 3.697480
v 0.158607 0.859587 -0.241722
v 4.693122 9.813503 2.907854
v 5.061865 10.002232 3.687068
v 5.695571 10.890574 22.900957
v 6.094755 11.006725 48.856083
v 7.078758 10.782363 9.951900
v 0.854769 1.848274 49.273155
v 0.971878 3.392599 49.412273
v 1.804872 6.472909 49.459541
v 3.639469 9.312616 48.857239
v 0.914566 -10.147245 44.024006
v 0.765378 -11.195566 41.304340
v 0.831047 -11.377681 31.272614
v 0.793055 -11.641312 16.881428
v 0.720785 -11.831850 2.110481
v 0.302603 2.085273 1.016663
v 7.607525 11.004841 47.377121
v 7.438124 10.965910 35.888252
v 7.242260 10.886460 21.771589
v 3.924838 -10.668395 40.660797
v 4.546246 -5.164062 46.237473
v 3.598133 -11.103557 16.881416
v 5.614122 2.332251 1.019200
v 6.484491 6.432559 1.315101
v 6.800646 8.474694 2.433012
v 6.994570 9.515983 8.914657
vt 0.405762 -0.425781
vt 0.414795 -0.425781
vt 0.414551 -0.424805
vt 0.070740 -0.513184
vt 0.061859 -0.507812
vt 0.062378 -0.513672
vt 0.070251 -0.507324
vt 0.060883 -0.497803
vt 0.069214 -0.497070
vt 0.059967 -0.481201
vt 0.068787 -0.476074
vt 0.060883 -0.469727
vt 0.063477 -0.456055
vt 0.072998 -0.453613
vt 0.079651 -0.434326
vt 0.074097 -0.433838
vt 0.070984 -0.433594
vt 0.069885 -0.435791
vt 0.067200 -0.444092
vt 0.068054 -0.445801
vt 0.072021 -0.520020
vt 0.063843 -0.521973
vt 0.086365 -0.560059
vt 0.070251 -0.544434
vt 0.074219 -0.555176
vt 0.082764 -0.573242
vt 0.087891 -0.582520
vt 0.104919 -0.589844
vt 0.095154 -0.592285
vt 0.104065 -0.600098
vt 0.122986 -0.596680
vt 0.115417 -0.604980
vt 0.124146 -0.604980
vt 0.116760 -0.613281
vt 0.129761 -0.613281
vt 0.190552 -0.604980
vt 0.190552 -0.613281
vt 0.285889 -0.605469
vt 0.253662 -0.613281
vt 0.318115 -0.614258
vt 0.383789 -0.605957
vt 0.373535 -0.614258
vt 0.387939 -0.614258
vt 0.389404 -0.592285
vt 0.393311 -0.600586
vt 0.395996 -0.598633
vt 0.394043 -0.549316
vt 0.401367 -0.564453
vt 0.403564 -0.535645
vt 0.396240 -0.499756
vt 0.404785 -0.507812
vt 0.404541 -0.491699
vt 0.393311 -0.470947
vt 0.403076 -0.474609
vt 0.399658 -0.462402
vt 0.384766 -0.454590
vt 0.391357 -0.449219
vt 0.375244 -0.446289
vt 0.380859 -0.439697
vt 0.375732 -0.437256
vt 0.341553 -0.446289
vt 0.336914 -0.437988
vt 0.083618 -0.437988
vt 0.129517 -0.427246
vt 0.079529 -0.427734
vt 0.159790 -0.438232
vt 0.190308 -0.427490
vt 0.245972 -0.428467
vt 0.253174 -0.438721
vt 0.317871 -0.430176
vt 0.331543 -0.439453
vt 0.331787 -0.430664
vt 0.026566 -0.601562
vt 0.003599 -0.582031
vt 0.004925 -0.601074
vt 0.024597 -0.582031
vt 0.006989 -0.547363
vt 0.029602 -0.547363
vt 0.012962 -0.505371
vt 0.045868 -0.496338
vt 0.013878 -0.497803
vt 0.009544 -0.494385
vt 0.011658 -0.484375
vt 0.019989 -0.464844
vt 0.054932 -0.470459
vt 0.035278 -0.447998
vt 0.053589 -0.439209
vt 0.064514 -0.440430
vt 0.190674 -0.584961
vt 0.128418 -0.583496
vt 0.285889 -0.586426
vt 0.383789 -0.587891
vt 0.456543 -0.615723
vt 0.433105 -0.572266
vt 0.438721 -0.612793
vt 0.458252 -0.572266
vt 0.419434 -0.523438
vt 0.454834 -0.522949
vt 0.412354 -0.496338
vt 0.445801 -0.495361
vt 0.409668 -0.480957
vt 0.435303 -0.480225
vt 0.408447 -0.470215
vt 0.428223 -0.469727
vt 0.406738 -0.436523
vt 0.426025 -0.436035
vt 0.418945 -0.429688
vt 0.075928 -0.468506
vt 0.159790 -0.468750
vt 0.285645 -0.468750
vt 0.338379 -0.447754
vt 0.372070 -0.449219
vt 0.381348 -0.454834
vt 0.388916 -0.468506
vt 0.390869 -0.496094
vt 0.285645 -0.496094
vt 0.285889 -0.546875
vt 0.388184 -0.546875
vt 0.160034 -0.546875
vt 0.110413 -0.577148
vt 0.091431 -0.546875
vt 0.159790 -0.496094
vt 0.075623 -0.496094
vn 0.6467 0.6797 -0.3460
vn -0.0873 0.5432 -0.8350
vn -0.0019 0.4725 -0.8813
vn 0.5866 0.2128 0.7814
vn 0.8883 0.4592 -0.0005
vn 0.8798 0.4753 0.0093
vn 0.7443 0.3338 0.5784
vn 0.9909 -0.1344 -0.0074
vn 0.7602 -0.1522 0.6316
vn 0.9525 -0.3012 0.0457
vn 0.7313 -0.2741 0.6245
vn 0.8714 -0.4855 0.0706
vn 0.8162 -0.5718 0.0828
vn 0.6222 -0.3926 0.6773
vn 0.5333 0.1937 0.8234
vn 0.5678 -0.8230 -0.0175
vn 0.5765 -0.8083 -0.1193
vn 0.5662 -0.7984 -0.2047
vn 0.3632 -0.8129 0.4553
vn 0.2071 -0.8388 0.5035
vn 0.7938 -0.1993 0.5746
vn 0.9987 -0.0435 -0.0250
vn 0.8007 -0.3122 0.5112
vn 0.9984 -0.0550 -0.0111
vn 0.9987 -0.0432 -0.0273
vn 0.9980 -0.0606 0.0150
vn 0.9983 -0.0559 -0.0181
vn 0.8384 -0.4542 0.3012
vn 0.9974 -0.0667 -0.0262
vn 0.9957 -0.0881 -0.0267
vn 0.7876 -0.6060 0.1113
vn 0.9948 -0.1007 -0.0157
vn 0.9974 -0.0711 0.0095
vn 0.7503 -0.6609 0.0138
vn 0.9989 -0.0468 0.0045
vn 0.7693 -0.6388 0.0074
vn 0.9999 0.0121 0.0022
vn 1.0000 0.0021 -0.0046
vn 0.9185 -0.2676 -0.2909
vn 0.9997 0.0257 -0.0012
vn 0.9993 0.0370 -0.0093
vn 0.9973 0.0582 -0.0454
vn 0.6963 -0.0349 -0.7169
vn 0.9832 0.0754 -0.1664
vn 0.9927 -0.0192 -0.1186
vn 0.7066 -0.0788 -0.7032
vn 0.9966 -0.0482 -0.0671
vn 0.9664 -0.2067 -0.1524
vn 0.7010 -0.2214 -0.6779
vn 0.9279 -0.3631 -0.0848
vn 0.8216 -0.5698 -0.0164
vn 0.7069 -0.1885 -0.6816
vn 0.6619 -0.7485 0.0409
vn 0.8800 0.0918 -0.4660
vn 0.5742 -0.8185 -0.0170
vn 0.5516 -0.8340 -0.0120
vn 0.8561 0.2913 -0.4267
vn 0.2107 0.4643 -0.8602
vn 0.7056 0.6051 0.3686
vn 0.0031 1.0000 -0.0035
vn 0.7484 0.6631 -0.0143
vn 0.0023 1.0000 -0.0060
vn -0.0015 1.0000 -0.0059
vn 0.7490 0.6623 -0.0147
vn 0.0087 0.9999 -0.0108
vn 0.7151 -0.6901 0.1115
vn 0.7024 -0.5796 0.4132
vn 0.7210 -0.3931 0.5706
vn 0.7227 -0.2232 0.6541
vn 0.7611 -0.0531 0.6465
vn 0.7353 -0.6778 0.0032
vn 0.7411 -0.6714 0.0005
vn 0.6048 -0.5722 -0.5538
vn 0.6717 -0.1625 -0.7227
vn 0.6767 -0.1332 -0.7241
vn 0.6738 0.1087 -0.7308
vn 0.6823 0.4649 -0.5643
vn 0.6938 0.6837 -0.2259
vn 0.8447 0.4509 -0.2882
vn 0.9879 -0.1546 -0.0142
vn 0.9875 -0.1571 -0.0119
vn 0.9785 -0.2055 -0.0137
vn 0.9878 -0.1553 -0.0133
vn 0.9871 -0.1597 -0.0125
vn 0.9786 -0.2053 -0.0141
s 1
f 65/1/1 45/2/2 1/3/3
f 3/4/4 50/5/5 23/6/6
f 50/5/5 3/4/4 66/7/7
f 66/7/7 49/8/8 50/5/5
f 49/8/8 66/7/7 67/9/9
f 67/9/9 48/10/10 49/8/8
f 48/10/10 67/9/9 68/11/11
f 68/11/11 47/12/12 48/10/10
f 68/11/11 46/13/13 47/12/12
f 46/13/13 68/11/11 69/14/14
f 69/14/14 36/15/15 64/16/16
f 69/14/14 64/16/16 29/17/17
f 69/14/14 29/17/17 44/18/18
f 4/19/19 69/14/14 44/18/18
f 69/14/14 4/19/19 30/20/20
f 30/20/20 46/13/13 69/14/14
f 46/13/13 30/20/20 4/19/19
f 23/6/6 17/21/21 3/4/4
f 17/21/21 23/6/6 51/22/22
f 51/22/22 34/23/23 17/21/21
f 34/23/23 51/22/22 5/24/24
f 34/23/23 5/24/24 52/25/25
f 34/23/23 52/25/25 6/26/26
f 34/23/23 6/26/26 53/27/27
f 53/27/27 70/28/28 34/23/23
f 70/28/28 53/27/27 24/29/29
f 70/28/28 24/29/29 54/30/30
f 54/30/30 71/31/31 70/28/28
f 71/31/31 54/30/30 55/32/32
f 71/33/31 55/34/32 56/35/33
f 56/35/33 72/36/34 71/33/31
f 72/36/34 56/35/33 57/37/35
f 57/37/35 73/38/36 72/36/34
f 73/38/36 57/37/35 58/39/37
f 73/38/36 58/39/37 25/40/38
f 25/40/38 74/41/39 73/38/36
f 74/41/39 25/40/38 59/42/40
f 74/41/39 59/42/40 7/43/41
f 74/44/39 7/45/41 31/46/42
f 31/46/42 8/47/43 74/44/39
f 8/47/43 31/46/42 2/48/44
f 8/47/43 2/48/44 9/49/45
f 9/49/45 75/50/46 8/47/43
f 75/50/46 9/49/45 60/51/47
f 75/50/46 60/51/47 26/52/48
f 26/52/48 12/53/49 75/50/46
f 12/53/49 26/52/48 10/54/50
f 12/53/49 10/54/50 11/55/51
f 11/55/51 33/56/52 12/53/49
f 33/56/52 11/55/51 27/57/53
f 27/57/53 32/58/54 33/56/52
f 32/58/54 27/57/53 61/59/55
f 32/58/54 61/59/55 62/60/56
f 62/60/56 13/61/57 32/58/54
f 13/61/57 62/60/56 14/62/58
f 76/63/59 28/64/60 36/65/15
f 28/64/60 76/63/59 77/66/61
f 77/66/61 15/67/62 28/64/60
f 77/66/61 63/68/63 15/67/62
f 63/68/63 77/66/61 78/69/64
f 78/69/64 16/70/65 63/68/63
f 16/70/65 78/69/64 65/71/1
f 65/71/1 1/72/3 16/70/65
f 79/73/66 70/74/28 71/75/31
f 70/74/28 79/73/66 35/76/67
f 35/76/67 34/77/23 70/74/28
f 34/77/23 35/76/67 80/78/68
f 80/78/68 17/79/21 34/77/23
f 17/79/21 80/78/68 18/80/69
f 18/80/69 3/81/4 17/79/21
f 18/80/69 66/82/7 3/81/4
f 18/80/69 67/83/9 66/82/7
f 18/80/69 68/84/11 67/83/9
f 68/84/11 18/80/69 37/85/70
f 37/85/70 69/86/14 68/84/11
f 37/85/70 36/87/15 69/86/14
f 36/87/15 37/85/70 76/88/59
f 71/33/31 41/89/71 79/90/66
f 41/89/71 71/33/31 72/36/34
f 72/36/34 81/91/72 41/89/71
f 81/91/72 72/36/34 73/38/36
f 73/38/36 38/92/73 81/91/72
f 38/92/73 73/38/36 74/41/39
f 74/93/39 39/94/74 38/95/73
f 39/94/74 74/93/39 8/96/43
f 8/96/43 82/97/75 39/94/74
f 82/97/75 8/96/43 75/98/46
f 75/98/46 83/99/76 82/97/75
f 83/99/76 75/98/46 12/100/49
f 12/100/49 84/101/77 83/99/76
f 84/101/77 12/100/49 33/102/52
f 33/102/52 19/103/78 84/101/77
f 19/103/78 33/102/52 32/104/54
f 32/104/54 85/105/79 19/103/78
f 85/105/79 32/104/54 13/106/57
f 85/105/79 13/106/57 14/107/58
f 85/105/79 14/107/58 65/1/1
f 14/107/58 45/2/2 65/1/1
f 37/108/70 77/66/61 76/63/59
f 77/66/61 37/108/70 22/109/80
f 43/110/81 77/66/61 22/109/80
f 77/66/61 43/110/81 78/69/64
f 78/69/64 43/110/81 65/71/1
f 65/71/1 43/110/81 85/111/79
f 43/110/81 19/112/78 85/111/79
f 43/110/81 84/113/77 19/112/78
f 43/110/81 83/114/76 84/113/77
f 43/110/81 82/115/75 83/114/76
f 82/115/75 43/110/81 42/116/82
f 20/117/83 82/115/75 42/116/82
f 82/115/75 20/117/83 39/118/74
f 20/117/83 38/92/73 39/118/74
f 38/92/73 20/117/83 81/91/72
f 40/119/84 81/91/72 20/117/83
f 81/91/72 40/119/84 41/89/71
f 40/119/84 79/90/66 41/89/71
f 79/90/66 40/119/84 35/120/67
f 35/120/67 40/119/84 80/121/68
f 21/122/85 80/121/68 40/119/84
f 20/117/83 21/122/85 40/119/84
f 21/122/85 20/117/83 42/116/82
f 43/110/81 21/122/85 42/116/82
f 21/122/85 43/110/81 22/109/80
f 37/108/70 21/122/85 22/109/80
f 21/122/85 37/108/70 18/123/69
f 80/121/68 21/122/85 18/123/69
