# Blender v2.93.18 OBJ File: 'Renault Alpine A110 For Sable 5.blend'
# www.blender.org
o disc_wheel.002
v -2.062912 -4.394200 3.192071
v -2.062906 -1.677838 5.165623
v -2.062906 -5.431759 -0.001205
v -2.062906 -5.165863 -1.680010
v -2.062906 -4.394198 -3.194487
v -2.062906 -1.677837 -5.168036
v -2.062906 1.679768 -5.168036
v -2.062906 1.679760 5.165623
v -2.062906 4.396123 3.192077
v -2.062906 3.194229 4.393969
v -2.062906 5.433685 -0.001205
v -2.062906 5.167791 -1.679998
v -2.062906 5.167786 1.677605
v -2.062906 4.396132 -3.194487
v -3.274081 5.433685 -0.001205
v -3.274081 4.396123 3.192077
v -3.274081 4.396132 -3.194469
v -3.274081 1.679768 -5.168036
v -3.274081 0.000968 -5.433920
v -3.274081 -1.677837 -5.168036
v -3.274081 -3.192311 -4.396362
v -3.274081 -4.394198 -3.194487
v -3.274081 1.679760 5.165623
v -3.274081 -1.677838 5.165623
v -3.274081 0.000965 5.431519
v -3.274081 -4.394200 3.192071
v -3.274081 -5.165863 1.677588
v -3.274081 -5.431759 -0.001205
v -2.107412 0.000965 0.863922
v -0.788275 -0.748256 0.431358
v -0.788278 -0.748256 -0.433757
v -2.107414 0.750180 -0.433757
v -0.788275 0.000965 0.863922
v -2.062906 -5.165863 1.677588
v -2.062906 0.000965 5.431519
v -2.062912 -3.192312 4.393951
v -2.062906 -3.192311 -4.396362
v -2.062906 0.000968 -5.433920
v -3.274081 5.167786 1.677605
v -3.274081 5.167791 -1.679998
v -3.274081 3.194241 -4.396362
v -3.274081 3.194229 4.393969
v -3.274081 -3.192312 4.393951
v -2.107412 -0.748256 0.431358
v -2.107414 -0.748256 -0.433757
v -2.107414 0.000965 -0.866332
v -2.062906 3.194241 -4.396362
v -3.274081 -5.165863 -1.680010
v -0.788278 0.000965 -0.866332
v -0.788278 0.750180 -0.433757
v -2.107412 0.750180 0.431358
v -0.788275 0.750180 0.431358
vt 0.345703 -0.975098
vt 0.095886 -0.793457
vt 0.206421 -0.904297
vt 0.024948 -0.654297
vt 0.000500 -0.500000
vt 0.654297 -0.975098
vt 0.500000 -0.999512
vt 0.904297 -0.793457
vt 0.793457 -0.904297
vt 0.999512 -0.500000
vt 0.975098 -0.654297
vt 0.904297 -0.206421
vt 0.975098 -0.345703
vt 0.095886 -0.206421
vt 0.024948 -0.345703
vt 0.345703 -0.024948
vt 0.206421 -0.095886
vt 0.654297 -0.024948
vt 0.500000 -0.000500
vt 0.793457 -0.095886
vt 0.654297 -0.024948
vt 0.345703 -0.024948
vt 0.500000 -0.000500
vt 0.206421 -0.095886
vt 0.095886 -0.206421
vt 0.904297 -0.206421
vt 0.793457 -0.095886
vt 0.999512 -0.500000
vt 0.975098 -0.345703
vt 0.904297 -0.793457
vt 0.975098 -0.654297
vt 0.654297 -0.975098
vt 0.793457 -0.904297
vt 0.000500 -0.500000
vt 0.024948 -0.345703
vt 0.095886 -0.793457
vt 0.024948 -0.654297
vt 0.345703 -0.975098
vt 0.206421 -0.904297
vt 0.500000 -0.999512
vt 0.566406 -0.500000
vt 0.533203 -0.557617
vt 0.533203 -0.557617
vt 0.566406 -0.500000
vt 0.466797 -0.557617
vt 0.466797 -0.557617
vt 0.433350 -0.500000
vt 0.433350 -0.500000
vt 0.466797 -0.442383
vt 0.466797 -0.442383
vt 0.533203 -0.442383
vt 0.533203 -0.442383
vn 1.0000 0.0000 0.0000
vn -1.0000 0.0000 0.0000
vn 0.0000 0.0000 1.0000
vn 0.0000 -0.8660 0.5000
vn 0.0000 -0.8660 -0.5000
vn 0.0000 0.0000 -1.0000
vn 0.0000 0.8660 -0.5000
vn 0.0000 0.8660 0.5000
s 1
f 34/1/1 36/2/1 1/3/1
f 2/4/1 36/2/1 35/5/1
f 35/5/1 36/2/1 34/1/1
f 4/6/1 34/1/1 3/7/1
f 37/8/1 4/6/1 5/9/1
f 37/8/1 34/1/1 4/6/1
f 35/5/1 34/1/1 37/8/1
f 38/10/1 37/8/1 6/11/1
f 47/12/1 38/10/1 7/13/1
f 47/12/1 37/8/1 38/10/1
f 35/5/1 37/8/1 47/12/1
f 35/5/1 10/14/1 8/15/1
f 10/14/1 13/16/1 9/17/1
f 35/5/1 13/16/1 10/14/1
f 35/5/1 47/12/1 13/16/1
f 13/16/1 12/18/1 11/19/1
f 13/16/1 47/12/1 12/18/1
f 12/18/1 47/12/1 14/20/1
f 40/21/2 39/22/2 15/23/2
f 16/24/2 39/22/2 42/25/2
f 42/25/2 39/22/2 40/21/2
f 41/26/2 40/21/2 17/27/2
f 19/28/2 41/26/2 18/29/2
f 19/28/2 40/21/2 41/26/2
f 42/25/2 40/21/2 19/28/2
f 21/30/2 19/28/2 20/31/2
f 48/32/2 21/30/2 22/33/2
f 48/32/2 19/28/2 21/30/2
f 42/25/2 19/28/2 48/32/2
f 42/25/2 25/34/2 23/35/2
f 25/34/2 43/36/2 24/37/2
f 42/25/2 43/36/2 25/34/2
f 42/25/2 48/32/2 43/36/2
f 43/36/2 27/38/2 26/39/2
f 43/36/2 48/32/2 27/38/2
f 27/38/2 48/32/2 28/40/2
f 33/41/3 44/42/4 30/43/4
f 44/42/4 33/41/3 29/44/3
f 45/45/5 30/43/4 44/42/4
f 30/43/4 45/45/5 31/46/5
f 46/47/6 31/46/5 45/45/5
f 31/46/5 46/47/6 49/48/6
f 32/49/7 49/48/6 46/47/6
f 49/48/6 32/49/7 50/50/7
f 51/51/8 50/50/7 32/49/7
f 50/50/7 51/51/8 52/52/8
f 29/44/3 52/52/8 51/51/8
f 52/52/8 29/44/3 33/41/3
