# Blender v2.93.18 OBJ File: 'Renault Alpine A110 For Sable 5.blend'
# www.blender.org
o steering_wheel_chassis.034
v -0.000002 0.000000 -0.000002
v 0.000002 3.402684 17.896141
v 0.000005 6.095865 17.166552
v -7.121050 5.323463 20.074215
v -1.391211 4.148111 18.988380
v -5.809788 5.481999 20.746479
v -1.340823 6.186464 18.436186
v 1.390023 4.016693 18.503298
v 0.711524 0.172198 21.818924
v 0.836189 -1.370867 21.918953
v -0.838535 -1.151883 22.784109
v 1.340835 6.186464 18.436186
v 7.121061 5.572033 20.991779
v 1.166594 2.798979 18.059687
v -2.020592 3.623275 17.836380
v -2.485096 5.154120 19.025784
v 0.000007 7.552762 18.375990
v -1.242542 7.231401 18.463045
v -0.000001 -1.019458 22.933420
v -0.000004 -1.366492 21.652397
v -0.000002 -2.278707 22.587038
v 4.511851 0.564000 22.504456
v 6.078801 2.364643 22.016661
v 6.912557 4.573462 21.418283
v 8.013432 4.211411 20.828846
v 6.078804 8.785827 18.902109
v 2.783044 12.955536 18.460047
v 2.400712 12.108800 19.376949
v -5.230385 11.591714 18.829504
v -6.912551 4.573474 21.418283
v -5.230399 -0.441228 22.089256
v -2.400708 -0.958316 21.541817
v 0.762743 3.976931 19.732817
v 0.967245 3.525800 19.422163
v 1.934494 5.142826 18.984106
v -0.762736 6.527219 19.041939
v -1.321104 4.515871 19.586813
v 1.395133 4.749272 17.531347
v -1.395126 4.749274 17.531345
v -1.391207 4.016695 18.503292
v -5.809788 5.372055 20.340647
v -1.340823 6.055055 17.951097
v -5.633861 6.729851 19.972816
v -7.121050 5.572035 20.991781
v -7.026532 7.092988 20.579750
v -5.633861 6.839795 20.378651
v -7.026537 6.844418 19.662184
v -0.687535 0.172198 21.818924
v -0.687535 0.282143 22.224758
v 1.390022 4.148104 18.988382
v 0.711523 0.282143 22.224754
v 0.836189 -1.137545 22.780222
v -0.838535 -1.385204 21.922840
v 1.340835 6.055052 17.951099
v 5.809795 5.372053 20.340647
v 5.809795 5.481995 20.746483
v 5.633870 6.839790 20.378651
v 7.026546 7.092985 20.579750
v 5.633870 6.729851 19.972818
v 7.026547 6.844416 19.662186
v 7.121059 5.323458 20.074215
v 0.000002 2.497265 18.141420
v 0.000001 2.755482 19.675583
v -1.166590 2.798979 18.059687
v -1.242550 3.076837 19.588524
v 1.242549 3.076837 19.588526
v 2.152160 3.954798 19.350685
v -2.152158 3.954803 19.350683
v -2.333179 4.749274 17.531345
v -2.020591 5.875279 17.226309
v -2.152155 6.353441 18.700886
v 2.485104 5.154118 19.025785
v 2.333187 4.749272 17.531347
v 2.152163 6.353439 18.700890
v 2.020599 3.623267 17.836384
v 0.000007 7.001284 16.921274
v 2.020602 5.875277 17.226309
v 1.242557 7.231399 18.463047
v 1.166598 6.699570 17.003008
v -1.166586 6.699572 17.003008
v 2.400702 -0.958321 21.541819
v 2.400705 -0.611287 22.822842
v 4.511850 0.216970 21.223433
v 2.783033 -1.805060 22.458721
v 5.230395 -0.441238 22.089260
v 6.078799 2.017611 20.735632
v 6.912557 4.226430 20.137259
v 7.046892 1.648265 21.523209
v 6.912557 6.577007 19.500484
v 8.013432 6.939058 20.089924
v 6.912559 6.924039 20.781507
v 6.078804 9.132861 20.183136
v 4.511857 10.586477 18.414309
v 4.511857 10.933509 19.695333
v 7.046896 9.502210 19.395559
v 5.230402 11.591709 18.829510
v 2.400712 11.761765 18.095922
v 0.000011 12.169944 17.985346
v 0.000009 12.516973 19.266373
v -2.400694 11.761770 18.095919
v -2.400695 12.108805 19.376944
v 0.000012 13.429191 18.331732
v -2.783021 12.955536 18.460045
v -4.511836 10.586486 18.414307
v -4.511841 10.933516 19.695332
v -6.078792 8.785836 18.902105
v -6.078792 9.132873 20.183132
v -6.912551 6.577017 19.500481
v -6.912551 6.924051 20.781504
v -7.046887 9.502224 19.395554
v -8.013424 6.939069 20.089916
v -6.912551 4.226442 20.137259
v -8.013424 4.211423 20.828846
v -6.078797 2.017618 20.735628
v -6.078797 2.364652 22.016655
v -4.511850 0.216975 21.223433
v -4.511846 0.564007 22.504456
v -7.046892 1.648272 21.523205
v -2.783036 -1.805053 22.458719
v -2.400705 -0.611284 22.822842
v 0.000001 3.275642 19.489931
v 0.000001 3.779673 19.786257
v -0.967244 3.525800 19.422161
v 1.321108 4.515871 19.586817
v 1.675319 4.209234 19.237017
v 1.525485 5.252074 19.387379
v 1.321111 5.988279 19.187941
v 1.675320 6.076423 18.731195
v 0.762745 6.527219 19.041939
v 0.967251 6.759857 18.546049
v 0.000005 6.724486 18.988503
v 0.000007 7.010015 18.478281
v -0.967239 6.759861 18.546049
v -1.321103 5.988281 19.187937
v -1.675313 6.076423 18.731190
v -1.525479 5.252076 19.387373
v -1.934487 5.142831 18.984100
v -1.675317 4.209239 19.237015
v -0.762740 3.976931 19.732817
vt 0.236450 -0.949707
vt 0.353271 -0.924316
vt 0.349854 -0.911621
vt 0.345215 -0.899902
vt 0.355469 -0.937012
vt 0.355957 -0.950195
vt 0.187378 -0.852539
vt 0.137207 -0.850586
vt 0.188965 -0.857910
vt 0.243652 -0.806641
vt 0.192383 -0.791504
vt 0.192017 -0.813477
vt 0.242554 -0.791992
vt 0.257568 -0.807129
vt 0.122131 -0.846680
vt 0.124390 -0.856445
vt 0.136108 -0.846191
vt 0.122192 -0.830078
vt 0.186890 -0.830566
vt 0.137085 -0.831543
vt 0.189087 -0.825684
vt 0.124817 -0.820801
vt 0.138550 -0.827148
vt 0.257568 -0.791016
vt 0.174072 -0.873047
vt 0.177246 -0.924805
vt 0.181519 -0.925781
vt 0.169067 -0.871582
vt 0.203247 -0.873047
vt 0.196167 -0.925781
vt 0.208252 -0.871582
vt 0.200439 -0.924805
vt 0.218018 -0.914551
vt 0.239990 -0.861328
vt 0.210938 -0.861328
vt 0.232666 -0.914551
vt 0.216675 -0.930664
vt 0.197388 -0.941895
vt 0.206665 -0.939941
vt 0.179932 -0.941895
vt 0.170776 -0.939941
vt 0.234253 -0.931152
vt 0.189209 -0.791504
vt 0.137939 -0.807129
vt 0.189575 -0.813477
vt 0.243042 -0.850586
vt 0.192871 -0.853027
vt 0.191284 -0.857910
vt 0.244263 -0.846191
vt 0.193359 -0.830566
vt 0.243164 -0.831543
vt 0.191162 -0.826172
vt 0.258057 -0.830566
vt 0.255615 -0.820801
vt 0.241699 -0.827637
vt 0.123901 -0.807129
vt 0.139038 -0.791992
vt 0.124023 -0.791016
vt 0.258301 -0.846680
vt 0.255859 -0.856445
vt 0.004890 -0.934570
vt 0.018524 -0.950684
vt 0.004890 -0.950684
vt 0.168457 -0.950684
vt 0.154785 -0.934570
vt 0.168457 -0.934570
vt 0.154785 -0.950684
vt 0.090393 -0.926270
vt 0.064331 -0.926270
vt 0.077393 -0.929688
vt 0.018524 -0.934570
vt 0.032135 -0.950684
vt 0.099915 -0.916992
vt 0.054840 -0.916992
vt 0.141113 -0.934570
vt 0.141113 -0.950684
vt 0.127563 -0.934570
vt 0.127563 -0.950684
vt 0.051331 -0.903809
vt 0.113892 -0.934570
vt 0.113892 -0.950684
vt 0.103394 -0.903809
vt 0.054840 -0.890625
vt 0.045776 -0.950684
vt 0.032135 -0.934570
vt 0.045776 -0.934570
vt 0.059387 -0.950684
vt 0.099915 -0.890625
vt 0.111755 -0.918457
vt 0.111755 -0.894043
vt 0.108459 -0.906250
vt 0.132935 -0.930664
vt 0.120667 -0.927734
vt 0.154053 -0.918457
vt 0.132935 -0.881836
vt 0.059387 -0.934570
vt 0.072998 -0.950684
vt 0.072998 -0.934570
vt 0.120667 -0.885254
vt 0.086670 -0.950684
vt 0.086670 -0.934570
vt 0.090393 -0.881348
vt 0.077393 -0.877930
vt 0.064331 -0.881348
vt 0.100281 -0.950684
vt 0.100281 -0.934570
vt 0.154053 -0.894043
vt 0.145142 -0.885254
vt 0.157349 -0.906250
vt 0.145142 -0.927734
vt 0.029694 -0.955566
vt 0.004070 -0.969238
vt 0.029709 -0.969238
vt 0.004070 -0.955566
vt 0.029694 -0.996094
vt 0.004070 -0.982910
vt 0.004070 -0.996094
vt 0.055359 -0.955566
vt 0.055359 -0.996094
vt 0.029663 -0.982910
vt 0.055359 -0.969238
vt 0.055298 -0.982910
vt 0.080994 -0.955566
vt 0.080994 -0.969238
vt 0.080994 -0.982910
vt 0.106689 -0.969238
vt 0.106689 -0.955566
vt 0.080994 -0.996094
vt 0.106628 -0.996094
vt 0.106628 -0.982910
vt 0.132324 -0.996094
vt 0.132324 -0.982910
vt 0.132324 -0.969238
vt 0.157959 -0.955566
vt 0.132324 -0.955566
vt 0.157959 -0.969238
vt 0.183594 -0.955566
vt 0.183594 -0.969238
vt 0.157959 -0.982910
vt 0.157959 -0.996094
vt 0.183594 -0.996094
vt 0.183594 -0.982910
vt 0.209229 -0.996094
vt 0.209229 -0.982910
vt 0.209229 -0.969238
vt 0.234985 -0.955566
vt 0.209229 -0.955566
vt 0.234985 -0.969238
vt 0.260742 -0.955566
vt 0.260742 -0.969238
vt 0.234863 -0.982910
vt 0.234863 -0.996094
vt 0.260498 -0.996094
vt 0.260498 -0.982910
vt 0.286377 -0.969238
vt 0.286133 -0.982910
vt 0.286377 -0.996094
vt 0.312012 -0.955566
vt 0.286377 -0.955566
vt 0.312012 -0.969238
vt 0.337646 -0.955566
vt 0.337646 -0.969238
vt 0.312012 -0.982910
vt 0.312012 -0.996094
vt 0.337646 -0.996094
vt 0.337646 -0.982910
vt 0.363281 -0.996094
vt 0.363281 -0.982910
vt 0.363281 -0.969238
vt 0.388916 -0.955566
vt 0.363281 -0.955566
vt 0.388916 -0.969238
vt 0.414551 -0.955566
vt 0.414551 -0.969238
vt 0.388916 -0.982910
vt 0.388916 -0.996094
vt 0.414551 -0.996094
vt 0.414551 -0.982910
vt 0.440186 -0.996094
vt 0.440186 -0.982910
vt 0.440186 -0.969238
vt 0.440186 -0.955566
vt 0.465820 -0.955566
vt 0.465820 -0.969238
vt 0.465820 -0.996094
vt 0.465820 -0.982910
vt 0.026840 -0.930664
vt 0.034088 -0.921875
vt 0.026321 -0.924316
vt 0.015587 -0.928711
vt 0.037598 -0.926758
vt 0.039429 -0.915527
vt 0.044952 -0.917969
vt 0.040894 -0.907227
vt 0.046967 -0.906738
vt 0.038086 -0.899414
vt 0.043091 -0.895996
vt 0.031738 -0.894043
vt 0.034332 -0.888672
vt 0.023605 -0.892578
vt 0.023102 -0.886719
vt 0.015839 -0.895508
vt 0.012344 -0.890625
vt 0.010506 -0.901855
vt 0.004978 -0.899414
vt 0.009048 -0.910156
vt 0.002968 -0.910645
vt 0.011864 -0.917969
vt 0.006851 -0.921387
vt 0.018188 -0.922852
vn -0.0001 -0.2614 -0.9652
vn 0.0000 0.9423 -0.3346
vn 0.9970 -0.0200 -0.0739
vn 0.0000 -0.9824 0.1868
vn -0.9970 -0.0200 -0.0739
vn -0.4921 -0.2661 0.8289
vn -0.1588 -0.8975 -0.4113
vn -0.5190 -0.6676 -0.5338
vn -0.3374 0.3770 -0.8626
vn -0.0259 0.5946 -0.8036
vn 0.1327 -0.8414 -0.5238
vn 0.1325 -0.4610 0.8774
vn 0.1748 -0.4719 0.8641
vn 0.2292 0.8230 0.5197
vn 0.2821 0.8982 0.3370
vn 0.2953 0.8018 0.5194
vn 0.2295 0.4489 -0.8636
vn -0.7587 -0.2736 -0.5912
vn -0.6433 0.3896 0.6590
vn 0.4930 -0.2624 0.8295
vn 0.6467 0.3846 0.6586
vn 0.5189 -0.6667 -0.5349
vn 0.7608 -0.2764 -0.5871
vn 0.6670 0.0050 -0.7450
vn 0.6929 0.3147 0.6488
vn -0.7001 0.3225 0.6370
vn -0.6748 0.0162 -0.7378
vn 0.3374 0.3767 -0.8627
vn 0.1588 -0.8975 -0.4113
vn -0.1748 -0.4719 0.8641
vn -0.2821 0.8982 0.3371
vn -0.2953 0.8018 0.5194
vn -0.2292 0.8230 0.5197
vn -0.2295 0.4489 -0.8636
vn 0.0259 0.5946 -0.8036
vn -0.1327 -0.8414 -0.5238
vn -0.1325 -0.4610 0.8774
vn 0.0000 -0.8796 -0.4757
vn 0.3937 -0.4971 0.7732
vn 0.0000 -0.5989 0.8008
vn -0.3623 -0.7859 -0.5011
vn -0.3937 -0.4971 0.7732
vn 0.3623 -0.7859 -0.5011
vn 0.6820 -0.2189 0.6978
vn -0.6820 -0.2189 0.6978
vn -0.6276 -0.5299 -0.5704
vn -0.7246 -0.1802 -0.6652
vn -0.7875 0.1611 0.5949
vn -0.6276 0.1695 -0.7599
vn -0.6820 0.5412 0.4919
vn 0.7875 0.1611 0.5949
vn 0.6276 -0.5299 -0.5704
vn 0.7246 -0.1802 -0.6651
vn 0.6820 0.5412 0.4919
vn 0.6276 0.1695 -0.7599
vn 0.0000 0.5192 -0.8546
vn 0.3937 0.8194 0.4165
vn 0.3623 0.4255 -0.8292
vn 0.0000 0.9212 0.3890
vn -0.3937 0.8194 0.4165
vn -0.3623 0.4255 -0.8292
vn -0.1421 0.1399 -0.9799
vn -0.0000 0.6396 0.7686
vn -0.1421 0.6154 0.7753
vn -0.0000 0.1642 -0.9864
vn -0.0000 -0.9652 0.2615
vn -0.2669 0.0699 -0.9611
vn 0.3417 -0.9071 0.2457
vn -0.2669 0.5455 0.7944
vn 0.6424 -0.7396 0.2004
vn -0.3594 -0.0371 -0.9324
vn -0.3594 0.4386 0.8236
vn 0.8658 -0.4829 0.1308
vn -0.4086 0.3076 0.8593
vn -0.4086 -0.1682 -0.8971
vn 0.9848 -0.1677 0.0454
vn -0.4086 -0.3076 -0.8593
vn 0.9848 0.1678 -0.0454
vn -0.4086 0.1682 0.8971
vn -0.3594 -0.4386 -0.8237
vn -0.3594 0.0371 0.9324
vn -0.2669 -0.5455 -0.7945
vn -0.2669 -0.0699 0.9612
vn 0.8658 0.4829 -0.1308
vn 0.6425 0.7396 -0.2004
vn -0.1420 -0.6153 -0.7753
vn 0.3418 0.9071 -0.2457
vn -0.1420 -0.1398 0.9799
vn 0.0000 -0.6396 -0.7686
vn 0.0000 -0.1642 0.9864
vn 0.1421 -0.6153 -0.7753
vn 0.1421 -0.1399 0.9799
vn 0.0000 0.9652 -0.2615
vn -0.3417 0.9071 -0.2457
vn 0.2669 -0.0699 0.9611
vn -0.6424 0.7396 -0.2004
vn 0.2669 -0.5455 -0.7944
vn 0.3594 -0.4386 -0.8236
vn 0.3594 0.0371 0.9324
vn 0.4086 -0.3076 -0.8593
vn 0.4086 0.1682 0.8971
vn -0.8658 0.4829 -0.1308
vn -0.9848 0.1677 -0.0454
vn 0.4086 -0.1682 -0.8971
vn -0.9848 -0.1678 0.0454
vn 0.4086 0.3076 0.8593
vn 0.3594 -0.0371 -0.9324
vn 0.3594 0.4386 0.8237
vn 0.2669 0.0699 -0.9612
vn 0.2669 0.5455 0.7945
vn -0.8658 -0.4829 0.1308
vn -0.6425 -0.7396 0.2004
vn 0.1420 0.1398 -0.9799
vn -0.3418 -0.9071 0.2457
vn 0.1420 0.6153 0.7753
vn 0.0000 -0.5068 0.8620
vn 0.2198 -0.1326 0.9665
vn 0.0000 -0.1895 0.9819
vn -0.3573 -0.4144 0.8370
vn 0.3573 -0.4144 0.8370
vn 0.3807 0.0227 0.9244
vn 0.6189 -0.1619 0.7686
vn 0.4396 0.2348 0.8669
vn 0.7146 0.1829 0.6752
vn 0.3807 0.4470 0.8094
vn 0.6189 0.5278 0.5818
vn 0.2198 0.6023 0.7674
vn 0.3573 0.7802 0.5134
vn 0.0000 0.6592 0.7519
vn 0.0000 0.8726 0.4883
vn -0.2198 0.6023 0.7674
vn -0.3573 0.7802 0.5134
vn -0.3807 0.4470 0.8094
vn -0.6189 0.5278 0.5818
vn -0.4396 0.2348 0.8669
vn -0.7146 0.1829 0.6752
vn -0.3807 0.0227 0.9244
vn -0.6189 -0.1619 0.7686
vn -0.2198 -0.1326 0.9665
s 1
f 1/1/1 3/2/2 38/3/3
f 1/1/1 38/3/3 2/4/4
f 1/1/1 39/5/5 3/2/2
f 1/1/1 2/6/4 39/5/5
f 5/7/6 41/8/7 40/9/8
f 41/10/7 42/11/9 40/12/8
f 42/11/9 41/10/7 43/13/10
f 4/14/11 43/13/10 41/10/7
f 41/8/7 44/15/12 4/16/11
f 41/8/7 5/7/6 6/17/13
f 44/15/12 41/8/7 6/17/13
f 6/17/13 45/18/14 44/15/12
f 7/19/15 6/17/13 5/7/6
f 6/17/13 7/19/15 46/20/16
f 45/18/14 6/17/13 46/20/16
f 42/21/9 46/20/16 7/19/15
f 46/20/16 47/22/17 45/18/14
f 46/20/16 42/21/9 43/23/10
f 47/22/17 46/20/16 43/23/10
f 43/13/10 4/14/11 47/24/17
f 5/25/6 48/26/18 49/27/19
f 48/26/18 5/25/6 40/28/8
f 49/27/19 50/29/20 5/25/6
f 50/29/20 49/27/19 51/30/21
f 51/30/21 8/31/22 50/29/20
f 8/31/22 51/30/21 9/32/23
f 9/33/23 40/34/8 8/35/22
f 40/34/8 9/33/23 48/36/18
f 10/37/24 48/36/18 9/33/23
f 9/32/23 52/38/25 10/39/24
f 52/38/25 9/32/23 51/30/21
f 51/30/21 11/40/26 52/38/25
f 11/40/26 51/30/21 49/27/19
f 49/27/19 53/41/27 11/40/26
f 53/41/27 49/27/19 48/26/18
f 48/36/18 10/37/24 53/42/27
f 54/43/28 55/44/29 8/45/22
f 55/46/29 50/47/20 8/48/22
f 56/49/30 12/50/31 50/47/20
f 50/47/20 55/46/29 56/49/30
f 57/51/32 54/52/28 12/50/31
f 12/50/31 56/49/30 57/51/32
f 56/49/30 58/53/33 57/51/32
f 60/54/34 57/51/32 58/53/33
f 54/52/28 57/51/32 59/55/35
f 57/51/32 60/54/34 59/55/35
f 61/56/36 59/57/35 60/58/34
f 59/57/35 61/56/36 55/44/29
f 13/59/37 55/46/29 61/60/36
f 55/46/29 13/59/37 56/49/30
f 58/53/33 56/49/30 13/59/37
f 55/44/29 54/43/28 59/57/35
f 62/61/38 66/62/39 63/63/40
f 63/64/40 64/65/41 62/66/38
f 64/65/41 63/64/40 65/67/42
f 66/68/39 65/69/42 63/70/40
f 66/62/39 62/61/38 14/71/43
f 14/71/43 67/72/44 66/62/39
f 67/73/44 68/74/45 66/68/39
f 66/68/39 68/74/45 65/69/42
f 15/75/46 65/67/42 68/76/45
f 68/76/45 69/77/47 15/75/46
f 69/77/47 68/76/45 16/78/48
f 67/73/44 16/79/48 68/74/45
f 16/78/48 70/80/49 69/77/47
f 70/80/49 16/78/48 71/81/50
f 72/82/51 71/83/50 16/79/48
f 72/82/51 16/79/48 67/73/44
f 72/84/51 75/85/52 73/86/53
f 73/86/53 74/87/54 72/84/51
f 74/88/54 71/83/50 72/82/51
f 75/85/52 72/84/51 67/72/44
f 75/89/52 77/90/55 73/91/53
f 67/72/44 14/71/43 75/85/52
f 62/92/38 75/89/52 14/93/43
f 15/94/46 75/89/52 62/92/38
f 15/94/46 76/95/56 75/89/52
f 75/89/52 76/95/56 77/90/55
f 74/87/54 73/86/53 77/96/55
f 77/96/55 78/97/57 74/87/54
f 78/97/57 77/96/55 79/98/58
f 77/90/55 76/95/56 79/99/58
f 79/98/58 17/100/59 78/97/57
f 17/100/59 79/98/58 76/101/56
f 78/102/57 17/103/59 18/104/60
f 76/101/56 18/105/60 17/100/59
f 18/105/60 76/101/56 80/106/61
f 80/106/61 71/81/50 18/105/60
f 74/88/54 18/104/60 71/83/50
f 78/102/57 18/104/60 74/88/54
f 71/81/50 80/106/61 70/80/49
f 76/95/56 70/107/49 80/108/61
f 15/94/46 70/107/49 76/95/56
f 15/94/46 69/109/47 70/107/49
f 65/67/42 15/75/46 64/65/41
f 15/94/46 62/92/38 64/110/41
f 81/111/62 19/112/63 82/113/64
f 19/112/63 81/111/62 20/114/65
f 81/115/62 21/116/66 20/117/65
f 82/113/64 83/118/67 81/111/62
f 83/119/67 84/120/68 81/115/62
f 21/116/66 81/115/62 84/120/68
f 82/113/64 21/116/66 84/120/68
f 84/120/68 22/121/69 82/113/64
f 84/120/68 83/119/67 85/122/70
f 22/121/69 84/120/68 85/122/70
f 22/121/69 86/123/71 83/118/67
f 86/123/71 22/121/69 23/124/72
f 85/122/70 23/124/72 22/121/69
f 83/118/67 82/113/64 22/121/69
f 88/125/73 24/126/74 23/124/72
f 87/127/75 23/124/72 24/126/74
f 23/124/72 87/127/75 86/123/71
f 23/124/72 85/122/70 88/125/73
f 85/122/70 86/128/71 88/125/73
f 87/129/75 88/125/73 86/128/71
f 88/125/73 87/129/75 25/130/76
f 24/126/74 88/125/73 25/130/76
f 89/131/77 25/130/76 87/129/75
f 25/130/76 89/131/77 90/132/78
f 91/133/79 25/130/76 90/132/78
f 25/130/76 91/133/79 24/126/74
f 91/133/79 26/134/80 89/135/77
f 26/134/80 91/133/79 92/136/81
f 90/132/78 92/136/81 91/133/79
f 89/135/77 24/126/74 91/133/79
f 92/136/81 93/137/82 26/134/80
f 93/137/82 92/136/81 94/138/83
f 95/139/84 94/138/83 92/136/81
f 92/136/81 90/132/78 95/139/84
f 90/132/78 26/140/80 95/139/84
f 93/141/82 95/139/84 26/140/80
f 95/139/84 93/141/82 96/142/85
f 94/138/83 95/139/84 96/142/85
f 97/143/86 96/142/85 93/141/82
f 96/142/85 97/143/86 27/144/87
f 28/145/88 96/142/85 27/144/87
f 96/142/85 28/145/88 94/138/83
f 28/145/88 98/146/89 97/147/86
f 98/146/89 28/145/88 99/148/90
f 27/144/87 99/148/90 28/145/88
f 97/147/86 94/138/83 28/145/88
f 99/148/90 100/149/91 98/146/89
f 100/149/91 99/148/90 101/150/92
f 102/151/93 101/150/92 99/148/90
f 99/148/90 27/144/87 102/151/93
f 27/144/87 98/152/89 102/151/93
f 100/153/91 102/151/93 98/152/89
f 102/151/93 100/153/91 103/154/94
f 101/150/92 102/151/93 103/154/94
f 105/155/95 103/154/94 29/156/96
f 103/154/94 104/157/97 29/156/96
f 104/157/97 103/154/94 100/153/91
f 103/154/94 105/155/95 101/150/92
f 105/155/95 106/158/98 104/159/97
f 106/158/98 105/155/95 107/160/99
f 29/156/96 107/160/99 105/155/95
f 104/159/97 101/150/92 105/155/95
f 107/160/99 108/161/100 106/158/98
f 108/161/100 107/160/99 109/162/101
f 110/163/102 109/162/101 107/160/99
f 107/160/99 29/156/96 110/163/102
f 29/156/96 106/164/98 110/163/102
f 108/165/100 110/163/102 106/164/98
f 110/163/102 108/165/100 111/166/103
f 109/162/101 110/163/102 111/166/103
f 112/167/104 111/166/103 108/165/100
f 111/166/103 112/167/104 113/168/105
f 30/169/106 111/166/103 113/168/105
f 111/166/103 30/169/106 109/162/101
f 30/169/106 114/170/107 112/171/104
f 114/170/107 30/169/106 115/172/108
f 113/168/105 115/172/108 30/169/106
f 112/171/104 109/162/101 30/169/106
f 115/172/108 116/173/109 114/170/107
f 116/173/109 115/172/108 117/174/110
f 118/175/111 117/174/110 115/172/108
f 115/172/108 113/168/105 118/175/111
f 113/168/105 114/176/107 118/175/111
f 116/177/109 118/175/111 114/176/107
f 118/175/111 116/177/109 31/178/112
f 117/174/110 118/175/111 31/178/112
f 32/179/113 31/178/112 116/177/109
f 31/178/112 32/179/113 119/180/114
f 120/181/115 31/178/112 119/180/114
f 31/178/112 120/181/115 117/174/110
f 32/182/113 117/174/110 120/181/115
f 120/181/115 20/183/65 32/182/113
f 119/180/114 19/184/63 120/181/115
f 20/183/65 120/181/115 19/184/63
f 20/185/65 119/180/114 32/179/113
f 119/180/114 20/185/65 21/186/66
f 19/184/63 119/180/114 21/186/66
f 117/174/110 32/182/113 116/173/109
f 114/176/107 113/168/105 112/167/104
f 109/162/101 112/171/104 108/161/100
f 106/164/98 29/156/96 104/157/97
f 101/150/92 104/159/97 100/149/91
f 98/152/89 27/144/87 97/143/86
f 94/138/83 97/147/86 93/137/82
f 26/140/80 90/132/78 89/131/77
f 24/126/74 89/135/77 87/127/75
f 86/128/71 85/122/70 83/119/67
f 21/116/66 82/113/64 19/112/63
f 121/187/116 33/188/117 122/189/118
f 122/189/118 123/190/119 121/187/116
f 33/188/117 121/187/116 34/191/120
f 34/191/120 124/192/121 33/188/117
f 124/192/121 34/191/120 125/193/122
f 125/193/122 126/194/123 124/192/121
f 126/194/123 125/193/122 35/195/124
f 35/195/124 127/196/125 126/194/123
f 127/196/125 35/195/124 128/197/126
f 128/197/126 129/198/127 127/196/125
f 129/198/127 128/197/126 130/199/128
f 130/199/128 131/200/129 129/198/127
f 131/200/129 130/199/128 132/201/130
f 132/201/130 36/202/131 131/200/129
f 36/202/131 132/201/130 133/203/132
f 133/203/132 134/204/133 36/202/131
f 134/204/133 133/203/132 135/205/134
f 135/205/134 136/206/135 134/204/133
f 136/206/135 135/205/134 137/207/136
f 37/208/137 137/207/136 138/209/138
f 137/207/136 37/208/137 136/206/135
f 138/209/138 139/210/139 37/208/137
f 33/188/117 37/208/137 139/210/139
f 124/192/121 37/208/137 33/188/117
f 124/192/121 136/206/135 37/208/137
f 33/188/117 139/210/139 122/189/118
f 123/190/119 122/189/118 139/210/139
f 139/210/139 138/209/138 123/190/119
f 126/194/123 134/204/133 136/206/135
f 126/194/123 136/206/135 124/192/121
f 127/196/125 36/202/131 134/204/133
f 127/196/125 134/204/133 126/194/123
f 129/198/127 131/200/129 36/202/131
f 129/198/127 36/202/131 127/196/125
