# Blender v2.93.18 OBJ File: 'Renault Alpine A110 For Sable 5.blend'
# www.blender.org
o door_l_window_door_lf_ok
v 6.197233 11.363695 22.204830
v 6.481581 11.559179 48.851830
v 8.925880 17.953308 26.358208
v 8.943424 18.046329 32.374996
v 7.350270 14.389996 25.109901
v 9.184449 18.127758 51.343430
v 10.936902 21.816166 52.542130
v 6.218516 11.265122 11.439567
v 11.021313 21.567207 22.137285
v 9.381940 17.900200 18.285559
v 12.295444 25.118187 33.573540
v 12.268472 24.770336 27.166979
v 6.161435 11.474160 31.292053
v 7.550788 14.580472 23.398218
v 10.638861 21.736710 32.975727
v 10.588896 21.736704 40.484959
v 6.136683 11.414481 24.027498
v 11.954957 23.914885 53.199554
v 6.494908 11.561639 49.169312
v 7.648190 14.569546 50.188099
v 11.980780 24.440905 47.365921
v 7.707837 14.337102 14.612973
v 12.105643 24.927273 40.468628
v 12.362432 25.064083 28.953131
v 12.178023 24.530373 26.350782
v 11.992431 24.004662 25.266872
v 11.623258 22.998232 23.765343
v 6.272214 11.533216 40.481827
v 9.145002 18.135168 24.719444
v 10.901226 21.827120 26.089403
v 7.556021 14.507533 48.484028
v 9.034025 18.046532 48.090355
v 10.700258 21.736704 47.680595
v 10.667185 21.648438 27.652758
v 7.385179 14.478351 31.794592
v 7.398240 14.486432 40.484959
v 8.926995 18.046272 40.484959
vt 0.148682 -0.270508
vt 0.045654 -0.335938
vt 0.138794 -0.331299
vt 0.072571 -0.275879
vt 0.159546 -0.202637
vt 0.103760 -0.206543
vt 0.170776 -0.131470
vt 0.136475 -0.135742
vt 0.150391 -0.108459
vt 0.163208 -0.089478
vt 0.172607 -0.079590
vt 0.179565 -0.074890
vt 0.406250 -0.271240
vt 0.394775 -0.327148
vt 0.397461 -0.326904
vt 0.391602 -0.272705
vt 0.322266 -0.328613
vt 0.416504 -0.204224
vt 0.388184 -0.206299
vt 0.426758 -0.133667
vt 0.384766 -0.136230
vt 0.432617 -0.093384
vt 0.382080 -0.084534
vt 0.322510 -0.136719
vt 0.322266 -0.075684
vt 0.257324 -0.136230
vt 0.262695 -0.071167
vt 0.211304 -0.137207
vt 0.222656 -0.071289
vt 0.199951 -0.207764
vt 0.252197 -0.206421
vt 0.189087 -0.275146
vt 0.246948 -0.273682
vt 0.179688 -0.330811
vt 0.242554 -0.329834
vt 0.322266 -0.273926
vt 0.322266 -0.206787
vn -0.9105 0.4129 -0.0211
vn -0.8998 0.4358 -0.0206
vn -0.9210 0.3895 -0.0054
vn -0.8895 0.4559 -0.0314
vn -0.8973 0.4393 -0.0433
vn -0.8856 0.4618 -0.0502
vn -0.8970 0.4386 -0.0541
vn -0.8896 0.4531 -0.0568
vn -0.8981 0.4357 -0.0595
vn -0.9012 0.4293 -0.0590
vn -0.9023 0.4296 -0.0358
vn -0.9029 0.4290 -0.0261
vn -0.9279 0.3709 0.0367
vn -0.9378 0.3458 0.0302
vn -0.9372 0.3469 0.0367
vn -0.9299 0.3668 0.0277
vn -0.9348 0.3549 0.0138
vn -0.9125 0.4077 0.0323
vn -0.9154 0.4018 0.0242
vn -0.9054 0.4229 0.0362
vn -0.9065 0.4214 0.0250
vn -0.9029 0.4283 0.0362
vn -0.9025 0.4301 0.0232
vn -0.9073 0.4205 0.0047
vn -0.9022 0.4312 0.0026
vn -0.9027 0.4301 -0.0089
vn -0.8963 0.4432 -0.0134
vn -0.8997 0.4362 -0.0133
vn -0.8928 0.4500 -0.0182
vn -0.9107 0.4131 -0.0055
vn -0.9124 0.4091 -0.0030
vn -0.9217 0.3879 -0.0010
vn -0.9214 0.3885 -0.0001
vn -0.9260 0.3775 -0.0001
vn -0.9270 0.3750 0.0013
vn -0.9265 0.3760 0.0100
vn -0.9151 0.4031 0.0062
s 1
f 14/1/1 8/2/2 1/3/3
f 8/2/2 14/1/1 22/4/4
f 29/5/5 22/4/4 14/1/1
f 22/4/4 29/5/5 10/6/6
f 30/7/7 10/6/6 29/5/5
f 10/6/6 30/7/7 9/8/8
f 27/9/9 9/8/8 30/7/7
f 27/9/9 30/7/7 26/10/10
f 26/10/10 30/7/7 25/11/11
f 25/11/11 30/7/7 12/12/12
f 20/13/13 2/14/14 19/15/15
f 2/14/14 20/13/13 31/16/16
f 31/16/16 28/17/17 2/14/14
f 6/18/18 31/16/16 20/13/13
f 31/16/16 6/18/18 32/19/19
f 7/20/20 32/19/19 6/18/18
f 32/19/19 7/20/20 33/21/21
f 18/22/22 33/21/21 7/20/20
f 33/21/21 18/22/22 21/23/23
f 21/23/23 16/24/24 33/21/21
f 16/24/24 21/23/23 23/25/25
f 23/25/25 15/26/26 16/24/24
f 15/26/26 23/25/25 11/27/27
f 34/28/28 11/27/27 24/29/29
f 11/27/27 34/28/28 15/26/26
f 3/30/30 15/26/26 34/28/28
f 15/26/26 3/30/30 4/31/31
f 4/31/31 16/24/24 15/26/26
f 5/32/32 4/31/31 3/30/30
f 4/31/31 5/32/32 35/33/33
f 17/34/34 35/33/33 5/32/32
f 35/33/33 17/34/34 13/35/35
f 13/35/35 36/36/36 35/33/33
f 36/36/36 13/35/35 28/17/17
f 28/17/17 31/16/16 36/36/36
f 32/19/19 36/36/36 31/16/16
f 36/36/36 32/19/19 37/37/37
f 37/37/37 35/33/33 36/36/36
f 35/33/33 37/37/37 4/31/31
f 16/24/24 4/31/31 37/37/37
f 37/37/37 33/21/21 16/24/24
f 33/21/21 37/37/37 32/19/19
