# Blender v2.93.18 OBJ File: 'Fiat uno mille steering 2.blend'
# www.blender.org
mtllib Fiat uno mille steering red.mtl
o Painel.087
v -0.473188 -0.905297 -0.001288
v -0.473188 -0.809648 0.003903
v -0.457283 -1.008635 -0.008174
v -0.000000 -0.917687 0.000000
v -0.461260 -0.690087 0.010384
v -0.413545 -0.590591 0.016422
v -0.357876 -0.518853 0.020311
v -0.266418 -0.471028 0.022904
v 0.159053 -0.435588 0.026766
v 0.278345 -0.463343 0.024615
v 0.425470 -0.562836 0.018583
v 0.469211 -0.798122 0.006478
v 0.469211 -0.906157 0.002564
v 0.457283 -1.009492 -0.004331
v 0.314133 -1.388256 -0.024199
v -0.071577 -1.451453 -0.030219
v -0.286299 -1.407465 -0.028492
v -0.357876 -1.344270 -0.022472
v -0.417519 -1.204637 -0.015550
v -0.163032 -0.439432 0.025920
v -0.055669 -0.427903 0.028486
v 0.051692 -0.424060 0.029337
v 0.381729 -0.511169 0.022029
v 0.473188 -0.670869 0.014657
v 0.429446 -1.117528 -0.008242
v 0.405588 -1.224706 -0.015997
v 0.369802 -1.320359 -0.021175
v 0.170984 -1.439921 -0.027657
v 0.055669 -1.455296 -0.031069
v -0.178938 -1.436079 -0.026794
v -0.441377 -1.112833 -0.011208
vt 0.104700 0.000000
vt 0.000000 0.000000
vt 1.518400 0.000000
vt 3.036900 0.000000
vt 0.314200 0.000000
vt 0.209400 0.000000
vt 0.418900 0.000000
vt 0.523600 0.000000
vt 0.628300 0.000000
vt 1.047200 0.000000
vt 0.942500 0.000000
vt 0.837800 0.000000
vt 1.151900 0.000000
vt 1.361400 0.000000
vt 1.256600 0.000000
vt 1.570800 0.000000
vt 1.466100 0.000000
vt 1.675500 0.000000
vt 1.780200 0.000000
vt 2.199100 0.000000
vt 2.094400 0.000000
vt 1.989700 0.000000
vt 2.513300 0.000000
vt 2.408600 0.000000
vt 2.303800 0.000000
vt 2.722700 0.000000
vt 2.618000 0.000000
vt 2.827400 0.000000
vt 2.932100 0.000000
vt 0.733000 0.000000
vt 1.885000 0.000000
vn -0.0041 -0.0539 0.9985
vn -0.0043 -0.0602 0.9982
vn -0.0027 -0.0544 0.9985
vn -0.0082 -0.0485 0.9988
vn -0.0038 -0.0549 0.9985
vn -0.0051 -0.0560 0.9984
vn -0.0016 -0.0522 0.9986
vn -0.0058 -0.0546 0.9985
vn -0.0141 -0.0589 0.9981
vn 0.0020 -0.0553 0.9984
vn 0.0104 -0.0588 0.9982
vn 0.0063 -0.0600 0.9982
vn 0.0037 -0.0576 0.9983
vn -0.0049 -0.0499 0.9987
vn -0.0006 -0.0516 0.9987
vn -0.0042 -0.0504 0.9987
vn -0.0004 -0.0526 0.9986
vn -0.0008 -0.0513 0.9987
vn -0.0064 -0.0551 0.9984
vn -0.0126 -0.0570 0.9983
vn -0.0000 -0.0514 0.9987
vn 0.0023 -0.0504 0.9987
vn -0.0040 -0.0502 0.9987
vn 0.0144 -0.0584 0.9982
vn -0.0087 -0.0586 0.9982
vn 0.0117 -0.0624 0.9980
vn -0.0021 -0.0568 0.9984
vn -0.0031 -0.0496 0.9987
vn -0.0073 -0.0408 0.9991
vn -0.0117 -0.0594 0.9981
vn -0.0057 -0.0595 0.9982
usemtl Painel.2
s 1
f 2/1/1 1/2/2 4/3/3
f 1/2/2 3/4/4 4/3/3
f 6/5/5 5/6/6 4/3/3
f 5/6/6 2/1/1 4/3/3
f 7/7/7 6/5/5 4/3/3
f 8/8/8 7/7/7 4/3/3
f 20/9/9 8/8/8 4/3/3
f 10/10/10 9/11/11 4/3/3
f 9/11/11 22/12/12 4/3/3
f 23/13/13 10/10/10 4/3/3
f 24/14/14 11/15/15 4/3/3
f 11/15/15 23/13/13 4/3/3
f 13/16/16 12/17/17 4/3/3
f 12/17/17 24/14/14 4/3/3
f 14/18/18 13/16/16 4/3/3
f 25/19/19 14/18/18 4/3/3
f 28/20/20 15/21/21 4/3/3
f 15/21/21 27/22/22 4/3/3
f 30/23/23 16/24/24 4/3/3
f 16/24/24 29/25/25 4/3/3
f 18/26/26 17/27/27 4/3/3
f 17/27/27 30/23/23 4/3/3
f 19/28/28 18/26/26 4/3/3
f 31/29/29 19/28/28 4/3/3
f 3/4/4 31/29/29 4/3/3
f 21/30/30 20/9/9 4/3/3
f 22/12/12 21/30/30 4/3/3
f 26/31/31 25/19/19 4/3/3
f 27/22/22 26/31/31 4/3/3
f 29/25/25 28/20/20 4/3/3
