# Blender v2.93.18 OBJ File: 'Fiat Uno Mille 9.blend'
# www.blender.org
mtllib Fiat Uno Mille boot logo.mtl
o boot_logo_boot_ok
v -0.031497 -26.062229 20.372503
v -1.681100 -26.062229 20.372503
v -0.999998 -24.750469 20.115458
v -0.031497 -24.440182 20.056349
v 1.543304 -25.559555 20.271545
v 1.622044 -26.062229 20.372503
v 1.543304 -26.561028 20.469452
v -0.031497 -27.684277 20.688637
v -0.539370 -27.601812 20.671839
v -0.999998 -27.374048 20.625591
v -1.366139 -27.012686 20.557966
v -1.602360 -26.561028 20.469452
v -1.944878 -25.596975 19.504242
v -2.043303 -26.205740 19.622320
v -1.909446 -26.121235 20.070063
v -1.551180 -25.037300 19.855347
v -1.661415 -25.043219 19.394758
v -1.212595 -24.607254 19.310406
v -0.653544 -24.324480 19.255598
v -0.031497 -24.230196 19.238651
v 0.551180 -24.365696 19.724686
v 0.594487 -24.324480 19.255598
v 1.074801 -24.628847 19.775274
v 1.153542 -24.607254 19.310406
v 1.492122 -25.037300 19.855347
v 1.602360 -25.043219 19.394758
v 1.885823 -25.596975 19.504234
v 1.984249 -26.205740 19.622320
v 1.885823 -26.818394 19.744350
v 1.492122 -27.205236 20.280857
v 1.602360 -27.368261 19.849859
v 1.074801 -27.613688 20.360929
v 1.153542 -27.808159 19.934250
v 0.594487 -28.087008 19.989044
v -0.031497 -27.967173 20.428484
v -0.031497 -28.185169 20.009989
v -0.610235 -27.876829 20.411554
v -0.653544 -28.087008 19.989044
v -1.133856 -27.613688 20.360929
v -1.212595 -27.808159 19.934250
v -1.661415 -27.368261 19.849859
v -1.944878 -26.818394 19.744356
v -1.602360 -25.559555 20.271545
v -1.818895 -25.551792 19.956453
v -1.366139 -25.107897 20.183054
v -1.133856 -24.628847 19.775274
v -0.539370 -24.518763 20.069162
v -0.610235 -24.365696 19.724686
v -0.031497 -24.275349 19.707733
v 0.480313 -24.518763 20.069162
v 0.940943 -24.750469 20.115458
v 1.307083 -25.107897 20.183054
v 1.759838 -25.551792 19.956453
v 1.850390 -26.121235 20.070072
v 1.759838 -26.690744 20.179777
v 1.307083 -27.012686 20.557966
v 0.940943 -27.374048 20.625591
v 0.480313 -27.601812 20.671839
v 0.551180 -27.876829 20.411554
v -1.551180 -27.205236 20.280857
v -1.818895 -26.690744 20.179777
v 1.622044 -26.062229 20.372503
v 1.543304 -25.559555 20.271545
v 1.543304 -26.561028 20.469452
v -0.539370 -27.601812 20.671839
v -0.031497 -27.684277 20.688637
v -0.999998 -27.374048 20.625591
v -1.366139 -27.012686 20.557966
v -1.602360 -26.561028 20.469452
v -1.681100 -26.062229 20.372503
v 0.551180 -24.365696 19.724686
v 1.074801 -24.628847 19.775274
v 1.492122 -25.037300 19.855347
v 1.492122 -27.205236 20.280857
v 1.074801 -27.613688 20.360929
v -0.031497 -27.967173 20.428484
v -0.610235 -27.876829 20.411554
v -1.133856 -27.613688 20.360929
v -1.602360 -25.559555 20.271545
v -1.366139 -25.107897 20.183054
v -0.610235 -24.365696 19.724686
v -1.133856 -24.628847 19.775274
v -0.031497 -24.275349 19.707733
v 0.480313 -24.518763 20.069162
v 0.940943 -24.750469 20.115458
v 1.307083 -25.107897 20.183054
v 1.850390 -26.121235 20.070072
v 1.759838 -25.551792 19.956453
v 1.759838 -26.690744 20.179777
v 1.307083 -27.012686 20.557966
v 0.940943 -27.374048 20.625591
v 0.480313 -27.601812 20.671839
v -1.818895 -26.690744 20.179777
v -1.551180 -27.205236 20.280857
v -0.999998 -24.750469 20.115458
v -0.539370 -24.518763 20.069162
v -0.031497 -24.440182 20.056349
v -1.909446 -26.121235 20.070063
v -1.818895 -25.551792 19.956453
v -1.551180 -25.037300 19.855347
v 0.551180 -27.876829 20.411554
vt 0.271100 0.282200
vt 0.064500 0.349300
vt 0.053900 0.282200
vt 0.095400 0.409800
vt 0.143400 0.457900
vt 0.204000 0.488800
vt 0.271100 0.499400
vt 0.338200 0.488800
vt 0.398800 0.457900
vt 0.446800 0.409800
vt 0.477700 0.349300
vt 0.488300 0.282200
vt 0.477700 0.215000
vt 0.446800 0.154500
vt 0.398800 0.106400
vt 0.338200 0.075600
vt 0.271100 0.064900
vt 0.204000 0.075600
vt 0.143400 0.106400
vt 0.095400 0.154500
vt 0.064500 0.215000
vt 0.036000 0.358500
vt 0.019100 0.364100
vt 0.006100 0.282200
vt 0.023900 0.282200
vt 0.071100 0.427500
vt 0.056700 0.437900
vt 0.125800 0.482100
vt 0.115300 0.496600
vt 0.194700 0.517200
vt 0.189200 0.534200
vt 0.271100 0.529300
vt 0.271100 0.547200
vt 0.347500 0.517200
vt 0.353000 0.534200
vt 0.416400 0.482100
vt 0.426900 0.496600
vt 0.471100 0.427500
vt 0.485500 0.437900
vt 0.506200 0.358500
vt 0.523100 0.364100
vt 0.518300 0.282200
vt 0.536100 0.282200
vt 0.506200 0.205800
vt 0.523100 0.200300
vt 0.471100 0.136900
vt 0.485500 0.126400
vt 0.416400 0.082200
vt 0.426900 0.067800
vt 0.347500 0.047100
vt 0.353000 0.030100
vt 0.271100 0.035000
vt 0.271100 0.017200
vt 0.194700 0.047100
vt 0.189200 0.030100
vt 0.125800 0.082200
vt 0.115300 0.067800
vt 0.071100 0.136900
vt 0.056700 0.126400
vt 0.036000 0.205800
vt 0.019100 0.200300
vt 0.064500 0.349300
vt 0.036000 0.358500
vt 0.023900 0.282200
vt 0.053900 0.282200
vt 0.095400 0.409800
vt 0.071100 0.427500
vt 0.143400 0.457900
vt 0.125800 0.482100
vt 0.204000 0.488800
vt 0.194700 0.517200
vt 0.271100 0.499400
vt 0.271100 0.529300
vt 0.338200 0.488800
vt 0.347500 0.517200
vt 0.398800 0.457900
vt 0.416400 0.482100
vt 0.446800 0.409800
vt 0.471100 0.427500
vt 0.477700 0.349300
vt 0.506200 0.358500
vt 0.488300 0.282200
vt 0.518300 0.282200
vt 0.477700 0.215000
vt 0.506200 0.205800
vt 0.446800 0.154500
vt 0.471100 0.136900
vt 0.398800 0.106400
vt 0.416400 0.082200
vt 0.338200 0.075600
vt 0.347500 0.047100
vt 0.271100 0.064900
vt 0.271100 0.035000
vt 0.204000 0.075600
vt 0.194700 0.047100
vt 0.143400 0.106400
vt 0.125800 0.082200
vt 0.095400 0.154500
vt 0.071100 0.136900
vt 0.064500 0.215000
vt 0.036000 0.205800
vn 0.0000 0.1917 0.9814
vn -0.0006 0.1949 0.9808
vn 0.0000 0.1939 0.9810
vn -0.0026 0.1913 0.9815
vn -0.0012 0.1914 0.9815
vn -0.0017 0.1923 0.9813
vn 0.0000 0.1913 0.9815
vn 0.0017 0.1923 0.9813
vn 0.0012 0.1914 0.9815
vn 0.0025 0.1913 0.9815
vn 0.0006 0.1949 0.9808
vn 0.0002 0.1914 0.9815
vn -0.0014 0.1896 0.9818
vn 0.0002 0.1896 0.9818
vn 0.0025 0.1916 0.9814
vn -0.0025 0.1916 0.9814
vn -0.0002 0.1896 0.9818
vn 0.0014 0.1896 0.9818
vn -0.0002 0.1914 0.9815
vn -0.9125 0.3448 0.2201
vn -0.9122 0.3447 0.2214
vn -0.9595 0.0552 0.2761
vn -0.9594 0.0536 0.2768
vn -0.7751 0.6068 0.1760
vn -0.7747 0.6072 0.1766
vn -0.5625 0.8159 0.1341
vn -0.5622 0.8161 0.1338
vn -0.2975 0.9483 0.1101
vn -0.2977 0.9483 0.1097
vn 0.0008 0.9953 0.0970
vn 0.0007 0.9953 0.0969
vn 0.2951 0.9491 0.1095
vn 0.2955 0.9490 0.1100
vn 0.5640 0.8148 0.1340
vn 0.5634 0.8152 0.1342
vn 0.7732 0.6091 0.1763
vn 0.7733 0.6092 0.1755
vn 0.9128 0.3429 0.2218
vn 0.9132 0.3427 0.2205
vn 0.9595 0.0537 0.2764
vn 0.9594 0.0555 0.2765
vn 0.9127 -0.2362 0.3332
vn 0.9126 -0.2359 0.3338
vn 0.7754 -0.4994 0.3865
vn 0.7758 -0.4984 0.3868
vn 0.5638 -0.7072 0.4265
vn 0.5632 -0.7080 0.4260
vn 0.2958 -0.8425 0.4501
vn 0.2971 -0.8419 0.4503
vn 0.0005 -0.8873 0.4611
vn -0.2979 -0.8417 0.4503
vn -0.2991 -0.8415 0.4499
vn -0.5635 -0.7078 0.4259
vn -0.5628 -0.7080 0.4267
vn -0.7748 -0.4999 0.3871
vn -0.7755 -0.4992 0.3865
vn -0.9127 -0.2355 0.3338
vn -0.9130 -0.2356 0.3331
vn -0.7647 0.3594 0.5347
vn -0.7649 0.3588 0.5350
vn -0.8036 0.1142 0.5841
vn -0.8037 0.1140 0.5839
vn -0.6502 0.5794 0.4915
vn -0.6507 0.5786 0.4917
vn -0.4737 0.7533 0.4561
vn -0.2502 0.8648 0.4353
vn -0.2506 0.8646 0.4356
vn -0.0003 0.9040 0.4276
vn -0.0003 0.9040 0.4275
vn 0.2492 0.8650 0.4355
vn 0.2498 0.8649 0.4353
vn 0.4743 0.7529 0.4562
vn 0.4743 0.7530 0.4562
vn 0.6496 0.5801 0.4914
vn 0.6503 0.5791 0.4915
vn 0.7649 0.3586 0.5350
vn 0.7651 0.3582 0.5350
vn 0.8036 0.1150 0.5839
vn 0.8037 0.1150 0.5837
vn 0.7649 -0.1303 0.6308
vn 0.7647 -0.1308 0.6309
vn 0.6491 -0.3496 0.6756
vn 0.6487 -0.3492 0.6762
vn 0.4704 -0.5228 0.7109
vn 0.4705 -0.5220 0.7114
vn 0.2500 -0.6312 0.7342
vn 0.2488 -0.6326 0.7334
vn -0.0028 -0.6755 0.7373
vn -0.0022 -0.6755 0.7374
vn -0.2479 -0.6330 0.7334
vn -0.2467 -0.6322 0.7344
vn -0.4704 -0.5221 0.7114
vn -0.4710 -0.5224 0.7108
vn -0.6485 -0.3494 0.6762
vn -0.6489 -0.3498 0.6756
vn -0.7653 -0.1290 0.6306
vn -0.7651 -0.1298 0.6307
usemtl boot_ok.5
s 1
f 1/1/1 43/2/2 70/3/3
f 1/1/1 45/4/4 43/2/2
f 1/1/1 95/5/5 45/4/4
f 1/1/1 47/6/6 95/5/5
f 1/1/1 97/7/7 47/6/6
f 1/1/1 50/8/8 97/7/7
f 1/1/1 85/9/9 50/8/8
f 1/1/1 86/10/10 85/9/9
f 1/1/1 63/11/11 86/10/10
f 1/1/1 62/12/3 63/11/11
f 1/1/1 64/13/12 62/12/3
f 1/1/1 56/14/13 64/13/12
f 1/1/1 91/15/14 56/14/13
f 1/1/1 58/16/15 91/15/14
f 1/1/1 66/17/7 58/16/15
f 1/1/1 65/18/16 66/17/7
f 1/1/1 67/19/17 65/18/16
f 1/1/1 68/20/18 67/19/17
f 1/1/1 69/21/19 68/20/18
f 1/1/1 70/3/3 69/21/19
f 44/22/20 13/23/21 14/24/22
f 44/22/20 14/24/22 98/25/23
f 100/26/24 17/27/25 13/23/21
f 100/26/24 13/23/21 44/22/20
f 46/28/26 18/29/27 17/27/25
f 46/28/26 17/27/25 100/26/24
f 48/30/28 19/31/29 18/29/27
f 48/30/28 18/29/27 46/28/26
f 83/32/30 20/33/31 19/31/29
f 83/32/30 19/31/29 48/30/28
f 71/34/32 22/35/33 20/33/31
f 71/34/32 20/33/31 83/32/30
f 72/36/34 24/37/35 22/35/33
f 72/36/34 22/35/33 71/34/32
f 73/38/36 26/39/37 24/37/35
f 73/38/36 24/37/35 72/36/34
f 88/40/38 27/41/39 26/39/37
f 88/40/38 26/39/37 73/38/36
f 87/42/40 28/43/41 27/41/39
f 87/42/40 27/41/39 88/40/38
f 89/44/42 29/45/43 28/43/41
f 89/44/42 28/43/41 87/42/40
f 74/46/44 31/47/45 29/45/43
f 74/46/44 29/45/43 89/44/42
f 75/48/46 33/49/47 31/47/45
f 75/48/46 31/47/45 74/46/44
f 59/50/48 34/51/49 33/49/47
f 59/50/48 33/49/47 75/48/46
f 76/52/50 36/53/50 34/51/49
f 76/52/50 34/51/49 59/50/48
f 77/54/51 38/55/52 36/53/50
f 77/54/51 36/53/50 76/52/50
f 78/56/53 40/57/54 38/55/52
f 78/56/53 38/55/52 77/54/51
f 94/58/55 41/59/56 40/57/54
f 94/58/55 40/57/54 78/56/53
f 93/60/57 42/61/58 41/59/56
f 93/60/57 41/59/56 94/58/55
f 98/25/23 14/24/22 42/61/58
f 98/25/23 42/61/58 93/60/57
f 79/62/59 99/63/60 15/64/61
f 79/62/59 15/64/61 2/65/62
f 80/66/63 16/67/64 99/63/60
f 80/66/63 99/63/60 79/62/59
f 3/68/65 82/69/65 16/67/64
f 3/68/65 16/67/64 80/66/63
f 96/70/66 81/71/67 82/69/65
f 96/70/66 82/69/65 3/68/65
f 4/72/68 49/73/69 81/71/67
f 4/72/68 81/71/67 96/70/66
f 84/74/70 21/75/71 49/73/69
f 84/74/70 49/73/69 4/72/68
f 51/76/72 23/77/73 21/75/71
f 51/76/72 21/75/71 84/74/70
f 52/78/74 25/79/75 23/77/73
f 52/78/74 23/77/73 51/76/72
f 5/80/76 53/81/77 25/79/75
f 5/80/76 25/79/75 52/78/74
f 6/82/78 54/83/79 53/81/77
f 6/82/78 53/81/77 5/80/76
f 7/84/80 55/85/81 54/83/79
f 7/84/80 54/83/79 6/82/78
f 90/86/82 30/87/83 55/85/81
f 90/86/82 55/85/81 7/84/80
f 57/88/84 32/89/85 30/87/83
f 57/88/84 30/87/83 90/86/82
f 92/90/86 101/91/87 32/89/85
f 92/90/86 32/89/85 57/88/84
f 8/92/88 35/93/89 101/91/87
f 8/92/88 101/91/87 92/90/86
f 9/94/90 37/95/91 35/93/89
f 9/94/90 35/93/89 8/92/88
f 10/96/92 39/97/93 37/95/91
f 10/96/92 37/95/91 9/94/90
f 11/98/94 60/99/95 39/97/93
f 11/98/94 39/97/93 10/96/92
f 12/100/96 61/101/97 60/99/95
f 12/100/96 60/99/95 11/98/94
f 2/65/62 15/64/61 61/101/97
f 2/65/62 61/101/97 12/100/96
