# Blender v2.93.18 OBJ File: 'Fiat Uno Mille 9.blend'
# www.blender.org
mtllib Fiat Uno Mille taillights.mtl
o taillights_vidro
v -33.425133 4.115888 69.047157
v -34.988117 0.321601 66.083862
v -34.661350 4.079262 66.196999
v -32.925137 7.319289 69.230408
v -34.188911 7.474851 66.322670
v -33.224346 0.368243 69.713440
v -32.897575 4.123582 69.645523
v -32.350327 7.220181 69.790794
v -32.043243 4.130363 70.173058
v -31.586554 7.083412 70.178406
v -30.118048 0.381296 70.729118
v -29.787342 4.136680 70.665123
v -29.606241 6.801806 70.630875
v -25.681055 0.384583 70.985016
v -25.354280 4.139916 70.917084
v -25.330660 6.356828 70.931915
v -23.129875 0.387266 71.193649
v -23.425150 4.142600 71.125710
v -23.586569 5.879175 71.142792
v -24.035385 6.181338 71.064079
v -23.771608 6.122694 71.096336
v -33.795212 -5.544223 68.596451
v -33.803085 -4.874380 68.635071
v -35.051109 -5.578517 65.927361
v -32.858204 -5.532133 69.537300
v -32.440880 -4.860165 69.741295
v -30.586552 -5.523683 70.194710
v -30.181040 -4.854144 70.209740
v -23.169245 -5.519386 70.529343
v -25.759792 -4.851009 70.453827
v -23.121998 -4.853931 70.532570
v -33.751904 0.360503 69.111153
v -35.051113 -4.908223 66.001442
v -33.283401 -4.866488 69.249199
v -32.370010 0.375024 70.240967
v 33.527489 4.115888 69.047157
v 34.763710 4.079262 66.196999
v 33.031429 7.319289 69.230408
v 34.295208 7.474850 66.322670
v 32.999935 4.123582 69.645523
v 33.330643 0.368243 69.713448
v 32.452686 7.220180 69.790794
v 32.145603 4.130363 70.173058
v 32.476311 0.375024 70.240967
v 31.688910 7.083412 70.178406
v 29.893641 4.136680 70.665123
v 30.220413 0.381296 70.729134
v 29.708601 6.801806 70.630875
v 25.456642 4.139916 70.917084
v 25.783411 0.384583 70.985016
v 25.436958 6.356828 70.931915
v 23.531450 4.142600 71.125710
v 23.236174 0.387266 71.193649
v 23.692865 5.879175 71.142792
v 24.137749 6.181338 71.064079
v 23.877905 6.122694 71.096336
v 33.909378 -4.874380 68.635071
v 33.901508 -5.544223 68.596451
v 35.153473 -5.578517 65.927361
v 33.389698 -4.866488 69.249199
v 32.960564 -5.532133 69.537300
v 30.692848 -5.523683 70.194710
v 23.275545 -5.519386 70.529343
v 23.224361 -4.853931 70.532570
v 33.858200 0.360503 69.111153
v 35.153473 -4.908223 66.001442
v 35.094418 0.321601 66.083862
v 32.547176 -4.860165 69.741295
v 30.287336 -4.854144 70.209740
v 25.862152 -4.851009 70.453827
v -0.031497 -1.907167 -96.325775
v 1.728343 -1.346544 -96.206978
v 1.059052 -0.442470 -96.017723
v 0.543305 -0.185819 -95.962006
v -0.031497 -0.095026 -95.943443
v -1.118108 -0.442470 -96.017738
v -1.527557 -0.841236 -96.103180
v -1.881886 -1.907167 -96.325775
v -1.791335 -2.467798 -96.444542
v -1.527557 -2.973098 -96.548309
v -1.118108 -3.371865 -96.633720
v -0.602360 -3.628518 -96.689461
v -0.031497 -3.719313 -96.707985
v 1.468500 -2.973098 -96.548302
v 1.728343 -2.467798 -96.444542
v 2.118106 -1.398499 -95.347946
v 1.673226 -0.765615 -95.734047
v 1.795272 -0.782611 -95.218033
v 1.208659 -0.311582 -95.637527
v 0.622046 -0.019408 -95.574341
v -0.031497 0.083198 -95.555977
v -0.031497 0.125452 -95.024979
v -1.358265 -0.296984 -95.114082
v -1.732280 -0.765615 -95.734047
v -1.854327 -0.782611 -95.218033
v -2.031492 -1.341991 -95.852638
v -1.732280 -3.189667 -96.242317
v -0.681101 -3.939765 -96.398071
v -0.728345 -4.185740 -95.930252
v -0.031497 -4.038477 -96.420395
v 1.972437 -2.617178 -96.119797
v 1.972437 -1.341991 -95.852638
v 2.074799 -1.977621 -95.986198
v 1.822830 -1.907167 -96.325775
v 1.468500 -0.841236 -96.103172
v -0.602360 -0.185819 -95.962013
v -0.681101 -0.019408 -95.574341
v -1.267714 -0.311582 -95.637527
v -1.791335 -1.346544 -96.206978
v -2.133854 -1.977621 -95.986206
v -2.031492 -2.617178 -96.119797
v -1.267714 -3.643702 -96.338898
v 0.543305 -3.628518 -96.689453
v 0.622046 -3.939765 -96.398071
v 1.059052 -3.371865 -96.633705
v 1.208659 -3.643702 -96.338898
v 1.673226 -3.189668 -96.242317
v 2.228343 -2.081463 -95.488823
v 1.299210 -0.296984 -95.114082
v 0.669290 0.018865 -95.047264
v -0.728345 0.018865 -95.047264
v -2.177162 -1.398499 -95.347946
v -2.287397 -2.081463 -95.488823
v -2.177162 -2.764483 -95.633575
v -1.854327 -3.380370 -95.763481
v -1.358265 -3.869943 -95.867416
v -0.031497 -4.292382 -95.956482
v 0.669290 -4.185740 -95.930252
v 1.299210 -3.869943 -95.867416
v 1.795272 -3.380370 -95.763481
v 2.118106 -2.764483 -95.633575
v -34.988117 0.321601 66.083862
v -30.118048 0.381296 70.729118
v -25.681055 0.384583 70.985016
v -23.129875 0.387266 71.193649
v -30.181040 -4.854144 70.209740
v -32.440880 -4.860165 69.741295
v -25.759792 -4.851009 70.453827
v -23.121998 -4.853931 70.532570
v 32.476311 0.375024 70.240967
v 33.330643 0.368243 69.713448
v 30.220413 0.381296 70.729134
v 25.783411 0.384583 70.985016
v 23.236174 0.387266 71.193649
v 33.909378 -4.874380 68.635071
v 33.389698 -4.866488 69.249199
v 23.224361 -4.853931 70.532570
v 35.153473 -4.908223 66.001442
v 35.094418 0.321601 66.083862
v 33.858200 0.360503 69.111153
v 30.287336 -4.854144 70.209740
v 32.547176 -4.860165 69.741295
v 25.862152 -4.851009 70.453827
v -33.751904 0.360503 69.111153
v -33.224346 0.368243 69.713440
v -32.370010 0.375024 70.240967
v -33.803085 -4.874380 68.635071
v -35.051113 -4.908223 66.001442
v -33.283401 -4.866488 69.249199
v 0.543305 -0.185819 -95.962006
v 1.059052 -0.442470 -96.017723
v -0.031497 -0.095026 -95.943443
v -1.527557 -0.841236 -96.103180
v -1.118108 -0.442470 -96.017738
v -1.791335 -2.467798 -96.444542
v -1.881886 -1.907167 -96.325775
v -1.527557 -2.973098 -96.548309
v -1.118108 -3.371865 -96.633720
v -0.602360 -3.628518 -96.689461
v -0.031497 -3.719313 -96.707985
v 1.728343 -2.467798 -96.444542
v 1.468500 -2.973098 -96.548302
v 1.673226 -0.765615 -95.734047
v 1.208659 -0.311582 -95.637527
v 0.622046 -0.019408 -95.574341
v -0.031497 0.083198 -95.555977
v -1.732280 -0.765615 -95.734047
v -2.031492 -1.341991 -95.852638
v -0.681101 -3.939765 -96.398071
v -0.031497 -4.038477 -96.420395
v 1.972437 -1.341991 -95.852638
v 2.074799 -1.977621 -95.986198
v -1.267714 -0.311582 -95.637527
v -0.681101 -0.019408 -95.574341
v -2.031492 -2.617178 -96.119797
v -2.133854 -1.977621 -95.986206
v 1.208659 -3.643702 -96.338898
v 0.622046 -3.939765 -96.398071
v 0.543305 -3.628518 -96.689453
v 1.059052 -3.371865 -96.633705
v 1.673226 -3.189668 -96.242317
v 1.728343 -1.346544 -96.206978
v 1.822830 -1.907167 -96.325775
v 1.468500 -0.841236 -96.103172
v -0.602360 -0.185819 -95.962013
v -1.791335 -1.346544 -96.206978
v -1.732280 -3.189667 -96.242317
v -1.267714 -3.643702 -96.338898
v 1.972437 -2.617178 -96.119797
vt 0.697100 0.800100
vt 0.700400 0.889800
vt 0.684900 0.798700
vt 0.688200 0.888300
vt 0.708500 0.970800
vt 0.695400 0.969500
vt 0.701000 0.800800
vt 0.704300 0.890400
vt 0.713600 0.971000
vt 0.721300 0.801800
vt 0.724600 0.891400
vt 0.732000 0.971200
vt 0.774900 0.804500
vt 0.778200 0.894100
vt 0.779400 0.969700
vt 0.880400 0.809700
vt 0.883700 0.899400
vt 0.881600 0.961100
vt 0.950100 0.812800
vt 0.942100 0.901600
vt 0.926000 0.942800
vt 0.912600 0.952500
vt 0.918900 0.948400
vt 0.694400 0.659800
vt 0.702100 0.675700
vt 0.690400 0.658300
vt 0.689600 0.674200
vt 0.716700 0.661000
vt 0.705800 0.676300
vt 0.725800 0.677300
vt 0.770700 0.663700
vt 0.779600 0.680000
vt 0.953000 0.672500
vt 0.884700 0.685300
vt 0.953300 0.688400
vt 0.702100 0.675700
vt 0.697100 0.800100
vt 0.689600 0.674200
vt 0.684900 0.798700
vt 0.705800 0.676300
vt 0.701000 0.800800
vt 0.725800 0.677300
vt 0.721300 0.801800
vt 0.779600 0.680000
vt 0.774900 0.804500
vt 0.884700 0.685300
vt 0.880400 0.809700
vt 0.953300 0.688400
vt 0.950100 0.812800
vt 0.700400 0.889800
vt 0.697100 0.800100
vt 0.684900 0.798700
vt 0.688200 0.888300
vt 0.708500 0.970800
vt 0.695400 0.969500
vt 0.704300 0.890400
vt 0.701000 0.800800
vt 0.713600 0.971000
vt 0.724600 0.891400
vt 0.721300 0.801800
vt 0.732000 0.971200
vt 0.778200 0.894100
vt 0.774900 0.804500
vt 0.779400 0.969700
vt 0.883700 0.899400
vt 0.880400 0.809700
vt 0.881600 0.961100
vt 0.942100 0.901600
vt 0.950100 0.812800
vt 0.926000 0.942800
vt 0.912600 0.952500
vt 0.918900 0.948400
vt 0.702100 0.675700
vt 0.694400 0.659800
vt 0.690400 0.658300
vt 0.689600 0.674200
vt 0.705800 0.676300
vt 0.716700 0.661000
vt 0.725800 0.677300
vt 0.779600 0.680000
vt 0.770700 0.663700
vt 0.884700 0.685300
vt 0.953000 0.672500
vt 0.953300 0.688400
vt 0.697100 0.800100
vt 0.702100 0.675700
vt 0.689600 0.674200
vt 0.684900 0.798700
vt 0.701000 0.800800
vt 0.705800 0.676300
vt 0.721300 0.801800
vt 0.725800 0.677300
vt 0.774900 0.804500
vt 0.779600 0.680000
vt 0.880400 0.809700
vt 0.884700 0.685300
vt 0.950100 0.812800
vt 0.953300 0.688400
vt 0.271100 0.282200
vt 0.064500 0.349300
vt 0.053900 0.282200
vt 0.095400 0.409800
vt 0.143400 0.457900
vt 0.204000 0.488800
vt 0.271100 0.499400
vt 0.338200 0.488800
vt 0.398800 0.457900
vt 0.446800 0.409800
vt 0.477700 0.349300
vt 0.488300 0.282200
vt 0.477700 0.215000
vt 0.446800 0.154500
vt 0.398800 0.106400
vt 0.338200 0.075600
vt 0.271100 0.064900
vt 0.204000 0.075600
vt 0.143400 0.106400
vt 0.095400 0.154500
vt 0.064500 0.215000
vt 0.036000 0.358500
vt 0.019100 0.364100
vt 0.006100 0.282200
vt 0.023900 0.282200
vt 0.071100 0.427500
vt 0.056700 0.437900
vt 0.125800 0.482100
vt 0.115300 0.496600
vt 0.194700 0.517200
vt 0.189200 0.534200
vt 0.271100 0.529300
vt 0.271100 0.547200
vt 0.347500 0.517200
vt 0.353000 0.534200
vt 0.416400 0.482100
vt 0.426900 0.496600
vt 0.471100 0.427500
vt 0.485500 0.437900
vt 0.506200 0.358500
vt 0.523100 0.364100
vt 0.518300 0.282200
vt 0.536100 0.282200
vt 0.506200 0.205800
vt 0.523100 0.200300
vt 0.471100 0.136900
vt 0.485500 0.126400
vt 0.416400 0.082200
vt 0.426900 0.067800
vt 0.347500 0.047100
vt 0.353000 0.030100
vt 0.271100 0.035000
vt 0.271100 0.017200
vt 0.194700 0.047100
vt 0.189200 0.030100
vt 0.125800 0.082200
vt 0.115300 0.067800
vt 0.071100 0.136900
vt 0.056700 0.126400
vt 0.036000 0.205800
vt 0.019100 0.200300
vt 0.064500 0.349300
vt 0.036000 0.358500
vt 0.023900 0.282200
vt 0.053900 0.282200
vt 0.095400 0.409800
vt 0.071100 0.427500
vt 0.143400 0.457900
vt 0.125800 0.482100
vt 0.204000 0.488800
vt 0.194700 0.517200
vt 0.271100 0.499400
vt 0.271100 0.529300
vt 0.338200 0.488800
vt 0.347500 0.517200
vt 0.398800 0.457900
vt 0.416400 0.482100
vt 0.446800 0.409800
vt 0.471100 0.427500
vt 0.477700 0.349300
vt 0.506200 0.358500
vt 0.488300 0.282200
vt 0.518300 0.282200
vt 0.477700 0.215000
vt 0.506200 0.205800
vt 0.446800 0.154500
vt 0.471100 0.136900
vt 0.398800 0.106400
vt 0.416400 0.082200
vt 0.338200 0.075600
vt 0.347500 0.047100
vt 0.271100 0.064900
vt 0.271100 0.035000
vt 0.204000 0.075600
vt 0.194700 0.047100
vt 0.143400 0.106400
vt 0.125800 0.082200
vt 0.095400 0.154500
vt 0.071100 0.136900
vt 0.064500 0.215000
vt 0.036000 0.205800
vn -0.8504 0.0831 0.5195
vn -0.8430 0.0936 0.5297
vn -0.9197 0.0783 0.3847
vn -0.9134 0.0904 0.3969
vn -0.8130 0.0921 0.5749
vn -0.9092 0.1116 0.4011
vn -0.6493 0.0702 0.7573
vn -0.6442 0.0790 0.7608
vn -0.5783 0.0549 0.8140
vn -0.3817 0.0497 0.9229
vn -0.3781 0.0531 0.9242
vn -0.3435 0.0390 0.9383
vn -0.1391 0.0293 0.9898
vn -0.1367 0.0238 0.9903
vn -0.1452 0.0240 0.9891
vn -0.0727 0.0199 0.9971
vn -0.0846 0.0079 0.9964
vn -0.0874 0.0045 0.9962
vn -0.0815 0.0116 0.9966
vn -0.1023 0.0019 0.9947
vn -0.1086 0.0227 0.9938
vn -0.0840 0.1325 0.9876
vn -0.0950 0.1164 0.9886
vn -0.8322 -0.0626 0.5508
vn -0.8379 -0.0421 0.5442
vn -0.9027 -0.0455 0.4279
vn -0.9024 -0.0473 0.4282
vn -0.4881 -0.0524 0.8712
vn -0.6638 -0.0662 0.7449
vn -0.2983 -0.1028 0.9489
vn -0.2044 0.0990 0.9738
vn -0.1231 0.0316 0.9919
vn -0.0322 -0.0118 0.9994
vn -0.0442 -0.0537 0.9976
vn -0.0298 -0.0027 0.9995
vn -0.8434 -0.0394 0.5358
vn -0.8404 -0.0312 0.5410
vn -0.9116 -0.0175 0.4106
vn -0.9258 0.0052 0.3780
vn -0.6487 -0.0619 0.7585
vn -0.6397 -0.0619 0.7661
vn -0.3627 -0.0851 0.9280
vn -0.3659 -0.0815 0.9271
vn -0.1304 -0.0969 0.9867
vn -0.1319 -0.0949 0.9867
vn -0.0497 -0.1087 0.9928
vn -0.0687 -0.0991 0.9927
vn -0.0297 -0.1251 0.9917
vn -0.0658 -0.1071 0.9921
vn 0.8429 0.0937 0.5298
vn 0.8503 0.0840 0.5195
vn 0.9196 0.0793 0.3847
vn 0.9134 0.0904 0.3969
vn 0.8122 0.0909 0.5763
vn 0.9093 0.1106 0.4011
vn 0.6441 0.0793 0.7608
vn 0.6493 0.0709 0.7572
vn 0.5772 0.0543 0.8148
vn 0.3782 0.0533 0.9242
vn 0.3818 0.0499 0.9229
vn 0.3435 0.0390 0.9383
vn 0.1368 0.0240 0.9903
vn 0.1389 0.0292 0.9899
vn 0.1453 0.0241 0.9891
vn 0.0847 0.0078 0.9964
vn 0.0727 0.0199 0.9971
vn 0.0874 0.0045 0.9962
vn 0.1025 0.0019 0.9947
vn 0.0816 0.0116 0.9966
vn 0.1088 0.0227 0.9938
vn 0.0838 0.1338 0.9874
vn 0.0967 0.1151 0.9886
vn 0.8382 -0.0421 0.5437
vn 0.8323 -0.0631 0.5507
vn 0.9032 -0.0454 0.4268
vn 0.9029 -0.0472 0.4271
vn 0.6631 -0.0685 0.7454
vn 0.4870 -0.0547 0.8716
vn 0.2986 -0.1043 0.9486
vn 0.1231 0.0315 0.9919
vn 0.2047 0.0992 0.9738
vn 0.0442 -0.0534 0.9976
vn 0.0322 -0.0116 0.9994
vn 0.0298 -0.0025 0.9995
vn 0.8405 -0.0314 0.5408
vn 0.8437 -0.0393 0.5353
vn 0.9120 -0.0177 0.4099
vn 0.9258 0.0045 0.3780
vn 0.6397 -0.0619 0.7661
vn 0.6487 -0.0619 0.7585
vn 0.3657 -0.0815 0.9271
vn 0.3627 -0.0850 0.9280
vn 0.1317 -0.0948 0.9867
vn 0.1304 -0.0968 0.9867
vn 0.0688 -0.0991 0.9927
vn 0.0497 -0.1088 0.9928
vn 0.0659 -0.1071 0.9920
vn 0.0297 -0.1251 0.9917
vn 0.0000 0.2061 -0.9785
vn 0.0009 0.2047 -0.9788
vn 0.0000 0.2073 -0.9783
vn -0.0002 0.2047 -0.9788
vn -0.0023 0.2074 -0.9782
vn -0.0007 0.2070 -0.9783
vn 0.0000 0.2064 -0.9785
vn 0.0007 0.2070 -0.9783
vn 0.0023 0.2074 -0.9782
vn 0.0002 0.2047 -0.9788
vn -0.0009 0.2047 -0.9788
vn 0.0009 0.2046 -0.9788
vn -0.0007 0.2069 -0.9783
vn 0.0007 0.2069 -0.9783
vn 0.0002 0.2046 -0.9788
vn -0.0009 0.2046 -0.9788
vn 0.9105 0.3476 -0.2237
vn 0.9105 0.3485 -0.2224
vn 0.9572 0.0595 -0.2832
vn 0.9572 0.0596 -0.2830
vn 0.7746 0.6107 -0.1644
vn 0.7742 0.6115 -0.1632
vn 0.5627 0.8179 -0.1200
vn 0.5633 0.8173 -0.1210
vn 0.2974 0.9500 -0.0949
vn 0.2969 0.9502 -0.0942
vn -0.0020 0.9967 -0.0807
vn -0.0018 0.9967 -0.0807
vn -0.2956 0.9507 -0.0941
vn -0.2952 0.9507 -0.0947
vn -0.5631 0.8175 -0.1210
vn -0.5640 0.8170 -0.1202
vn -0.7758 0.6094 -0.1636
vn -0.7748 0.6104 -0.1644
vn -0.9103 0.3490 -0.2223
vn -0.9098 0.3499 -0.2232
vn -0.9572 0.0595 -0.2832
vn -0.9572 0.0594 -0.2830
vn -0.9107 -0.2306 -0.3428
vn -0.9111 -0.2300 -0.3420
vn -0.7749 -0.4937 -0.3948
vn -0.7754 -0.4925 -0.3952
vn -0.5651 -0.6969 -0.4415
vn -0.5649 -0.6968 -0.4420
vn -0.2956 -0.8325 -0.4685
vn -0.2957 -0.8326 -0.4684
vn -0.0012 -0.8775 -0.4795
vn -0.0011 -0.8775 -0.4795
vn 0.2968 -0.8322 -0.4683
vn 0.2966 -0.8322 -0.4684
vn 0.5632 -0.6980 -0.4422
vn 0.5633 -0.6981 -0.4418
vn 0.7759 -0.4918 -0.3950
vn 0.7766 -0.4913 -0.3942
vn 0.9107 -0.2313 -0.3423
vn 0.9107 -0.2303 -0.3427
vn 0.7660 0.3637 -0.5300
vn 0.7658 0.3626 -0.5311
vn 0.8079 0.1231 -0.5763
vn 0.8082 0.1234 -0.5758
vn 0.6520 0.5848 -0.4825
vn 0.6520 0.5852 -0.4821
vn 0.4716 0.7603 -0.4467
vn 0.4714 0.7600 -0.4473
vn 0.2492 0.8706 -0.4242
vn 0.2493 0.8704 -0.4245
vn -0.0002 0.9086 -0.4176
vn -0.0002 0.9086 -0.4177
vn -0.2497 0.8703 -0.4245
vn -0.2498 0.8704 -0.4242
vn -0.4709 0.7604 -0.4472
vn -0.4713 0.7605 -0.4466
vn -0.6517 0.5855 -0.4820
vn -0.6525 0.5853 -0.4812
vn -0.7682 0.3649 -0.5259
vn -0.7690 0.3640 -0.5254
vn -0.8088 0.1212 -0.5755
vn -0.8091 0.1211 -0.5750
vn -0.7693 -0.1249 -0.6265
vn -0.7688 -0.1241 -0.6273
vn -0.6520 -0.3421 -0.6766
vn -0.6519 -0.3406 -0.6775
vn -0.4737 -0.5147 -0.7146
vn -0.2506 -0.6269 -0.7377
vn -0.2496 -0.6281 -0.7370
vn 0.0006 -0.6687 -0.7435
vn 0.0005 -0.6688 -0.7435
vn 0.2497 -0.6280 -0.7370
vn 0.2485 -0.6275 -0.7378
vn 0.4732 -0.5151 -0.7147
vn 0.4733 -0.5149 -0.7147
vn 0.6520 -0.3404 -0.6774
vn 0.6521 -0.3404 -0.6774
vn 0.7654 -0.1230 -0.6317
vn 0.7664 -0.1224 -0.6306
usemtl glass.001
s 1
f 32/1/1 1/2/2 132/3/3
f 1/2/2 3/4/4 132/3/3
f 1/2/2 4/5/5 3/4/4
f 4/5/5 5/6/6 3/4/4
f 155/7/7 7/8/8 32/1/1
f 7/8/8 1/2/2 32/1/1
f 7/8/8 8/9/9 1/2/2
f 8/9/9 4/5/5 1/2/2
f 35/10/10 9/11/11 155/7/7
f 9/11/11 7/8/8 155/7/7
f 9/11/11 10/12/12 7/8/8
f 10/12/12 8/9/9 7/8/8
f 133/13/13 12/14/14 35/10/10
f 12/14/14 9/11/11 35/10/10
f 12/14/14 13/15/15 9/11/11
f 13/15/15 10/12/12 9/11/11
f 134/16/16 15/17/17 133/13/13
f 15/17/17 12/14/14 133/13/13
f 15/17/17 16/18/18 12/14/14
f 16/18/18 13/15/15 12/14/14
f 135/19/19 18/20/20 134/16/16
f 18/20/20 15/17/17 134/16/16
f 18/20/20 19/21/21 15/17/17
f 19/21/21 16/18/18 15/17/17
f 20/22/22 16/18/18 19/21/21
f 19/21/21 21/23/23 20/22/22
f 22/24/24 157/25/25 24/26/26
f 157/25/25 33/27/27 24/26/26
f 25/28/28 34/29/29 22/24/24
f 34/29/29 157/25/25 22/24/24
f 137/30/30 34/29/29 25/28/28
f 27/31/31 136/32/32 25/28/28
f 136/32/32 137/30/30 25/28/28
f 29/33/33 138/34/34 27/31/31
f 138/34/34 136/32/32 27/31/31
f 139/35/35 138/34/34 29/33/33
f 23/36/36 154/37/37 158/38/38
f 154/37/37 2/39/39 158/38/38
f 159/40/40 6/41/41 23/36/36
f 6/41/41 154/37/37 23/36/36
f 26/42/42 156/43/43 159/40/40
f 156/43/43 6/41/41 159/40/40
f 28/44/44 11/45/45 26/42/42
f 11/45/45 156/43/43 26/42/42
f 30/46/46 14/47/47 28/44/44
f 14/47/47 11/45/45 28/44/44
f 31/48/48 17/49/49 30/46/46
f 17/49/49 14/47/47 30/46/46
f 36/50/50 65/51/51 67/52/52
f 37/53/53 36/50/50 67/52/52
f 38/54/54 36/50/50 37/53/53
f 39/55/55 38/54/54 37/53/53
f 40/56/56 141/57/57 65/51/51
f 36/50/50 40/56/56 65/51/51
f 42/58/58 40/56/56 36/50/50
f 38/54/54 42/58/58 36/50/50
f 43/59/59 140/60/60 141/57/57
f 40/56/56 43/59/59 141/57/57
f 45/61/61 43/59/59 40/56/56
f 42/58/58 45/61/61 40/56/56
f 46/62/62 142/63/63 140/60/60
f 43/59/59 46/62/62 140/60/60
f 48/64/64 46/62/62 43/59/59
f 45/61/61 48/64/64 43/59/59
f 49/65/65 143/66/66 142/63/63
f 46/62/62 49/65/65 142/63/63
f 51/67/67 49/65/65 46/62/62
f 48/64/64 51/67/67 46/62/62
f 52/68/68 144/69/69 143/66/66
f 49/65/65 52/68/68 143/66/66
f 54/70/70 52/68/68 49/65/65
f 51/67/67 54/70/70 49/65/65
f 51/67/67 55/71/71 54/70/70
f 56/72/72 54/70/70 55/71/71
f 145/73/73 58/74/74 59/75/75
f 66/76/76 145/73/73 59/75/75
f 146/77/77 61/78/78 58/74/74
f 145/73/73 146/77/77 58/74/74
f 146/77/77 152/79/79 61/78/78
f 151/80/80 62/81/81 61/78/78
f 152/79/79 151/80/80 61/78/78
f 153/82/82 63/83/83 62/81/81
f 151/80/80 153/82/82 62/81/81
f 153/82/82 147/84/84 63/83/83
f 150/85/85 57/86/86 148/87/87
f 149/88/88 150/85/85 148/87/87
f 41/89/89 60/90/90 57/86/86
f 150/85/85 41/89/89 57/86/86
f 44/91/91 68/92/92 60/90/90
f 41/89/89 44/91/91 60/90/90
f 47/93/93 69/94/94 68/92/92
f 44/91/91 47/93/93 68/92/92
f 50/95/95 70/96/96 69/94/94
f 47/93/93 50/95/95 69/94/94
f 53/97/97 64/98/98 70/96/96
f 50/95/95 53/97/97 70/96/96
usemtl boot_ok.5
f 71/99/99 192/100/100 104/101/101
f 71/99/99 105/102/102 192/100/100
f 71/99/99 161/103/103 105/102/102
f 71/99/99 160/104/104 161/103/103
f 71/99/99 162/105/105 160/104/104
f 71/99/99 106/106/106 162/105/105
f 71/99/99 164/107/107 106/106/106
f 71/99/99 163/108/108 164/107/107
f 71/99/99 196/109/109 163/108/108
f 71/99/99 166/110/101 196/109/109
f 71/99/99 165/111/110 166/110/101
f 71/99/99 167/112/102 165/111/110
f 71/99/99 168/113/103 167/112/102
f 71/99/99 169/114/111 168/113/103
f 71/99/99 170/115/105 169/114/111
f 71/99/99 113/116/112 170/115/105
f 71/99/99 115/117/107 113/116/112
f 71/99/99 172/118/113 115/117/107
f 71/99/99 171/119/114 172/118/113
f 71/99/99 104/101/101 171/119/114
f 181/120/115 86/121/116 118/122/117
f 181/120/115 118/122/117 182/123/118
f 173/124/119 88/125/120 86/121/116
f 173/124/119 86/121/116 181/120/115
f 174/126/121 119/127/122 88/125/120
f 174/126/121 88/125/120 173/124/119
f 175/128/123 120/129/124 119/127/122
f 175/128/123 119/127/122 174/126/121
f 176/130/125 92/131/126 120/129/124
f 176/130/125 120/129/124 175/128/123
f 107/132/127 121/133/128 92/131/126
f 107/132/127 92/131/126 176/130/125
f 183/134/129 93/135/130 121/133/128
f 183/134/129 121/133/128 107/132/127
f 177/136/131 95/137/132 93/135/130
f 177/136/131 93/135/130 183/134/129
f 178/138/133 122/139/134 95/137/132
f 178/138/133 95/137/132 177/136/131
f 186/140/135 123/141/136 122/139/134
f 186/140/135 122/139/134 178/138/133
f 185/142/137 124/143/138 123/141/136
f 185/142/137 123/141/136 186/140/135
f 197/144/139 125/145/140 124/143/138
f 197/144/139 124/143/138 185/142/137
f 198/146/141 126/147/142 125/145/140
f 198/146/141 125/145/140 197/144/139
f 179/148/143 99/149/144 126/147/142
f 179/148/143 126/147/142 198/146/141
f 180/150/145 127/151/146 99/149/144
f 180/150/145 99/149/144 179/148/143
f 114/152/147 128/153/148 127/151/146
f 114/152/147 127/151/146 180/150/145
f 116/154/149 129/155/150 128/153/148
f 116/154/149 128/153/148 114/152/147
f 191/156/151 130/157/152 129/155/150
f 191/156/151 129/155/150 116/154/149
f 199/158/153 131/159/154 130/157/152
f 199/158/153 130/157/152 191/156/151
f 182/123/118 118/122/117 131/159/154
f 182/123/118 131/159/154 199/158/153
f 72/160/155 102/161/156 103/162/157
f 72/160/155 103/162/157 193/163/158
f 194/164/159 87/165/160 102/161/156
f 194/164/159 102/161/156 72/160/155
f 73/166/161 89/167/162 87/165/160
f 73/166/161 87/165/160 194/164/159
f 74/168/163 90/169/164 89/167/162
f 74/168/163 89/167/162 73/166/161
f 75/170/165 91/171/166 90/169/164
f 75/170/165 90/169/164 74/168/163
f 195/172/167 184/173/168 91/171/166
f 195/172/167 91/171/166 75/170/165
f 76/174/169 108/175/170 184/173/168
f 76/174/169 184/173/168 195/172/167
f 77/176/171 94/177/172 108/175/170
f 77/176/171 108/175/170 76/174/169
f 109/178/173 96/179/174 94/177/172
f 109/178/173 94/177/172 77/176/171
f 78/180/175 110/181/176 96/179/174
f 78/180/175 96/179/174 109/178/173
f 79/182/177 111/183/178 110/181/176
f 79/182/177 110/181/176 78/180/175
f 80/184/179 97/185/180 111/183/178
f 80/184/179 111/183/178 79/182/177
f 81/186/181 112/187/181 97/185/180
f 81/186/181 97/185/180 80/184/179
f 82/188/182 98/189/183 112/187/181
f 82/188/182 112/187/181 81/186/181
f 83/190/184 100/191/185 98/189/183
f 83/190/184 98/189/183 82/188/182
f 189/192/186 188/193/187 100/191/185
f 189/192/186 100/191/185 83/190/184
f 190/194/188 187/195/189 188/193/187
f 190/194/188 188/193/187 189/192/186
f 84/196/190 117/197/191 187/195/189
f 84/196/190 187/195/189 190/194/188
f 85/198/192 101/199/193 117/197/191
f 85/198/192 117/197/191 84/196/190
f 193/163/158 103/162/157 101/199/193
f 193/163/158 101/199/193 85/198/192
