# Blender v2.93.18 OBJ File: 'Dodge D800 9.blend'
# www.blender.org
o dash_gauges_piece_17.001
v -24.554306 28.157532 -56.665184
v -23.997864 25.240112 -54.707779
v -24.690958 27.934822 -56.515755
v -23.997868 28.619606 -56.975197
v -23.296711 28.916283 -57.174248
v -24.911562 26.284439 -55.408463
v -25.034662 26.929855 -55.841492
v -24.911562 27.575272 -56.274536
v -24.676311 25.901031 -55.151230
v -24.554302 25.702187 -55.017815
v -20.127390 26.284439 -55.408463
v -20.004284 26.929855 -55.841492
v -20.484642 28.157532 -56.665184
v -20.127390 27.575287 -56.274536
v -21.041080 25.240112 -54.707779
v -20.484642 25.702187 -55.017815
v -21.041080 28.619606 -56.975197
v -21.742237 28.916283 -57.174248
v -21.742237 24.943443 -54.508743
v -22.519474 29.018501 -57.242844
v -22.519472 24.841919 -54.439125
v -23.296707 24.943443 -54.508743
v -26.679052 29.335876 -56.785957
v -26.326187 29.289421 -56.754875
v -26.679049 27.437843 -55.515877
v -26.326187 27.484291 -55.546959
v -27.031908 27.484291 -55.546974
v -27.031910 29.289421 -56.754875
v -27.350227 27.619095 -55.637161
v -27.350233 29.154625 -56.664673
v -27.602856 28.944679 -56.524178
v -27.765045 28.680115 -56.347168
v -27.820932 28.386864 -56.150925
v -27.602852 27.829041 -55.777657
v -27.765045 28.093597 -55.954681
v -26.007868 29.154625 -56.664673
v -25.755243 28.944679 -56.524178
v -25.593054 28.093597 -55.954681
v -25.593054 28.680115 -56.347168
v -25.755243 27.829048 -55.777657
v -26.007868 27.619095 -55.637161
v -25.537163 28.386864 -56.150925
v -29.631109 29.335876 -56.785980
v -29.278250 29.289421 -56.754898
v -29.631109 27.437843 -55.515892
v -29.278250 27.484291 -55.546974
v -29.983969 27.484291 -55.546997
v -29.983971 29.289421 -56.754898
v -30.302290 27.619095 -55.637177
v -30.302294 29.154625 -56.664696
v -30.554914 28.944679 -56.524200
v -30.717106 28.680115 -56.347191
v -30.772995 28.386864 -56.150948
v -30.554914 27.829041 -55.777672
v -30.717106 28.093597 -55.954704
v -28.959927 29.154625 -56.664696
v -28.707304 28.944679 -56.524200
v -28.545115 28.093597 -55.954681
v -28.545115 28.680115 -56.347168
v -28.707304 27.829048 -55.777672
v -28.959927 27.619095 -55.637177
v -28.489225 28.386864 -56.150925
v -29.631109 26.681511 -55.659401
v -29.278250 26.635048 -55.628319
v -29.631109 24.783470 -54.389313
v -29.278250 24.829926 -54.420403
v -29.983969 24.829926 -54.420403
v -29.983971 26.635048 -55.628319
v -30.302290 24.964729 -54.510597
v -30.302294 26.500252 -55.538116
v -30.554914 26.290306 -55.397644
v -30.717106 26.025742 -55.220612
v -30.772995 25.732483 -55.024368
v -30.554914 25.174667 -54.651100
v -30.717106 25.439224 -54.828125
v -28.959927 26.500252 -55.538116
v -28.707304 26.290306 -55.397644
v -28.545115 25.439224 -54.828110
v -28.545115 26.025742 -55.220596
v -28.707304 25.174675 -54.651100
v -28.959927 24.964729 -54.510597
v -28.489225 25.732483 -55.024353
v -26.679052 26.681511 -55.659386
v -26.326187 26.635048 -55.628304
v -26.679049 24.783470 -54.389297
v -26.326187 24.829926 -54.420380
v -27.031908 24.829926 -54.420380
v -27.031910 26.635048 -55.628304
v -27.350227 24.964729 -54.510582
v -27.350233 26.500252 -55.538101
v -27.602856 26.290306 -55.397621
v -27.765045 26.025742 -55.220596
v -27.820932 25.732483 -55.024353
v -27.602852 25.174667 -54.651077
v -27.765045 25.439224 -54.828110
v -26.007868 26.500252 -55.538101
v -25.755243 26.290306 -55.397621
v -25.593054 25.439224 -54.828110
v -25.593054 26.025742 -55.220596
v -25.755243 25.174675 -54.651077
v -26.007868 24.964729 -54.510582
v -25.537163 25.732483 -55.024353
v -28.363892 27.507217 -55.296600
v -28.448545 27.429283 -55.263512
v -28.502895 27.331093 -55.221848
v -28.521626 27.222244 -55.175652
v -28.502895 27.113403 -55.129456
v -28.448545 27.015221 -55.087791
v -28.363892 26.937279 -55.054703
v -28.138979 27.574478 -55.325157
v -28.257223 27.557243 -55.317833
v -28.020735 27.557243 -55.317833
v -27.914066 27.507217 -55.296600
v -28.020735 26.887260 -55.033470
v -27.914066 26.937279 -55.054703
v -28.257221 26.887260 -55.033470
v -28.138979 26.870018 -55.026146
v -27.829411 27.429283 -55.263512
v -27.775061 27.331093 -55.221848
v -27.756332 27.222244 -55.175652
v -27.775061 27.113403 -55.129456
v -27.829411 27.015221 -55.087791
v -32.241970 27.777184 -54.692696
v -32.398376 28.100174 -54.767860
v -32.188072 27.436172 -54.569298
v -32.241966 27.110497 -54.409737
v -32.398373 26.832054 -54.229637
v -32.641991 28.373505 -54.787430
v -32.642017 26.628059 -54.046692
v -32.948959 28.570435 -54.749474
v -33.289356 26.514099 -53.742325
v -32.949032 26.518494 -53.878799
v -33.289238 28.671677 -54.657715
v -33.936672 26.812218 -53.612785
v -33.629673 26.615311 -53.650665
v -33.629547 28.667305 -54.521225
v -33.936562 28.557747 -54.353333
v -34.180244 28.353714 -54.170479
v -34.180309 27.085518 -53.632408
v -34.336750 27.408478 -53.707649
v -34.336716 28.075203 -53.990532
v -34.390644 27.749489 -53.831047
v -26.662716 29.390190 -56.589149
v -26.309853 29.343735 -56.558060
v -27.015577 29.343735 -56.558060
v -27.333897 29.208939 -56.467865
v -27.586519 28.998993 -56.327370
v -27.748709 28.734428 -56.150352
v -25.991531 29.208939 -56.467865
v -25.738911 28.998993 -56.327370
v -25.576717 28.734428 -56.150352
v -29.614777 29.390190 -56.589149
v -29.261913 29.343735 -56.558060
v -29.967638 29.343735 -56.558060
v -30.285959 29.208939 -56.467865
v -30.538580 28.998993 -56.327370
v -30.700769 28.734428 -56.150352
v -28.943594 29.208939 -56.467865
v -28.690971 28.998993 -56.327370
v -28.528778 28.734428 -56.150352
v -29.614777 26.735817 -55.462570
v -29.261913 26.689362 -55.431488
v -29.967638 26.689362 -55.431488
v -30.285959 26.554565 -55.341286
v -30.538580 26.344627 -55.200798
v -30.700769 26.080055 -55.023781
v -28.943594 26.554565 -55.341286
v -28.690971 26.344627 -55.200798
v -28.528778 26.080055 -55.023781
v -26.662716 26.735817 -55.462570
v -26.309853 26.689362 -55.431488
v -27.015577 26.689362 -55.431488
v -27.333897 26.554565 -55.341286
v -27.586519 26.344627 -55.200798
v -27.748709 26.080055 -55.023781
v -25.991531 26.554565 -55.341286
v -25.738911 26.344627 -55.200798
v -25.576717 26.080055 -55.023781
v -27.497728 28.626472 -56.078087
v -27.768618 28.629982 -56.080452
v -27.730944 28.629578 -56.080162
v -25.666250 28.607521 -56.065407
v -26.942015 28.620605 -56.074173
v -25.585438 28.606438 -56.064674
v -25.552204 28.605804 -56.064262
v -25.622202 28.606522 -56.064743
v -28.579649 28.563301 -56.035812
v -28.495970 28.562271 -56.035141
v -29.929075 28.580566 -56.047386
v -30.728329 28.589821 -56.053574
v -30.513937 28.587738 -56.052170
v -28.520388 28.562668 -56.035393
v -30.698416 28.590164 -56.053787
v -28.547462 28.562813 -56.035484
v -28.540642 25.897308 -54.901474
v -30.703096 25.923805 -54.919205
v -29.939344 25.914444 -54.912941
v -28.515976 25.897003 -54.901268
v -30.533207 25.921722 -54.917809
v -28.493841 25.896729 -54.901093
v -30.730486 25.924141 -54.919441
v -28.569809 25.897659 -54.901711
v -27.728390 25.981728 -54.957962
v -25.602144 25.994797 -54.966705
v -27.767502 25.981438 -54.957779
v -25.560429 25.994583 -54.966576
v -27.479750 25.982948 -54.958786
v -25.701925 25.993950 -54.966141
v -26.924282 25.986511 -54.961174
v -25.647863 25.994003 -54.966179
vt 0.982626 0.748771
vt 0.554606 0.846678
vt 0.562309 0.623786
vt 0.303716 0.801946
vt 0.516968 0.870124
vt 0.436330 0.982960
vt 0.047274 0.805139
vt 0.256878 0.876362
vt 0.175154 0.986463
vt 0.168146 0.503433
vt 0.248370 0.616260
vt 0.166290 0.727735
vt 0.307132 0.537685
vt 0.526387 0.600072
vt 0.447992 0.717557
vt 0.263066 0.693566
vt 0.301161 0.719877
vt 0.288011 0.764385
vt 0.132308 0.433326
vt 0.030694 0.400350
vt 0.132047 0.259853
vt 0.615291 0.923552
vt 0.566296 0.871447
vt 0.535735 0.806691
vt 0.526598 0.735622
vt 0.539781 0.665197
vt 0.573994 0.602309
vt 0.625886 0.553113
vt 0.690379 0.522426
vt 0.761159 0.513254
vt 0.831299 0.526490
vt 0.893932 0.560841
vt 0.942928 0.612946
vt 0.973489 0.677702
vt 0.969443 0.819197
vt 0.935230 0.882085
vt 0.883338 0.931281
vt 0.818845 0.961967
vt 0.748064 0.971141
vt 0.677925 0.957904
vt 0.400006 0.988959
vt 0.363615 0.983391
vt 0.330717 0.966806
vt 0.304533 0.940825
vt 0.287628 0.907992
vt 0.281654 0.871520
vt 0.287199 0.834979
vt 0.329592 0.775657
vt 0.362292 0.758683
vt 0.398616 0.752684
vt 0.435007 0.758251
vt 0.467905 0.774837
vt 0.494089 0.800818
vt 0.510994 0.833651
vt 0.511423 0.906664
vt 0.494905 0.939696
vt 0.469029 0.965985
vt 0.139138 0.991743
vt 0.103261 0.985586
vt 0.071034 0.968600
vt 0.045612 0.942447
vt 0.029483 0.909684
vt 0.024227 0.873523
vt 0.030357 0.837498
vt 0.073322 0.779614
vt 0.105951 0.763420
vt 0.141966 0.758140
vt 0.177844 0.764297
vt 0.210071 0.781283
vt 0.235493 0.807437
vt 0.251621 0.840198
vt 0.250748 0.912385
vt 0.233831 0.944744
vt 0.207783 0.970269
vt 0.129950 0.733205
vt 0.093706 0.727130
vt 0.061105 0.710106
vt 0.035339 0.683803
vt 0.018929 0.650791
vt 0.013482 0.614302
vt 0.019532 0.577910
vt 0.036486 0.545175
vt 0.062685 0.519305
vt 0.095563 0.502828
vt 0.131902 0.497358
vt 0.200747 0.520456
vt 0.226514 0.546762
vt 0.242923 0.579772
vt 0.242320 0.652653
vt 0.225366 0.685389
vt 0.199168 0.711258
vt 0.411218 0.724855
vt 0.374000 0.720383
vt 0.339978 0.704583
vt 0.312485 0.679002
vt 0.294211 0.646140
vt 0.286943 0.609216
vt 0.291396 0.571846
vt 0.332611 0.510080
vt 0.439330 0.488904
vt 0.365339 0.491730
vt 0.402111 0.484433
vt 0.473351 0.504705
vt 0.500846 0.530288
vt 0.519120 0.563149
vt 0.521934 0.637443
vt 0.506199 0.671604
vt 0.480719 0.699208
vt 0.241789 0.765582
vt 0.232867 0.757071
vt 0.226373 0.721814
vt 0.227000 0.746213
vt 0.224762 0.734062
vt 0.231675 0.710664
vt 0.240149 0.701704
vt 0.250966 0.695814
vt 0.275266 0.695183
vt 0.286371 0.700507
vt 0.295293 0.709017
vt 0.303398 0.732026
vt 0.301787 0.744276
vt 0.296485 0.755425
vt 0.277194 0.770276
vt 0.265094 0.772523
vt 0.252894 0.770905
vt 0.194947 0.346494
vt 0.190543 0.374684
vt 0.177678 0.400127
vt 0.157612 0.420334
vt 0.104243 0.437832
vt 0.076164 0.433411
vt 0.050822 0.420496
vt 0.017752 0.374946
vt 0.030532 0.293136
vt 0.013264 0.346769
vt 0.017667 0.318580
vt 0.050598 0.272930
vt 0.075903 0.259938
vt 0.103968 0.255431
vt 0.157390 0.272768
vt 0.177517 0.292915
vt 0.190458 0.318319
vt 0.432903 0.983560
vt 0.396125 0.988868
vt 0.359520 0.982549
vt 0.326672 0.965226
vt 0.300796 0.938592
vt 0.284424 0.905254
vt 0.286467 0.892157
vt 0.492914 0.941236
vt 0.505782 0.892291
vt 0.509605 0.892332
vt 0.466254 0.967147
vt 0.501199 0.892353
vt 0.310723 0.892103
vt 0.174688 0.990430
vt 0.137500 0.995701
vt 0.100517 0.989221
vt 0.067359 0.971626
vt 0.041271 0.944639
vt 0.024808 0.910900
vt 0.025373 0.892655
vt 0.235453 0.947804
vt 0.251497 0.892880
vt 0.254343 0.892909
vt 0.208440 0.973926
vt 0.248113 0.892887
vt 0.044767 0.892665
vt 0.165766 0.727584
vt 0.128737 0.732810
vt 0.091919 0.726336
vt 0.058916 0.708797
vt 0.032958 0.681912
vt 0.016587 0.648310
vt 0.016698 0.628628
vt 0.226293 0.685181
vt 0.243039 0.629117
vt 0.245620 0.629122
vt 0.199382 0.711172
vt 0.239986 0.629110
vt 0.034480 0.628666
vt 0.443192 0.718616
vt 0.405802 0.724717
vt 0.368372 0.718964
vt 0.334567 0.701922
vt 0.307695 0.675260
vt 0.290386 0.641585
vt 0.292498 0.629028
vt 0.503574 0.674349
vt 0.513076 0.629568
vt 0.517924 0.629647
vt 0.476882 0.701260
vt 0.507345 0.629589
vt 0.318859 0.629061
vt 0.368519 0.892164
vt 0.510272 0.908363
vt 0.106251 0.892760
vt 0.253083 0.914621
vt 0.243865 0.652152
vt 0.096638 0.628801
vt 0.377750 0.629242
vt 0.520656 0.640514
vt 0.282549 0.892155
vt 0.022230 0.892562
vt 0.013831 0.628622
vt 0.288351 0.629011
vt 0.513061 0.892301
vt 0.256910 0.892901
vt 0.247937 0.629127
vt 0.522346 0.629599
vn 0.0000 0.5571 0.8304
vn 0.0000 0.5561 0.8311
vn 0.0000 0.3907 0.9205
vn -0.0001 0.3907 0.9205
vn 0.3422 0.3669 0.8650
vn 0.3421 0.3669 0.8650
vn 0.3421 0.3670 0.8650
vn -0.0001 0.5572 0.8304
vn 0.0000 0.5572 0.8304
vn -0.0018 0.5553 0.8316
vn 0.0007 0.5590 0.8292
vn 0.0002 0.5576 0.8301
vn 0.0000 0.5560 0.8311
vn -0.0002 0.5562 0.8310
vn 0.0000 0.5561 0.8310
vn 0.0001 0.5563 0.8310
vn 0.0000 0.5562 0.8310
vn -0.0001 0.5561 0.8311
vn 0.0002 0.5561 0.8310
vn -0.0002 0.5561 0.8310
vn 0.0002 0.5563 0.8310
vn 0.0000 0.5563 0.8310
vn 0.0000 0.5560 0.8312
vn 0.0001 0.5561 0.8311
vn -0.0001 0.5563 0.8310
vn 0.0001 0.5562 0.8310
vn -0.0002 0.5561 0.8311
vn -0.0001 0.5562 0.8310
vn 0.0002 0.5561 0.8311
vn 0.0001 0.3907 0.9205
vn 0.0001 0.3906 0.9205
vn -0.0001 0.3906 0.9206
vn 0.0000 0.3908 0.9205
vn 0.0001 0.3906 0.9206
vn 0.0003 0.3907 0.9205
vn -0.0001 0.3906 0.9205
vn -0.0002 0.3905 0.9206
vn 0.0002 0.3905 0.9206
vn 0.3423 0.3670 0.8649
vn 0.3423 0.3671 0.8649
vn 0.3424 0.3671 0.8649
vn 0.3424 0.3671 0.8648
vn 0.3423 0.3665 0.8651
vn 0.3423 0.3666 0.8651
vn 0.3416 0.3671 0.8652
vn 0.3420 0.3670 0.8650
vn 0.3416 0.3670 0.8652
vn 0.3417 0.3670 0.8651
vn 0.3422 0.3672 0.8649
vn 0.3419 0.3673 0.8650
vn 0.3420 0.3673 0.8650
vn 0.3424 0.3670 0.8649
vn -0.0004 0.5563 0.8310
vn -0.0003 0.5562 0.8310
vn 0.0001 0.5561 0.8310
vn 0.0003 0.5562 0.8310
vn -0.0004 0.5562 0.8310
vn 0.0003 0.5563 0.8310
vn -0.0006 0.5562 0.8310
vn 0.0004 0.5563 0.8310
vn 0.0004 0.5562 0.8310
s 1
f 12/1/1 3/2/1 9/3/1
f 34/4/2 42/5/2 24/6/2
f 54/7/2 62/8/2 44/9/2
f 66/10/2 82/11/2 64/12/2
f 94/13/2 102/14/2 84/15/2
f 117/16/3 121/17/3 113/18/4
f 130/19/5 138/20/6 132/21/7
f 4/22/1 1/23/1 3/2/1
f 3/2/1 8/24/8 7/25/1
f 7/25/1 6/26/1 9/3/1
f 9/3/1 10/27/1 2/28/9
f 2/28/9 22/29/10 9/3/1
f 22/29/10 21/30/11 9/3/1
f 21/30/11 19/31/12 9/3/1
f 19/31/12 15/32/1 9/3/1
f 15/32/1 16/33/1 9/3/1
f 16/33/1 11/34/1 9/3/1
f 11/34/1 12/1/1 9/3/1
f 12/1/1 14/35/1 3/2/1
f 14/35/1 13/36/1 3/2/1
f 13/36/1 17/37/1 3/2/1
f 17/37/1 18/38/1 3/2/1
f 18/38/1 20/39/1 3/2/1
f 20/39/1 5/40/1 3/2/1
f 5/40/1 4/22/1 3/2/1
f 3/2/1 7/25/1 9/3/1
f 24/6/2 23/41/13 28/42/2
f 28/42/2 30/43/2 24/6/2
f 30/43/2 31/44/2 24/6/2
f 31/44/2 32/45/14 33/46/2
f 33/46/2 35/47/15 34/4/2
f 34/4/2 29/48/16 27/49/2
f 27/49/2 25/50/17 26/51/2
f 26/51/2 41/52/2 42/5/2
f 41/52/2 40/53/2 42/5/2
f 40/53/2 38/54/18 42/5/2
f 42/5/2 39/55/19 37/56/2
f 37/56/2 36/57/2 42/5/2
f 36/57/2 24/6/2 42/5/2
f 31/44/2 33/46/2 24/6/2
f 33/46/2 34/4/2 24/6/2
f 34/4/2 27/49/2 42/5/2
f 27/49/2 26/51/2 42/5/2
f 44/9/2 43/58/13 48/59/2
f 48/59/2 50/60/2 44/9/2
f 50/60/2 51/61/2 44/9/2
f 51/61/2 52/62/20 53/63/18
f 53/63/18 55/64/2 51/61/2
f 55/64/2 54/7/2 51/61/2
f 54/7/2 49/65/21 47/66/2
f 47/66/2 45/67/22 46/68/2
f 46/68/2 61/69/2 62/8/2
f 61/69/2 60/70/2 62/8/2
f 60/70/2 58/71/18 62/8/2
f 62/8/2 59/72/15 44/9/2
f 59/72/15 57/73/2 44/9/2
f 57/73/2 56/74/17 44/9/2
f 54/7/2 47/66/2 62/8/2
f 47/66/2 46/68/2 62/8/2
f 44/9/2 51/61/2 54/7/2
f 64/12/2 63/75/23 68/76/2
f 68/76/2 70/77/13 71/78/2
f 71/78/2 72/79/18 73/80/2
f 73/80/2 75/81/24 74/82/2
f 74/82/2 69/83/17 66/10/2
f 69/83/17 67/84/2 66/10/2
f 67/84/2 65/85/17 66/10/2
f 66/10/2 81/86/25 80/87/2
f 80/87/2 78/88/20 82/11/2
f 82/11/2 79/89/2 64/12/2
f 79/89/2 77/90/26 64/12/2
f 77/90/26 76/91/13 64/12/2
f 64/12/2 68/76/2 71/78/2
f 71/78/2 73/80/2 64/12/2
f 73/80/2 74/82/2 64/12/2
f 66/10/2 80/87/2 82/11/2
f 74/82/2 66/10/2 64/12/2
f 84/15/2 83/92/13 88/93/2
f 88/93/2 90/94/2 84/15/2
f 90/94/2 91/95/2 84/15/2
f 91/95/2 92/96/27 93/97/2
f 93/97/2 95/98/2 94/13/2
f 94/13/2 89/99/17 86/100/2
f 89/99/17 87/101/2 86/100/2
f 87/101/2 85/102/2 86/100/2
f 86/100/2 101/103/28 100/104/2
f 100/104/2 98/105/2 102/14/2
f 102/14/2 99/106/29 97/107/24
f 97/107/24 96/108/2 102/14/2
f 96/108/2 84/15/2 102/14/2
f 91/95/2 93/97/2 84/15/2
f 93/97/2 94/13/2 84/15/2
f 86/100/2 100/104/2 94/13/2
f 100/104/2 102/14/2 94/13/2
f 103/109/30 104/110/31 107/111/3
f 104/110/31 105/112/4 107/111/3
f 105/112/4 106/113/3 107/111/3
f 107/111/3 108/114/32 117/16/3
f 108/114/32 109/115/33 117/16/3
f 109/115/33 116/116/4 117/16/3
f 117/16/3 114/117/30 115/118/3
f 115/118/3 122/119/34 117/16/3
f 122/119/34 121/17/3 117/16/3
f 121/17/3 120/120/3 119/121/35
f 119/121/35 118/122/36 121/17/3
f 118/122/36 113/18/4 121/17/3
f 113/18/4 112/123/37 110/124/3
f 110/124/3 111/125/38 103/109/30
f 113/18/4 110/124/3 117/16/3
f 110/124/3 103/109/30 117/16/3
f 103/109/30 107/111/3 117/16/3
f 125/126/39 123/127/40 124/128/41
f 124/128/41 128/129/42 130/19/5
f 130/19/5 133/130/43 138/20/6
f 133/130/43 136/131/44 138/20/6
f 136/131/44 137/132/43 138/20/6
f 138/20/6 141/133/45 139/134/46
f 141/133/45 142/135/47 139/134/46
f 142/135/47 140/136/48 139/134/46
f 139/134/46 134/137/49 135/138/7
f 135/138/7 131/139/7 132/21/7
f 132/21/7 129/140/50 125/126/39
f 129/140/50 127/141/51 125/126/39
f 127/141/51 126/142/52 125/126/39
f 125/126/39 124/128/41 130/19/5
f 139/134/46 135/138/7 138/20/6
f 135/138/7 132/21/7 138/20/6
f 125/126/39 130/19/5 132/21/7
f 144/143/2 143/144/17 145/145/2
f 145/145/2 146/146/2 144/143/2
f 146/146/2 147/147/15 144/143/2
f 148/148/53 181/149/14 147/147/15
f 150/150/18 186/151/2 184/152/26
f 149/153/2 182/154/26 186/151/2
f 147/147/15 179/155/2 144/143/2
f 153/156/2 152/157/17 154/158/2
f 154/158/2 155/159/15 153/156/2
f 155/159/15 156/160/15 153/156/2
f 157/161/53 193/162/54 156/160/15
f 159/163/15 194/164/55 192/165/56
f 158/166/2 187/167/18 194/164/55
f 156/160/15 191/168/2 153/156/2
f 162/169/2 161/170/2 163/171/2
f 163/171/2 164/172/15 162/169/2
f 164/172/15 165/173/2 162/169/2
f 166/174/14 196/175/54 165/173/2
f 168/176/2 195/177/15 198/178/17
f 167/179/2 202/180/2 195/177/15
f 165/173/2 199/181/2 162/169/2
f 171/182/2 170/183/2 172/184/2
f 172/184/2 173/185/15 171/182/2
f 173/185/15 174/186/2 171/182/2
f 175/187/57 203/188/28 174/186/2
f 177/189/2 210/190/18 204/191/19
f 176/192/2 208/193/2 210/190/18
f 174/186/2 207/194/2 171/182/2
f 183/195/2 182/154/26 144/143/2
f 184/152/26 151/196/58 150/150/18
f 179/155/2 183/195/2 144/143/2
f 191/168/2 189/197/2 153/156/2
f 192/165/56 160/198/56 159/163/15
f 189/197/2 187/167/18 153/156/2
f 198/178/17 169/199/56 168/176/2
f 199/181/2 197/200/2 162/169/2
f 197/200/2 202/180/2 162/169/2
f 207/194/2 209/201/2 171/182/2
f 209/201/2 208/193/2 171/182/2
f 204/191/19 178/202/56 177/189/2
f 148/148/53 180/203/57 181/149/14
f 150/150/18 149/153/2 186/151/2
f 149/153/2 144/143/2 182/154/26
f 147/147/15 181/149/14 179/155/2
f 157/161/53 190/204/59 193/162/54
f 159/163/15 158/166/2 194/164/55
f 158/166/2 153/156/2 187/167/18
f 156/160/15 193/162/54 191/168/2
f 166/174/14 201/205/59 196/175/54
f 168/176/2 167/179/2 195/177/15
f 167/179/2 162/169/2 202/180/2
f 165/173/2 196/175/54 199/181/2
f 175/187/57 205/206/25 203/188/28
f 177/189/2 176/192/2 210/190/18
f 176/192/2 171/182/2 208/193/2
f 174/186/2 203/188/28 207/194/2
f 184/152/26 185/207/60 151/196/58
f 192/165/56 188/208/61 160/198/56
f 198/178/17 200/209/17 169/199/56
f 204/191/19 206/210/61 178/202/56
