# Blender v2.93.18 OBJ File: ''
# www.blender.org
o Floor_american\A14_T30\normal\l\Hull.pri~11~7.2597
v -21.905468 -24.881857 -104.484039
v -32.921192 -19.153486 110.354103
v -22.307043 -23.700720 111.452538
v -32.921192 -19.153522 -115.247795
v -28.102306 -21.657455 -110.539146
v -32.097317 -17.366236 110.311691
v -32.013569 -17.406763 -115.247795
v -27.068687 -19.595488 119.676857
v -27.842463 -21.405449 119.661179
v -21.905468 -24.881823 100.003746
v 21.905468 -24.881823 100.003746
v 0.000000 -24.881823 107.090340
v -17.909412 -24.881823 106.688766
v 17.909412 -24.881823 106.688766
v 32.921192 -19.153486 110.354103
v 32.921192 -19.153522 -115.247795
v 21.905468 -24.881857 -104.535217
v 22.307043 -23.700720 111.452538
v 32.097317 -17.366236 110.311691
v 32.013569 -17.406763 -115.247795
v 27.068687 -19.595488 119.676857
v 27.842463 -21.405449 119.661179
vt 0.070100 0.479000
vt 0.542800 0.479000
vt 0.542800 0.479000
vt 0.070100 0.479000
vt 0.050600 0.467400
vt 0.050600 0.467400
vt 0.070100 0.479000
vt 0.050600 0.467400
vt 0.050600 0.467400
vt 0.070100 0.479000
vt 0.000000 0.000000
vt 0.542800 0.479000
vt 0.542800 0.479000
vt 0.000000 0.000000
vt 0.000000 0.000000
vt 0.000000 0.000000
vt 0.000000 0.000000
vt 0.067800 0.454800
vt 0.000000 0.000000
vt 0.077700 0.366000
vt 0.091700 0.448500
vt 0.067800 0.454800
vt 0.091800 0.357600
vt 0.077700 0.403100
vt 0.077700 0.440100
vt 0.000000 0.000000
vt 0.519800 0.453600
vt 0.532900 0.467900
vt 0.000000 0.000000
vt 0.000000 0.000000
vt 0.000000 0.000000
vt 0.000000 0.000000
vn 0.7078 0.6596 -0.2528
vn 0.6895 0.6013 0.4038
vn 0.3400 -0.5453 0.7662
vn 0.8769 -0.4447 -0.1827
vn 0.5063 0.6058 -0.6137
vn 0.1698 -0.7205 -0.6724
vn -0.9039 -0.1435 -0.4028
vn -0.6932 0.3401 -0.6355
vn -0.2376 -0.7961 -0.5566
vn -0.8680 -0.4964 -0.0134
vn -0.1376 -0.2210 0.9655
vn -0.4549 0.2031 0.8671
vn 0.2374 0.9713 -0.0152
vn -0.0885 0.9146 0.3946
vn -0.1053 0.9795 0.1716
vn -0.7385 0.6637 -0.1185
vn -0.1806 0.9657 0.1866
vn 0.0497 0.9921 -0.1151
vn -0.2374 0.9713 -0.0152
vn 0.0000 0.9913 -0.1318
vn -0.0497 0.9921 -0.1151
vn -0.7939 0.5761 -0.1944
s 1
f 2/1/1 4/2/2 7/3/3 6/4/4
f 9/5/5 2/1/1 6/4/4 8/6/6
f 15/7/7 22/8/8 21/9/9 19/10/10
f 19/10/10 6/4/4 7/11/3 20/12/11
f 16/13/12 15/7/7 19/10/10 20/12/11
f 9/5/5 10/14/13 2/1/1
f 10/14/13 1/15/14 4/16/2
f 10/14/13 4/16/2 2/1/1
f 3/17/15 9/5/5 22/8/8 18/18/16
f 17/19/17 1/15/14 13/20/18 11/21/19
f 7/11/3 4/2/2 16/13/12 20/12/11
f 3/22/15 10/14/13 9/5/5
f 3/22/15 13/20/18 10/23/13
f 13/20/18 12/24/20 14/25/21
f 13/20/18 14/25/21 11/21/19
f 9/26/5 8/6/6 21/9/9 22/8/8
f 13/20/18 1/15/14 10/14/13
f 1/27/14 5/28/22 4/2/2
f 5/28/22 17/19/17 4/2/2
f 17/19/17 16/29/12 4/2/2
f 8/30/6 6/4/4 19/10/10 21/9/9
f 15/7/7 11/31/19 22/8/8
f 11/31/19 18/18/16 22/8/8
f 18/18/16 12/32/20 3/17/15
f 12/24/20 13/20/18 3/22/15
f 17/19/17 5/28/22 1/27/14
f 11/31/19 15/7/7 16/13/12
f 11/31/19 16/13/12 17/19/17
f 14/25/21 18/18/16 11/31/19
f 14/25/21 12/24/20 18/18/16
