# Blender v2.93.18 OBJ File: ''
# www.blender.org
o Turret_floor_american\A14_T30\normal\l\Turret_01.pri~11~8.271
v 0.000000 -0.318889 46.901482
v 7.334630 -0.318889 46.291245
v -7.334630 -0.318889 46.291245
v 14.488159 -0.318890 44.574715
v -14.488159 -0.318890 44.574715
v 21.287359 -0.318890 41.759754
v 27.558998 -0.318891 37.917248
v -21.287359 -0.318890 41.759754
v 33.153477 -0.318892 33.137730
v -27.558998 -0.318891 37.917248
v 37.932995 -0.318893 27.543251
v -33.153477 -0.318892 33.137730
v -37.932995 -0.318893 27.543251
v 41.775505 -0.318894 21.271610
v 44.590458 -0.318895 14.472411
v -41.775505 -0.318894 21.271610
v 46.306995 -0.318896 7.318883
v 46.885731 -0.318897 -0.015748
v -44.590458 -0.318895 14.472411
v -46.306995 -0.318896 7.318883
v -46.885731 -0.318897 -0.015748
v 46.306995 -0.318898 -7.350379
v 44.590458 -0.318899 -14.503908
v 41.775505 -0.318900 -21.299170
v -46.306995 -0.318898 -7.350379
v -44.590458 -0.318899 -14.503908
v 37.932995 -0.318902 -27.574747
v -41.775505 -0.318900 -21.299170
v 33.153477 -0.318902 -33.169224
v -37.932995 -0.318902 -27.574747
v 27.558998 -0.318903 -37.944805
v -33.153477 -0.318902 -33.169224
v -27.558998 -0.318903 -37.944805
v 21.287359 -0.318904 -41.791252
v 14.488159 -0.318904 -44.606209
v -21.287359 -0.318904 -41.791252
v 7.334630 -0.318905 -46.322739
v 0.000000 -0.318905 -46.901482
v -14.488159 -0.318904 -44.606209
v -7.334630 -0.318905 -46.322739
v 0.000000 1.649611 46.901482
v 7.334630 1.649611 46.291245
v -7.334630 1.649611 46.291245
v 14.488159 1.649550 44.574715
v -14.488159 1.649610 44.574715
v 21.287359 1.649610 41.759754
v 27.558998 1.649609 37.917248
v -21.287359 1.649610 41.759754
v 33.153477 1.649548 33.137730
v -27.558998 1.649609 37.917248
v 37.932995 1.649548 27.543251
v -33.153477 1.649608 33.137730
v -37.932995 1.649548 27.543251
v 41.775505 1.649606 21.271610
v 44.590458 1.649545 14.472411
v -41.775505 1.649547 21.271610
v 46.306995 1.649604 7.318882
v 46.885731 1.649603 -0.015748
v -44.590458 1.649605 14.472411
v -46.306995 1.649544 7.318882
v -46.885731 1.649603 -0.015748
v 46.306995 1.649602 -7.350379
v 44.590458 1.649601 -14.503908
v 41.775505 1.649600 -21.299170
v -46.306995 1.649602 -7.350379
v -44.590458 1.649601 -14.503908
v 37.932995 1.649598 -27.574747
v -41.775505 1.649600 -21.299170
v 33.153477 1.649598 -33.169224
v -37.932995 1.649539 -27.574747
v 27.558998 1.649597 -37.944805
v -33.153477 1.649598 -33.169224
v -27.558998 1.649597 -37.944805
v 21.287359 1.649596 -41.791252
v 14.488159 1.649596 -44.606209
v -21.287359 1.649536 -41.791252
v 7.334630 1.649595 -46.322739
v 0.000000 1.649595 -46.901482
v -14.488159 1.649536 -44.606209
v -7.334630 1.649595 -46.322739
vt 0.806200 0.098200
vt 0.807300 0.113100
vt 0.995400 0.083300
vt 0.810800 0.127600
vt 0.995400 0.113100
vt 0.816500 0.141400
vt 0.886500 0.004100
vt 0.901400 0.002900
vt 0.901400 0.002900
vt 0.886500 0.004100
vt 0.916300 0.004100
vt 0.916300 0.004100
vt 0.930800 0.007600
vt 0.930800 0.007600
vt 0.944600 0.013300
vt 0.944600 0.013300
vt 0.957300 0.021100
vt 0.957300 0.021100
vt 0.968700 0.030800
vt 0.968700 0.030800
vt 0.978400 0.042200
vt 0.978400 0.042200
vt 0.810800 0.068700
vt 0.816500 0.054900
vt 0.816500 0.054900
vt 0.810800 0.068700
vt 0.824400 0.042200
vt 0.824400 0.042200
vt 0.807300 0.083300
vt 0.807300 0.083300
vt 0.806200 0.098200
vt 0.986200 0.054900
vt 0.991900 0.068700
vt 0.991900 0.068700
vt 0.986200 0.054900
vt 0.995400 0.083300
vt 0.996600 0.098200
vt 0.996600 0.098200
vt 0.810800 0.127600
vt 0.807300 0.113100
vt 0.816500 0.141400
vt 0.995400 0.113100
vt 0.991900 0.127600
vt 0.991900 0.127600
vt 0.986200 0.141400
vt 0.986200 0.141400
vt 0.978400 0.154100
vt 0.978400 0.154100
vt 0.968700 0.165500
vt 0.968700 0.165500
vt 0.957300 0.175200
vt 0.957300 0.175200
vt 0.858200 0.183000
vt 0.845400 0.175200
vt 0.845400 0.175200
vt 0.858200 0.183000
vt 0.872000 0.188700
vt 0.872000 0.188700
vt 0.886500 0.192200
vt 0.886500 0.192200
vt 0.901400 0.193400
vt 0.901400 0.193400
vt 0.930800 0.188700
vt 0.916300 0.192200
vt 0.916300 0.192200
vt 0.930800 0.188700
vt 0.944600 0.183000
vt 0.944600 0.183000
vt 0.834100 0.165500
vt 0.834100 0.165500
vt 0.824400 0.154100
vt 0.824400 0.154100
vt 0.834100 0.030800
vt 0.834100 0.030800
vt 0.845400 0.021100
vt 0.845400 0.021100
vt 0.858200 0.013300
vt 0.858200 0.013300
vt 0.872000 0.007600
vt 0.872000 0.007600
vt 0.000000 0.000000
vt 0.000000 0.000000
vt 0.000000 0.000000
vt 0.000000 0.000000
vt 0.000000 0.000000
vt 0.000000 0.000000
vn -0.7219 0.6908 0.0406
vn -0.6862 0.7171 0.1221
vn 0.6890 0.7138 -0.1254
vn -0.6735 -0.7135 0.1934
vn 0.6853 -0.7194 0.1132
vn -0.6613 -0.6626 0.3516
vn -0.3949 0.6503 -0.6490
vn 0.0000 0.9732 -0.2298
vn 0.5370 -0.5584 -0.6323
vn -0.0934 -0.8083 -0.5813
vn 0.0927 0.8112 -0.5774
vn 0.2910 -0.6723 -0.6807
vn 0.2063 0.7443 -0.6352
vn 0.2965 -0.6848 -0.6656
vn 0.3090 0.7325 -0.6066
vn 0.3819 -0.6863 -0.6190
vn 0.4066 0.7222 -0.5596
vn 0.4623 -0.6874 -0.5602
vn 0.4816 0.7322 -0.4816
vn 0.5559 -0.6862 -0.4691
vn 0.5735 0.7246 -0.3822
vn 0.6003 -0.7065 -0.3747
vn -0.7097 0.6577 -0.2524
vn -0.6585 0.7011 -0.2736
vn -0.6366 -0.7066 -0.3090
vn -0.6858 -0.6741 -0.2744
vn -0.5799 0.7268 -0.3680
vn -0.5794 -0.6514 -0.4898
vn -0.7242 0.6731 -0.1497
vn -0.7341 -0.6640 -0.1421
vn -0.7514 -0.6598 0.0000
vn 0.6072 0.7238 -0.3277
vn 0.7113 0.6783 -0.1842
vn 0.6715 -0.7119 -0.2058
vn 0.6136 -0.6989 -0.3675
vn 0.6962 -0.7014 -0.1527
vn 0.7544 0.6564 0.0000
vn 0.7214 -0.6909 -0.0467
vn -0.6718 0.7145 0.1955
vn -0.6981 -0.7004 0.1488
vn -0.6153 0.7148 0.3324
vn 0.7511 0.6523 0.1014
vn 0.7167 0.6737 0.1800
vn 0.7261 -0.6542 0.2117
vn 0.6630 0.6959 0.2760
vn 0.6762 -0.6470 0.3524
vn 0.5887 0.7165 0.3743
vn 0.5888 -0.6560 0.4722
vn 0.4892 0.7219 0.4894
vn 0.4923 -0.6885 0.5326
vn 0.4005 0.7319 0.5512
vn 0.3749 -0.6861 0.6235
vn -0.2937 0.6877 0.6639
vn -0.4134 0.7110 0.5689
vn -0.4502 -0.6885 0.5687
vn -0.3158 -0.7185 0.6197
vn -0.1483 0.6846 0.7137
vn -0.2056 -0.7462 0.6332
vn 0.0302 0.6769 0.7354
vn -0.0961 -0.7893 0.6064
vn 0.3146 0.6423 0.6989
vn 0.0000 -0.8857 0.4643
vn 0.4019 0.6699 0.6243
vn 0.0462 0.9553 0.2918
vn -0.2006 -0.6426 0.7394
vn 0.1755 -0.8230 0.5402
vn 0.4109 0.6833 0.6036
vn 0.2976 -0.7553 0.5839
vn -0.4995 0.7077 0.4997
vn -0.5301 -0.6886 0.4947
vn -0.5879 0.7081 0.3910
vn -0.5860 -0.7096 0.3912
vn -0.4771 0.7427 -0.4699
vn -0.4553 -0.6799 -0.5749
vn -0.3953 0.7401 -0.5441
vn -0.3904 -0.6874 -0.6124
vn -0.2945 0.7609 -0.5782
vn -0.2338 -0.6818 -0.6932
vn -0.1938 0.7787 -0.5967
vn -0.0912 -0.6777 -0.7296
s 1
f 18/1/1 22/2/2 20/3/3
f 63/4/4 65/5/5 64/6/6
f 2/7/7 1/8/8 41/9/9 42/10/10
f 1/8/8 3/11/11 43/12/12 41/9/9
f 3/11/11 5/13/13 45/14/14 43/12/12
f 5/13/13 8/15/15 48/16/16 45/14/14
f 8/15/15 10/17/17 50/18/18 48/16/16
f 10/17/17 12/19/19 52/20/20 50/18/18
f 12/19/19 13/21/21 53/22/22 52/20/20
f 15/23/23 14/24/24 54/25/25 55/26/26
f 14/24/24 11/27/27 51/28/28 54/25/25
f 17/29/29 15/23/23 55/26/26 57/30/30
f 18/1/1 17/29/29 57/30/30 58/31/31
f 16/32/32 19/33/33 59/34/34 56/35/35
f 19/33/33 20/3/3 60/36/36 59/34/34
f 20/3/3 21/37/37 61/38/38 60/36/36
f 23/39/39 22/2/2 62/40/40 63/4/4
f 22/2/2 18/1/1 58/31/31 62/40/40
f 24/41/41 23/39/39 63/4/4 64/6/6
f 21/37/37 25/42/42 65/5/5 61/38/38
f 25/42/42 26/43/43 66/44/44 65/5/5
f 26/43/43 28/45/45 68/46/46 66/44/44
f 28/45/45 30/47/47 70/48/48 68/46/46
f 30/47/47 32/49/49 72/50/50 70/48/48
f 32/49/49 33/51/51 73/52/52 72/50/50
f 34/53/53 31/54/54 71/55/55 74/56/56
f 35/57/57 34/53/53 74/56/56 75/58/58
f 37/59/59 35/57/57 75/58/58 77/60/60
f 38/61/61 37/59/59 77/60/60 78/62/62
f 39/63/63 40/64/64 80/65/65 79/66/66
f 36/67/67 39/63/63 79/66/66 76/68/68
f 40/64/64 38/61/61 78/62/62 80/65/65
f 33/51/51 36/67/67 76/68/68 73/52/52
f 31/54/54 29/69/69 69/70/70 71/55/55
f 29/69/69 27/71/71 67/72/72 69/70/70
f 27/71/71 24/41/41 64/6/6 67/72/72
f 13/21/21 16/32/32 56/35/35 53/22/22
f 11/27/27 9/73/73 49/74/74 51/28/28
f 9/73/73 7/75/75 47/76/76 49/74/74
f 7/75/75 6/77/77 46/78/78 47/76/76
f 6/77/77 4/79/79 44/80/80 46/78/78
f 4/79/79 2/7/7 42/10/10 44/80/80
f 59/34/34 60/36/36 61/38/38
f 65/5/5 66/44/44 68/46/46
f 65/5/5 68/46/46 72/81/50
f 65/5/5 72/81/50 73/52/52
f 65/5/5 73/52/52 80/82/65
f 65/5/5 80/82/65 78/62/62
f 65/5/5 78/62/62 77/60/60
f 65/5/5 77/60/60 75/58/58
f 65/5/5 75/58/58 74/56/56
f 65/5/5 74/56/56 71/55/55
f 65/5/5 71/55/55 69/70/70
f 65/5/5 69/70/70 67/72/72
f 65/5/5 67/72/72 64/6/6
f 65/5/5 63/4/4 62/40/40
f 65/5/5 62/40/40 58/31/31
f 65/5/5 58/31/31 57/30/30
f 65/5/5 57/30/30 54/83/25
f 65/5/5 54/83/25 47/84/76
f 65/5/5 47/84/76 46/78/78
f 65/5/5 46/78/78 42/85/10
f 65/5/5 42/85/10 41/9/9
f 65/5/5 41/9/9 43/12/12
f 65/5/5 43/12/12 45/14/14
f 65/5/5 45/14/14 48/16/16
f 65/5/5 48/16/16 50/18/18
f 65/5/5 50/18/18 52/20/20
f 65/5/5 52/20/20 59/86/34
f 65/5/5 59/86/34 61/38/38
f 52/20/20 56/35/35 59/34/34
f 20/3/3 19/33/33 16/32/32
f 20/3/3 16/32/32 13/21/21
f 20/3/3 13/21/21 12/19/19
f 20/3/3 12/19/19 10/17/17
f 20/3/3 10/17/17 8/15/15
f 20/3/3 8/15/15 5/13/13
f 20/3/3 5/13/13 3/11/11
f 20/3/3 3/11/11 1/8/8
f 20/3/3 1/8/8 2/7/7
f 20/3/3 2/7/7 4/79/79
f 20/3/3 4/79/79 6/77/77
f 20/3/3 6/77/77 7/75/75
f 20/3/3 7/75/75 9/73/73
f 20/3/3 9/73/73 11/27/27
f 20/3/3 11/27/27 14/24/24
f 20/3/3 14/24/24 15/23/23
f 20/3/3 15/23/23 17/29/29
f 20/3/3 17/29/29 18/1/1
f 20/3/3 22/2/2 23/39/39
f 20/3/3 23/39/39 24/41/41
f 20/3/3 24/41/41 27/71/71
f 20/3/3 27/71/71 29/69/69
f 20/3/3 29/69/69 31/54/54
f 20/3/3 31/54/54 34/53/53
f 20/3/3 34/53/53 35/57/57
f 20/3/3 35/57/57 37/59/59
f 20/3/3 37/59/59 38/61/61
f 20/3/3 38/61/61 40/64/64
f 20/3/3 40/64/64 39/63/63
f 20/3/3 39/63/63 36/67/67
f 20/3/3 36/67/67 33/51/51
f 20/3/3 33/51/51 32/49/49
f 20/3/3 32/49/49 30/47/47
f 20/3/3 30/47/47 28/45/45
f 20/3/3 28/45/45 26/43/43
f 20/3/3 26/43/43 25/42/42
f 20/3/3 25/42/42 21/37/37
f 52/20/20 53/22/22 56/35/35
f 70/48/48 72/50/50 68/46/46
f 76/68/68 79/66/66 73/52/52
f 79/66/66 80/65/65 73/52/52
f 46/78/78 44/80/80 42/10/10
f 54/83/25 49/74/74 47/76/76
f 57/30/30 55/26/26 54/25/25
f 51/28/28 49/74/74 54/83/25
