# Blender v2.93.18 OBJ File: 'Kohler 350 new 4.blend'
# www.blender.org
mtllib Kohler g350 boot parts.mtl
o boot_parts_x0_boot.001
v 0.000000 13.088557 0.825201
v -2.097200 12.683439 0.211424
v 0.000000 12.683439 0.211424
v 2.480113 13.088557 0.825201
v 2.356058 12.751942 0.307486
v 33.217136 23.213339 3.875978
v 33.217136 22.912552 3.875978
v 32.924145 23.213339 3.875978
v 32.924145 17.410200 3.875977
v 26.573727 23.213339 3.875978
v 19.930275 23.213339 3.875978
v 13.286863 17.410200 3.875977
v 13.286863 23.213339 3.875978
v 6.643412 22.992079 3.709442
v 0.000000 23.213339 3.875978
v 6.643412 17.410200 3.875977
v -6.643412 23.213339 3.875978
v -19.930275 17.410200 3.875977
v -13.286863 23.213339 3.875978
v -19.930275 23.213339 3.875978
v -26.573727 22.942476 3.778339
v -32.924145 17.410200 3.875977
v -32.924145 23.292078 3.875978
v -33.217136 17.410200 3.875977
v -33.217136 11.606670 3.875976
v -33.217136 0.279251 3.875974
v -33.217136 -0.000001 3.875974
v -32.924145 5.803373 3.875975
v -32.924145 -0.000001 3.875974
v -32.924145 11.606670 3.875976
v -26.573727 17.410200 3.875977
v -26.573727 11.606670 3.875976
v -19.930275 11.606670 3.875976
v -6.643412 17.410200 3.875977
v -13.286863 17.410200 3.875977
v -13.286863 11.606670 3.875976
v -26.573727 5.803373 3.875975
v -26.573727 -0.000001 3.875974
v -19.930275 5.803373 3.875975
v -19.930275 -0.000001 3.875974
v -13.286863 5.803373 3.875975
v -6.643412 11.606670 3.875976
v -13.286863 -0.000001 3.875974
v -6.643412 5.803373 3.875975
v -6.643412 -0.000001 3.875974
v 0.000000 -0.000001 3.875974
v 6.643412 5.803373 3.875975
v 6.643412 -0.000001 3.875974
v 13.286863 -0.000001 3.875974
v 19.930275 -0.000001 3.875974
v 19.930275 5.803373 3.875975
v 26.573727 -0.000001 3.875974
v 33.217136 0.279251 3.875974
v 32.924145 -0.000001 3.875974
v 32.924145 5.803373 3.875975
v 33.217136 5.803373 3.875975
v 32.924145 11.606670 3.875976
v 26.573727 5.803373 3.875975
v 26.573727 17.410200 3.875977
v 26.573727 11.606670 3.875976
v 19.930275 17.410200 3.875977
v 19.930275 11.606670 3.875976
v 13.286863 11.606670 3.875976
v 13.286863 5.803373 3.875975
v 6.643412 11.606670 3.875976
v 0.000000 5.803373 3.875975
v 0.000000 11.606670 3.875976
v 0.000000 17.410200 3.875977
v -33.217136 0.000000 0.000000
v -33.217136 -0.000000 0.255117
v -33.217136 0.279252 -0.062205
v -33.217136 0.279252 0.196460
v -33.217136 1.137480 -0.253934
v -33.217136 1.702951 -0.366929
v -33.217136 2.354130 -0.410238
v -33.217136 1.803579 -0.124803
v -33.217136 6.272862 -0.343697
v -33.217136 10.171791 -0.362197
v -33.217136 10.093169 -0.594091
v -33.217136 6.300696 -0.594092
v -33.217136 14.190917 -0.396842
v -33.217136 5.803373 3.875975
v -33.217136 14.894852 -0.292520
v -33.217136 14.557846 -0.366927
v -33.217136 18.187363 0.866146
v -33.217136 14.401940 -0.142908
v -33.217136 18.262564 0.574806
v -33.217136 22.990902 3.875978
v -33.217136 23.292078 3.875978
v -33.217136 23.213339 2.451176
v -33.217136 23.213339 2.121258
v -33.217136 22.900743 2.352364
v -33.217136 22.897984 2.022831
v 33.217136 0.000000 0.000000
v 33.217136 0.279252 -0.062205
v 33.217136 -0.000000 0.255117
v 33.217136 -0.000001 3.875974
v 33.217136 0.279252 0.196460
v 33.217136 1.137480 -0.253934
v 33.217136 1.702951 -0.366929
v 33.217136 1.803579 -0.124803
v 33.217136 2.354130 -0.410238
v 33.217136 6.300696 -0.594092
v 33.217136 10.171791 -0.362197
v 33.217136 6.272862 -0.343697
v 33.217136 10.093169 -0.594091
v 33.217136 14.190917 -0.396842
v 33.217136 11.606670 3.875976
v 33.217136 14.557846 -0.366927
v 33.217136 14.401940 -0.142908
v 33.217136 14.894852 -0.292520
v 33.217136 18.262564 0.574806
v 33.217136 17.410200 3.875977
v 33.217136 18.187363 0.866146
v 33.217136 23.213339 2.451176
v 33.217136 23.213339 2.121258
v 33.217136 22.897984 2.022831
v 33.217136 22.900743 2.352364
v -2.480113 13.088557 0.825201
v -2.480113 13.610998 0.279533
v -2.367869 13.836190 0.070871
v -2.356058 13.365724 -0.091338
v -2.296255 13.563751 -0.172438
v -2.356058 12.751942 0.307486
v -2.097200 13.296826 -0.187400
v -2.097200 13.949185 -0.069683
v -2.097200 13.621234 -0.259442
v 0.000000 13.296826 -0.187400
v 2.097240 12.683439 0.211424
v 2.480113 13.610998 0.279533
v 2.356058 13.365724 -0.091338
v 2.097240 13.296826 -0.187400
v 2.296294 13.563751 -0.172438
v 2.097240 13.621234 -0.259442
v 0.000000 13.621234 -0.259442
v 0.000000 13.949185 -0.069683
v 2.097240 13.949185 -0.069683
v 2.367869 13.836190 0.070871
vt 0.361816 -0.781738
vt 0.357910 -0.782715
vt 0.361816 -0.797363
vt 0.357178 -0.784180
vt 0.357178 -0.797363
vt 0.357178 -0.810547
vt 0.357910 -0.812012
vt 0.361816 -0.812988
vt 0.005127 -0.853516
vt 0.003731 -0.852051
vt 0.003731 -0.853516
vt 0.005119 -0.825684
vt 0.003719 -0.825684
vt 0.003717 -0.797852
vt 0.035583 -0.853516
vt 0.035583 -0.825684
vt 0.067444 -0.853516
vt 0.067444 -0.825684
vt 0.099304 -0.853516
vt 0.099304 -0.825684
vt 0.131104 -0.853516
vt 0.131104 -0.825684
vt 0.162964 -0.853516
vt 0.162964 -0.825684
vt 0.194824 -0.825684
vt 0.194824 -0.853516
vt 0.226685 -0.825684
vt 0.226685 -0.853516
vt 0.258545 -0.825684
vt 0.258545 -0.853516
vt 0.290283 -0.825684
vt 0.290283 -0.853516
vt 0.320801 -0.825684
vt 0.320801 -0.853516
vt 0.322266 -0.853516
vt 0.322266 -0.852051
vt 0.322266 -0.825684
vt 0.322266 -0.797852
vt 0.320801 -0.797852
vt 0.322266 -0.770020
vt 0.320801 -0.770020
vt 0.322266 -0.743164
vt 0.322266 -0.742188
vt 0.320801 -0.742188
vt 0.290283 -0.742188
vt 0.290283 -0.770020
vt 0.290283 -0.797852
vt 0.258545 -0.797852
vt 0.226685 -0.797852
vt 0.194824 -0.797852
vt 0.258545 -0.770020
vt 0.258545 -0.742188
vt 0.226685 -0.770020
vt 0.226685 -0.742188
vt 0.194824 -0.770020
vt 0.194824 -0.742188
vt 0.162964 -0.770020
vt 0.162964 -0.742188
vt 0.131104 -0.742188
vt 0.131104 -0.770020
vt 0.099304 -0.742188
vt 0.099304 -0.770020
vt 0.067444 -0.742188
vt 0.067444 -0.770020
vt 0.035583 -0.742188
vt 0.035583 -0.770020
vt 0.005119 -0.770020
vt 0.005127 -0.742188
vt 0.003731 -0.742188
vt 0.003731 -0.743164
vt 0.003719 -0.770020
vt 0.005119 -0.797852
vt 0.035583 -0.797852
vt 0.067444 -0.797852
vt 0.099304 -0.797852
vt 0.131104 -0.797852
vt 0.162964 -0.797852
vt 0.344727 -0.893066
vt 0.344482 -0.894531
vt 0.343262 -0.894531
vt 0.343506 -0.893066
vt 0.325684 -0.894531
vt 0.325684 -0.893066
vt 0.345703 -0.889160
vt 0.344971 -0.885742
vt 0.346191 -0.886230
vt 0.346436 -0.883301
vt 0.347412 -0.863770
vt 0.346191 -0.864258
vt 0.325684 -0.866211
vt 0.346191 -0.845215
vt 0.347412 -0.845215
vt 0.346436 -0.825684
vt 0.325684 -0.837891
vt 0.345215 -0.824707
vt 0.346191 -0.823730
vt 0.345947 -0.822266
vt 0.325684 -0.810059
vt 0.340332 -0.806152
vt 0.341553 -0.805664
vt 0.334473 -0.783203
vt 0.325684 -0.783203
vt 0.325684 -0.781738
vt 0.332520 -0.781738
vt 0.334229 -0.781738
vt 0.333008 -0.783203
vt 0.343262 -0.894531
vt 0.344482 -0.894531
vt 0.344727 -0.893066
vt 0.343506 -0.893066
vt 0.325684 -0.894531
vt 0.345703 -0.889160
vt 0.325684 -0.893066
vt 0.344971 -0.885742
vt 0.346191 -0.886230
vt 0.346436 -0.883301
vt 0.346191 -0.864258
vt 0.325684 -0.866211
vt 0.347412 -0.863770
vt 0.346191 -0.845215
vt 0.347412 -0.845215
vt 0.346436 -0.825684
vt 0.325684 -0.837891
vt 0.345215 -0.824707
vt 0.346191 -0.823730
vt 0.345947 -0.822266
vt 0.325684 -0.810059
vt 0.340332 -0.806152
vt 0.341553 -0.805664
vt 0.334473 -0.783203
vt 0.325684 -0.783203
vt 0.332520 -0.781738
vt 0.325684 -0.781738
vt 0.334229 -0.781738
vt 0.333008 -0.783203
vt 0.355957 -0.778320
vt 0.351563 -0.780273
vt 0.352539 -0.782715
vt 0.356934 -0.782227
vt 0.349609 -0.781738
vt 0.351318 -0.783203
vt 0.352783 -0.784180
vt 0.350830 -0.784180
vt 0.348389 -0.784180
vt 0.348145 -0.797363
vt 0.350586 -0.797363
vt 0.352783 -0.797363
vt 0.352783 -0.810547
vt 0.356934 -0.812500
vt 0.352539 -0.812012
vt 0.355957 -0.816406
vt 0.351563 -0.814453
vt 0.349609 -0.812988
vt 0.351318 -0.811523
vt 0.350830 -0.810547
vt 0.348389 -0.810547
vn 0.0000 -0.8384 0.5451
vn -0.0022 -0.8337 0.5522
vn -0.0000 -0.8346 0.5508
vn -0.0063 -0.8246 0.5657
vn 0.0000 -0.8346 0.5509
vn 0.0063 -0.8246 0.5657
vn 0.0022 -0.8337 0.5522
vn 0.0000 -0.0000 1.0000
vn -0.0124 -0.0000 0.9999
vn -0.0035 0.0033 1.0000
vn 0.0073 0.0230 0.9997
vn 0.0035 0.0115 0.9999
vn 0.0057 0.0066 1.0000
vn -0.0034 0.0039 1.0000
vn -0.0021 0.0068 1.0000
vn -0.0040 0.0134 0.9999
vn 0.0021 0.0020 1.0000
vn 0.0075 -0.0000 1.0000
vn -1.0000 -0.0000 0.0000
vn 1.0000 -0.0000 0.0000
vn -0.9746 -0.1404 -0.1744
vn -0.9589 -0.0691 -0.2750
vn -0.9585 -0.0292 -0.2835
vn -0.9804 -0.1073 -0.1652
vn -0.9172 0.1091 -0.3832
vn -0.9115 0.1134 -0.3953
vn -0.1989 -0.3883 -0.8998
vn -0.4090 -0.3793 -0.8300
vn -0.3657 -0.2220 -0.9039
vn -0.4146 -0.4960 -0.7630
vn -0.2108 -0.5329 -0.8195
vn 0.0000 -0.5451 -0.8384
vn -0.1526 -0.2143 -0.9648
vn -0.5049 0.4734 -0.7218
vn -0.4637 0.5192 -0.7179
vn -0.5215 0.4538 -0.7226
vn -0.5500 0.4183 -0.7229
vn 0.0000 0.5008 -0.8655
vn 0.0000 0.5008 -0.8656
vn 0.0000 -0.2168 -0.9762
vn 0.0000 -0.3871 -0.9220
vn 0.1989 -0.3883 -0.8998
vn 0.2109 -0.5329 -0.8195
vn 0.4146 -0.4960 -0.7629
vn 0.4090 -0.3793 -0.8300
vn 0.9746 -0.1404 -0.1744
vn 0.9804 -0.1073 -0.1652
vn 0.9585 -0.0292 -0.2835
vn 0.9589 -0.0691 -0.2750
vn 0.9172 0.1091 -0.3832
vn 0.9116 0.1133 -0.3951
vn 0.3657 -0.2221 -0.9039
vn 0.1526 -0.2143 -0.9648
vn 0.5215 0.4538 -0.7226
vn 0.4637 0.5193 -0.7179
vn 0.5049 0.4734 -0.7218
vn 0.5501 0.4183 -0.7228
usemtl Matt
s 1
f 119/1/1 124/2/2 1/3/3
f 1/3/3 124/2/2 2/4/4
f 2/4/4 3/5/5 1/3/3
f 1/3/3 3/5/5 129/6/6
f 129/6/6 5/7/7 1/3/3
f 4/8/1 1/3/3 5/7/7
f 8/9/8 7/10/8 6/11/8
f 7/10/8 8/9/8 9/12/8
f 9/12/8 113/13/8 7/10/8
f 108/14/8 113/13/8 9/12/8
f 9/12/8 8/9/8 10/15/8
f 10/15/8 59/16/8 9/12/8
f 59/16/8 10/15/8 11/17/8
f 11/17/8 61/18/8 59/16/8
f 61/18/8 11/17/8 13/19/9
f 13/19/9 12/20/10 61/18/8
f 12/20/10 13/19/9 14/21/11
f 14/21/11 16/22/12 12/20/10
f 16/22/12 14/21/11 15/23/13
f 15/23/13 68/24/8 16/22/12
f 34/25/8 68/24/8 15/23/13
f 15/23/13 17/26/8 34/25/8
f 35/27/8 34/25/8 17/26/8
f 17/26/8 19/28/8 35/27/8
f 18/29/8 35/27/8 19/28/8
f 19/28/8 20/30/14 18/29/8
f 31/31/15 18/29/8 20/30/14
f 20/30/14 21/32/16 31/31/15
f 22/33/17 31/31/15 21/32/16
f 21/32/16 23/34/18 22/33/17
f 23/34/18 89/35/8 88/36/8
f 22/33/17 23/34/18 88/36/8
f 88/36/8 24/37/8 22/33/17
f 22/33/17 24/37/8 25/38/8
f 25/38/8 30/39/8 22/33/17
f 30/39/8 25/38/8 82/40/8
f 82/40/8 28/41/8 30/39/8
f 28/41/8 82/40/8 26/42/8
f 26/42/8 27/43/8 29/44/8
f 26/42/8 29/44/8 28/41/8
f 28/41/8 29/44/8 38/45/8
f 38/45/8 37/46/8 28/41/8
f 30/39/8 28/41/8 37/46/8
f 37/46/8 32/47/8 30/39/8
f 22/33/17 30/39/8 32/47/8
f 32/47/8 31/31/15 22/33/17
f 18/29/8 31/31/15 32/47/8
f 32/47/8 33/48/8 18/29/8
f 33/48/8 32/47/8 37/46/8
f 35/27/8 18/29/8 33/48/8
f 33/48/8 36/49/8 35/27/8
f 34/25/8 35/27/8 36/49/8
f 36/49/8 42/50/8 34/25/8
f 68/24/8 34/25/8 42/50/8
f 37/46/8 39/51/8 33/48/8
f 36/49/8 33/48/8 39/51/8
f 39/51/8 37/46/8 38/45/8
f 38/45/8 40/52/8 39/51/8
f 41/53/8 39/51/8 40/52/8
f 39/51/8 41/53/8 36/49/8
f 42/50/8 36/49/8 41/53/8
f 40/52/8 43/54/8 41/53/8
f 44/55/8 41/53/8 43/54/8
f 41/53/8 44/55/8 42/50/8
f 43/54/8 45/56/8 44/55/8
f 66/57/8 44/55/8 45/56/8
f 45/56/8 46/58/8 66/57/8
f 66/57/8 46/58/8 48/59/8
f 48/59/8 47/60/8 66/57/8
f 47/60/8 48/59/8 49/61/8
f 49/61/8 64/62/8 47/60/8
f 64/62/8 49/61/8 50/63/8
f 50/63/8 51/64/8 64/62/8
f 51/64/8 50/63/8 52/65/8
f 52/65/8 58/66/8 51/64/8
f 55/67/8 58/66/8 52/65/8
f 52/65/8 54/68/8 55/67/8
f 54/68/8 97/69/8 53/70/8
f 55/67/8 54/68/8 53/70/8
f 53/70/8 56/71/8 55/67/8
f 57/72/8 55/67/8 56/71/8
f 58/66/8 55/67/8 57/72/8
f 56/71/8 108/14/8 57/72/8
f 9/12/8 57/72/8 108/14/8
f 60/73/8 57/72/8 9/12/8
f 57/72/8 60/73/8 58/66/8
f 9/12/8 59/16/8 60/73/8
f 60/73/8 59/16/8 61/18/8
f 61/18/8 62/74/8 60/73/8
f 58/66/8 60/73/8 62/74/8
f 62/74/8 51/64/8 58/66/8
f 62/74/8 61/18/8 12/20/10
f 12/20/10 63/75/8 62/74/8
f 51/64/8 62/74/8 63/75/8
f 63/75/8 64/62/8 51/64/8
f 63/75/8 12/20/10 16/22/12
f 16/22/12 65/76/8 63/75/8
f 64/62/8 63/75/8 65/76/8
f 65/76/8 47/60/8 64/62/8
f 65/76/8 16/22/12 68/24/8
f 68/24/8 67/77/8 65/76/8
f 47/60/8 65/76/8 67/77/8
f 67/77/8 66/57/8 47/60/8
f 44/55/8 66/57/8 67/77/8
f 67/77/8 42/50/8 44/55/8
f 42/50/8 67/77/8 68/24/8
f 71/78/19 69/79/19 70/80/19
f 70/80/19 72/81/19 71/78/19
f 72/81/19 70/80/19 27/82/19
f 27/82/19 26/83/19 72/81/19
f 73/84/19 71/78/19 72/81/19
f 76/85/19 73/84/19 72/81/19
f 76/85/19 72/81/19 26/83/19
f 76/85/19 74/86/19 73/84/19
f 76/85/19 75/87/19 74/86/19
f 76/85/19 80/88/19 75/87/19
f 76/85/19 77/89/19 80/88/19
f 76/85/19 26/83/19 77/89/19
f 26/83/19 82/90/19 77/89/19
f 78/91/19 77/89/19 82/90/19
f 80/88/19 77/89/19 78/91/19
f 78/91/19 79/92/19 80/88/19
f 81/93/19 79/92/19 78/91/19
f 82/90/19 25/94/19 78/91/19
f 25/94/19 86/95/19 78/91/19
f 86/95/19 81/93/19 78/91/19
f 86/95/19 84/96/19 81/93/19
f 83/97/19 84/96/19 86/95/19
f 86/95/19 25/94/19 24/98/19
f 24/98/19 85/99/19 86/95/19
f 85/99/19 83/97/19 86/95/19
f 85/99/19 87/100/19 83/97/19
f 93/101/19 87/100/19 85/99/19
f 85/99/19 24/98/19 88/102/19
f 88/102/19 89/103/19 90/104/19
f 90/104/19 91/105/19 93/101/19
f 93/101/19 92/106/19 90/104/19
f 90/104/19 92/106/19 88/102/19
f 88/102/19 92/106/19 85/99/19
f 85/99/19 92/106/19 93/101/19
f 96/107/20 94/108/20 95/109/20
f 95/109/20 98/110/20 96/107/20
f 97/111/20 96/107/20 98/110/20
f 98/110/20 95/109/20 99/112/20
f 98/110/20 53/113/20 97/111/20
f 101/114/20 98/110/20 99/112/20
f 101/114/20 53/113/20 98/110/20
f 101/114/20 99/112/20 100/115/20
f 101/114/20 100/115/20 102/116/20
f 101/114/20 102/116/20 105/117/20
f 101/114/20 105/117/20 53/113/20
f 105/117/20 56/118/20 53/113/20
f 102/116/20 103/119/20 105/117/20
f 104/120/20 105/117/20 103/119/20
f 56/118/20 105/117/20 104/120/20
f 103/119/20 106/121/20 104/120/20
f 104/120/20 106/121/20 107/122/20
f 104/120/20 108/123/20 56/118/20
f 108/123/20 104/120/20 110/124/20
f 110/124/20 104/120/20 107/122/20
f 110/124/20 107/122/20 109/125/20
f 110/124/20 109/125/20 111/126/20
f 113/127/20 108/123/20 110/124/20
f 110/124/20 114/128/20 113/127/20
f 114/128/20 110/124/20 111/126/20
f 114/128/20 111/126/20 112/129/20
f 114/128/20 112/129/20 117/130/20
f 7/131/20 113/127/20 114/128/20
f 115/132/20 6/133/20 7/131/20
f 117/130/20 116/134/20 115/132/20
f 115/132/20 118/135/20 117/130/20
f 117/130/20 118/135/20 114/128/20
f 114/128/20 118/135/20 7/131/20
f 7/131/20 118/135/20 115/132/20
f 119/136/21 120/137/22 122/138/23
f 122/138/23 124/139/24 119/136/21
f 122/138/23 120/137/22 121/140/25
f 121/140/25 123/141/26 122/138/23
f 125/142/27 122/138/28 123/141/29
f 124/139/30 122/138/28 125/142/27
f 125/142/27 2/4/31 124/139/30
f 3/5/32 2/4/31 125/142/27
f 123/141/29 127/143/33 125/142/27
f 127/143/34 123/141/35 121/140/36
f 121/140/36 126/144/37 127/143/34
f 127/143/38 126/144/38 136/145/39
f 136/145/39 135/146/39 127/143/38
f 127/143/33 135/146/40 128/147/41
f 128/147/41 125/142/27 127/143/33
f 125/142/27 128/147/41 3/5/32
f 3/5/32 128/147/41 132/148/42
f 132/148/42 129/6/43 3/5/32
f 5/149/44 129/6/43 132/148/42
f 132/148/42 131/150/45 5/149/44
f 4/151/46 5/149/47 131/150/48
f 131/150/48 130/152/49 4/151/46
f 138/153/50 130/152/49 131/150/48
f 131/150/48 133/154/51 138/153/50
f 133/154/52 131/150/45 132/148/42
f 132/148/42 134/155/53 133/154/52
f 138/153/54 133/154/55 134/155/56
f 134/155/53 132/148/42 128/147/41
f 128/147/41 135/146/40 134/155/53
f 134/155/39 135/146/39 136/145/39
f 136/145/39 137/156/39 134/155/39
f 134/155/56 137/156/57 138/153/54
