# Blender v2.93.18 OBJ File: 'Kohler 350 new 4.blend'
# www.blender.org
mtllib Kohler g350 headlights.mtl
o headlights_x0_light_glass_fl
v 9.470257 44.134491 38.520798
v 8.674667 43.665192 38.437138
v 8.971478 43.571892 38.437138
v 11.855488 43.508507 38.437138
v 11.855488 45.464012 38.794025
v 8.526793 45.464012 38.437138
v 8.674667 47.262825 38.437138
v 8.971478 47.356529 38.437138
v 9.470257 46.793533 38.520798
v 11.855488 47.419914 38.437138
v 14.739497 47.356529 38.437138
v 14.240719 46.793533 38.520798
v 15.184182 45.464012 38.437138
v 14.240719 44.134491 38.520798
v 14.739497 43.571892 38.437138
v 15.036307 43.665192 38.437138
v 15.135245 43.946297 38.437138
v 17.569099 43.528191 38.143360
v 17.865908 43.434486 38.143360
v 18.364727 43.997482 38.227020
v 17.421265 45.327003 38.143360
v 18.364727 46.656532 38.227020
v 20.749958 45.327003 38.500248
v 20.749958 47.282516 38.143360
v 23.633968 47.219124 38.143360
v 23.930777 47.125816 38.143360
v 23.135151 46.656532 38.227020
v 24.029715 46.844719 38.143360
v 20.749958 43.371109 38.143360
v 24.029715 43.809296 38.143360
v 23.135151 43.997482 38.227020
v 24.078653 45.327003 38.143360
v -9.470257 44.134491 38.520798
v -8.575730 43.946297 38.437138
v -8.526793 45.464012 38.437138
v -11.855488 45.464012 38.794025
v -9.470257 46.793533 38.520798
v -11.855488 47.419914 38.437138
v -15.135245 46.981728 38.437138
v -15.036307 47.262825 38.437138
v -14.240719 46.793533 38.520798
v -15.184182 45.464012 38.437138
v -14.739497 43.571892 38.437138
v -15.036307 43.665192 38.437138
v -15.135245 43.946297 38.437138
v -14.240719 44.134491 38.520798
v -17.569099 43.528191 38.143360
v -18.364727 43.997482 38.227020
v -17.421265 45.327003 38.143360
v -17.865908 47.219124 38.143360
v -18.364727 46.656532 38.227020
v -17.569099 47.125816 38.143360
v -20.749958 47.282516 38.143360
v -23.633968 47.219124 38.143360
v -23.135151 46.656532 38.227020
v -23.930777 47.125816 38.143360
v -20.749958 43.371109 38.143360
v -20.749958 45.327003 38.500248
v -23.633968 43.434486 38.143360
v -23.135151 43.997482 38.227020
v -23.930777 43.528191 38.143360
v -27.098528 34.737663 -12.398350
v -27.285967 34.666405 -12.398350
v -29.309940 34.666405 -12.398350
v -28.297935 37.027817 -12.788467
v -29.602106 37.027817 -12.398350
v -29.309940 39.389229 -12.398349
v -27.098528 39.317970 -12.398349
v -26.993803 37.027817 -12.398350
v 28.355690 36.731758 -12.788467
v 28.355690 34.335304 -12.398350
v 27.093803 38.808525 -12.398349
v 27.343685 39.093559 -12.398349
v 29.367695 39.093559 -12.398349
v 29.617577 38.808525 -12.398349
v 29.659861 36.731758 -12.398350
v -14.739497 47.356529 38.437138
v -8.971478 47.356529 38.437138
v -8.674667 47.262825 38.437138
v -8.575730 46.981728 38.437138
v -8.674667 43.665192 38.437138
v -8.971478 43.571892 38.437138
v -11.855488 45.464012 36.557537
v -11.855488 43.508507 38.437138
v -24.029715 43.809296 38.143360
v -24.078653 45.327003 38.143360
v -24.029715 46.844719 38.143360
v -17.470161 46.844719 38.143360
v -17.470161 43.809296 38.143360
v -17.865908 43.434486 38.143360
v -20.749958 45.327003 36.263756
v 15.135245 46.981728 38.437138
v 15.036307 47.262825 38.437138
v 8.575730 46.981728 38.437138
v 8.575730 43.946297 38.437138
v 11.855488 45.464012 36.557537
v 23.633968 43.434486 38.143360
v 23.930777 43.528191 38.143360
v 20.749958 45.327003 36.263756
v 17.865908 47.219124 38.143360
v 17.569099 47.125816 38.143360
v 17.470161 46.844719 38.143360
v 17.470161 43.809296 38.143360
v -27.036047 34.951447 -12.398350
v -28.297935 34.630974 -12.398350
v -29.497379 34.737663 -12.398350
v -29.559822 34.951447 -12.398350
v -29.559822 39.104187 -12.398349
v -29.497379 39.317970 -12.398349
v -28.297935 39.424660 -12.398349
v -27.285967 39.389229 -12.398349
v -28.297935 37.027817 -10.598314
v -27.036047 39.104187 -12.398349
v 29.617577 34.655380 -12.398350
v 29.555138 34.441597 -12.398350
v 29.367695 34.370338 -12.398350
v 27.343685 34.370338 -12.398350
v 27.156284 34.441597 -12.398350
v 28.355690 36.731758 -10.598314
v 27.093803 34.655380 -12.398350
v 27.051559 36.731758 -12.398350
v 27.156284 39.022301 -12.398349
v 28.355690 39.128601 -12.398349
v 29.555138 39.022301 -12.398349
vt 0.593262 -0.441895
vt 0.611328 -0.447510
vt 0.641113 -0.413574
vt 0.587402 -0.424805
vt 0.584473 -0.333740
vt 0.784180 -0.451904
vt 0.784180 -0.333740
vt 0.641113 -0.253662
vt 0.587402 -0.242554
vt 0.593262 -0.225586
vt 0.611328 -0.219727
vt 0.784180 -0.215576
vt 0.926758 -0.253662
vt 0.957031 -0.219727
vt 0.974609 -0.225586
vt 0.980469 -0.242554
vt 0.983887 -0.333740
vt 0.926758 -0.413574
vt 0.957031 -0.447510
vt 0.974609 -0.441895
vt 0.980469 -0.424805
vt 0.593262 -0.441895
vt 0.611328 -0.447510
vt 0.641113 -0.413574
vt 0.587402 -0.424805
vt 0.584473 -0.333740
vt 0.784180 -0.451904
vt 0.784180 -0.333740
vt 0.641113 -0.253662
vt 0.587402 -0.242554
vt 0.593262 -0.225586
vt 0.611328 -0.219727
vt 0.784180 -0.215576
vt 0.926758 -0.253662
vt 0.957031 -0.219727
vt 0.974609 -0.225586
vt 0.980469 -0.242554
vt 0.983887 -0.333740
vt 0.926758 -0.413574
vt 0.957031 -0.447510
vt 0.974609 -0.441895
vt 0.980469 -0.424805
vt 0.593262 -0.441895
vt 0.641113 -0.413574
vt 0.611328 -0.447510
vt 0.587402 -0.424805
vt 0.584473 -0.333740
vt 0.784180 -0.451904
vt 0.784180 -0.333740
vt 0.641113 -0.253662
vt 0.587402 -0.242554
vt 0.593262 -0.225586
vt 0.611328 -0.219727
vt 0.784180 -0.215576
vt 0.926758 -0.253662
vt 0.957031 -0.219727
vt 0.974609 -0.225586
vt 0.980469 -0.242554
vt 0.983887 -0.333740
vt 0.926758 -0.413574
vt 0.957031 -0.447510
vt 0.974609 -0.441895
vt 0.980469 -0.424805
vt 0.593262 -0.441895
vt 0.641113 -0.413574
vt 0.611328 -0.447510
vt 0.587402 -0.424805
vt 0.584473 -0.333740
vt 0.784180 -0.451904
vt 0.784180 -0.333740
vt 0.641113 -0.253662
vt 0.587402 -0.242554
vt 0.593262 -0.225586
vt 0.611328 -0.219727
vt 0.784180 -0.215576
vt 0.926758 -0.253662
vt 0.957031 -0.219727
vt 0.974609 -0.225586
vt 0.980469 -0.242554
vt 0.983887 -0.333740
vt 0.926758 -0.413574
vt 0.957031 -0.447510
vt 0.974609 -0.441895
vt 0.980469 -0.424805
vt 0.283203 -0.329834
vt 0.285645 -0.420654
vt 0.342285 -0.329834
vt 0.289063 -0.430176
vt 0.297607 -0.433594
vt 0.342285 -0.435303
vt 0.386719 -0.433594
vt 0.395508 -0.430176
vt 0.398682 -0.420654
vt 0.401123 -0.329834
vt 0.398682 -0.239014
vt 0.395508 -0.229370
vt 0.386719 -0.225952
vt 0.342285 -0.224243
vt 0.297607 -0.225952
vt 0.289063 -0.229370
vt 0.285645 -0.239014
vt 0.283203 -0.329834
vt 0.285645 -0.420654
vt 0.342285 -0.329834
vt 0.289063 -0.430176
vt 0.297607 -0.433594
vt 0.342285 -0.435303
vt 0.386719 -0.433594
vt 0.395508 -0.430176
vt 0.398682 -0.420654
vt 0.401123 -0.329834
vt 0.398682 -0.239014
vt 0.395508 -0.229370
vt 0.386719 -0.225952
vt 0.342285 -0.224243
vt 0.297607 -0.225952
vt 0.289063 -0.229370
vt 0.285645 -0.239014
vt 0.466797 -0.285645
vt 0.510742 -0.285645
vt 0.470459 -0.336426
vt 0.474609 -0.343506
vt 0.482422 -0.346924
vt 0.510742 -0.348877
vt 0.539551 -0.346924
vt 0.547363 -0.343506
vt 0.551270 -0.336426
vt 0.555176 -0.285645
vt 0.551270 -0.234741
vt 0.547363 -0.227661
vt 0.539551 -0.224243
vt 0.510742 -0.222290
vt 0.482422 -0.224243
vt 0.474609 -0.227661
vt 0.470459 -0.234741
vt 0.466797 -0.285645
vt 0.510742 -0.285645
vt 0.470459 -0.336426
vt 0.474609 -0.343506
vt 0.482422 -0.346924
vt 0.510742 -0.348877
vt 0.539551 -0.346924
vt 0.547363 -0.343506
vt 0.551270 -0.336426
vt 0.555176 -0.285645
vt 0.551270 -0.234741
vt 0.547363 -0.227661
vt 0.539551 -0.224243
vt 0.510742 -0.222290
vt 0.482422 -0.224243
vt 0.474609 -0.227661
vt 0.470459 -0.234741
vt 0.466797 -0.285645
vt 0.470459 -0.336426
vt 0.510742 -0.285645
vt 0.474609 -0.343506
vt 0.482422 -0.346924
vt 0.510742 -0.348877
vt 0.539551 -0.346924
vt 0.547363 -0.343506
vt 0.551270 -0.336426
vt 0.555176 -0.285645
vt 0.551270 -0.234741
vt 0.547363 -0.227661
vt 0.539551 -0.224243
vt 0.510742 -0.222290
vt 0.482422 -0.224243
vt 0.474609 -0.227661
vt 0.470459 -0.234741
vt 0.466797 -0.285645
vt 0.470459 -0.336426
vt 0.510742 -0.285645
vt 0.474609 -0.343506
vt 0.482422 -0.346924
vt 0.510742 -0.348877
vt 0.539551 -0.346924
vt 0.547363 -0.343506
vt 0.551270 -0.336426
vt 0.555176 -0.285645
vt 0.551270 -0.234741
vt 0.547363 -0.227661
vt 0.539551 -0.224243
vt 0.510742 -0.222290
vt 0.482422 -0.224243
vt 0.474609 -0.227661
vt 0.470459 -0.234741
vt 0.490234 -0.368652
vt 0.448730 -0.371826
vt 0.490234 -0.405029
vt 0.442871 -0.375244
vt 0.440186 -0.381592
vt 0.438477 -0.405029
vt 0.440186 -0.428223
vt 0.442871 -0.434570
vt 0.448730 -0.437988
vt 0.490234 -0.441162
vt 0.531738 -0.437988
vt 0.537598 -0.434570
vt 0.540527 -0.428223
vt 0.541992 -0.405029
vt 0.540527 -0.381592
vt 0.537598 -0.375244
vt 0.531738 -0.371826
vt 0.490234 -0.368652
vt 0.448730 -0.371826
vt 0.490234 -0.405029
vt 0.442871 -0.375244
vt 0.440186 -0.381592
vt 0.438477 -0.405029
vt 0.440186 -0.428223
vt 0.442871 -0.434570
vt 0.448730 -0.437988
vt 0.490234 -0.441162
vt 0.531738 -0.437988
vt 0.537598 -0.434570
vt 0.540527 -0.428223
vt 0.541992 -0.405029
vt 0.540527 -0.381592
vt 0.537598 -0.375244
vt 0.531738 -0.371826
vn -0.0677 -0.0628 0.9957
vn -0.0262 -0.1243 0.9919
vn -0.0547 -0.0805 0.9953
vn -0.0896 -0.0170 0.9958
vn -0.1012 0.0000 0.9949
vn -0.0000 -0.1742 0.9847
vn 0.0000 -0.0000 1.0000
vn -0.0547 0.0804 0.9953
vn -0.0896 0.0170 0.9958
vn -0.0677 0.0628 0.9957
vn -0.0262 0.1241 0.9919
vn 0.0000 0.1741 0.9847
vn 0.0547 0.0804 0.9953
vn 0.0262 0.1241 0.9919
vn 0.0677 0.0628 0.9957
vn 0.0896 0.0170 0.9958
vn 0.1012 -0.0000 0.9949
vn 0.0546 -0.0805 0.9953
vn 0.0262 -0.1243 0.9919
vn 0.0677 -0.0628 0.9957
vn 0.0896 -0.0170 0.9958
vn -0.0263 -0.1241 0.9919
vn -0.0547 -0.0804 0.9953
vn -0.0000 -0.1741 0.9847
vn -0.0546 0.0805 0.9953
vn -0.0262 0.1243 0.9919
vn -0.0000 0.1742 0.9847
vn 0.0546 0.0805 0.9953
vn 0.0262 0.1243 0.9919
vn 0.0547 -0.0804 0.9953
vn 0.0263 -0.1241 0.9919
vn 0.0547 -0.0805 0.9953
vn -0.0546 -0.0805 0.9953
vn 0.2866 0.0000 -0.9581
vn 0.2209 -0.0487 -0.9741
vn 0.0000 0.0000 -1.0000
vn 0.1063 -0.1126 -0.9879
vn 0.0330 -0.1491 -0.9883
vn 0.0000 -0.1606 -0.9870
vn -0.0330 -0.1491 -0.9883
vn -0.1063 -0.1126 -0.9879
vn -0.2210 -0.0487 -0.9741
vn -0.2866 0.0000 -0.9581
vn -0.2210 0.0487 -0.9741
vn -0.1063 0.1126 -0.9879
vn -0.0330 0.1491 -0.9883
vn 0.0000 0.1606 -0.9870
vn 0.0330 0.1491 -0.9883
vn 0.1063 0.1126 -0.9879
vn 0.2210 0.0487 -0.9741
vn 0.2210 -0.0487 -0.9741
vn 0.0329 -0.1491 -0.9883
vn -0.0000 -0.1607 -0.9870
vn -0.2209 -0.0487 -0.9741
vn -0.2209 0.0487 -0.9741
vn -0.0329 0.1491 -0.9883
vn 0.0329 0.1491 -0.9883
vn -0.0000 0.6930 0.7210
vn 0.1323 0.5898 0.7967
vn 0.3424 0.3183 0.8840
vn 0.4613 0.0956 0.8821
vn 0.4917 0.0000 0.8708
vn 0.4613 -0.0956 0.8821
vn 0.3425 -0.3181 0.8840
vn 0.1327 -0.5893 0.7969
vn 0.0000 -0.6929 0.7210
vn -0.1327 -0.5893 0.7969
vn -0.3425 -0.3181 0.8840
vn -0.4613 -0.0956 0.8821
vn -0.4917 0.0000 0.8708
vn -0.4613 0.0956 0.8821
vn -0.3424 0.3183 0.8840
vn -0.1323 0.5898 0.7967
vn 0.0000 0.6929 0.7210
vn 0.1327 0.5893 0.7969
vn 0.3425 0.3181 0.8840
vn 0.3424 -0.3183 0.8840
vn 0.1323 -0.5898 0.7967
vn 0.0000 -0.6930 0.7210
vn -0.1323 -0.5898 0.7967
vn -0.3424 -0.3183 0.8840
vn -0.3425 0.3181 0.8840
vn -0.1327 0.5893 0.7969
vn -0.8098 0.0000 -0.5867
vn -0.7207 0.1490 -0.6771
vn -0.8023 -0.0000 -0.5969
vn -0.6799 0.1987 -0.7059
vn -0.2040 0.5367 -0.8188
vn -0.1238 0.5675 -0.8140
vn 0.0000 0.5923 -0.8057
vn -0.0000 0.6005 -0.7996
vn 0.1238 0.5675 -0.8140
vn 0.2040 0.5367 -0.8188
vn 0.6800 0.1986 -0.7058
vn 0.7207 0.1489 -0.6770
vn 0.8023 -0.0000 -0.5969
vn 0.8098 -0.0000 -0.5867
vn 0.7207 -0.1489 -0.6770
vn 0.6800 -0.1986 -0.7058
vn 0.2040 -0.5367 -0.8188
vn 0.1238 -0.5675 -0.8140
vn -0.0000 -0.5923 -0.8057
vn -0.0000 -0.6005 -0.7996
vn -0.1238 -0.5675 -0.8140
vn -0.2040 -0.5367 -0.8187
vn -0.6799 -0.1987 -0.7059
vn -0.7207 -0.1490 -0.6771
vn -0.7207 0.1489 -0.6770
vn -0.6800 0.1986 -0.7058
vn -0.1237 0.5675 -0.8140
vn 0.0000 0.5924 -0.8057
vn 0.0000 0.6006 -0.7996
vn 0.1237 0.5675 -0.8140
vn 0.2041 0.5367 -0.8188
vn 0.6799 0.1987 -0.7059
vn 0.7207 0.1490 -0.6771
vn 0.7206 -0.1490 -0.6771
vn 0.6799 -0.1987 -0.7059
vn 0.2040 -0.5366 -0.8188
vn 0.1237 -0.5674 -0.8141
vn -0.1236 -0.5675 -0.8141
vn -0.2040 -0.5366 -0.8188
vn -0.6800 -0.1986 -0.7058
vn -0.7207 -0.1489 -0.6771
usemtl Lights_Glass
s 1
f 2/1/1 3/2/2 1/3/3
f 95/4/4 2/1/1 1/3/3
f 6/5/5 95/4/4 1/3/3
f 3/2/2 4/6/6 1/3/3
f 4/6/6 5/7/7 1/3/3
f 1/3/3 5/7/7 6/5/5
f 6/5/5 5/7/7 9/8/8
f 94/9/9 6/5/5 9/8/8
f 7/10/10 94/9/9 9/8/8
f 8/11/11 7/10/10 9/8/8
f 10/12/12 8/11/11 9/8/8
f 9/8/8 5/7/7 10/12/12
f 10/12/12 5/7/7 12/13/13
f 12/13/13 11/14/14 10/12/12
f 93/15/15 11/14/14 12/13/13
f 92/16/16 93/15/15 12/13/13
f 13/17/17 92/16/16 12/13/13
f 12/13/13 5/7/7 13/17/17
f 13/17/17 5/7/7 14/18/18
f 14/18/18 5/7/7 4/6/6
f 4/6/6 15/19/19 14/18/18
f 15/19/19 16/20/20 14/18/18
f 16/20/20 17/21/21 14/18/18
f 17/21/21 13/17/17 14/18/18
f 18/22/1 19/23/22 20/24/23
f 103/25/4 18/22/1 20/24/23
f 21/26/5 103/25/4 20/24/23
f 19/23/22 29/27/24 20/24/23
f 29/27/24 23/28/7 20/24/23
f 20/24/23 23/28/7 21/26/5
f 21/26/5 23/28/7 22/29/25
f 102/30/9 21/26/5 22/29/25
f 101/31/10 102/30/9 22/29/25
f 100/32/26 101/31/10 22/29/25
f 24/33/27 100/32/26 22/29/25
f 22/29/25 23/28/7 24/33/27
f 24/33/27 23/28/7 27/34/28
f 27/34/28 25/35/29 24/33/27
f 26/36/15 25/35/29 27/34/28
f 28/37/16 26/36/15 27/34/28
f 32/38/17 28/37/16 27/34/28
f 27/34/28 23/28/7 32/38/17
f 32/38/17 23/28/7 31/39/30
f 31/39/30 23/28/7 29/27/24
f 29/27/24 97/40/31 31/39/30
f 97/40/31 98/41/20 31/39/30
f 98/41/20 30/42/21 31/39/30
f 30/42/21 32/38/17 31/39/30
f 81/43/20 33/44/32 82/45/19
f 34/46/21 33/44/32 81/43/20
f 35/47/17 33/44/32 34/46/21
f 82/45/19 33/44/32 84/48/6
f 84/48/6 33/44/32 36/49/7
f 33/44/32 35/47/17 36/49/7
f 35/47/17 37/50/13 36/49/7
f 80/51/16 37/50/13 35/47/17
f 79/52/15 37/50/13 80/51/16
f 78/53/14 37/50/13 79/52/15
f 38/54/12 37/50/13 78/53/14
f 37/50/13 38/54/12 36/49/7
f 38/54/12 41/55/8 36/49/7
f 41/55/8 38/54/12 77/56/11
f 40/57/10 41/55/8 77/56/11
f 39/58/9 41/55/8 40/57/10
f 42/59/5 41/55/8 39/58/9
f 41/55/8 42/59/5 36/49/7
f 42/59/5 46/60/33 36/49/7
f 46/60/33 84/48/6 36/49/7
f 84/48/6 46/60/33 43/61/2
f 43/61/2 46/60/33 44/62/1
f 44/62/1 46/60/33 45/63/4
f 45/63/4 46/60/33 42/59/5
f 47/64/20 48/65/30 90/66/31
f 89/67/21 48/65/30 47/64/20
f 49/68/17 48/65/30 89/67/21
f 90/66/31 48/65/30 57/69/24
f 57/69/24 48/65/30 58/70/7
f 48/65/30 49/68/17 58/70/7
f 49/68/17 51/71/28 58/70/7
f 88/72/16 51/71/28 49/68/17
f 52/73/15 51/71/28 88/72/16
f 50/74/29 51/71/28 52/73/15
f 53/75/27 51/71/28 50/74/29
f 51/71/28 53/75/27 58/70/7
f 53/75/27 55/76/25 58/70/7
f 55/76/25 53/75/27 54/77/26
f 56/78/10 55/76/25 54/77/26
f 87/79/9 55/76/25 56/78/10
f 86/80/5 55/76/25 87/79/9
f 55/76/25 86/80/5 58/70/7
f 86/80/5 60/81/23 58/70/7
f 60/81/23 57/69/24 58/70/7
f 57/69/24 60/81/23 59/82/22
f 59/82/22 60/81/23 61/83/1
f 61/83/1 60/81/23 85/84/4
f 85/84/4 60/81/23 86/80/5
f 69/85/34 104/86/35 65/87/36
f 104/86/35 62/88/37 65/87/36
f 62/88/37 63/89/38 65/87/36
f 63/89/38 105/90/39 65/87/36
f 105/90/39 64/91/40 65/87/36
f 64/91/40 106/92/41 65/87/36
f 106/92/41 107/93/42 65/87/36
f 107/93/42 66/94/43 65/87/36
f 66/94/43 108/95/44 65/87/36
f 108/95/44 109/96/45 65/87/36
f 109/96/45 67/97/46 65/87/36
f 67/97/46 110/98/47 65/87/36
f 110/98/47 111/99/48 65/87/36
f 111/99/48 68/100/49 65/87/36
f 68/100/49 113/101/50 65/87/36
f 113/101/50 69/85/34 65/87/36
f 76/102/34 114/103/51 70/104/36
f 114/103/51 115/105/37 70/104/36
f 115/105/37 116/106/52 70/104/36
f 116/106/52 71/107/53 70/104/36
f 71/107/53 117/108/40 70/104/36
f 117/108/40 118/109/41 70/104/36
f 118/109/41 120/110/54 70/104/36
f 120/110/54 121/111/43 70/104/36
f 121/111/43 72/112/55 70/104/36
f 72/112/55 122/113/45 70/104/36
f 122/113/45 73/114/56 70/104/36
f 73/114/56 123/115/47 70/104/36
f 123/115/47 74/116/57 70/104/36
f 74/116/57 124/117/49 70/104/36
f 124/117/49 75/118/50 70/104/36
f 75/118/50 76/102/34 70/104/36
usemtl Lights_Pod
f 84/119/58 83/120/7 43/121/59
f 43/121/59 83/120/7 44/122/60
f 44/122/60 83/120/7 45/123/61
f 45/123/61 83/120/7 42/124/62
f 42/124/62 83/120/7 39/125/63
f 39/125/63 83/120/7 40/126/64
f 40/126/64 83/120/7 77/127/65
f 77/127/65 83/120/7 38/128/66
f 38/128/66 83/120/7 78/129/67
f 78/129/67 83/120/7 79/130/68
f 79/130/68 83/120/7 80/131/69
f 80/131/69 83/120/7 35/132/70
f 35/132/70 83/120/7 34/133/71
f 34/133/71 83/120/7 81/134/72
f 81/134/72 83/120/7 82/135/73
f 82/135/73 83/120/7 84/119/58
f 57/136/74 91/137/7 59/138/75
f 59/138/75 91/137/7 61/139/76
f 61/139/76 91/137/7 85/140/61
f 85/140/61 91/137/7 86/141/62
f 86/141/62 91/137/7 87/142/63
f 87/142/63 91/137/7 56/143/77
f 56/143/77 91/137/7 54/144/78
f 54/144/78 91/137/7 53/145/79
f 53/145/79 91/137/7 50/146/80
f 50/146/80 91/137/7 52/147/81
f 52/147/81 91/137/7 88/148/69
f 88/148/69 91/137/7 49/149/70
f 49/149/70 91/137/7 89/150/71
f 89/150/71 91/137/7 47/151/82
f 47/151/82 91/137/7 90/152/83
f 90/152/83 91/137/7 57/136/74
f 4/153/58 15/154/73 96/155/7
f 15/154/73 16/156/72 96/155/7
f 16/156/72 17/157/71 96/155/7
f 17/157/71 13/158/70 96/155/7
f 13/158/70 92/159/69 96/155/7
f 92/159/69 93/160/68 96/155/7
f 93/160/68 11/161/67 96/155/7
f 11/161/67 10/162/66 96/155/7
f 10/162/66 8/163/65 96/155/7
f 8/163/65 7/164/64 96/155/7
f 7/164/64 94/165/63 96/155/7
f 94/165/63 6/166/62 96/155/7
f 6/166/62 95/167/61 96/155/7
f 95/167/61 2/168/60 96/155/7
f 2/168/60 3/169/59 96/155/7
f 3/169/59 4/153/58 96/155/7
f 29/170/74 97/171/83 99/172/7
f 97/171/83 98/173/82 99/172/7
f 98/173/82 30/174/71 99/172/7
f 30/174/71 32/175/70 99/172/7
f 32/175/70 28/176/69 99/172/7
f 28/176/69 26/177/81 99/172/7
f 26/177/81 25/178/80 99/172/7
f 25/178/80 24/179/79 99/172/7
f 24/179/79 100/180/78 99/172/7
f 100/180/78 101/181/77 99/172/7
f 101/181/77 102/182/63 99/172/7
f 102/182/63 21/183/62 99/172/7
f 21/183/62 103/184/61 99/172/7
f 103/184/61 18/185/76 99/172/7
f 18/185/76 19/186/75 99/172/7
f 19/186/75 29/170/74 99/172/7
f 69/187/84 104/188/85 112/189/86
f 104/188/85 62/190/87 112/189/86
f 62/190/88 63/191/89 112/189/90
f 63/191/89 105/192/91 112/189/90
f 105/192/91 64/193/92 112/189/90
f 64/193/92 106/194/93 112/189/90
f 106/194/94 107/195/95 112/189/96
f 107/195/95 66/196/97 112/189/96
f 66/196/97 108/197/98 112/189/96
f 108/197/98 109/198/99 112/189/96
f 109/198/100 67/199/101 112/189/102
f 67/199/101 110/200/103 112/189/102
f 110/200/103 111/201/104 112/189/102
f 111/201/104 68/202/105 112/189/102
f 68/202/106 113/203/107 112/189/86
f 113/203/107 69/187/84 112/189/86
f 76/204/84 114/205/108 119/206/86
f 114/205/108 115/207/109 119/206/86
f 115/207/88 116/208/110 119/206/111
f 116/208/110 71/209/112 119/206/111
f 71/209/112 117/210/113 119/206/111
f 117/210/113 118/211/114 119/206/111
f 118/211/115 120/212/116 119/206/96
f 120/212/116 121/213/97 119/206/96
f 121/213/97 72/214/117 119/206/96
f 72/214/117 122/215/118 119/206/96
f 122/215/119 73/216/120 119/206/102
f 73/216/120 123/217/103 119/206/102
f 123/217/103 74/218/121 119/206/102
f 74/218/121 124/219/122 119/206/102
f 124/219/123 75/220/124 119/206/86
f 75/220/124 76/204/84 119/206/86
