# Blender v2.93.18 OBJ File: 'Kohler 350 new 4.blend'
# www.blender.org
mtllib Kohler g350 hood parts.mtl
o hood_parts_x0_bonnet
v 29.487106 -1.081889 36.803860
v 29.421516 -0.940546 35.922371
v 27.877777 -0.863384 36.049530
v 27.924116 -0.127954 36.163708
v 28.663170 -0.096063 35.659378
v 28.616871 -0.831494 35.544807
v 27.943369 -1.004722 36.931030
v 27.989708 -0.269292 37.045593
v 28.748013 -1.113775 37.308582
v 29.533405 -0.346454 36.918423
v 28.794352 -0.378345 37.422760
v 29.816198 -1.881491 39.244011
v 29.840649 -1.493306 39.304642
v 26.034201 -1.340155 37.296383
v 31.591944 -0.991337 35.368038
v 31.567495 -1.379522 35.307411
v 26.058647 -0.951965 37.357010
v 27.768290 -0.512201 33.837723
v 27.743841 -0.900785 33.777489
v -27.642542 -1.045667 37.455437
v -26.750141 -0.096852 36.331024
v -26.820339 -0.959052 37.111740
v -27.429983 -0.797636 35.694813
v -27.466045 -0.059446 35.794415
v -26.714079 -0.835037 36.231422
v -28.252148 -0.884251 36.038902
v -28.288210 -0.146060 36.138504
v -28.358446 -1.008266 36.919212
v -27.678604 -0.307481 37.555431
v -28.394508 -0.270076 37.018822
v -25.273649 -0.970076 34.721184
v -25.546680 -1.146060 38.873150
v -29.197184 -0.705118 34.284580
v -29.863523 -1.303538 38.478664
v -29.178169 -1.094880 34.232212
v -29.844465 -1.693305 38.425900
v -25.527664 -1.535823 38.820782
v -25.292665 -0.580314 34.773552
v -18.970356 0.286228 2.422830
v -18.246893 -1.518099 0.069681
v -18.246893 0.415753 0.212202
v -18.970356 -3.281877 0.382280
v -18.246893 -2.146448 -0.665356
v -19.693857 -1.518099 0.069681
v -19.693857 0.415753 0.212202
v -18.970356 -2.559832 1.168108
v -19.693857 -2.146448 -0.665356
v -18.970356 -3.563764 -0.607878
v 18.970356 -3.281877 0.382280
v 18.970356 -2.559832 1.168108
v 18.970356 -3.563764 -0.607878
v 18.246893 0.415753 0.212202
v 19.693819 0.415753 0.212202
v 18.246893 -1.518099 0.069681
v 19.693819 -2.146448 -0.665356
v 18.246893 -2.146448 -0.665356
v 18.970356 0.286228 2.422830
v 19.693819 -1.518099 0.069681
v -32.637299 -0.428735 -0.000000
v -26.311008 -0.042117 -0.000000
v -33.172138 -0.486213 0.433461
v -33.062057 -0.466919 0.108659
v -16.810478 -0.311022 21.835779
v -18.009373 0.350399 0.021256
v -33.172138 -0.813772 10.119271
v -33.172138 -1.283852 21.835779
v -17.116028 0.694102 0.018107
v -15.499496 0.657484 6.568883
v -6.420853 0.904337 0.004327
v -11.259347 0.767719 6.568883
v -12.537455 0.753546 6.568883
v -11.150057 0.600398 13.667688
v -15.605402 0.484254 13.666900
v -15.351190 0.264176 21.824755
v -15.331701 0.023231 29.996788
v -12.638911 0.126774 30.466473
v -9.860215 0.148424 30.995602
v -11.350252 0.386617 30.417259
v -11.271631 0.194489 28.651514
v -11.154584 0.388191 21.838144
v -6.420853 -0.370861 21.822393
v 0.000000 0.975200 0.000000
v -6.420853 -0.664169 37.438503
v -33.172138 -1.734248 31.936152
v -31.177298 -5.028338 43.577469
v -33.172138 -4.934243 43.069206
v -33.172138 -2.065744 36.781418
v -22.017830 -5.649991 45.744793
v -15.566464 -1.022439 36.732990
v -17.393705 -5.555895 45.814468
v -15.151859 -5.513374 45.802265
v -12.054463 -5.513374 45.802265
v -6.420853 -5.513374 45.802265
v 0.000000 -5.513374 45.802265
v 0.000000 -0.299997 21.817669
v 6.420853 -0.664169 37.438503
v 0.000000 -0.593306 37.433781
v 6.420853 -5.513374 45.802265
v 12.054463 -5.513374 45.802265
v 15.151859 -5.513374 45.802265
v 17.393705 -5.555895 45.814468
v 22.017830 -5.649991 45.744793
v 33.172138 -4.934243 43.069206
v 33.172138 -2.065744 36.781418
v 31.177298 -5.028338 43.577469
v 33.172138 -1.734248 31.936152
v 33.172138 -0.813772 10.119271
v 33.172138 -1.283852 21.835779
v 33.062057 -0.466919 0.108659
v 33.172138 -0.486213 0.433461
v 26.311008 -0.042117 -0.000000
v 32.637299 -0.428735 -0.000000
v 18.009373 0.350399 0.021256
v 17.116028 0.694102 0.018107
v 15.499496 0.657484 6.568883
v 15.630086 0.484254 13.666900
v 15.331701 0.023231 29.996788
v 15.433039 0.264176 21.824755
v 16.810438 -0.311022 21.835779
v 12.537455 0.753546 6.509434
v 11.259347 0.767719 6.568883
v 11.167025 0.600398 13.667688
v 6.420853 0.904337 0.004327
v 11.266748 0.388191 21.838144
v 6.420853 -0.370861 21.822393
v 11.271631 0.194489 28.651514
v 15.566464 -1.022439 36.732990
v 11.431433 0.085042 32.099541
v 11.631276 -0.027559 30.658201
v 12.638911 0.126774 30.466473
v 28.564589 -0.154724 36.075905
v 29.200020 -0.240944 36.373940
v 28.945887 -0.181495 36.094021
v 29.222303 0.112994 36.429054
v 29.200373 0.055511 36.806618
v 29.178089 -0.298423 36.751896
v 28.586872 0.199214 36.131023
v 28.301714 0.177559 36.385361
v 28.279430 -0.175985 36.330242
v 28.257504 -0.233463 36.708191
v 28.511635 -0.292913 36.988110
v 28.892973 -0.319683 37.006226
v 28.915218 0.033861 37.060947
v 28.533918 0.060631 37.042831
v -27.123014 -0.125194 36.381420
v -27.140339 0.229922 36.429451
v -27.019749 -0.169292 36.747166
v -27.206915 -0.222833 37.076698
v -27.224276 0.131889 37.124336
v -27.592306 0.100392 37.224724
v -27.574944 -0.254724 37.176693
v -27.473604 0.238975 36.241261
v -27.456244 -0.116141 36.193230
v -27.824274 -0.147637 36.293625
v -28.011478 -0.201178 36.622757
v -27.908211 -0.245276 36.988895
v -28.028839 0.153938 36.670788
v 29.467815 -0.205116 36.036537
v -26.856441 -0.220867 37.211338
v 28.968170 0.172444 36.149139
v 28.279783 0.120081 36.763309
v -27.037071 0.185829 36.795197
v -27.925533 0.109845 37.036533
v -27.841637 0.207479 36.341263
vt 0.906250 -0.922363
vt 0.906250 -0.917480
vt 0.901855 -0.917480
vt 0.901855 -0.922363
vt 0.906250 -0.913086
vt 0.901855 -0.913086
vt 0.906250 -0.926758
vt 0.906250 -0.922363
vt 0.901855 -0.922363
vt 0.901855 -0.926758
vt 0.906250 -0.917480
vt 0.901855 -0.917480
vt 0.906250 -0.913086
vt 0.901855 -0.913086
vt 0.906250 -0.926758
vt 0.901855 -0.926758
vt 0.891602 -0.932129
vt 0.881836 -0.932129
vt 0.881348 -0.942383
vt 0.892090 -0.942383
vt 0.971680 -0.860840
vt 0.970703 -0.883789
vt 0.994141 -0.883301
vt 0.992676 -0.860840
vt 0.969727 -0.860840
vt 0.968750 -0.883789
vt 0.970703 -0.885742
vt 0.994141 -0.885254
vt 0.996094 -0.883301
vt 0.995117 -0.860840
vt 0.992676 -0.858887
vt 0.971680 -0.858887
vt 0.906250 -0.922363
vt 0.906250 -0.917480
vt 0.901855 -0.917480
vt 0.901855 -0.922363
vt 0.906250 -0.913086
vt 0.901855 -0.913086
vt 0.906250 -0.926758
vt 0.906250 -0.922363
vt 0.901855 -0.922363
vt 0.901855 -0.926758
vt 0.906250 -0.917480
vt 0.901855 -0.917480
vt 0.906250 -0.913086
vt 0.901855 -0.913086
vt 0.906250 -0.926758
vt 0.901855 -0.926758
vt 0.891602 -0.932129
vt 0.881836 -0.932129
vt 0.881348 -0.942383
vt 0.892090 -0.942383
vt 0.971680 -0.860840
vt 0.970703 -0.883789
vt 0.994141 -0.883301
vt 0.992676 -0.860840
vt 0.969727 -0.860840
vt 0.968750 -0.883789
vt 0.970703 -0.885742
vt 0.994141 -0.885254
vt 0.996094 -0.883301
vt 0.995117 -0.860840
vt 0.992676 -0.858887
vt 0.971680 -0.858887
vt 0.805176 -0.174194
vt 0.795898 -0.174072
vt 0.800293 -0.186279
vt 0.805176 -0.182251
vt 0.803223 -0.189575
vt 0.808105 -0.185059
vt 0.807129 -0.191040
vt 0.873047 -0.006111
vt 0.873047 -0.012672
vt 0.880859 -0.012672
vt 0.880859 -0.006111
vt 0.885254 -0.012672
vt 0.885254 -0.006111
vt 0.805176 -0.174194
vt 0.805176 -0.182251
vt 0.808105 -0.185059
vt 0.800293 -0.186279
vt 0.795898 -0.174072
vt 0.805176 -0.174194
vt 0.805176 -0.182251
vt 0.803223 -0.189575
vt 0.808105 -0.185059
vt 0.807129 -0.191040
vt 0.880859 -0.012672
vt 0.873047 -0.012672
vt 0.873047 -0.006111
vt 0.880859 -0.006111
vt 0.885254 -0.012672
vt 0.885254 -0.006111
vt 0.805176 -0.182251
vt 0.805176 -0.174194
vt 0.808105 -0.185059
vt 0.996582 -0.160278
vt 0.997070 -0.159302
vt 0.997070 -0.144287
vt 0.996582 -0.124634
vt 0.973145 -0.160522
vt 0.995605 -0.160522
vt 0.945313 -0.121826
vt 0.945313 -0.160522
vt 0.921387 -0.160522
vt 0.997070 -0.122559
vt 0.981445 -0.118713
vt 0.997070 -0.097229
vt 0.981445 -0.111694
vt 0.981445 -0.108704
vt 0.964355 -0.108704
vt 0.964355 -0.118652
vt 0.945313 -0.118530
vt 0.925781 -0.118286
vt 0.924805 -0.111938
vt 0.923340 -0.105347
vt 0.924805 -0.108887
vt 0.929199 -0.108704
vt 0.945313 -0.097229
vt 0.945313 -0.108704
vt 0.945313 -0.082031
vt 0.997070 -0.082031
vt 0.997070 -0.066834
vt 0.908203 -0.097229
vt 0.910156 -0.118835
vt 0.909668 -0.160522
vt 0.893555 -0.155762
vt 0.895020 -0.160522
vt 0.888672 -0.134155
vt 0.888672 -0.123169
vt 0.888672 -0.117859
vt 0.888672 -0.110535
vt 0.888672 -0.097229
vt 0.888672 -0.082031
vt 0.908203 -0.082031
vt 0.908203 -0.066834
vt 0.888672 -0.066834
vt 0.888672 -0.053528
vt 0.910156 -0.045196
vt 0.888672 -0.046204
vt 0.888672 -0.040894
vt 0.888672 -0.029953
vt 0.893555 -0.008278
vt 0.909668 -0.003557
vt 0.895020 -0.003557
vt 0.921387 -0.003557
vt 0.945313 -0.042267
vt 0.945313 -0.003557
vt 0.973145 -0.003557
vt 0.996582 -0.003819
vt 0.995605 -0.003559
vt 0.997070 -0.019791
vt 0.997070 -0.004822
vt 0.996582 -0.039429
vt 0.997070 -0.041534
vt 0.981445 -0.045380
vt 0.964355 -0.045441
vt 0.945313 -0.045532
vt 0.925781 -0.045776
vt 0.924805 -0.052124
vt 0.981445 -0.052368
vt 0.981445 -0.055389
vt 0.964355 -0.055389
vt 0.945313 -0.066834
vt 0.945313 -0.055389
vt 0.929199 -0.055359
vt 0.920898 -0.054993
vt 0.924316 -0.054504
vt 0.892090 -0.902344
vt 0.889648 -0.902344
vt 0.889648 -0.904785
vt 0.892090 -0.904785
vt 0.892090 -0.906738
vt 0.889648 -0.906738
vt 0.889648 -0.909180
vt 0.892090 -0.909180
vt 0.892090 -0.911133
vt 0.889648 -0.911133
vt 0.889648 -0.909180
vt 0.889648 -0.911133
vt 0.892090 -0.911133
vt 0.892090 -0.909180
vt 0.892090 -0.906738
vt 0.889648 -0.906738
vt 0.889648 -0.904785
vt 0.892090 -0.904785
vt 0.892090 -0.902344
vt 0.889648 -0.902344
vt 0.892090 -0.902344
vt 0.889648 -0.902344
vt 0.889648 -0.904785
vt 0.892090 -0.904785
vt 0.892090 -0.906738
vt 0.889648 -0.906738
vt 0.889648 -0.909180
vt 0.892090 -0.909180
vt 0.892090 -0.911133
vt 0.889648 -0.911133
vt 0.889648 -0.909180
vt 0.889648 -0.911133
vt 0.892090 -0.911133
vt 0.892090 -0.909180
vt 0.892090 -0.906738
vt 0.889648 -0.906738
vt 0.889648 -0.904785
vt 0.892090 -0.904785
vt 0.892090 -0.902344
vt 0.889648 -0.902344
vt 0.892578 -0.916992
vt 0.888184 -0.919434
vt 0.888184 -0.924316
vt 0.892578 -0.926758
vt 0.896973 -0.924316
vt 0.896973 -0.919434
vt 0.892578 -0.916992
vt 0.888184 -0.919434
vt 0.888184 -0.924316
vt 0.892578 -0.926758
vt 0.896973 -0.924316
vt 0.896973 -0.919434
vt 0.905762 -0.903320
vt 0.903809 -0.902832
vt 0.901855 -0.903320
vt 0.906738 -0.905273
vt 0.905762 -0.907227
vt 0.901855 -0.907227
vt 0.903809 -0.908203
vt 0.900879 -0.905273
vt 0.905762 -0.903320
vt 0.903809 -0.902832
vt 0.901855 -0.903320
vt 0.906738 -0.905273
vt 0.905762 -0.907227
vt 0.901855 -0.907227
vt 0.903809 -0.908203
vt 0.900879 -0.905273
vn 0.9954 -0.0499 -0.0820
vn 0.9954 -0.0499 -0.0821
vn 0.4343 0.1116 -0.8938
vn 0.4345 0.1119 -0.8937
vn 0.4343 0.1117 -0.8938
vn 0.4341 0.1114 -0.8939
vn -0.5611 0.1616 -0.8118
vn -0.5613 0.1614 -0.8117
vn -0.5612 0.1616 -0.8118
vn -0.5610 0.1618 -0.8119
vn -0.9954 0.0500 0.0821
vn -0.9954 0.0499 0.0821
vn -0.9954 0.0500 0.0820
vn -0.4343 -0.1117 0.8938
vn -0.4345 -0.1114 0.8938
vn -0.4343 -0.1116 0.8938
vn -0.4341 -0.1119 0.8939
vn 0.5611 -0.1616 0.8118
vn 0.5613 -0.1618 0.8117
vn 0.5612 -0.1616 0.8118
vn 0.5610 -0.1614 0.8119
vn -0.0621 -0.9862 -0.1534
vn -0.0621 -0.9862 -0.1533
vn -0.0622 -0.9862 -0.1534
vn 0.0622 0.9862 0.1534
vn -0.4673 -0.1076 0.8775
vn 0.9127 -0.1186 0.3909
vn 0.9127 -0.1185 0.3909
vn 0.3817 0.1190 -0.9166
vn 0.3816 0.1181 -0.9168
vn 0.3816 0.1182 -0.9167
vn 0.3818 0.1191 -0.9166
vn -0.8987 0.1219 -0.4213
vn -0.8986 0.1224 -0.4213
vn -0.8987 0.1218 -0.4213
vn 0.3931 -0.1043 0.9135
vn 0.3929 -0.1041 0.9137
vn 0.3931 -0.1043 0.9136
vn 0.3933 -0.1045 0.9134
vn 0.9917 0.0317 0.1242
vn 0.9918 0.0317 0.1242
vn 0.5988 0.1358 -0.7893
vn 0.5987 0.1358 -0.7893
vn -0.3933 0.1040 -0.9135
vn -0.9917 -0.0317 -0.1242
vn -0.5986 -0.1359 0.7894
vn -0.5985 -0.1362 0.7895
vn -0.5986 -0.1360 0.7894
vn -0.5988 -0.1358 0.7893
vn 0.0483 -0.9899 -0.1336
vn 0.0484 -0.9899 -0.1336
vn -0.0483 0.9899 0.1336
vn -0.0484 0.9899 0.1336
vn -0.9867 -0.0266 -0.1605
vn -0.9867 -0.0265 -0.1605
vn -0.0852 -0.1377 0.9868
vn -0.0853 -0.1368 0.9869
vn -0.0852 -0.1378 0.9868
vn 0.9970 0.0396 0.0672
vn 0.1187 0.1379 -0.9833
vn 0.9246 -0.1074 0.3655
vn 0.9443 -0.1328 0.3012
vn 0.9141 -0.2182 0.3418
vn 0.8896 -0.1638 0.4263
vn 0.9003 -0.3753 0.2205
vn 0.9032 -0.3602 0.2334
vn 0.8855 -0.4469 0.1272
vn 0.0000 0.0735 -0.9973
vn 0.0000 0.7601 -0.6498
vn -0.9290 -0.0943 0.3580
vn -0.9505 -0.0228 0.3098
vn -0.9175 -0.2119 0.3366
vn -0.9025 -0.2574 0.3454
vn -0.9016 -0.3606 0.2389
vn -0.9020 -0.3711 0.2207
vn -0.8855 -0.4469 0.1272
vn -0.9141 -0.2182 0.3418
vn -0.9443 -0.1328 0.3012
vn -0.9246 -0.1074 0.3655
vn -0.8896 -0.1638 0.4263
vn -0.9003 -0.3753 0.2205
vn -0.9032 -0.3602 0.2334
vn 0.9175 -0.2118 0.3365
vn 0.9505 -0.0228 0.3097
vn 0.9290 -0.0943 0.3579
vn 0.9025 -0.2574 0.3454
vn 0.9016 -0.3606 0.2389
vn 0.9020 -0.3711 0.2207
vn 0.0606 -0.9919 -0.1116
vn 0.0378 -0.7657 -0.6420
vn 0.0559 -0.9978 -0.0355
vn 0.0752 -0.9966 -0.0337
vn 0.0575 -0.9978 -0.0339
vn 0.2048 -0.9779 -0.0411
vn 0.2181 -0.9751 -0.0397
vn 0.0593 -0.9973 -0.0422
vn 0.0579 -0.9967 -0.0563
vn 0.2033 -0.9786 -0.0324
vn 0.1203 -0.9923 -0.0306
vn 0.0004 -0.9992 -0.0397
vn 0.0268 -0.9996 0.0021
vn 0.0033 -0.9998 -0.0184
vn -0.1020 -0.9936 -0.0488
vn 0.4753 -0.8797 -0.0155
vn 0.3663 -0.9299 -0.0324
vn 0.6531 -0.7522 -0.0875
vn 0.1699 -0.4559 -0.8736
vn -0.0891 -0.9949 -0.0482
vn -0.1939 -0.9762 0.0976
vn -0.1152 -0.9929 0.0295
vn -0.0683 -0.9971 -0.0331
vn -0.1584 -0.9870 -0.0283
vn -0.0000 -0.9993 -0.0386
vn -0.0000 -0.9983 -0.0583
vn -0.0004 -0.9992 -0.0398
vn 0.0092 -0.9574 -0.2886
vn 0.0503 -0.9872 -0.1514
vn 0.0504 -0.9591 -0.2787
vn 0.6695 -0.7372 -0.0911
vn 0.0575 -0.9676 -0.2460
vn 0.0536 -0.9071 -0.4175
vn 0.0627 -0.9080 -0.4142
vn 0.0356 -0.8991 -0.4362
vn 0.0203 -0.8962 -0.4433
vn 0.0071 -0.8960 -0.4440
vn 0.0194 -0.8830 -0.4690
vn 0.0000 -0.8651 -0.5016
vn -0.0000 -0.8640 -0.5035
vn -0.0000 -0.9625 -0.2711
vn -0.0072 -0.9576 -0.2881
vn -0.0194 -0.8830 -0.4690
vn -0.0554 -0.9577 -0.2825
vn -0.0071 -0.8960 -0.4440
vn -0.0203 -0.8962 -0.4433
vn -0.0356 -0.8991 -0.4362
vn -0.0536 -0.9071 -0.4175
vn -0.0575 -0.9676 -0.2460
vn -0.0627 -0.9080 -0.4142
vn -0.0579 -0.9967 -0.0563
vn -0.2269 -0.9731 -0.0401
vn -0.0593 -0.9973 -0.0422
vn -0.0559 -0.9978 -0.0355
vn -0.0575 -0.9978 -0.0339
vn -0.0752 -0.9966 -0.0337
vn -0.0606 -0.9919 -0.1116
vn -0.0378 -0.7657 -0.6420
vn -0.2048 -0.9779 -0.0411
vn -0.2033 -0.9786 -0.0324
vn -0.1207 -0.9922 -0.0307
vn -0.4944 -0.8692 -0.0132
vn -0.3849 -0.9224 -0.0331
vn -0.6547 -0.7508 -0.0879
vn -0.6695 -0.7372 -0.0911
vn -0.0307 -0.9962 -0.0810
vn -0.0642 -0.9865 -0.1509
vn -0.0269 -0.9996 0.0022
vn -0.0034 -0.9998 -0.0183
vn 0.1014 -0.9936 -0.0491
vn 0.0664 -0.9972 -0.0349
vn 0.1548 -0.9876 -0.0279
vn 0.1386 -0.9901 -0.0236
vn 0.0060 -0.9962 -0.0867
vn 0.1692 -0.9805 0.1001
vn 0.0574 0.1501 -0.9870
vn 0.7451 0.0566 -0.6645
vn 0.7452 0.0566 -0.6645
vn 0.9964 -0.0701 0.0472
vn 0.9964 -0.0700 0.0472
vn 0.6641 -0.1550 0.7314
vn 0.6640 -0.1549 0.7315
vn 0.6641 -0.1549 0.7314
vn -0.6640 0.1558 -0.7313
vn -0.6641 0.1557 -0.7313
vn -0.6639 0.1559 -0.7314
vn -0.9964 0.0701 -0.0471
vn -0.9964 0.0702 -0.0471
vn -0.9964 0.0701 -0.0472
vn -0.7449 -0.0563 0.6648
vn -0.7447 -0.0567 0.6650
vn -0.7451 -0.0559 0.6646
vn -0.0574 -0.1492 0.9871
vn -0.0573 -0.1492 0.9871
vn 0.9617 0.0823 -0.2616
vn 0.8708 -0.0236 0.4911
vn 0.8709 -0.0239 0.4908
vn 0.8706 -0.0234 0.4914
vn 0.2702 -0.1156 0.9558
vn 0.2706 -0.1151 0.9558
vn 0.2698 -0.1161 0.9559
vn -0.4895 -0.1398 0.8607
vn -0.4891 -0.1403 0.8609
vn -0.4895 -0.1399 0.8607
vn -0.4900 -0.1393 0.8605
vn 0.4897 0.1403 -0.8605
vn 0.4898 0.1403 -0.8605
vn -0.2701 0.1156 -0.9559
vn -0.2706 0.1160 -0.9557
vn -0.2701 0.1155 -0.9559
vn -0.2697 0.1151 -0.9561
vn -0.8708 0.0236 -0.4911
vn -0.8709 0.0233 -0.4910
vn -0.8706 0.0239 -0.4913
vn -0.9617 -0.0822 0.2615
vn -0.9617 -0.0824 0.2613
vn -0.9616 -0.0820 0.2617
vn 0.0619 0.9862 0.1534
vn 0.0621 0.9862 0.1534
vn 0.0620 0.9862 0.1533
vn 0.0619 0.9863 0.1531
vn 0.0619 0.9862 0.1533
vn 0.0617 0.9862 0.1535
vn 0.0619 0.9862 0.1535
vn 0.0620 0.9862 0.1534
vn 0.0614 0.9862 0.1537
vn 0.0618 0.9862 0.1536
vn -0.0487 0.9898 0.1337
vn -0.0482 0.9900 0.1330
vn -0.0485 0.9899 0.1335
vn -0.0479 0.9897 0.1350
vn -0.0482 0.9899 0.1337
vn -0.0480 0.9899 0.1334
vn -0.0468 0.9901 0.1326
vn -0.0485 0.9899 0.1333
usemtl Matt
s 1
f 1/1/1 2/2/2 158/3/2
f 158/3/2 10/4/1 1/1/1
f 2/2/3 6/5/4 5/6/5
f 5/6/5 158/3/6 2/2/3
f 6/7/7 3/8/8 4/9/9
f 4/9/9 5/10/10 6/7/7
f 3/8/11 7/11/12 8/12/11
f 8/12/11 4/9/13 3/8/11
f 7/11/14 9/13/15 11/14/16
f 11/14/16 8/12/17 7/11/14
f 9/15/18 1/1/19 10/4/20
f 10/4/20 11/16/21 9/15/18
f 14/17/22 19/18/23 16/19/22
f 16/19/22 12/20/24 14/17/22
f 17/21/25 13/22/25 15/23/25
f 15/23/25 18/24/25 17/21/25
f 14/25/26 12/26/26 13/22/26
f 13/22/26 17/21/26 14/25/26
f 12/27/27 16/28/28 15/23/28
f 15/23/28 13/22/27 12/27/27
f 16/29/29 19/30/30 18/24/31
f 18/24/31 15/23/32 16/29/29
f 19/31/33 14/32/34 17/21/34
f 17/21/34 18/24/35 19/31/33
f 20/33/36 22/34/37 159/35/38
f 159/35/38 29/36/39 20/33/36
f 22/34/40 25/37/41 21/38/41
f 21/38/41 159/35/40 22/34/40
f 25/39/42 23/40/43 24/41/43
f 24/41/43 21/42/42 25/39/42
f 23/40/44 26/43/44 27/44/44
f 27/44/44 24/41/44 23/40/44
f 26/43/45 28/45/45 30/46/45
f 30/46/45 27/44/45 26/43/45
f 28/47/46 20/33/47 29/36/48
f 29/36/48 30/48/49 28/47/46
f 35/49/50 31/50/51 37/51/50
f 37/51/50 36/52/50 35/49/50
f 33/53/52 34/54/52 32/55/52
f 32/55/52 38/56/53 33/53/52
f 35/57/54 36/58/55 34/54/55
f 34/54/55 33/53/54 35/57/54
f 36/59/56 37/60/57 32/55/57
f 32/55/57 34/54/58 36/59/56
f 37/61/59 31/62/59 38/56/59
f 38/56/59 32/55/59 37/61/59
f 31/63/60 35/64/60 33/53/60
f 33/53/60 38/56/60 31/63/60
f 41/65/61 39/66/62 46/67/63
f 46/67/63 40/68/64 41/65/61
f 40/68/64 46/67/63 42/69/65
f 42/69/65 43/70/66 40/68/64
f 43/70/66 42/69/65 48/71/67
f 45/72/68 41/73/68 40/74/68
f 40/74/68 44/75/68 45/72/68
f 44/75/69 40/74/69 43/76/69
f 43/76/69 47/77/69 44/75/69
f 39/66/70 45/78/71 44/79/72
f 44/79/72 46/67/73 39/66/70
f 46/67/73 44/79/72 47/80/74
f 47/80/74 42/69/75 46/67/73
f 42/69/75 47/80/74 48/71/76
f 50/81/77 57/82/78 52/83/79
f 52/83/79 54/84/80 50/81/77
f 49/85/81 50/81/77 54/84/80
f 54/84/80 56/86/82 49/85/81
f 56/86/82 51/87/76 49/85/81
f 54/88/68 52/89/68 53/90/68
f 53/90/68 58/91/68 54/88/68
f 56/92/69 54/88/69 58/91/69
f 58/91/69 55/93/69 56/92/69
f 58/94/83 53/95/84 57/82/85
f 57/82/85 50/81/86 58/94/83
f 55/96/87 58/94/83 50/81/86
f 50/81/86 49/85/88 55/96/87
f 49/85/88 51/87/67 55/96/87
f 62/97/89 59/98/89 60/99/89
f 62/97/90 60/99/90 64/100/90
f 65/101/91 61/102/92 62/97/93
f 65/101/91 62/97/93 64/100/94
f 63/103/95 65/101/91 64/100/94
f 63/103/95 66/104/96 65/101/91
f 63/103/95 84/105/97 66/104/96
f 64/100/94 67/106/98 63/103/95
f 63/103/95 67/106/98 68/107/99
f 69/108/100 68/107/99 67/106/98
f 69/108/100 71/109/101 68/107/99
f 69/108/100 70/110/102 71/109/101
f 72/111/103 70/110/102 69/108/100
f 68/107/99 73/112/104 63/103/95
f 63/103/95 73/112/104 74/113/105
f 63/103/95 74/113/105 75/114/106
f 75/114/107 76/115/107 77/116/107
f 77/116/108 78/117/109 79/118/110
f 77/116/108 79/118/110 81/119/111
f 79/118/110 80/120/112 81/119/111
f 80/120/112 72/111/103 81/119/111
f 69/108/100 81/119/111 72/111/103
f 95/121/113 81/119/111 69/108/100
f 69/108/100 82/122/114 95/121/113
f 95/121/113 82/122/114 123/123/115
f 77/116/108 81/119/111 83/124/116
f 83/124/116 81/119/111 95/121/113
f 83/124/116 75/114/117 77/116/108
f 83/124/116 89/125/118 75/114/117
f 75/114/106 89/125/119 63/103/95
f 63/103/95 89/125/118 84/105/97
f 89/125/118 87/126/120 84/105/97
f 85/127/121 86/128/122 87/126/120
f 89/125/118 85/127/121 87/126/120
f 89/125/118 88/129/123 85/127/121
f 89/125/118 90/130/124 88/129/123
f 89/125/118 91/131/125 90/130/124
f 89/125/118 92/132/126 91/131/125
f 92/132/126 89/125/118 83/124/116
f 83/124/116 93/133/127 92/132/126
f 94/134/128 93/133/127 83/124/116
f 83/124/116 97/135/129 94/134/128
f 95/121/113 97/135/129 83/124/116
f 94/134/128 97/135/129 96/136/130
f 96/136/130 97/135/129 95/121/113
f 96/136/130 98/137/127 94/134/128
f 99/138/131 98/137/127 96/136/130
f 96/136/130 127/139/132 99/138/131
f 127/139/132 100/140/133 99/138/131
f 127/139/132 101/141/134 100/140/133
f 127/139/132 102/142/135 101/141/134
f 127/139/132 105/143/136 102/142/135
f 104/144/137 103/145/138 105/143/136
f 127/139/132 104/144/137 105/143/136
f 106/146/139 104/144/137 127/139/132
f 119/147/140 106/146/139 127/139/132
f 119/147/140 108/148/141 106/146/139
f 119/147/140 107/149/142 108/148/141
f 109/150/143 110/151/144 107/149/142
f 111/152/145 112/153/145 109/150/145
f 113/154/146 111/152/146 109/150/146
f 113/154/147 109/150/143 107/149/142
f 119/147/140 113/154/147 107/149/142
f 113/154/147 119/147/140 114/155/148
f 115/156/149 114/155/148 119/147/140
f 123/123/115 114/155/148 115/156/149
f 119/147/140 116/157/150 115/156/149
f 119/147/140 118/158/151 116/157/150
f 117/159/152 118/158/151 119/147/140
f 119/147/140 127/139/153 117/159/152
f 130/160/154 117/159/155 127/139/132
f 123/123/115 115/156/149 120/161/156
f 123/123/115 120/161/156 121/162/157
f 123/123/115 121/162/157 122/163/158
f 122/163/158 125/164/159 123/123/115
f 123/123/115 125/164/159 95/121/113
f 124/165/160 125/164/159 122/163/158
f 125/164/159 124/165/160 126/166/161
f 95/121/113 125/164/159 96/136/130
f 96/136/130 125/164/159 126/166/161
f 96/136/130 126/166/161 128/167/162
f 127/139/132 96/136/130 128/167/162
f 130/160/154 127/139/132 128/167/162
f 129/168/163 130/160/154 128/167/162
f 131/169/164 137/170/164 160/171/164
f 160/171/164 133/172/164 131/169/164
f 132/173/165 133/172/166 160/171/165
f 160/171/165 134/174/165 132/173/165
f 132/173/167 134/174/167 135/175/167
f 135/175/167 136/176/168 132/173/167
f 142/177/169 136/176/170 135/175/171
f 135/175/171 143/178/169 142/177/169
f 138/179/172 137/180/173 131/181/172
f 131/181/172 139/182/174 138/179/172
f 138/179/175 139/182/176 140/183/175
f 140/183/175 161/184/177 138/179/175
f 144/185/178 161/184/179 140/183/178
f 140/183/178 141/186/180 144/185/178
f 144/185/181 141/186/182 142/187/181
f 142/187/181 143/188/181 144/185/181
f 145/189/183 146/190/183 162/191/183
f 162/191/183 147/192/183 145/189/183
f 148/193/184 147/192/185 162/191/184
f 162/191/184 149/194/186 148/193/184
f 148/193/187 149/194/188 150/195/187
f 150/195/187 151/196/189 148/193/187
f 156/197/190 151/196/191 150/195/192
f 150/195/192 163/198/193 156/197/190
f 152/199/194 146/200/194 145/201/194
f 145/201/194 153/202/195 152/199/194
f 152/199/196 153/202/197 154/203/198
f 154/203/198 164/204/199 152/199/196
f 157/205/200 164/204/201 154/203/200
f 154/203/200 155/206/202 157/205/200
f 157/205/203 155/206/204 156/207/203
f 156/207/203 163/208/205 157/205/203
f 5/209/206 4/210/207 8/211/208
f 8/211/208 11/212/209 10/213/210
f 5/209/206 8/211/208 10/213/210
f 158/214/211 5/209/206 10/213/210
f 21/215/53 24/216/53 27/217/53
f 27/217/53 30/218/53 29/219/53
f 21/215/53 27/217/53 29/219/53
f 159/220/53 21/215/53 29/219/53
f 160/221/212 137/222/213 138/223/212
f 134/224/214 160/221/212 135/225/212
f 160/221/212 138/223/212 135/225/212
f 144/226/212 143/227/206 135/225/212
f 138/223/212 144/226/212 135/225/212
f 138/223/212 161/228/215 144/226/212
f 162/229/216 146/230/217 152/231/218
f 149/232/219 162/229/216 150/233/220
f 162/229/216 152/231/218 150/233/220
f 157/234/221 163/235/222 150/233/220
f 152/231/218 157/234/221 150/233/220
f 152/231/218 164/236/223 157/234/221
