# Blender v2.93.18 OBJ File: 'Ferrari 250 GT 12.blend'
# www.blender.org
mtllib Ferrari 250 GT steering logo.mtl
o steering_logo_movsteer_1.003
v -0.520765 -0.222664 -0.047912
v -0.459348 -0.321248 -0.051478
v -0.553838 -0.112095 -0.050250
v -0.005807 0.002687 -0.006248
v -0.945961 -0.193956 -0.103021
v -0.785331 -0.554026 -0.100657
v -0.884545 -0.389690 -0.099690
v -0.383759 -0.410888 -0.052007
v -0.653049 -0.709415 -0.098582
v -0.289271 -0.476639 -0.049405
v -0.487693 -0.824459 -0.097764
v -0.308169 -0.909626 -0.096771
v -0.180611 -0.525929 -0.051189
v -0.067223 -0.551335 -0.049843
v 0.088682 -0.948446 -0.099986
v 0.046164 -0.551335 -0.049843
v -0.105018 -0.954443 -0.097034
v 0.164272 -0.525929 -0.051189
v 0.272933 -0.476639 -0.049405
v 0.287107 -0.909626 -0.096771
v 0.471360 -0.828931 -0.099284
v 0.631989 -0.709415 -0.098582
v 0.367423 -0.410888 -0.052007
v 0.447736 -0.321248 -0.051478
v 0.499705 -0.227139 -0.049433
v 0.868209 -0.389690 -0.099690
v 0.773719 -0.560021 -0.097704
v 0.929625 -0.195476 -0.098548
v 0.537500 -0.112095 -0.050250
v 0.551673 0.002948 -0.051067
v 0.537500 0.122464 -0.050365
v 0.953248 0.004734 -0.100359
v 0.929625 0.204941 -0.102171
v 0.504429 0.233037 -0.052703
v 0.868209 0.399160 -0.101028
v 0.773719 0.565016 -0.104534
v 0.367423 0.422779 -0.053082
v 0.447736 0.333144 -0.053608
v 0.636713 0.718885 -0.102136
v 0.272933 0.487012 -0.051210
v 0.471360 0.833930 -0.102954
v 0.164272 0.537825 -0.053898
v 0.291830 0.919091 -0.103948
v 0.050887 0.561710 -0.050770
v 0.088682 0.963912 -0.103683
v -0.105018 0.959440 -0.105203
v -0.180611 0.537825 -0.053898
v -0.062500 0.561710 -0.050770
v -0.303443 0.919091 -0.103948
v -0.487693 0.838403 -0.101434
v -0.284548 0.487012 -0.051210
v -0.379033 0.422779 -0.053082
v -0.459348 0.333144 -0.053608
v -0.648325 0.718885 -0.102136
v -0.785331 0.569486 -0.103015
v -0.884545 0.399160 -0.101028
v -0.945961 0.204941 -0.102171
v -0.553838 0.122464 -0.050365
v -0.516041 0.237510 -0.051183
v -0.568009 0.007423 -0.049546
v -0.969582 0.004734 -0.100359
vt 0.123200 0.123700
vt 0.061300 0.096000
vt 0.068300 0.084200
vt 0.028900 0.055900
vt 0.009500 0.099700
vt 0.057000 0.109700
vt 0.016900 0.076100
vt 0.077800 0.073500
vt 0.045300 0.037500
vt 0.089300 0.065100
vt 0.064900 0.023100
vt 0.102200 0.059400
vt 0.087100 0.013200
vt 0.116300 0.056200
vt 0.111300 0.007900
vt 0.134700 0.008100
vt 0.129900 0.056400
vt 0.144000 0.059300
vt 0.156900 0.065000
vt 0.158900 0.013100
vt 0.181100 0.023000
vt 0.200800 0.037200
vt 0.168400 0.073300
vt 0.178100 0.084000
vt 0.184800 0.095800
vt 0.229100 0.075900
vt 0.217500 0.055500
vt 0.236800 0.099300
vt 0.189300 0.109500
vt 0.190800 0.123600
vt 0.189400 0.137600
vt 0.239400 0.123500
vt 0.236900 0.147700
vt 0.185100 0.151400
vt 0.229500 0.171300
vt 0.217500 0.191500
vt 0.168500 0.173900
vt 0.201100 0.209900
vt 0.178100 0.163100
vt 0.157100 0.182200
vt 0.181500 0.224200
vt 0.144200 0.188000
vt 0.159300 0.234100
vt 0.130100 0.191100
vt 0.135100 0.239500
vt 0.111700 0.239300
vt 0.102400 0.188000
vt 0.116500 0.191000
vt 0.087500 0.234300
vt 0.065300 0.224400
vt 0.089500 0.182300
vt 0.078000 0.174000
vt 0.045600 0.210200
vt 0.068300 0.163400
vt 0.028800 0.191900
vt 0.017300 0.171500
vt 0.009600 0.148000
vt 0.057100 0.137800
vt 0.061600 0.151500
vt 0.055500 0.123800
vt 0.007000 0.123900
vn 0.0007 0.0016 1.0000
vn -0.0901 -0.0442 0.9949
vn -0.0725 -0.0745 0.9946
vn -0.0996 -0.0728 0.9923
vn -0.1287 -0.0256 0.9913
vn -0.1044 -0.0149 0.9944
vn -0.1192 -0.0477 0.9917
vn -0.0757 -0.0677 0.9948
vn -0.0851 -0.0811 0.9930
vn -0.0505 -0.0841 0.9951
vn -0.0611 -0.1002 0.9931
vn -0.0317 -0.0941 0.9950
vn -0.0395 -0.1065 0.9935
vn -0.0139 -0.0977 0.9951
vn -0.0025 -0.1160 0.9932
vn 0.0139 -0.1181 0.9929
vn 0.0164 -0.1018 0.9947
vn 0.0272 -0.0967 0.9949
vn 0.0542 -0.0830 0.9951
vn 0.0309 -0.1113 0.9933
vn 0.0656 -0.1007 0.9927
vn 0.0740 -0.0888 0.9933
vn 0.0731 -0.0718 0.9947
vn 0.0771 -0.0664 0.9948
vn 0.0910 -0.0464 0.9948
vn 0.1100 -0.0462 0.9928
vn 0.0934 -0.0648 0.9935
vn 0.1175 -0.0237 0.9928
vn 0.1004 -0.0164 0.9948
vn 0.1024 0.0006 0.9947
vn 0.0997 0.0293 0.9946
vn 0.1235 0.0078 0.9923
vn 0.1219 0.0299 0.9921
vn 0.0922 0.0532 0.9943
vn 0.1072 0.0540 0.9928
vn 0.0990 0.0749 0.9922
vn 0.0770 0.0714 0.9944
vn 0.0862 0.0890 0.9923
vn 0.0856 0.0637 0.9943
vn 0.0473 0.0924 0.9946
vn 0.0580 0.1122 0.9920
vn 0.0377 0.1004 0.9942
vn 0.0410 0.1195 0.9920
vn 0.0213 0.1032 0.9944
vn 0.0092 0.1296 0.9915
vn -0.0171 0.1287 0.9915
vn -0.0335 0.1035 0.9940
vn -0.0237 0.1068 0.9940
vn -0.0283 0.1218 0.9921
vn -0.0578 0.1074 0.9925
vn -0.0486 0.0897 0.9948
vn -0.0760 0.0723 0.9945
vn -0.0844 0.0874 0.9926
vn -0.0804 0.0686 0.9944
vn -0.0964 0.0745 0.9925
vn -0.1109 0.0538 0.9924
vn -0.1249 0.0284 0.9918
vn -0.0999 0.0282 0.9946
vn -0.0877 0.0556 0.9946
vn -0.1032 0.0010 0.9947
vn -0.1264 -0.0017 0.9920
usemtl interior
s 1
f 4/1/1 1/2/2 2/3/3
f 1/2/2 6/4/4 2/3/3
f 5/5/5 1/2/2 3/6/6
f 3/6/6 1/2/2 4/1/1
f 7/7/7 1/2/2 5/5/5
f 6/4/4 1/2/2 7/7/7
f 8/8/8 2/3/3 6/4/4
f 8/8/8 6/4/4 9/9/9
f 8/8/8 9/9/9 10/10/10
f 10/10/10 9/9/9 11/11/11
f 13/12/12 11/11/11 12/13/13
f 10/10/10 11/11/11 13/12/12
f 4/1/1 13/12/12 14/14/14
f 4/1/1 10/10/10 13/12/12
f 13/12/12 12/13/13 14/14/14
f 14/14/14 17/15/15 15/16/16
f 15/16/16 16/17/17 14/14/14
f 14/14/14 16/17/17 4/1/1
f 14/14/14 12/13/13 17/15/15
f 18/18/18 16/17/17 15/16/16
f 18/18/18 4/1/1 16/17/17
f 19/19/19 4/1/1 18/18/18
f 19/19/19 18/18/18 20/20/20
f 20/20/20 18/18/18 15/16/16
f 20/20/20 21/21/21 19/19/19
f 21/21/21 22/22/22 23/23/23
f 19/19/19 21/21/21 23/23/23
f 19/19/19 23/23/23 4/1/1
f 4/1/1 23/23/23 24/24/24
f 23/23/23 22/22/22 24/24/24
f 4/1/1 24/24/24 25/25/25
f 25/25/25 24/24/24 26/26/26
f 24/24/24 27/27/27 26/26/26
f 22/22/22 27/27/27 24/24/24
f 28/28/28 29/29/29 26/26/26
f 25/25/25 26/26/26 29/29/29
f 30/30/30 29/29/29 28/28/28
f 30/30/30 4/1/1 29/29/29
f 25/25/25 29/29/29 4/1/1
f 31/31/31 4/1/1 30/30/30
f 31/31/31 30/30/30 32/32/32
f 32/32/32 30/30/30 28/28/28
f 32/32/32 33/33/33 31/31/31
f 31/31/31 33/33/33 34/34/34
f 33/33/33 35/35/35 34/34/34
f 34/34/34 35/35/35 36/36/36
f 37/37/37 36/36/36 39/38/38
f 37/37/37 38/39/39 36/36/36
f 34/34/34 36/36/36 38/39/39
f 37/37/37 39/38/38 40/40/40
f 40/40/40 39/38/38 41/41/41
f 40/40/40 41/41/41 42/42/42
f 42/42/42 41/41/41 43/43/43
f 42/42/42 43/43/43 44/44/44
f 44/44/44 43/43/43 45/45/45
f 44/44/44 45/45/45 46/46/46
f 47/47/47 48/48/48 46/46/46
f 49/49/49 47/47/47 46/46/46
f 46/46/46 48/48/48 44/44/44
f 50/50/50 51/51/51 49/49/49
f 51/51/51 47/47/47 49/49/49
f 52/52/52 51/51/51 50/50/50
f 52/52/52 4/1/1 51/51/51
f 51/51/51 4/1/1 47/47/47
f 52/52/52 54/53/53 53/54/54
f 53/54/54 4/1/1 52/52/52
f 50/50/50 54/53/53 52/52/52
f 54/53/53 55/55/55 53/54/54
f 53/54/54 55/55/55 56/56/56
f 57/57/57 58/58/58 56/56/56
f 56/56/56 58/58/58 59/59/59
f 56/56/56 59/59/59 53/54/54
f 59/59/59 58/58/58 4/1/1
f 53/54/54 59/59/59 4/1/1
f 4/1/1 58/58/58 60/60/60
f 57/57/57 60/60/60 58/58/58
f 4/1/1 60/60/60 3/6/6
f 61/61/61 3/6/6 60/60/60
f 61/61/61 60/60/60 57/57/57
f 5/5/5 3/6/6 61/61/61
f 47/47/47 4/1/1 48/48/48
f 44/44/44 48/48/48 4/1/1
f 4/1/1 42/42/42 44/44/44
f 4/1/1 40/40/40 42/42/42
f 37/37/37 40/40/40 4/1/1
f 4/1/1 38/39/39 37/37/37
f 4/1/1 34/34/34 38/39/39
f 31/31/31 34/34/34 4/1/1
f 8/8/8 10/10/10 4/1/1
f 4/1/1 2/3/3 8/8/8
