# Blender v2.93.18 OBJ File: 'Volvo F12 8.blend'
# www.blender.org
mtllib Volvo F12 bumper fog lights.mtl
o bumper_fog_lights_piece_4.008
v 36.676605 -13.995102 -85.443886
v 40.812519 -11.601202 -85.443886
v 40.755970 -11.588636 -85.443886
v 32.595669 -11.588636 -85.443886
v 40.864357 -11.632618 -85.443886
v 32.539124 -11.601202 -85.443886
v 40.905197 -11.682884 -85.443886
v 32.487286 -11.632618 -85.443886
v 40.931904 -11.745716 -85.443886
v 32.446442 -11.682884 -85.443886
v 40.939754 -11.816402 -85.443886
v 32.419739 -11.745716 -85.443886
v 40.939754 -16.173800 -85.443886
v 32.411884 -11.816402 -85.443886
v 40.931904 -16.244486 -85.443886
v 32.411884 -16.173800 -85.443886
v 40.905197 -16.307320 -85.443886
v 32.419739 -16.244486 -85.443886
v 40.864357 -16.357584 -85.443886
v 32.446442 -16.307320 -85.443886
v 40.812519 -16.389002 -85.443886
v 32.487286 -16.357584 -85.443886
v 40.755970 -16.399996 -85.443886
v 32.539124 -16.389002 -85.443886
v 32.595669 -16.399996 -85.443886
v -40.755978 -11.588636 -85.443886
v -40.812527 -11.601202 -85.443886
v -36.676605 -13.995102 -85.443886
v -32.595669 -11.588636 -85.443886
v -40.864365 -11.632618 -85.443886
v -32.539124 -11.601202 -85.443886
v -40.905205 -11.682884 -85.443886
v -32.487286 -11.632618 -85.443886
v -40.931911 -11.745716 -85.443886
v -32.446442 -11.682884 -85.443886
v -40.939762 -11.816402 -85.443886
v -32.419739 -11.745716 -85.443886
v -40.939762 -16.173800 -85.443886
v -32.411884 -11.816402 -85.443886
v -40.931911 -16.244486 -85.443886
v -32.411884 -16.173800 -85.443886
v -40.905205 -16.307320 -85.443886
v -32.419739 -16.244486 -85.443886
v -40.864365 -16.357584 -85.443886
v -32.446442 -16.307320 -85.443886
v -40.812527 -16.389002 -85.443886
v -32.487286 -16.357584 -85.443886
v -40.755978 -16.399996 -85.443886
v -32.539124 -16.389002 -85.443886
v -32.595669 -16.399996 -85.443886
vt 0.013834 0.999782
vt 0.009554 0.998449
vt 0.322532 0.744350
vt 0.631349 0.999782
vt 0.005632 0.995114
vt 0.635628 0.998449
vt 0.002541 0.989779
vt 0.639551 0.995114
vt 0.000520 0.983109
vt 0.642641 0.989779
vt -0.000074 0.975606
vt 0.644662 0.983109
vt -0.000074 0.513094
vt 0.645256 0.975606
vt 0.000520 0.505591
vt 0.645256 0.513094
vt 0.002541 0.498921
vt 0.644662 0.505591
vt 0.005632 0.493585
vt 0.642641 0.498921
vt 0.009554 0.490251
vt 0.639551 0.493585
vt 0.013834 0.489084
vt 0.635628 0.490251
vt 0.631349 0.489084
vt 0.322510 0.744350
vt 0.009532 0.998449
vt 0.013810 0.999782
vt 0.631327 0.999782
vt 0.005610 0.995114
vt 0.635606 0.998449
vt 0.002518 0.989779
vt 0.639530 0.995114
vt 0.000498 0.983109
vt 0.642619 0.989779
vt -0.000097 0.975606
vt 0.644640 0.983109
vt -0.000097 0.513094
vt 0.645236 0.975606
vt 0.000498 0.505591
vt 0.645236 0.513094
vt 0.002518 0.498921
vt 0.644640 0.505591
vt 0.005610 0.493585
vt 0.642619 0.498921
vt 0.009532 0.490251
vt 0.639530 0.493585
vt 0.013810 0.489084
vt 0.635606 0.490251
vt 0.631327 0.489084
vn 0.0000 0.0000 -1.0000
vn -0.0001 0.0000 -1.0000
vn 0.0001 0.0000 -1.0000
usemtl mat_0004_front_light
s 1
f 3/1/1 2/2/1 1/3/1
f 4/4/1 3/1/1 1/3/1
f 2/2/1 5/5/1 1/3/1
f 6/6/1 4/4/1 1/3/1
f 5/5/1 7/7/1 1/3/1
f 8/8/1 6/6/1 1/3/1
f 7/7/1 9/9/2 1/3/1
f 10/10/1 8/8/1 1/3/1
f 9/9/2 11/11/1 1/3/1
f 12/12/3 10/10/1 1/3/1
f 11/11/1 13/13/1 1/3/1
f 14/14/1 12/12/3 1/3/1
f 13/13/1 15/15/1 1/3/1
f 16/16/1 14/14/1 1/3/1
f 15/15/1 17/17/1 1/3/1
f 18/18/1 16/16/1 1/3/1
f 17/17/1 19/19/1 1/3/1
f 20/20/1 18/18/1 1/3/1
f 19/19/1 21/21/1 1/3/1
f 22/22/1 20/20/1 1/3/1
f 21/21/1 23/23/1 1/3/1
f 24/24/1 22/22/1 1/3/1
f 23/23/1 25/25/1 1/3/1
f 25/25/1 24/24/1 1/3/1
f 28/26/1 27/27/1 26/28/1
f 28/26/1 26/28/1 29/29/1
f 28/26/1 30/30/1 27/27/1
f 28/26/1 29/29/1 31/31/1
f 28/26/1 32/32/1 30/30/1
f 28/26/1 31/31/1 33/33/1
f 28/26/1 34/34/1 32/32/1
f 28/26/1 33/33/1 35/35/1
f 28/26/1 36/36/1 34/34/1
f 28/26/1 35/35/1 37/37/1
f 28/26/1 38/38/1 36/36/1
f 28/26/1 37/37/1 39/39/1
f 28/26/1 40/40/1 38/38/1
f 28/26/1 39/39/1 41/41/1
f 28/26/1 42/42/1 40/40/1
f 28/26/1 41/41/1 43/43/1
f 28/26/1 44/44/1 42/42/1
f 28/26/1 43/43/1 45/45/1
f 28/26/1 46/46/1 44/44/1
f 28/26/1 45/45/1 47/47/1
f 28/26/1 48/48/1 46/46/1
f 28/26/1 47/47/1 49/49/1
f 28/26/1 50/50/1 48/48/1
f 28/26/1 49/49/1 50/50/1
