# Blender v2.93.18 OBJ File: 'Volvo F12 8.blend'
# www.blender.org
mtllib Volvo F12 headlights.mtl
o headlights_piece_9.004
v -48.487453 -2.364899 -81.972427
v -49.166039 -2.364899 -81.972427
v -48.487453 -0.646446 -81.972427
v -49.166039 -0.646446 -81.972427
v 49.166039 -0.646446 -81.972427
v 49.166039 -2.364899 -81.972427
v 48.487453 -0.646446 -81.972427
v 48.487453 -2.364899 -81.972427
v -49.166039 -0.646446 -81.972427
v -49.166039 -2.364899 -81.972427
v -49.004242 -0.646446 -83.012291
v -49.004242 -2.364899 -83.012291
v -48.393204 -0.646446 -83.829117
v -48.393204 -2.364899 -83.829117
v -47.552830 -0.646446 -84.463715
v -47.552830 -2.364899 -84.463715
v -46.241207 -0.646446 -84.961662
v -46.241207 -2.364899 -84.961662
v -45.890923 -2.364899 -85.068474
v -45.890923 -0.646446 -85.068474
v -44.737957 0.401276 -85.338654
v -45.890923 0.401276 -85.068474
v -47.056450 0.401276 -84.554825
v -47.056450 -0.646446 -84.554825
v -47.802582 0.401276 -83.896652
v -47.802582 -0.646446 -83.896652
v -48.344509 0.401276 -83.049995
v -48.344509 -0.646446 -83.049995
v -48.487453 0.401276 -81.972427
v -48.487453 -0.646446 -81.972427
v -48.487453 0.401276 -81.227867
v -48.487453 -2.364899 -81.972427
v -48.487453 -3.412617 -81.227867
v -48.487453 -3.412617 -81.972427
v -48.344509 -3.412617 -83.049995
v -48.344509 -2.364899 -83.049995
v -47.802582 -3.412617 -83.896652
v -47.802582 -2.364899 -83.896652
v -47.056450 -3.412617 -84.554825
v -47.056450 -2.364899 -84.554825
v -45.890923 -3.412617 -85.068474
v -44.737957 -3.412617 -85.338654
v -44.042088 0.401276 -85.407768
v -44.042088 -3.412617 -85.407768
v -43.099609 0.401276 -85.520859
v -43.099609 -3.412617 -85.520859
v -48.487453 -0.646446 -81.972427
v -49.166039 -0.646446 -81.972427
v -48.344509 -0.646446 -83.049995
v -49.004242 -0.646446 -83.012291
v -47.802582 -0.646446 -83.896652
v -48.393204 -0.646446 -83.829117
v -47.056450 -0.646446 -84.554825
v -47.552830 -0.646446 -84.463715
v -46.241207 -0.646446 -84.961662
v -45.890923 -0.646446 -85.068474
v 48.487453 -2.364899 -81.972427
v 49.166039 -2.364899 -81.972427
v 48.344509 -2.364899 -83.049995
v 49.004242 -2.364899 -83.012291
v 47.802582 -2.364899 -83.896652
v 48.393204 -2.364899 -83.829117
v 47.056450 -2.364899 -84.554825
v 47.552830 -2.364899 -84.463715
v 46.241207 -2.364899 -84.961662
v 45.890923 -2.364899 -85.068474
v -48.344509 -2.364899 -83.049995
v -49.166039 -2.364899 -81.972427
v -48.487453 -2.364899 -81.972427
v -49.004242 -2.364899 -83.012291
v -47.802582 -2.364899 -83.896652
v -48.393204 -2.364899 -83.829117
v -47.056450 -2.364899 -84.554825
v -47.552830 -2.364899 -84.463715
v -46.241207 -2.364899 -84.961662
v -45.890923 -2.364899 -85.068474
v 49.004242 -0.646446 -83.012291
v 49.166039 -2.364899 -81.972427
v 49.166039 -0.646446 -81.972427
v 49.004242 -2.364899 -83.012291
v 48.393204 -0.646446 -83.829117
v 48.393204 -2.364899 -83.829117
v 47.552830 -0.646446 -84.463715
v 47.552830 -2.364899 -84.463715
v 46.241207 -0.646446 -84.961662
v 46.241207 -2.364899 -84.961662
v 45.890923 -2.364899 -85.068474
v 45.890923 -0.646446 -85.068474
v 44.737957 0.401276 -85.338654
v 45.890923 0.401276 -85.068474
v 47.056450 0.401276 -84.554825
v 47.056450 -0.646446 -84.554825
v 47.802582 0.401276 -83.896652
v 47.802582 -0.646446 -83.896652
v 48.344509 0.401276 -83.049995
v 48.344509 -0.646446 -83.049995
v 48.487453 0.401276 -81.972427
v 48.487453 -0.646446 -81.972427
v 48.487453 0.401276 -81.227867
v 48.487453 -2.364899 -81.972427
v 48.487453 -3.412617 -81.227867
v 48.487453 -3.412617 -81.972427
v 48.344509 -3.412617 -83.049995
v 48.344509 -2.364899 -83.049995
v 47.802582 -3.412617 -83.896652
v 47.802582 -2.364899 -83.896652
v 47.056450 -3.412617 -84.554825
v 47.056450 -2.364899 -84.554825
v 45.890923 -3.412617 -85.068474
v 44.737957 -3.412617 -85.338654
v 44.042088 0.401276 -85.407768
v 44.042088 -3.412617 -85.407768
v 43.099609 0.401276 -85.520859
v 43.099609 -3.412617 -85.520859
v 48.344509 -0.646446 -83.049995
v 49.166039 -0.646446 -81.972427
v 48.487453 -0.646446 -81.972427
v 49.004242 -0.646446 -83.012291
v 47.802582 -0.646446 -83.896652
v 48.393204 -0.646446 -83.829117
v 47.056450 -0.646446 -84.554825
v 47.552830 -0.646446 -84.463715
v 46.241207 -0.646446 -84.961662
v 45.890923 -0.646446 -85.068474
v -43.099609 -7.427586 -85.520859
v -44.042088 -7.427586 -85.407768
v -44.737957 -7.427586 -85.338654
v -45.890923 -7.427586 -85.068474
v -47.056450 -7.427586 -84.554825
v -47.802582 -7.427586 -83.896652
v -48.344509 -7.427586 -83.049995
v -48.487453 -7.427586 -81.972427
v -48.487453 -7.427586 -81.227867
v 43.099609 -7.427586 -85.520859
v 44.042088 -7.427586 -85.407768
v 44.737957 -7.427586 -85.338654
v 45.890923 -7.427586 -85.068474
v 47.056450 -7.427586 -84.554825
v 47.802582 -7.427586 -83.896652
v 48.344509 -7.427586 -83.049995
v 48.487453 -7.427586 -81.972427
v 48.487453 -7.427586 -81.227867
v 30.718565 -0.299301 -85.103027
v 30.699715 -0.505074 -85.103027
v 36.408001 -3.214699 -85.103027
v 30.771971 -0.102947 -85.103027
v 30.699715 -5.924332 -85.103027
v 30.859936 0.074551 -85.103027
v 30.718565 -6.128536 -85.103027
v 30.976173 0.228493 -85.103027
v 30.771971 -6.324883 -85.103027
v 31.117546 0.349442 -85.103027
v 30.859936 -6.503956 -85.103027
v 31.277767 0.432693 -85.103027
v 30.976173 -6.656319 -85.103027
v 31.447414 0.476681 -85.103027
v 31.117546 -6.777271 -85.103027
v 37.207539 0.475105 -85.103027
v 31.277767 -6.862099 -85.103027
v 41.269623 0.476681 -85.103027
v 31.447414 -6.904507 -85.103027
v 41.439278 0.432693 -85.103027
v 37.207539 -6.904507 -85.103027
v 41.599495 0.349442 -85.103027
v 41.269623 -6.904507 -85.103027
v 41.739296 0.228493 -85.103027
v 41.439278 -6.862099 -85.103027
v 41.857105 0.074551 -85.103027
v 41.599495 -6.777271 -85.103027
v 41.943497 -0.102947 -85.103027
v 41.739296 -6.656319 -85.103027
v 41.998478 -0.299301 -85.103027
v 41.857105 -6.503956 -85.103027
v 42.015759 -0.505074 -85.103027
v 41.943497 -6.324883 -85.103027
v 42.015759 -5.924332 -85.103027
v 41.998478 -6.128536 -85.103027
v -36.408001 -3.214699 -85.103027
v -30.699715 -0.505074 -85.103027
v -30.718565 -0.299301 -85.103027
v -30.771971 -0.102947 -85.103027
v -30.699715 -5.924332 -85.103027
v -30.859936 0.074551 -85.103027
v -30.718565 -6.128536 -85.103027
v -30.976173 0.228493 -85.103027
v -30.771971 -6.324883 -85.103027
v -31.117546 0.349442 -85.103027
v -30.859936 -6.503956 -85.103027
v -31.277767 0.432693 -85.103027
v -30.976173 -6.656319 -85.103027
v -31.447414 0.476681 -85.103027
v -31.117546 -6.777271 -85.103027
v -37.207539 0.475105 -85.103027
v -31.277767 -6.862099 -85.103027
v -41.269623 0.476681 -85.103027
v -31.447414 -6.904507 -85.103027
v -41.439278 0.432693 -85.103027
v -37.207539 -6.904507 -85.103027
v -41.599495 0.349442 -85.103027
v -41.269623 -6.904507 -85.103027
v -41.739296 0.228493 -85.103027
v -41.439278 -6.862099 -85.103027
v -41.857105 0.074551 -85.103027
v -41.599495 -6.777271 -85.103027
v -41.943497 -0.102947 -85.103027
v -41.739296 -6.656319 -85.103027
v -41.998478 -0.299301 -85.103027
v -41.857105 -6.503956 -85.103027
v -42.015759 -0.505074 -85.103027
v -41.943497 -6.324883 -85.103027
v -42.015759 -5.924332 -85.103027
v -41.998478 -6.128536 -85.103027
vt 0.837871 0.248296
vt 0.824400 0.144807
vt 0.837871 0.144807
vt 0.824400 0.248296
vt 0.838398 0.248296
vt 0.824926 0.144807
vt 0.824926 0.248296
vt 0.838398 0.144807
vt 0.827612 0.248296
vt 0.824400 0.144807
vt 0.824400 0.248296
vt 0.827612 0.144807
vt 0.839743 0.248296
vt 0.839743 0.144807
vt 0.856426 0.248296
vt 0.856426 0.144807
vt 0.882465 0.248296
vt 0.882465 0.144807
vt 0.889419 0.144807
vt 0.889419 0.248296
vt 0.912308 0.311393
vt 0.889419 0.311393
vt 0.866280 0.311393
vt 0.866280 0.248296
vt 0.851467 0.311393
vt 0.851467 0.248296
vt 0.840709 0.311393
vt 0.840709 0.248296
vt 0.837871 0.311393
vt 0.837871 0.248296
vt 0.837871 0.311393
vt 0.837871 0.144807
vt 0.837871 0.081710
vt 0.837871 0.081710
vt 0.840709 0.081710
vt 0.840709 0.144807
vt 0.851467 0.081710
vt 0.851467 0.144807
vt 0.866280 0.081710
vt 0.866280 0.144807
vt 0.889419 0.081710
vt 0.912308 0.081710
vt 0.926122 0.311393
vt 0.926122 0.081710
vt 0.944832 0.311393
vt 0.944832 0.081710
vt 0.840709 0.248296
vt 0.824400 0.248296
vt 0.837871 0.248296
vt 0.827612 0.248296
vt 0.851467 0.248296
vt 0.839743 0.248296
vt 0.866280 0.248296
vt 0.856426 0.248296
vt 0.882465 0.248296
vt 0.889419 0.248296
vt 0.841235 0.144807
vt 0.824926 0.144807
vt 0.838398 0.144807
vt 0.828138 0.144807
vt 0.851994 0.144807
vt 0.840269 0.144807
vt 0.866806 0.144807
vt 0.856952 0.144807
vt 0.882991 0.144807
vt 0.889945 0.144807
vt 0.837871 0.144807
vt 0.824400 0.144807
vt 0.840709 0.144807
vt 0.827612 0.144807
vt 0.851467 0.144807
vt 0.839743 0.144807
vt 0.866280 0.144807
vt 0.856426 0.144807
vt 0.882465 0.144807
vt 0.889419 0.144807
vt 0.824926 0.248296
vt 0.824926 0.144807
vt 0.828138 0.248296
vt 0.828138 0.144807
vt 0.840269 0.248296
vt 0.840269 0.144807
vt 0.856952 0.248296
vt 0.856952 0.144807
vt 0.882991 0.248296
vt 0.882991 0.144807
vt 0.889945 0.144807
vt 0.889945 0.248296
vt 0.912834 0.311393
vt 0.889945 0.311393
vt 0.866806 0.311393
vt 0.866806 0.248296
vt 0.851994 0.311393
vt 0.851994 0.248296
vt 0.841235 0.311393
vt 0.841235 0.248296
vt 0.838398 0.311393
vt 0.838398 0.248296
vt 0.838398 0.311393
vt 0.838398 0.144807
vt 0.838398 0.081710
vt 0.838398 0.081710
vt 0.841235 0.081710
vt 0.841235 0.144807
vt 0.851994 0.081710
vt 0.851994 0.144807
vt 0.866806 0.081710
vt 0.866806 0.144807
vt 0.889945 0.081710
vt 0.912834 0.081710
vt 0.926648 0.311393
vt 0.926648 0.081710
vt 0.945359 0.311393
vt 0.945359 0.081710
vt 0.838398 0.248296
vt 0.824926 0.248296
vt 0.841235 0.248296
vt 0.828138 0.248296
vt 0.851994 0.248296
vt 0.840269 0.248296
vt 0.866806 0.248296
vt 0.856952 0.248296
vt 0.882991 0.248296
vt 0.889945 0.248296
vt 0.065123 0.024633
vt 0.167834 0.354382
vt 0.065123 0.354382
vt 0.167834 0.024633
vt 0.243670 0.354382
vt 0.243670 0.024633
vt 0.369318 0.354382
vt 0.369318 0.024633
vt 0.496337 0.354382
vt 0.496337 0.024633
vt 0.577650 0.354382
vt 0.577650 0.024633
vt 0.636709 0.354382
vt 0.636709 0.024633
vt 0.652287 0.354382
vt 0.652287 0.024633
vt 0.652287 0.024633
vt 0.652287 0.354382
vt 0.066878 0.354382
vt 0.169588 0.354382
vt 0.066878 0.024633
vt 0.169588 0.024633
vt 0.245423 0.354382
vt 0.245423 0.024633
vt 0.371070 0.354382
vt 0.371070 0.024633
vt 0.498087 0.354382
vt 0.498087 0.024633
vt 0.579401 0.354382
vt 0.579401 0.024633
vt 0.638460 0.354382
vt 0.638460 0.024633
vt 0.654036 0.354382
vt 0.654036 0.024633
vt 0.654036 0.024633
vt 0.654036 0.354382
vt 0.484881 0.698685
vt 0.831066 0.858910
vt 0.829923 0.871077
vt 0.826685 0.882688
vt 0.831066 0.538459
vt 0.821350 0.893184
vt 0.829923 0.526384
vt 0.814300 0.902287
vt 0.826685 0.514774
vt 0.805728 0.909438
vt 0.821350 0.504185
vt 0.796011 0.914361
vt 0.814300 0.495175
vt 0.785721 0.916962
vt 0.805728 0.488023
vt 0.436392 0.916869
vt 0.796011 0.483007
vt 0.190041 0.916962
vt 0.785721 0.480499
vt 0.179753 0.914361
vt 0.436392 0.480499
vt 0.170036 0.909438
vt 0.190041 0.480499
vt 0.161558 0.902287
vt 0.179753 0.483007
vt 0.154414 0.893184
vt 0.170036 0.488023
vt 0.149174 0.882688
vt 0.161558 0.495175
vt 0.145840 0.871077
vt 0.154414 0.504185
vt 0.144791 0.858910
vt 0.149174 0.514774
vt 0.144791 0.538459
vt 0.145840 0.526384
vt 0.830898 0.871077
vt 0.832041 0.858910
vt 0.485855 0.698685
vt 0.827659 0.882688
vt 0.832041 0.538459
vt 0.822324 0.893184
vt 0.830898 0.526384
vt 0.815275 0.902287
vt 0.827659 0.514774
vt 0.806701 0.909438
vt 0.822324 0.504185
vt 0.796984 0.914361
vt 0.815275 0.495175
vt 0.786696 0.916962
vt 0.806701 0.488023
vt 0.437366 0.916869
vt 0.796984 0.483007
vt 0.191016 0.916962
vt 0.786696 0.480499
vt 0.180727 0.914361
vt 0.437366 0.480499
vt 0.171010 0.909438
vt 0.191016 0.480499
vt 0.162532 0.902287
vt 0.180727 0.483007
vt 0.155387 0.893184
vt 0.171010 0.488023
vt 0.150148 0.882688
vt 0.162532 0.495175
vt 0.146813 0.871077
vt 0.155387 0.504185
vt 0.145765 0.858910
vt 0.150148 0.514774
vt 0.145765 0.538459
vt 0.146813 0.526384
vn 0.0000 0.0000 1.0000
vn -0.9217 0.0000 -0.3879
vn -0.9881 0.0000 -0.1537
vn -0.7087 0.0000 -0.7055
vn -0.4836 0.0000 -0.8753
vn -0.3235 0.0000 -0.9462
vn -0.2886 0.0000 -0.9574
vn -0.1639 0.0000 -0.9865
vn -0.3171 0.0000 -0.9484
vn -0.5388 0.0000 -0.8425
vn -0.7592 0.0000 -0.6508
vn -0.9392 0.0000 -0.3435
vn -0.9978 0.0000 -0.0659
vn -0.9990 0.0000 -0.0439
vn -1.0000 0.0000 0.0000
vn -0.1638 0.0000 -0.9865
vn -0.1090 0.0000 -0.9940
vn -0.1191 0.0000 -0.9929
vn 0.0000 1.0000 0.0000
vn 0.0000 -1.0000 0.0000
vn 0.9881 0.0000 -0.1537
vn 0.9217 0.0000 -0.3879
vn 0.7087 0.0000 -0.7055
vn 0.4836 0.0000 -0.8753
vn 0.3235 0.0000 -0.9462
vn 0.2886 0.0000 -0.9574
vn 0.1639 0.0000 -0.9865
vn 0.3171 0.0000 -0.9484
vn 0.5388 0.0000 -0.8425
vn 0.7592 0.0000 -0.6508
vn 0.9392 0.0000 -0.3435
vn 0.9978 0.0000 -0.0659
vn 0.9990 0.0000 -0.0439
vn 1.0000 0.0000 0.0000
vn 0.1638 0.0000 -0.9865
vn 0.1090 0.0000 -0.9940
vn 0.1191 0.0000 -0.9929
vn 0.0000 0.0000 -1.0000
vn 0.0001 0.0000 -1.0000
vn -0.0001 0.0000 -1.0000
usemtl mat_0009_2
s 1
f 3/1/1 2/2/1 1/3/1
f 4/4/1 2/2/1 3/1/1
f 7/5/1 6/6/1 5/7/1
f 8/8/1 6/6/1 7/5/1
f 11/9/2 10/10/3 9/11/3
f 12/12/2 10/10/3 11/9/2
f 13/13/4 12/12/2 11/9/2
f 14/14/4 12/12/2 13/13/4
f 15/15/5 14/14/4 13/13/4
f 16/16/5 14/14/4 15/15/5
f 17/17/6 16/16/5 15/15/5
f 18/18/6 16/16/5 17/17/6
f 18/18/6 17/17/6 19/19/7
f 19/19/7 17/17/6 20/20/7
f 21/21/8 19/19/7 20/20/7
f 20/20/7 22/22/9 21/21/8
f 22/22/9 20/20/7 23/23/10
f 23/23/10 20/20/7 24/24/10
f 23/23/10 24/24/10 25/25/11
f 25/25/11 24/24/10 26/26/11
f 25/25/11 26/26/11 27/27/12
f 27/27/12 26/26/11 28/28/12
f 27/27/12 28/28/12 29/29/13
f 29/29/13 28/28/12 30/30/14
f 31/31/15 29/29/13 30/30/14
f 30/30/14 32/32/14 31/31/15
f 31/31/15 32/32/14 33/33/15
f 34/34/13 33/33/15 32/32/14
f 32/32/14 35/35/12 34/34/13
f 36/36/12 35/35/12 32/32/14
f 36/36/12 37/37/11 35/35/12
f 38/38/11 37/37/11 36/36/12
f 38/38/11 39/39/10 37/37/11
f 40/40/10 39/39/10 38/38/11
f 40/40/10 41/41/9 39/39/10
f 19/19/7 41/41/9 40/40/10
f 42/42/16 41/41/9 19/19/7
f 42/42/16 19/19/7 21/21/8
f 43/43/17 42/42/16 21/21/8
f 44/44/17 42/42/16 43/43/17
f 45/45/18 44/44/17 43/43/17
f 46/46/18 44/44/17 45/45/18
f 49/47/19 48/48/19 47/49/19
f 50/50/19 48/48/19 49/47/19
f 51/51/19 50/50/19 49/47/19
f 52/52/19 50/50/19 51/51/19
f 53/53/19 52/52/19 51/51/19
f 54/54/19 52/52/19 53/53/19
f 55/55/19 54/54/19 53/53/19
f 56/56/19 55/55/19 53/53/19
f 59/57/20 58/58/20 57/59/20
f 60/60/20 58/58/20 59/57/20
f 61/61/20 60/60/20 59/57/20
f 62/62/20 60/60/20 61/61/20
f 63/63/20 62/62/20 61/61/20
f 64/64/20 62/62/20 63/63/20
f 65/65/20 64/64/20 63/63/20
f 66/66/20 65/65/20 63/63/20
f 69/67/20 68/68/20 67/69/20
f 67/69/20 68/68/20 70/70/20
f 67/69/20 70/70/20 71/71/20
f 71/71/20 70/70/20 72/72/20
f 71/71/20 72/72/20 73/73/20
f 73/73/20 72/72/20 74/74/20
f 73/73/20 74/74/20 75/75/20
f 73/73/20 75/75/20 76/76/20
f 79/77/21 78/78/21 77/79/22
f 77/79/22 78/78/21 80/80/22
f 77/79/22 80/80/22 81/81/23
f 81/81/23 80/80/22 82/82/23
f 81/81/23 82/82/23 83/83/24
f 83/83/24 82/82/23 84/84/24
f 83/83/24 84/84/24 85/85/25
f 85/85/25 84/84/24 86/86/25
f 87/87/26 85/85/25 86/86/25
f 88/88/26 85/85/25 87/87/26
f 88/88/26 87/87/26 89/89/27
f 89/89/27 90/90/28 88/88/26
f 91/91/29 88/88/26 90/90/28
f 92/92/29 88/88/26 91/91/29
f 93/93/30 92/92/29 91/91/29
f 94/94/30 92/92/29 93/93/30
f 95/95/31 94/94/30 93/93/30
f 96/96/31 94/94/30 95/95/31
f 97/97/32 96/96/31 95/95/31
f 98/98/33 96/96/31 97/97/32
f 98/98/33 97/97/32 99/99/34
f 99/99/34 100/100/33 98/98/33
f 101/101/34 100/100/33 99/99/34
f 100/100/33 101/101/34 102/102/32
f 102/102/32 103/103/31 100/100/33
f 100/100/33 103/103/31 104/104/31
f 103/103/31 105/105/30 104/104/31
f 104/104/31 105/105/30 106/106/30
f 105/105/30 107/107/29 106/106/30
f 106/106/30 107/107/29 108/108/29
f 107/107/29 109/109/28 108/108/29
f 108/108/29 109/109/28 87/87/26
f 87/87/26 109/109/28 110/110/35
f 89/89/27 87/87/26 110/110/35
f 89/89/27 110/110/35 111/111/36
f 111/111/36 110/110/35 112/112/36
f 111/111/36 112/112/36 113/113/37
f 113/113/37 112/112/36 114/114/37
f 117/115/19 116/116/19 115/117/19
f 115/117/19 116/116/19 118/118/19
f 115/117/19 118/118/19 119/119/19
f 119/119/19 118/118/19 120/120/19
f 119/119/19 120/120/19 121/121/19
f 121/121/19 120/120/19 122/122/19
f 121/121/19 122/122/19 123/123/19
f 121/121/19 123/123/19 124/124/19
f 125/125/18 44/126/17 46/127/18
f 126/128/17 44/126/17 125/125/18
f 126/128/17 42/129/16 44/126/17
f 127/130/8 42/129/16 126/128/17
f 127/130/8 41/131/9 42/129/16
f 128/132/9 41/131/9 127/130/8
f 128/132/9 39/133/10 41/131/9
f 129/134/10 39/133/10 128/132/9
f 129/134/10 37/135/11 39/133/10
f 130/136/11 37/135/11 129/134/10
f 130/136/11 35/137/12 37/135/11
f 131/138/12 35/137/12 130/136/11
f 131/138/12 34/139/13 35/137/12
f 132/140/13 34/139/13 131/138/12
f 132/140/13 133/141/15 34/139/13
f 34/139/13 133/141/15 33/142/15
f 114/143/37 112/144/36 134/145/37
f 134/145/37 112/144/36 135/146/36
f 112/144/36 110/147/35 135/146/36
f 135/146/36 110/147/35 136/148/27
f 110/147/35 109/149/28 136/148/27
f 136/148/27 109/149/28 137/150/28
f 109/149/28 107/151/29 137/150/28
f 137/150/28 107/151/29 138/152/29
f 107/151/29 105/153/30 138/152/29
f 138/152/29 105/153/30 139/154/30
f 105/153/30 103/155/31 139/154/30
f 139/154/30 103/155/31 140/156/31
f 103/155/31 102/157/32 140/156/31
f 140/156/31 102/157/32 141/158/32
f 102/157/32 142/159/34 141/158/32
f 101/160/34 142/159/34 102/157/32
f 145/161/38 144/162/38 143/163/38
f 145/161/38 143/163/38 146/164/38
f 145/161/38 147/165/38 144/162/38
f 145/161/38 146/164/38 148/166/38
f 145/161/38 149/167/38 147/165/38
f 145/161/38 148/166/38 150/168/38
f 145/161/38 151/169/38 149/167/38
f 145/161/38 150/168/38 152/170/38
f 145/161/38 153/171/38 151/169/38
f 145/161/38 152/170/38 154/172/38
f 145/161/38 155/173/38 153/171/38
f 145/161/38 154/172/38 156/174/38
f 145/161/38 157/175/38 155/173/38
f 145/161/38 156/174/38 158/176/38
f 145/161/38 159/177/38 157/175/38
f 145/161/38 158/176/38 160/178/38
f 145/161/38 161/179/38 159/177/38
f 145/161/38 160/178/38 162/180/38
f 145/161/38 163/181/38 161/179/38
f 145/161/38 162/180/38 164/182/38
f 145/161/38 165/183/38 163/181/38
f 145/161/38 164/182/38 166/184/38
f 145/161/38 167/185/38 165/183/38
f 145/161/38 166/184/38 168/186/38
f 145/161/38 169/187/38 167/185/38
f 145/161/38 168/186/38 170/188/38
f 145/161/38 171/189/38 169/187/38
f 145/161/38 170/188/38 172/190/38
f 145/161/38 173/191/38 171/189/38
f 145/161/38 172/190/38 174/192/38
f 145/161/38 175/193/38 173/191/38
f 145/161/38 174/192/38 176/194/38
f 145/161/38 177/195/38 175/193/38
f 145/161/38 176/194/38 177/195/38
f 180/196/38 179/197/38 178/198/38
f 181/199/38 180/196/38 178/198/38
f 179/197/38 182/200/38 178/198/38
f 183/201/38 181/199/38 178/198/38
f 182/200/38 184/202/38 178/198/38
f 185/203/38 183/201/38 178/198/38
f 184/202/38 186/204/38 178/198/38
f 187/205/38 185/203/38 178/198/38
f 186/204/38 188/206/38 178/198/38
f 189/207/38 187/205/38 178/198/38
f 188/206/38 190/208/38 178/198/38
f 191/209/39 189/207/38 178/198/38
f 190/208/38 192/210/38 178/198/38
f 193/211/38 191/209/39 178/198/38
f 192/210/38 194/212/38 178/198/38
f 195/213/40 193/211/38 178/198/38
f 194/212/38 196/214/38 178/198/38
f 197/215/38 195/213/40 178/198/38
f 196/214/38 198/216/38 178/198/38
f 199/217/38 197/215/38 178/198/38
f 198/216/38 200/218/38 178/198/38
f 201/219/38 199/217/38 178/198/38
f 200/218/38 202/220/38 178/198/38
f 203/221/38 201/219/38 178/198/38
f 202/220/38 204/222/38 178/198/38
f 205/223/38 203/221/38 178/198/38
f 204/222/38 206/224/38 178/198/38
f 207/225/38 205/223/38 178/198/38
f 206/224/38 208/226/38 178/198/38
f 209/227/38 207/225/38 178/198/38
f 208/226/38 210/228/38 178/198/38
f 211/229/38 209/227/38 178/198/38
f 210/228/38 212/230/38 178/198/38
f 212/230/38 211/229/38 178/198/38
