# Blender v2.93.18 OBJ File: 'Ferrari GTO 250 10.blend'
# www.blender.org
mtllib Ferrari GTO 250 body texture.mtl
o body_texture_chassis.011
v 33.216663 6.830988 -14.442268
v 33.671162 5.538199 -14.361053
v 33.185173 6.857273 -14.361053
v 33.148468 6.941329 -14.413267
v 33.700054 5.540806 -14.442268
v 33.182568 6.886158 -14.500278
v 33.084122 7.331589 -16.542206
v 33.791927 5.490856 -16.594412
v 33.902325 4.848474 -14.529284
v 33.118221 7.276424 -16.542206
v 33.904938 4.819587 -14.442268
v 34.105679 4.208659 -14.697511
v 33.118221 7.276424 -16.652420
v 33.084122 7.331589 -16.681421
v 33.318623 6.927564 -18.694344
v 34.079399 4.177163 -14.645305
v 33.287121 6.953842 -18.775558
v 33.786713 5.548627 -18.752354
v 33.326439 6.840898 -18.752354
v 34.197037 4.164479 -16.594412
v 34.216640 3.624565 -15.010763
v 34.219250 3.595680 -14.923747
v 33.323837 6.869788 -18.833570
v 33.786713 5.548627 -18.833570
v 34.319744 3.063074 -15.405223
v 34.324959 3.005300 -15.324011
v 33.960098 4.853688 -18.665342
v 34.131962 4.240151 -18.497116
v 33.962708 4.824801 -18.752354
v 34.268639 3.629261 -18.212864
v 34.418922 2.932235 -16.594412
v 34.348629 3.065681 -17.812605
v 34.423405 2.559871 -15.886700
v 34.428616 2.502097 -15.863495
v 34.134563 4.211264 -18.578323
v 34.271244 3.600374 -18.270876
v 34.353840 3.007907 -17.870611
v 34.553337 2.088167 -16.542206
v 34.452293 2.562478 -17.307926
v 34.553337 2.088167 -16.652420
v 34.457508 2.504704 -17.360132
v 34.563248 1.978394 -16.542206
v 34.563248 1.978394 -16.652420
v -33.215836 6.830988 -14.442271
v -33.670319 5.538197 -14.361055
v -33.184341 6.857271 -14.361055
v -33.147633 6.941322 -14.413269
v -33.699207 5.540804 -14.442271
v -33.181732 6.886155 -14.500280
v -33.083290 7.331586 -16.542206
v -33.791080 5.490851 -16.594414
v -33.901474 4.848469 -14.529285
v -33.117393 7.276419 -16.542206
v -33.904079 4.819582 -14.442271
v -34.104828 4.208654 -14.697513
v -33.117393 7.276419 -16.652424
v -33.083290 7.331586 -16.681425
v -33.317783 6.927559 -18.694347
v -34.078545 4.177160 -14.645306
v -33.286289 6.953837 -18.775558
v -33.785866 5.548625 -18.752354
v -33.325603 6.840893 -18.752354
v -34.196182 4.164474 -16.594414
v -34.215786 3.624563 -15.010766
v -34.218388 3.595678 -14.923748
v -33.322998 6.869785 -18.833570
v -33.785866 5.548625 -18.833570
v -34.318874 3.063069 -15.405225
v -34.324089 3.005298 -15.324012
v -33.959248 4.853683 -18.665342
v -34.131107 4.240146 -18.497116
v -33.961857 4.824796 -18.752354
v -34.267780 3.629256 -18.212866
v -34.418053 2.932233 -16.594414
v -34.347763 3.065676 -17.812605
v -34.422531 2.559869 -15.886702
v -34.427746 2.502095 -15.863498
v -34.133717 4.211261 -18.578325
v -34.270390 3.600371 -18.270878
v -34.352978 3.007905 -17.870613
v -34.552471 2.088165 -16.542206
v -34.451424 2.562476 -17.307928
v -34.552471 2.088165 -16.652424
v -34.456635 2.504702 -17.360134
v -34.562378 1.978392 -16.542206
v -34.562378 1.978392 -16.652424
v 0.640952 -0.109914 -77.446938
v 0.649613 -0.088417 -77.444344
v 0.671267 -0.088417 -77.444344
v 0.688589 -0.109914 -77.446938
v 0.623629 -0.109914 -77.446938
v 0.645282 -0.109914 -77.446938
v 0.000008 -0.079816 -77.443314
v 0.000008 -0.101314 -77.445908
v 0.653944 -1.000077 -79.687325
v 0.692920 -1.012977 -79.688873
v 0.662605 -1.024623 -79.773163
v 0.636621 -1.012977 -79.688873
v 0.000008 -1.011726 -79.771606
v 0.588983 -1.033223 -79.774200
v 0.580322 -1.024623 -79.773163
v -0.627944 -0.109914 -77.446938
v -0.640936 -0.088417 -77.444344
v -0.653928 -1.000077 -79.687325
v -0.645266 -0.109914 -77.446938
v 0.000008 -1.033223 -79.774200
v -0.640936 -0.109914 -77.446938
v -0.671250 -0.101314 -77.445908
v -0.688573 -0.109914 -77.446938
v -0.580306 -1.024623 -79.773163
v -0.627943 -1.021575 -79.689919
v -0.658258 -1.024623 -79.773163
v -0.692904 -1.000077 -79.687325
v -0.588967 -1.033223 -79.774200
v 31.794926 -5.100249 -75.182831
v 30.658329 1.704279 -75.256027
v 31.123009 1.192748 -75.324028
v 31.572969 0.509490 -75.408470
v 25.936565 2.594972 -75.332245
v 26.948208 2.708753 -75.182793
v 31.932669 -0.440996 -75.596046
v 28.646744 2.624319 -75.138275
v 27.859396 2.726428 -75.139969
v 29.430140 2.393380 -75.163757
v 26.778021 -8.437304 -75.182831
v 29.013094 -8.015730 -75.182831
v 30.048559 2.114081 -75.196747
v -22.036877 -1.709232 -75.206085
v -22.298771 -5.600519 -75.182831
v -21.838449 -4.068574 -75.182831
v -24.792830 2.194040 -75.586891
v 30.640474 -6.771356 -75.187195
v -22.566813 -0.333450 -75.315704
v -26.948210 2.708756 -75.182793
v -30.048569 2.114083 -75.196732
v -29.430136 2.393380 -75.163757
v -29.013090 -8.015730 -75.182831
v -31.572979 0.509490 -75.408470
v 22.298775 -5.600521 -75.182831
v 24.953064 -8.115357 -75.182831
v 23.326017 -7.057008 -75.182831
v 22.036873 -1.709232 -75.206085
v 21.838448 -4.068574 -75.182831
v 24.792826 2.194040 -75.586891
v -30.658323 1.704279 -75.256027
v -30.640474 -6.771353 -75.187195
v -26.778023 -8.437304 -75.182831
v -27.859396 2.726428 -75.139969
v -25.936565 2.594972 -75.332245
v -31.932676 -0.440996 -75.596046
v -31.794926 -5.100246 -75.182831
v -28.646742 2.624319 -75.138275
v 22.566813 -0.333450 -75.315704
v -23.326021 -7.057008 -75.182831
v -24.953070 -8.115357 -75.182831
v -31.123007 1.192745 -75.324028
vt 0.067723 0.603539
vt 0.070925 0.732025
vt 0.068275 0.724784
vt 0.081743 0.742713
vt 0.072029 0.609745
vt 0.075230 0.737656
vt 0.251533 0.773628
vt 0.259040 0.600206
vt 0.079536 0.541824
vt 0.253631 0.774202
vt 0.075230 0.537342
vt 0.094108 0.483442
vt 0.263898 0.774202
vt 0.266106 0.773628
vt 0.439649 0.735932
vt 0.090354 0.479535
vt 0.434791 0.740529
vt 0.445058 0.606871
vt 0.445610 0.729267
vt 0.259040 0.474478
vt 0.117291 0.426210
vt 0.112986 0.422877
vt 0.448260 0.723635
vt 0.448811 0.601355
vt 0.149085 0.372884
vt 0.143124 0.369552
vt 0.436999 0.540675
vt 0.422979 0.482868
vt 0.441305 0.536193
vt 0.399795 0.426784
vt 0.259040 0.359438
vt 0.369547 0.375183
vt 0.192250 0.325191
vt 0.184633 0.322432
vt 0.426732 0.478386
vt 0.404101 0.423451
vt 0.374956 0.371275
vt 0.255287 0.281404
vt 0.325940 0.328064
vt 0.266106 0.281404
vt 0.333447 0.324616
vt 0.249325 0.276348
vt 0.270411 0.276348
vt 0.447101 0.732025
vt 0.450302 0.603539
vt 0.449750 0.724784
vt 0.436282 0.742713
vt 0.445997 0.609745
vt 0.442795 0.737656
vt 0.266492 0.773628
vt 0.258985 0.600206
vt 0.438490 0.541824
vt 0.264394 0.774202
vt 0.442795 0.537342
vt 0.423917 0.483442
vt 0.254128 0.774202
vt 0.251920 0.773628
vt 0.078377 0.735932
vt 0.427671 0.479535
vt 0.083234 0.740529
vt 0.072967 0.606871
vt 0.072415 0.729267
vt 0.258985 0.474478
vt 0.400734 0.426210
vt 0.405040 0.422877
vt 0.069766 0.723635
vt 0.069214 0.601355
vt 0.368940 0.372884
vt 0.374901 0.369552
vt 0.081026 0.540675
vt 0.095046 0.482868
vt 0.076721 0.536193
vt 0.118230 0.426784
vt 0.258985 0.359438
vt 0.148478 0.375183
vt 0.325775 0.325191
vt 0.333392 0.322432
vt 0.091293 0.478386
vt 0.113924 0.423451
vt 0.143069 0.371275
vt 0.262739 0.281404
vt 0.192085 0.328064
vt 0.251920 0.281404
vt 0.184578 0.324616
vt 0.268700 0.276348
vt 0.247614 0.276348
vt 0.560387 0.539231
vt 0.558651 0.540662
vt 0.559282 0.538229
vt 0.560071 0.537656
vt 0.560229 0.540304
vt 0.561965 0.539087
vt 0.557309 0.647367
vt 0.558651 0.647367
vt 0.924970 0.538372
vt 0.927259 0.536940
vt 0.941858 0.542952
vt 0.929942 0.541306
vt 0.934203 0.647797
vt 0.945330 0.558768
vt 0.934598 0.550538
vt 0.560071 0.752355
vt 0.557309 0.744340
vt 0.924576 0.758009
vt 0.561807 0.755862
vt 0.946514 0.647797
vt 0.935703 0.647797
vt 0.560229 0.754860
vt 0.557940 0.754502
vt 0.559677 0.757436
vt 0.934598 0.745055
vt 0.931520 0.754502
vt 0.942647 0.752355
vt 0.926470 0.759369
vt 0.945330 0.737040
vt 0.522537 0.164081
vt 0.532706 0.421098
vt 0.516226 0.377550
vt 0.553322 0.452402
vt 0.575430 0.087517
vt 0.574612 0.475838
vt 0.602549 0.494614
vt 0.649991 0.030505
vt 0.630883 0.507410
vt 0.666776 0.517991
vt 0.752394 0.011190
vt 0.702849 0.522669
vt 0.744597 0.521859
vt 0.836007 0.025940
vt 0.790947 0.516646
vt 0.843349 0.498277
vt 0.910553 0.074430
vt 0.957617 0.141160
vt 0.978708 0.211348
vt 0.969617 0.319444
vt 0.945337 0.382477
vt 0.532270 0.421098
vt 0.522101 0.164081
vt 0.515789 0.377550
vt 0.552886 0.452402
vt 0.574994 0.087517
vt 0.574176 0.475838
vt 0.602113 0.494614
vt 0.649555 0.030505
vt 0.630447 0.507410
vt 0.666340 0.517991
vt 0.751958 0.011190
vt 0.702413 0.522669
vt 0.744160 0.521860
vt 0.835570 0.025940
vt 0.790510 0.516646
vt 0.842912 0.498277
vt 0.910116 0.074430
vt 0.957181 0.141160
vt 0.978271 0.211348
vt 0.969180 0.319444
vt 0.944900 0.382477
vn 0.9036 0.2870 0.3179
vn 0.9169 0.3984 0.0233
vn 0.8838 0.4197 0.2069
vn 0.8686 0.4892 0.0787
vn 0.9352 0.3006 0.1870
vn 0.9004 0.4350 0.0071
vn 0.8506 0.5246 0.0345
vn 0.9488 0.3152 0.0202
vn 0.9555 0.2889 0.0587
vn 0.8945 0.4460 0.0291
vn 0.9542 0.2876 0.0825
vn 0.9541 0.1501 0.2591
vn 0.8947 0.4465 0.0058
vn 0.8504 0.5261 -0.0040
vn 0.8723 0.4758 -0.1123
vn 0.8827 0.0394 0.4681
vn 0.9013 0.4212 -0.1013
vn 0.9582 0.2860 0.0001
vn 0.9356 0.3251 -0.1377
vn 0.9730 0.2305 0.0113
vn 0.9861 0.1623 0.0339
vn 0.9860 0.1620 0.0402
vn 0.9372 0.3371 0.0899
vn 0.9569 0.2903 -0.0002
vn 0.9868 0.1541 0.0492
vn 0.9873 0.1526 0.0440
vn 0.9680 0.2493 -0.0262
vn 0.9706 0.2382 -0.0336
vn 0.9684 0.2440 -0.0522
vn 0.9855 0.1678 -0.0259
vn 0.9859 0.1666 0.0154
vn 0.9891 0.1433 -0.0322
vn 0.9873 0.1361 0.0820
vn 0.9874 0.1271 0.0943
vn 0.9726 0.2269 -0.0496
vn 0.9861 0.1619 -0.0357
vn 0.9900 0.1339 -0.0438
vn 0.9914 0.1180 0.0569
vn 0.9874 0.1508 -0.0477
vn 0.9924 0.1179 -0.0341
vn 0.9886 0.1388 -0.0575
vn 0.9948 0.0898 0.0467
vn 0.9955 0.0898 -0.0303
vn -0.9169 0.3985 0.0232
vn -0.9036 0.2870 0.3179
vn -0.8838 0.4197 0.2069
vn -0.8686 0.4892 0.0787
vn -0.9352 0.3006 0.1870
vn -0.9004 0.4350 0.0071
vn -0.8506 0.5247 0.0345
vn -0.9488 0.3152 0.0202
vn -0.9555 0.2889 0.0588
vn -0.8945 0.4461 0.0291
vn -0.9542 0.2876 0.0826
vn -0.9541 0.1501 0.2591
vn -0.8947 0.4465 0.0058
vn -0.8504 0.5261 -0.0040
vn -0.8723 0.4758 -0.1123
vn -0.8827 0.0394 0.4682
vn -0.9013 0.4212 -0.1012
vn -0.9582 0.2860 0.0001
vn -0.9356 0.3251 -0.1377
vn -0.9730 0.2305 0.0113
vn -0.9861 0.1623 0.0339
vn -0.9860 0.1619 0.0402
vn -0.9372 0.3371 0.0898
vn -0.9569 0.2903 -0.0002
vn -0.9868 0.1541 0.0492
vn -0.9873 0.1526 0.0440
vn -0.9680 0.2493 -0.0262
vn -0.9706 0.2382 -0.0335
vn -0.9684 0.2440 -0.0521
vn -0.9855 0.1678 -0.0258
vn -0.9859 0.1666 0.0154
vn -0.9891 0.1433 -0.0322
vn -0.9873 0.1361 0.0819
vn -0.9874 0.1271 0.0942
vn -0.9726 0.2269 -0.0495
vn -0.9861 0.1620 -0.0356
vn -0.9900 0.1339 -0.0438
vn -0.9914 0.1180 0.0569
vn -0.9874 0.1508 -0.0477
vn -0.9924 0.1179 -0.0341
vn -0.9886 0.1388 -0.0575
vn -0.9948 0.0898 0.0467
vn -0.9955 0.0898 -0.0303
vn 0.0000 0.9982 0.0600
vn 0.0000 0.1198 -0.9928
vn 0.0022 0.7296 -0.6838
vn 0.0144 0.9927 0.1194
vn 0.0052 0.8263 0.5631
vn 0.0000 0.6076 -0.7942
vn 0.0364 0.9038 -0.4263
vn 0.2891 0.9094 -0.2991
vn -0.0746 0.9759 -0.2049
vn -0.1189 0.6433 -0.7563
vn -0.0003 0.6198 -0.7847
vn 0.2964 0.7449 -0.5976
vn 0.1744 0.6905 -0.7019
vn -0.0126 0.9999 -0.0043
vn 0.0001 0.1198 -0.9928
vn 0.1118 0.8974 -0.4267
vn -0.0034 0.6113 -0.7913
vn 0.0000 0.0600 -0.9982
vn 0.0000 0.1191 -0.9929
vn 0.0000 0.8244 -0.5659
vn -0.1935 0.7253 -0.6606
vn 0.1302 0.6812 -0.7204
vn 0.1923 0.9688 -0.1560
vn 0.0000 0.9444 -0.3287
vn -0.3159 0.7961 -0.5160
vn 0.0040 -0.0212 -0.9998
vn -0.2994 -0.0501 -0.9528
vn -0.5731 -0.0555 -0.8176
vn -0.1599 -0.0151 -0.9870
vn -0.0010 -0.0049 -1.0000
vn -0.1151 -0.0078 -0.9933
vn -0.0642 0.0000 -0.9979
vn -0.0031 0.0025 -1.0000
vn -0.0395 0.0034 -0.9992
vn -0.0119 0.0034 -0.9999
vn 0.0011 0.0019 -1.0000
vn 0.0242 0.0015 -0.9997
vn 0.0873 -0.0119 -0.9961
vn 0.0050 -0.0164 -0.9998
vn 0.1807 -0.0303 -0.9831
vn 0.1451 -0.0333 -0.9888
vn -0.0326 -0.0384 -0.9987
vn -0.0575 -0.0333 -0.9978
vn -0.0906 -0.0215 -0.9956
vn -0.1324 -0.0032 -0.9912
vn -0.0555 -0.0580 -0.9968
vn 0.2994 -0.0501 -0.9528
vn -0.0040 -0.0212 -0.9998
vn 0.5731 -0.0555 -0.8176
vn 0.1599 -0.0151 -0.9870
vn 0.0010 -0.0049 -1.0000
vn 0.1151 -0.0078 -0.9933
vn 0.0642 0.0000 -0.9979
vn 0.0031 0.0025 -1.0000
vn 0.0394 0.0034 -0.9992
vn 0.0119 0.0034 -0.9999
vn -0.0011 0.0019 -1.0000
vn -0.0242 0.0015 -0.9997
vn -0.0873 -0.0119 -0.9961
vn -0.0050 -0.0164 -0.9998
vn -0.1807 -0.0303 -0.9831
vn -0.1451 -0.0333 -0.9888
vn 0.0326 -0.0384 -0.9987
vn 0.0575 -0.0333 -0.9978
vn 0.0906 -0.0215 -0.9956
vn 0.1324 -0.0032 -0.9912
vn 0.0555 -0.0580 -0.9968
usemtl chassis.020
s 1
f 2/1/1 1/2/2 3/3/3
f 1/2/2 4/4/4 3/3/3
f 1/2/2 2/1/1 5/5/5
f 5/5/5 6/6/6 1/2/2
f 4/4/4 1/2/2 6/6/6
f 7/7/7 4/4/4 6/6/6
f 5/5/5 8/8/8 6/6/6
f 2/1/1 9/9/9 5/5/5
f 9/9/9 8/8/8 5/5/5
f 8/8/8 10/10/10 6/6/6
f 7/7/7 6/6/6 10/10/10
f 9/9/9 2/1/1 11/11/11
f 12/12/12 8/8/8 9/9/9
f 11/11/11 12/12/12 9/9/9
f 10/10/10 8/8/8 13/13/13
f 10/10/10 13/13/13 7/7/7
f 14/14/14 7/7/7 13/13/13
f 8/8/8 15/15/15 13/13/13
f 15/15/15 14/14/14 13/13/13
f 12/12/12 11/11/11 16/16/16
f 14/14/14 15/15/15 17/17/17
f 15/15/15 8/8/8 18/18/18
f 19/19/19 17/17/17 15/15/15
f 15/15/15 18/18/18 19/19/19
f 8/8/8 12/12/12 20/20/20
f 21/21/21 20/20/20 12/12/12
f 16/16/16 22/22/22 12/12/12
f 21/21/21 12/12/12 22/22/22
f 17/17/17 19/19/19 23/23/23
f 19/19/19 18/18/18 24/24/24
f 24/24/24 23/23/23 19/19/19
f 20/20/20 21/21/21 25/25/25
f 25/25/25 21/21/21 26/26/26
f 22/22/22 26/26/26 21/21/21
f 27/27/27 24/24/24 18/18/18
f 27/27/27 18/18/18 8/8/8
f 8/8/8 28/28/28 27/27/27
f 28/28/28 8/8/8 20/20/20
f 29/29/29 24/24/24 27/27/27
f 27/27/27 28/28/28 29/29/29
f 20/20/20 30/30/30 28/28/28
f 20/20/20 25/25/25 31/31/31
f 32/32/32 20/20/20 31/31/31
f 20/20/20 32/32/32 30/30/30
f 33/33/33 31/31/31 25/25/25
f 33/33/33 25/25/25 34/34/34
f 26/26/26 34/34/34 25/25/25
f 35/35/35 29/29/29 28/28/28
f 36/36/36 28/28/28 30/30/30
f 28/28/28 36/36/36 35/35/35
f 30/30/30 37/37/37 36/36/36
f 37/37/37 30/30/30 32/32/32
f 33/33/33 38/38/38 31/31/31
f 38/38/38 33/33/33 34/34/34
f 39/39/39 32/32/32 31/31/31
f 40/40/40 31/31/31 38/38/38
f 39/39/39 31/31/31 40/40/40
f 32/32/32 41/41/41 37/37/37
f 41/41/41 32/32/32 39/39/39
f 40/40/40 41/41/41 39/39/39
f 34/34/34 42/42/42 38/38/38
f 38/38/38 43/43/43 40/40/40
f 43/43/43 38/38/38 42/42/42
f 41/41/41 40/40/40 43/43/43
f 44/44/44 45/45/45 46/46/46
f 47/47/47 44/44/44 46/46/46
f 45/45/45 44/44/44 48/48/48
f 49/49/49 48/48/48 44/44/44
f 44/44/44 47/47/47 49/49/49
f 47/47/47 50/50/50 49/49/49
f 51/51/51 48/48/48 49/49/49
f 52/52/52 45/45/45 48/48/48
f 51/51/51 52/52/52 48/48/48
f 53/53/53 51/51/51 49/49/49
f 49/49/49 50/50/50 53/53/53
f 45/45/45 52/52/52 54/54/54
f 51/51/51 55/55/55 52/52/52
f 55/55/55 54/54/54 52/52/52
f 51/51/51 53/53/53 56/56/56
f 56/56/56 53/53/53 50/50/50
f 50/50/50 57/57/57 56/56/56
f 58/58/58 51/51/51 56/56/56
f 57/57/57 58/58/58 56/56/56
f 54/54/54 55/55/55 59/59/59
f 58/58/58 57/57/57 60/60/60
f 51/51/51 58/58/58 61/61/61
f 60/60/60 62/62/62 58/58/58
f 61/61/61 58/58/58 62/62/62
f 55/55/55 51/51/51 63/63/63
f 63/63/63 64/64/64 55/55/55
f 65/65/65 59/59/59 55/55/55
f 55/55/55 64/64/64 65/65/65
f 62/62/62 60/60/60 66/66/66
f 61/61/61 62/62/62 67/67/67
f 66/66/66 67/67/67 62/62/62
f 64/64/64 63/63/63 68/68/68
f 64/64/64 68/68/68 69/69/69
f 69/69/69 65/65/65 64/64/64
f 67/67/67 70/70/70 61/61/61
f 61/61/61 70/70/70 51/51/51
f 71/71/71 51/51/51 70/70/70
f 51/51/51 71/71/71 63/63/63
f 67/67/67 72/72/72 70/70/70
f 71/71/71 70/70/70 72/72/72
f 73/73/73 63/63/63 71/71/71
f 68/68/68 63/63/63 74/74/74
f 63/63/63 75/75/75 74/74/74
f 75/75/75 63/63/63 73/73/73
f 74/74/74 76/76/76 68/68/68
f 68/68/68 76/76/76 77/77/77
f 77/77/77 69/69/69 68/68/68
f 72/72/72 78/78/78 71/71/71
f 71/71/71 79/79/79 73/73/73
f 79/79/79 71/71/71 78/78/78
f 80/80/80 73/73/73 79/79/79
f 73/73/73 80/80/80 75/75/75
f 81/81/81 76/76/76 74/74/74
f 76/76/76 81/81/81 77/77/77
f 75/75/75 82/82/82 74/74/74
f 74/74/74 83/83/83 81/81/81
f 74/74/74 82/82/82 83/83/83
f 84/84/84 75/75/75 80/80/80
f 75/75/75 84/84/84 82/82/82
f 84/84/84 83/83/83 82/82/82
f 85/85/85 77/77/77 81/81/81
f 86/86/86 81/81/81 83/83/83
f 81/81/81 86/86/86 85/85/85
f 83/83/83 84/84/84 86/86/86
f 87/87/87 88/88/88 89/89/88
f 90/90/89 87/87/87 89/89/88
f 91/91/90 88/88/88 87/87/87
f 87/87/87 92/92/91 91/91/90
f 87/87/87 90/90/89 92/92/91
f 91/91/90 93/93/88 88/88/88
f 91/91/90 94/94/92 93/93/88
f 91/91/90 92/92/91 94/94/92
f 95/95/93 92/92/91 90/90/89
f 95/95/93 94/94/92 92/92/91
f 90/90/89 96/96/94 95/95/93
f 97/97/95 95/95/93 96/96/94
f 95/95/93 97/97/95 98/98/96
f 99/99/97 94/94/92 95/95/93
f 95/95/93 98/98/96 99/99/97
f 100/100/98 98/98/96 97/97/95
f 98/98/96 100/100/98 101/101/99
f 99/99/97 98/98/96 101/101/99
f 102/102/100 93/93/88 94/94/92
f 93/93/88 102/102/100 103/103/101
f 104/104/102 94/94/92 99/99/97
f 94/94/92 105/105/103 102/102/100
f 94/94/92 104/104/102 105/105/103
f 106/106/88 101/101/99 100/100/98
f 101/101/99 106/106/88 99/107/97
f 107/108/104 103/103/101 102/102/100
f 102/102/100 105/105/103 107/108/104
f 105/105/103 108/109/105 107/108/104
f 103/103/101 107/108/104 108/109/105
f 104/104/102 109/110/106 105/105/103
f 108/109/105 105/105/103 109/110/106
f 106/106/88 110/111/107 99/107/97
f 110/111/107 111/112/108 99/107/97
f 104/104/102 99/107/97 111/112/108
f 111/112/108 112/113/109 104/104/102
f 109/110/106 104/104/102 113/114/110
f 104/104/102 112/113/109 113/114/110
f 106/106/88 114/115/111 110/111/107
f 111/112/108 110/111/107 114/115/111
f 114/115/111 112/113/109 111/112/108
f 115/116/112 118/117/113 121/118/114
f 115/116/112 117/119/115 118/117/113
f 115/116/112 132/120/116 117/119/115
f 116/121/117 117/119/115 132/120/116
f 132/120/116 127/122/118 116/121/117
f 132/120/116 126/123/119 127/122/118
f 124/124/120 127/122/118 126/123/119
f 126/123/119 122/125/121 124/124/120
f 126/123/119 125/126/122 122/125/121
f 123/127/123 122/125/121 125/126/122
f 125/126/122 120/128/124 123/127/123
f 125/126/122 140/129/125 120/128/124
f 119/130/126 120/128/124 140/129/125
f 140/129/125 144/131/127 119/130/126
f 140/129/125 141/132/128 144/131/127
f 141/132/128 139/133/129 144/131/127
f 139/133/129 143/134/130 144/131/127
f 143/134/130 142/135/131 144/131/127
f 142/135/131 153/136/132 144/131/127
f 138/137/133 151/138/134 150/139/135
f 156/140/136 151/138/134 138/137/133
f 151/138/134 156/140/136 146/141/137
f 145/142/138 146/141/137 156/140/136
f 135/143/139 146/141/137 145/142/138
f 146/141/137 135/143/139 137/144/140
f 136/145/141 137/144/140 135/143/139
f 152/146/142 137/144/140 136/145/141
f 137/144/140 152/146/142 147/147/143
f 148/148/144 147/147/143 152/146/142
f 134/149/145 147/147/143 148/148/144
f 147/147/143 134/149/145 155/150/146
f 149/151/147 155/150/146 134/149/145
f 131/152/148 155/150/146 149/151/147
f 154/153/149 155/150/146 131/152/148
f 129/154/150 154/153/149 131/152/148
f 130/155/151 129/154/150 131/152/148
f 128/156/152 130/155/151 131/152/148
f 133/157/153 128/156/152 131/152/148
