# Blender v2.93.18 OBJ File: 'Ferrari GTO 250 10.blend'
# www.blender.org
mtllib Ferrari GTO 250 hood grill.mtl
o hood_grill_bonnet_ok.007
v -14.333751 4.058406 41.354820
v -14.897599 3.937427 40.154652
v -13.467177 4.171812 41.910427
v -12.550091 4.266891 42.038189
v -11.650002 4.346267 41.909264
v -10.783450 4.393106 41.352695
v -11.177945 4.196857 38.308422
v -15.161696 3.800518 38.292030
v -9.960659 4.294473 38.313435
v -10.220438 4.380829 40.154305
v 10.220428 4.380829 40.154308
v 10.783438 4.393109 41.352707
v 9.960650 4.294471 38.313438
v 11.177940 4.196858 38.308422
v 11.650002 4.346267 41.909264
v 14.897602 3.937430 40.154652
v 15.161695 3.800518 38.292030
v 14.333753 4.058406 41.354820
v 12.550091 4.266891 42.038189
v 13.467174 4.171812 41.910427
vt 0.883873 0.166148
vt 0.852476 0.186279
vt 0.904302 0.122664
vt 0.819248 0.190909
vt 0.786636 0.186238
vt 0.755239 0.166073
vt 0.769531 0.055773
vt 0.913870 0.055177
vt 0.725426 0.055955
vt 0.734839 0.122653
vt 0.904053 0.122652
vt 0.883655 0.166072
vt 0.913465 0.055953
vt 0.869360 0.055772
vt 0.852258 0.186237
vt 0.734590 0.122665
vt 0.725021 0.055179
vt 0.755020 0.166150
vt 0.786418 0.186280
vt 0.819646 0.190909
vn -0.0942 0.9940 -0.0559
vn -0.0952 0.9939 -0.0551
vn -0.0969 0.9937 -0.0565
vn -0.0955 0.9939 -0.0548
vn -0.0932 0.9942 -0.0537
vn -0.0880 0.9947 -0.0536
vn -0.0882 0.9946 -0.0545
vn -0.0986 0.9933 -0.0590
vn -0.0823 0.9951 -0.0546
vn -0.1106 0.9919 -0.0621
vn 0.1106 0.9919 -0.0621
vn 0.0880 0.9947 -0.0536
vn 0.0823 0.9951 -0.0546
vn 0.0882 0.9946 -0.0545
vn 0.0932 0.9942 -0.0537
vn 0.0969 0.9937 -0.0565
vn 0.0986 0.9933 -0.0590
vn 0.0942 0.9940 -0.0559
vn 0.0952 0.9939 -0.0551
vn 0.0955 0.9939 -0.0548
usemtl chassis.019
s 1
f 1/1/1 3/2/2 2/3/3
f 3/2/2 4/4/4 2/3/3
f 2/3/3 4/4/4 5/5/5
f 6/6/6 7/7/7 5/5/5
f 7/7/7 2/3/3 5/5/5
f 8/8/8 2/3/3 7/7/7
f 7/7/7 6/6/6 9/9/9
f 10/10/10 9/9/9 6/6/6
f 11/11/11 12/12/12 13/13/13
f 14/14/14 13/13/13 12/12/12
f 12/12/12 15/15/15 14/14/14
f 15/15/15 16/16/16 14/14/14
f 16/16/16 17/17/17 14/14/14
f 18/18/18 16/16/16 20/19/19
f 19/20/20 16/16/16 15/15/15
f 20/19/19 16/16/16 19/20/20
