# Blender v2.93.18 OBJ File: 'Ferrari GTO 250 11.blend'
# www.blender.org
mtllib Ferrari GTO 250 steering logo.mtl
o steering_logo_250GTO62_seats.004
v -1.247578 -0.453187 4.495893
v -1.149774 -0.662934 4.495948
v -1.180469 -0.428645 4.565092
v -1.087922 -0.627109 4.565144
v -1.020401 -0.370270 4.639029
v -0.940406 -0.541823 4.639072
v -0.820242 -0.218643 4.675647
v -0.695607 -0.485935 4.675714
v 0.000000 0.001164 4.717173
v -0.487065 -0.694475 4.675769
v -0.219785 -0.819113 4.675803
v -0.371397 -1.019283 4.639196
v -0.188564 -1.068279 4.639209
v -0.218146 -1.236143 4.565302
v -1.017034 -0.852510 4.495997
v -0.962324 -0.806487 4.565187
v -0.831843 -0.696873 4.639113
v -0.697995 -0.830722 4.639147
v -0.542942 -0.939286 4.639175
v -0.429658 -1.179466 4.565287
v -0.230549 -1.306588 4.496117
v -0.853394 -1.016148 4.496041
v -0.807490 -0.961328 4.565229
v -0.663824 -1.148888 4.496076
v -0.628113 -1.086923 4.565262
v -0.454084 -1.246692 4.496100
v -0.000001 -1.326762 4.496123
v -0.000001 -1.255232 4.565309
v -0.000001 -1.084772 4.639215
v 0.074012 -0.844823 4.675807
v 0.358880 -0.768485 4.675788
v 0.600462 -0.599326 4.675746
v 0.697998 -0.830722 4.639147
v 0.831843 -0.696873 4.639113
v 0.807490 -0.961328 4.565229
v 0.188566 -1.068279 4.639209
v 0.371401 -1.019283 4.639196
v 0.542942 -0.939286 4.639175
v 0.628113 -1.086923 4.565262
v 0.853394 -1.016146 4.496041
v 1.017037 -0.852506 4.495997
v 0.218147 -1.236143 4.565302
v 0.429659 -1.179466 4.565287
v 0.230549 -1.306588 4.496117
v 0.454084 -1.246692 4.496100
v 0.663823 -1.148888 4.496076
v 0.769620 -0.357743 4.675683
v 0.845951 -0.072868 4.675609
v 0.820246 0.220928 4.675531
v 1.069392 0.189693 4.638879
v 1.020404 0.372528 4.638832
v 1.237146 0.219158 4.564923
v 1.180472 0.430664 4.564866
v 1.247583 0.454983 4.495657
v 1.149776 0.664733 4.495605
v 1.069392 -0.187436 4.638981
v 1.085894 0.001132 4.638930
v 1.256227 0.001010 4.564980
v 1.307480 0.231439 4.495714
v 1.237146 -0.217132 4.565036
v 1.180472 -0.428648 4.565091
v 1.020404 -0.370270 4.639027
v 1.087923 -0.627109 4.565144
v 0.940407 -0.541823 4.639072
v 0.962328 -0.806484 4.565189
v 1.149774 -0.662934 4.495948
v 1.247580 -0.453185 4.495894
v 1.307483 -0.229648 4.495834
v 1.327650 0.000901 4.495774
v 1.017037 0.854292 4.495550
v 0.853391 1.017944 4.495510
v 0.962327 0.808503 4.564768
v 0.807486 0.963339 4.564726
v 0.697998 0.832971 4.638710
v 0.542946 0.941538 4.638683
v 0.487069 0.696754 4.675406
v 0.371394 1.021542 4.638666
v 0.219783 0.821392 4.675374
v 0.188563 1.070529 4.638649
v -0.000001 1.087022 4.638648
v 0.218144 1.238157 4.564656
v -0.000001 1.257239 4.564651
v -0.000001 1.328550 4.495428
v 0.663823 1.150681 4.495474
v 0.628114 1.088942 4.564696
v 0.454081 1.248487 4.495449
v 0.429658 1.181480 4.564669
v 0.230542 1.308380 4.495434
v -0.230538 1.308382 4.495436
v -0.218141 1.238157 4.564656
v -0.188564 1.070529 4.638649
v -0.074011 0.847089 4.675366
v -0.371395 1.021542 4.638666
v -0.358877 0.770764 4.675388
v -0.542942 0.941540 4.638684
v -0.697995 0.832973 4.638712
v -0.807486 0.963339 4.564726
v -0.962327 0.808503 4.564768
v -1.017034 0.854298 4.495551
v -0.454081 1.248487 4.495449
v -0.429656 1.181480 4.564669
v -0.663824 1.150679 4.495473
v -0.628114 1.088942 4.564696
v -0.853391 1.017944 4.495510
v 0.695611 0.488218 4.675462
v 0.831842 0.699134 4.638748
v 1.087924 0.629130 4.564814
v 0.940409 0.544083 4.638787
v -0.600462 0.601606 4.675431
v -0.769616 0.360026 4.675494
v -0.940406 0.544083 4.638787
v -1.020404 0.372528 4.638832
v -1.180469 0.430664 4.564866
v -1.237141 0.219158 4.564923
v -1.307479 0.231439 4.495714
v -1.327646 0.000901 4.495774
v -0.831841 0.699131 4.638746
v -1.087923 0.629130 4.564814
v -1.247581 0.454983 4.495657
v -1.149774 0.664733 4.495605
v -0.845949 0.075153 4.675570
v -1.069389 0.189693 4.638879
v -1.085891 0.001132 4.638930
v -1.256227 0.001010 4.564980
v -1.237141 -0.217132 4.565036
v -1.307480 -0.229648 4.495834
v -1.069389 -0.187436 4.638981
vt 0.769056 0.587081
vt 0.765726 0.580023
vt 0.783380 0.573489
vt 0.785434 0.581020
vt 0.772290 0.593937
vt 0.787429 0.588334
vt 0.775332 0.615135
vt 0.798920 0.606404
vt 0.811880 0.677657
vt 0.824071 0.606269
vt 0.847751 0.614743
vt 0.850564 0.593514
vt 0.864588 0.601510
vt 0.868906 0.595273
vt 0.801899 0.570121
vt 0.802616 0.577894
vt 0.803311 0.585445
vt 0.819454 0.585358
vt 0.835366 0.588076
vt 0.853735 0.586624
vt 0.873352 0.588853
vt 0.820722 0.570019
vt 0.820079 0.577799
vt 0.839277 0.573188
vt 0.837293 0.580739
vt 0.856999 0.579530
vt 0.887837 0.600875
vt 0.882345 0.606426
vt 0.877010 0.611819
vt 0.867106 0.630806
vt 0.879799 0.652520
vt 0.884300 0.677265
vt 0.904091 0.669086
vt 0.904178 0.685229
vt 0.911642 0.668379
vt 0.887453 0.624129
vt 0.895599 0.638066
vt 0.901202 0.653204
vt 0.908517 0.651198
vt 0.919415 0.667652
vt 0.919517 0.686475
vt 0.893642 0.619744
vt 0.902455 0.634820
vt 0.900014 0.615229
vt 0.909513 0.631480
vt 0.916047 0.649133
vt 0.880066 0.702058
vt 0.867608 0.723907
vt 0.848428 0.740178
vt 0.865407 0.753228
vt 0.851471 0.761375
vt 0.869792 0.759406
vt 0.854716 0.768219
vt 0.858056 0.775267
vt 0.840403 0.781800
vt 0.888026 0.730363
vt 0.877717 0.742785
vt 0.883109 0.748109
vt 0.874307 0.765767
vt 0.894262 0.734671
vt 0.902912 0.719500
vt 0.896021 0.716340
vt 0.908797 0.703057
vt 0.901461 0.701141
vt 0.911736 0.685843
vt 0.916348 0.705030
vt 0.910006 0.722753
vt 0.900683 0.739106
vt 0.888661 0.753590
vt 0.821156 0.777406
vt 0.821884 0.785169
vt 0.803060 0.785270
vt 0.803693 0.777500
vt 0.804307 0.769954
vt 0.788395 0.767236
vt 0.799689 0.749043
vt 0.773196 0.761797
vt 0.776009 0.740569
vt 0.759173 0.753801
vt 0.746751 0.743492
vt 0.754866 0.760026
vt 0.741428 0.748873
vt 0.735946 0.754414
vt 0.784506 0.782102
vt 0.786479 0.774561
vt 0.766783 0.775759
vt 0.770037 0.768676
vt 0.750431 0.766436
vt 0.723769 0.740060
vt 0.730130 0.735556
vt 0.736308 0.731182
vt 0.756655 0.724506
vt 0.728161 0.717246
vt 0.743962 0.702793
vt 0.722558 0.702107
vt 0.719670 0.686225
vt 0.712130 0.686921
vt 0.712036 0.669457
vt 0.704266 0.668814
vt 0.714269 0.723810
vt 0.721317 0.720480
vt 0.707736 0.706156
vt 0.715255 0.704102
vt 0.704367 0.687637
vt 0.824840 0.748908
vt 0.820449 0.769867
vt 0.838338 0.774281
vt 0.836331 0.766978
vt 0.739460 0.678047
vt 0.743694 0.653255
vt 0.722300 0.654171
vt 0.727739 0.638972
vt 0.720859 0.635800
vt 0.729509 0.620630
vt 0.723100 0.616184
vt 0.735121 0.601699
vt 0.719582 0.670083
vt 0.714975 0.652243
vt 0.713776 0.632536
vt 0.707434 0.650259
vt 0.756152 0.631405
vt 0.735735 0.624949
vt 0.746044 0.612527
vt 0.740662 0.607192
vt 0.753979 0.595894
vt 0.749475 0.589522
vt 0.758354 0.602084
vn -0.5288 -0.1922 0.8267
vn -0.6537 -0.2378 0.7183
vn -0.6024 -0.3476 0.7185
vn -0.4873 -0.2811 0.8267
vn -0.2657 -0.0976 0.9591
vn -0.2457 -0.1404 0.9591
vn -0.1003 -0.0266 0.9946
vn -0.0851 -0.0593 0.9946
vn 0.0000 0.0002 1.0000
vn -0.0596 -0.0848 0.9946
vn -0.0269 -0.1001 0.9946
vn -0.0978 -0.2654 0.9591
vn -0.0481 -0.2787 0.9592
vn -0.0977 -0.5537 0.8269
vn -0.5328 -0.4469 0.7186
vn -0.4310 -0.3614 0.8268
vn -0.2162 -0.1826 0.9591
vn -0.1828 -0.2159 0.9591
vn -0.1406 -0.2454 0.9591
vn -0.1924 -0.5283 0.8269
vn -0.1208 -0.6847 0.7188
vn -0.4471 -0.5326 0.7186
vn -0.3616 -0.4307 0.8268
vn -0.3477 -0.6021 0.7187
vn -0.2812 -0.4869 0.8269
vn -0.2378 -0.6533 0.7187
vn 0.0000 -0.6952 0.7188
vn 0.0000 -0.5622 0.8269
vn -0.0011 -0.2828 0.9592
vn 0.0090 -0.1032 0.9946
vn 0.0439 -0.0939 0.9946
vn 0.0735 -0.0732 0.9946
vn 0.1811 -0.2173 0.9591
vn 0.2176 -0.1809 0.9591
vn 0.3616 -0.4307 0.8268
vn 0.0502 -0.2783 0.9592
vn 0.0958 -0.2661 0.9591
vn 0.1425 -0.2444 0.9591
vn 0.2813 -0.4869 0.8269
vn 0.4470 -0.5326 0.7186
vn 0.5328 -0.4469 0.7186
vn 0.0977 -0.5537 0.8269
vn 0.1924 -0.5283 0.8269
vn 0.1207 -0.6847 0.7188
vn 0.2378 -0.6533 0.7187
vn 0.3477 -0.6021 0.7187
vn 0.0941 -0.0436 0.9946
vn 0.1035 -0.0088 0.9946
vn 0.1003 0.0271 0.9946
vn 0.2791 0.0483 0.9590
vn 0.2658 0.0981 0.9590
vn 0.5543 0.0980 0.8265
vn 0.5290 0.1928 0.8264
vn 0.6540 0.2382 0.7179
vn 0.6028 0.3482 0.7179
vn 0.2787 -0.0500 0.9591
vn 0.2832 0.0013 0.9590
vn 0.5628 0.0002 0.8266
vn 0.6854 0.1210 0.7180
vn 0.5542 -0.0975 0.8266
vn 0.5288 -0.1922 0.8267
vn 0.2664 -0.0956 0.9591
vn 0.4873 -0.2811 0.8267
vn 0.2446 -0.1422 0.9591
vn 0.4310 -0.3614 0.8268
vn 0.6024 -0.3476 0.7185
vn 0.6537 -0.2378 0.7183
vn 0.6852 -0.1206 0.7183
vn 0.6959 0.0002 0.7182
vn 0.4313 0.3622 0.8263
vn 0.5333 0.4476 0.7177
vn 0.4475 0.5335 0.7177
vn 0.3619 0.4316 0.8263
vn 0.1829 0.2165 0.9590
vn 0.1407 0.2461 0.9590
vn 0.0596 0.0854 0.9945
vn 0.0979 0.2661 0.9590
vn 0.0269 0.1006 0.9945
vn 0.0481 0.2794 0.9590
vn 0.0011 0.2835 0.9590
vn 0.0978 0.5549 0.8262
vn 0.0000 0.5634 0.8262
vn 0.0000 0.6965 0.7175
vn 0.3482 0.6032 0.7176
vn 0.2816 0.4879 0.8262
vn 0.2381 0.6545 0.7176
vn 0.1926 0.5294 0.8262
vn 0.1209 0.6859 0.7175
vn -0.1209 0.6859 0.7175
vn -0.0978 0.5548 0.8262
vn -0.0503 0.2790 0.9590
vn -0.0090 0.1038 0.9945
vn -0.0959 0.2668 0.9590
vn -0.0439 0.0944 0.9945
vn -0.1426 0.2450 0.9590
vn -0.1812 0.2179 0.9590
vn -0.3619 0.4316 0.8263
vn -0.4313 0.3622 0.8263
vn -0.5333 0.4477 0.7177
vn -0.2381 0.6545 0.7176
vn -0.1926 0.5294 0.8262
vn -0.3482 0.6032 0.7176
vn -0.2816 0.4879 0.8262
vn -0.4475 0.5335 0.7177
vn 0.0851 0.0598 0.9946
vn 0.2163 0.1832 0.9590
vn 0.4876 0.2817 0.8263
vn 0.2458 0.1409 0.9590
vn -0.0735 0.0737 0.9946
vn -0.0941 0.0442 0.9946
vn -0.2447 0.1428 0.9590
vn -0.2665 0.0961 0.9590
vn -0.5290 0.1928 0.8264
vn -0.5543 0.0980 0.8265
vn -0.6854 0.1210 0.7180
vn -0.6959 0.0002 0.7181
vn -0.2177 0.1815 0.9590
vn -0.4876 0.2817 0.8264
vn -0.6540 0.2382 0.7179
vn -0.6028 0.3482 0.7179
vn -0.1035 0.0093 0.9946
vn -0.2787 0.0505 0.9590
vn -0.2832 -0.0008 0.9590
vn -0.5628 0.0002 0.8266
vn -0.5542 -0.0975 0.8266
vn -0.6852 -0.1207 0.7183
vn -0.2790 -0.0478 0.9591
usemtl interior.002
s 1
f 3/1/1 1/2/2 2/3/3
f 3/1/1 2/3/3 4/4/4
f 5/5/5 3/1/1 4/4/4
f 5/5/5 4/4/4 6/6/6
f 7/7/7 5/5/5 6/6/6
f 7/7/7 6/6/6 8/8/8
f 9/9/9 7/7/7 8/8/8
f 9/9/9 8/8/8 10/10/10
f 11/11/11 9/9/9 10/10/10
f 11/11/11 10/10/10 12/12/12
f 13/13/13 11/11/11 12/12/12
f 13/13/13 12/12/12 14/14/14
f 4/4/4 2/3/3 15/15/15
f 4/4/4 15/15/15 16/16/16
f 6/6/6 4/4/4 16/16/16
f 6/6/6 16/16/16 17/17/17
f 8/8/8 6/6/6 17/17/17
f 8/8/8 17/17/17 18/18/18
f 10/10/10 8/8/8 18/18/18
f 10/10/10 18/18/18 19/19/19
f 12/12/12 10/10/10 19/19/19
f 12/12/12 19/19/19 20/20/20
f 14/14/14 12/12/12 20/20/20
f 14/14/14 20/20/20 21/21/21
f 16/16/16 15/15/15 22/22/22
f 16/16/16 22/22/22 23/23/23
f 17/17/17 16/16/16 23/23/23
f 17/17/17 23/23/23 18/18/18
f 23/23/23 22/22/22 24/24/24
f 23/23/23 24/24/24 25/25/25
f 18/18/18 23/23/23 25/25/25
f 18/18/18 25/25/25 19/19/19
f 25/25/25 24/24/24 26/26/26
f 25/25/25 26/26/26 20/20/20
f 19/19/19 25/25/25 20/20/20
f 14/14/14 21/21/21 27/27/27
f 14/14/14 27/27/27 28/28/28
f 13/13/13 14/14/14 28/28/28
f 13/13/13 28/28/28 29/29/29
f 11/11/11 13/13/13 29/29/29
f 11/11/11 29/29/29 30/30/30
f 9/9/9 11/11/11 30/30/30
f 9/9/9 30/30/30 31/31/31
f 32/32/32 9/9/9 31/31/31
f 32/32/32 31/31/31 33/33/33
f 34/34/34 32/32/32 33/33/33
f 34/34/34 33/33/33 35/35/35
f 30/30/30 29/29/29 36/36/36
f 30/30/30 36/36/36 37/37/37
f 31/31/31 30/30/30 37/37/37
f 31/31/31 37/37/37 38/38/38
f 33/33/33 31/31/31 38/38/38
f 33/33/33 38/38/38 39/39/39
f 35/35/35 33/33/33 39/39/39
f 35/35/35 39/39/39 40/40/40
f 41/41/41 35/35/35 40/40/40
f 36/36/36 29/29/29 28/28/28
f 36/36/36 28/28/28 42/42/42
f 37/37/37 36/36/36 42/42/42
f 37/37/37 42/42/42 43/43/43
f 38/38/38 37/37/37 43/43/43
f 38/38/38 43/43/43 39/39/39
f 42/42/42 28/28/28 44/44/44
f 42/42/42 44/44/44 45/45/45
f 43/43/43 42/42/42 45/45/45
f 43/43/43 45/45/45 46/46/46
f 39/39/39 43/43/43 46/46/46
f 39/39/39 46/46/46 40/40/40
f 9/9/9 32/32/32 47/47/47
f 9/9/9 47/47/47 48/48/48
f 49/49/49 9/9/9 48/48/48
f 49/49/49 48/48/48 50/50/50
f 51/51/51 49/49/49 50/50/50
f 51/51/51 50/50/50 52/52/52
f 53/53/53 51/51/51 52/52/52
f 53/53/53 52/52/52 54/54/54
f 55/55/55 53/53/53 54/54/54
f 48/48/48 47/47/47 56/56/56
f 48/48/48 56/56/56 57/57/57
f 50/50/50 48/48/48 57/57/57
f 50/50/50 57/57/57 58/58/58
f 52/52/52 50/50/50 58/58/58
f 52/52/52 58/58/58 59/59/59
f 54/54/54 52/52/52 59/59/59
f 60/60/60 58/58/58 57/57/57
f 60/60/60 57/57/57 56/56/56
f 61/61/61 60/60/60 56/56/56
f 61/61/61 56/56/56 62/62/62
f 63/63/63 61/61/61 62/62/62
f 63/63/63 62/62/62 64/64/64
f 65/65/65 63/63/63 64/64/64
f 65/65/65 64/64/64 34/34/34
f 35/35/35 65/65/65 34/34/34
f 65/65/65 35/35/35 41/41/41
f 65/65/65 41/41/41 66/66/66
f 63/63/63 65/65/65 66/66/66
f 63/63/63 66/66/66 67/67/67
f 61/61/61 63/63/63 67/67/67
f 61/61/61 67/67/67 68/68/68
f 60/60/60 61/61/61 68/68/68
f 60/60/60 68/68/68 69/69/69
f 58/58/58 60/60/60 69/69/69
f 58/58/58 69/69/69 59/59/59
f 62/62/62 56/56/56 47/47/47
f 62/62/62 47/47/47 64/64/64
f 64/64/64 47/47/47 32/32/32
f 64/64/64 32/32/32 34/34/34
f 72/70/70 70/71/71 71/72/72
f 72/70/70 71/72/72 73/73/73
f 74/74/74 72/70/70 73/73/73
f 74/74/74 73/73/73 75/75/75
f 76/76/76 74/74/74 75/75/75
f 76/76/76 75/75/75 77/77/77
f 78/78/78 76/76/76 77/77/77
f 78/78/78 77/77/77 79/79/79
f 80/80/80 78/78/78 79/79/79
f 80/80/80 79/79/79 81/81/81
f 82/82/82 80/80/80 81/81/81
f 82/82/82 81/81/81 83/83/83
f 73/73/73 71/72/72 84/84/84
f 73/73/73 84/84/84 85/85/85
f 75/75/75 73/73/73 85/85/85
f 75/75/75 85/85/85 77/77/77
f 85/85/85 84/84/84 86/86/86
f 85/85/85 86/86/86 87/87/87
f 77/77/77 85/85/85 87/87/87
f 77/77/77 87/87/87 79/79/79
f 87/87/87 86/86/86 88/88/88
f 87/87/87 88/88/88 81/81/81
f 79/79/79 87/87/87 81/81/81
f 82/82/82 83/83/83 89/89/89
f 82/82/82 89/89/89 90/90/90
f 80/80/80 82/82/82 90/90/90
f 80/80/80 90/90/90 91/91/91
f 92/92/92 80/80/80 91/91/91
f 92/92/92 91/91/91 93/93/93
f 94/94/94 92/92/92 93/93/93
f 94/94/94 93/93/93 95/95/95
f 96/96/96 94/94/94 95/95/95
f 96/96/96 95/95/95 97/97/97
f 98/98/98 96/96/96 97/97/97
f 98/98/98 97/97/97 99/99/99
f 90/90/90 89/89/89 100/100/100
f 90/90/90 100/100/100 101/101/101
f 91/91/91 90/90/90 101/101/101
f 91/91/91 101/101/101 93/93/93
f 101/101/101 100/100/100 102/102/102
f 101/101/101 102/102/102 103/103/103
f 93/93/93 101/101/101 103/103/103
f 93/93/93 103/103/103 95/95/95
f 103/103/103 102/102/102 104/104/104
f 103/103/103 104/104/104 97/97/97
f 95/95/95 103/103/103 97/97/97
f 78/78/78 80/80/80 92/92/92
f 78/78/78 92/92/92 9/9/9
f 76/76/76 78/78/78 9/9/9
f 76/76/76 9/9/9 105/105/105
f 74/74/74 76/76/76 105/105/105
f 74/74/74 105/105/105 106/106/106
f 72/70/70 74/74/74 106/106/106
f 72/70/70 106/106/106 107/107/107
f 70/71/71 72/70/70 107/107/107
f 70/71/71 107/107/107 55/55/55
f 105/105/105 9/9/9 49/49/49
f 105/105/105 49/49/49 108/108/108
f 106/106/106 105/105/105 108/108/108
f 106/106/106 108/108/108 107/107/107
f 108/108/108 49/49/49 51/51/51
f 108/108/108 51/51/51 53/53/53
f 107/107/107 108/108/108 53/53/53
f 107/107/107 53/53/53 55/55/55
f 9/9/9 92/92/92 94/94/94
f 9/9/9 94/94/94 109/109/109
f 110/110/110 9/9/9 109/109/109
f 110/110/110 109/109/109 111/111/111
f 112/112/112 110/110/110 111/111/111
f 112/112/112 111/111/111 113/113/113
f 114/114/114 112/112/112 113/113/113
f 114/114/114 113/113/113 115/115/115
f 116/116/116 114/114/114 115/115/115
f 109/109/109 94/94/94 96/96/96
f 109/109/109 96/96/96 117/117/117
f 111/111/111 109/109/109 117/117/117
f 111/111/111 117/117/117 118/118/118
f 113/113/113 111/111/111 118/118/118
f 113/113/113 118/118/118 119/119/119
f 115/115/115 113/113/113 119/119/119
f 117/117/117 96/96/96 98/98/98
f 117/117/117 98/98/98 118/118/118
f 118/118/118 98/98/98 120/120/120
f 118/118/118 120/120/120 119/119/119
f 121/121/121 9/9/9 110/110/110
f 121/121/121 110/110/110 122/122/122
f 123/123/123 121/121/121 122/122/122
f 123/123/123 122/122/122 124/124/124
f 125/125/125 123/123/123 124/124/124
f 125/125/125 124/124/124 126/126/126
f 1/2/2 125/125/125 126/126/126
f 122/122/122 110/110/110 112/112/112
f 122/122/122 112/112/112 114/114/114
f 124/124/124 122/122/122 114/114/114
f 124/124/124 114/114/114 116/116/116
f 126/126/126 124/124/124 116/116/116
f 125/125/125 1/2/2 3/1/1
f 125/125/125 3/1/1 127/127/127
f 123/123/123 125/125/125 127/127/127
f 123/123/123 127/127/127 121/121/121
f 127/127/127 3/1/1 5/5/5
f 127/127/127 5/5/5 7/7/7
f 121/121/121 127/127/127 7/7/7
f 121/121/121 7/7/7 9/9/9
f 20/20/20 26/26/26 21/21/21
f 97/97/97 104/104/104 99/99/99
f 98/98/98 99/99/99 120/120/120
f 27/27/27 44/44/44 28/28/28
f 88/88/88 83/83/83 81/81/81
