# Blender v2.93.18 OBJ File: ''
# www.blender.org
o Front_Left_german\G99_RhB_Waffentrager\normal\l\Turret_01.pri~11~6.628
v 7.736205 0.562998 48.188877
v 7.736205 25.885778 17.818857
v 47.488094 0.000005 36.495987
v 7.736205 0.000007 48.854233
v 7.349918 -0.914383 46.946751
v 7.351720 24.403170 16.582380
v 47.103607 -1.482483 35.259388
v 7.348657 -1.473289 47.607601
v 47.103790 24.403290 4.227894
v 47.488094 25.885775 5.464551
vt 0.207700 0.207300
vt 0.011500 0.207300
vt 0.011500 0.207300
vt 0.207700 0.207300
vt 0.054300 0.006300
vt 0.007200 0.207300
vt 0.007200 0.207300
vt 0.054300 0.006300
vt 0.254800 0.006300
vt 0.254800 0.006300
vn 0.6334 -0.7678 0.0958
vn 0.5298 -0.4251 -0.7339
vn 0.9505 0.2824 0.1294
vn 0.6211 -0.1421 0.7708
vn -0.8226 0.1459 -0.5496
vn 0.3077 0.1197 -0.9439
vn 0.7613 0.6006 -0.2444
vn -0.6888 0.7216 0.0701
vn -0.5854 0.0706 0.8077
vn -0.4830 -0.7872 0.3835
s 1
f 2/1/1 1/2/2 5/3/3 6/4/4
f 2/1/1 3/5/5 1/2/2
f 4/6/6 1/2/2 3/5/5
f 1/2/2 4/6/6 8/7/7 5/3/3
f 6/4/4 5/3/3 7/8/8
f 8/7/7 7/8/8 5/3/3
f 4/6/6 3/5/5 7/8/8 8/7/7
f 9/9/9 6/4/4 7/8/8
f 3/5/5 10/10/10 9/9/9 7/8/8
f 10/10/10 2/1/1 6/4/4 9/9/9
f 10/10/10 3/5/5 2/1/1
