# Blender v2.93.18 OBJ File: 'Rhm Borsig Waffentrager armor hull.blend'
# www.blender.org
o Rear_top_german\G99_RhB_Waffentrager\normal\l\Hull.pri~11~5.1398
v 36.858192 17.393682 104.499786
v 36.858192 2.192930 132.330444
v 36.858192 15.666086 103.556244
v 36.858192 0.465334 131.386902
v -36.858192 0.465334 131.386902
v -36.858192 15.666086 103.556244
v -36.858192 17.393682 104.499786
v -36.858192 2.192930 132.330444
vt 0.151500 0.618100
vt 0.151500 0.618100
vt 0.064900 0.618100
vt 0.064900 0.618100
vt 0.064900 0.416700
vt 0.151500 0.416700
vt 0.064900 0.416700
vt 0.151500 0.416700
vt 0.000000 0.000000
vn -0.5798 0.7832 -0.2244
vn -0.5798 -0.2345 -0.7803
vn -0.5798 -0.7803 0.2345
vn -0.5737 0.2268 0.7871
vn 0.5724 -0.7868 0.2309
vn 0.5724 -0.2309 -0.7868
vn 0.5724 0.2309 0.7868
vn 0.5789 0.7822 -0.2303
s 1
f 7/1/1 6/2/2 5/3/3 8/4/4
f 4/5/5 5/3/3 6/2/2 3/6/6
f 8/4/4 5/3/3 4/5/5 2/7/7
f 2/7/7 4/5/5 3/6/6 1/8/8
f 7/1/1 8/4/4 2/7/7 1/9/8
f 6/2/2 7/1/1 1/9/8 3/6/6
