# Blender v2.93.18 OBJ File: 'Rhm Borsig Waffentrager armor hull.blend'
# www.blender.org
o Front_Top_german\G99_RhB_Waffentrager\normal\l\Hull.pri~11~5.1394
v 36.858192 20.531441 -86.488014
v 36.858192 6.279494 -125.220215
v 36.858192 18.684053 -85.808258
v 36.858315 -0.484066 -137.828644
v -36.858192 6.279494 -125.220215
v -36.858192 1.362180 -138.511520
v -36.858192 20.531441 -86.488014
v -36.858192 18.684053 -85.808258
v 36.858192 1.362180 -138.511520
v -36.858315 -0.484066 -137.828644
vt 0.833600 0.425900
vt 0.833600 0.425900
vt 0.833600 0.626400
vt 0.833600 0.626400
vt 0.795100 0.626400
vt 0.795100 0.425900
vt 0.682900 0.626400
vt 0.000000 0.000000
vt 0.682900 0.425900
vt 0.000000 0.000000
vt 0.682900 0.425900
vt 0.682900 0.626400
vt 0.000000 0.000000
vt 0.000000 0.000000
vt 0.000000 0.000000
vn 0.5773 0.3412 -0.7418
vn 0.5774 -0.7415 -0.3417
vn -0.5774 -0.7415 -0.3417
vn -0.5773 0.3412 -0.7418
vn -0.7015 0.6680 -0.2482
vn 0.7069 0.6609 -0.2521
vn -0.5707 0.7455 0.3444
vn 0.5757 0.7438 0.3397
vn 0.5766 -0.3377 0.7440
vn -0.5815 -0.3394 0.7394
s 1
f 9/1/1 4/2/2 10/3/3 6/4/4
f 6/4/4 5/5/5 2/6/6 9/1/1
f 4/2/2 9/1/1 2/6/6
f 5/5/5 7/7/7 1/8/8 2/6/6
f 3/9/9 4/10/2 1/11/8
f 1/11/8 4/2/2 2/6/6
f 1/8/8 7/7/7 8/12/10 3/9/9
f 5/5/5 6/4/4 10/3/3
f 3/13/9 8/14/10 10/15/3 4/10/2
f 5/5/5 10/3/3 7/7/7
f 7/7/7 10/15/3 8/12/10
