# Blender v2.93.18 OBJ File: 'Rhm Borsig Waffentrager armor hull.blend'
# www.blender.org
o Front_Bottom_german\G99_RhB_Waffentrager\normal\l\Hull.pri~11~5.1396
v 36.858192 -8.539376 -138.511520
v -36.858192 -8.539376 -138.511520
v 36.858192 -13.515742 -129.779266
v 36.858192 -6.829141 -137.536926
v -36.858192 -6.829141 -137.536926
v 36.858192 -11.805508 -128.804657
v -36.858192 -11.805508 -128.804657
v -36.858192 -13.515742 -129.779266
v 36.858192 1.362180 -138.511520
v -36.858192 1.362180 -138.511520
v 36.858192 -8.539376 -138.511520
v 36.858192 1.362180 -136.543030
v -36.858192 1.362180 -136.543091
v 36.858192 -8.539375 -136.543091
v -36.858192 -8.539375 -136.543030
v -36.858192 -8.539376 -138.511520
vt 0.935800 0.909800
vt 0.935800 0.909800
vt 0.935800 0.996400
vt 0.935800 0.996400
vt 0.924000 0.996400
vt 0.924000 0.996400
vt 0.924000 0.909800
vt 0.924000 0.909800
vt 0.838200 0.629900
vt 0.838200 0.629900
vt 0.838200 0.429100
vt 0.838200 0.429100
vt 0.865200 0.429100
vt 0.865200 0.429100
vt 0.865200 0.629900
vt 0.865200 0.629900
vn -0.5806 -0.2100 -0.7866
vn -0.5801 0.7841 -0.2208
vn 0.5800 0.7871 -0.2097
vn 0.5800 -0.2097 -0.7871
vn 0.5719 -0.7914 0.2160
vn 0.5719 0.2160 0.7914
vn -0.5720 0.2168 0.7911
vn -0.5800 -0.7841 0.2207
vn -0.5774 0.5774 -0.5774
vn -0.5774 0.5773 0.5773
vn 0.5773 0.5774 0.5774
vn 0.5774 0.5774 -0.5774
vn 0.5774 -0.5773 0.5773
vn 0.5774 -0.5774 -0.5774
vn -0.5773 -0.5774 0.5774
vn -0.5774 -0.5774 -0.5774
s 1
f 2/1/1 5/2/2 4/3/3 1/4/4
f 2/1/1 1/4/4 3/5/5
f 1/4/4 4/3/3 6/6/6 3/5/5
f 5/2/2 6/6/6 4/3/3
f 7/7/7 6/6/6 5/2/2
f 3/5/5 6/6/6 7/7/7 8/8/8
f 8/8/8 7/7/7 5/2/2 2/1/1
f 8/8/8 2/1/1 3/5/5
f 10/9/9 13/10/10 12/11/11 9/12/12
f 9/12/12 12/11/11 14/13/13 11/14/14
f 11/14/14 14/13/13 15/15/15 16/16/16
f 16/16/16 15/15/15 13/10/10 10/9/9
f 9/12/12 11/14/14 16/16/16 10/9/9
f 14/13/13 12/11/11 13/10/10 15/15/15
