# Blender v2.93.18 OBJ File: 'Rhm Borsig Waffentrager armor hull.blend'
# www.blender.org
o Top_german\G99_RhB_Waffentrager\normal\l\Hull.pri~11~5.1390
v -47.578644 20.531464 61.346329
v -47.578644 18.562954 3.905501
v -47.578644 18.564226 61.277061
v 47.578583 18.564226 61.277122
v 47.578644 18.562954 3.905501
v 46.263447 17.564257 74.994843
v 47.578644 20.531464 61.346329
v 34.184971 20.106270 67.204590
v 9.590531 20.106270 67.204590
v 46.263683 19.527531 75.137642
v 36.858192 17.393682 104.499786
v 36.858131 15.430409 104.357048
v 47.578644 20.531443 -69.818756
v 47.578644 18.562943 -69.818756
v -36.858192 20.531441 -86.488014
v -47.578644 20.531443 -69.818756
v -47.578644 18.562943 -69.818756
v -36.858192 18.562941 -86.488014
v 36.858192 18.562941 -86.488014
v 36.858192 20.531441 -86.488014
v -46.263683 19.527531 75.137642
v -36.858192 17.393682 104.499786
v -36.858192 15.430409 104.357109
v -46.263683 17.564257 74.994843
vt 0.000000 0.000000
vt 0.000000 0.000000
vt 0.000000 0.000000
vt 0.000000 0.000000
vt 0.633000 0.392300
vt 0.000000 0.000000
vt 0.000000 0.000000
vt 0.236400 0.395900
vt 0.633000 0.392300
vt 0.000000 0.000000
vt 0.236400 0.649100
vt 0.431400 0.652600
vt 0.236400 0.395900
vt 0.274200 0.392300
vt 0.274200 0.392300
vt 0.258200 0.429000
vt 0.258200 0.496300
vt 0.274200 0.652700
vt 0.155900 0.421700
vt 0.155900 0.421700
vt 0.678600 0.623300
vt 0.678600 0.623300
vt 0.633000 0.652600
vt 0.633000 0.652600
vt 0.678600 0.421600
vt 0.678600 0.421600
vt 0.236400 0.649100
vt 0.155900 0.623300
vt 0.155900 0.623300
vt 0.274200 0.652700
vt 0.000000 0.000000
vt 0.431400 0.392300
vt 0.000000 0.000000
vn -0.0000 -0.9999 -0.0164
vn 1.0000 0.0000 0.0000
vn 0.6048 -0.7964 0.0000
vn 0.6044 -0.7967 -0.0012
vn -0.6048 -0.7964 0.0000
vn -0.6039 -0.7971 0.0001
vn 0.7146 0.6712 0.1972
vn 0.7813 -0.6109 0.1277
vn 0.9067 -0.4208 0.0279
vn 0.7124 0.6988 0.0646
vn 0.0005 0.9973 0.0735
vn -0.0006 0.9973 0.0735
vn -0.7075 0.7054 0.0431
vn 0.4729 0.5460 0.6915
vn 0.5964 -0.1757 0.7832
vn -0.3783 0.6135 -0.6932
vn -0.4718 -0.2019 -0.8583
vn -0.7383 -0.6369 -0.2217
vn -0.7301 0.6488 -0.2145
vn 0.7269 0.6520 -0.2156
vn 0.7383 -0.6369 -0.2217
vn 0.4718 -0.2019 -0.8583
vn 0.3783 0.6135 -0.6932
vn -0.7152 0.6714 0.1944
vn -0.7807 -0.6114 0.1292
vn -0.5951 -0.1753 0.7843
vn -0.4748 0.5465 0.6898
vn -0.9005 -0.4330 0.0405
vn -0.9999 -0.0111 0.0000
vn 0.9339 -0.3577 0.0000
s off
f 18/1/1 19/2/1 12/3/1 23/4/1
f 13/5/2 7/6/2 5/7/2
f 5/7/3 6/8/4 14/9/3
f 17/10/5 24/11/6 2/12/5
s 1
f 10/13/7 6/8/8 4/14/9 7/15/10
f 8/16/11 7/15/10 9/17/12
f 7/15/10 1/18/13 9/17/12
f 11/19/14 12/20/15 6/8/8 10/13/7
f 15/21/16 18/22/17 17/23/18 16/24/19
f 13/5/20 14/9/21 19/25/22 20/26/23
f 21/27/24 24/11/25 23/28/26 22/29/27
f 20/26/23 19/2/22 18/1/17 15/21/16
f 1/18/13 3/30/28 24/11/25 21/27/24
f 9/17/12 1/18/13 22/29/27
f 22/29/27 1/18/13 21/27/24
f 3/30/28 17/10/18 2/12/29
f 20/31/23 15/21/16 16/24/19 13/5/20
f 10/13/7 7/15/10 11/19/14
f 11/19/14 7/15/10 8/16/11
f 13/5/20 5/7/2 14/9/21
f 5/32/30 7/15/10 4/14/9
f 8/16/11 22/33/27 11/19/14
f 8/16/11 9/17/12 22/33/27
f 16/24/19 17/10/18 3/30/28 1/18/13
f 24/11/25 3/30/28 2/12/29
f 5/32/30 4/14/9 6/8/8
f 14/9/21 6/8/8 12/20/15
f 23/4/26 12/20/15 11/19/14 22/29/27
f 18/22/17 23/4/26 17/23/18
f 17/23/18 23/28/26 24/11/25
f 7/6/10 13/5/20 16/24/19 1/18/13
f 14/9/21 12/3/15 19/25/22
