# Blender v2.93.18 OBJ File: 'scania LK 140 110 4x2 new.blend'
# www.blender.org
mtllib Scania LK interior rpm gauge new.mtl
o interior_rpm_gauge_piece_26.122
v -26.859859 53.726486 10.554800
v -26.951319 53.565502 10.785721
v -25.566469 53.397167 11.027191
v -26.982260 53.397167 11.027191
v -26.951319 53.228832 11.268667
v -26.711868 53.873066 10.344528
v -26.859859 53.067852 11.499585
v -26.513819 53.998859 10.164083
v -26.711868 52.921257 11.709860
v -26.274364 54.098347 10.021369
v -26.513819 52.795467 11.890301
v -26.003973 54.167194 9.922609
v -26.274364 52.695980 12.033020
v -25.714460 54.202389 9.872129
v -26.003973 52.627136 12.131778
v -25.418480 54.202389 9.872129
v -25.714460 52.591942 12.182255
v -25.128969 54.167194 9.922609
v -25.418480 52.591942 12.182255
v -24.858576 54.098347 10.021369
v -25.128969 52.627136 12.131778
v -24.619123 53.998859 10.164083
v -24.858576 52.695980 12.033020
v -24.421072 53.873066 10.344528
v -24.619123 52.795467 11.890301
v -24.273083 53.726486 10.554800
v -24.421072 52.921257 11.709860
v -24.181620 53.565502 10.785721
v -24.273083 53.067852 11.499585
v -24.150681 53.397167 11.027191
v -24.181622 53.228832 11.268667
vt 1.043833 0.703377
vt 1.011833 0.604890
vt 1.496351 0.501903
vt 1.001009 0.501903
vt 1.011833 0.398915
vt 1.095610 0.793057
vt 1.043833 0.300429
vt 1.164902 0.870013
vt 1.095610 0.210748
vt 1.248680 0.930882
vt 1.164902 0.133792
vt 1.343282 0.973001
vt 1.248680 0.072924
vt 1.444573 0.994531
vt 1.343282 0.030805
vt 1.548128 0.994531
vt 1.444573 0.009274
vt 1.649420 0.973001
vt 1.548128 0.009274
vt 1.744022 0.930882
vt 1.649420 0.030805
vt 1.827799 0.870013
vt 1.744022 0.072924
vt 1.897091 0.793057
vt 1.827799 0.133792
vt 1.948868 0.703376
vt 1.897091 0.210748
vt 1.980868 0.604890
vt 1.948868 0.300429
vt 1.991692 0.501903
vt 1.980868 0.398915
vn 0.0000 0.8203 0.5719
vn -0.0000 0.8204 0.5719
usemtl mat_0017_rpm
s 1
f 1/1/1 2/2/1 3/3/1
f 2/2/1 4/4/1 3/3/1
f 4/4/1 5/5/1 3/3/1
f 6/6/1 1/1/1 3/3/1
f 5/5/1 7/7/1 3/3/1
f 8/8/1 6/6/1 3/3/1
f 7/7/1 9/9/1 3/3/1
f 10/10/1 8/8/1 3/3/1
f 9/9/1 11/11/1 3/3/1
f 12/12/1 10/10/1 3/3/1
f 11/11/1 13/13/1 3/3/1
f 14/14/1 12/12/1 3/3/1
f 13/13/1 15/15/1 3/3/1
f 16/16/1 14/14/1 3/3/1
f 15/15/1 17/17/1 3/3/1
f 18/18/1 16/16/1 3/3/1
f 17/17/1 19/19/1 3/3/1
f 20/20/1 18/18/1 3/3/1
f 19/19/1 21/21/1 3/3/1
f 22/22/1 20/20/1 3/3/1
f 21/21/1 23/23/1 3/3/1
f 24/24/2 22/22/1 3/3/1
f 23/23/1 25/25/1 3/3/1
f 26/26/1 24/24/2 3/3/1
f 25/25/1 27/27/1 3/3/1
f 28/28/1 26/26/1 3/3/1
f 27/27/1 29/29/1 3/3/1
f 30/30/2 28/28/1 3/3/1
f 29/29/1 31/31/1 3/3/1
f 31/31/1 30/30/2 3/3/1
