# Blender v2.93.18 OBJ File: 'scania LK 140 110 4x2 new.blend'
# www.blender.org
mtllib Scania LK interior dash lights new.mtl
o interior_dash_lights_piece_26
v -7.990772 51.717487 14.123061
v -7.990772 52.110264 13.548265
v -7.990625 52.076508 13.525124
v -7.990625 51.683727 14.099919
v -7.990772 51.717487 14.123061
v -7.990625 51.683727 14.099919
v -7.139369 51.686287 14.101684
v -7.139516 51.720047 14.124826
v -7.139369 51.686287 14.101684
v -7.139369 52.079067 13.526886
v -7.139515 52.112820 13.550030
v -7.139516 51.720047 14.124826
v -7.139515 52.112820 13.550030
v -7.139369 52.079067 13.526886
v -7.990625 52.076508 13.525124
v -7.990772 52.110264 13.548265
v -7.139516 51.720047 14.124826
v -7.139515 52.112820 13.550030
v -7.990772 51.717487 14.123061
v -7.990772 52.110264 13.548265
v -9.275256 51.717487 14.123061
v -9.275256 52.110264 13.548265
v -9.275110 52.076508 13.525124
v -9.275110 51.683727 14.099919
v -9.275256 51.717487 14.123061
v -9.275110 51.683727 14.099919
v -8.423854 51.686287 14.101684
v -8.424002 51.720047 14.124826
v -8.423854 51.686287 14.101684
v -8.423854 52.079067 13.526886
v -8.424000 52.112820 13.550030
v -8.424002 51.720047 14.124826
v -8.424000 52.112820 13.550030
v -8.423854 52.079067 13.526886
v -9.275110 52.076508 13.525124
v -9.275256 52.110264 13.548265
v -8.424002 51.720047 14.124826
v -8.424000 52.112820 13.550030
v -9.275256 51.717487 14.123061
v -9.275256 52.110264 13.548265
v -6.737940 53.872063 10.954811
v -6.737940 54.270237 10.383739
v -6.737890 54.258186 10.375262
v -6.737890 53.860012 10.946335
v -6.737940 53.872063 10.954811
v -6.737890 53.860012 10.946335
v -5.886634 53.862556 10.948122
v -5.886685 53.874607 10.956600
v -5.886634 53.862556 10.948122
v -5.886634 54.260727 10.377050
v -5.886685 54.272778 10.385527
v -5.886685 53.874607 10.956600
v -5.886685 54.272778 10.385527
v -5.886634 54.260727 10.377050
v -6.737890 54.258186 10.375262
v -6.737940 54.270237 10.383739
v -9.266920 53.872055 10.954831
v -9.266920 54.270229 10.383761
v -9.266870 54.258179 10.375282
v -9.266870 53.860004 10.946357
v -9.266920 53.872055 10.954831
v -9.266870 53.860004 10.946357
v -8.415613 53.862545 10.948144
v -8.415666 53.874599 10.956619
v -8.415613 53.862545 10.948144
v -8.415613 54.260719 10.377070
v -8.415666 54.272770 10.385548
v -8.415666 53.874599 10.956619
v -8.415666 54.272770 10.385548
v -8.415613 54.260719 10.377070
v -9.266870 54.258179 10.375282
v -9.266920 54.270229 10.383761
v -7.975790 53.872055 10.954831
v -7.975790 54.270226 10.383759
v -7.975741 54.258175 10.375282
v -7.975741 53.860004 10.946352
v -7.975790 53.872055 10.954831
v -7.975741 53.860004 10.946352
v -7.124484 53.862545 10.948144
v -7.124535 53.874596 10.956619
v -7.124484 53.862545 10.948144
v -7.124484 54.260715 10.377070
v -7.124535 54.272770 10.385547
v -7.124535 53.874596 10.956619
v -7.124535 54.272770 10.385547
v -7.124484 54.260715 10.377070
v -7.975741 54.258175 10.375282
v -7.975790 54.270226 10.383759
v -6.731465 53.328346 11.723839
v -6.731465 53.726524 11.152770
v -6.731416 53.714474 11.144289
v -6.731416 53.316296 11.715364
v -6.731465 53.328346 11.723839
v -6.731416 53.316296 11.715364
v -5.880160 53.318840 11.717150
v -5.880210 53.330887 11.725626
v -5.880160 53.318840 11.717150
v -5.880160 53.717014 11.146077
v -5.880210 53.729065 11.154555
v -5.880210 53.330887 11.725626
v -5.880210 53.729065 11.154555
v -5.880160 53.717014 11.146077
v -6.731416 53.714474 11.144289
v -6.731465 53.726524 11.152770
v -9.266920 53.328346 11.723839
v -9.266920 53.726524 11.152770
v -9.266870 53.714474 11.144289
v -9.266870 53.316296 11.715364
v -9.266920 53.328346 11.723839
v -9.266870 53.316296 11.715364
v -8.415613 53.318840 11.717150
v -8.415666 53.330887 11.725626
v -8.415613 53.318840 11.717150
v -8.415613 53.717014 11.146077
v -8.415666 53.729065 11.154555
v -8.415666 53.330887 11.725626
v -8.415666 53.729065 11.154555
v -8.415613 53.717014 11.146077
v -9.266870 53.714474 11.144289
v -9.266920 53.726524 11.152770
v -7.975790 53.328346 11.723839
v -7.975790 53.726524 11.152770
v -7.975741 53.714474 11.144289
v -7.975741 53.316296 11.715364
v -7.975790 53.328346 11.723839
v -7.975741 53.316296 11.715364
v -7.124484 53.318840 11.717150
v -7.124535 53.330887 11.725626
v -7.124484 53.318840 11.717150
v -7.124484 53.717014 11.146077
v -7.124535 53.729065 11.154555
v -7.124535 53.330887 11.725626
v -7.124535 53.729065 11.154555
v -7.124484 53.717014 11.146077
v -7.975741 53.714474 11.144289
v -7.975790 53.726524 11.152770
v -8.415666 53.874599 10.956619
v -8.415666 54.272770 10.385548
v -9.266920 53.872055 10.954831
v -9.266920 54.270229 10.383761
v -7.975790 54.270226 10.383759
v -7.975790 53.872055 10.954831
v -7.124535 54.272770 10.385547
v -7.124535 53.874596 10.956619
v -6.737940 54.270237 10.383739
v -6.737940 53.872063 10.954811
v -5.886685 54.272778 10.385527
v -5.886685 53.874607 10.956600
v -6.731465 53.726524 11.152770
v -6.731465 53.328346 11.723839
v -5.880210 53.729065 11.154555
v -5.880210 53.330887 11.725626
v -7.975790 53.726524 11.152770
v -7.975790 53.328346 11.723839
v -7.124535 53.729065 11.154555
v -7.124535 53.330887 11.725626
v -9.266920 53.726524 11.152770
v -9.266920 53.328346 11.723839
v -8.415666 53.729065 11.154555
v -8.415666 53.330887 11.725626
v -9.281037 52.793541 12.582320
v -9.281037 53.191711 12.011250
v -9.280989 53.179661 12.002769
v -9.280989 52.781487 12.573842
v -9.281037 52.793541 12.582320
v -9.280989 52.781487 12.573842
v -8.429731 52.784031 12.575630
v -8.429782 52.796082 12.584106
v -8.429731 52.784031 12.575630
v -8.429731 53.182201 12.004557
v -8.429782 53.194252 12.013036
v -8.429782 52.796082 12.584106
v -8.429782 53.194252 12.013036
v -8.429731 53.182201 12.004557
v -9.280989 53.179661 12.002769
v -9.281037 53.191711 12.011250
v -9.281037 53.191711 12.011250
v -9.281037 52.793541 12.582320
v -8.429782 53.194252 12.013036
v -8.429782 52.796082 12.584106
vt 0.228306 0.644025
vt 0.228306 0.806182
vt 0.228337 0.810645
vt 0.228337 0.648488
vt 0.228306 0.644025
vt 0.228337 0.648488
vt 0.408671 0.648147
vt 0.408640 0.643683
vt 0.408671 0.648147
vt 0.408671 0.810304
vt 0.408640 0.805840
vt 0.408640 0.643683
vt 0.408640 0.805840
vt 0.408671 0.810304
vt 0.228337 0.810645
vt 0.228306 0.806182
vt 0.408640 0.643683
vt 0.408640 0.805840
vt 0.228306 0.644025
vt 0.228306 0.806182
vt 0.008821 0.642015
vt 0.008821 0.802599
vt 0.008864 0.807845
vt 0.008864 0.647261
vt 0.008821 0.642015
vt 0.008864 0.647261
vt 0.219674 0.650798
vt 0.219630 0.645550
vt 0.219674 0.650798
vt 0.219674 0.811382
vt 0.219631 0.806135
vt 0.219630 0.645550
vt 0.219631 0.806135
vt 0.219674 0.811382
vt 0.008864 0.807845
vt 0.008821 0.802599
vt 0.219630 0.645550
vt 0.219631 0.806135
vt 0.008821 0.642015
vt 0.008821 0.802599
vt 0.462862 0.826135
vt 0.462862 1.001346
vt 0.462865 1.001495
vt 0.462865 0.826284
vt 0.462862 0.826135
vt 0.462865 0.826284
vt 0.664738 0.826253
vt 0.664735 0.826103
vt 0.664738 0.826253
vt 0.664738 1.001464
vt 0.664735 1.001315
vt 0.664735 0.826103
vt 0.664735 1.001315
vt 0.664738 1.001464
vt 0.462865 1.001495
vt 0.462862 1.001346
vt 0.017279 0.821972
vt 0.017279 1.002890
vt 0.017291 1.003308
vt 0.017291 0.822389
vt 0.017279 0.821972
vt 0.017291 0.822389
vt 0.226563 0.822301
vt 0.226551 0.821884
vt 0.226563 0.822301
vt 0.226563 1.003220
vt 0.226551 1.002801
vt 0.226551 0.821884
vt 0.226551 1.002801
vt 0.226563 1.003220
vt 0.017291 1.003308
vt 0.017279 1.002890
vt 0.245864 0.824006
vt 0.245864 1.000180
vt 0.245867 1.000350
vt 0.245867 0.824176
vt 0.245864 0.824006
vt 0.245867 0.824176
vt 0.436654 0.824140
vt 0.436651 0.823970
vt 0.436654 0.824140
vt 0.436654 1.000314
vt 0.436651 1.000145
vt 0.436651 0.823970
vt 0.436651 1.000145
vt 0.436654 1.000314
vt 0.245867 1.000350
vt 0.245864 1.000180
vt 0.824533 0.675713
vt 0.824533 0.779939
vt 0.824548 0.780508
vt 0.824548 0.676280
vt 0.824533 0.675713
vt 0.824548 0.676280
vt 0.997163 0.676161
vt 0.997148 0.675593
vt 0.997163 0.676161
vt 0.997163 0.780389
vt 0.997148 0.779821
vt 0.997148 0.675593
vt 0.997148 0.779821
vt 0.997163 0.780389
vt 0.824548 0.780508
vt 0.824533 0.779939
vt 0.747462 0.862533
vt 0.749430 0.958049
vt 0.749442 0.958466
vt 0.747473 0.862949
vt 0.747462 0.862533
vt 0.747473 0.862949
vt 0.883639 0.861407
vt 0.883627 0.860990
vt 0.883639 0.861407
vt 0.885607 0.956924
vt 0.885596 0.956507
vt 0.883627 0.860990
vt 0.885596 0.956507
vt 0.885607 0.956924
vt 0.749442 0.958466
vt 0.749430 0.958049
vt 0.625840 0.653007
vt 0.625840 0.791622
vt 0.625855 0.792203
vt 0.625855 0.653587
vt 0.625840 0.653007
vt 0.625855 0.653587
vt 0.810188 0.655433
vt 0.810172 0.654853
vt 0.810188 0.655433
vt 0.810188 0.794050
vt 0.810172 0.793469
vt 0.810172 0.654853
vt 0.810172 0.793469
vt 0.810188 0.794050
vt 0.625855 0.792203
vt 0.625840 0.791622
vt 0.226551 0.821884
vt 0.226551 1.002801
vt 0.017279 0.821972
vt 0.017279 1.002890
vt 0.245864 1.000180
vt 0.245864 0.824006
vt 0.436651 1.000145
vt 0.436651 0.823970
vt 0.462862 1.001346
vt 0.462862 0.826135
vt 0.664735 1.001315
vt 0.664735 0.826103
vt 0.824533 0.779939
vt 0.824533 0.675713
vt 0.997148 0.779821
vt 0.997148 0.675593
vt 0.625840 0.791622
vt 0.625840 0.653007
vt 0.810172 0.793469
vt 0.810172 0.654853
vt 0.749430 0.958049
vt 0.747462 0.862533
vt 0.885596 0.956507
vt 0.883627 0.860990
vt 0.789041 0.831885
vt 0.791963 0.973615
vt 0.791979 0.974235
vt 0.789058 0.832503
vt 0.789041 0.831885
vt 0.789058 0.832503
vt 0.991106 0.830215
vt 0.991089 0.829596
vt 0.991106 0.830215
vt 0.994028 0.971947
vt 0.994010 0.971327
vt 0.991089 0.829596
vt 0.994010 0.971327
vt 0.994028 0.971947
vt 0.791979 0.974235
vt 0.791963 0.973615
vt 0.791963 0.973615
vt 0.789041 0.831885
vt 0.994010 0.971327
vt 0.991089 0.829596
vn -1.0000 -0.0030 -0.0020
vn -1.0000 -0.0029 -0.0020
vn -0.0000 -0.5653 0.8249
vn -0.0000 -0.5656 0.8247
vn 1.0000 0.0030 0.0020
vn 0.0000 0.5654 -0.8248
vn -0.0000 0.5661 -0.8243
vn 0.0000 0.5655 -0.8248
vn -0.0037 0.8256 0.5642
vn -0.0036 0.8256 0.5642
vn 1.0000 0.0029 0.0020
vn 0.0000 0.5655 -0.8247
vn -1.0000 -0.0028 -0.0019
vn 0.0000 -0.5752 0.8180
vn 0.0000 -0.5761 0.8174
vn 0.0000 -0.5753 0.8180
vn 1.0000 0.0028 0.0020
vn 0.0000 0.5755 -0.8178
vn -0.0000 0.5752 -0.8180
vn -1.0000 -0.0028 -0.0020
vn -0.0000 -0.5754 0.8179
vn 0.0000 -0.5749 0.8182
vn 1.0000 0.0025 0.0020
vn 0.0000 0.5761 -0.8174
vn 0.0000 0.5759 -0.8175
vn -0.0000 0.5753 -0.8179
vn -1.0000 -0.0027 -0.0019
vn -0.0000 -0.5753 0.8179
vn 0.0000 -0.5754 0.8178
vn 0.0000 -0.5755 0.8178
vn 0.0000 0.5753 -0.8180
vn -0.0000 0.5757 -0.8177
vn -1.0000 -0.0027 -0.0020
vn 0.0000 0.5750 -0.8181
vn 0.0000 0.5750 -0.8182
vn -0.0000 0.5754 -0.8179
vn -0.0037 0.8203 0.5719
vn -0.0036 0.8203 0.5719
vn 0.0000 -0.5758 0.8176
usemtl mat_0022_anim_details
s 1
f 1/1/1 2/2/2 3/3/2
f 3/3/2 4/4/1 1/1/1
f 5/5/3 6/6/3 7/7/4
f 7/7/4 8/8/4 5/5/3
f 9/9/5 10/10/5 11/11/5
f 11/11/5 12/12/5 9/9/5
f 13/13/6 14/14/7 15/15/8
f 15/15/8 16/16/8 13/13/6
f 17/17/9 18/18/9 19/19/9
f 18/18/9 20/20/10 19/19/9
f 21/21/2 22/22/1 23/23/1
f 23/23/1 24/24/2 21/21/2
f 25/25/3 26/26/3 27/27/4
f 27/27/4 28/28/4 25/25/3
f 29/29/5 30/30/11 31/31/11
f 31/31/11 32/32/5 29/29/5
f 33/33/12 34/34/12 35/35/8
f 35/35/8 36/36/8 33/33/12
f 37/37/9 38/38/9 39/39/9
f 38/38/9 40/40/10 39/39/9
f 41/41/13 42/42/13 43/43/13
f 43/43/13 44/44/13 41/41/13
f 45/45/14 46/46/14 47/47/15
f 47/47/15 48/48/16 45/45/14
f 49/49/17 50/50/17 51/51/17
f 51/51/17 52/52/17 49/49/17
f 53/53/18 54/54/18 55/55/19
f 55/55/19 56/56/19 53/53/18
f 57/57/2 58/58/20 59/59/20
f 59/59/20 60/60/2 57/57/2
f 61/61/21 62/62/21 63/63/22
f 63/63/22 64/64/22 61/61/21
f 65/65/23 66/66/5 67/67/5
f 67/67/5 68/68/23 65/65/23
f 69/69/24 70/70/25 71/71/26
f 71/71/26 72/72/26 69/69/24
f 73/73/27 74/74/27 75/75/27
f 75/75/27 76/76/27 73/73/27
f 77/77/28 78/78/22 79/79/29
f 79/79/29 80/80/29 77/77/28
f 81/81/17 82/82/17 83/83/17
f 83/83/17 84/84/17 81/81/17
f 85/85/19 86/86/19 87/87/19
f 87/87/19 88/88/19 85/85/19
f 89/89/13 90/90/27 91/91/27
f 91/91/27 92/92/13 89/89/13
f 93/93/22 94/94/22 95/95/30
f 95/95/30 96/96/30 93/93/22
f 97/97/17 98/98/17 99/99/17
f 99/99/17 100/100/17 97/97/17
f 101/101/26 102/102/31 103/103/32
f 103/103/32 104/104/32 101/101/26
f 105/105/2 106/106/33 107/107/33
f 107/107/33 108/108/2 105/105/2
f 109/109/14 110/110/14 111/111/30
f 111/111/30 112/112/30 109/109/14
f 113/113/17 114/114/5 115/115/5
f 115/115/5 116/116/17 113/113/17
f 117/117/34 118/118/35 119/119/32
f 119/119/32 120/120/32 117/117/34
f 121/121/27 122/122/27 123/123/27
f 123/123/27 124/124/27 121/121/27
f 125/125/14 126/126/14 127/127/30
f 127/127/30 128/128/30 125/125/14
f 129/129/11 130/130/11 131/131/11
f 131/131/11 132/132/11 129/129/11
f 133/133/31 134/134/31 135/135/36
f 135/135/36 136/136/36 133/133/31
f 137/137/37 138/138/37 139/139/37
f 138/138/37 140/140/38 139/139/37
f 141/141/37 142/142/37 143/143/37
f 142/142/37 144/144/38 143/143/37
f 145/145/38 146/146/37 147/147/37
f 146/146/37 148/148/37 147/147/37
f 149/149/38 150/150/38 151/151/38
f 150/150/38 152/152/38 151/151/38
f 153/153/38 154/154/38 155/155/38
f 154/154/38 156/156/38 155/155/38
f 157/157/38 158/158/38 159/159/38
f 158/158/38 160/160/38 159/159/38
usemtl mat_0023_fari
f 161/161/27 162/162/27 163/163/27
f 163/163/27 164/164/27 161/161/27
f 165/165/28 166/166/16 167/167/39
f 167/167/39 168/168/39 165/165/28
f 169/169/17 170/170/17 171/171/17
f 171/171/17 172/172/23 169/169/17
f 173/173/26 174/174/26 175/175/36
f 175/175/36 176/176/36 173/173/26
f 177/177/38 178/178/38 179/179/38
f 178/178/38 180/180/38 179/179/38
