# Blender v2.93.18 OBJ File: 'scania LK 140 110 4x2 new.blend'
# www.blender.org
mtllib Scania LK interior speedo gauge new.mtl
o interior_speedo_piece_16
v -20.704800 52.941422 11.933807
v -22.864599 53.203960 11.557205
v -22.912851 52.941422 11.933807
v -22.864599 52.678883 12.310410
v -22.721958 53.455021 11.197066
v -22.721958 52.427822 12.670553
v -22.491148 53.683640 10.869124
v -22.491148 52.199207 12.998499
v -22.182274 53.879818 10.587713
v -22.182274 52.003029 13.279906
v -21.808828 54.034981 10.365135
v -21.808828 51.847862 13.502489
v -21.387121 54.142357 10.211113
v -21.387121 51.740490 13.656507
v -20.935602 54.197239 10.132380
v -20.935602 51.685604 13.735245
v -20.473997 54.197239 10.132380
v -20.473997 51.685604 13.735245
v -20.022472 54.142357 10.211113
v -20.022472 51.740490 13.656507
v -19.600769 54.034981 10.365135
v -19.600771 51.847862 13.502489
v -19.227320 53.879818 10.587713
v -19.227320 52.003029 13.279911
v -18.918446 53.683640 10.869124
v -18.918446 52.199207 12.998499
v -18.687637 53.455021 11.197066
v -18.687637 52.427822 12.670553
v -18.544996 53.203960 11.557205
v -18.544996 52.678883 12.310410
v -18.496737 52.941422 11.933807
vt 0.499563 0.500850
vt 0.041978 0.598113
vt 0.031755 0.500850
vt 0.041978 0.403587
vt 0.072199 0.691125
vt 0.072199 0.310575
vt 0.121099 0.775821
vt 0.121099 0.225880
vt 0.186539 0.848499
vt 0.186539 0.153201
vt 0.265659 0.905984
vt 0.265659 0.095716
vt 0.355003 0.945762
vt 0.355003 0.055938
vt 0.450664 0.966095
vt 0.450664 0.035605
vt 0.548463 0.966095
vt 0.548463 0.035605
vt 0.644124 0.945762
vt 0.644124 0.055938
vt 0.733467 0.905984
vt 0.733467 0.095716
vt 0.812588 0.848499
vt 0.812588 0.153201
vt 0.878028 0.775821
vt 0.878028 0.225879
vt 0.926927 0.691125
vt 0.926927 0.310575
vt 0.957149 0.598113
vt 0.957149 0.403587
vt 0.967371 0.500850
vn -0.0000 0.8203 0.5719
usemtl mat_0016_km
s 1
f 1/1/1 2/2/1 3/3/1
f 1/1/1 3/3/1 4/4/1
f 1/1/1 5/5/1 2/2/1
f 1/1/1 4/4/1 6/6/1
f 1/1/1 7/7/1 5/5/1
f 1/1/1 6/6/1 8/8/1
f 1/1/1 9/9/1 7/7/1
f 1/1/1 8/8/1 10/10/1
f 1/1/1 11/11/1 9/9/1
f 1/1/1 10/10/1 12/12/1
f 1/1/1 13/13/1 11/11/1
f 1/1/1 12/12/1 14/14/1
f 1/1/1 15/15/1 13/13/1
f 1/1/1 14/14/1 16/16/1
f 1/1/1 17/17/1 15/15/1
f 1/1/1 16/16/1 18/18/1
f 1/1/1 19/19/1 17/17/1
f 1/1/1 18/18/1 20/20/1
f 1/1/1 21/21/1 19/19/1
f 1/1/1 20/20/1 22/22/1
f 1/1/1 23/23/1 21/21/1
f 1/1/1 22/22/1 24/24/1
f 1/1/1 25/25/1 23/23/1
f 1/1/1 24/24/1 26/26/1
f 1/1/1 27/27/1 25/25/1
f 1/1/1 26/26/1 28/28/1
f 1/1/1 29/29/1 27/27/1
f 1/1/1 28/28/1 30/30/1
f 1/1/1 31/31/1 29/29/1
f 1/1/1 30/30/1 31/31/1
