# Blender v2.93.18 OBJ File: 'DAF R241 16.blend'
# www.blender.org
o interior_wood_piece_73
v 34.821098 28.070065 8.130716
v 35.011238 27.993544 8.125642
v 35.150360 27.784185 8.111757
v 35.201199 27.498089 8.092779
v 34.119919 28.069532 8.130679
v 33.790371 27.783146 8.111682
v 33.929707 27.992720 8.125586
v 33.739250 27.496984 8.092704
v 35.200882 26.754036 8.043437
v 33.738808 26.752874 8.043363
v 34.820305 26.181459 8.005463
v 35.149803 26.467865 8.024459
v 35.010506 26.258289 8.010555
v 34.118816 26.180906 8.005424
v 33.789600 26.466778 8.024384
v 33.928692 26.257420 8.010499
v -12.426923 31.489239 3.110494
v -12.304462 31.456591 3.149181
v -12.252668 31.375023 3.245860
v -12.058780 27.246017 8.139442
v -40.642918 31.489239 3.110494
v -40.992054 31.324829 3.305341
v -40.859520 31.440674 3.168056
v -42.868774 27.224661 8.164760
v -12.437083 25.523890 10.180454
v -42.868774 25.523890 10.180454
v -12.250257 25.684019 9.990682
v -12.335090 25.573053 10.122171
v 27.701063 28.658697 8.410324
v 27.612711 28.746857 8.301707
v 41.282955 28.658697 8.410324
v 27.263660 28.481041 8.398546
v 41.371311 28.746857 8.301707
v 27.175301 28.569210 8.289920
v 41.702698 28.485283 8.398827
v 26.994123 28.140305 8.261476
v 41.791058 28.573441 8.290210
v 27.082483 28.052145 8.370102
v 41.964912 28.154779 8.262441
v 27.082483 22.066263 7.973114
v 41.876553 28.066610 8.371057
v 26.994123 21.978094 7.852794
v 41.876553 22.079437 7.973985
v 27.248007 21.656918 7.945962
v 41.964912 21.991278 7.853665
v 27.159655 21.568748 7.825643
v 41.702698 21.660774 7.946215
v 27.559278 21.399199 7.814398
v 41.791058 21.572615 7.825895
v 27.647644 21.487358 7.934718
v 41.371326 21.399199 7.814398
v 41.282967 21.487358 7.934718
v 33.928692 26.257420 8.010499
v 33.928692 26.241549 8.250016
v 33.789600 26.466778 8.024384
v 34.118816 26.180906 8.005424
v 33.789600 26.450899 8.263901
v 34.118816 26.165028 8.244942
v 33.738808 26.752874 8.043363
v 34.820305 26.165581 8.244979
v 33.738808 26.736986 8.282879
v 34.820305 26.181459 8.005463
v 33.739250 27.481096 8.332220
v 35.010506 26.258289 8.010555
v 33.739250 27.496984 8.092704
v 35.010506 26.242392 8.250072
v 33.790371 27.783146 8.111682
v 35.149803 26.451967 8.263976
v 33.790371 27.767275 8.351198
v 35.149803 26.467865 8.024459
v 33.929707 27.992720 8.125586
v 35.200882 26.754036 8.043437
v 33.929707 27.976841 8.365102
v 35.200882 26.738146 8.282954
v 34.119919 28.069532 8.130679
v 35.201199 27.482201 8.332295
v 34.119919 28.053652 8.370195
v 35.201199 27.498089 8.092779
v 34.821098 28.054186 8.370233
v 35.150360 27.784185 8.111757
v 34.821098 28.070065 8.130716
v 35.150360 27.768295 8.351274
v 35.011238 27.977655 8.365158
v 35.011238 27.993544 8.125642
v -11.862389 27.242937 8.143094
v -12.250257 25.684019 9.990682
v -12.057676 25.649845 10.031176
v -12.057676 31.401752 3.214177
v -12.179961 25.489893 10.220723
v -12.153929 31.553345 3.034516
v -12.387976 31.615738 2.960569
v -12.371871 25.397390 10.330370
v -12.426923 31.489239 3.110494
v -40.676048 31.615738 2.960569
v -43.064930 25.397390 10.330370
v -43.064930 27.242937 8.143094
v -40.859520 31.440674 3.168056
v -40.981304 31.547287 3.041697
v -41.170406 31.382008 3.237574
v 35.581776 28.055573 8.370327
v 35.201199 27.482201 8.332295
v 35.150360 27.768295 8.351274
v 35.200882 26.738146 8.282954
v 35.011238 27.977655 8.365158
v 35.519600 25.854149 8.224325
v 35.149803 26.451967 8.263976
v 35.010506 26.242392 8.250072
v 41.876553 28.066610 8.371057
v 41.702698 28.485283 8.398827
v 41.876553 22.079437 7.973985
v 35.580837 28.094679 8.372920
v 41.282955 28.658697 8.410324
v 35.506897 25.826538 8.222489
v 41.702698 21.660774 7.946215
v 41.282967 21.487358 7.934718
v 35.494606 25.802757 8.220917
v 34.820305 26.165581 8.244979
v 34.118816 26.165028 8.244942
v 33.444321 25.801962 8.220860
v 27.647644 21.487358 7.934718
v 33.928692 26.241549 8.250016
v 33.432499 25.824816 8.222378
v 27.248007 21.656918 7.945962
v 27.082483 22.066263 7.973114
v 33.420113 25.851629 8.224156
v 33.789600 26.450899 8.263901
v 27.082483 28.052145 8.370102
v 33.738808 26.736986 8.282879
v 33.359245 28.053249 8.370168
v 33.739250 27.481096 8.332220
v 33.790371 27.767275 8.351198
v 27.263660 28.481041 8.398546
v 33.929707 27.976841 8.365102
v 33.360176 28.093445 8.372836
v 27.701063 28.658697 8.410324
v 33.361404 28.114275 8.374212
v 34.119919 28.053652 8.370195
v 34.821098 28.054186 8.370233
v 35.579655 28.114819 8.374249
vt 0.259947 0.375414
vt 0.337794 0.327735
vt 0.419311 0.325973
vt 0.256243 0.419502
vt 0.716719 0.332641
vt 0.792051 0.333900
vt 0.870323 0.381628
vt 0.875655 0.428591
vt 0.253972 0.545804
vt 0.872554 0.548648
vt 0.412965 0.642435
vt 0.259506 0.595204
vt 0.337156 0.642840
vt 0.709429 0.641493
vt 0.867933 0.590933
vt 0.790548 0.637715
vt 1.519702 0.826658
vt 1.514930 0.837107
vt 1.504510 0.841216
vt 1.559465 0.290816
vt -0.856196 0.832928
vt -0.874590 0.826680
vt -0.886302 0.811757
vt -1.067410 0.277605
vt 1.537134 0.061158
vt -1.077520 0.050205
vt 1.552222 0.082681
vt 1.545598 0.067794
vt 0.256104 0.292274
vt 0.876163 0.290513
vt 0.870448 0.299698
vt 0.896244 0.307838
vt 0.250304 0.283260
vt 0.903187 0.300808
vt 0.231772 0.301052
vt 0.914079 0.325235
vt 0.224708 0.294160
vt 0.906524 0.330185
vt 0.213896 0.318681
vt 0.905695 0.639182
vt 0.221935 0.323933
vt 0.913323 0.645157
vt 0.224117 0.649427
vt 0.895626 0.661648
vt 0.216315 0.655534
vt 0.902824 0.669849
vt 0.234131 0.672070
vt 0.876886 0.679576
vt 0.227276 0.679777
vt 0.871155 0.669915
vt 0.252853 0.690073
vt 0.258330 0.680517
vt 0.867933 0.590933
vt 0.790776 0.642229
vt 0.790548 0.637715
vt 0.711442 0.643478
vt 0.876999 0.589046
vt 0.711443 0.643477
vt 0.877185 0.543925
vt 0.418693 0.648081
vt 0.877185 0.543925
vt 0.418693 0.648081
vt 0.877670 0.426536
vt 0.337156 0.642840
vt 0.877669 0.426536
vt 0.339307 0.649329
vt 0.870323 0.381628
vt 0.251930 0.595564
vt 0.877855 0.381380
vt 0.259506 0.595204
vt 0.792051 0.333900
vt 0.251635 0.548147
vt 0.789532 0.327347
vt 0.251635 0.548147
vt 0.710020 0.326601
vt 0.250865 0.424890
vt 0.710020 0.326601
vt 0.250865 0.424890
vt 0.416954 0.323850
vt 0.259947 0.375414
vt 0.416954 0.323850
vt 0.250570 0.377506
vt 0.337496 0.323104
vt 0.337794 0.327735
vt 1.552222 0.082681
vt 1.576224 0.290483
vt 1.568914 0.078272
vt 1.535935 0.830363
vt 1.559371 0.056764
vt 1.527054 0.849648
vt 1.507175 0.857521
vt 1.543452 0.044265
vt 1.504510 0.841216
vt -0.858394 0.849274
vt -1.095098 0.033228
vt -1.084056 0.279916
vt -0.874590 0.826680
vt -0.884311 0.840452
vt -0.900993 0.819288
vt 1.305529 0.599243
vt 1.308589 0.580889
vt 1.331047 0.618402
vt 1.308644 0.537202
vt 1.296809 0.614139
vt 1.327951 0.481771
vt 1.305969 0.519692
vt 1.297830 0.506432
vt 1.564167 0.621270
vt 1.557097 0.638900
vt 1.518222 0.356074
vt 1.331254 0.621576
vt 1.541317 0.646144
vt 1.327042 0.479293
vt 1.513081 0.341821
vt 1.500423 0.335782
vt 1.326128 0.477093
vt 1.287167 0.500996
vt 1.248423 0.498999
vt 1.208575 0.471214
vt 1.006275 0.331324
vt 1.236921 0.503617
vt 1.207728 0.473571
vt 0.993553 0.338907
vt 0.989227 0.354665
vt 1.206890 0.476241
vt 1.228114 0.517035
vt 0.969469 0.621173
vt 1.224609 0.534989
vt 1.199701 0.616551
vt 1.223348 0.579655
vt 1.226165 0.598105
vt 0.976977 0.638940
vt 1.234143 0.613373
vt 1.199497 0.619778
vt 0.993443 0.646135
vt 1.199425 0.622379
vt 1.245248 0.618803
vt 1.285238 0.619365
vt 1.331333 0.624176
vn -0.0000 -0.0662 0.9978
vn 0.0000 0.7643 0.6449
vn 0.0001 0.7642 0.6449
vn 0.0100 0.7724 0.6351
vn -0.0102 0.7723 0.6352
vn -0.0103 0.7723 0.6352
vn -0.4842 0.4438 0.7540
vn 0.4883 0.4395 0.7539
vn -0.7833 -0.0193 0.6214
vn -0.7833 -0.0194 0.6214
vn 0.7836 -0.0202 0.6210
vn -0.7826 -0.0611 0.6195
vn 0.7822 -0.0621 0.6199
vn -0.4723 -0.5088 0.7197
vn -0.4723 -0.5089 0.7197
vn 0.4660 -0.5149 0.7195
vn -0.0092 -0.8034 0.5954
vn 0.4661 -0.5149 0.7195
vn 0.0094 -0.8033 0.5955
vn 0.9340 0.3564 0.0236
vn 0.6565 0.7527 0.0499
vn 0.0851 0.9942 0.0659
vn 0.9988 0.0486 0.0032
vn -0.0866 0.9941 0.0659
vn 0.9988 -0.0498 -0.0033
vn -0.6568 0.7524 0.0499
vn 0.9337 -0.3572 -0.0237
vn -0.9338 0.3570 0.0237
vn 0.9337 -0.3572 -0.0236
vn 0.6568 -0.7524 -0.0499
vn -0.9988 0.0496 0.0033
vn 0.6567 -0.7525 -0.0499
vn 0.0866 -0.9941 -0.0659
vn -0.9988 -0.0488 -0.0032
vn -0.0851 -0.9942 -0.0659
vn -0.9340 -0.3566 -0.0237
vn -0.9340 -0.3565 -0.0237
vn -0.6564 -0.7527 -0.0499
vn -0.6565 -0.7527 -0.0499
vn -0.0001 -0.0662 0.9978
vn -0.0000 -0.0660 0.9978
vn -0.0000 -0.0658 0.9978
vn 0.0001 -0.0661 0.9978
vn -0.0000 -0.0664 0.9978
vn -0.0000 -0.0661 0.9978
s 1
f 3/1/1 2/2/1 1/3/1
f 4/4/1 3/1/1 1/3/1
f 1/3/1 5/5/1 4/4/1
f 7/6/1 6/7/1 5/5/1
f 5/5/1 6/7/1 8/8/1
f 5/5/1 8/8/1 4/4/1
f 9/9/1 4/4/1 8/8/1
f 8/8/1 10/10/1 9/9/1
f 11/11/1 9/9/1 10/10/1
f 11/11/1 12/12/1 9/9/1
f 13/13/1 12/12/1 11/11/1
f 14/14/1 11/11/1 10/10/1
f 10/10/1 15/15/1 14/14/1
f 15/15/1 16/16/1 14/14/1
f 19/17/2 18/18/2 17/19/2
f 20/20/2 19/17/2 17/19/2
f 17/19/2 21/21/2 20/20/2
f 23/22/2 22/23/2 21/21/2
f 21/21/2 22/23/2 24/24/2
f 24/24/2 20/20/2 21/21/2
f 20/20/2 24/24/2 25/25/2
f 26/26/2 25/25/2 24/24/2
f 27/27/2 20/20/2 25/25/2
f 28/28/3 27/27/2 25/25/2
f 31/29/4 30/30/5 29/31/6
f 30/30/5 32/32/7 29/31/6
f 31/29/4 33/33/4 30/30/5
f 30/30/5 34/34/7 32/32/7
f 33/33/4 31/29/4 35/35/8
f 32/32/7 34/34/7 36/36/9
f 33/33/4 35/35/8 37/37/8
f 32/32/7 36/36/9 38/38/10
f 35/35/8 39/39/11 37/37/8
f 40/40/12 38/38/10 36/36/9
f 35/35/8 41/41/11 39/39/11
f 40/40/12 36/36/9 42/42/12
f 43/43/13 39/39/11 41/41/11
f 42/42/12 44/44/14 40/40/12
f 43/43/13 45/45/13 39/39/11
f 42/42/12 46/46/15 44/44/14
f 45/45/13 43/43/13 47/47/16
f 44/44/14 46/46/15 48/48/17
f 45/45/13 47/47/16 49/49/18
f 44/44/14 48/48/17 50/50/17
f 47/47/16 51/51/19 49/49/18
f 50/50/17 48/48/17 51/51/19
f 47/47/16 52/52/19 51/51/19
f 50/50/17 51/51/19 52/52/19
f 55/53/20 54/54/21 53/55/21
f 54/54/21 56/56/22 53/55/21
f 55/53/20 57/57/20 54/54/21
f 54/54/21 58/58/22 56/56/22
f 59/59/23 57/57/20 55/53/20
f 60/60/24 56/56/22 58/58/22
f 59/59/23 61/61/23 57/57/20
f 60/60/24 62/62/24 56/56/22
f 63/63/25 61/61/23 59/59/23
f 64/64/26 62/62/24 60/60/24
f 63/63/25 59/59/23 65/65/25
f 64/64/26 60/60/24 66/66/26
f 63/63/25 65/65/25 67/67/27
f 68/68/28 64/64/26 66/66/26
f 63/63/25 67/67/27 69/69/29
f 68/68/28 70/70/28 64/64/26
f 69/69/29 67/67/27 71/71/30
f 72/72/31 70/70/28 68/68/28
f 69/69/29 71/71/30 73/73/32
f 72/72/31 68/68/28 74/74/31
f 73/73/32 71/71/30 75/75/33
f 76/76/34 72/72/31 74/74/31
f 73/73/32 75/75/33 77/77/33
f 76/76/34 78/78/34 72/72/31
f 79/79/35 77/77/33 75/75/33
f 76/76/34 80/80/36 78/78/34
f 79/79/35 75/75/33 81/81/35
f 76/76/34 82/82/37 80/80/36
f 83/83/38 79/79/35 81/81/35
f 80/80/36 82/82/37 83/83/38
f 83/83/38 81/81/35 84/84/39
f 80/80/36 83/83/38 84/84/39
f 86/85/2 85/86/2 20/20/2
f 19/17/2 20/20/2 85/86/2
f 86/85/2 87/87/2 85/86/2
f 19/17/2 85/86/2 88/88/2
f 28/28/3 87/87/2 86/85/2
f 18/18/2 19/17/2 88/88/2
f 28/28/3 89/89/2 87/87/2
f 18/18/2 88/88/2 90/90/2
f 25/25/2 89/89/2 28/28/3
f 18/18/2 90/90/2 91/91/2
f 25/25/2 92/92/2 89/89/2
f 18/18/2 91/91/2 93/93/2
f 26/26/2 92/92/2 25/25/2
f 93/93/2 91/91/2 94/94/2
f 26/26/2 95/95/2 92/92/2
f 93/93/2 94/94/2 21/21/2
f 26/26/2 96/96/2 95/95/2
f 97/97/2 21/21/2 94/94/2
f 26/26/2 24/24/2 96/96/2
f 97/97/2 94/94/2 98/98/2
f 22/23/2 96/96/2 24/24/2
f 97/97/2 98/98/2 99/99/2
f 22/23/2 99/99/2 96/96/2
f 97/97/2 99/99/2 22/23/2
f 102/100/1 101/101/1 100/102/1
f 101/101/1 103/103/1 100/102/1
f 102/100/1 100/102/1 104/104/1
f 103/103/1 105/105/40 100/102/1
f 105/105/40 103/103/1 106/106/1
f 105/105/40 106/106/1 107/107/1
f 108/108/1 100/102/1 105/105/40
f 100/102/1 108/108/1 109/109/1
f 105/105/40 110/110/1 108/108/1
f 100/102/1 109/109/1 111/111/41
f 100/102/1 111/111/41 104/104/1
f 111/111/41 109/109/1 112/112/42
f 113/113/1 110/110/1 105/105/40
f 107/107/1 113/113/1 105/105/40
f 113/113/1 114/114/1 110/110/1
f 113/113/1 115/115/1 114/114/1
f 116/116/43 113/113/1 107/107/1
f 113/113/1 116/116/43 115/115/1
f 107/107/1 117/117/1 116/116/43
f 117/117/1 118/118/1 116/116/43
f 115/115/1 116/116/43 119/119/1
f 118/118/1 119/119/1 116/116/43
f 119/119/1 120/120/1 115/115/1
f 119/119/1 118/118/1 121/121/1
f 122/122/1 120/120/1 119/119/1
f 119/119/1 121/121/1 122/122/1
f 122/122/1 123/123/1 120/120/1
f 122/122/1 124/124/1 123/123/1
f 125/125/1 122/122/1 121/121/1
f 122/122/1 125/125/1 124/124/1
f 126/126/1 125/125/1 121/121/1
f 124/124/1 125/125/1 127/127/1
f 126/126/1 128/128/1 125/125/1
f 129/129/1 127/127/1 125/125/1
f 129/129/1 125/125/1 128/128/1
f 128/128/1 130/130/1 129/129/1
f 129/129/1 130/130/1 131/131/1
f 129/129/1 132/132/1 127/127/1
f 129/129/1 131/131/1 133/133/1
f 129/129/1 134/134/44 132/132/1
f 133/133/1 134/134/44 129/129/1
f 134/134/44 135/135/1 132/132/1
f 136/136/44 134/134/44 133/133/1
f 134/134/44 136/136/44 135/135/1
f 133/133/1 137/137/45 136/136/44
f 137/137/45 138/138/45 136/136/44
f 135/135/1 136/136/44 139/139/41
f 138/138/45 139/139/41 136/136/44
f 139/139/41 112/112/42 135/135/1
f 139/139/41 138/138/45 104/104/1
f 111/111/41 112/112/42 139/139/41
f 139/139/41 104/104/1 111/111/41
