# Blender v2.93.18 OBJ File: 'Vw 13-130 new 13.blend'
# www.blender.org
o interior_dash_symbols_2_piece_37
v 2.061000 33.489098 16.859390
v 2.055123 32.821476 16.866825
v 1.393361 33.495014 16.863371
v 1.387485 32.827396 16.870794
v -12.749846 33.617237 15.213279
v -13.034798 33.624645 15.209825
v -12.741666 33.881107 15.105758
v -13.026615 33.888527 15.102284
v -12.761864 32.430008 15.669795
v -13.046922 32.433414 15.671723
v -12.759490 32.692482 15.558632
v -13.044518 32.695911 15.560551
v 6.449749 33.571590 16.443331
v 6.164804 33.579708 16.445448
v 6.457731 33.855919 16.424662
v 6.172788 33.864052 16.426769
v 6.438351 32.300922 16.501202
v 6.153340 32.303551 16.507166
v 6.440483 32.585083 16.478704
v 6.155504 32.587730 16.484659
vt 0.665515 0.109267
vt 0.721579 0.052205
vt 0.722077 0.108766
vt 0.665017 0.052707
vt 0.516932 0.234796
vt 0.555090 0.201412
vt 0.517997 0.200448
vt 0.554024 0.235762
vt 0.516334 0.199468
vt 0.559550 0.160517
vt 0.516691 0.160004
vt 0.559189 0.199984
vt 0.517274 0.235441
vt 0.555404 0.199486
vt 0.518312 0.198430
vt 0.554365 0.236499
vt 0.516641 0.200540
vt 0.559815 0.158211
vt 0.516962 0.157817
vt 0.559489 0.200939
vn 0.0060 0.0110 0.9999
vn 0.0060 0.0111 0.9999
vn -0.0014 0.3774 0.9260
vn 0.0109 0.3899 0.9208
vn 0.0109 0.3898 0.9208
vn 0.0092 0.0652 0.9978
vn 0.0092 0.0653 0.9978
vn 0.0215 0.0787 0.9966
vn 0.0216 0.0787 0.9966
vn 0.0215 0.0788 0.9966
s 1
f 3/1/1 2/2/1 1/3/2
f 3/1/1 4/4/1 2/2/1
f 7/5/3 6/6/3 5/7/3
f 7/5/3 8/8/3 6/6/3
f 11/9/4 10/10/4 9/11/5
f 11/9/4 12/12/4 10/10/4
f 15/13/6 14/14/6 13/15/6
f 15/13/6 16/16/7 14/14/6
f 19/17/8 18/18/8 17/19/9
f 19/17/8 20/20/10 18/18/8
