# Blender v2.93.18 OBJ File: 'Vw 13-130 new 13.blend'
# www.blender.org
o interior_dash_lights_piece_17.001
v -14.592142 43.217472 -96.127640
v -14.592142 42.568829 -95.857246
v -15.243946 43.217472 -96.127640
v -15.243946 42.568829 -95.857246
v -13.812607 43.217472 -96.127655
v -13.812607 42.568829 -95.857254
v -14.464412 43.217472 -96.127640
v -14.464412 42.568829 -95.857246
v -14.592142 42.497696 -95.827583
v -14.592142 41.849052 -95.557213
v -15.243946 42.497696 -95.827583
v -15.243946 41.849052 -95.557213
v -13.812607 42.497696 -95.827599
v -13.812607 41.849052 -95.557220
v -14.464412 42.497696 -95.827583
v -14.464412 41.849052 -95.557213
v -14.592142 41.769936 -95.524216
v -14.592142 41.121292 -95.253830
v -15.243946 41.769936 -95.524216
v -15.243946 41.121292 -95.253830
v -13.812607 41.769936 -95.524223
v -13.812607 41.121292 -95.253838
v -14.464412 41.769936 -95.524216
v -14.464412 41.121292 -95.253830
v -14.592142 41.050156 -95.224182
v -14.592142 40.401516 -94.953796
v -15.243946 41.050156 -95.224182
v -15.243946 40.401516 -94.953796
v -13.812607 41.050156 -95.224190
v -13.812607 40.401516 -94.953804
v -14.464412 41.050156 -95.224182
v -14.464412 40.401516 -94.953796
v -14.569712 38.217194 -93.965836
v -14.569712 38.855576 -94.224030
v -14.464159 38.216835 -93.966713
v -14.464159 38.855225 -94.224907
v -13.961169 38.230339 -93.933334
v -13.961169 38.868721 -94.191521
v -13.883444 38.294834 -93.953400
v -13.906211 38.250092 -93.937073
v -13.883444 38.808403 -94.161110
v -13.906211 38.851925 -94.180473
v -14.569712 37.292301 -93.592468
v -14.569712 37.930691 -93.850662
v -14.464159 37.291950 -93.593369
v -14.464159 37.930336 -93.851540
v -13.961169 37.305450 -93.559982
v -13.961169 37.943836 -93.818153
v -13.883444 37.369949 -93.580048
v -13.906211 37.325203 -93.563721
v -13.883444 37.883514 -93.787766
v -13.906211 37.927036 -93.807129
v -13.883445 39.712986 -94.526276
v -13.961170 39.773308 -94.556664
v -13.906212 39.756508 -94.545639
v -13.883444 39.199421 -94.318565
v -13.961169 39.134922 -94.298470
v -13.906211 39.154675 -94.302223
v -14.464160 39.759808 -94.590057
v -14.464159 39.121422 -94.331879
v -14.569712 39.121777 -94.330994
v -14.569713 39.760162 -94.589188
vt 0.097986 0.892311
vt 0.189328 0.801412
vt 0.189328 0.892311
vt 0.097986 0.801412
vt 0.113478 0.696999
vt 0.204821 0.606099
vt 0.204821 0.696999
vt 0.113478 0.606099
vt 0.113611 0.697694
vt 0.204953 0.606795
vt 0.204953 0.697694
vt 0.113611 0.606795
vt 0.140687 0.705053
vt 0.169800 0.676081
vt 0.169800 0.705053
vt 0.140687 0.676081
vt 0.144861 0.496098
vt 0.236203 0.405199
vt 0.236203 0.496098
vt 0.144861 0.405199
vt 0.140687 0.672547
vt 0.169800 0.643574
vt 0.169800 0.672547
vt 0.140687 0.643574
vt 0.375330 0.709683
vt 0.466672 0.618784
vt 0.466672 0.709683
vt 0.375330 0.618784
vt 0.140687 0.640397
vt 0.169800 0.611424
vt 0.169800 0.640397
vt 0.140687 0.611424
vt 0.597870 0.786590
vt 0.595968 0.795061
vt 0.596534 0.786452
vt 0.597304 0.795198
vt 0.604317 0.787125
vt 0.603750 0.795733
vt 0.605005 0.787430
vt 0.605257 0.788049
vt 0.604802 0.794974
vt 0.604471 0.795545
vt 0.590910 0.611637
vt 0.590758 0.612311
vt 0.590803 0.611627
vt 0.590864 0.612322
vt 0.591422 0.611680
vt 0.591377 0.612364
vt 0.591477 0.611704
vt 0.591497 0.611753
vt 0.591460 0.612304
vt 0.591434 0.612349
vt 0.373458 0.859515
vt 0.371543 0.860014
vt 0.374338 0.857998
vt 0.375549 0.839595
vt 0.373049 0.837139
vt 0.374877 0.837949
vt 0.354413 0.858593
vt 0.355918 0.835717
vt 0.352369 0.835352
vt 0.350864 0.858228
vn 0.0000 0.3847 0.9230
vn -0.0313 0.3747 0.9266
vn 0.0090 0.3749 0.9270
vn 0.0089 0.3749 0.9270
vn -0.0312 0.3747 0.9266
vn -0.0714 0.3739 0.9247
vn -0.0715 0.3740 0.9246
vn -0.0715 0.3737 0.9247
vn -0.0717 0.3740 0.9246
vn 0.0091 0.3749 0.9270
vn -0.0715 0.3739 0.9247
vn -0.0713 0.3740 0.9247
vn -0.0716 0.3739 0.9247
vn -0.0711 0.3740 0.9247
vn -0.0711 0.3742 0.9246
vn -0.0715 0.3742 0.9246
vn -0.0714 0.3740 0.9246
vn -0.0712 0.3740 0.9247
vn -0.0714 0.3740 0.9247
vn -0.0715 0.3739 0.9246
s 1
f 3/1/1 2/2/1 1/3/1
f 3/1/1 4/4/1 2/2/1
f 7/5/1 6/6/1 5/7/1
f 7/5/1 8/8/1 6/6/1
f 11/9/1 10/10/1 9/11/1
f 11/9/1 12/12/1 10/10/1
f 15/13/1 14/14/1 13/15/1
f 15/13/1 16/16/1 14/14/1
f 19/17/1 18/18/1 17/19/1
f 19/17/1 20/20/1 18/18/1
f 23/21/1 22/22/1 21/23/1
f 23/21/1 24/24/1 22/22/1
f 27/25/1 26/26/1 25/27/1
f 27/25/1 28/28/1 26/26/1
f 31/29/1 30/30/1 29/31/1
f 31/29/1 32/32/1 30/30/1
f 35/33/2 34/34/3 33/35/4
f 35/33/2 36/36/5 34/34/3
f 36/36/5 35/33/2 37/37/6
f 36/36/5 37/37/6 38/38/7
f 37/37/6 40/39/8 39/40/6
f 39/40/6 38/38/7 37/37/6
f 39/40/6 41/41/9 38/38/7
f 42/42/7 38/38/7 41/41/9
f 45/43/5 44/44/3 43/45/10
f 45/43/5 46/46/5 44/44/3
f 46/46/5 45/43/5 47/47/11
f 46/46/5 47/47/11 48/48/12
f 47/47/11 50/49/8 49/50/13
f 49/50/13 48/48/12 47/47/11
f 49/50/13 51/51/14 48/48/12
f 52/52/15 48/48/12 51/51/14
f 55/53/16 54/54/17 53/55/18
f 56/56/19 53/55/18 54/54/17
f 56/56/19 54/54/17 57/57/19
f 57/57/19 58/58/20 56/56/19
f 59/59/2 57/57/19 54/54/17
f 59/59/2 60/60/5 57/57/19
f 59/59/2 61/61/3 60/60/5
f 59/59/2 62/62/4 61/61/3
