# Blender v2.93.18 OBJ File: 'Vw 13-130 new 13.blend'
# www.blender.org
o interior_dash_symbols_2_piece_37
v 2.060958 38.867970 -92.726868
v 2.055081 38.200348 -92.719437
v 1.393319 38.873886 -92.722885
v 1.387443 38.206268 -92.715462
v -12.749888 38.996109 -94.372978
v -13.034840 39.003517 -94.376434
v -12.741708 39.259979 -94.480499
v -13.026657 39.267399 -94.483971
v -12.761906 37.808880 -93.916466
v -13.046964 37.812286 -93.914536
v -12.759532 38.071354 -94.027626
v -13.044559 38.074783 -94.025711
v 6.449708 38.950462 -93.142929
v 6.164762 38.958580 -93.140808
v 6.457689 39.234791 -93.161598
v 6.172746 39.242924 -93.159485
v 6.438309 37.679794 -93.085052
v 6.153298 37.682423 -93.079094
v 6.440441 37.963955 -93.107552
v 6.155462 37.966602 -93.101601
vt 0.665515 0.109267
vt 0.721579 0.052205
vt 0.722077 0.108766
vt 0.665017 0.052707
vt 0.516932 0.234796
vt 0.555090 0.201412
vt 0.517997 0.200448
vt 0.554024 0.235762
vt 0.516334 0.199468
vt 0.559550 0.160517
vt 0.516691 0.160004
vt 0.559189 0.199984
vt 0.517274 0.235441
vt 0.555404 0.199486
vt 0.518312 0.198430
vt 0.554365 0.236499
vt 0.516641 0.200540
vt 0.559815 0.158211
vt 0.516962 0.157817
vt 0.559489 0.200939
vn 0.0060 0.0110 0.9999
vn -0.0014 0.3774 0.9260
vn -0.0014 0.3774 0.9261
vn 0.0109 0.3899 0.9208
vn 0.0108 0.3899 0.9208
vn 0.0093 0.0652 0.9978
vn 0.0092 0.0653 0.9978
vn 0.0215 0.0787 0.9966
vn 0.0215 0.0788 0.9966
s 1
f 3/1/1 2/2/1 1/3/1
f 3/1/1 4/4/1 2/2/1
f 7/5/2 6/6/2 5/7/3
f 7/5/2 8/8/2 6/6/2
f 11/9/4 10/10/4 9/11/5
f 11/9/4 12/12/4 10/10/4
f 15/13/6 14/14/6 13/15/6
f 15/13/6 16/16/7 14/14/6
f 19/17/8 18/18/8 17/19/8
f 19/17/8 20/20/9 18/18/8
