# Blender v2.93.18 OBJ File: 'M103 collisions 2.blend'
# www.blender.org
o Turret_plate_american\A66_M103\normal\l\Turret_02.pri~11~6.563
v -42.004349 5.654831 -82.744827
v -30.559916 5.720840 -87.377319
v 32.487392 0.007107 46.044838
v 31.817335 46.414806 35.663422
v 61.171795 7.762781 12.308287
v 55.883400 5.664743 25.109533
v 61.780552 5.691074 9.133511
v 68.786903 7.337205 -21.658192
v 60.629627 3.261558 6.155507
v 54.133446 -0.027639 15.044711
v 66.336456 4.891469 -21.889099
v 70.268631 11.229109 -62.148228
v 71.308037 11.616059 -51.440556
v 68.702080 10.569911 -21.516821
v 71.515388 14.726240 -69.875465
v 68.188431 14.627278 -84.271851
v 68.857590 17.506552 -88.169006
v 67.995216 21.304749 -87.627075
v 63.471050 19.532276 -102.582932
v 63.824749 16.615910 -97.834145
v 56.237785 18.307659 -110.472794
v 62.493610 22.978035 -102.969131
v 50.387192 21.661901 -120.183815
v 52.694054 25.286720 -116.881660
v 53.711933 33.269524 -107.932823
v 42.318275 34.260509 -121.228951
v 44.767799 26.163223 -124.807922
v 33.111404 23.166731 -132.777557
v 35.979172 26.714575 -131.037704
v 26.058184 35.011040 -131.747192
v 34.417557 59.656551 -92.270569
v 28.925800 59.714478 -100.831917
v 60.002987 32.133842 -95.444954
v 63.942554 29.933153 -81.788422
v 43.278553 59.546803 -67.582939
v -24.582626 63.874676 -62.288845
v -34.793350 63.755405 -63.456249
v -43.875771 59.756748 -49.469822
v -70.491837 19.910521 -71.120132
v -63.942554 29.933153 -81.788422
v -68.998962 20.739262 -84.050369
v -60.002987 32.133842 -95.444954
v -65.719131 22.346188 -94.719238
v -60.708851 20.272774 -107.601959
v -61.152813 23.755192 -104.657700
v -68.890221 17.598209 -88.754646
v -60.857128 17.645182 -104.609451
v -42.361572 20.004776 -124.300247
v -47.774311 21.818394 -122.574234
v -55.036118 24.909727 -113.856308
v -47.585815 25.974730 -122.583672
v -44.470921 34.136604 -119.044662
v -38.962124 26.530792 -129.034943
v -24.438395 27.244764 -136.312439
v -34.631886 22.994287 -131.853607
v -34.296848 34.263844 -127.079308
v -21.172813 34.084766 -133.224258
v -26.330402 59.321247 -105.147469
v -14.095926 59.484516 -114.304558
v 5.550511 59.171036 -116.668205
v -5.559011 59.163948 -116.698189
v 22.494650 59.100761 -109.096283
v 14.381553 59.460667 -114.467560
v -6.521962 34.240276 -136.899933
v 6.451300 34.599949 -136.654068
v 3.642685 27.416719 -140.448380
v 19.487795 27.244453 -137.902847
v 14.679127 23.816446 -138.978104
v -3.040626 23.878180 -140.695679
v -13.483687 21.880013 -136.979813
v -7.285370 27.416719 -140.311707
v -18.378359 23.769323 -138.049759
v -34.786289 59.220303 -92.762756
v -53.711933 33.269524 -107.932823
v -43.838341 58.701862 -69.791847
v -71.515388 14.726240 -69.875465
v -71.308037 11.616059 -51.440556
v -68.702080 10.569911 -21.516821
v -71.273270 16.144941 -51.431152
v -60.339638 21.623314 -7.689823
v -31.916225 46.428596 35.430786
v -61.171795 7.762780 12.308291
v -55.842937 5.646928 25.193621
v -54.520763 2.867918 24.182611
v -48.505470 4.018877 36.418163
v -45.746376 0.008580 32.668018
v -33.057850 0.003817 45.531410
v -14.853771 0.005816 54.310783
v -28.511894 47.762360 39.038597
v 0.028543 50.630970 39.145046
v -23.170370 33.412476 67.515305
v -25.649504 32.703133 67.277977
v -25.327297 27.096739 71.386833
v -25.227562 14.488514 71.207222
v -25.407431 20.913214 72.988251
v 25.395458 21.180798 72.989601
v 24.567476 9.223951 67.804451
v -24.736769 9.416377 67.852875
v -24.633503 5.774151 61.891388
v 8.649230 -0.007851 55.827377
v 25.324350 27.497583 71.204330
v 23.217941 33.455456 67.435112
v 28.503454 47.734188 39.121510
v 25.649673 32.702755 67.277969
v 25.156906 14.943640 71.420280
v 43.429367 60.245525 -49.738453
v 70.442497 19.969246 -70.947571
v 71.246002 16.273279 -52.087727
v 60.652901 21.411015 -8.358706
v -54.140633 -0.027469 15.022178
v -60.598995 3.249792 6.345793
v -68.786903 7.337205 -21.658192
v -61.809269 5.643938 9.019725
v 54.901859 3.047355 23.563986
v 45.697250 0.002136 32.830978
v 48.515671 4.084149 36.459591
v 56.123089 0.005424 -3.974509
v 3.588938 -0.002121 -56.639790
v 14.505573 21.715363 -136.509247
v 41.989491 20.022245 -124.689728
v 48.147923 -0.005500 -30.093296
v 26.719252 -0.000983 -49.333843
v -68.188431 14.627278 -84.271851
v -70.236183 11.205403 -62.183334
v -66.336456 4.891469 -21.889099
v -48.750969 -0.018660 -28.977903
v -56.113049 0.000621 -3.956898
v -25.804804 0.001856 -50.385933
vt 0.191684 0.104006
vt 0.229421 0.080628
vt 0.223761 0.094299
vt 0.298900 0.051900
vt 0.233262 0.068135
vt 0.296400 0.036800
vt 0.389849 0.046769
vt 0.366400 0.052000
vt 0.409700 0.063200
vt 0.367190 0.069875
vt 0.444000 0.069600
vt 0.451700 0.087200
vt 0.409405 0.083543
vt 0.450200 0.101700
vt 0.478000 0.101900
vt 0.484858 0.123247
vt 0.510600 0.146500
vt 0.524187 0.199826
vt 0.489800 0.196400
vt 0.514500 0.195800
vt 0.511882 0.259028
vt 0.484407 0.139609
vt 0.528600 0.241500
vt 0.538700 0.288800
vt 0.527794 0.339095
vt 0.442495 0.309779
vt 0.464500 0.161500
vt 0.435400 0.135800
vt 0.493600 0.761600
vt 0.501223 0.767633
vt 0.471200 0.791100
vt 0.457016 0.818609
vt 0.469100 0.745600
vt 0.446300 0.811700
vt 0.535500 0.698400
vt 0.555498 0.630545
vt 0.548084 0.683048
vt 0.544800 0.643600
vt 0.532900 0.614100
vt 0.558963 0.573247
vt 0.546600 0.557100
vt 0.516800 0.662100
vt 0.468919 0.554208
vt 0.489224 0.466003
vt 0.491658 0.384349
vt 0.494234 0.421221
vt 0.484843 0.504183
vt 0.547900 0.491100
vt 0.542747 0.433261
vt 0.560600 0.442100
vt 0.551525 0.369494
vt 0.561600 0.387000
vt 0.667350 0.336725
vt 0.568523 0.472132
vt 0.316687 0.271249
vt 0.568100 0.547300
vt 0.562900 0.493500
vt 0.493900 0.707500
vt 0.513300 0.726500
vt 0.413214 0.824656
vt 0.413700 0.844700
vt 0.371298 0.838497
vt 0.370600 0.856400
vt 0.274670 0.778432
vt 0.304300 0.844500
vt 0.227420 0.818076
vt 0.168875 0.794489
vt 0.165672 0.830164
vt 0.127514 0.797883
vt 0.303100 0.858200
vt 0.236920 0.843721
vt 0.233407 0.831569
vt 0.195981 0.820936
vt 0.195081 0.809039
vt 0.239627 0.497267
vt 0.300200 0.065700
vt 0.272483 0.132355
vt 0.193794 0.091067
vt 0.122648 0.117684
vt 0.161720 0.083884
vt 0.165627 0.118736
vt 0.022201 0.356770
vt 0.000000 0.000000
vt 0.337890 0.017931
vt 0.653400 0.030400
vt 0.000000 0.000000
vt 0.000000 0.000000
vt 0.561300 0.068100
vt 0.037407 0.340691
vt 0.012107 0.082717
vt 0.074593 0.656886
vt 0.065800 0.650083
vt 0.020878 0.036168
vt 0.000000 0.000000
vt 0.000000 0.000000
vt 0.048431 0.684816
vt 0.594740 0.398914
vt 0.573180 0.127110
vt 0.545200 0.111600
vt 0.145595 0.530665
vt 0.210047 0.863611
vt 0.051128 0.419888
vt 0.024334 0.199813
vt 0.081328 0.117265
vt 0.206003 0.049167
vt 0.246962 0.015391
vt 0.325798 0.218684
vt 0.621781 0.327061
vt 0.600721 0.397062
vt 0.623797 0.259117
vt 0.608457 0.180771
vt 0.405469 0.635898
vt 0.392484 0.593539
vt 0.171411 0.580031
vt 0.179361 0.596762
vt 0.150005 0.510413
vt 0.081616 0.349461
vt 0.067000 0.349178
vt 0.000000 0.000000
vt 0.031100 0.681600
vt 0.000000 0.000000
vt 0.000000 0.000000
vt 0.449899 0.600037
vt 0.069601 0.106707
vt 0.000000 0.000000
vt 0.000000 0.000000
vt 0.096747 0.567600
vt 0.547301 0.295023
vt 0.742430 0.328828
vt 0.293039 0.416580
vt 0.172581 0.456400
vt 0.169920 0.333059
vt 0.097857 0.556251
vt 0.013363 0.090945
vt 0.000000 0.000000
vt 0.465095 0.326456
vt 0.177281 0.316416
vt 0.000000 0.000000
vt 0.000000 0.000000
vt 0.097730 0.358345
vt 0.079688 0.641778
vt 0.284752 0.192148
vt 0.000000 0.000000
vt 0.324339 0.549771
vt 0.480939 0.346949
vt 0.000000 0.000000
vt 0.000000 0.000000
vt 0.008788 0.199826
vt 0.000000 0.000000
vt 0.456253 0.329801
vt 0.098833 0.301426
vt 0.439900 0.771200
vt 0.088075 0.619448
vt 0.000000 0.000000
vt 0.002400 0.498900
vt 0.000000 0.000000
vt 0.000000 0.000000
vt 0.000000 0.000000
vt 0.000000 0.000000
vt 0.003703 0.005306
vt 0.023089 0.563898
vt 0.530800 0.685700
vn 0.8679 0.2506 0.4289
vn 0.9663 -0.0873 0.2423
vn 0.9377 0.1191 0.3265
vn 0.9876 0.0186 0.1556
vn 0.7631 -0.6093 0.2155
vn 0.6706 -0.7307 0.1277
vn 0.7092 -0.7045 0.0263
vn 0.5318 -0.8465 -0.0256
vn 0.6137 -0.7793 -0.1270
vn 0.7182 -0.6944 -0.0446
vn 0.9833 0.1765 -0.0445
vn 0.9557 0.2841 0.0776
vn 0.9981 0.0205 0.0576
vn 0.7714 -0.6156 -0.1614
vn 0.8326 -0.5078 -0.2211
vn 0.9490 0.2337 -0.2117
vn 0.9278 0.3716 -0.0329
vn 0.7606 -0.5736 -0.3040
vn 0.9136 0.3591 -0.1906
vn 0.7518 -0.5398 -0.3787
vn 0.6452 -0.6188 -0.4481
vn 0.4507 -0.7770 -0.4394
vn 0.4515 -0.7089 -0.5418
vn 0.7025 0.5765 -0.4173
vn 0.7568 0.2999 -0.5808
vn 0.5605 0.5787 -0.5925
vn 0.8537 0.3061 -0.4214
vn 0.6205 0.2158 -0.7539
vn 0.5174 0.2265 -0.8252
vn 0.3415 0.5425 -0.7675
vn 0.4069 0.8923 -0.1954
vn 0.7846 0.5689 -0.2465
vn 0.8318 0.5480 -0.0889
vn -0.8425 0.3602 -0.4005
vn -0.8407 0.2409 -0.4849
vn -0.8949 0.3319 -0.2982
vn -0.9411 0.2493 -0.2283
vn -0.7842 0.5694 -0.2465
vn -0.9340 0.3318 -0.1321
vn -0.4231 -0.7436 -0.5178
vn -0.1907 -0.8282 -0.5270
vn -0.2823 -0.8151 -0.5060
vn -0.5434 0.2544 -0.8000
vn -0.4466 0.5693 -0.6902
vn -0.3403 0.2167 -0.9150
vn -0.2875 0.5694 -0.7701
vn -0.5833 0.5848 -0.5637
vn -0.3515 0.8595 -0.3711
vn -0.0590 0.8570 -0.5119
vn 0.1890 0.8723 -0.4510
vn 0.0502 0.8601 -0.5076
vn -0.1870 0.8657 -0.4644
vn -0.1007 0.5439 -0.8331
vn 0.0954 0.5406 -0.8358
vn 0.0733 0.1966 -0.9777
vn 0.2731 0.1927 -0.9425
vn 0.1852 0.0200 -0.9825
vn 0.0879 -0.8758 -0.4745
vn -0.0037 -0.8656 -0.5008
vn 0.1176 -0.7603 -0.6388
vn -0.0306 0.0191 -0.9993
vn -0.0791 -0.8532 -0.5155
vn -0.2437 0.0313 -0.9693
vn -0.1308 0.2130 -0.9682
vn -0.7050 0.5788 -0.4098
vn -0.7639 0.2820 -0.5805
vn -0.9297 0.3671 -0.0301
vn -0.9847 0.1694 -0.0415
vn -0.9570 0.2789 0.0799
vn -0.9985 0.0110 0.0536
vn -0.8508 0.4797 0.2146
vn -0.9597 0.2253 0.1677
vn -0.9377 0.1186 0.3267
vn -0.7273 -0.4446 0.5229
vn -0.5258 -0.7569 0.3880
vn -0.2438 -0.9300 0.2751
vn -0.9878 0.0136 0.1554
vn -0.7079 -0.7059 0.0259
vn -0.6684 -0.7327 0.1282
vn -0.7625 -0.6103 0.2150
vn -0.9666 -0.0848 0.2420
vn -0.6753 -0.6702 0.3079
vn -0.7840 -0.5046 0.3616
vn -0.8681 0.2484 0.4298
vn -0.6322 -0.7656 -0.1187
vn -0.7206 -0.6919 -0.0445
vn -0.8041 -0.5698 -0.1692
vn 0.9596 0.2267 0.1668
vn 0.8513 0.4794 0.2130
vn 0.6853 -0.6616 0.3044
vn 0.7788 -0.5087 0.3669
vn 0.2375 -0.9301 0.2802
vn 0.5346 -0.7478 0.3937
vn 0.7313 -0.4374 0.5233
vn -0.1779 -0.9610 -0.2118
vn -0.5779 -0.7864 -0.2184
vn -0.5529 -0.7309 -0.4000
vn -0.6966 -0.6440 -0.3162
vn -0.4712 0.0866 -0.8778
vn -0.1555 -0.9856 -0.0666
vn -0.5326 -0.8460 -0.0252
vn -0.6325 -0.5662 -0.5285
vn 0.3201 -0.6652 0.6746
vn 0.4098 -0.3662 0.8354
vn -0.4094 -0.3710 0.8335
vn -0.3202 -0.6571 0.6824
vn -0.5740 0.8109 0.1141
vn 0.4988 0.8627 0.0835
vn 0.7131 0.6399 0.2863
vn -0.2623 -0.9649 0.0104
vn -0.0002 -1.0000 0.0003
vn -0.3458 -0.9323 0.1065
vn -0.0557 -0.9546 0.2928
vn 0.0295 -0.9444 0.3275
vn -0.0003 -1.0000 0.0010
vn -0.0002 -1.0000 -0.0003
vn 0.2627 -0.9648 0.0097
vn 0.1521 -0.9849 -0.0832
vn 0.0736 -0.9894 -0.1251
vn 0.0237 -0.9912 -0.1300
vn -0.0433 -0.9960 -0.0780
vn -0.6408 0.7597 -0.1108
vn -0.2288 0.9734 -0.0084
vn -0.3695 0.8632 0.3442
vn -0.7123 0.6411 0.2855
vn 0.4734 0.3614 0.8033
vn 0.4554 0.0155 0.8902
vn -0.0386 -0.9673 -0.2508
vn 0.6050 -0.7738 0.1875
vn -0.4824 0.8380 -0.2551
vn -0.5709 0.5812 0.5799
vn 0.1947 -0.8189 -0.5399
vn 0.3020 -0.7989 -0.5202
vn -0.1705 -0.7815 -0.6002
vn 0.4383 0.0520 -0.8973
vn -0.0106 0.9993 0.0351
vn 0.0041 0.9478 0.3189
vn 0.3728 0.8616 0.3444
vn -0.1257 0.7287 0.6731
vn -0.4729 0.3564 0.8058
vn 0.3491 0.8983 -0.2668
vn 0.5705 0.5828 0.5787
vn 0.1253 0.7319 0.6698
vn -0.4538 0.0105 0.8910
vn 0.1565 -0.9649 -0.2107
vn 0.5243 0.8481 -0.0765
vn 0.3678 0.8296 -0.4202
vn -0.2422 -0.8408 0.4842
vn -0.8307 0.5489 -0.0931
vn 0.1850 -0.9638 -0.1922
vn 0.7212 0.1117 -0.6837
vn -0.6836 0.0152 -0.7297
vn -0.6680 0.2612 -0.6968
vn 0.8897 0.1820 -0.4187
s 1
f 6/1/1 7/2/2 5/3/3
f 7/2/2 8/4/4 5/3/3
f 7/2/5 9/5/6 8/4/7
f 8/4/7 9/5/6 11/6/8
f 12/7/9 8/4/7 11/6/8
f 8/4/7 12/7/9 13/8/10
f 15/9/11 108/10/12 13/8/13
f 13/8/10 12/7/9 15/9/14
f 16/11/15 15/9/14 12/7/9
f 17/12/16 107/13/17 15/9/11
f 108/10/12 15/9/11 107/13/17
f 15/9/14 16/11/15 17/12/18
f 107/13/17 17/12/16 18/14/19
f 20/15/20 17/12/18 16/11/15
f 20/15/20 19/16/21 17/12/18
f 21/17/22 19/16/21 20/15/20
f 19/16/21 21/17/22 23/18/23
f 25/19/24 24/20/25 26/21/26
f 25/19/24 22/22/27 24/20/25
f 27/23/28 26/21/26 24/20/25
f 29/24/29 26/21/26 27/23/28
f 26/21/26 29/24/29 30/25/30
f 31/26/31 33/27/32 25/19/24
f 34/28/33 18/14/19 33/27/32
f 22/22/27 33/27/32 18/14/19
f 45/29/34 44/30/35 43/31/36
f 44/30/35 46/32/37 43/31/36
f 43/31/36 42/33/38 45/29/34
f 43/31/36 46/32/37 41/34/39
f 49/35/40 55/36/41 48/37/42
f 53/38/43 56/39/44 54/40/45
f 57/41/46 54/40/45 56/39/44
f 56/39/44 52/42/47 58/43/48
f 61/44/49 63/45/50 60/46/51
f 63/45/50 61/44/49 59/47/52
f 64/48/53 65/49/54 66/50/55
f 66/50/55 65/49/54 67/51/56
f 67/51/56 68/52/57 66/50/55
f 119/53/58 69/54/59 68/52/60
f 68/52/57 69/54/61 66/50/55
f 70/55/62 69/54/59 119/53/58
f 69/54/61 72/56/63 71/57/64
f 72/56/63 54/40/45 71/57/64
f 57/41/46 64/48/53 54/40/45
f 71/57/64 54/40/45 64/48/53
f 71/57/64 64/48/53 66/50/55
f 30/25/30 29/24/29 67/51/56
f 42/33/38 74/58/65 45/29/34
f 50/59/66 45/29/34 74/58/65
f 39/60/67 46/32/37 76/61/68
f 46/32/37 39/60/67 41/34/39
f 76/61/68 79/62/69 39/60/67
f 79/62/69 76/61/68 77/63/70
f 80/64/71 78/65/72 82/66/73
f 85/67/74 86/68/75 87/69/76
f 112/70/77 82/66/73 78/65/72
f 112/70/78 111/71/79 113/72/80
f 112/70/77 113/72/81 82/66/73
f 84/73/82 83/74/83 113/72/80
f 113/72/81 83/74/84 82/66/73
f 111/71/79 84/73/82 113/72/80
f 124/75/85 77/63/86 76/61/87
f 14/76/88 5/3/3 8/4/4
f 5/3/3 14/76/88 109/77/89
f 114/78/90 9/5/6 7/2/5
f 6/1/91 114/78/90 7/2/5
f 3/79/92 115/80/93 116/81/94
f 1/82/95 124/75/85 123/83/96
f 47/84/97 123/85/96 46/86/98
f 1/82/95 123/85/96 47/84/97
f 69/54/61 71/57/64 66/50/55
f 53/38/43 54/40/45 55/36/99
f 124/75/85 1/82/95 126/87/100
f 85/67/74 84/73/82 86/68/75
f 125/88/101 124/75/85 126/87/100
f 44/30/102 47/84/97 46/32/98
f 97/89/103 105/90/104 94/91/105 98/92/106
f 38/93/107 79/62/69 80/64/71
f 106/94/108 4/95/109 109/77/89
f 111/71/79 112/70/78 125/88/101
f 48/37/42 1/96/95 47/97/97
f 125/88/101 126/98/100 127/99/110
f 127/100/110 86/68/111 110/101/112
f 127/100/110 87/69/76 86/68/111
f 127/100/110 88/102/113 87/69/76
f 127/100/110 100/103/114 88/102/113
f 127/100/110 3/79/92 100/104/114
f 127/100/110 115/80/115 3/79/92
f 127/100/110 10/105/116 115/80/115
f 127/100/110 117/106/117 10/105/116
f 127/100/110 121/107/118 117/106/117
f 127/100/110 122/108/119 121/109/118
f 127/100/110 118/110/120 122/108/119
f 127/100/110 128/111/121 118/110/120
f 127/100/110 126/98/100 128/111/121
f 111/71/79 125/88/101 110/101/112
f 110/101/112 125/88/101 127/100/110
f 48/37/42 47/97/97 49/35/40
f 49/35/40 47/97/97 44/30/102
f 75/112/122 38/93/107 37/113/123
f 89/114/124 38/93/107 81/115/125
f 81/116/125 80/64/71 82/66/73
f 6/1/1 101/117/126 96/118/127
f 119/53/58 2/119/128 70/55/62
f 70/55/62 2/120/128 48/121/42
f 70/55/62 48/37/42 55/36/41
f 10/105/129 9/5/6 114/78/90
f 37/122/123 73/123/130 75/124/122
f 52/42/47 74/58/65 58/43/48
f 58/43/48 74/58/65 73/123/130
f 73/123/130 37/122/123 58/43/48
f 89/125/124 37/113/123 38/93/107
f 107/13/17 18/14/19 34/28/33
f 89/114/124 81/116/125 92/126/131
f 92/127/131 81/116/125 82/66/73
f 28/128/132 120/129/133 119/53/58
f 28/128/132 119/53/58 68/52/60
f 69/54/59 70/55/62 72/56/134
f 72/56/134 70/55/62 55/36/41
f 28/128/135 67/51/56 29/24/29
f 58/43/48 37/113/123 59/47/52
f 59/47/52 36/130/136 63/45/50
f 36/130/136 90/131/137 106/94/108
f 106/94/108 90/131/137 103/132/138
f 92/127/131 82/66/73 83/74/84
f 89/114/124 92/127/131 91/133/139
f 93/134/140 92/127/131 83/74/84
f 21/17/22 120/135/133 23/18/23
f 23/18/23 120/129/133 28/128/132
f 85/67/74 83/74/83 84/73/82
f 63/45/50 36/130/136 32/136/141
f 106/94/108 103/132/138 4/137/109
f 4/137/109 103/132/138 104/138/142
f 104/138/142 103/132/138 102/139/143
f 102/139/143 103/132/138 90/131/137
f 102/140/143 90/131/137 91/133/139
f 91/133/139 90/131/137 89/114/124
f 84/73/82 111/71/79 110/101/112
f 95/141/144 83/74/84 85/67/74
f 122/108/119 21/17/22 20/15/145
f 45/29/34 50/59/66 44/30/35
f 34/28/33 33/27/32 35/142/146
f 95/141/144 85/67/74 94/91/105
f 120/129/133 122/108/119 118/110/120
f 31/26/31 32/136/141 36/130/136
f 31/26/31 36/130/136 106/94/108
f 109/77/89 4/137/109 5/3/3
f 5/3/3 4/137/109 104/138/142
f 38/93/107 39/60/67 79/62/69
f 108/10/12 106/94/108 109/77/89
f 31/26/31 106/94/108 35/142/146
f 108/143/12 107/13/17 106/144/108
f 93/134/140 91/133/139 92/127/131
f 62/145/147 26/21/26 63/45/50
f 63/146/50 26/21/26 30/25/30
f 63/146/50 30/25/30 65/147/54
f 99/148/148 98/92/106 87/149/76
f 87/69/76 98/92/106 85/67/74
f 65/147/54 60/46/51 63/146/50
f 26/21/26 62/150/147 32/136/141
f 33/27/32 31/26/31 35/142/146
f 32/136/141 31/26/31 25/19/24
f 78/65/72 80/64/71 79/62/69
f 6/1/1 5/3/3 104/138/142
f 6/1/1 104/151/142 101/117/126
f 75/124/122 42/33/38 40/152/149
f 22/22/27 25/19/24 33/27/32
f 39/60/67 40/152/149 41/34/39
f 95/141/144 93/153/140 83/74/84
f 121/109/118 16/11/150 12/7/9
f 25/19/24 26/21/26 32/136/141
f 97/89/103 98/92/106 100/154/114
f 100/103/114 98/92/106 88/155/113
f 88/155/113 98/92/106 99/148/148
f 100/104/114 3/79/92 97/89/103
f 104/151/142 102/140/143 101/117/126
f 116/81/94 6/1/1 96/156/127
f 116/81/94 96/118/127 105/90/104
f 23/18/151 27/23/28 24/20/25
f 128/111/121 126/98/100 1/96/95
f 121/109/118 12/7/9 11/6/8
f 117/106/117 121/109/118 11/6/8
f 116/81/94 97/157/103 3/79/92
f 98/92/106 94/91/105 85/67/74
f 117/106/117 11/6/8 10/105/129
f 10/105/129 11/6/8 9/5/6
f 61/44/49 64/48/53 57/41/46 59/47/52
f 14/76/88 108/10/12 109/77/89
f 42/158/38 75/159/122 73/160/130 74/58/65
f 21/17/22 122/108/119 120/129/133
f 89/114/124 90/131/137 36/130/136 37/113/123
f 128/111/121 1/96/95 2/120/128 118/110/120
f 88/102/113 99/161/148 87/69/76
f 49/35/152 44/30/35 50/59/66 51/162/153
f 76/61/87 46/32/98 123/83/96 124/75/85
f 124/75/85 125/88/101 112/70/78 77/63/86
f 14/76/88 8/4/4 13/8/13 108/10/12
f 56/39/44 58/43/48 59/47/52 57/41/46
f 62/150/147 63/45/50 32/136/141
f 10/105/129 114/78/90 115/80/93
f 43/31/36 41/34/39 40/152/149 42/33/38
f 116/81/94 115/80/93 114/78/90
f 28/128/135 29/24/29 27/23/28 23/18/151
f 55/36/99 49/35/152 51/162/153 53/38/43
f 84/73/82 110/101/112 86/68/75
f 54/40/45 72/56/63 55/36/99
f 68/52/57 67/51/56 28/128/135
f 53/38/43 51/162/153 52/42/47 56/39/44
f 36/130/136 59/47/52 37/113/123
f 50/59/66 74/58/65 52/42/47 51/162/153
f 101/117/126 102/140/143 91/133/139 93/134/140
f 105/90/104 96/118/127 95/141/144 94/91/105
f 23/18/151 24/20/25 22/22/27 19/16/154
f 39/60/67 38/93/107 75/124/122 40/152/149
f 65/49/54 30/25/30 67/51/56
f 97/89/103 116/81/94 105/90/104
f 65/49/54 64/48/53 61/44/49 60/46/51
f 35/142/146 106/94/108 107/13/17 34/28/33
f 96/118/127 101/117/126 93/134/140 95/141/144
f 78/65/72 79/62/69 77/63/70 112/70/77
f 116/81/94 114/78/90 6/1/91
f 18/14/19 17/12/16 19/16/154 22/22/27
f 122/108/119 20/15/145 16/11/150 121/109/118
f 119/53/58 120/129/133 118/110/120 2/119/128
f 48/37/42 2/120/128 1/96/95
f 38/93/107 80/64/71 81/116/125
