# Blender v2.93.18 OBJ File: 'M103 collisions.blend'
# www.blender.org
o Front_plate_american\A66_M103\normal\l\Hull.pri~11~5.001
v -1.080300 0.298800 1.243700
v -1.075200 0.376700 1.200200
v -0.951100 0.376700 1.377400
v -1.080300 0.198000 1.403200
v -1.080300 0.097100 1.623200
v -1.334800 -0.106500 2.342700
v -1.261900 -0.058300 2.661100
v -1.210800 -0.073700 3.010500
v -1.210800 -0.138099 3.124600
v -0.400300 0.124300 2.944800
v -0.610300 0.192100 2.634000
v -0.822100 0.173900 2.440700
v -0.592500 0.262400 2.334000
v -0.529000 0.298800 2.187400
v -0.378200 0.262400 2.485100
v -0.798000 0.376700 1.530500
v -0.620800 0.376700 1.654600
v -0.424600 0.376700 1.746100
v -0.215600 0.376700 1.802100
v 0.000000 0.376700 1.820900
v 0.215600 0.376700 1.802100
v 0.424600 0.376700 1.746100
v 0.620800 0.376700 1.654600
v 0.529000 0.298800 2.187400
v 0.588400 0.262400 2.333100
v 0.822100 0.173900 2.440700
v 1.334800 -0.106500 2.244400
v 1.261900 -0.058300 2.661100
v 1.210800 -0.073700 3.010500
v 1.210800 -0.138099 3.124600
v 1.210800 -0.228299 3.222800
v 0.424100 0.033901 3.126500
v 0.400300 0.124300 2.944800
v 0.191100 0.142600 2.959200
v 0.294800 0.204700 2.760100
v 0.610300 0.192100 2.634000
v 0.378900 0.262400 2.484500
v 0.129000 0.262400 2.578900
v 0.155100 0.298800 2.422000
v 0.263800 0.298800 2.377600
v -0.155100 0.298800 2.422000
v -0.129000 0.262400 2.578900
v 0.000000 0.207600 2.775400
v -0.294800 0.204700 2.760100
v -0.191100 0.142600 2.959200
v 0.000000 0.144700 2.963000
v 0.000000 0.054801 3.148000
v -0.206000 0.050201 3.143400
v -0.424100 0.033901 3.126500
v -0.213800 -0.042399 3.272200
v -0.450900 -0.102399 3.288600
v -1.210800 -0.228299 3.222800
v -0.485300 -0.267299 3.367200
v -0.335300 -0.277499 3.422200
v -0.154600 -0.251699 3.457300
v -0.146700 -0.284499 3.451800
v -0.327000 -0.245199 3.428900
v -0.220200 -0.150899 3.373900
v 0.000000 -0.042399 3.285000
v 0.000000 -0.150899 3.392000
v 0.154600 -0.251699 3.457300
v 0.220200 -0.150899 3.373900
v 0.000000 -0.252499 3.469300
v 0.000000 -0.284699 3.462600
v 0.146700 -0.284499 3.451800
v 0.335300 -0.277499 3.422200
v 0.485300 -0.267299 3.367200
v 0.327000 -0.245199 3.428900
v 0.450900 -0.102399 3.288600
v 0.213800 -0.042399 3.272200
v 0.206000 0.050201 3.143400
v -0.263800 0.298800 2.377600
v 1.080300 0.097100 1.623200
v 1.080300 0.198000 1.403200
v 1.080300 0.298800 1.243700
v 0.951100 0.376700 1.377400
v 1.075200 0.376700 1.200200
v 0.798000 0.376700 1.530500
vt 0.736800 0.817500
vt 0.752000 0.796300
vt 0.765100 0.816300
vt 0.689600 0.722800
vt 0.708000 0.725000
vt 0.707600 0.744100
vt 0.726400 0.734600
vt 0.736800 0.705500
vt 0.752000 0.726600
vt 0.765200 0.707000
vt 0.762400 0.737500
vt 0.758600 0.747200
vt 0.743800 0.749600
vt 0.743900 0.773300
vt 0.725400 0.761500
vt 0.726400 0.788300
vt 0.708000 0.797900
vt 0.707600 0.778800
vt 0.707300 0.761500
vt 0.688500 0.761500
vt 0.688900 0.780200
vt 0.689600 0.800200
vt 0.674500 0.781000
vt 0.670400 0.803000
vt 0.648900 0.793500
vt 0.648800 0.776000
vt 0.651600 0.792100
vt 0.645700 0.775500
vt 0.661000 0.781900
vt 0.659500 0.761500
vt 0.648800 0.746900
vt 0.661000 0.741000
vt 0.647800 0.761500
vt 0.644900 0.761500
vt 0.645700 0.747400
vt 0.648900 0.729400
vt 0.651600 0.730800
vt 0.670400 0.719900
vt 0.674500 0.742000
vt 0.688900 0.742700
vt 0.673300 0.761500
vt 0.758700 0.775900
vt 0.762400 0.785600
vt 0.000000 0.000000
vt 0.846100 0.870400
vt 0.862800 0.866800
vt 0.862800 0.656200
vt 0.870000 0.660200
vt 0.000000 0.000000
vt 0.000000 0.000000
vt 0.000000 0.000000
vt 0.854500 0.672600
vt 0.831200 0.703800
vt 0.841600 0.687200
vt 0.823800 0.722200
vt 0.819300 0.741600
vt 0.818000 0.761500
vt 0.819400 0.781400
vt 0.823900 0.800800
vt 0.831300 0.819200
vt 0.841600 0.835900
vt 0.854500 0.850400
vt 0.846200 0.652700
vt 0.824500 0.649200
vt 0.824400 0.873900
vt 0.670100 0.648400
vt 0.682400 0.648600
vt 0.763100 0.629600
vt 0.000000 0.000000
vt 0.763000 0.893300
vt 0.000000 0.000000
vt 0.000000 0.000000
vt 0.653400 0.714700
vt 0.694400 0.648400
vt 0.000000 0.000000
vt 0.779300 0.810600
vt 0.753100 0.685100
vt 0.870000 0.862900
vt 0.000000 0.000000
vt 0.000000 0.000000
vt 0.000000 0.000000
vt 0.000000 0.000000
vt 0.694400 0.874500
vt 0.682400 0.874300
vt 0.670100 0.874600
vt 0.000000 0.000000
vt 0.653400 0.808200
vt 0.779300 0.712400
vt 0.000000 0.000000
vt 0.000000 0.000000
vt 0.000000 0.000000
vt 0.753200 0.837900
vt 0.000000 0.000000
vt 0.000000 0.000000
vt 0.000000 0.000000
vt 0.000000 0.000000
vn -0.2055 0.9437 0.2593
vn -0.1228 0.9681 0.2185
vn -0.1897 0.9614 0.1994
vn 0.1507 0.8468 0.5102
vn 0.1489 0.9143 0.3767
vn 0.0569 0.9221 0.3828
vn 0.0951 0.9521 0.2908
vn 0.2053 0.9439 0.2587
vn 0.1240 0.9680 0.2183
vn 0.1862 0.9623 0.1984
vn 0.0853 0.9804 0.1775
vn 0.0386 0.9819 0.1856
vn 0.0367 0.9682 0.2473
vn -0.0366 0.9682 0.2474
vn 0.0000 0.9551 0.2964
vn -0.0950 0.9520 0.2908
vn -0.1489 0.9143 0.3767
vn -0.0569 0.9221 0.3828
vn -0.0000 0.9255 0.3788
vn -0.0000 0.8588 0.5123
vn -0.0677 0.8557 0.5130
vn -0.1507 0.8468 0.5102
vn -0.0844 0.7528 0.6528
vn -0.1628 0.7071 0.6882
vn -0.2011 -0.1514 0.9678
vn -0.1247 -0.1908 0.9737
vn -0.1920 -0.1518 0.9696
vn -0.1118 -0.1920 0.9750
vn -0.1446 0.6103 0.7789
vn -0.0776 0.6030 0.7940
vn -0.0982 0.6450 0.7579
vn 0.0000 0.6507 0.7593
vn 0.0776 0.6030 0.7940
vn 0.0982 0.6450 0.7579
vn 0.0000 0.6055 0.7958
vn 0.0000 -0.2008 0.9796
vn 0.0000 -0.2037 0.9790
vn 0.1118 -0.1920 0.9750
vn 0.1247 -0.1908 0.9737
vn 0.2011 -0.1514 0.9678
vn 0.1920 -0.1518 0.9696
vn 0.1446 0.6103 0.7789
vn 0.1628 0.7071 0.6882
vn 0.0844 0.7528 0.6528
vn 0.0677 0.8557 0.5130
vn -0.0000 0.7557 0.6549
vn -0.0370 0.9820 0.1855
vn -0.0848 0.9805 0.1770
vn 0.2983 -0.8283 -0.4742
vn -0.3546 -0.8121 -0.4634
vn 0.0000 -0.6911 -0.7228
vn 0.9550 -0.0945 -0.2811
vn 0.8257 0.5584 0.0795
vn 0.2181 0.9714 0.0939
vn 0.8580 0.4947 0.1381
vn 0.6427 0.6903 0.3324
vn 0.1498 0.9825 0.1106
vn 0.0546 0.9950 0.0831
vn 0.0916 0.9911 0.0965
vn 0.0302 0.9970 0.0719
vn 0.0137 0.9976 0.0684
vn -0.0011 0.9978 0.0670
vn -0.0151 0.9976 0.0680
vn -0.0302 0.9970 0.0719
vn -0.0546 0.9950 0.0831
vn -0.0908 0.9912 0.0959
vn -0.1499 0.9825 0.1105
vn 0.6022 -0.6748 -0.4265
vn 0.0250 -0.9746 -0.2226
vn 0.1222 -0.9189 -0.3750
vn -0.1893 -0.9092 -0.3709
vn 0.9773 0.1560 0.1433
vn 0.9743 0.1727 0.1444
vn -0.0361 -0.9745 -0.2215
vn -0.0059 -0.9892 -0.1461
vn 0.0034 -0.9902 -0.1395
vn 0.0181 -0.9917 -0.1275
vn 0.0296 -0.9940 -0.1056
vn 0.0296 -0.9924 -0.1193
vn 0.2788 0.9363 0.2135
vn -0.1330 0.9758 0.1737
vn -0.5101 0.8601 0.0011
vn -0.6343 0.6967 0.3351
vn -0.8104 0.5693 0.1385
vn -0.8102 0.5796 0.0880
vn -0.9646 -0.0776 -0.2520
vn -0.6928 -0.6096 -0.3852
vn 0.2274 -0.1414 0.9635
vn 0.1767 0.7110 0.6807
vn 0.1778 0.7696 0.6133
vn -0.9676 0.1944 0.1613
vn -0.9712 0.1754 0.1611
vn -0.0269 -0.9908 -0.1327
vn -0.0265 -0.9931 -0.1142
vn -0.0152 -0.9899 -0.1411
vn 0.0000 -0.9998 -0.0185
vn 0.1359 0.9752 0.1749
vn -0.2788 0.9363 0.2135
vn -0.1778 0.7696 0.6133
vn -0.1767 0.7110 0.6807
vn -0.2274 -0.1414 0.9635
vn 0.0000 -0.4875 -0.8731
s 1
f 11/1/1 15/2/2 13/3/3
f 32/4/4 33/5/5 34/6/6
f 33/5/5 35/7/7 34/6/6
f 35/7/7 33/5/5 36/8/8
f 37/9/9 35/7/7 36/8/8
f 25/10/10 37/9/9 36/8/8
f 37/9/9 40/11/11 39/12/12
f 38/13/13 42/14/14 43/15/15
f 43/15/15 42/14/14 44/16/16
f 11/1/1 10/17/17 44/16/16
f 45/18/18 44/16/16 10/17/17
f 11/1/1 44/16/16 15/2/2
f 45/18/18 43/15/15 44/16/16
f 46/19/19 43/15/15 45/18/18
f 45/18/18 47/20/20 46/19/19
f 47/20/20 45/18/18 48/21/21
f 45/18/18 49/22/22 48/21/21
f 45/18/18 10/17/17 49/22/22
f 48/21/21 49/22/22 50/23/23
f 50/23/23 49/22/22 51/24/24
f 54/25/25 55/26/26 57/27/27
f 55/26/26 54/25/25 56/28/28
f 57/27/29 55/26/30 58/29/31
f 51/24/24 58/29/31 50/23/23
f 55/26/30 60/30/32 58/29/31
f 60/30/32 61/31/33 62/32/34
f 61/31/33 60/30/32 63/33/35
f 60/30/32 55/26/30 63/33/35
f 56/28/28 63/33/36 55/26/26
f 63/33/36 56/28/28 64/34/37
f 65/35/38 63/33/36 64/34/37
f 63/33/36 65/35/38 61/31/39
f 66/36/40 61/31/39 65/35/38
f 61/31/39 66/36/40 68/37/41
f 62/32/34 61/31/33 68/37/42
f 69/38/43 32/4/4 70/39/44
f 70/39/44 62/32/34 69/38/43
f 71/40/45 59/41/46 70/39/44
f 70/39/44 32/4/4 71/40/45
f 59/41/46 71/40/45 47/20/20
f 71/40/45 32/4/4 34/6/6
f 34/6/6 47/20/20 71/40/45
f 48/21/21 59/41/46 47/20/20
f 59/41/46 48/21/21 50/23/23
f 47/20/20 34/6/6 46/19/19
f 34/6/6 43/15/15 46/19/19
f 35/7/7 38/13/13 43/15/15
f 35/7/7 43/15/15 34/6/6
f 41/42/47 72/43/48 15/2/2
f 74/44/49 4/45/50 1/46/51 75/47/51
f 75/47/52 77/48/52 27/49/52
f 27/49/53 77/48/54 28/50/55
f 28/50/55 77/48/54 29/51/56
f 29/51/56 77/48/54 76/52/57
f 76/52/57 23/53/58 78/54/59
f 76/52/57 22/55/60 23/53/58
f 76/52/57 21/56/61 22/55/60
f 76/52/57 20/57/62 21/56/61
f 76/52/57 19/58/63 20/57/62
f 76/52/57 18/59/64 19/58/63
f 76/52/57 17/60/65 18/59/64
f 76/52/57 16/61/66 17/60/65
f 76/52/57 3/62/67 16/61/66
f 39/12/12 41/42/47 42/14/14 38/13/13
f 74/63/49 75/47/68 27/49/69
f 73/64/70 5/65/71 4/45/50 74/63/49
f 31/66/72 27/49/53 30/67/73
f 30/67/73 27/49/53 28/50/55
f 74/63/49 27/68/69 73/64/70
f 21/56/61 39/12/12 40/11/11 22/69/60
f 6/70/74 27/68/69 56/71/75
f 56/71/75 27/68/69 65/72/76
f 65/35/76 27/68/69 66/36/77
f 66/36/77 27/68/69 67/73/78
f 67/73/78 27/49/69 31/66/79
f 30/67/73 28/50/55 29/74/56
f 26/75/80 29/51/56 76/52/57
f 72/43/48 14/76/81 13/3/3 15/2/2
f 32/4/4 29/74/56 33/5/5
f 33/5/5 29/74/56 36/8/8
f 36/8/8 29/51/56 26/77/80
f 26/77/80 76/52/57 36/8/8
f 36/8/8 76/52/57 25/10/10
f 25/10/10 76/52/57 78/54/59
f 3/62/67 2/78/82 8/79/83
f 8/79/83 2/78/82 7/80/84
f 7/80/84 2/78/82 6/81/85
f 6/81/85 2/78/82 1/46/86
f 60/30/32 62/32/34 70/39/44 59/41/46
f 6/81/74 1/46/87 4/45/50
f 67/73/78 31/66/79 66/36/77
f 66/36/40 31/66/88 68/37/41
f 68/37/42 31/66/89 69/82/43
f 69/82/43 31/66/89 30/67/90
f 4/45/50 5/65/71 6/81/74
f 7/80/84 6/81/85 8/79/83
f 8/83/83 6/81/85 9/84/91
f 9/84/91 6/81/85 52/85/92
f 52/85/93 6/81/74 53/86/94
f 53/87/94 6/81/74 54/25/95
f 54/25/95 6/70/74 56/28/75
f 64/34/96 56/71/75 65/35/76
f 25/10/10 78/54/59 24/88/97
f 24/88/97 78/54/59 40/11/11
f 40/11/11 78/54/59 23/53/58
f 41/42/47 39/89/12 21/56/61 20/57/62
f 12/90/98 3/62/67 8/79/83
f 16/61/66 3/62/67 13/91/3
f 13/3/3 3/62/67 11/1/1
f 11/1/1 3/62/67 12/92/98
f 12/92/98 8/79/83 11/1/1
f 11/1/1 8/79/83 10/17/17
f 10/17/17 8/79/83 49/22/22
f 69/38/43 30/67/90 29/74/56 32/93/4
f 62/32/34 68/37/42 69/38/43
f 51/24/24 9/84/99 52/85/100
f 57/27/27 52/94/101 54/25/25
f 54/25/95 52/85/93 53/87/94
f 51/24/24 52/94/100 57/27/29
f 50/23/23 58/29/31 60/30/32 59/41/46
f 41/42/47 15/2/2 44/16/16 42/14/14
f 18/59/64 72/43/48 41/42/47 19/58/63
f 22/55/60 40/11/11 23/53/58
f 17/60/65 16/61/66 72/95/48
f 72/43/48 16/61/66 14/76/81
f 14/76/81 16/61/66 13/3/3
f 40/11/11 37/9/9 25/10/10 24/88/97
f 58/29/31 51/24/24 57/27/29
f 75/96/51 1/46/51 2/78/102 77/48/102
f 49/22/22 8/83/83 9/84/99 51/24/24
f 39/12/12 38/13/13 35/7/7 37/9/9
f 18/59/64 17/60/65 72/95/48
f 2/78/82 3/62/67 76/52/57 77/48/54
f 5/65/71 73/64/70 27/68/69 6/70/74
f 41/42/47 20/57/62 19/58/63
