# Blender v2.93.18 OBJ File: 'M103 collisions.blend'
# www.blender.org
o Top_plate_american\A66_M103\normal\l\Hull.pri~11~5.016
v -18.095615 16.513020 -89.665192
v -17.977806 16.516958 -29.063730
v -42.423382 11.729933 -97.770523
v -2.501499 14.883313 -105.428169
v -35.142723 12.083359 -131.413132
v -35.142723 13.328218 -119.698891
v -34.451572 11.894860 -133.215622
v -32.947529 11.769197 -134.472260
v -31.180382 11.726000 -134.970993
v 31.180382 11.726000 -134.970993
v 32.947529 11.769197 -134.472260
v 34.451572 11.894860 -133.215622
v 35.142723 12.083359 -131.413132
v 35.142723 13.328218 -119.698891
v 2.501499 14.883313 -105.428169
v 18.095615 16.513020 -89.665192
v 42.423382 11.729933 -97.770523
v -48.753708 14.793014 22.753036
v -48.015430 14.793012 14.286423
v -16.674042 14.793021 68.569344
v 0.000000 14.793021 71.506744
v 8.466612 14.793021 70.768463
v 24.378817 14.793020 64.976143
v 16.674042 14.793021 68.569344
v 37.349697 14.793018 54.090496
v 45.812382 14.793016 39.427074
v 31.337460 14.793019 60.102730
v -8.466612 14.793021 70.768463
v -31.337460 14.793019 60.102730
v -24.378817 14.793020 64.976143
v -45.812382 14.793016 39.427074
v -37.349697 14.793018 54.090496
v 17.977806 16.516958 -29.063730
v -48.015430 11.733881 31.219648
v -48.015430 14.793015 31.219648
v -48.753708 11.733880 22.753036
v -45.812382 11.733883 39.427074
v -42.223103 14.793017 47.131847
v -42.423382 11.733884 48.840096
v 48.753708 14.793014 22.753036
v 48.015430 11.733881 31.219648
v 48.015430 14.793015 31.219648
v 48.753708 11.733880 22.753036
v 45.812382 11.733883 39.427074
v 42.223103 14.793017 47.131847
v 42.423382 11.733884 48.840096
v 48.015430 14.793012 14.286423
vt 0.455100 0.989300
vt 0.475800 0.989300
vt 0.000000 0.000000
vt 0.455100 0.997100
vt 0.000000 0.000000
vt 0.000000 0.000000
vt 0.000000 0.000000
vt 0.539800 0.894700
vt 0.559400 0.891300
vt 0.000000 0.000000
vt 0.890400 0.275300
vt 0.748500 0.275000
vt 0.000000 0.000000
vt 0.000000 0.000000
vt 0.000000 0.000000
vt 0.000000 0.000000
vt 0.434100 0.989300
vt 0.000000 0.000000
vt 0.997100 0.306100
vt 0.996000 0.310200
vt 0.993000 0.313800
vt 0.988800 0.315500
vt 0.961100 0.315500
vt 0.000000 0.000000
vt 0.000000 0.000000
vt 0.000000 0.000000
vt 0.000000 0.000000
vt 0.927500 0.238800
vt 0.927500 0.227100
vt 0.001000 0.989300
vt 0.023400 0.989300
vt 0.000000 0.000000
vt 0.001000 0.997100
vt 0.419500 0.810500
vt 0.426300 0.829200
vt 0.436300 0.846500
vt 0.449100 0.861700
vt 0.464300 0.874500
vt 0.000000 0.000000
vt 0.043400 0.989300
vt 0.043400 0.997100
vt 0.000000 0.000000
vt 0.497500 0.989300
vt 0.416000 0.790900
vt 0.000000 0.000000
vt 0.000000 0.000000
vt 0.084000 0.997100
vt 0.064400 0.997100
vt 0.000000 0.000000
vt 0.000000 0.000000
vt 0.449100 0.700200
vt 0.436300 0.715400
vt 0.426300 0.732700
vt 0.419500 0.751400
vt 0.416000 0.771000
vt 0.497500 0.997100
vt 0.000000 0.000000
vt 0.997100 0.159900
vt 0.996000 0.155700
vt 0.993000 0.152100
vt 0.064400 0.989300
vt 0.961100 0.150400
vt 0.988800 0.150400
vn -0.9848 0.0000 0.1737
vn -0.9457 0.0675 0.3180
vn -0.9999 0.0000 0.0173
vn -0.9998 0.0000 0.0178
vn -0.9986 0.0000 -0.0525
vn -0.3406 0.9392 -0.0445
vn -0.5904 0.8055 -0.0515
vn -0.3494 0.9365 -0.0309
vn -0.0515 0.9987 0.0032
vn -0.0560 0.9975 -0.0438
vn -0.0254 0.9997 0.0055
vn -0.0394 0.9992 0.0089
vn 0.0253 0.9997 0.0055
vn 0.0560 0.9975 -0.0438
vn -0.0001 -1.0000 0.0000
vn -0.0003 -1.0000 0.0000
vn -0.0094 -1.0000 -0.0028
vn -0.0037 -1.0000 -0.0008
vn -0.0451 -0.9989 -0.0127
vn -0.1384 -0.9897 -0.0357
vn -0.5625 -0.8164 -0.1303
vn -0.0424 0.9935 -0.1056
vn -0.2438 0.9655 -0.0918
vn 0.0094 -1.0000 -0.0028
vn 0.0214 -0.9975 0.0673
vn -0.0214 -0.9975 0.0673
vn -0.0004 0.9945 -0.1046
vn 0.0004 0.9945 -0.1046
vn 0.8356 0.2412 0.4935
vn 0.9457 0.0675 0.3180
vn 0.8712 0.2177 0.4401
vn -0.0021 0.9998 0.0174
vn -0.0061 0.9998 0.0177
vn -0.0097 0.9998 0.0177
vn -0.0137 0.9998 0.0173
vn -0.0183 0.9997 0.0165
vn -0.0239 0.9996 0.0150
vn -0.0307 0.9994 0.0127
vn 0.9848 0.0000 0.1737
vn 0.0026 0.9944 -0.1056
vn -0.0026 0.9944 -0.1056
vn -0.0053 0.9944 -0.1058
vn -0.0057 0.9943 -0.1062
vn 0.0005 0.9999 0.0173
vn 0.2438 0.9655 -0.0918
vn 0.3494 0.9365 -0.0309
vn 0.0515 0.9987 0.0032
vn 0.0394 0.9992 0.0089
vn 0.0307 0.9994 0.0127
vn 0.0239 0.9996 0.0150
vn 0.0183 0.9997 0.0165
vn 0.0137 0.9998 0.0173
vn 0.0097 0.9998 0.0177
vn 0.0061 0.9998 0.0177
vn 0.0028 0.9998 0.0175
vn 0.0191 -0.9858 0.1671
vn 0.0000 -0.9900 0.1408
vn -0.0191 -0.9858 0.1671
vn -0.0706 -0.9676 0.2422
vn -0.1845 -0.9071 0.3783
vn -0.4186 -0.6837 0.5978
vn -0.8356 0.2412 0.4935
vn -0.7065 -0.0408 0.7065
vn -0.7225 0.0118 0.6913
vn -0.8712 0.2177 0.4401
vn 0.0037 -1.0000 -0.0008
vn 0.0451 -0.9989 -0.0127
vn 0.0057 0.9943 -0.1062
vn 0.0053 0.9944 -0.1058
vn 0.0001 -1.0000 0.0000
vn 0.0003 -1.0000 0.0000
vn 0.0424 0.9935 -0.1056
vn 0.3406 0.9392 -0.0445
vn 0.5904 0.8055 -0.0515
vn 0.9986 0.0000 -0.0525
vn 0.9998 0.0000 0.0178
vn 0.9999 0.0000 0.0173
vn 0.7225 0.0118 0.6913
vn 0.7065 -0.0408 0.7065
vn 0.4186 -0.6837 0.5978
vn 0.1845 -0.9071 0.3783
vn 0.0706 -0.9676 0.2422
vn 0.5625 -0.8164 -0.1303
vn 0.1384 -0.9897 -0.0357
s 1
f 34/1/1 37/2/2 31/3/2 35/4/1
f 36/5/3 18/6/4 3/7/5
f 3/7/6 18/8/7 19/9/8
f 19/9/8 18/8/9 1/10/10
f 1/11/10 18/8/9 2/12/11
f 2/12/11 18/8/9 35/13/12
f 2/14/11 33/15/13 16/16/14 1/11/10
f 34/1/15 36/17/16 9/18/17
f 9/18/17 36/5/16 3/7/18
f 9/19/17 3/7/18 8/20/19
f 8/20/19 3/7/18 7/21/20
f 7/21/20 3/7/18 5/22/21
f 5/22/22 3/7/6 6/23/23
f 6/23/23 3/7/6 19/9/8
f 6/23/23 19/9/8 1/10/10
f 10/24/24 46/25/25 39/26/26 9/18/17
f 6/23/23 1/10/10 4/27/27
f 4/28/27 16/16/14 15/29/28
f 4/28/27 1/11/10 16/16/14
f 46/30/29 44/31/30 26/32/30 45/33/31
f 28/34/32 2/14/11 20/35/33
f 20/35/33 2/14/11 30/36/34
f 30/36/34 2/14/11 29/37/35
f 29/37/35 2/14/11 32/38/36
f 32/38/36 2/14/11 38/39/37
f 38/39/37 2/14/11 31/3/38
f 31/3/38 2/12/11 35/13/12
f 26/32/30 44/31/30 41/40/39 42/41/39
f 37/2/15 34/1/15 9/18/17
f 10/24/40 4/28/27 15/29/28
f 10/24/40 9/18/41 4/28/27
f 4/27/27 9/18/41 6/23/23
f 6/23/23 9/18/41 7/42/42
f 7/21/42 9/19/41 8/20/43
f 37/2/15 9/18/17 39/43/26
f 21/44/44 33/15/13 2/14/11 28/34/32
f 6/23/23 7/21/42 5/22/22
f 15/29/28 16/16/14 14/45/45
f 14/45/45 16/16/14 47/46/46
f 47/47/46 16/16/14 40/48/47
f 40/48/47 16/16/14 33/15/13
f 40/48/47 33/15/13 42/41/48
f 42/41/48 33/15/13 26/32/49
f 26/32/49 33/15/13 45/49/50
f 45/49/50 33/15/13 25/50/51
f 25/51/51 33/15/13 27/52/52
f 27/52/52 33/15/13 23/53/53
f 23/53/53 33/15/13 24/54/54
f 24/54/54 33/15/13 22/55/55
f 22/55/55 33/15/13 21/44/44
f 22/55/56 21/44/57 46/25/25
f 46/25/25 21/44/57 39/26/26
f 39/26/26 21/44/57 28/34/58
f 39/26/26 28/34/58 20/35/59
f 39/26/26 20/35/59 30/36/60
f 39/26/26 30/36/60 29/37/61
f 39/26/62 29/37/63 32/38/64
f 39/43/62 32/38/64 38/56/65
f 17/57/66 10/58/24 11/59/67
f 11/59/68 10/58/40 12/60/69
f 12/60/69 10/58/40 14/45/45
f 14/45/45 10/24/40 15/29/28
f 46/30/25 10/24/24 44/31/70
f 44/31/70 10/24/24 41/40/70
f 41/40/70 10/24/24 43/61/71
f 43/61/71 10/58/24 17/57/66
f 12/60/69 14/62/45 13/63/72
f 13/63/72 14/62/45 17/57/73
f 17/57/73 14/45/45 47/46/46
f 17/57/73 47/47/46 40/48/74
f 17/57/75 40/48/76 43/61/77
f 36/17/3 34/1/1 35/4/1 18/6/4
f 42/41/39 41/40/39 43/61/77 40/48/76
f 39/43/62 38/39/65 31/3/2 37/2/2
f 46/30/29 45/49/31 25/50/78
f 46/30/29 25/51/78 27/52/79
f 46/30/25 27/52/80 23/53/81
f 46/30/25 23/53/81 24/54/82
f 46/25/25 24/54/82 22/55/56
f 13/63/83 17/57/66 12/60/84
f 12/60/84 17/57/66 11/59/67
