# Blender v2.93.18 OBJ File: 'Trailer Prancha 3.blend'
# www.blender.org
o ramp_sign_piece_4.520
v -47.003445 54.507481 5.666904
v -47.003445 54.507481 6.058190
v -47.003445 18.715824 5.666904
v 46.806122 54.507481 5.666904
v 46.806122 18.715824 5.666904
v 46.806122 54.507481 6.058190
v 46.806122 18.715824 6.058190
v -47.003445 18.715824 6.058190
v -47.577648 18.824123 5.601290
v -47.577648 18.362715 6.834245
v -47.577648 18.824104 6.834245
v -47.577648 18.362715 5.601290
v 47.235653 18.824123 5.601290
v 47.235653 18.362715 6.834245
v 47.235653 18.362715 5.601290
v 47.235653 18.824104 6.834245
v -47.003445 54.507481 6.058190
v -47.003445 54.507481 6.058190
v -47.003445 54.507481 5.666904
v -47.003445 54.507481 5.666904
v -47.003445 18.715824 5.666904
v -47.003445 18.715824 5.666904
v 46.806122 54.507481 5.666904
v 46.806122 54.507481 5.666904
v 46.806122 18.715824 6.058190
v 46.806122 18.715824 6.058190
v 46.806122 18.715824 5.666904
v 46.806122 18.715824 5.666904
v -47.003445 18.715824 6.058190
v -47.003445 18.715824 6.058190
v 46.806122 54.507481 6.058190
v 46.806122 54.507481 6.058190
v -47.577648 18.824104 6.834245
v -47.577648 18.824104 6.834245
v -47.577648 18.824123 5.601290
v -47.577648 18.824123 5.601290
v -47.577648 18.362715 5.601290
v -47.577648 18.362715 5.601290
v 47.235653 18.824123 5.601290
v 47.235653 18.824123 5.601290
v 47.235653 18.362715 5.601290
v 47.235653 18.362715 5.601290
v 47.235653 18.824104 6.834245
v 47.235653 18.824104 6.834245
v 47.235653 18.362715 6.834245
v 47.235653 18.362715 6.834245
v -47.577648 18.362715 6.834245
v -47.577648 18.362715 6.834245
vt 0.276150 0.550609
vt 0.276150 0.550609
vt 0.276150 0.419795
vt 0.276150 0.550609
vt 0.650555 0.550609
vt 0.276150 0.550609
vt 0.525830 0.074206
vt 0.471979 0.053660
vt 0.525830 0.053660
vt 0.471979 0.074206
vt 0.650555 0.550609
vt 0.650555 0.419795
vt 0.650555 0.419795
vt 0.650555 0.550609
vt 0.525830 0.053660
vt 0.471979 0.053660
vt 0.471979 0.053660
vt 0.525830 0.053660
vt 0.276150 0.550609
vt 0.276150 0.419795
vt 0.650555 0.419795
vt 0.276150 0.419795
vt 0.650555 0.550609
vt 0.650555 0.550609
vt 0.526160 0.053457
vt 0.526160 0.053722
vt 0.526160 0.053722
vt 0.526160 0.053457
vt 0.526160 0.053722
vt 0.471732 0.053722
vt 0.526160 0.053722
vt 0.526160 0.053457
vt 0.526160 0.053722
vt 0.471732 0.053722
vt 0.471732 0.053457
vt 0.471732 0.053457
vt 0.471732 0.053457
vt 0.471732 0.053722
vt 0.471732 0.053722
vt 0.471732 0.053722
vt 0.526160 0.053457
vt 0.471732 0.053457
vt 0.471732 0.053722
vt 0.526160 0.053722
vt 0.526160 0.053457
vt 0.526160 0.053457
vt 0.471732 0.053457
vt 0.471732 0.053457
vn -1.0000 0.0000 0.0000
vn 0.0000 1.0000 0.0000
vn 0.0000 0.0000 -1.0000
vn 1.0000 0.0000 0.0000
vn 0.0000 -1.0000 0.0000
vn 0.0000 0.0000 1.0000
s 1
f 17/1/1 19/2/1 21/3/1
f 2/4/2 23/5/2 20/6/2
f 1/7/3 27/8/3 22/9/3
f 1/7/3 24/10/3 27/8/3
f 31/11/4 25/12/4 28/13/4
f 31/11/4 28/13/4 4/14/4
f 29/15/5 5/16/5 26/17/5
f 29/15/5 3/18/5 5/16/5
f 18/19/6 30/20/6 7/21/6
f 17/1/1 21/3/1 8/22/1
f 18/19/6 7/21/6 32/23/6
f 2/4/2 6/24/2 23/5/2
f 47/25/1 33/26/1 35/27/1
f 47/25/1 35/27/1 37/28/1
f 34/29/2 39/30/2 36/31/2
f 38/32/3 9/33/3 40/34/3
f 38/32/3 40/34/3 41/35/3
f 45/36/4 15/37/4 13/38/4
f 45/36/4 13/38/4 43/39/4
f 34/29/2 16/40/2 39/30/2
f 48/41/6 46/42/6 44/43/6
f 48/41/6 44/43/6 11/44/6
f 10/45/5 12/46/5 42/47/5
f 10/45/5 42/47/5 14/48/5
