# Blender v2.93.18 OBJ File: 'Trailer Prancha 3.blend'
# www.blender.org
o body_stickers_piece_5
v -24.088017 11.955552 16.459229
v -24.088017 11.955552 2.519296
v -24.088017 14.868979 2.519296
v -24.088017 14.868979 16.459229
v 22.224483 12.584140 16.459379
v 22.224483 15.497573 16.459379
v 22.224483 15.497573 2.519146
v 22.224483 12.584140 2.519146
v -24.088017 11.955552 36.091385
v -24.088017 11.955552 22.151449
v -24.088017 14.868979 22.151449
v -24.088017 14.868979 36.091385
v 22.224483 12.584140 36.091534
v 22.224483 15.497573 36.091534
v 22.224483 15.497573 22.151300
v 22.224483 12.584140 22.151300
v -24.088017 -2.329486 85.363228
v -24.088017 -2.329486 71.423294
v -24.088017 0.583942 71.423294
v -24.088017 0.583942 85.363228
v 22.224483 -1.700893 85.363373
v 22.224483 1.212535 85.363373
v 22.224483 1.212535 71.423141
v 22.224483 -1.700893 71.423141
v -24.088017 11.955552 55.529964
v -24.088017 11.955552 41.590019
v -24.088017 14.868979 41.590019
v -24.088017 14.868979 55.529964
v 22.224483 12.584140 55.530113
v 22.224483 15.497573 55.530113
v 22.224483 15.497573 41.589870
v 22.224483 12.584140 41.589870
v -53.941788 -14.717515 103.129242
v -53.941788 -14.717515 89.189308
v -53.941788 -11.804087 89.189308
v -53.941788 -11.804087 103.129242
v 51.629173 -14.717520 103.129395
v 51.629173 -11.804087 103.129395
v 51.629173 -11.804087 89.189163
v 51.629173 -14.717520 89.189163
v -53.941788 -14.717515 122.761436
v -53.941788 -14.717515 108.821503
v -53.941788 -11.804087 108.821503
v -53.941788 -11.804087 122.761436
v 51.629173 -14.717520 122.761589
v 51.629173 -11.804087 122.761589
v 51.629173 -11.804087 108.821350
v 51.629173 -14.717520 108.821350
v -53.941788 -14.717515 142.435791
v -53.941788 -14.717515 128.495850
v -53.941788 -11.804087 128.495850
v -53.941788 -11.804087 142.435791
v 51.629173 -14.717520 142.435944
v 51.629173 -11.804087 142.435944
v 51.629173 -11.804087 128.495697
v 51.629173 -14.717520 128.495697
v -53.941788 -14.717515 162.067978
v -53.941788 -14.717515 148.128052
v -53.941788 -11.804087 148.128052
v -53.941788 -11.804087 162.067978
v 51.629173 -14.717520 162.068130
v 51.629173 -11.804087 162.068130
v 51.629173 -11.804087 148.127899
v 51.629173 -14.717520 148.127899
v -53.941788 -14.717515 181.742340
v -53.941788 -14.717515 167.802414
v -53.941788 -11.804087 167.802414
v -53.941788 -11.804087 181.742340
v 51.629173 -14.717520 181.742493
v 51.629173 -11.804087 181.742493
v 51.629173 -11.804087 167.802261
v 51.629173 -14.717520 167.802261
v -53.941788 -14.717515 201.374512
v -53.941788 -14.717515 187.434586
v -53.941788 -11.804087 187.434586
v -53.941788 -11.804087 201.374512
v 51.629173 -14.717520 201.374664
v 51.629173 -11.804087 201.374664
v 51.629173 -11.804087 187.434433
v 51.629173 -14.717520 187.434433
v -53.941788 -14.717515 221.171295
v -53.941788 -14.717515 207.231369
v -53.941788 -11.804087 207.231369
v -53.941788 -11.804087 221.171295
v 51.629173 -14.717520 221.171448
v 51.629173 -11.804087 221.171448
v 51.629173 -11.804087 207.231216
v 51.629173 -14.717520 207.231216
v -53.941788 -14.717515 240.803467
v -53.941788 -14.717515 226.863541
v -53.941788 -11.804087 226.863541
v -53.941788 -11.804087 240.803467
v 51.629173 -14.717520 240.803619
v 51.629173 -11.804087 240.803619
v 51.629173 -11.804087 226.863388
v 51.629173 -14.717520 226.863388
v -53.941788 -14.717515 260.454712
v -53.941788 -14.717515 246.514801
v -53.941788 -11.804087 246.514801
v -53.941788 -11.804087 260.454712
v 51.629173 -14.717520 260.454865
v 51.629173 -11.804087 260.454865
v 51.629173 -11.804087 246.514648
v 51.629173 -14.717520 246.514648
v -53.941788 -14.717515 280.086914
v -53.941788 -14.717515 266.146973
v -53.941788 -11.804087 266.146973
v -53.941788 -11.804087 280.086914
v 51.629173 -14.717520 280.087036
v 51.629173 -11.804087 280.087036
v 51.629173 -11.804087 266.146820
v 51.629173 -14.717520 266.146820
v -53.941788 -14.717515 299.792023
v -53.941788 -14.717515 285.852081
v -53.941788 -11.804087 285.852081
v -53.941788 -11.804087 299.792023
v 51.629173 -14.717520 299.792145
v 51.629173 -11.804087 299.792145
v 51.629173 -11.804087 285.851929
v 51.629173 -14.717520 285.851929
v -53.941788 -14.717515 319.424164
v -53.941788 -14.717515 305.484253
v -53.941788 -11.804087 305.484253
v -53.941788 -11.804087 319.424164
v 51.629173 -14.717520 319.424316
v 51.629173 -11.804087 319.424316
v 51.629173 -11.804087 305.484100
v 51.629173 -14.717520 305.484100
v -43.855316 -21.880873 505.217896
v -43.855316 -18.967436 505.217896
v -31.343840 -18.967436 505.217896
v -31.343840 -21.880873 505.217896
v -18.844049 -21.880882 505.217896
v -31.355946 -21.880882 505.217896
v -31.355946 -18.967445 505.217896
v -18.844049 -18.967445 505.217896
v -14.492990 -21.880873 505.217896
v -14.492990 -18.967436 505.217896
v -1.466942 -18.967436 505.217896
v -1.466942 -21.880873 505.217896
v 11.546923 -21.880882 505.217896
v -1.479540 -21.880882 505.217896
v -1.479540 -18.967445 505.217896
v 11.546923 -18.967445 505.217896
v 15.422667 -21.880873 505.217896
v 15.422667 -18.967436 505.217896
v 28.448711 -18.967436 505.217896
v 28.448711 -21.880873 505.217896
v 41.462540 -21.880882 505.217896
v 28.436113 -21.880882 505.217896
v 28.436113 -18.967445 505.217896
v 41.462540 -18.967445 505.217896
v -53.715988 -21.880873 505.217896
v -53.715988 -18.967436 505.217896
v -46.592030 -18.967436 505.217896
v -46.592030 -21.880873 505.217896
v 44.882896 -21.880873 505.217896
v 44.882896 -18.967436 505.217896
v 52.006870 -18.967436 505.217896
v 52.006870 -21.880873 505.217896
v 51.622311 -13.628816 326.682495
v 51.622311 -9.408401 339.857849
v 51.622311 -10.854237 325.793732
v 51.622311 -6.633832 338.969055
v 51.622330 -6.634824 338.965912
v 51.622330 -9.409404 339.854706
v 51.622330 -4.535839 345.518524
v 51.622330 -7.310409 346.407318
v -53.941753 -9.408401 339.857849
v -53.941753 -13.628816 326.682495
v -53.941753 -10.854237 325.793732
v -53.941753 -6.633832 338.969055
v -53.941780 -9.409404 339.854706
v -53.941780 -6.634824 338.965912
v -53.941780 -4.535839 345.518524
v -53.941780 -7.310409 346.407318
v -24.142057 10.749032 3.686225
v -24.142057 10.749032 19.222086
v -24.142057 4.534691 19.222086
v -24.142057 4.534691 3.686225
v 21.676722 10.749032 19.222086
v 21.676722 10.749032 3.686225
v 21.676722 4.534691 3.686225
v 21.676722 4.534691 19.222086
vt 0.889800 0.220987
vt 0.889800 0.102487
vt 0.080764 0.102487
vt 0.080764 0.220987
vt 0.889800 0.220987
vt 0.080764 0.220987
vt 0.080764 0.102487
vt 0.889800 0.102487
vt 0.889800 0.220987
vt 0.889800 0.102487
vt 0.080764 0.102487
vt 0.080764 0.220987
vt 0.889800 0.220987
vt 0.080764 0.220987
vt 0.080764 0.102487
vt 0.889800 0.102487
vt 0.889800 0.220987
vt 0.889800 0.102487
vt 0.080764 0.102487
vt 0.080764 0.220987
vt 0.889800 0.220987
vt 0.080764 0.220987
vt 0.080764 0.102487
vt 0.889800 0.102487
vt 0.889800 0.220987
vt 0.889800 0.102487
vt 0.080764 0.102487
vt 0.080764 0.220987
vt 0.889800 0.220987
vt 0.080764 0.220987
vt 0.080764 0.102487
vt 0.889800 0.102487
vt 0.889800 0.220987
vt 0.889800 0.102487
vt 0.080764 0.102487
vt 0.080764 0.220987
vt 0.889800 0.220987
vt 0.080764 0.220987
vt 0.080764 0.102487
vt 0.889800 0.102487
vt 0.889800 0.220987
vt 0.889800 0.102487
vt 0.080764 0.102487
vt 0.080764 0.220987
vt 0.889800 0.220987
vt 0.080764 0.220987
vt 0.080764 0.102487
vt 0.889800 0.102487
vt 0.889800 0.220987
vt 0.889800 0.102487
vt 0.080764 0.102487
vt 0.080764 0.220987
vt 0.889800 0.220987
vt 0.080764 0.220987
vt 0.080764 0.102487
vt 0.889800 0.102487
vt 0.889800 0.220987
vt 0.889800 0.102487
vt 0.080764 0.102487
vt 0.080764 0.220987
vt 0.889800 0.220987
vt 0.080764 0.220987
vt 0.080764 0.102487
vt 0.889800 0.102487
vt 0.889800 0.220987
vt 0.889800 0.102487
vt 0.080764 0.102487
vt 0.080764 0.220987
vt 0.889800 0.220987
vt 0.080764 0.220987
vt 0.080764 0.102487
vt 0.889800 0.102487
vt 0.889800 0.220987
vt 0.889800 0.102487
vt 0.080764 0.102487
vt 0.080764 0.220987
vt 0.889800 0.220987
vt 0.080764 0.220987
vt 0.080764 0.102487
vt 0.889800 0.102487
vt 0.889800 0.220987
vt 0.889800 0.102487
vt 0.080764 0.102487
vt 0.080764 0.220987
vt 0.889800 0.220987
vt 0.080764 0.220987
vt 0.080764 0.102487
vt 0.889800 0.102487
vt 0.889800 0.220987
vt 0.889800 0.102487
vt 0.080764 0.102487
vt 0.080764 0.220987
vt 0.889800 0.220987
vt 0.080764 0.220987
vt 0.080764 0.102487
vt 0.889800 0.102487
vt 0.889800 0.220987
vt 0.889800 0.102487
vt 0.080764 0.102487
vt 0.080764 0.220987
vt 0.889800 0.220987
vt 0.080764 0.220987
vt 0.080764 0.102487
vt 0.889800 0.102487
vt 0.889800 0.220987
vt 0.889800 0.102487
vt 0.080764 0.102487
vt 0.080764 0.220987
vt 0.889800 0.220987
vt 0.080764 0.220987
vt 0.080764 0.102487
vt 0.889800 0.102487
vt 0.889800 0.220987
vt 0.889800 0.102487
vt 0.080764 0.102487
vt 0.080764 0.220987
vt 0.889800 0.220987
vt 0.080764 0.220987
vt 0.080764 0.102487
vt 0.889800 0.102487
vt 0.889800 0.220987
vt 0.889800 0.102487
vt 0.080764 0.102487
vt 0.080764 0.220987
vt 0.889800 0.220987
vt 0.080764 0.220987
vt 0.080764 0.102487
vt 0.889800 0.102487
vt 0.889800 0.220987
vt 0.080764 0.220987
vt 0.080764 0.102487
vt 0.889800 0.102487
vt 0.889800 0.220987
vt 0.889800 0.102487
vt 0.080764 0.102487
vt 0.080764 0.220987
vt 0.889800 0.220987
vt 0.080764 0.220987
vt 0.080764 0.102487
vt 0.889800 0.102487
vt 0.889800 0.220987
vt 0.889800 0.102487
vt 0.080764 0.102487
vt 0.080764 0.220987
vt 0.889800 0.220987
vt 0.080764 0.220987
vt 0.080764 0.102487
vt 0.889800 0.102487
vt 0.889800 0.220987
vt 0.889800 0.102487
vt 0.080764 0.102487
vt 0.080764 0.220987
vt 0.895083 0.222457
vt 0.507343 0.222457
vt 0.507343 0.097652
vt 0.895083 0.097652
vt 0.895083 0.222457
vt 0.507343 0.222457
vt 0.507343 0.097652
vt 0.895083 0.097652
vt 0.889800 0.220987
vt 0.080764 0.102487
vt 0.889800 0.102487
vt 0.080764 0.220987
vt 0.895083 0.222457
vt 0.507343 0.097652
vt 0.507343 0.222457
vt 0.895083 0.097652
vt 0.889800 0.220987
vt 0.889800 0.102487
vt 0.080764 0.102487
vt 0.080764 0.220987
vt 0.895083 0.222457
vt 0.507343 0.222457
vt 0.507343 0.097652
vt 0.895083 0.097652
vt 0.918033 0.397429
vt 0.918033 0.674649
vt 0.099704 0.674649
vt 0.099704 0.397429
vt 0.918033 0.397429
vt 0.918033 0.674649
vt 0.099704 0.674649
vt 0.099704 0.397429
vn -1.0000 0.0000 0.0000
vn 1.0000 0.0000 0.0000
vn 0.0000 0.0000 1.0000
s 1
f 3/1/1 2/2/1 1/3/1
f 3/1/1 1/3/1 4/4/1
f 7/5/2 6/6/2 5/7/2
f 7/5/2 5/7/2 8/8/2
f 11/9/1 10/10/1 9/11/1
f 11/9/1 9/11/1 12/12/1
f 15/13/2 14/14/2 13/15/2
f 15/13/2 13/15/2 16/16/2
f 19/17/1 18/18/1 17/19/1
f 19/17/1 17/19/1 20/20/1
f 23/21/2 22/22/2 21/23/2
f 23/21/2 21/23/2 24/24/2
f 27/25/1 26/26/1 25/27/1
f 27/25/1 25/27/1 28/28/1
f 31/29/2 30/30/2 29/31/2
f 31/29/2 29/31/2 32/32/2
f 35/33/1 34/34/1 33/35/1
f 35/33/1 33/35/1 36/36/1
f 39/37/2 38/38/2 37/39/2
f 39/37/2 37/39/2 40/40/2
f 43/41/1 42/42/1 41/43/1
f 43/41/1 41/43/1 44/44/1
f 47/45/2 46/46/2 45/47/2
f 47/45/2 45/47/2 48/48/2
f 51/49/1 50/50/1 49/51/1
f 51/49/1 49/51/1 52/52/1
f 55/53/2 54/54/2 53/55/2
f 55/53/2 53/55/2 56/56/2
f 59/57/1 58/58/1 57/59/1
f 59/57/1 57/59/1 60/60/1
f 63/61/2 62/62/2 61/63/2
f 63/61/2 61/63/2 64/64/2
f 67/65/1 66/66/1 65/67/1
f 67/65/1 65/67/1 68/68/1
f 71/69/2 70/70/2 69/71/2
f 71/69/2 69/71/2 72/72/2
f 75/73/1 74/74/1 73/75/1
f 75/73/1 73/75/1 76/76/1
f 79/77/2 78/78/2 77/79/2
f 79/77/2 77/79/2 80/80/2
f 83/81/1 82/82/1 81/83/1
f 83/81/1 81/83/1 84/84/1
f 87/85/2 86/86/2 85/87/2
f 87/85/2 85/87/2 88/88/2
f 91/89/1 90/90/1 89/91/1
f 91/89/1 89/91/1 92/92/1
f 95/93/2 94/94/2 93/95/2
f 95/93/2 93/95/2 96/96/2
f 99/97/1 98/98/1 97/99/1
f 99/97/1 97/99/1 100/100/1
f 103/101/2 102/102/2 101/103/2
f 103/101/2 101/103/2 104/104/2
f 107/105/1 106/106/1 105/107/1
f 107/105/1 105/107/1 108/108/1
f 111/109/2 110/110/2 109/111/2
f 111/109/2 109/111/2 112/112/2
f 115/113/1 114/114/1 113/115/1
f 115/113/1 113/115/1 116/116/1
f 119/117/2 118/118/2 117/119/2
f 119/117/2 117/119/2 120/120/2
f 123/121/1 122/122/1 121/123/1
f 123/121/1 121/123/1 124/124/1
f 127/125/2 126/126/2 125/127/2
f 127/125/2 125/127/2 128/128/2
f 131/129/3 130/130/3 129/131/3
f 131/129/3 129/131/3 132/132/3
f 135/133/3 134/134/3 133/135/3
f 135/133/3 133/135/3 136/136/3
f 139/137/3 138/138/3 137/139/3
f 139/137/3 137/139/3 140/140/3
f 143/141/3 142/142/3 141/143/3
f 143/141/3 141/143/3 144/144/3
f 147/145/3 146/146/3 145/147/3
f 147/145/3 145/147/3 148/148/3
f 151/149/3 150/150/3 149/151/3
f 151/149/3 149/151/3 152/152/3
f 155/153/3 154/154/3 153/155/3
f 155/153/3 153/155/3 156/156/3
f 159/157/3 158/158/3 157/159/3
f 159/157/3 157/159/3 160/160/3
f 163/161/2 162/162/2 161/163/2
f 163/161/2 164/164/2 162/162/2
f 167/165/2 166/166/2 165/167/2
f 167/165/2 168/168/2 166/166/2
f 171/169/1 170/170/1 169/171/1
f 171/169/1 169/171/1 172/172/1
f 175/173/1 174/174/1 173/175/1
f 175/173/1 173/175/1 176/176/1
f 179/177/1 178/178/1 177/179/1
f 179/177/1 177/179/1 180/180/1
f 183/181/2 182/182/2 181/183/2
f 183/181/2 181/183/2 184/184/2
