# Blender v2.93.18 OBJ File: 'Mercedes Actros 2014 new 13.blend'
# www.blender.org
o cab_lights_piece_7
v 35.402935 77.722626 13.104867
v 38.881393 77.761139 15.003135
v 35.839249 78.163200 12.955123
v 38.906933 78.222740 14.746741
v 36.084953 79.704468 13.618263
v 35.703632 79.788139 13.929090
v 35.887711 79.427391 13.425877
v 35.411945 79.369888 13.614274
v 39.128593 80.231087 16.028727
v 38.721111 80.407028 15.869531
v 39.045433 80.087906 15.495937
v 38.816166 80.207245 15.369923
v 39.107510 78.355476 14.943305
v 39.101181 77.969955 15.354735
v 39.214615 78.591988 15.105504
v 39.243683 78.364960 15.660380
v 35.140900 77.941910 13.034974
v 35.662502 78.302299 12.921529
v 36.091415 80.035942 14.237399
v 36.346195 79.871300 13.803995
v 35.620075 78.554146 12.990849
v 35.084232 78.333931 13.125160
v 39.260689 79.847176 16.096479
v 39.178860 79.840363 15.512345
v -35.402935 77.722626 13.104867
v -35.839249 78.163200 12.955123
v -38.881393 77.761139 15.003135
v -38.906933 78.222740 14.746741
v -35.411945 79.369888 13.614274
v -35.703632 79.788139 13.929090
v -35.887711 79.427391 13.425877
v -36.084953 79.704468 13.618263
v -39.128593 80.231087 16.028727
v -39.045433 80.087906 15.495937
v -38.721111 80.407028 15.869531
v -38.816166 80.207245 15.369923
v -39.243683 78.364960 15.660380
v -39.101181 77.969955 15.354735
v -39.214615 78.591988 15.105504
v -39.107510 78.355476 14.943305
v -35.140900 77.941910 13.034974
v -35.662502 78.302299 12.921529
v -36.091415 80.035942 14.237399
v -36.346195 79.871300 13.803995
v -35.084232 78.333931 13.125160
v -35.620075 78.554146 12.990849
v -39.260689 79.847176 16.096479
v -39.178860 79.840363 15.512345
v 36.412357 79.019379 13.538994
v 35.887711 79.427391 13.425877
v 35.620075 78.554146 12.990849
v 35.662502 78.302299 12.921529
v 36.084953 79.704468 13.618263
v 35.839249 78.163200 12.955123
v 36.346195 79.871300 13.803995
v 38.906933 78.222740 14.746741
v 38.543888 79.175911 14.838269
v 38.816166 80.207245 15.369923
v 39.107510 78.355476 14.943305
v 39.045433 80.087906 15.495937
v 39.214615 78.591988 15.105504
v 39.178860 79.840363 15.512345
v -36.412357 79.019379 13.538994
v -35.620075 78.554146 12.990849
v -35.887711 79.427391 13.425877
v -36.084953 79.704468 13.618263
v -35.662502 78.302299 12.921529
v -35.839249 78.163200 12.955123
v -36.346195 79.871300 13.803995
v -38.906933 78.222740 14.746741
v -38.543888 79.175911 14.838269
v -38.816166 80.207245 15.369923
v -39.107510 78.355476 14.943305
v -39.045433 80.087906 15.495937
v -39.214615 78.591988 15.105504
v -39.178860 79.840363 15.512345
v 50.054462 -16.310707 36.356171
v 50.036213 -16.183651 36.260822
v 50.357685 -16.732580 35.606907
v -50.054462 -16.310707 36.356171
v -50.357685 -16.732580 35.606907
v -50.036213 -16.183651 36.260822
v 49.718029 -16.187054 36.255020
v 50.036213 -16.183651 36.260822
v 49.736328 -16.314116 36.350357
v 50.054462 -16.310707 36.356171
v 50.033020 -19.342258 34.503933
v 49.716476 -19.345562 34.497963
v 50.175243 -17.091982 33.474144
v 49.734043 -16.654320 33.273235
v 50.153584 -17.424015 33.072384
v 49.698910 -17.209497 32.652409
v 49.732475 -18.973886 31.990330
v 50.167480 -18.925812 32.567329
v 50.183945 -19.011284 32.652401
v 49.788528 -19.431175 32.246704
v 50.384567 -18.885443 34.316154
v 50.033020 -19.342258 34.503933
v -50.054462 -16.310707 36.356171
v -50.036213 -16.183651 36.260822
v -49.736328 -16.314116 36.350357
v -49.718029 -16.187054 36.255020
v -50.033020 -19.342258 34.503933
v -49.716476 -19.345562 34.497963
v -50.175243 -17.091982 33.474144
v -50.153584 -17.424015 33.072384
v -49.734043 -16.654320 33.273235
v -49.698910 -17.209497 32.652409
v -50.167480 -18.925812 32.567329
v -49.732475 -18.973886 31.990330
v -50.183945 -19.011284 32.652401
v -49.788528 -19.431175 32.246704
v -50.384567 -18.885443 34.316154
v -50.033020 -19.342258 34.503933
v 50.153584 -17.424015 33.072384
v 50.167480 -18.925812 32.567329
v 50.183945 -19.011284 32.652401
v 50.175243 -17.091982 33.474144
v 50.384567 -18.885443 34.316154
v 50.357685 -16.732580 35.606907
v 50.258121 -16.878532 34.425076
v 49.888916 -19.457548 33.139381
v 50.258121 -16.878532 34.425076
v 49.872414 -16.377750 34.674850
v -50.258121 -16.878532 34.425076
v -49.872414 -16.377750 34.674850
v 49.888916 -19.457548 33.139381
v 49.572361 -19.461245 33.131668
v 49.788528 -19.431175 32.246704
v 49.472145 -19.434462 32.240707
v 49.732475 -18.973886 31.990330
v 49.415863 -18.977186 31.984360
v 49.698910 -17.209497 32.652409
v 49.381397 -17.212858 32.646534
v 49.416195 -16.657700 33.267406
v 49.734043 -16.654320 33.273235
v 49.554394 -16.381144 34.669041
v 49.872414 -16.377750 34.674850
v -49.888916 -19.457548 33.139381
v -49.572361 -19.461245 33.131668
v -49.788528 -19.431175 32.246704
v -49.472145 -19.434462 32.240707
v -49.732475 -18.973886 31.990330
v -49.415863 -18.977186 31.984360
v -49.698910 -17.209497 32.652409
v -49.381397 -17.212858 32.646534
v -49.416195 -16.657700 33.267406
v -49.734043 -16.654320 33.273235
v -49.554394 -16.381144 34.669041
v -49.872414 -16.377750 34.674850
v -50.357685 -16.732580 35.606907
v -50.384567 -18.885443 34.316154
v -50.258121 -16.878532 34.425076
v -50.175243 -17.091982 33.474144
v -50.183945 -19.011284 32.652401
v -50.153584 -17.424015 33.072384
v -50.167480 -18.925812 32.567329
v -49.888916 -19.457548 33.139381
vt 1.710938 0.992188
vt 1.863281 0.976562
vt 1.710938 0.976562
vt 1.863281 0.992188
vt 1.640625 0.992188
vt 1.621094 0.976562
vt 1.621094 0.992188
vt 1.640625 0.976562
vt 1.976562 0.992188
vt 1.992188 0.976562
vt 1.976562 0.976562
vt 1.992188 0.992188
vt 1.902344 0.992188
vt 1.882812 0.976562
vt 1.882812 0.992188
vt 1.902344 0.976562
vt 1.695312 0.992188
vt 1.695312 0.976562
vt 1.601562 0.992188
vt 1.601562 0.976562
vt 1.679688 0.976562
vt 1.679688 0.992188
vt 1.960938 0.992188
vt 1.960938 0.976562
vt 1.496094 0.992188
vt 1.496094 0.976562
vt 0.863281 0.976562
vt 0.710938 0.992188
vt 0.710938 0.976562
vt 0.863281 0.992188
vt 0.640625 0.992188
vt 0.621094 0.976562
vt 0.640625 0.976562
vt 0.621094 0.992188
vt 0.992188 0.976562
vt 0.976562 0.992188
vt 0.976562 0.976562
vt 0.992188 0.992188
vt 0.902344 0.992188
vt 0.882812 0.976562
vt 0.902344 0.976562
vt 0.882812 0.992188
vt 0.695312 0.992188
vt 0.695312 0.976562
vt 0.601562 0.992188
vt 0.601562 0.976562
vt 0.679688 0.976562
vt 0.679688 0.992188
vt 0.960938 0.992188
vt 0.960938 0.976562
vt 0.496094 0.992188
vt 0.496094 0.976562
vt 1.718750 0.636719
vt 1.718750 0.714844
vt 1.773438 0.675781
vt 1.726562 0.617188
vt 1.734375 0.738281
vt 1.742188 0.605469
vt 1.753906 0.750000
vt 1.964844 0.605469
vt 1.937500 0.675781
vt 1.957031 0.750000
vt 1.984375 0.613281
vt 1.980469 0.742188
vt 1.992188 0.632812
vt 1.992188 0.722656
vt 0.718750 0.714844
vt 0.718750 0.636719
vt 0.773438 0.675781
vt 0.734375 0.738281
vt 0.726562 0.617188
vt 0.742188 0.605469
vt 0.753906 0.750000
vt 0.964844 0.605469
vt 0.937500 0.675781
vt 0.957031 0.750000
vt 0.984375 0.613281
vt 0.980469 0.742188
vt 0.992188 0.632812
vt 0.992188 0.722656
vt 1.656250 0.621094
vt 1.691406 0.621094
vt 1.691406 0.597656
vt 0.691406 0.621094
vt 0.656250 0.621094
vt 0.691406 0.597656
vt 1.707031 0.597656
vt 1.691406 0.621094
vt 1.707031 0.621094
vt 1.691406 0.597656
vt 1.691406 0.585938
vt 1.531250 0.597656
vt 1.531250 0.585938
vt 1.789062 0.488281
vt 1.753906 0.460938
vt 1.753906 0.488281
vt 1.789062 0.460938
vt 1.878906 0.488281
vt 1.878906 0.460938
vt 1.898438 0.460938
vt 1.898438 0.488281
vt 1.531250 0.597656
vt 1.531250 0.621094
vt 0.707031 0.597656
vt 0.691406 0.621094
vt 0.691406 0.597656
vt 0.707031 0.621094
vt 0.531250 0.597656
vt 0.691406 0.585938
vt 0.531250 0.585938
vt 0.753906 0.460938
vt 0.789062 0.488281
vt 0.753906 0.488281
vt 0.789062 0.460938
vt 0.878906 0.488281
vt 0.878906 0.460938
vt 0.898438 0.460938
vt 0.898438 0.488281
vt 0.531250 0.597656
vt 0.531250 0.621094
vt 1.894531 0.312500
vt 1.882812 0.320312
vt 1.882812 0.414062
vt 1.898438 0.433594
vt 1.992188 0.312500
vt 1.945312 0.433594
vt 1.992188 0.433594
vt 1.941406 0.460938
vt 1.992188 0.488281
vt 1.992188 0.460938
vt 1.691406 0.488281
vt 1.691406 0.460938
vt 1.632812 0.488281
vt 1.613281 0.460938
vt 0.691406 0.488281
vt 0.691406 0.460938
vt 0.632812 0.488281
vt 0.613281 0.460938
vt 1.992188 0.449219
vt 1.941406 0.460938
vt 1.992188 0.460938
vt 1.941406 0.449219
vt 1.898438 0.460938
vt 1.898438 0.449219
vt 1.878906 0.460938
vt 1.878906 0.449219
vt 1.789062 0.460938
vt 1.789062 0.449219
vt 1.753906 0.449219
vt 1.753906 0.460938
vt 1.691406 0.449219
vt 1.691406 0.460938
vt 1.613281 0.449219
vt 1.613281 0.460938
vt 0.992188 0.449219
vt 0.992188 0.460938
vt 0.941406 0.460938
vt 0.941406 0.449219
vt 0.898438 0.460938
vt 0.898438 0.449219
vt 0.878906 0.460938
vt 0.878906 0.449219
vt 0.789062 0.460938
vt 0.789062 0.449219
vt 0.753906 0.449219
vt 0.753906 0.460938
vt 0.691406 0.449219
vt 0.691406 0.460938
vt 0.613281 0.449219
vt 0.613281 0.460938
vt 0.945312 0.433594
vt 0.992188 0.312500
vt 0.992188 0.433594
vt 0.898438 0.433594
vt 0.894531 0.312500
vt 0.882812 0.414062
vt 0.882812 0.320312
vt 0.992188 0.488281
vt 0.941406 0.460938
vt 0.992188 0.460938
vn 0.3956 -0.5318 -0.7488
vn 0.4675 -0.5312 -0.7066
vn 0.3722 -0.5208 -0.7683
vn 0.4615 -0.5327 -0.7094
vn -0.3722 0.5770 -0.7270
vn -0.2781 0.7859 -0.5523
vn -0.2746 0.7900 -0.5482
vn -0.3774 0.5461 -0.7479
vn 0.7222 0.6480 -0.2420
vn 0.1444 0.9328 -0.3302
vn 0.7686 0.5959 -0.2325
vn 0.1183 0.9355 -0.3328
vn 0.9932 -0.0315 -0.1117
vn 0.9104 -0.2988 -0.2862
vn 0.9071 -0.3021 -0.2932
vn 0.9939 -0.0216 -0.1085
vn -0.1848 -0.0418 -0.9819
vn -0.1697 -0.0656 -0.9833
vn 0.0389 0.9333 -0.3570
vn 0.0512 0.9350 -0.3510
vn -0.3657 0.3879 -0.8461
vn -0.3753 0.4395 -0.8161
vn 0.9899 0.0922 -0.1074
vn 0.9887 0.1019 -0.1103
vn -0.4675 -0.5311 -0.7066
vn -0.3956 -0.5318 -0.7488
vn -0.3722 -0.5208 -0.7683
vn -0.4615 -0.5326 -0.7095
vn 0.3722 0.5770 -0.7270
vn 0.2781 0.7859 -0.5523
vn 0.3774 0.5461 -0.7479
vn 0.2746 0.7900 -0.5482
vn -0.1443 0.9328 -0.3302
vn -0.7222 0.6480 -0.2420
vn -0.7686 0.5959 -0.2325
vn -0.1183 0.9355 -0.3328
vn -0.9932 -0.0315 -0.1117
vn -0.9104 -0.2988 -0.2862
vn -0.9939 -0.0216 -0.1085
vn -0.9071 -0.3021 -0.2932
vn 0.1848 -0.0417 -0.9819
vn 0.1697 -0.0656 -0.9833
vn -0.0389 0.9333 -0.3570
vn -0.0511 0.9350 -0.3511
vn 0.3657 0.3879 -0.8461
vn 0.3753 0.4395 -0.8161
vn -0.9899 0.0922 -0.1074
vn -0.9887 0.1019 -0.1103
vn 0.4131 0.3059 -0.8578
vn 0.4180 0.2993 -0.8577
vn 0.4803 0.2722 -0.8338
vn 0.4109 0.3089 -0.8577
vn 0.4181 0.2991 -0.8578
vn 0.4750 0.2637 -0.8395
vn 0.4784 0.2963 -0.8266
vn 0.4937 0.2586 -0.8303
vn 0.4907 0.2764 -0.8263
vn 0.4960 0.2895 -0.8186
vn 0.5618 0.2866 -0.7760
vn 0.5655 0.2547 -0.7844
vn 0.5563 0.2793 -0.7827
vn 0.5599 0.2619 -0.7860
vn -0.4179 0.2992 -0.8578
vn -0.4130 0.3060 -0.8578
vn -0.4803 0.2722 -0.8338
vn -0.4178 0.2990 -0.8579
vn -0.4110 0.3088 -0.8577
vn -0.4750 0.2638 -0.8395
vn -0.4784 0.2963 -0.8266
vn -0.4937 0.2586 -0.8303
vn -0.4907 0.2764 -0.8263
vn -0.4960 0.2895 -0.8186
vn -0.5618 0.2866 -0.7760
vn -0.5655 0.2547 -0.7844
vn -0.5563 0.2793 -0.7827
vn -0.5600 0.2619 -0.7860
vn 0.9319 0.0062 0.3626
vn 0.7951 0.5983 -0.0991
vn 0.8155 -0.2671 0.5135
vn -0.7951 0.5983 -0.0991
vn -0.9320 0.0062 0.3625
vn -0.8155 -0.2671 0.5135
vn -0.0111 -0.4840 0.8750
vn -0.0102 0.9996 -0.0260
vn -0.0098 0.9987 -0.0498
vn -0.0111 -0.4881 0.8727
vn -0.0058 -0.7013 0.7128
vn -0.0050 -0.7270 0.6866
vn 0.7416 0.3194 -0.5899
vn 0.7300 0.6078 -0.3125
vn 0.7302 0.6098 -0.3082
vn 0.7426 0.3046 -0.5964
vn 0.7670 0.1508 -0.6237
vn 0.7637 0.1646 -0.6242
vn 0.8213 -0.4253 -0.3802
vn 0.8180 -0.5490 -0.1716
vn 0.8309 -0.4663 0.3034
vn 0.8246 -0.4341 0.3627
vn 0.0111 -0.4840 0.8750
vn 0.0102 0.9996 -0.0260
vn 0.0111 -0.4881 0.8727
vn 0.0098 0.9987 -0.0498
vn 0.0058 -0.7013 0.7128
vn 0.0050 -0.7270 0.6866
vn -0.7300 0.6078 -0.3125
vn -0.7416 0.3194 -0.5899
vn -0.7302 0.6098 -0.3082
vn -0.7426 0.3046 -0.5964
vn -0.7670 0.1508 -0.6237
vn -0.7637 0.1646 -0.6242
vn -0.8213 -0.4253 -0.3802
vn -0.8180 -0.5490 -0.1716
vn -0.8309 -0.4663 0.3034
vn -0.8246 -0.4341 0.3627
vn 0.9913 0.0553 -0.1195
vn 0.9938 0.0457 -0.1010
vn 0.9924 0.0639 -0.1049
vn 0.9920 0.0629 -0.1093
vn 0.9931 0.0678 -0.0962
vn 0.9930 0.0678 -0.0964
vn 0.7947 -0.6050 -0.0490
vn 0.7396 0.6475 -0.1834
vn 0.7469 0.6433 -0.1682
vn -0.7396 0.6475 -0.1834
vn -0.7469 0.6433 -0.1682
vn 0.0101 -0.9990 0.0428
vn 0.0103 -0.9994 0.0336
vn 0.0170 -0.9346 -0.3553
vn 0.0180 -0.9039 -0.4273
vn 0.0166 0.1707 -0.9852
vn 0.0160 0.1907 -0.9815
vn 0.0111 0.4876 -0.8730
vn 0.0112 0.4806 -0.8769
vn -0.0025 0.9192 -0.3938
vn -0.0032 0.9302 -0.3670
vn -0.0076 0.9875 -0.1576
vn -0.0078 0.9883 -0.1522
vn -0.0101 -0.9990 0.0428
vn -0.0103 -0.9994 0.0336
vn -0.0170 -0.9346 -0.3553
vn -0.0180 -0.9039 -0.4273
vn -0.0164 0.1707 -0.9852
vn -0.0164 0.1907 -0.9815
vn -0.0111 0.4876 -0.8730
vn -0.0113 0.4806 -0.8769
vn 0.0025 0.9192 -0.3938
vn 0.0032 0.9302 -0.3670
vn 0.0076 0.9875 -0.1576
vn 0.0078 0.9883 -0.1522
vn -0.9931 0.0678 -0.0962
vn -0.9920 0.0630 -0.1093
vn -0.9930 0.0678 -0.0964
vn -0.9924 0.0639 -0.1049
vn -0.9913 0.0553 -0.1195
vn -0.9938 0.0457 -0.1010
vn -0.7947 -0.6050 -0.0490
s 1
f 3/1/1 2/2/2 1/3/3
f 3/1/1 4/4/4 2/2/2
f 7/5/5 6/6/6 5/7/7
f 7/5/5 8/8/8 6/6/6
f 11/9/9 10/10/10 9/11/11
f 11/9/9 12/12/12 10/10/10
f 15/13/13 14/14/14 13/15/15
f 15/13/13 16/16/16 14/14/14
f 18/17/17 1/3/3 17/18/18
f 18/17/17 3/1/1 1/3/3
f 20/19/19 6/6/6 19/20/20
f 20/19/19 5/7/7 6/6/6
f 18/17/17 22/21/21 21/22/22
f 18/17/17 17/18/18 22/21/21
f 13/15/15 2/2/2 4/4/4
f 13/15/15 14/14/14 2/2/2
f 24/23/23 9/11/11 23/24/24
f 24/23/23 11/9/9 9/11/11
f 16/16/16 24/23/23 23/24/24
f 16/16/16 15/13/13 24/23/23
f 8/8/8 21/22/22 22/21/21
f 8/8/8 7/5/5 21/22/22
f 12/25/12 19/20/20 10/26/10
f 12/25/12 20/19/19 19/20/20
f 27/27/25 26/28/26 25/29/27
f 27/27/25 28/30/28 26/28/26
f 31/31/29 30/32/30 29/33/31
f 31/31/29 32/34/32 30/32/30
f 35/35/33 34/36/34 33/37/35
f 35/35/33 36/38/36 34/36/34
f 39/39/37 38/40/38 37/41/39
f 39/39/37 40/42/40 38/40/38
f 25/29/27 42/43/41 41/44/42
f 25/29/27 26/28/26 42/43/41
f 30/32/30 44/45/43 43/46/44
f 30/32/30 32/34/32 44/45/43
f 42/43/41 45/47/45 41/44/42
f 42/43/41 46/48/46 45/47/45
f 40/42/40 27/27/25 38/40/38
f 40/42/40 28/30/28 27/27/25
f 33/37/35 48/49/47 47/50/48
f 33/37/35 34/36/34 48/49/47
f 48/49/47 37/41/39 47/50/48
f 48/49/47 39/39/37 37/41/39
f 46/48/46 29/33/31 45/47/45
f 46/48/46 31/31/29 29/33/31
f 43/46/44 36/51/36 35/52/33
f 43/46/44 44/45/43 36/51/36
f 51/53/49 50/54/50 49/55/51
f 51/53/49 49/55/51 52/56/52
f 50/54/50 53/57/53 49/55/51
f 52/56/52 49/55/51 54/58/54
f 49/55/51 53/57/53 55/59/55
f 56/60/56 54/58/54 49/55/51
f 55/59/55 57/61/57 49/55/51
f 56/60/56 49/55/51 57/61/57
f 55/59/55 58/62/58 57/61/57
f 57/61/57 59/63/59 56/60/56
f 60/64/60 57/61/57 58/62/58
f 61/65/61 59/63/59 57/61/57
f 60/64/60 62/66/62 57/61/57
f 61/65/61 57/61/57 62/66/62
f 65/67/63 64/68/64 63/69/65
f 66/70/66 65/67/63 63/69/65
f 64/68/64 67/71/67 63/69/65
f 63/69/65 67/71/67 68/72/68
f 66/70/66 63/69/65 69/73/69
f 63/69/65 68/72/68 70/74/70
f 71/75/71 69/73/69 63/69/65
f 63/69/65 70/74/70 71/75/71
f 71/75/71 72/76/72 69/73/69
f 73/77/73 71/75/71 70/74/70
f 71/75/71 74/78/74 72/76/72
f 73/77/73 75/79/75 71/75/71
f 76/80/76 74/78/74 71/75/71
f 71/75/71 75/79/75 76/80/76
f 79/81/77 78/82/78 77/83/79
f 82/84/80 81/85/81 80/86/82
f 85/87/83 84/88/84 83/89/85
f 85/87/83 86/90/86 84/88/84
f 85/91/83 87/92/87 86/90/86
f 85/91/83 88/93/88 87/92/87
f 91/94/89 90/95/90 89/96/91
f 91/94/89 92/97/92 90/95/90
f 92/97/92 94/98/93 93/99/94
f 92/97/92 91/94/89 94/98/93
f 96/100/95 94/98/93 95/101/96
f 96/100/95 93/99/94 94/98/93
f 79/81/77 98/102/97 97/103/98
f 79/81/77 77/83/79 98/102/97
f 101/104/99 100/105/100 99/106/101
f 101/104/99 102/107/102 100/105/100
f 103/108/103 101/109/99 99/106/101
f 103/108/103 104/110/104 101/109/99
f 107/111/105 106/112/106 105/113/107
f 107/111/105 108/114/108 106/112/106
f 108/114/108 109/115/109 106/112/106
f 108/114/108 110/116/110 109/115/109
f 109/115/109 112/117/111 111/118/112
f 109/115/109 110/116/110 112/117/111
f 114/119/113 81/85/81 113/120/114
f 114/119/113 80/86/82 81/85/81
f 117/121/115 116/122/116 115/123/116
f 117/121/115 115/123/116 118/124/117
f 118/124/117 119/125/118 117/121/115
f 121/126/119 120/127/120 119/125/118
f 121/126/119 119/125/118 118/124/117
f 122/128/121 97/129/98 98/130/97
f 122/128/121 95/101/96 97/129/98
f 122/128/121 96/100/95 95/101/96
f 123/131/122 89/96/91 90/95/90
f 123/131/122 90/95/90 124/132/123
f 79/133/77 123/131/122 124/132/123
f 79/133/77 124/132/123 78/134/78
f 125/135/124 107/111/105 105/113/107
f 125/135/124 126/136/125 107/111/105
f 81/137/81 126/136/125 125/135/124
f 81/137/81 82/138/80 126/136/125
f 88/139/88 127/140/126 87/141/87
f 88/139/88 128/142/127 127/140/126
f 128/142/127 129/143/128 127/140/126
f 128/142/127 130/144/129 129/143/128
f 130/144/129 131/145/130 129/143/128
f 130/144/129 132/146/131 131/145/130
f 132/146/131 133/147/132 131/145/130
f 132/146/131 134/148/133 133/147/132
f 135/149/134 133/147/132 134/148/133
f 135/149/134 136/150/135 133/147/132
f 137/151/136 136/150/135 135/149/134
f 137/151/136 138/152/137 136/150/135
f 83/153/85 138/152/137 137/151/136
f 83/153/85 84/154/84 138/152/137
f 104/155/104 103/156/103 139/157/138
f 104/155/104 139/157/138 140/158/139
f 141/159/140 140/158/139 139/157/138
f 141/159/140 142/160/141 140/158/139
f 143/161/142 142/160/141 141/159/140
f 143/161/142 144/162/143 142/160/141
f 144/162/143 143/161/142 145/163/144
f 144/162/143 145/163/144 146/164/145
f 147/165/146 146/164/145 145/163/144
f 147/165/146 145/163/144 148/166/147
f 149/167/148 147/165/146 148/166/147
f 149/167/148 148/166/147 150/168/149
f 102/169/102 149/167/148 150/168/149
f 102/169/102 150/168/149 100/170/100
f 153/171/150 152/172/151 151/173/152
f 153/171/150 154/174/153 152/172/151
f 152/172/151 154/174/153 155/175/154
f 156/176/155 155/175/154 154/174/153
f 156/176/155 157/177/155 155/175/154
f 113/178/114 158/179/156 114/180/113
f 113/178/114 111/118/112 158/179/156
f 112/117/111 158/179/156 111/118/112
