# Blender v2.93.18 OBJ File: 'Mercedes Actros 2014 new 14.blend'
# www.blender.org
o cab_interior_dash_labels_st_piece_9.310
v -36.424713 32.246635 25.546968
v -37.237556 32.514668 25.548845
v -36.716660 32.729347 25.327820
v -36.945606 32.031944 25.767994
v -35.178841 32.889442 24.882849
v -35.056011 32.630249 24.940624
v -34.933483 32.975864 24.748913
v -34.810654 32.716663 24.806677
v -34.341000 32.996815 24.636679
v -35.142960 33.262066 24.630154
v -34.638889 33.434387 24.359982
v -34.845066 32.824493 24.906851
v -36.301643 32.450535 25.429342
v -36.423164 32.633789 25.311571
v -36.518551 32.361156 25.514086
v -36.640072 32.544399 25.396303
v -35.262680 33.077068 24.845913
v -35.143070 32.817642 24.909187
v -35.014423 33.159576 24.714888
v -34.894810 32.900150 24.778162
v -35.875839 33.497032 24.579655
v -36.050198 33.044460 24.944445
v -36.251865 33.359341 24.733913
v -35.674175 33.182152 24.790186
v -34.981339 33.058258 24.729258
v -35.229572 32.975807 24.860369
v -35.125008 33.273350 24.592514
v -35.373238 33.190899 24.723625
v -35.318481 32.560593 25.084595
v -35.102913 32.651688 24.998295
v -35.233681 32.328388 25.051291
v -35.018112 32.419483 24.964991
v -20.802717 35.001423 22.906092
v -20.551151 35.023716 22.889467
v -20.523500 34.839458 23.060772
v -20.775072 34.817173 23.077396
v -21.054289 34.979137 22.922724
v -21.026642 34.794880 23.094019
v -19.048985 34.543667 23.332701
v -19.363998 34.731022 23.173561
v -19.083700 34.751625 23.144604
v -19.329281 34.523075 23.361668
v -19.644297 34.710419 23.202518
v -19.609579 34.502480 23.390625
v -19.924583 34.689827 23.231485
v -19.889868 34.481876 23.419592
v -21.499382 34.458618 23.390314
v -21.251719 34.491619 23.373053
v -21.214520 34.278431 23.499115
v -21.462185 34.245430 23.516386
v -21.258104 34.490475 23.367083
v -21.534220 34.636341 23.199955
v -21.286850 34.675457 23.200716
v -21.505476 34.451351 23.366323
v -23.052589 34.412838 23.352787
v -22.488941 34.466125 23.312134
v -22.421926 34.018837 23.655119
v -22.985569 33.965561 23.695772
v -21.433390 34.024986 23.598349
v -21.460215 34.251663 23.495275
v -21.184973 34.056496 23.603004
v -21.211802 34.283184 23.499922
v -20.857058 34.102745 23.619543
v -21.104889 34.083363 23.640043
v -20.881643 34.340000 23.546572
v -21.129475 34.320614 23.567072
vt 0.687499 0.625000
vt 0.687499 0.562500
vt 0.749999 0.562500
vt 0.749999 0.625000
vt 0.125000 0.812500
vt 0.187500 0.750000
vt 0.187500 0.812500
vt 0.125000 0.750000
vt 0.624999 0.625000
vt 0.624999 0.562500
vt 0.687499 0.562500
vt 0.687499 0.625000
vt 0.437500 0.999999
vt 0.500000 0.937499
vt 0.500000 0.999999
vt 0.437500 0.937499
vt 0.125000 0.812500
vt 0.187500 0.750000
vt 0.187500 0.812500
vt 0.125000 0.750000
vt 0.687499 0.625000
vt 0.624999 0.625000
vt 0.625000 0.687500
vt 0.687499 0.687500
vt 0.125000 0.812500
vt 0.125000 0.750000
vt 0.187500 0.750000
vt 0.187500 0.812500
vt 0.437500 0.999999
vt 0.437500 0.937499
vt 0.500000 0.937499
vt 0.500000 0.999999
vt 0.500000 0.625000
vt 0.562500 0.562500
vt 0.562500 0.625000
vt 0.500000 0.562500
vt 0.437500 0.625000
vt 0.437500 0.562500
vt 0.562500 0.687500
vt 0.562500 0.625000
vt 0.624999 0.625000
vt 0.625000 0.687500
vt 0.500000 0.687500
vt 0.500000 0.625000
vt 0.437500 0.687500
vt 0.437500 0.625000
vt 0.874999 0.750000
vt 0.937499 0.687500
vt 0.937499 0.750000
vt 0.874999 0.687500
vt 0.812499 0.750000
vt 0.812499 0.687500
vt 0.874999 0.687500
vt 0.874999 0.750000
vt 0.937499 0.812499
vt 0.999998 0.750000
vt 0.999998 0.812499
vt 0.937499 0.750000
vt 0.937499 0.750000
vt 0.937499 0.687500
vt 0.999999 0.687500
vt 0.999998 0.750000
vt 0.437500 0.999999
vt 0.437500 0.937499
vt 0.500000 0.937499
vt 0.500000 0.999999
vn 0.1628 0.4878 0.8576
vn 0.3472 0.3577 0.8669
vn 0.3472 0.3578 0.8669
vn 0.3473 0.3577 0.8669
vn 0.1977 0.6165 0.7621
vn 0.0804 0.5761 0.8134
vn 0.0803 0.5761 0.8134
vn 0.3361 0.3665 0.8676
vn 0.3360 0.3666 0.8676
vn 0.1064 0.5988 0.7938
vn 0.1063 0.5988 0.7938
vn 0.1977 0.6166 0.7621
vn 0.3708 0.0022 0.9287
vn 0.3709 0.0022 0.9287
vn -0.0118 0.6799 0.7332
vn 0.0269 0.6731 0.7391
vn 0.0269 0.6730 0.7391
vn -0.0076 0.5080 0.8613
vn -0.0077 0.5080 0.8613
vn -0.1060 0.6558 0.7475
vn -0.0003 0.6085 0.7936
vn -0.0686 0.4062 0.9112
vn 0.0554 0.2988 0.9527
s 1
f 2/1/1 4/2/1 1/3/1
f 2/1/1 1/3/1 3/4/1
f 6/5/2 7/6/2 5/7/3
f 6/5/2 8/8/4 7/6/2
f 10/9/5 12/10/5 9/11/5
f 10/9/5 9/11/5 11/12/5
f 14/13/6 15/14/6 13/15/6
f 14/13/6 16/16/7 15/14/6
f 18/17/8 19/18/8 17/19/9
f 18/17/8 20/20/8 19/18/8
f 22/21/10 24/22/10 21/23/10
f 22/21/10 21/23/10 23/24/11
f 26/25/12 25/26/12 27/27/12
f 26/25/12 27/27/12 28/28/12
f 30/29/13 29/30/14 31/31/13
f 30/29/13 31/31/13 32/32/13
f 33/33/15 35/34/15 34/35/15
f 33/33/15 36/36/15 35/34/15
f 37/37/15 36/36/15 33/33/15
f 37/37/15 38/38/15 36/36/15
f 40/39/16 42/40/16 39/41/17
f 40/39/16 39/41/17 41/42/17
f 43/43/16 44/44/16 42/40/16
f 43/43/16 42/40/16 40/39/16
f 45/45/16 44/44/16 43/43/16
f 45/45/16 46/46/16 44/44/16
f 47/47/18 49/48/18 48/49/19
f 47/47/18 50/50/18 49/48/18
f 52/51/20 54/52/20 51/53/20
f 52/51/20 51/53/20 53/54/20
f 55/55/21 57/56/21 56/57/21
f 55/55/21 58/58/21 57/56/21
f 60/59/22 59/60/22 61/61/22
f 60/59/22 61/61/22 62/62/22
f 64/63/23 63/64/23 65/65/23
f 64/63/23 65/65/23 66/66/23
