# Blender v2.93.18 OBJ File: 'Fiat fiorino 8.blend'
# www.blender.org
mtllib Fiat fiorino taillights.mtl
o taillights_lanterna
v 24.228804 -2.861833 71.569748
v 23.969234 -2.861833 71.569748
v 23.734476 -2.861834 71.569733
v 25.516315 8.764311 72.336479
v 27.138605 8.815142 72.335815
v 27.620647 8.891308 72.334816
v 28.471527 8.901658 71.673584
v 23.935619 2.275557 72.026825
v 23.447598 -2.862127 71.547539
v -23.798773 -2.861833 71.569748
v -23.564007 -2.861834 71.569733
v -23.316225 -2.862130 71.547310
v -24.585243 7.417308 72.332001
v -27.950087 8.892011 72.160004
v -28.878544 8.889897 70.090019
v -25.411732 8.753249 72.336632
v -26.758791 8.804229 72.335953
v -26.881777 8.804076 72.335945
v -27.580521 8.880244 72.334953
v -25.152155 8.642862 72.338081
v -24.917381 8.454476 72.340538
v -24.769672 8.225270 72.334404
v -24.678375 7.955919 72.324677
v -28.431438 8.890595 71.673744
v -26.758795 5.327001 72.260330
v -25.017296 5.327001 72.260330
v -27.871517 5.327001 72.260330
v -26.881781 5.327001 72.260330
v -24.757711 5.327001 72.260330
v -24.522945 5.327002 72.260315
v -24.366461 5.326879 72.251160
v -24.275162 5.326706 72.237892
v -28.241083 5.324697 72.085556
v -28.722435 5.318285 71.599373
v -29.002043 5.311115 71.055450
v -29.169544 5.301807 70.349342
v -24.236050 5.326707 72.238113
v -26.758795 2.275850 72.049042
v -24.546400 2.275850 72.049042
v -28.079369 2.275850 72.049042
v -26.881781 2.275850 72.049042
v -24.286819 2.275850 72.049042
v -24.052050 2.275850 72.049026
v -23.895569 2.275730 72.039871
v -23.804270 2.275554 72.026604
v -28.448935 2.273546 71.874290
v -28.930292 2.267136 71.388084
v -29.209896 2.259964 70.844177
v -29.377399 2.254511 70.430443
v -23.765158 2.275557 72.026825
v -26.708767 -1.085142 71.720413
v -24.058357 -1.085142 71.720413
v -28.011883 -1.085142 71.720413
v -26.831755 -1.085142 71.720413
v -23.798773 -1.085142 71.720413
v -23.564007 -1.085142 71.720398
v -23.407522 -1.085262 71.711235
v -23.316225 -1.085438 71.697960
v -28.381445 -1.087445 71.545609
v -28.862801 -1.093855 71.059433
v -29.142405 -1.101026 70.515503
v -29.309906 -1.105060 70.209618
v -23.277113 -1.085435 71.698189
v -26.708767 -2.861833 71.569748
v -23.407522 -2.861954 71.560608
v -28.172140 -2.864138 71.395004
v -23.277113 -2.862127 71.547539
v -24.058357 -2.861833 71.569748
v -27.802578 -2.861833 71.569748
v -26.831755 -2.861833 71.569748
v -28.653496 -2.870549 70.908821
v -28.933100 -2.877719 70.364906
v -29.100605 -2.881338 70.090279
v -28.711044 8.903604 71.129547
v 27.015623 8.815296 72.335800
v 25.256748 8.653929 72.337921
v 25.021990 8.465543 72.340370
v 24.865513 8.236337 72.334259
v 24.774220 7.966985 72.324516
v 24.681091 7.428373 72.331863
v 27.990194 8.903077 72.159851
v 28.751123 8.914666 71.129410
v 28.918615 8.900962 70.089890
v 27.015623 5.327001 72.260330
v 25.187700 5.327001 72.260330
v 27.911633 5.327001 72.260330
v 27.138605 5.327001 72.260330
v 24.928133 5.327001 72.260330
v 24.693375 5.327002 72.260315
v 24.536898 5.326879 72.251160
v 24.445604 5.326706 72.237892
v 28.281178 5.324697 72.085556
v 28.762510 5.318285 71.599373
v 29.042103 5.311115 71.055450
v 29.209599 5.301807 70.349342
v 24.406492 5.326707 72.238113
v 27.015623 2.275850 72.049042
v 24.716829 2.275850 72.049042
v 28.119473 2.275850 72.049042
v 27.138605 2.275850 72.049042
v 24.457260 2.275850 72.049042
v 24.222500 2.275850 72.049026
v 24.066027 2.275730 72.039871
v 23.974728 2.275554 72.026604
v 28.489021 2.273546 71.874290
v 28.970360 2.267136 71.388084
v 29.249950 2.259964 70.844177
v 29.417442 2.254511 70.430443
v 26.965599 -1.085142 71.720413
v 24.228804 -1.085142 71.720413
v 28.051987 -1.085142 71.720413
v 27.088583 -1.085142 71.720413
v 23.969234 -1.085142 71.720413
v 23.734476 -1.085142 71.720398
v 23.577999 -1.085262 71.711235
v 23.486706 -1.085438 71.697960
v 28.421535 -1.087445 71.545609
v 28.902868 -1.093855 71.059433
v 29.182465 -1.101026 70.515503
v 29.349957 -1.105060 70.209618
v 23.447598 -1.085435 71.698189
v 26.965599 -2.861833 71.569748
v 27.842693 -2.861833 71.569748
v 27.088583 -2.861833 71.569748
v 23.577999 -2.861954 71.560608
v 23.486706 -2.862130 71.547310
v 28.212238 -2.864138 71.395004
v 29.140663 -2.881338 70.090279
v 28.693577 -2.870549 70.908821
v 28.973167 -2.877719 70.364906
v -29.169544 5.301807 70.349342
v -28.711044 8.903604 71.129547
vt 0.295207 0.941409
vt 0.287028 0.811777
vt 0.344194 0.932002
vt 0.350488 0.809078
vt 0.266245 0.944099
vt 0.246481 0.813501
vt 0.290725 0.941595
vt 0.282547 0.811967
vt 0.353438 0.927930
vt 0.359947 0.808676
vt 0.361625 0.921303
vt 0.368502 0.808312
vt 0.367676 0.910413
vt 0.374098 0.808076
vt 0.369104 0.895840
vt 0.377272 0.807944
vt 0.247454 0.945265
vt 0.230996 0.814200
vt 0.224867 0.941528
vt 0.207843 0.815297
vt 0.210382 0.934969
vt 0.191375 0.816124
vt 0.177119 0.816894
vt 0.371450 0.877788
vt 0.378700 0.807883
vt 0.278182 0.710629
vt 0.358801 0.707201
vt 0.230061 0.712676
vt 0.273701 0.710820
vt 0.368260 0.706798
vt 0.376815 0.706435
vt 0.382411 0.706199
vt 0.385585 0.706067
vt 0.214577 0.713375
vt 0.191423 0.714472
vt 0.174955 0.715298
vt 0.164075 0.715857
vt 0.387013 0.706006
vt 0.269157 0.599244
vt 0.365737 0.595137
vt 0.221672 0.601263
vt 0.264675 0.599434
vt 0.375196 0.594734
vt 0.383751 0.594370
vt 0.389347 0.594135
vt 0.392521 0.594003
vt 0.206187 0.601962
vt 0.183034 0.603060
vt 0.166566 0.603886
vt 0.156931 0.604367
vt 0.393949 0.593942
vt 0.263688 0.540377
vt 0.360268 0.536270
vt 0.223830 0.542072
vt 0.259206 0.540568
vt 0.369727 0.535868
vt 0.378282 0.535504
vt 0.383878 0.535268
vt 0.387052 0.535136
vt 0.208346 0.542771
vt 0.185192 0.543869
vt 0.168724 0.544695
vt 0.159450 0.545153
vt 0.388480 0.535075
vt 0.190889 0.931257
vt 0.177119 0.816894
vt 0.210382 0.934969
vt 0.724757 0.827766
vt 0.796267 0.828064
vt 0.725188 0.947501
vt 0.785353 0.952856
vt 0.800244 0.828373
vt 0.825241 0.830318
vt 0.791684 0.952866
vt 0.805314 0.952892
vt 0.716363 0.827113
vt 0.717073 0.943026
vt 0.708772 0.826522
vt 0.709959 0.935912
vt 0.703825 0.826133
vt 0.705591 0.927590
vt 0.701037 0.825910
vt 0.703485 0.918046
vt 0.839356 0.831336
vt 0.819393 0.954397
vt 0.860942 0.832792
vt 0.840967 0.953673
vt 0.876719 0.833769
vt 0.859341 0.948877
vt 0.901339 0.834546
vt 0.884717 0.936469
vt 0.699770 0.825812
vt 0.701833 0.899161
vt 0.720356 0.721169
vt 0.807092 0.722652
vt 0.811069 0.722961
vt 0.842788 0.725429
vt 0.711962 0.720516
vt 0.704370 0.719926
vt 0.699424 0.719537
vt 0.696636 0.719314
vt 0.856902 0.726446
vt 0.878489 0.727902
vt 0.894266 0.728880
vt 0.916215 0.729510
vt 0.695368 0.719215
vt 0.717682 0.603917
vt 0.818583 0.606501
vt 0.822560 0.606811
vt 0.853714 0.609234
vt 0.709289 0.603264
vt 0.701697 0.602673
vt 0.696751 0.602284
vt 0.693963 0.602061
vt 0.867829 0.610252
vt 0.889415 0.611708
vt 0.905192 0.612686
vt 0.914397 0.613261
vt 0.692695 0.601963
vt 0.724327 0.542562
vt 0.825227 0.545146
vt 0.829204 0.545456
vt 0.853590 0.547353
vt 0.715933 0.541909
vt 0.708342 0.541318
vt 0.703395 0.540929
vt 0.700607 0.540706
vt 0.867705 0.548370
vt 0.889291 0.549827
vt 0.905068 0.550804
vt 0.911004 0.552805
vt 0.699340 0.540608
vn -0.0006 -0.0217 0.9998
vn -0.0001 -0.0455 0.9990
vn -0.0066 -0.0227 0.9997
vn -0.0002 -0.0460 0.9989
vn -0.2189 -0.0026 0.9757
vn -0.2194 -0.0275 0.9752
vn -0.0016 -0.0213 0.9998
vn 0.0000 -0.0454 0.9990
vn -0.0199 -0.0249 0.9995
vn -0.0003 -0.0469 0.9989
vn -0.0260 -0.0269 0.9993
vn 0.0286 -0.0439 0.9986
vn 0.0054 -0.0251 0.9997
vn 0.1005 -0.0345 0.9943
vn 0.0227 -0.0258 0.9994
vn 0.0674 -0.0439 0.9967
vn -0.5716 0.0295 0.8199
vn -0.5771 0.0063 0.8166
vn -0.8049 0.0531 0.5910
vn -0.8082 0.0338 0.5878
vn -0.8988 0.0638 0.4337
vn -0.9349 0.0585 0.3500
vn -0.9706 0.0730 0.2293
vn -0.9092 -0.1523 0.3874
vn -0.0056 -0.0591 0.9982
vn 0.0000 -0.0832 0.9965
vn -0.2238 -0.0752 0.9717
vn 0.0292 -0.0788 0.9965
vn 0.1009 -0.0677 0.9926
vn 0.0687 -0.0728 0.9950
vn -0.5793 -0.0534 0.8133
vn -0.8097 -0.0291 0.5860
vn -0.9082 -0.0104 0.4183
vn -0.9310 -0.0014 0.3650
vn -0.0059 -0.0854 0.9963
vn 0.0000 -0.0909 0.9958
vn -0.2239 -0.1041 0.9690
vn 0.0305 -0.0886 0.9956
vn 0.1028 -0.0829 0.9912
vn 0.0657 -0.0862 0.9941
vn -0.5773 -0.1132 0.8086
vn -0.8060 -0.1080 0.5820
vn -0.8775 -0.1013 0.4688
vn -0.8745 -0.0995 0.4746
vn -0.0055 -0.0910 0.9958
vn 0.0000 -0.0845 0.9964
vn -0.2046 -0.1066 0.9730
vn 0.0291 -0.0844 0.9960
vn 0.1010 -0.0840 0.9913
vn 0.0687 -0.0843 0.9940
vn -0.5680 -0.1357 0.8117
vn -0.8007 -0.1436 0.5816
vn -0.8621 -0.1428 0.4862
vn -0.8472 -0.1422 0.5119
vn -0.0059 -0.0845 0.9964
vn -0.9833 0.0911 0.1572
vn 0.0002 -0.0459 0.9989
vn 0.0001 -0.0454 0.9990
vn 0.0066 -0.0225 0.9997
vn 0.0005 -0.0216 0.9998
vn 0.2194 -0.0275 0.9752
vn 0.0023 -0.0211 0.9998
vn 0.2232 -0.0021 0.9748
vn 0.0003 -0.0468 0.9989
vn 0.0197 -0.0244 0.9995
vn -0.0284 -0.0443 0.9986
vn 0.0250 -0.0262 0.9993
vn -0.1001 -0.0360 0.9943
vn -0.0053 -0.0252 0.9997
vn -0.0682 -0.0444 0.9967
vn -0.0190 -0.0266 0.9995
vn 0.5771 0.0063 0.8166
vn 0.5717 0.0294 0.8199
vn 0.8083 0.0337 0.5878
vn 0.8050 0.0530 0.5909
vn 0.9349 0.0584 0.3500
vn 0.9445 0.0760 0.3194
vn 0.9720 0.0746 0.2228
vn 0.9834 0.0908 0.1572
vn 0.0054 -0.0587 0.9982
vn 0.6851 -0.1089 0.7202
vn 0.2238 -0.0752 0.9717
vn -0.0292 -0.0788 0.9965
vn -0.1009 -0.0677 0.9926
vn -0.0687 -0.0728 0.9950
vn 0.5793 -0.0534 0.8133
vn 0.8098 -0.0291 0.5860
vn 0.9082 -0.0104 0.4183
vn 0.9310 -0.0014 0.3650
vn 0.0060 -0.0854 0.9963
vn 0.2239 -0.1041 0.9690
vn -0.0305 -0.0886 0.9956
vn -0.1028 -0.0829 0.9912
vn -0.0657 -0.0862 0.9941
vn 0.5773 -0.1132 0.8086
vn 0.8060 -0.1080 0.5820
vn 0.8775 -0.1013 0.4687
vn 0.8745 -0.0995 0.4746
vn 0.0055 -0.0910 0.9958
vn 0.2047 -0.1066 0.9730
vn -0.0291 -0.0844 0.9960
vn -0.1011 -0.0840 0.9913
vn -0.0687 -0.0843 0.9940
vn 0.5680 -0.1357 0.8117
vn 0.8007 -0.1436 0.5816
vn 0.8621 -0.1428 0.4862
vn 0.8472 -0.1422 0.5119
vn 0.0059 -0.0845 0.9964
usemtl lanterna.1
s 1
f 17/1/1 25/2/2 16/3/3
f 25/2/2 26/4/4 16/3/3
f 19/5/5 27/6/6 18/7/7
f 27/6/6 28/8/8 18/7/7
f 16/3/3 26/4/4 20/9/9
f 26/4/4 29/10/10 20/9/9
f 20/9/9 29/10/10 21/11/11
f 29/10/10 30/12/12 21/11/11
f 21/11/11 30/12/12 22/13/13
f 30/12/12 31/14/14 22/13/13
f 22/13/13 31/14/14 23/15/15
f 31/14/14 32/16/16 23/15/15
f 18/7/7 28/8/8 17/1/1
f 28/8/8 25/2/2 17/1/1
f 14/17/17 33/18/18 19/5/5
f 33/18/18 27/6/6 19/5/5
f 24/19/19 34/20/20 14/17/17
f 34/20/20 33/18/18 14/17/17
f 132/21/21 35/22/22 24/19/19
f 35/22/22 34/20/20 24/19/19
f 131/23/23 35/22/22 132/21/21
f 23/15/15 32/16/16 13/24/24
f 32/16/16 37/25/25 13/24/24
f 25/2/2 38/26/26 26/4/4
f 38/26/26 39/27/26 26/4/4
f 27/6/6 40/28/27 28/8/8
f 40/28/27 41/29/26 28/8/8
f 26/4/4 39/27/26 29/10/10
f 39/27/26 42/30/26 29/10/10
f 29/10/10 42/30/26 30/12/12
f 42/30/26 43/31/28 30/12/12
f 30/12/12 43/31/28 31/14/14
f 43/31/28 44/32/29 31/14/14
f 31/14/14 44/32/29 32/16/16
f 44/32/29 45/33/30 32/16/16
f 28/8/8 41/29/26 25/2/2
f 41/29/26 38/26/26 25/2/2
f 33/18/18 46/34/31 27/6/6
f 46/34/31 40/28/27 27/6/6
f 34/20/20 47/35/32 33/18/18
f 47/35/32 46/34/31 33/18/18
f 35/22/22 48/36/33 34/20/20
f 48/36/33 47/35/32 34/20/20
f 131/23/23 49/37/34 35/22/22
f 49/37/34 48/36/33 35/22/22
f 32/16/16 45/33/30 37/25/25
f 45/33/30 50/38/35 37/25/25
f 38/26/26 51/39/36 39/27/26
f 51/39/36 52/40/36 39/27/26
f 40/28/27 53/41/37 41/29/26
f 53/41/37 54/42/36 41/29/26
f 39/27/26 52/40/36 42/30/26
f 52/40/36 55/43/36 42/30/26
f 42/30/26 55/43/36 43/31/28
f 55/43/36 56/44/38 43/31/28
f 43/31/28 56/44/38 44/32/29
f 56/44/38 57/45/39 44/32/29
f 44/32/29 57/45/39 45/33/30
f 57/45/39 58/46/40 45/33/30
f 41/29/26 54/42/36 38/26/26
f 54/42/36 51/39/36 38/26/26
f 46/34/31 59/47/41 40/28/27
f 59/47/41 53/41/37 40/28/27
f 47/35/32 60/48/42 46/34/31
f 60/48/42 59/47/41 46/34/31
f 48/36/33 61/49/43 47/35/32
f 61/49/43 60/48/42 47/35/32
f 49/37/34 62/50/44 48/36/33
f 62/50/44 61/49/43 48/36/33
f 45/33/30 58/46/40 50/38/35
f 58/46/40 63/51/45 50/38/35
f 51/39/36 64/52/46 52/40/36
f 64/52/46 68/53/46 52/40/36
f 53/41/37 69/54/47 54/42/36
f 69/54/47 70/55/46 54/42/36
f 52/40/36 68/53/46 55/43/36
f 68/53/46 10/56/46 55/43/36
f 55/43/36 10/56/46 56/44/38
f 10/56/46 11/57/48 56/44/38
f 56/44/38 11/57/48 57/45/39
f 11/57/48 65/58/49 57/45/39
f 57/45/39 65/58/49 58/46/40
f 65/58/49 12/59/50 58/46/40
f 54/42/36 70/55/46 51/39/36
f 70/55/46 64/52/46 51/39/36
f 59/47/41 66/60/51 53/41/37
f 66/60/51 69/54/47 53/41/37
f 60/48/42 71/61/52 59/47/41
f 71/61/52 66/60/51 59/47/41
f 61/49/43 72/62/53 60/48/42
f 72/62/53 71/61/52 60/48/42
f 62/50/44 73/63/54 61/49/43
f 73/63/54 72/62/53 61/49/43
f 58/46/40 12/59/50 63/51/45
f 12/59/50 67/64/55 63/51/45
f 15/65/56 36/66/56 74/67/56
f 85/68/57 84/69/58 4/70/59
f 84/69/58 75/71/60 4/70/59
f 87/72/8 86/73/61 5/74/62
f 86/73/61 6/75/63 5/74/62
f 88/76/64 85/68/57 76/77/65
f 85/68/57 4/70/59 76/77/65
f 89/78/66 88/76/64 77/79/67
f 88/76/64 76/77/65 77/79/67
f 90/80/68 89/78/66 78/81/69
f 89/78/66 77/79/67 78/81/69
f 91/82/70 90/80/68 79/83/71
f 90/80/68 78/81/69 79/83/71
f 84/69/58 87/72/8 75/71/60
f 87/72/8 5/74/62 75/71/60
f 86/73/61 92/84/72 6/75/63
f 92/84/72 81/85/73 6/75/63
f 92/84/72 93/86/74 81/85/73
f 93/86/74 7/87/75 81/85/73
f 93/86/74 94/88/76 7/87/75
f 94/88/76 82/89/77 7/87/75
f 94/88/76 95/90/78 82/89/77
f 95/90/78 83/91/79 82/89/77
f 96/92/80 91/82/70 80/93/81
f 91/82/70 79/83/71 80/93/81
f 98/94/26 97/95/26 85/68/57
f 97/95/26 84/69/58 85/68/57
f 100/96/26 99/97/82 87/72/8
f 99/97/82 86/73/61 87/72/8
f 101/98/26 98/94/26 88/76/64
f 98/94/26 85/68/57 88/76/64
f 102/99/83 101/98/26 89/78/66
f 101/98/26 88/76/64 89/78/66
f 103/100/84 102/99/83 90/80/68
f 102/99/83 89/78/66 90/80/68
f 104/101/85 103/100/84 91/82/70
f 103/100/84 90/80/68 91/82/70
f 97/95/26 100/96/26 84/69/58
f 100/96/26 87/72/8 84/69/58
f 99/97/82 105/102/86 86/73/61
f 105/102/86 92/84/72 86/73/61
f 105/102/86 106/103/87 92/84/72
f 106/103/87 93/86/74 92/84/72
f 106/103/87 107/104/88 93/86/74
f 107/104/88 94/88/76 93/86/74
f 107/104/88 108/105/89 94/88/76
f 108/105/89 95/90/78 94/88/76
f 8/106/90 104/101/85 96/92/80
f 104/101/85 91/82/70 96/92/80
f 110/107/36 109/108/36 98/94/26
f 109/108/36 97/95/26 98/94/26
f 112/109/36 111/110/91 100/96/26
f 111/110/91 99/97/82 100/96/26
f 113/111/36 110/107/36 101/98/26
f 110/107/36 98/94/26 101/98/26
f 114/112/92 113/111/36 102/99/83
f 113/111/36 101/98/26 102/99/83
f 115/113/93 114/112/92 103/100/84
f 114/112/92 102/99/83 103/100/84
f 116/114/94 115/113/93 104/101/85
f 115/113/93 103/100/84 104/101/85
f 109/108/36 112/109/36 97/95/26
f 112/109/36 100/96/26 97/95/26
f 111/110/91 117/115/95 99/97/82
f 117/115/95 105/102/86 99/97/82
f 117/115/95 118/116/96 105/102/86
f 118/116/96 106/103/87 105/102/86
f 118/116/96 119/117/97 106/103/87
f 119/117/97 107/104/88 106/103/87
f 119/117/97 120/118/98 107/104/88
f 120/118/98 108/105/89 107/104/88
f 121/119/99 116/114/94 8/106/90
f 116/114/94 104/101/85 8/106/90
f 1/120/46 122/121/46 110/107/36
f 122/121/46 109/108/36 110/107/36
f 124/122/46 123/123/100 112/109/36
f 123/123/100 111/110/91 112/109/36
f 2/124/46 1/120/46 113/111/36
f 1/120/46 110/107/36 113/111/36
f 3/125/101 2/124/46 114/112/92
f 2/124/46 113/111/36 114/112/92
f 125/126/102 3/125/101 115/113/93
f 3/125/101 114/112/92 115/113/93
f 126/127/103 125/126/102 116/114/94
f 125/126/102 115/113/93 116/114/94
f 122/121/46 124/122/46 109/108/36
f 124/122/46 112/109/36 109/108/36
f 123/123/100 127/128/104 111/110/91
f 127/128/104 117/115/95 111/110/91
f 127/128/104 129/129/105 117/115/95
f 129/129/105 118/116/96 117/115/95
f 129/129/105 130/130/106 118/116/96
f 130/130/106 119/117/97 118/116/96
f 130/130/106 128/131/107 119/117/97
f 128/131/107 120/118/98 119/117/97
f 9/132/108 126/127/103 121/119/99
f 126/127/103 116/114/94 121/119/99
