# Blender v2.93.18 OBJ File: 'Fiat fiorino 8.blend'
# www.blender.org
mtllib Fiat fiorino body logo.mtl
o body_logo_bump_front_ok.003
v -15.449271 -2.882989 -85.659554
v -15.766680 -2.051420 -85.571716
v -11.873322 -2.056043 -85.535248
v -11.593883 -2.887355 -85.624626
v -15.867877 -2.250067 -84.158722
v -15.867877 -2.051228 -85.572746
v -15.549458 -2.882925 -85.660065
v -15.549458 -3.081508 -84.247063
vt 0.051218 0.759130
vt 0.552685 0.651887
vt 0.574105 0.759888
vt 0.012542 0.651129
vt 0.566550 0.651886
vt 0.588107 0.759886
vt 0.588107 0.759886
vt 0.566550 0.651886
vn 0.0092 0.1097 -0.9939
vn 0.0094 0.1087 -0.9940
vn 0.0094 0.1086 -0.9940
vn 0.0091 0.1099 -0.9939
vn -0.9344 -0.3525 -0.0496
vn -0.9344 -0.3526 -0.0496
vn -0.9344 -0.3526 -0.0495
usemtl bump_front_ok.1
s 1
f 3/1/1 1/2/2 2/3/3
f 1/2/2 3/1/1 4/4/4
f 7/5/5 5/6/6 6/7/5
f 5/6/6 7/5/5 8/8/7
