# Blender v2.93.18 OBJ File: 'Vw fusca 1963 7.blend'
# www.blender.org
o steering_logo_salon.579
v -0.945506 -0.580935 2.293763
v -0.689008 -0.725552 2.353636
v -0.764401 -0.800293 2.286626
v -1.000195 -0.610425 2.177182
v -1.128115 -0.329493 2.176318
v -1.062697 -0.314027 2.298099
v -0.859540 -0.525660 2.351984
v -0.966067 -0.282531 2.357204
v -0.624807 -0.653093 2.373477
v -0.774102 -0.462940 2.367240
v -0.007232 0.002718 2.333402
v -0.870012 -0.253316 2.369010
v -1.008708 -0.025359 2.356301
v -0.912667 -0.019915 2.369116
v -0.987376 0.241547 2.358954
v -0.880686 0.213481 2.368311
v -0.891441 0.484679 2.361699
v -0.795412 0.432844 2.372202
v -0.742263 0.694307 2.360469
v -0.667474 0.628443 2.376571
v -0.529134 0.856397 2.360481
v -0.475693 0.780803 2.372512
v -0.262515 0.871583 2.375537
v -0.294669 0.970958 2.362240
v -0.038969 1.018498 2.357103
v -0.327369 1.068039 2.301645
v -0.039699 1.115582 2.296118
v 0.248129 1.087518 2.303271
v 0.267948 1.153104 2.181756
v -0.041193 1.181160 2.174856
v -0.339498 1.133616 2.180522
v -0.583146 0.953482 2.300148
v -0.627302 1.009330 2.175077
v -0.806936 0.767622 2.301271
v -0.861664 0.809432 2.181673
v -0.977527 0.538520 2.294107
v -1.042850 0.566298 2.179966
v -1.149427 0.275619 2.179371
v -1.084039 0.257582 2.297837
v -1.115976 -0.023356 2.300652
v -1.181456 -0.024789 2.173530
v 0.555647 1.048288 2.177938
v 0.525187 0.982709 2.299593
v 0.800823 0.858138 2.183008
v 0.759684 0.816323 2.303780
v 0.992648 0.624742 2.181076
v 0.940714 0.587225 2.292315
v 1.120568 0.343812 2.181935
v 1.058079 0.325764 2.301965
v 1.173760 0.043399 2.175057
v 1.100691 0.035098 2.299535
v 1.141882 -0.261307 2.178885
v 1.079420 -0.245844 2.302225
v 1.035293 -0.551979 2.178288
v 0.972781 -0.522488 2.296299
v 0.854127 -0.795115 2.176574
v 0.802178 -0.751591 2.289128
v 0.619626 -0.990717 2.173512
v 0.578431 -0.937449 2.290252
v 0.331952 -1.119303 2.177734
v 0.311985 -1.052009 2.288882
v 0.033518 -1.162551 2.173734
v 0.034973 -1.099549 2.294284
v -0.275526 -1.138785 2.176497
v -0.252856 -1.071483 2.287126
v -0.563338 -1.029681 2.170656
v -0.808446 -0.853561 2.170917
v -0.529914 -0.966677 2.290807
v -0.230742 -0.972972 2.353778
v -0.475855 -0.877899 2.352746
v -0.209183 -0.876748 2.373138
v -0.433051 -0.791416 2.367517
v 0.025235 -0.900515 2.371283
v 0.024998 -0.996738 2.351660
v 0.259771 -0.857264 2.376068
v 0.291494 -0.953494 2.356059
v 0.472821 -0.762191 2.369433
v 0.525913 -0.848675 2.353494
v 0.654034 -0.614134 2.375167
v 0.728442 -0.676846 2.357954
v 0.792519 -0.414237 2.369745
v 0.877794 -0.194870 2.373628
v 0.888287 -0.467220 2.356607
v 0.973554 -0.224083 2.359478
v 1.005477 0.033083 2.357665
v 0.899087 0.038529 2.372952
v 0.867129 0.271923 2.372930
v 0.962892 0.299990 2.361097
v 0.760584 0.481548 2.374832
v 0.611418 0.667407 2.378257
v 0.856319 0.533388 2.361981
v 0.685834 0.743012 2.364666
v 0.472701 0.895359 2.365554
v 0.419466 0.800285 2.370228
v 0.206429 0.891066 2.378469
v -0.028074 0.905096 2.375997
v 0.227501 0.980696 2.360186
v -0.774102 -0.462940 2.367240
v -0.870012 -0.253316 2.369010
v -0.624807 -0.653093 2.373477
v -0.912667 -0.019915 2.369116
v -0.880686 0.213481 2.368311
v -0.795412 0.432844 2.372202
v -0.667474 0.628443 2.376571
v -0.475693 0.780803 2.372512
v -0.262515 0.871583 2.375537
v -0.433051 -0.791416 2.367517
v -0.209183 -0.876748 2.373138
v 0.025235 -0.900515 2.371283
v 0.259771 -0.857264 2.376068
v 0.472821 -0.762191 2.369433
v 0.654034 -0.614134 2.375167
v 0.792519 -0.414237 2.369745
v 0.877794 -0.194870 2.373628
v 0.899087 0.038529 2.372952
v 0.867129 0.271923 2.372930
v 0.760584 0.481548 2.374832
v 0.611418 0.667407 2.378257
v 0.206429 0.891066 2.378469
v 0.419466 0.800285 2.370228
v -0.028074 0.905096 2.375997
vt 0.126343 0.210449
vt 0.126953 0.209961
vt 0.127197 0.209961
vt 0.126831 0.210449
vt 0.125977 0.209961
vt 0.125610 0.210938
vt 0.126099 0.211426
vt 0.127563 0.210449
vt 0.126465 0.211426
vt 0.127197 0.210938
vt 0.116821 0.118164
vt 0.033478 0.092773
vt 0.042938 0.071777
vt 0.057434 0.054199
vt 0.126953 0.211426
vt 0.126465 0.211914
vt 0.126953 0.211914
vt 0.029678 0.115234
vt 0.126465 0.212891
vt 0.126953 0.212891
vt 0.031830 0.137695
vt 0.039764 0.159180
vt 0.126831 0.213379
vt 0.127197 0.213379
vt 0.127319 0.213867
vt 0.127563 0.213867
vt 0.052948 0.177734
vt 0.127808 0.214355
vt 0.128052 0.213867
vt 0.070496 0.191895
vt 0.128540 0.214844
vt 0.128662 0.214355
vt 0.091187 0.201660
vt 0.128418 0.215332
vt 0.129272 0.214844
vt 0.129272 0.215332
vt 0.129272 0.215820
vt 0.130127 0.215332
vt 0.130249 0.215820
vt 0.128296 0.215820
vt 0.127563 0.214844
vt 0.127319 0.215332
vt 0.126953 0.214355
vt 0.126587 0.214844
vt 0.126343 0.213867
vt 0.125977 0.213867
vt 0.125610 0.212891
vt 0.126099 0.212891
vt 0.125977 0.211914
vt 0.125488 0.211914
vt 0.131226 0.215332
vt 0.130981 0.214844
vt 0.131958 0.214844
vt 0.131592 0.214355
vt 0.132568 0.213867
vt 0.132202 0.213867
vt 0.132935 0.212891
vt 0.132446 0.212891
vt 0.133057 0.211914
vt 0.132568 0.211914
vt 0.132935 0.210938
vt 0.132446 0.211426
vt 0.132568 0.209961
vt 0.132202 0.210449
vt 0.131958 0.209473
vt 0.131592 0.209961
vt 0.131226 0.208984
vt 0.130981 0.208984
vt 0.130249 0.208496
vt 0.130127 0.208984
vt 0.129272 0.208496
vt 0.129272 0.208984
vt 0.128296 0.208496
vt 0.128418 0.208984
vt 0.127319 0.208984
vt 0.127563 0.208984
vt 0.126587 0.209473
vt 0.128540 0.209473
vt 0.127808 0.209473
vt 0.128052 0.209961
vt 0.128662 0.209961
vt 0.075989 0.041016
vt 0.097290 0.033203
vt 0.119995 0.031250
vt 0.129272 0.209473
vt 0.142334 0.034668
vt 0.129272 0.209473
vt 0.129883 0.209961
vt 0.130005 0.209473
vt 0.130493 0.209961
vt 0.163086 0.044434
vt 0.180664 0.058594
vt 0.130737 0.209473
vt 0.130981 0.210449
vt 0.131226 0.209961
vt 0.131348 0.210938
vt 0.193848 0.077148
vt 0.201782 0.098633
vt 0.131714 0.210449
vt 0.131592 0.211426
vt 0.132080 0.211426
vt 0.132080 0.211914
vt 0.131592 0.211914
vt 0.203857 0.121582
vt 0.200073 0.144043
vt 0.131592 0.212402
vt 0.132080 0.212891
vt 0.131348 0.213379
vt 0.190674 0.164551
vt 0.176147 0.182129
vt 0.131714 0.213379
vt 0.130981 0.213867
vt 0.131348 0.213867
vt 0.130737 0.214355
vt 0.130493 0.213867
vt 0.129883 0.214355
vt 0.157593 0.195312
vt 0.136230 0.203125
vt 0.113647 0.205566
vt 0.130005 0.214844
vt 0.129272 0.214355
vn -0.6149 -0.3932 0.6836
vn -0.4964 -0.5325 0.6855
vn -0.2518 -0.2848 0.9249
vn -0.2913 -0.1839 0.9387
vn -0.7456 -0.4669 0.4754
vn -0.8391 -0.2529 0.4816
vn -0.6917 -0.2192 0.6881
vn -0.1261 -0.1460 0.9812
vn -0.3122 -0.1030 0.9444
vn -0.1225 -0.0691 0.9901
vn -0.0017 -0.0020 1.0000
vn 0.0389 0.0079 0.9992
vn 0.0274 0.0274 0.9992
vn 0.0306 0.0322 0.9990
vn -0.1125 -0.0372 0.9930
vn -0.3169 -0.0113 0.9484
vn -0.1257 -0.0099 0.9920
vn 0.0393 0.0024 0.9992
vn -0.3316 0.0748 0.9404
vn -0.0846 0.0179 0.9962
vn 0.0360 -0.0160 0.9992
vn 0.0299 -0.0353 0.9989
vn -0.3106 0.1595 0.9370
vn -0.0953 0.0417 0.9946
vn -0.2613 0.2411 0.9346
vn -0.1193 0.1002 0.9878
vn 0.0344 -0.0326 0.9989
vn -0.1679 0.2763 0.9463
vn -0.0646 0.1119 0.9916
vn 0.0236 -0.0360 0.9991
vn -0.0988 0.3262 0.9401
vn -0.0352 0.1262 0.9914
vn 0.0052 -0.0469 0.9989
vn -0.2098 0.6958 0.6869
vn -0.0149 0.3660 0.9305
vn -0.0290 0.7391 0.6729
vn -0.0319 0.8783 0.4771
vn 0.1582 0.6910 0.7053
vn 0.1918 0.8509 0.4890
vn -0.2427 0.8418 0.4821
vn -0.3727 0.6109 0.6984
vn -0.4618 0.7382 0.4917
vn -0.5274 0.4976 0.6886
vn -0.6338 0.5902 0.4999
vn -0.6399 0.3498 0.6842
vn -0.7501 0.4060 0.5219
vn -0.8477 0.1997 0.4913
vn -0.7049 0.1671 0.6893
vn -0.7202 -0.0246 0.6933
vn -0.8861 -0.0371 0.4620
vn 0.4164 0.7545 0.5072
vn 0.3457 0.6437 0.6827
vn 0.6125 0.6520 0.4469
vn 0.5138 0.5347 0.6709
vn 0.7455 0.4528 0.4890
vn 0.6374 0.3864 0.6666
vn 0.8390 0.2579 0.4790
vn 0.7007 0.2121 0.6812
vn 0.8643 0.0242 0.5024
vn 0.7236 0.0197 0.6899
vn 0.8628 -0.1894 0.4688
vn 0.7033 -0.1605 0.6925
vn 0.7586 -0.4196 0.4984
vn 0.6223 -0.3573 0.6964
vn 0.6196 -0.5946 0.5124
vn 0.5240 -0.5063 0.6849
vn 0.4637 -0.7318 0.4994
vn 0.3793 -0.6196 0.6872
vn 0.2295 -0.8174 0.5283
vn 0.2051 -0.6977 0.6864
vn 0.0397 -0.8804 0.4725
vn 0.0280 -0.7259 0.6872
vn -0.2029 -0.8233 0.5301
vn -0.1649 -0.7016 0.6932
vn -0.4050 -0.7556 0.5148
vn -0.3411 -0.6317 0.6961
vn -0.5884 -0.6264 0.5113
vn -0.0840 -0.3816 0.9205
vn -0.1737 -0.3110 0.9344
vn -0.0822 -0.1349 0.9874
vn -0.0434 -0.1824 0.9822
vn 0.0187 0.0329 0.9993
vn 0.0025 0.0446 0.9990
vn -0.0078 0.0416 0.9991
vn 0.0034 -0.1992 0.9799
vn -0.0100 0.0464 0.9988
vn 0.0002 -0.3634 0.9316
vn 0.0606 -0.1841 0.9810
vn 0.1209 -0.3699 0.9212
vn 0.0792 -0.1395 0.9870
vn -0.0193 0.0349 0.9992
vn -0.0347 0.0305 0.9989
vn 0.1875 -0.3141 0.9307
vn 0.1272 -0.1144 0.9852
vn 0.2738 -0.2565 0.9269
vn 0.1078 -0.0648 0.9920
vn -0.0342 0.0214 0.9992
vn -0.0446 0.0034 0.9990
vn 0.3019 -0.1700 0.9380
vn 0.1333 -0.0328 0.9905
vn 0.3121 -0.0813 0.9466
vn 0.3495 0.0107 0.9369
vn 0.1426 0.0052 0.9897
vn -0.0436 0.0004 0.9990
vn -0.0400 -0.0167 0.9991
vn 0.1174 0.0282 0.9927
vn 0.3269 0.0909 0.9406
vn 0.1040 0.0542 0.9931
vn -0.0325 -0.0343 0.9989
vn -0.0410 -0.0292 0.9987
vn 0.3138 0.1934 0.9296
vn 0.0763 0.1010 0.9919
vn 0.2357 0.2408 0.9415
vn 0.1481 0.2957 0.9437
vn 0.0406 0.0392 0.9984
vn 0.0235 0.1747 0.9843
vn -0.0189 -0.0360 0.9991
vn 0.0011 -0.0509 0.9987
vn -0.0044 -0.0472 0.9989
vn 0.0741 0.3369 0.9386
vn -0.0070 0.1674 0.9858
s 1
f 1/1/1 3/2/2 2/3/3
f 1/1/1 2/3/3 7/4/4
f 4/5/5 3/2/2 1/1/1
f 4/5/5 1/1/1 5/6/6
f 5/6/6 1/1/1 6/7/7
f 1/1/1 7/4/4 6/7/7
f 100/8/8 7/4/4 2/3/3
f 6/7/7 7/4/4 8/9/9
f 8/9/9 7/4/4 98/10/10
f 98/10/10 7/4/4 100/8/8
f 11/11/11 99/12/12 10/13/13
f 11/11/11 10/13/13 9/14/14
f 8/9/9 98/10/10 12/15/15
f 8/9/9 12/15/15 13/16/16
f 13/16/16 12/15/15 101/17/17
f 11/11/11 14/18/18 99/12/12
f 13/16/16 101/17/17 15/19/19
f 15/19/19 101/17/17 102/20/20
f 11/11/11 16/21/21 14/18/18
f 11/11/11 103/22/22 16/21/21
f 15/19/19 102/20/20 17/23/23
f 17/23/23 102/20/20 18/24/24
f 17/23/23 18/24/24 19/25/25
f 19/25/25 18/24/24 104/26/26
f 11/11/11 20/27/27 103/22/22
f 19/25/25 104/26/26 21/28/28
f 21/28/28 104/26/26 105/29/29
f 11/11/11 22/30/30 20/27/27
f 24/31/31 105/29/29 106/32/32
f 23/33/33 22/30/30 11/11/11
f 21/28/28 105/29/29 24/31/31
f 26/34/34 21/28/28 24/31/31
f 24/31/31 106/32/32 25/35/35
f 27/36/36 24/31/31 25/35/35
f 26/34/34 24/31/31 27/36/36
f 27/36/36 30/37/37 26/34/34
f 27/36/36 25/35/35 28/38/38
f 28/38/38 29/39/39 27/36/36
f 27/36/36 29/39/39 30/37/37
f 26/34/34 30/37/37 31/40/40
f 26/34/34 31/40/40 32/41/41
f 32/41/41 31/40/40 33/42/42
f 32/41/41 33/42/42 34/43/43
f 34/43/43 33/42/42 35/44/44
f 34/43/43 35/44/44 36/45/45
f 36/45/45 35/44/44 37/46/46
f 38/47/47 39/48/48 37/46/46
f 36/45/45 37/46/46 39/48/48
f 38/47/47 40/49/49 39/48/48
f 40/49/49 13/16/16 39/48/48
f 39/48/48 13/16/16 15/19/19
f 39/48/48 15/19/19 36/45/45
f 41/50/50 6/7/7 40/49/49
f 41/50/50 40/49/49 38/47/47
f 6/7/7 8/9/9 40/49/49
f 40/49/49 8/9/9 13/16/16
f 5/6/6 6/7/7 41/50/50
f 36/45/45 15/19/19 17/23/23
f 36/45/45 17/23/23 34/43/43
f 34/43/43 17/23/23 19/25/25
f 34/43/43 19/25/25 32/41/41
f 32/41/41 19/25/25 21/28/28
f 32/41/41 21/28/28 26/34/34
f 28/38/38 42/51/51 29/39/39
f 43/52/52 44/53/53 42/51/51
f 43/52/52 42/51/51 28/38/38
f 45/54/54 46/55/55 44/53/53
f 45/54/54 44/53/53 43/52/52
f 47/56/56 48/57/57 46/55/55
f 47/56/56 46/55/55 45/54/54
f 49/58/58 50/59/59 48/57/57
f 49/58/58 48/57/57 47/56/56
f 51/60/60 52/61/61 50/59/59
f 51/60/60 50/59/59 49/58/58
f 53/62/62 54/63/63 52/61/61
f 53/62/62 52/61/61 51/60/60
f 55/64/64 56/65/65 54/63/63
f 55/64/64 54/63/63 53/62/62
f 57/66/66 58/67/67 56/65/65
f 57/66/66 56/65/65 55/64/64
f 59/68/68 60/69/69 58/67/67
f 59/68/68 58/67/67 57/66/66
f 61/70/70 62/71/71 60/69/69
f 61/70/70 60/69/69 59/68/68
f 63/72/72 64/73/73 62/71/71
f 63/72/72 62/71/71 61/70/70
f 65/74/74 66/75/75 64/73/73
f 65/74/74 64/73/73 63/72/72
f 68/76/76 67/77/77 66/75/75
f 68/76/76 66/75/75 65/74/74
f 69/78/78 70/79/79 68/76/76
f 65/74/74 69/78/78 68/76/76
f 68/76/76 70/79/79 3/2/2
f 68/76/76 3/2/2 67/77/77
f 2/3/3 3/2/2 70/79/79
f 107/80/80 2/3/3 70/79/79
f 69/78/78 108/81/81 70/79/79
f 107/80/80 70/79/79 108/81/81
f 11/11/11 9/14/14 72/82/82
f 11/11/11 72/82/82 71/83/83
f 100/8/8 2/3/3 107/80/80
f 71/83/83 109/84/84 11/11/11
f 73/85/85 108/81/81 69/78/78
f 11/11/11 109/84/84 110/86/86
f 74/87/87 73/85/85 69/78/78
f 74/87/87 75/88/88 73/85/85
f 76/89/89 111/90/90 75/88/88
f 76/89/89 75/88/88 74/87/87
f 11/11/11 110/86/86 77/91/91
f 11/11/11 77/91/91 112/92/92
f 78/93/93 79/94/94 111/90/90
f 78/93/93 111/90/90 76/89/89
f 80/95/95 113/96/96 79/94/94
f 80/95/95 79/94/94 78/93/93
f 11/11/11 112/92/92 81/97/97
f 11/11/11 81/97/97 114/98/98
f 83/99/99 82/100/100 113/96/96
f 83/99/99 113/96/96 80/95/95
f 55/64/64 84/101/101 83/99/99
f 55/64/64 83/99/99 57/66/66
f 84/101/101 82/100/100 83/99/99
f 57/66/66 83/99/99 80/95/95
f 85/102/102 115/103/103 84/101/101
f 53/62/62 85/102/102 84/101/101
f 53/62/62 84/101/101 55/64/64
f 84/101/101 115/103/103 82/100/100
f 11/11/11 114/98/98 86/104/104
f 11/11/11 86/104/104 116/105/105
f 85/102/102 87/106/106 115/103/103
f 88/107/107 117/108/108 87/106/106
f 88/107/107 87/106/106 85/102/102
f 11/11/11 116/105/105 89/109/109
f 11/11/11 89/109/109 118/110/110
f 91/111/111 90/112/112 117/108/108
f 91/111/111 117/108/108 88/107/107
f 47/56/56 92/113/113 91/111/111
f 47/56/56 91/111/111 49/58/58
f 92/113/113 90/112/112 91/111/111
f 49/58/58 91/111/111 88/107/107
f 45/54/54 93/114/114 92/113/113
f 45/54/54 92/113/113 47/56/56
f 93/114/114 120/115/115 92/113/113
f 92/113/113 120/115/115 90/112/112
f 93/114/114 119/116/116 120/115/115
f 11/11/11 94/117/117 95/118/118
f 11/11/11 118/110/110 94/117/117
f 11/11/11 95/118/118 121/119/119
f 97/120/120 96/121/121 119/116/116
f 97/120/120 119/116/116 93/114/114
f 28/38/38 25/35/35 97/120/120
f 28/38/38 97/120/120 43/52/52
f 25/35/35 96/121/121 97/120/120
f 43/52/52 97/120/120 93/114/114
f 11/11/11 121/119/119 23/33/33
f 25/35/35 106/32/32 96/121/121
f 43/52/52 93/114/114 45/54/54
f 49/58/58 88/107/107 51/60/60
f 51/60/60 88/107/107 85/102/102
f 51/60/60 85/102/102 53/62/62
f 57/66/66 80/95/95 59/68/68
f 59/68/68 80/95/95 78/93/93
f 59/68/68 78/93/93 61/70/70
f 61/70/70 78/93/93 76/89/89
f 61/70/70 76/89/89 63/72/72
f 63/72/72 76/89/89 74/87/87
f 63/72/72 74/87/87 65/74/74
f 74/87/87 69/78/78 65/74/74
f 67/77/77 3/2/2 4/5/5
