# Blender v2.93.18 OBJ File: 'Vw fusca 1963 7.blend'
# www.blender.org
o boot_light_boot_ok.003
v -0.000087 -14.972462 11.126165
v 3.357297 -14.262028 12.488847
v 4.113867 -14.813834 11.157573
v 1.524221 -13.932673 13.513894
v 0.000163 -13.911426 13.598430
v -1.523912 -13.932753 13.513932
v -3.357139 -14.262201 12.488922
v -4.113981 -14.814040 11.157704
vt 0.034180 0.824585
vt 0.053406 0.788330
vt 0.136963 0.828003
vt 0.099548 0.761963
vt 0.137817 0.760010
vt 0.176025 0.762817
vt 0.221680 0.790161
vt 0.240112 0.826904
vn 0.0323 -0.9167 0.3983
vn 0.0365 -0.9201 0.3898
vn 0.0000 -0.9216 0.3881
vn 0.0294 -0.9232 0.3833
vn 0.0000 -0.9189 0.3944
vn -0.0293 -0.9232 0.3833
vn -0.0364 -0.9201 0.3898
vn -0.0322 -0.9167 0.3983
s 1
f 3/1/1 2/2/2 1/3/3
f 1/3/3 2/2/2 4/4/4
f 1/3/3 4/4/4 5/5/5
f 1/3/3 5/5/5 6/6/6
f 1/3/3 6/6/6 7/7/7
f 1/3/3 7/7/7 8/8/8
