# Blender v2.93.18 OBJ File: 'Sisu m series 11.blend'
# www.blender.org
mtllib Sisu m turn lights.mtl
o turn_lights_piece_1
v -46.981667 10.999569 1.025768
v -47.013004 10.834945 1.183408
v -48.319969 10.787246 0.651307
v -46.938858 11.059827 0.810435
v -48.351307 10.622622 0.808946
v -47.024467 10.610062 1.241110
v -48.277168 10.847505 0.435974
v -48.362778 10.397739 0.866639
v -47.024467 7.644488 1.241110
v -48.460926 10.705650 0.576452
v -48.487576 10.565640 0.710507
v -48.056091 10.847505 -0.676193
v -46.676311 11.059827 -0.510370
v -48.423019 10.759013 0.385752
v -48.506142 10.557275 0.479202
v -48.013287 10.787246 -0.891535
v -46.633511 10.999569 -0.725703
v -46.602177 10.834945 -0.883342
v -47.981953 10.622622 -1.049165
v -46.590710 10.610062 -0.941045
v -48.172161 10.705650 -0.876264
v -48.210068 10.759013 -0.685565
v -47.970490 10.397739 -1.106867
v -46.590710 7.644488 -0.941045
v -48.145512 10.565640 -1.010338
v -48.251125 10.557275 -0.803703
v -48.480064 10.593990 0.347993
v -48.277214 10.593990 -0.672494
v -48.235790 10.476681 -0.880880
v -48.135284 10.365176 -1.061786
v -48.228573 10.335168 -0.917198
v -47.970490 7.644488 -1.106867
v -48.521484 10.476681 0.556378
v -48.528698 10.335168 0.592677
v -48.497807 10.365176 0.761955
v -48.362778 7.644488 0.866639
v -48.497807 7.644488 0.761955
v -48.362778 4.891237 0.866639
v -47.024467 4.678915 1.241110
v -48.497807 4.923800 0.761955
v -48.528698 7.644488 0.592677
v -48.528698 4.953808 0.592677
v -48.228573 7.644488 -0.917198
v -48.521484 4.812295 0.556378
v -48.135284 7.644488 -1.061786
v -48.228573 4.953808 -0.917198
v -48.135284 4.923800 -1.061786
v -47.970490 4.891237 -1.106867
v -46.590710 4.678915 -0.941045
v -48.235790 4.812295 -0.880880
v -47.981953 4.666355 -1.049165
v -46.602177 4.454032 -0.883342
v -48.145512 4.723336 -1.010338
v -48.013287 4.501730 -0.891535
v -46.633511 4.289408 -0.725703
v -46.676311 4.229149 -0.510370
v -48.172161 4.583326 -0.876264
v -48.056091 4.441472 -0.676193
v -46.938858 4.229149 0.810435
v -48.251125 4.731701 -0.803703
v -48.210068 4.529963 -0.685565
v -48.277214 4.694985 -0.672494
v -48.480064 4.694985 0.347993
v -48.423019 4.529963 0.385752
v -48.506142 4.731701 0.479202
v -48.487576 4.723336 0.710507
v -48.460926 4.583326 0.576452
v -48.277168 4.441472 0.435974
v -48.351307 4.666355 0.808946
v -47.013004 4.454032 1.183408
v -48.319969 4.501730 0.651307
v -46.981667 4.289408 1.025768
v 46.981667 10.999569 1.025768
v 48.319969 10.787246 0.651307
v 47.013004 10.834945 1.183408
v 46.938858 11.059827 0.810435
v 48.351307 10.622622 0.808946
v 47.024467 10.610062 1.241110
v 48.277168 10.847505 0.435974
v 48.362778 10.397739 0.866639
v 47.024467 7.644488 1.241110
v 48.460926 10.705650 0.576452
v 48.487576 10.565640 0.710507
v 48.056091 10.847505 -0.676193
v 46.676311 11.059827 -0.510370
v 48.423019 10.759013 0.385752
v 48.506142 10.557275 0.479202
v 48.013287 10.787246 -0.891535
v 46.633511 10.999569 -0.725703
v 46.602177 10.834945 -0.883342
v 48.210068 10.759013 -0.685565
v 47.981953 10.622622 -1.049165
v 46.590710 10.610062 -0.941045
v 48.172161 10.705650 -0.876264
v 47.970490 10.397739 -1.106867
v 46.590710 7.644488 -0.941045
v 48.145512 10.565640 -1.010338
v 48.251125 10.557275 -0.803703
v 48.277214 10.593990 -0.672494
v 48.235790 10.476681 -0.880880
v 48.135284 10.365176 -1.061786
v 47.970490 7.644488 -1.106867
v 47.970490 4.891237 -1.106867
v 46.590710 4.678915 -0.941045
v 48.135284 7.644488 -1.061786
v 47.981953 4.666355 -1.049165
v 46.602177 4.454032 -0.883342
v 48.135284 4.923800 -1.061786
v 48.145512 4.723336 -1.010338
v 48.013287 4.501730 -0.891535
v 46.633511 4.289408 -0.725703
v 46.676311 4.229149 -0.510370
v 48.172161 4.583326 -0.876264
v 48.056091 4.441472 -0.676193
v 46.938858 4.229149 0.810435
v 48.251125 4.731701 -0.803703
v 48.277168 4.441472 0.435974
v 48.235790 4.812295 -0.880880
v 48.210068 4.529963 -0.685565
v 48.277214 4.694985 -0.672494
v 48.228573 4.953808 -0.917198
v 48.480064 4.694985 0.347993
v 48.423019 4.529963 0.385752
v 48.228573 7.644488 -0.917198
v 48.460926 4.583326 0.576452
v 48.228573 10.335168 -0.917198
v 48.528698 7.644488 0.592677
v 48.528698 4.953808 0.592677
v 48.528698 10.335168 0.592677
v 48.480064 10.593990 0.347993
v 48.521484 10.476681 0.556378
v 48.497807 10.365176 0.761955
v 48.497807 7.644488 0.761955
v 48.362778 7.644488 0.866639
v 48.497807 4.923800 0.761955
v 48.362778 4.891237 0.866639
v 47.024467 4.678915 1.241110
v 48.521484 4.812295 0.556378
v 48.487576 4.723336 0.710507
v 48.351307 4.666355 0.808946
v 47.013004 4.454032 1.183408
v 48.506142 4.731701 0.479202
v 48.319969 4.501730 0.651307
v 46.981667 4.289408 1.025768
vt 0.228870 0.452241
vt 0.299896 0.491286
vt 0.284632 0.511461
vt 0.216063 0.536733
vt 0.239824 0.439884
vt 0.315533 0.424085
vt 0.206426 0.459547
vt 0.245731 0.415334
vt 0.315925 0.228961
vt 0.221517 0.442597
vt 0.229169 0.433012
vt 0.127755 0.460059
vt 0.118042 0.536734
vt 0.205711 0.447022
vt 0.212923 0.431973
vt 0.105074 0.458356
vt 0.057694 0.519834
vt 0.032968 0.489802
vt 0.090449 0.442115
vt 0.018055 0.417998
vt 0.114192 0.443558
vt 0.128369 0.447386
vt 0.085789 0.413932
vt 0.018097 0.226704
vt 0.101825 0.433570
vt 0.120961 0.432049
vt 0.203603 0.434579
vt 0.130414 0.434699
vt 0.113998 0.425807
vt 0.098945 0.413322
vt 0.111948 0.414997
vt 0.085339 0.226682
vt 0.218355 0.426333
vt 0.220897 0.415655
vt 0.232993 0.415118
vt 0.246273 0.227049
vt 0.232418 0.227077
vt 0.245731 0.415334
vt 0.315533 0.424085
vt 0.232993 0.415118
vt 0.220350 0.228495
vt 0.220897 0.415655
vt 0.112443 0.227562
vt 0.218355 0.426333
vt 0.099916 0.225502
vt 0.111948 0.414997
vt 0.098945 0.413322
vt 0.085789 0.413932
vt 0.018055 0.417998
vt 0.113998 0.425807
vt 0.090449 0.442115
vt 0.032968 0.489802
vt 0.101825 0.433570
vt 0.105074 0.458356
vt 0.057694 0.519834
vt 0.118042 0.536734
vt 0.114192 0.443558
vt 0.127755 0.460059
vt 0.216063 0.536733
vt 0.120961 0.432049
vt 0.128369 0.447386
vt 0.130414 0.434699
vt 0.203603 0.434579
vt 0.205711 0.447022
vt 0.212923 0.431973
vt 0.229169 0.433012
vt 0.221517 0.442597
vt 0.206426 0.459547
vt 0.239824 0.439884
vt 0.299896 0.491286
vt 0.228870 0.452241
vt 0.284632 0.511461
vt 0.299896 0.491286
vt 0.228870 0.452241
vt 0.284632 0.511461
vt 0.216063 0.536733
vt 0.239824 0.439884
vt 0.315533 0.424085
vt 0.206426 0.459547
vt 0.245731 0.415334
vt 0.315925 0.228961
vt 0.221517 0.442597
vt 0.229169 0.433012
vt 0.127755 0.460059
vt 0.118042 0.536734
vt 0.205711 0.447022
vt 0.212923 0.431973
vt 0.105074 0.458356
vt 0.057694 0.519834
vt 0.032968 0.489802
vt 0.128369 0.447386
vt 0.090449 0.442115
vt 0.018055 0.417998
vt 0.114192 0.443558
vt 0.085789 0.413932
vt 0.018097 0.226704
vt 0.101825 0.433570
vt 0.120961 0.432049
vt 0.130414 0.434699
vt 0.113998 0.425807
vt 0.098945 0.413322
vt 0.085339 0.226682
vt 0.085789 0.413932
vt 0.018055 0.417998
vt 0.099916 0.225502
vt 0.090449 0.442115
vt 0.032968 0.489802
vt 0.098945 0.413322
vt 0.101825 0.433570
vt 0.105074 0.458356
vt 0.057694 0.519834
vt 0.118042 0.536734
vt 0.114192 0.443558
vt 0.127755 0.460059
vt 0.216063 0.536733
vt 0.120961 0.432049
vt 0.206426 0.459547
vt 0.113998 0.425807
vt 0.128369 0.447386
vt 0.130414 0.434699
vt 0.111948 0.414997
vt 0.203603 0.434579
vt 0.205711 0.447022
vt 0.112443 0.227562
vt 0.221517 0.442597
vt 0.111948 0.414997
vt 0.220350 0.228495
vt 0.220897 0.415655
vt 0.220897 0.415655
vt 0.203603 0.434579
vt 0.218355 0.426333
vt 0.232993 0.415118
vt 0.232418 0.227077
vt 0.246273 0.227049
vt 0.232993 0.415118
vt 0.245731 0.415334
vt 0.315533 0.424085
vt 0.218355 0.426333
vt 0.229169 0.433012
vt 0.239824 0.439884
vt 0.299896 0.491286
vt 0.212923 0.431973
vt 0.228870 0.452241
vt 0.284632 0.511461
vn -0.3006 0.8421 0.4477
vn -0.3061 0.4861 0.8185
vn -0.2631 0.8485 0.4592
vn -0.1594 0.9872 0.0099
vn -0.3438 0.4828 0.8054
vn -0.2722 0.0190 0.9621
vn -0.1957 0.9807 0.0025
vn -0.3105 0.0189 0.9504
vn -0.2695 0.0000 0.9630
vn -0.7958 0.5766 0.1851
vn -0.8369 0.3289 0.4374
vn -0.1799 0.9807 -0.0772
vn -0.1435 0.9872 -0.0701
vn -0.7457 0.6552 -0.1207
vn -0.9812 0.0038 -0.1929
vn -0.1066 0.8421 -0.5286
vn -0.0675 0.8485 -0.5249
vn 0.0302 0.4861 -0.8734
vn -0.0097 0.4827 -0.8757
vn 0.1164 0.0190 -0.9930
vn -0.6645 0.5766 -0.4754
vn -0.7352 0.6552 -0.1737
vn 0.0766 0.0189 -0.9969
vn 0.1193 0.0000 -0.9929
vn -0.6060 0.3290 -0.7242
vn -0.9804 0.0037 -0.1970
vn -0.9808 0.0166 -0.1943
vn -0.9806 0.0165 -0.1955
vn -0.9800 0.0021 -0.1988
vn -0.5901 0.0122 -0.8072
vn -0.9730 0.0006 -0.2308
vn 0.0795 -0.0000 -0.9968
vn -0.9816 0.0021 -0.1911
vn -0.9873 0.0006 -0.1589
vn -0.8540 0.0121 0.5201
vn -0.3077 -0.0000 0.9515
vn -0.8543 -0.0000 0.5198
vn -0.3105 -0.0189 0.9504
vn -0.2722 -0.0190 0.9621
vn -0.8540 -0.0121 0.5201
vn -0.9870 -0.0000 -0.1609
vn -0.9873 -0.0006 -0.1589
vn -0.9735 0.0000 -0.2288
vn -0.9816 -0.0021 -0.1911
vn -0.5908 -0.0000 -0.8068
vn -0.9730 -0.0006 -0.2307
vn -0.5901 -0.0122 -0.8072
vn 0.0766 -0.0189 -0.9969
vn 0.1164 -0.0190 -0.9930
vn -0.9800 -0.0021 -0.1988
vn -0.0097 -0.4828 -0.8757
vn 0.0302 -0.4861 -0.8734
vn -0.6060 -0.3290 -0.7243
vn -0.1066 -0.8421 -0.5286
vn -0.0675 -0.8485 -0.5249
vn -0.1435 -0.9872 -0.0701
vn -0.6645 -0.5766 -0.4754
vn -0.1799 -0.9806 -0.0772
vn -0.1594 -0.9872 0.0099
vn -0.9804 -0.0037 -0.1970
vn -0.7352 -0.6552 -0.1737
vn -0.9806 -0.0165 -0.1955
vn -0.9808 -0.0166 -0.1944
vn -0.7457 -0.6552 -0.1207
vn -0.9812 -0.0038 -0.1929
vn -0.8369 -0.3290 0.4375
vn -0.7958 -0.5766 0.1851
vn -0.1957 -0.9807 0.0025
vn -0.3438 -0.4828 0.8054
vn -0.3061 -0.4862 0.8185
vn -0.3006 -0.8421 0.4477
vn -0.2631 -0.8485 0.4592
vn 0.3061 0.4862 0.8185
vn 0.3006 0.8421 0.4477
vn 0.2631 0.8485 0.4592
vn 0.1594 0.9872 0.0099
vn 0.3438 0.4828 0.8054
vn 0.2722 0.0190 0.9621
vn 0.1957 0.9807 0.0025
vn 0.3105 0.0189 0.9504
vn 0.2695 0.0000 0.9630
vn 0.7958 0.5765 0.1852
vn 0.8369 0.3289 0.4374
vn 0.1799 0.9807 -0.0772
vn 0.1435 0.9872 -0.0701
vn 0.7457 0.6552 -0.1207
vn 0.9812 0.0037 -0.1929
vn 0.1066 0.8421 -0.5287
vn 0.0675 0.8485 -0.5249
vn -0.0302 0.4861 -0.8734
vn 0.7352 0.6552 -0.1737
vn 0.0097 0.4827 -0.8757
vn -0.1164 0.0190 -0.9930
vn 0.6645 0.5766 -0.4754
vn -0.0766 0.0189 -0.9969
vn -0.1193 0.0000 -0.9929
vn 0.6060 0.3290 -0.7243
vn 0.9804 0.0037 -0.1970
vn 0.9806 0.0165 -0.1955
vn 0.9800 0.0021 -0.1988
vn 0.5901 0.0122 -0.8072
vn -0.0795 0.0000 -0.9968
vn -0.0766 -0.0189 -0.9969
vn -0.1164 -0.0190 -0.9930
vn 0.5906 0.0000 -0.8070
vn 0.0097 -0.4827 -0.8757
vn -0.0302 -0.4861 -0.8734
vn 0.5901 -0.0122 -0.8072
vn 0.6060 -0.3290 -0.7243
vn 0.1066 -0.8421 -0.5287
vn 0.0675 -0.8485 -0.5249
vn 0.1435 -0.9872 -0.0701
vn 0.6645 -0.5766 -0.4754
vn 0.1799 -0.9807 -0.0772
vn 0.1594 -0.9872 0.0099
vn 0.9804 -0.0037 -0.1970
vn 0.1957 -0.9807 0.0025
vn 0.9800 -0.0021 -0.1988
vn 0.7352 -0.6552 -0.1737
vn 0.9806 -0.0165 -0.1955
vn 0.9730 -0.0006 -0.2308
vn 0.9808 -0.0166 -0.1943
vn 0.7457 -0.6552 -0.1207
vn 0.9735 -0.0000 -0.2288
vn 0.7958 -0.5765 0.1852
vn 0.9730 0.0006 -0.2308
vn 0.9870 -0.0000 -0.1609
vn 0.9873 -0.0006 -0.1589
vn 0.9873 0.0006 -0.1589
vn 0.9808 0.0166 -0.1943
vn 0.9816 0.0021 -0.1911
vn 0.8540 0.0121 0.5201
vn 0.8543 -0.0000 0.5198
vn 0.3077 -0.0000 0.9515
vn 0.8540 -0.0121 0.5201
vn 0.3105 -0.0189 0.9504
vn 0.2722 -0.0190 0.9621
vn 0.9816 -0.0021 -0.1911
vn 0.8369 -0.3290 0.4375
vn 0.3438 -0.4828 0.8054
vn 0.3061 -0.4861 0.8185
vn 0.9812 -0.0038 -0.1929
vn 0.3006 -0.8421 0.4477
vn 0.2631 -0.8485 0.4592
usemtl mat_0015_light
s 1
f 3/1/1 2/2/2 1/3/3
f 4/4/4 3/1/1 1/3/3
f 3/1/1 5/5/5 2/2/2
f 5/5/5 6/6/6 2/2/2
f 4/4/4 7/7/7 3/1/1
f 5/5/5 8/8/8 6/6/6
f 8/8/8 9/9/9 6/6/6
f 10/10/10 5/5/5 3/1/1
f 10/10/10 3/1/1 7/7/7
f 11/11/11 8/8/8 5/5/5
f 10/10/10 11/11/11 5/5/5
f 12/12/12 7/7/7 4/4/4
f 12/12/12 4/4/4 13/13/13
f 10/10/10 7/7/7 14/14/14
f 12/12/12 14/14/14 7/7/7
f 15/15/15 11/11/11 10/10/10
f 15/15/15 10/10/10 14/14/14
f 13/13/13 16/16/16 12/12/12
f 13/13/13 17/17/17 16/16/16
f 16/16/16 17/17/17 18/18/18
f 16/16/16 18/18/18 19/19/19
f 19/19/19 18/18/18 20/20/20
f 21/21/21 12/12/12 16/16/16
f 21/21/21 16/16/16 19/19/19
f 12/12/12 22/22/22 14/14/14
f 21/21/21 22/22/22 12/12/12
f 19/19/19 20/20/20 23/23/23
f 23/23/23 20/20/20 24/24/24
f 21/21/21 19/19/19 25/25/25
f 25/25/25 19/19/19 23/23/23
f 26/26/26 22/22/22 21/21/21
f 26/26/26 21/21/21 25/25/25
f 22/22/22 27/27/27 14/14/14
f 15/15/15 14/14/14 27/27/27
f 26/26/26 28/28/28 22/22/22
f 22/22/22 28/28/28 27/27/27
f 26/26/26 25/25/25 29/29/29
f 26/26/26 29/29/29 28/28/28
f 29/29/29 25/25/25 30/30/30
f 25/25/25 23/23/23 30/30/30
f 28/28/28 29/29/29 31/31/31
f 29/29/29 30/30/30 31/31/31
f 27/27/27 28/28/28 31/31/31
f 32/32/32 30/30/30 23/23/23
f 23/23/23 24/24/24 32/32/32
f 33/33/33 15/15/15 27/27/27
f 15/15/15 33/33/33 11/11/11
f 33/33/33 27/27/27 34/34/34
f 31/31/31 34/34/34 27/27/27
f 33/33/33 35/35/35 11/11/11
f 33/33/33 34/34/34 35/35/35
f 11/11/11 35/35/35 8/8/8
f 36/36/36 8/8/8 35/35/35
f 8/8/8 36/36/36 9/9/9
f 37/37/37 35/35/35 34/34/34
f 36/36/36 35/35/35 37/37/37
f 9/9/9 36/36/36 38/38/38
f 9/9/9 38/38/38 39/39/39
f 36/36/36 37/37/37 40/40/40
f 36/36/36 40/40/40 38/38/38
f 37/37/37 34/34/34 41/41/41
f 41/41/41 34/34/34 31/31/31
f 37/37/37 42/42/42 40/40/40
f 37/37/37 41/41/41 42/42/42
f 31/31/31 43/43/43 41/41/41
f 44/44/44 40/40/40 42/42/42
f 45/45/45 43/43/43 31/31/31
f 45/45/45 31/31/31 30/30/30
f 32/32/32 45/45/45 30/30/30
f 41/41/41 43/43/43 46/46/46
f 46/46/46 43/43/43 45/45/45
f 41/41/41 46/46/46 42/42/42
f 47/47/47 45/45/45 32/32/32
f 46/46/46 45/45/45 47/47/47
f 47/47/47 32/32/32 48/48/48
f 48/48/48 32/32/32 24/24/24
f 48/48/48 24/24/24 49/49/49
f 47/47/47 50/50/50 46/46/46
f 51/51/51 48/48/48 49/49/49
f 51/51/51 49/49/49 52/52/52
f 48/48/48 53/53/53 47/47/47
f 48/48/48 51/51/51 53/53/53
f 47/47/47 53/53/53 50/50/50
f 54/54/54 51/51/51 52/52/52
f 54/54/54 52/52/52 55/55/55
f 54/54/54 55/55/55 56/56/56
f 51/51/51 57/57/57 53/53/53
f 51/51/51 54/54/54 57/57/57
f 54/54/54 56/56/56 58/58/58
f 57/57/57 54/54/54 58/58/58
f 59/59/59 58/58/58 56/56/56
f 53/53/53 57/57/57 60/60/60
f 53/53/53 60/60/60 50/50/50
f 60/60/60 57/57/57 61/61/61
f 57/57/57 58/58/58 61/61/61
f 60/60/60 62/62/62 50/50/50
f 60/60/60 61/61/61 62/62/62
f 46/46/46 50/50/50 62/62/62
f 62/62/62 63/63/63 46/46/46
f 63/63/63 62/62/62 61/61/61
f 63/63/63 42/42/42 46/46/46
f 44/44/44 42/42/42 63/63/63
f 63/63/63 61/61/61 64/64/64
f 64/64/64 61/61/61 58/58/58
f 63/63/63 65/65/65 44/44/44
f 64/64/64 65/65/65 63/63/63
f 65/65/65 66/66/66 44/44/44
f 44/44/44 66/66/66 40/40/40
f 66/66/66 38/38/38 40/40/40
f 64/64/64 67/67/67 65/65/65
f 65/65/65 67/67/67 66/66/66
f 64/64/64 58/58/58 68/68/68
f 68/68/68 67/67/67 64/64/64
f 59/59/59 68/68/68 58/58/58
f 66/66/66 69/69/69 38/38/38
f 67/67/67 69/69/69 66/66/66
f 39/39/39 38/38/38 69/69/69
f 39/39/39 69/69/69 70/70/70
f 68/68/68 71/71/71 67/67/67
f 67/67/67 71/71/71 69/69/69
f 59/59/59 71/71/71 68/68/68
f 70/70/70 69/69/69 71/71/71
f 59/59/59 72/72/72 71/71/71
f 70/70/70 71/71/71 72/72/72
f 75/73/73 74/74/74 73/75/75
f 76/76/76 73/75/75 74/74/74
f 75/73/73 77/77/77 74/74/74
f 78/78/78 77/77/77 75/73/73
f 76/76/76 74/74/74 79/79/79
f 78/78/78 80/80/80 77/77/77
f 81/81/81 80/80/80 78/78/78
f 82/82/82 74/74/74 77/77/77
f 79/79/79 74/74/74 82/82/82
f 83/83/83 77/77/77 80/80/80
f 82/82/82 77/77/77 83/83/83
f 76/76/76 79/79/79 84/84/84
f 76/76/76 84/84/84 85/85/85
f 79/79/79 82/82/82 86/86/86
f 86/86/86 84/84/84 79/79/79
f 87/87/87 82/82/82 83/83/83
f 86/86/86 82/82/82 87/87/87
f 88/88/88 85/85/85 84/84/84
f 88/88/88 89/89/89 85/85/85
f 88/88/88 90/90/90 89/89/89
f 86/86/86 91/91/91 84/84/84
f 88/88/88 92/92/92 90/90/90
f 92/92/92 93/93/93 90/90/90
f 94/94/94 88/88/88 84/84/84
f 92/92/92 88/88/88 94/94/94
f 94/94/94 84/84/84 91/91/91
f 92/92/92 95/95/95 93/93/93
f 95/95/95 96/96/96 93/93/93
f 92/92/92 94/94/94 97/97/97
f 95/95/95 92/92/92 97/97/97
f 98/98/98 94/94/94 91/91/91
f 97/97/97 94/94/94 98/98/98
f 98/98/98 91/91/91 99/99/99
f 97/97/97 98/98/98 100/100/100
f 98/98/98 99/99/99 100/100/100
f 95/95/95 97/97/97 101/101/101
f 101/101/101 97/97/97 100/100/100
f 95/95/95 102/102/102 96/96/96
f 101/101/101 102/102/102 95/95/95
f 103/103/103 96/96/96 102/102/102
f 103/103/103 104/104/104 96/96/96
f 101/101/101 105/105/105 102/102/102
f 106/106/106 104/104/104 103/103/103
f 106/106/106 107/107/107 104/104/104
f 102/102/102 108/108/108 103/103/103
f 102/102/102 105/105/105 108/108/108
f 109/109/109 106/106/106 103/103/103
f 109/109/109 103/103/103 108/108/108
f 110/110/110 107/107/107 106/106/106
f 110/110/110 111/111/111 107/107/107
f 112/112/112 111/111/111 110/110/110
f 113/113/113 110/110/110 106/106/106
f 113/113/113 106/106/106 109/109/109
f 112/112/112 110/110/110 114/114/114
f 113/113/113 114/114/114 110/110/110
f 114/114/114 115/115/115 112/112/112
f 116/116/116 113/113/113 109/109/109
f 114/114/114 117/117/117 115/115/115
f 116/116/116 109/109/109 118/118/118
f 118/118/118 109/109/109 108/108/108
f 116/116/116 119/119/119 113/113/113
f 113/113/113 119/119/119 114/114/114
f 116/116/116 118/118/118 120/120/120
f 116/116/116 120/120/120 119/119/119
f 118/118/118 108/108/108 121/121/121
f 120/120/120 118/118/118 121/121/121
f 105/105/105 121/121/121 108/108/108
f 119/119/119 120/120/120 122/122/122
f 122/122/122 120/120/120 121/121/121
f 114/114/114 119/119/119 123/123/123
f 119/119/119 122/122/122 123/123/123
f 114/114/114 123/123/123 117/117/117
f 105/105/105 124/124/124 121/121/121
f 125/125/125 117/117/117 123/123/123
f 126/126/126 124/124/124 105/105/105
f 126/126/126 105/105/105 101/101/101
f 101/101/101 100/100/100 126/126/126
f 126/126/126 100/100/100 99/99/99
f 121/121/121 124/124/124 127/127/127
f 127/127/127 124/124/124 126/126/126
f 127/127/127 128/128/128 121/121/121
f 121/121/121 128/128/128 122/122/122
f 127/127/127 126/126/126 129/129/129
f 99/99/99 130/130/130 126/126/126
f 130/130/130 129/129/129 126/126/126
f 130/130/130 99/99/99 91/91/91
f 130/130/130 91/91/91 86/86/86
f 86/86/86 87/87/87 130/130/130
f 130/130/130 87/87/87 131/131/131
f 131/131/131 129/129/129 130/130/130
f 87/87/87 83/83/83 131/131/131
f 131/131/131 83/83/83 132/132/132
f 131/131/131 132/132/132 129/129/129
f 83/83/83 80/80/80 132/132/132
f 133/133/133 127/127/127 129/129/129
f 133/133/133 129/129/129 132/132/132
f 133/133/133 128/128/128 127/127/127
f 134/134/134 132/132/132 80/80/80
f 134/134/134 133/133/133 132/132/132
f 81/81/81 134/134/134 80/80/80
f 133/133/133 135/135/135 128/128/128
f 134/134/134 135/135/135 133/133/133
f 136/136/136 134/134/134 81/81/81
f 134/134/134 136/136/136 135/135/135
f 136/136/136 81/81/81 137/137/137
f 138/138/138 128/128/128 135/135/135
f 138/138/138 122/122/122 128/128/128
f 139/139/139 135/135/135 136/136/136
f 138/138/138 135/135/135 139/139/139
f 140/140/140 136/136/136 137/137/137
f 139/139/139 136/136/136 140/140/140
f 140/140/140 137/137/137 141/141/141
f 138/138/138 142/142/142 122/122/122
f 142/142/142 138/138/138 139/139/139
f 142/142/142 123/123/123 122/122/122
f 142/142/142 125/125/125 123/123/123
f 142/142/142 139/139/139 125/125/125
f 125/125/125 139/139/139 140/140/140
f 143/143/143 140/140/140 141/141/141
f 125/125/125 140/140/140 143/143/143
f 143/143/143 141/141/141 144/144/144
f 125/125/125 143/143/143 117/117/117
f 115/115/115 143/143/143 144/144/144
f 115/115/115 117/117/117 143/143/143
