# Blender v2.93.18 OBJ File: 'Sisu m series 11.blend'
# www.blender.org
mtllib Sisu m interior decals.mtl
o interior_decals_piece_29.001
v -14.064807 18.309631 17.563457
v -14.064807 20.291994 13.657040
v -5.457018 18.309631 17.563457
v -5.457018 20.291994 13.657040
v -14.064807 17.489271 19.180038
v -14.064807 18.263371 17.654631
v -5.457018 17.489271 19.180038
v -5.457018 18.263371 17.654631
v -14.059818 16.137737 21.843351
v -14.059818 17.447018 19.263311
v -5.502443 16.137737 21.843351
v -5.502443 17.447018 19.263311
v -41.371174 27.986626 13.242825
v -41.371174 27.986626 12.172406
v -39.012524 27.986626 13.242825
v -39.012524 27.986626 12.172406
v 16.971430 22.581829 46.574562
v 16.971430 23.290834 46.503002
v 16.971430 22.754988 48.290165
v 16.971430 23.463993 48.218605
vt 0.729965 0.265644
vt 0.005138 0.634520
vt 0.005138 0.265644
vt 0.729965 0.634520
vt 0.729965 0.112994
vt 0.005138 0.257036
vt 0.005138 0.112994
vt 0.729965 0.257036
vt 0.989418 0.993223
vt 0.745790 0.272641
vt 0.989418 0.272641
vt 0.745790 0.993223
vt 0.996552 0.157385
vt 0.735341 0.263099
vt 0.735341 0.157385
vt 0.996552 0.263099
vt 0.993062 0.006943
vt 0.740366 0.115022
vt 0.740366 0.006943
vt 0.993062 0.115022
vn 0.0000 0.8917 0.4525
vn 0.0000 1.0000 0.0000
vn -1.0000 -0.0000 0.0000
usemtl mat_0039_gear_plates
s 1
f 3/1/1 2/2/1 1/3/1
f 3/1/1 4/4/1 2/2/1
f 7/5/1 6/6/1 5/7/1
f 7/5/1 8/8/1 6/6/1
f 11/9/1 10/10/1 9/11/1
f 11/9/1 12/12/1 10/10/1
f 15/13/2 14/14/2 13/15/2
f 15/13/2 16/16/2 14/14/2
f 19/17/3 18/18/3 17/19/3
f 19/17/3 20/20/3 18/18/3
