# Blender v2.93.18 OBJ File: 'Ford Mustang 1965 289 14.blend'
# www.blender.org
mtllib 1965 Mustang wheel nuts.mtl
o wheel_nuts_wheel.001
v 1.129855 0.975972 -1.971286
v 0.068451 0.407980 -2.156454
v 0.068447 0.976072 -1.971553
v 0.068416 0.283745 -2.740625
v 0.068437 0.727724 -3.140281
v 0.068416 1.420010 -2.371181
v 0.068437 1.295940 -2.955840
v 1.130048 0.727730 -3.140351
v 1.129947 1.295768 -2.955577
v 1.129970 0.283662 -2.740381
v 1.129963 1.419999 -2.371166
v 1.129884 0.407870 -2.155999
v 1.129963 2.693911 0.617738
v 0.068447 2.176678 0.319067
v 1.129855 2.176454 0.319034
v 0.068416 2.693868 0.617775
v 1.129947 3.211367 0.319039
v 1.129970 2.693998 -0.577047
v 0.068416 2.694110 -0.577075
v 1.129884 2.176565 -0.278353
v 1.130048 3.211540 -0.278344
v 0.068435 3.211433 -0.278292
v 0.068437 3.211622 0.319133
v 0.068451 2.176967 -0.278353
v 0.068447 0.369184 2.168751
v 0.068416 0.244966 2.752936
v 1.129855 0.369125 2.168511
v 1.129963 0.244918 2.752983
v 0.068451 0.937476 1.984404
v 1.129884 0.937254 1.984014
v 0.068416 1.381377 2.383951
v 0.068435 1.257058 2.968272
v 1.129970 1.381276 2.383777
v 1.129947 0.688950 3.152807
v 1.130048 1.257143 2.968362
v 0.068437 0.689007 3.153098
v 0.068447 -1.948516 1.021293
v 1.129855 -1.948327 1.021194
v 1.129963 -2.542571 1.083667
v 0.068416 -2.542484 1.083662
v 0.068451 -1.597604 1.504780
v 1.129884 -1.597257 1.504475
v 0.068416 -1.840434 2.050405
v 1.129970 -1.840299 2.050269
v 0.068435 -2.434505 2.112811
v 1.130048 -2.434577 2.112863
v 0.068437 -2.785784 1.629560
v 1.129947 -2.785559 1.629419
v 1.129855 -1.573225 -1.537360
v 0.068447 -1.573419 -1.537604
v 1.129963 -1.816350 -2.083202
v 1.129884 -1.924433 -1.054212
v 0.068451 -1.924820 -1.054366
v 1.129970 -2.518638 -1.116688
v 0.068416 -2.518799 -1.116726
v 1.130048 -2.761730 -1.662511
v 0.068435 -2.761710 -1.662497
v 1.129947 -2.410525 -2.145669
v 0.068437 -2.410688 -2.145941
v 0.068416 -1.816277 -2.083178
v 2.872783 0.555438 1.090190
v 2.872483 0.192478 1.214975
v 2.872483 0.869860 0.869860
v 2.964311 0.000000 0.000005
v 2.872783 0.191378 -1.208447
v 2.872483 1.214972 0.192485
v 2.872483 -0.558509 1.096099
v 2.872483 -1.096098 0.558508
v 2.872783 -1.090191 -0.555434
v 2.872783 -0.555439 -1.090186
v 2.872483 -0.192479 -1.214970
v 2.872483 0.558508 -1.096094
v 2.872783 0.865183 -0.865176
v 2.872483 1.096098 -0.558504
v 2.872783 1.208447 -0.191377
v 2.872783 1.090191 0.555444
v 2.872783 -0.191378 1.208451
v 2.872783 -0.865184 0.865181
v 2.872783 -1.208447 0.191382
v 2.872483 -1.214972 -0.192480
v 2.872483 -0.869861 -0.869855
v 0.068447 0.976072 -1.971553
v 0.068451 0.407980 -2.156454
v 1.129855 0.975972 -1.971286
v 1.129855 0.975972 -1.971286
v 0.068437 1.295940 -2.955840
v 0.068416 1.420010 -2.371181
v 1.129970 0.283662 -2.740381
v 1.129970 0.283662 -2.740381
v 1.130048 0.727730 -3.140351
v 1.130048 0.727730 -3.140351
v 1.129947 1.295768 -2.955577
v 1.129947 1.295768 -2.955577
v 1.129963 1.419999 -2.371166
v 1.129963 1.419999 -2.371166
v 1.129884 0.407870 -2.155999
v 1.129884 0.407870 -2.155999
v 0.068416 0.283745 -2.740625
v 0.068437 0.727724 -3.140281
v 1.129855 2.176454 0.319034
v 1.129855 2.176454 0.319034
v 1.129963 2.693911 0.617738
v 1.129963 2.693911 0.617738
v 0.068416 2.693868 0.617775
v 1.129947 3.211367 0.319039
v 1.129947 3.211367 0.319039
v 0.068416 2.694110 -0.577075
v 1.129970 2.693998 -0.577047
v 1.129970 2.693998 -0.577047
v 1.129884 2.176565 -0.278353
v 1.129884 2.176565 -0.278353
v 1.130048 3.211540 -0.278344
v 1.130048 3.211540 -0.278344
v 0.068435 3.211433 -0.278292
v 0.068437 3.211622 0.319133
v 0.068451 2.176967 -0.278353
v 0.068447 2.176678 0.319067
v 0.068416 0.244966 2.752936
v 0.068447 0.369184 2.168751
v 1.129855 0.369125 2.168511
v 1.129855 0.369125 2.168511
v 0.068451 0.937476 1.984404
v 1.129884 0.937254 1.984014
v 1.129884 0.937254 1.984014
v 0.068416 1.381377 2.383951
v 0.068435 1.257058 2.968272
v 1.129970 1.381276 2.383777
v 1.129970 1.381276 2.383777
v 1.130048 1.257143 2.968362
v 1.130048 1.257143 2.968362
v 1.129947 0.688950 3.152807
v 1.129947 0.688950 3.152807
v 0.068437 0.689007 3.153098
v 1.129963 0.244918 2.752983
v 1.129963 0.244918 2.752983
v 0.068447 -1.948516 1.021293
v 1.129855 -1.948327 1.021194
v 1.129855 -1.948327 1.021194
v 0.068416 -2.542484 1.083662
v 0.068451 -1.597604 1.504780
v 1.129884 -1.597257 1.504475
v 1.129884 -1.597257 1.504475
v 0.068416 -1.840434 2.050405
v 1.129970 -1.840299 2.050269
v 1.129970 -1.840299 2.050269
v 0.068435 -2.434505 2.112811
v 1.130048 -2.434577 2.112863
v 1.130048 -2.434577 2.112863
v 0.068437 -2.785784 1.629560
v 1.129947 -2.785559 1.629419
v 1.129947 -2.785559 1.629419
v 1.129963 -2.542571 1.083667
v 1.129963 -2.542571 1.083667
v 0.068447 -1.573419 -1.537604
v 1.129855 -1.573225 -1.537360
v 1.129855 -1.573225 -1.537360
v 1.129963 -1.816350 -2.083202
v 1.129963 -1.816350 -2.083202
v 1.129884 -1.924433 -1.054212
v 1.129884 -1.924433 -1.054212
v 1.129970 -2.518638 -1.116688
v 1.129970 -2.518638 -1.116688
v 0.068416 -2.518799 -1.116726
v 1.130048 -2.761730 -1.662511
v 1.130048 -2.761730 -1.662511
v 1.129947 -2.410525 -2.145669
v 1.129947 -2.410525 -2.145669
v 0.068437 -2.410688 -2.145941
v 0.068416 -1.816277 -2.083178
v 0.068435 -2.761710 -1.662497
v 0.068451 -1.924820 -1.054366
vt 0.175930 0.153490
vt 0.110004 0.153490
vt 0.175930 0.020630
vt 0.110004 0.020630
vt 0.241855 0.153490
vt 0.175930 0.153490
vt 0.241855 0.020630
vt 0.175930 0.020630
vt 0.307781 0.153490
vt 0.241855 0.153490
vt 0.307781 0.020630
vt 0.241855 0.020630
vt 0.373692 0.153490
vt 0.307781 0.153490
vt 0.373692 0.020630
vt 0.307781 0.020630
vt 0.439618 0.153490
vt 0.373692 0.153490
vt 0.439618 0.020630
vt 0.373692 0.020630
vt 0.110004 0.153490
vt 0.044078 0.153490
vt 0.110004 0.020630
vt 0.044078 0.020630
vt 0.111647 0.275869
vt 0.048698 0.275869
vt 0.143121 0.221351
vt 0.017224 0.221351
vt 0.048698 0.166834
vt 0.111647 0.166834
vt 0.175930 0.020630
vt 0.110004 0.153490
vt 0.110004 0.020630
vt 0.175930 0.153490
vt 0.143121 0.221351
vt 0.017224 0.221351
vt 0.048698 0.166834
vt 0.110004 0.153490
vt 0.044078 0.153490
vt 0.110004 0.020630
vt 0.048698 0.275869
vt 0.373692 0.020630
vt 0.307781 0.153490
vt 0.307781 0.020630
vt 0.307781 0.153490
vt 0.241855 0.153490
vt 0.307781 0.020630
vt 0.111647 0.166834
vt 0.111647 0.275869
vt 0.373692 0.153490
vt 0.439618 0.020630
vt 0.373692 0.153490
vt 0.373692 0.020630
vt 0.044078 0.020630
vt 0.439618 0.153490
vt 0.241855 0.020630
vt 0.241855 0.153490
vt 0.175930 0.153490
vt 0.241855 0.020630
vt 0.175930 0.020630
vt 0.175930 0.020630
vt 0.110004 0.153490
vt 0.110004 0.020630
vt 0.241855 0.020630
vt 0.175930 0.153490
vt 0.175930 0.020630
vt 0.175930 0.153490
vt 0.307781 0.020630
vt 0.241855 0.153490
vt 0.241855 0.020630
vt 0.241855 0.153490
vt 0.373692 0.020630
vt 0.307781 0.153490
vt 0.307781 0.020630
vt 0.307781 0.153490
vt 0.143121 0.221351
vt 0.048698 0.275869
vt 0.017224 0.221351
vt 0.111647 0.275869
vt 0.048698 0.166834
vt 0.111647 0.166834
vt 0.373692 0.153490
vt 0.439618 0.020630
vt 0.373692 0.153490
vt 0.373692 0.020630
vt 0.439618 0.153490
vt 0.110004 0.020630
vt 0.044078 0.153490
vt 0.044078 0.020630
vt 0.110004 0.153490
vt 0.241855 0.020630
vt 0.175930 0.153490
vt 0.175930 0.020630
vt 0.175930 0.153490
vt 0.110004 0.153490
vt 0.175930 0.020630
vt 0.110004 0.020630
vt 0.307781 0.020630
vt 0.241855 0.153490
vt 0.241855 0.020630
vt 0.241855 0.153490
vt 0.373692 0.020630
vt 0.307781 0.153490
vt 0.307781 0.020630
vt 0.307781 0.153490
vt 0.439618 0.020630
vt 0.373692 0.153490
vt 0.373692 0.020630
vt 0.373692 0.153490
vt 0.110004 0.020630
vt 0.044078 0.153490
vt 0.044078 0.020630
vt 0.439618 0.153490
vt 0.111647 0.275869
vt 0.048698 0.275869
vt 0.143121 0.221351
vt 0.017224 0.221351
vt 0.110004 0.153490
vt 0.048698 0.166834
vt 0.111647 0.166834
vt 0.241855 0.020630
vt 0.175930 0.153490
vt 0.175930 0.020630
vt 0.175930 0.153490
vt 0.110004 0.153490
vt 0.175930 0.020630
vt 0.143121 0.221351
vt 0.017224 0.221351
vt 0.048698 0.166834
vt 0.111647 0.166834
vt 0.241855 0.153490
vt 0.048698 0.275869
vt 0.307781 0.153490
vt 0.241855 0.153490
vt 0.307781 0.020630
vt 0.373692 0.020630
vt 0.307781 0.153490
vt 0.307781 0.020630
vt 0.111647 0.275869
vt 0.373692 0.153490
vt 0.439618 0.153490
vt 0.373692 0.153490
vt 0.439618 0.020630
vt 0.110004 0.020630
vt 0.044078 0.153490
vt 0.044078 0.020630
vt 0.110004 0.153490
vt 0.110004 0.020630
vt 0.373692 0.020630
vt 0.241855 0.020630
vt 0.347041 0.658156
vt 0.050338 0.809328
vt 0.016337 0.710524
vt 0.110276 0.894900
vt 0.675918 0.710242
vt 0.645368 0.810156
vt 0.677734 0.605777
vt 0.294662 0.988849
vt 0.195858 0.954849
vt 0.399127 0.987043
vt 0.048713 0.506146
vt 0.111578 0.422693
vt 0.018143 0.606059
vt 0.195031 0.359828
vt 0.294944 0.329258
vt 0.498213 0.361453
vt 0.583785 0.421401
vt 0.399409 0.327452
vt 0.643733 0.506973
vt 0.582493 0.893609
vt 0.499040 0.956483
vn -0.0001 0.6692 0.7431
vn -0.0001 0.6691 0.7431
vn -0.0000 0.6691 0.7432
vn 0.0000 0.6690 0.7432
vn -0.0004 -0.3092 0.9510
vn -0.0004 -0.3093 0.9510
vn -0.0003 -0.3094 0.9509
vn -0.0002 -0.3095 0.9509
vn -0.0001 -0.9781 0.2079
vn -0.0002 -0.9781 0.2080
vn -0.0000 -0.6692 -0.7430
vn 0.0000 -0.6692 -0.7431
vn 0.0001 -0.6691 -0.7432
vn 0.0001 -0.6690 -0.7432
vn 0.0003 0.3093 -0.9509
vn 0.0002 0.3091 -0.9510
vn 0.0000 0.3089 -0.9511
vn -0.0001 0.3087 -0.9511
vn 0.0000 0.9781 -0.2079
vn 0.0001 0.9781 -0.2078
vn 0.0001 0.9782 -0.2077
vn 0.0002 0.9782 -0.2076
vn 1.0000 0.0001 0.0003
vn 1.0000 0.0000 0.0000
vn 1.0000 0.0000 0.0001
vn 1.0000 -0.0000 0.0002
vn 0.0000 -0.5000 0.8660
vn 0.0000 -0.5001 0.8659
vn -0.0001 -0.4999 0.8661
vn 1.0000 -0.0001 0.0000
vn 1.0000 -0.0002 0.0000
vn 0.0000 0.4999 0.8661
vn 0.0001 0.4998 0.8661
vn 0.0001 0.4997 0.8662
vn 0.0000 0.5000 -0.8660
vn 0.0001 0.5001 -0.8659
vn 0.0000 -0.4999 -0.8661
vn -0.0001 -0.5000 -0.8660
vn -0.0001 -0.5001 -0.8660
vn 1.0000 -0.0002 0.0002
vn -0.0001 0.4999 -0.8661
vn 0.0000 1.0000 -0.0001
vn 0.0001 1.0000 0.0001
vn -0.0001 1.0000 -0.0003
vn 0.0002 0.4996 0.8662
vn 0.0002 1.0000 0.0003
vn -0.0002 -0.5002 -0.8659
vn -0.0004 -1.0000 -0.0002
vn -0.0003 -1.0000 -0.0003
vn -0.0002 -1.0000 -0.0004
vn -0.0002 -1.0000 -0.0005
vn -0.0000 -0.9781 -0.2079
vn -0.0001 -0.9781 -0.2079
vn -0.0000 -0.9781 -0.2080
vn -0.0003 -0.3086 -0.9512
vn -0.0003 -0.3088 -0.9511
vn -0.0002 -0.3085 -0.9512
vn -0.0001 0.6690 -0.7432
vn -0.0001 0.6691 -0.7432
vn -0.0004 -0.3088 -0.9511
vn 0.0000 0.9781 0.2080
vn 0.0000 0.9781 0.2078
vn 0.0001 0.9781 0.2081
vn -0.0000 0.6691 -0.7432
vn 1.0000 -0.0001 -0.0001
vn 1.0000 -0.0000 -0.0001
vn 1.0000 -0.0002 -0.0002
vn 1.0000 -0.0001 -0.0002
vn -0.0001 0.9782 0.2077
vn 0.0000 0.3092 0.9510
vn 0.0002 0.3089 0.9510
vn -0.0001 0.3094 0.9509
vn 0.0003 0.3088 0.9511
vn 0.0001 -0.6693 0.7429
vn 0.0000 -0.6692 0.7430
vn 0.0002 -0.6694 0.7429
vn -0.0001 -0.6691 0.7431
vn -0.0003 0.8092 -0.5875
vn -0.0003 0.8091 -0.5876
vn -0.0002 0.8093 -0.5874
vn -0.0001 -0.1045 -0.9945
vn -0.0000 -0.1045 -0.9945
vn 0.0000 -0.1044 -0.9945
vn -0.0001 0.9136 0.4067
vn -0.0001 0.9135 0.4067
vn -0.0002 0.9136 0.4066
vn -0.0004 0.8090 -0.5877
vn 0.0001 0.1046 0.9945
vn 0.0000 0.1046 0.9945
vn 0.0001 0.1045 0.9945
vn -0.0001 0.9135 0.4068
vn 0.0000 -0.8090 0.5878
vn 0.0001 -0.8091 0.5876
vn -0.0001 -0.8089 0.5880
vn -0.0000 0.1047 0.9945
vn 0.0001 -0.9134 -0.4070
vn 0.0000 -0.9135 -0.4068
vn 0.0001 -0.9134 -0.4071
vn 0.0002 -0.8092 0.5875
vn 1.0000 0.0001 -0.0003
vn 1.0000 0.0001 -0.0001
vn 1.0000 0.0001 -0.0000
vn -0.0001 -0.9135 -0.4067
vn -0.0003 0.8088 0.5881
vn -0.0003 0.8088 0.5880
vn -0.0001 0.9135 -0.4069
vn -0.0000 0.9135 -0.4068
vn 0.0000 0.9135 -0.4067
vn 1.0000 0.0002 0.0001
vn -0.0004 0.8089 0.5880
vn 0.0000 -0.1046 0.9945
vn -0.0000 -0.1045 0.9945
vn -0.0001 -0.1044 0.9945
vn 0.0001 -0.9135 0.4067
vn 0.0000 -0.9135 0.4068
vn 0.0001 -0.9136 0.4066
vn 1.0000 0.0003 0.0000
vn 0.0002 -0.8089 -0.5880
vn 0.0002 -0.8090 -0.5878
vn 0.0001 -0.8091 -0.5877
vn 0.0002 0.1048 -0.9945
vn 0.0001 0.1047 -0.9945
vn 0.0002 0.1050 -0.9944
vn 0.0000 0.1046 -0.9945
vn 0.0000 0.9136 -0.4067
vn 0.0000 -0.8092 -0.5875
vn 0.9972 0.0338 0.0665
vn 0.9972 0.0116 0.0735
vn 0.9972 0.0526 0.0526
vn 0.9972 0.0117 -0.0737
vn 0.9972 0.0338 -0.0663
vn 0.9972 -0.0116 -0.0735
vn 0.9972 0.0735 0.0116
vn 0.9972 0.0664 0.0338
vn 0.9972 0.0737 -0.0117
vn 0.9972 -0.0338 0.0663
vn 0.9972 -0.0527 0.0527
vn 0.9972 -0.0117 0.0737
vn 0.9972 -0.0663 0.0338
vn 0.9972 -0.0737 0.0117
vn 0.9972 -0.0665 -0.0338
vn 0.9972 -0.0526 -0.0526
vn 0.9972 -0.0735 -0.0116
vn 0.9972 -0.0338 -0.0665
vn 0.9972 0.0527 -0.0527
vn 0.9972 0.0663 -0.0338
usemtl extra2.1
s 1
f 85/1/1 11/2/2 3/3/3
f 3/3/3 11/2/2 6/4/4
f 97/5/5 84/6/6 83/7/7
f 83/7/7 84/6/6 82/8/8
f 10/9/9 96/10/9 98/11/10
f 98/11/10 96/10/9 2/12/10
f 90/13/11 88/14/12 99/15/13
f 99/15/13 88/14/12 4/16/14
f 92/17/15 91/18/16 7/19/17
f 7/19/17 91/18/16 5/20/18
f 95/21/19 9/22/20 87/23/21
f 87/23/21 9/22/20 86/24/22
f 8/25/23 93/26/24 89/27/25
f 89/27/25 93/26/24 94/28/25
f 89/27/25 94/28/25 1/29/26
f 89/27/25 1/29/26 12/30/25
f 117/31/27 102/32/27 104/33/28
f 100/34/29 102/32/27 117/31/27
f 108/35/30 13/36/30 101/37/31
f 103/38/32 105/39/33 16/40/34
f 108/35/30 106/41/24 13/36/30
f 114/42/35 109/43/35 107/44/36
f 18/45/37 110/46/38 19/47/39
f 108/35/30 101/37/31 111/48/30
f 112/49/40 106/41/24 108/35/30
f 113/50/41 109/43/35 114/42/35
f 115/51/42 21/52/43 22/53/44
f 16/40/34 105/39/33 23/54/45
f 17/55/46 21/52/43 115/51/42
f 19/47/39 110/46/38 116/56/47
f 20/57/48 15/58/49 24/59/50
f 24/59/50 15/58/49 14/60/51
f 119/61/52 134/62/53 118/63/54
f 122/64/55 120/65/56 25/66/57
f 27/67/53 134/62/53 119/61/52
f 125/68/58 123/69/59 29/70/58
f 124/71/60 120/65/56 122/64/55
f 126/72/61 127/73/62 31/74/63
f 33/75/64 123/69/59 125/68/58
f 128/76/65 131/77/24 135/78/66
f 129/79/67 131/77/24 128/76/65
f 128/76/65 135/78/66 121/80/68
f 128/76/65 121/80/68 30/81/65
f 130/82/69 127/73/62 126/72/61
f 133/83/70 35/84/71 32/85/72
f 132/86/73 35/84/71 133/83/70
f 26/87/74 34/88/75 36/89/76
f 28/90/77 34/88/75 26/87/74
f 140/91/78 137/92/79 136/93/80
f 38/94/81 152/95/82 37/96/82
f 37/96/82 152/95/82 139/97/83
f 143/98/84 141/99/85 41/100/86
f 142/101/87 137/92/79 140/91/78
f 146/102/88 144/103/89 43/104/90
f 44/105/91 141/99/85 143/98/84
f 149/106/92 147/107/93 45/108/94
f 148/109/95 144/103/89 146/102/88
f 40/110/96 150/111/97 47/112/98
f 151/113/99 147/107/93 149/106/92
f 46/114/100 48/115/24 145/116/101
f 145/116/101 48/115/24 153/117/102
f 39/118/103 150/111/97 40/110/96
f 145/116/101 138/119/101 42/120/101
f 145/116/101 153/117/102 138/119/101
f 171/121/104 155/122/105 154/123/104
f 156/124/106 157/125/107 50/126/108
f 161/127/102 158/128/102 49/129/109
f 161/127/102 49/129/109 159/130/102
f 52/131/110 155/122/105 171/121/104
f 161/127/102 166/132/24 158/128/102
f 162/133/111 160/134/112 163/135/113
f 170/136/114 54/137/115 55/138/116
f 164/139/117 166/132/24 161/127/102
f 56/140/115 54/137/115 170/136/114
f 167/141/118 165/142/119 168/143/120
f 169/144/121 58/145/122 59/146/123
f 51/147/124 58/145/122 169/144/121
f 50/126/108 157/125/107 60/148/125
f 168/143/120 165/142/119 57/149/126
f 163/135/113 160/134/112 53/150/113
f 64/151/24 61/152/127 62/153/128
f 64/151/24 63/154/129 61/152/127
f 64/151/24 65/155/130 72/156/131
f 64/151/24 71/157/132 65/155/130
f 64/151/24 66/158/133 76/159/134
f 75/160/135 66/158/133 64/151/24
f 64/151/24 76/159/134 63/154/129
f 64/151/24 67/161/136 78/162/137
f 64/151/24 77/163/138 67/161/136
f 64/151/24 68/164/139 79/165/140
f 64/151/24 78/162/137 68/164/139
f 64/151/24 69/166/141 81/167/142
f 64/151/24 80/168/143 69/166/141
f 64/151/24 81/167/142 70/169/144
f 70/169/144 71/157/132 64/151/24
f 64/151/24 72/156/131 73/170/145
f 64/151/24 73/170/145 74/171/146
f 64/151/24 74/171/146 75/160/135
f 64/151/24 62/153/128 77/163/138
f 64/151/24 79/165/140 80/168/143
