# Blender v2.93.18 OBJ File: 'Gol Saveiro 16.blend'
# www.blender.org
mtllib Gol Saveiro dash gauges.mtl
o dash_gauges_Painel.007
v -15.050703 13.228515 -38.250538
v -21.340889 13.228515 -38.250538
v -21.340889 10.531944 -37.787670
v -15.050703 10.531944 -37.787670
v -9.023117 13.228515 -38.250576
v -9.023117 10.531944 -37.787670
v -21.340889 7.835415 -37.324795
v -15.050703 7.835415 -37.324795
v -9.023117 7.835415 -37.324795
vt 0.490841 0.996187
vt 0.006261 0.996187
vt 0.006261 0.535736
vt 0.490841 0.538899
vt 0.975421 0.996187
vt 0.975421 0.538899
vt 0.006261 0.075285
vt 0.490841 0.037332
vt 0.975421 0.037332
vn 0.0000 0.1692 0.9856
usemtl Painel.008
s 1
f 1/1/1 2/2/1 3/3/1
f 1/1/1 3/3/1 4/4/1
f 5/5/1 1/1/1 4/4/1
f 5/5/1 4/4/1 6/6/1
f 4/4/1 3/3/1 7/7/1
f 4/4/1 7/7/1 8/8/1
f 6/6/1 4/4/1 8/8/1
f 6/6/1 8/8/1 9/9/1
