# Blender v2.93.18 OBJ File: 'DAF 95 dash.blend'
# www.blender.org
mtllib DAF 95 gauge cluster labels.mtl
o labels_piece_34
v -9.816884 -0.666436 0.400580
v -9.808522 -0.091280 0.389174
v -9.252662 -0.676860 0.288563
v -9.244298 -0.101705 0.277157
v -9.833480 -1.807667 0.423209
v -9.825118 -1.232512 0.411804
v -9.269257 -1.818092 0.311192
v -9.260894 -1.242936 0.299787
v -9.849921 -2.938285 0.445633
v -9.841558 -2.363130 0.434227
v -9.285698 -2.948710 0.333616
v -9.277334 -2.373554 0.322210
v -9.857672 -3.471226 0.456202
v -9.293447 -3.481650 0.344185
v -9.866034 -4.046381 0.467608
v -9.301811 -4.056806 0.355590
v -9.300971 2.400119 0.171877
v -9.294610 2.835184 0.168726
v -8.865896 2.393771 0.173475
v -8.859536 2.828836 0.170324
v -8.644847 2.639987 0.172457
v -8.225093 2.633862 0.173998
v -8.650983 2.220245 0.175496
v -8.231229 2.214120 0.177038
v -8.176400 1.782134 0.180395
v -8.170053 2.216306 0.177247
v -7.742221 1.775799 0.181990
v -7.735874 2.209971 0.178842
v 9.292109 -0.510266 0.286704
v 9.304388 0.047146 0.278849
v 9.837121 -0.520612 0.404078
v 9.849391 0.036801 0.396222
v 9.341617 1.738003 0.255023
v 9.353895 2.295415 0.247169
v 9.886628 1.727658 0.372398
v 9.898898 2.285069 0.364544
v 9.851449 -2.254240 0.437265
v 9.276334 -2.756603 0.333418
v 9.276799 -2.257177 0.318206
v 9.851957 -2.753778 0.447126
vt 0.046338 0.673875
vt 0.009892 0.746768
vt 0.009892 0.673875
vt 0.046338 0.746768
vt 0.046338 0.593235
vt 0.009892 0.666128
vt 0.009892 0.593235
vt 0.046338 0.666128
vt 0.046338 0.511426
vt 0.009892 0.584319
vt 0.009892 0.511426
vt 0.046338 0.584319
vt 0.009892 0.427279
vt 0.046338 0.500172
vt 0.009892 0.500172
vt 0.046338 0.427279
vt 0.044585 0.923977
vt 0.008139 0.996870
vt 0.008139 0.923977
vt 0.044585 0.996870
vt 0.008431 0.848011
vt 0.044877 0.920905
vt 0.008431 0.920905
vt 0.044877 0.848011
vt 0.044877 0.769166
vt 0.008431 0.842059
vt 0.008431 0.769166
vt 0.044877 0.842059
vt 0.989704 0.725461
vt 0.956467 0.791937
vt 0.956467 0.725461
vt 0.989704 0.791937
vt 0.989059 0.909171
vt 0.955821 0.975647
vt 0.955821 0.909171
vt 0.989059 0.975647
vt 0.957494 0.469879
vt 0.987161 0.469879
vt 0.987161 0.517577
vt 0.957488 0.517580
vn 0.1950 0.0166 0.9807
vn -0.0036 0.0073 1.0000
vn -0.2102 0.0184 0.9775
vn -0.1984 0.0246 0.9798
vn -0.1984 0.0245 0.9798
usemtl mat_0046_dashboard
s 1
f 3/1/1 2/2/1 1/3/1
f 3/1/1 4/4/1 2/2/1
f 7/5/1 6/6/1 5/7/1
f 7/5/1 8/8/1 6/6/1
f 11/9/1 10/10/1 9/11/1
f 11/9/1 12/12/1 10/10/1
f 15/13/1 14/14/1 13/15/1
f 15/13/1 16/16/1 14/14/1
f 19/17/2 18/18/2 17/19/2
f 19/17/2 20/20/2 18/18/2
f 23/21/2 22/22/2 21/23/2
f 23/21/2 24/24/2 22/22/2
f 27/25/2 26/26/2 25/27/2
f 27/25/2 28/28/2 26/26/2
f 31/29/3 30/30/3 29/31/3
f 31/29/3 32/32/3 30/30/3
f 35/33/3 34/34/3 33/35/3
f 35/33/3 36/36/3 34/34/3
usemtl mat_0003_dashboard
f 38/37/4 40/38/4 37/39/5
f 38/37/4 37/39/5 39/40/4
