# Blender v2.93.18 OBJ File: 'Ford Transit MK6 New 24.blend'
# www.blender.org
o foxtransit6_steer_logo
v 0.935950 0.541988 -0.719373
v 0.922093 0.536877 -0.649692
v 1.043439 0.499676 -0.643282
v 1.059506 0.505436 -0.721798
v 0.880474 0.531853 -0.582176
v 0.996624 0.494003 -0.566801
v 0.812396 0.527523 -0.518904
v 0.919450 0.488806 -0.494999
v 0.720499 0.523105 -0.461912
v 0.814994 0.484173 -0.429909
v 0.606948 0.519684 -0.412412
v 0.686243 0.479972 -0.374043
v 0.475165 0.516652 -0.372266
v 0.537137 0.476334 -0.328657
v 0.329523 0.514530 -0.342731
v 0.372007 0.474125 -0.294921
v 0.174310 0.513274 -0.324975
v 0.196008 0.472393 -0.274652
v 0.014378 0.512842 -0.318826
v 0.014378 0.472046 -0.267551
v -0.145598 0.513274 -0.324975
v -0.167252 0.472393 -0.274652
v -0.300768 0.514530 -0.342731
v -0.343252 0.474125 -0.294921
v -0.446409 0.516652 -0.372266
v -0.507991 0.476334 -0.328657
v -0.577758 0.519684 -0.412412
v -0.657531 0.479972 -0.374043
v -0.691743 0.523105 -0.461912
v -0.786282 0.484173 -0.429909
v -0.890738 0.488806 -0.494999
v -0.783683 0.527523 -0.518904
v -0.967911 0.494003 -0.566801
v -0.851719 0.531853 -0.582176
v -0.893336 0.536877 -0.649692
v -1.014726 0.499633 -0.643282
v -0.907195 0.541988 -0.719373
v -1.030749 0.505436 -0.721798
v -1.014726 0.510936 -0.800790
v -0.893336 0.547141 -0.789053
v -0.967911 0.516652 -0.877140
v -0.851719 0.551818 -0.856309
v -0.890738 0.521806 -0.948987
v -0.783683 0.556755 -0.919494
v -0.786282 0.526657 -1.013773
v -0.691743 0.560912 -0.976919
v -0.577758 0.564594 -1.026029
v -0.657531 0.530684 -1.069900
v -0.446409 0.567279 -1.065915
v -0.507991 0.534322 -1.115286
v -0.300768 0.569704 -1.095667
v -0.343252 0.536790 -1.148718
v -0.145598 0.570959 -1.113509
v -0.167252 0.538220 -1.169332
v 0.014378 0.571480 -1.119616
v 0.014378 0.538782 -1.176088
v 0.174310 0.570959 -1.113509
v 0.196008 0.538220 -1.169289
v 0.329523 0.569704 -1.095667
v 0.372007 0.536790 -1.148718
v 0.475165 0.567279 -1.065915
v 0.537137 0.534322 -1.115286
v 0.606948 0.564594 -1.026029
v 0.686243 0.530684 -1.069900
v 0.720499 0.560912 -0.976919
v 0.814994 0.526657 -1.013773
v 0.812396 0.556755 -0.919494
v 0.919450 0.521806 -0.948987
v 0.880474 0.551818 -0.856309
v 0.996624 0.516652 -0.877140
v 1.043439 0.510936 -0.800746
v 0.922093 0.547141 -0.789053
v 0.554070 0.580097 -0.674766
v 0.562298 0.583388 -0.716124
v 0.014378 0.606731 -0.714479
v 0.529342 0.577109 -0.634534
v 0.489023 0.574251 -0.597116
v 0.433980 0.572042 -0.563294
v 0.366810 0.569964 -0.533803
v 0.288337 0.568187 -0.509853
v 0.201638 0.566673 -0.492401
v 0.109307 0.565719 -0.481703
v 0.014378 0.565719 -0.477980
v -0.080984 0.565719 -0.481703
v -0.173315 0.566673 -0.492401
v -0.259582 0.568187 -0.509853
v -0.338054 0.569964 -0.533845
v -0.405657 0.572042 -0.563294
v -0.460310 0.574251 -0.597116
v -0.500586 0.577109 -0.634534
v -0.525314 0.580097 -0.674766
v -0.533975 0.583388 -0.716124
v -0.525314 0.586073 -0.757656
v -0.500586 0.589105 -0.797844
v -0.460310 0.591920 -0.835219
v -0.405657 0.594475 -0.869344
v -0.338054 0.596597 -0.898794
v -0.259582 0.598330 -0.922743
v -0.173315 0.599456 -0.939935
v -0.080984 0.600452 -0.950632
v 0.014378 0.600496 -0.954357
v 0.109307 0.600452 -0.950632
v 0.201638 0.599456 -0.939892
v 0.288337 0.598330 -0.922743
v 0.366810 0.596597 -0.898794
v 0.433980 0.594475 -0.869344
v 0.489023 0.591920 -0.835219
v 0.529342 0.589105 -0.797844
v 0.554070 0.586073 -0.757656
v 1.108919 0.459747 -0.725176
v 1.092419 0.453597 -0.642676
v 1.043006 0.447838 -0.562558
v 0.962411 0.442382 -0.487334
v 0.852715 0.437575 -0.419472
v 0.717900 0.433157 -0.360877
v 0.561865 0.429475 -0.313326
v 0.388897 0.427051 -0.278291
v 0.204236 0.425708 -0.256723
v 0.014378 0.425059 -0.249448
v -0.175480 0.425708 -0.256723
v -0.360141 0.427051 -0.278291
v -0.533110 0.429475 -0.313326
v -0.689187 0.433157 -0.360877
v -0.824002 0.437575 -0.419472
v -0.933656 0.442382 -0.487334
v -1.014294 0.447838 -0.562558
v -1.063707 0.453597 -0.642676
v -1.080163 0.459747 -0.725176
v -1.063707 0.465853 -0.807806
v -1.014294 0.471570 -0.887880
v -0.933656 0.477027 -0.963061
v -0.824002 0.482224 -1.031183
v -0.689187 0.486208 -1.089561
v -0.533110 0.490019 -1.137112
v -0.360141 0.492358 -1.172147
v -0.175480 0.494046 -1.193930
v 0.014378 0.494350 -1.201033
v 0.204236 0.494046 -1.193930
v 0.388897 0.492358 -1.172147
v 0.561865 0.490019 -1.137112
v 0.717900 0.486208 -1.089561
v 0.852715 0.482224 -1.031183
v 0.962411 0.477027 -0.963061
v 1.043006 0.471570 -0.887880
v 1.092419 0.465853 -0.807806
vt 0.049700 0.237200
vt 0.052400 0.264600
vt 0.027200 0.269000
vt 0.024100 0.237200
vt 0.060600 0.291300
vt 0.036500 0.300100
vt 0.074000 0.316600
vt 0.051800 0.329500
vt 0.092200 0.339700
vt 0.072500 0.356400
vt 0.114700 0.359900
vt 0.098200 0.379900
vt 0.140800 0.376500
vt 0.128000 0.399100
vt 0.169800 0.388700
vt 0.161000 0.413400
vt 0.200800 0.396300
vt 0.196300 0.422300
vt 0.232700 0.398700
vt 0.232700 0.425000
vt 0.264600 0.396200
vt 0.269100 0.422100
vt 0.295500 0.388600
vt 0.304400 0.413300
vt 0.324500 0.376300
vt 0.337400 0.399000
vt 0.350700 0.359800
vt 0.367200 0.379700
vt 0.373200 0.339600
vt 0.392800 0.356200
vt 0.413600 0.329400
vt 0.391400 0.316500
vt 0.428800 0.299900
vt 0.404800 0.291200
vt 0.412900 0.264500
vt 0.438100 0.268900
vt 0.415700 0.237100
vt 0.441200 0.237100
vt 0.438100 0.205400
vt 0.412900 0.209800
vt 0.428800 0.174300
vt 0.404800 0.183100
vt 0.413600 0.144900
vt 0.391400 0.157800
vt 0.392800 0.118100
vt 0.373200 0.134700
vt 0.350700 0.114600
vt 0.367200 0.094600
vt 0.324500 0.098000
vt 0.337400 0.075400
vt 0.295500 0.085800
vt 0.304300 0.061100
vt 0.264600 0.078200
vt 0.269100 0.052300
vt 0.232700 0.075700
vt 0.232700 0.049400
vt 0.200700 0.078100
vt 0.196300 0.052100
vt 0.169800 0.085700
vt 0.161000 0.061000
vt 0.140800 0.098000
vt 0.128000 0.075300
vt 0.114700 0.114500
vt 0.098200 0.094600
vt 0.092200 0.134700
vt 0.072500 0.118100
vt 0.073900 0.157800
vt 0.051800 0.144900
vt 0.060600 0.183100
vt 0.036500 0.174400
vt 0.027200 0.205400
vt 0.052400 0.209800
vt 0.125700 0.253500
vt 0.124100 0.237200
vt 0.232700 0.237200
vt 0.130600 0.269300
vt 0.138600 0.284200
vt 0.149400 0.297700
vt 0.162700 0.309400
vt 0.178200 0.319000
vt 0.195400 0.326200
vt 0.213700 0.330600
vt 0.232700 0.332100
vt 0.251600 0.330500
vt 0.270000 0.326100
vt 0.287200 0.319000
vt 0.302600 0.309300
vt 0.316000 0.297600
vt 0.326800 0.284100
vt 0.334800 0.269200
vt 0.339600 0.253400
vt 0.341300 0.237200
vt 0.339600 0.220900
vt 0.334800 0.205100
vt 0.326800 0.190200
vt 0.316000 0.176700
vt 0.302600 0.165000
vt 0.287100 0.155400
vt 0.270000 0.148300
vt 0.251600 0.143800
vt 0.232700 0.142300
vt 0.213700 0.143800
vt 0.195400 0.148200
vt 0.178200 0.155400
vt 0.162700 0.165000
vt 0.149400 0.176700
vt 0.138600 0.190200
vt 0.130600 0.205100
vt 0.125700 0.220900
vt 0.010400 0.237200
vt 0.013800 0.273300
vt 0.023800 0.308300
vt 0.040100 0.341200
vt 0.062300 0.371000
vt 0.089700 0.396900
vt 0.121400 0.418000
vt 0.156600 0.433600
vt 0.194100 0.443300
vt 0.232700 0.446100
vt 0.271300 0.443000
vt 0.308800 0.433400
vt 0.343900 0.417800
vt 0.375700 0.396700
vt 0.403000 0.370900
vt 0.425200 0.341100
vt 0.441600 0.308200
vt 0.451500 0.273200
vt 0.455000 0.237200
vt 0.451600 0.201100
vt 0.441600 0.166100
vt 0.425200 0.133200
vt 0.403000 0.103400
vt 0.375600 0.077600
vt 0.343900 0.056500
vt 0.308800 0.040900
vt 0.271300 0.031400
vt 0.232700 0.028300
vt 0.194000 0.031100
vt 0.156600 0.040800
vt 0.121400 0.056500
vt 0.089700 0.077600
vt 0.062300 0.103400
vt 0.040100 0.133300
vt 0.023800 0.166200
vt 0.013800 0.201200
vn 0.2095 0.9752 0.0713
vn 0.2037 0.9664 0.1567
vn 0.4936 0.8291 0.2626
vn 0.5163 0.8542 0.0615
vn 0.1897 0.9537 0.2334
vn 0.4414 0.7881 0.4290
vn 0.1696 0.9388 0.2997
vn 0.3756 0.7427 0.5543
vn 0.1448 0.9229 0.3567
vn 0.3083 0.6974 0.6470
vn 0.1196 0.9075 0.4027
vn 0.2422 0.6593 0.7118
vn 0.0914 0.8942 0.4382
vn 0.1794 0.6276 0.7576
vn 0.0600 0.8856 0.4606
vn 0.1188 0.6049 0.7874
vn 0.0306 0.8792 0.4755
vn 0.0584 0.5935 0.8027
vn 0.0000 0.8777 0.4792
vn 0.0000 0.5882 0.8087
vn -0.0306 0.8792 0.4755
vn -0.0584 0.5935 0.8027
vn -0.0604 0.8851 0.4614
vn -0.1190 0.6048 0.7874
vn -0.0917 0.8942 0.4383
vn -0.1792 0.6281 0.7572
vn -0.1193 0.9075 0.4027
vn -0.2419 0.6595 0.7117
vn -0.1446 0.9229 0.3567
vn -0.3083 0.6974 0.6470
vn -0.3757 0.7427 0.5543
vn -0.1696 0.9388 0.2997
vn -0.4415 0.7881 0.4289
vn -0.1897 0.9537 0.2334
vn -0.2038 0.9664 0.1566
vn -0.4936 0.8291 0.2625
vn -0.2096 0.9752 0.0714
vn -0.5163 0.8542 0.0612
vn -0.4935 0.8585 -0.1395
vn -0.2043 0.9788 -0.0149
vn -0.4420 0.8416 -0.3105
vn -0.1894 0.9775 -0.0934
vn -0.3760 0.8148 -0.4413
vn -0.1708 0.9722 -0.1601
vn -0.3081 0.7845 -0.5383
vn -0.1464 0.9644 -0.2203
vn -0.1191 0.9565 -0.2662
vn -0.2436 0.7540 -0.6100
vn -0.0901 0.9495 -0.3005
vn -0.1785 0.7326 -0.6568
vn -0.0614 0.9432 -0.3264
vn -0.1194 0.7135 -0.6904
vn -0.0304 0.9397 -0.3407
vn -0.0583 0.7041 -0.7077
vn 0.0000 0.9381 -0.3463
vn 0.0001 0.6997 -0.7145
vn 0.0304 0.9397 -0.3408
vn 0.0583 0.7042 -0.7076
vn 0.0614 0.9432 -0.3264
vn 0.1192 0.7135 -0.6904
vn 0.0899 0.9496 -0.3004
vn 0.1788 0.7322 -0.6572
vn 0.1194 0.9565 -0.2662
vn 0.2439 0.7538 -0.6101
vn 0.1465 0.9644 -0.2202
vn 0.3081 0.7845 -0.5383
vn 0.1708 0.9722 -0.1601
vn 0.3759 0.8149 -0.4412
vn 0.1894 0.9774 -0.0935
vn 0.4420 0.8416 -0.3104
vn 0.4931 0.8586 -0.1403
vn 0.2043 0.9788 -0.0149
vn 0.0786 0.9909 0.1093
vn 0.0801 0.9942 0.0718
vn 0.0000 0.9973 0.0733
vn 0.0735 0.9877 0.1380
vn 0.0674 0.9841 0.1641
vn 0.0597 0.9809 0.1853
vn 0.0488 0.9769 0.2081
vn 0.0361 0.9736 0.2256
vn 0.0232 0.9711 0.2374
vn 0.0129 0.9699 0.2433
vn 0.0000 0.9694 0.2455
vn -0.0128 0.9699 0.2433
vn -0.0233 0.9711 0.2374
vn -0.0362 0.9736 0.2255
vn -0.0487 0.9769 0.2082
vn -0.0594 0.9807 0.1863
vn -0.0675 0.9842 0.1638
vn -0.0735 0.9877 0.1380
vn -0.0785 0.9909 0.1096
vn -0.0802 0.9942 0.0718
vn -0.0787 0.9962 0.0360
vn -0.0745 0.9972 0.0104
vn -0.0674 0.9976 -0.0178
vn -0.0586 0.9973 -0.0432
vn -0.0482 0.9967 -0.0651
vn -0.0366 0.9960 -0.0813
vn -0.0250 0.9954 -0.0927
vn -0.0130 0.9950 -0.0990
vn 0.0000 0.9948 -0.1015
vn 0.0130 0.9950 -0.0990
vn 0.0249 0.9954 -0.0927
vn 0.0366 0.9960 -0.0813
vn 0.0483 0.9967 -0.0650
vn 0.0586 0.9974 -0.0430
vn 0.0673 0.9976 -0.0181
vn 0.0745 0.9972 0.0104
vn 0.0788 0.9962 0.0364
vn 0.6784 0.7328 0.0537
vn 0.6533 0.6983 0.2925
vn 0.5874 0.6371 0.4991
vn 0.4965 0.5673 0.6570
vn 0.4030 0.4992 0.7671
vn 0.3103 0.4458 0.8396
vn 0.2255 0.4082 0.8846
vn 0.1487 0.3770 0.9142
vn 0.0716 0.3678 0.9271
vn 0.0000 0.3602 0.9329
vn -0.0716 0.3678 0.9271
vn -0.1489 0.3772 0.9141
vn -0.2252 0.4095 0.8841
vn -0.3103 0.4458 0.8396
vn -0.4030 0.4991 0.7671
vn -0.4966 0.5671 0.6571
vn -0.5876 0.6369 0.4991
vn -0.6530 0.6987 0.2922
vn -0.6786 0.7325 0.0535
vn -0.6508 0.7361 -0.1860
vn -0.5875 0.7027 -0.4014
vn -0.4976 0.6551 -0.5685
vn -0.4010 0.6083 -0.6850
vn -0.3117 0.5619 -0.7663
vn -0.2264 0.5305 -0.8169
vn -0.1482 0.5051 -0.8503
vn -0.0722 0.4951 -0.8658
vn 0.0001 0.4899 -0.8718
vn 0.0721 0.4957 -0.8655
vn 0.1480 0.5049 -0.8504
vn 0.2268 0.5293 -0.8176
vn 0.3117 0.5619 -0.7662
vn 0.4009 0.6083 -0.6850
vn 0.4975 0.6554 -0.5683
vn 0.5877 0.7024 -0.4016
vn 0.6507 0.7361 -0.1862
s 1
f 1/1/1 2/2/2 3/3/3
f 3/3/3 4/4/4 1/1/1
f 2/2/2 5/5/5 6/6/6
f 6/6/6 3/3/3 2/2/2
f 5/5/5 7/7/7 8/8/8
f 8/8/8 6/6/6 5/5/5
f 7/7/7 9/9/9 10/10/10
f 10/10/10 8/8/8 7/7/7
f 9/9/9 11/11/11 12/12/12
f 12/12/12 10/10/10 9/9/9
f 11/11/11 13/13/13 14/14/14
f 14/14/14 12/12/12 11/11/11
f 13/13/13 15/15/15 16/16/16
f 16/16/16 14/14/14 13/13/13
f 15/15/15 17/17/17 18/18/18
f 18/18/18 16/16/16 15/15/15
f 17/17/17 19/19/19 20/20/20
f 20/20/20 18/18/18 17/17/17
f 20/20/20 19/19/19 21/21/21
f 20/20/20 21/21/21 22/22/22
f 22/22/22 21/21/21 23/23/23
f 22/22/22 23/23/23 24/24/24
f 24/24/24 25/25/25 26/26/26
f 24/24/24 23/23/23 25/25/25
f 26/26/26 27/27/27 28/28/28
f 27/27/27 26/26/26 25/25/25
f 28/28/28 29/29/29 30/30/30
f 29/29/29 28/28/28 27/27/27
f 31/31/31 30/30/30 32/32/32
f 32/32/32 30/30/30 29/29/29
f 33/33/33 31/31/31 34/34/34
f 34/34/34 31/31/31 32/32/32
f 34/34/34 35/35/35 33/33/33
f 36/36/36 33/33/33 35/35/35
f 36/36/36 35/35/35 37/37/37
f 37/37/37 38/38/38 36/36/36
f 39/39/39 38/38/38 37/37/37
f 37/37/37 40/40/40 39/39/39
f 41/41/41 39/39/39 40/40/40
f 40/40/40 42/42/42 41/41/41
f 43/43/43 41/41/41 42/42/42
f 42/42/42 44/44/44 43/43/43
f 45/45/45 43/43/43 44/44/44
f 44/44/44 46/46/46 45/45/45
f 46/46/46 47/47/47 48/48/48
f 48/48/48 45/45/45 46/46/46
f 47/47/47 49/49/49 50/50/50
f 50/50/50 48/48/48 47/47/47
f 49/49/49 51/51/51 52/52/52
f 52/52/52 50/50/50 49/49/49
f 51/51/51 53/53/53 54/54/54
f 54/54/54 52/52/52 51/51/51
f 53/53/53 55/55/55 56/56/56
f 56/56/56 54/54/54 53/53/53
f 56/56/56 55/55/55 57/57/57
f 57/57/57 58/58/58 56/56/56
f 58/58/58 57/57/57 59/59/59
f 59/59/59 60/60/60 58/58/58
f 60/60/60 59/59/59 61/61/61
f 61/61/61 62/62/62 60/60/60
f 62/62/62 61/61/61 63/63/63
f 62/62/62 63/63/63 64/64/64
f 64/64/64 63/63/63 65/65/65
f 64/64/64 65/65/65 66/66/66
f 66/66/66 65/65/65 67/67/67
f 66/66/66 67/67/67 68/68/68
f 68/68/68 69/69/69 70/70/70
f 69/69/69 68/68/68 67/67/67
f 71/71/71 70/70/70 72/72/72
f 72/72/72 70/70/70 69/69/69
f 4/4/4 71/71/71 1/1/1
f 1/1/1 71/71/71 72/72/72
f 73/73/73 74/74/74 75/75/75
f 76/76/76 73/73/73 75/75/75
f 77/77/77 76/76/76 75/75/75
f 78/78/78 77/77/77 75/75/75
f 79/79/79 78/78/78 75/75/75
f 80/80/80 79/79/79 75/75/75
f 81/81/81 80/80/80 75/75/75
f 82/82/82 81/81/81 75/75/75
f 83/83/83 82/82/82 75/75/75
f 84/84/84 83/83/83 75/75/75
f 85/85/85 84/84/84 75/75/75
f 86/86/86 85/85/85 75/75/75
f 87/87/87 86/86/86 75/75/75
f 88/88/88 87/87/87 75/75/75
f 89/89/89 88/88/88 75/75/75
f 90/90/90 89/89/89 75/75/75
f 91/91/91 90/90/90 75/75/75
f 92/92/92 91/91/91 75/75/75
f 93/93/93 92/92/92 75/75/75
f 94/94/94 93/93/93 75/75/75
f 95/95/95 94/94/94 75/75/75
f 96/96/96 95/95/95 75/75/75
f 97/97/97 96/96/96 75/75/75
f 98/98/98 97/97/97 75/75/75
f 99/99/99 98/98/98 75/75/75
f 100/100/100 99/99/99 75/75/75
f 101/101/101 100/100/100 75/75/75
f 102/102/102 101/101/101 75/75/75
f 103/103/103 102/102/102 75/75/75
f 104/104/104 103/103/103 75/75/75
f 105/105/105 104/104/104 75/75/75
f 106/106/106 105/105/105 75/75/75
f 107/107/107 106/106/106 75/75/75
f 108/108/108 107/107/107 75/75/75
f 109/109/109 108/108/108 75/75/75
f 74/74/74 109/109/109 75/75/75
f 2/2/2 74/74/74 73/73/73
f 2/2/2 1/1/1 74/74/74
f 73/73/73 76/76/76 5/5/5
f 5/5/5 2/2/2 73/73/73
f 76/76/76 77/77/77 7/7/7
f 76/76/76 7/7/7 5/5/5
f 77/77/77 78/78/78 9/9/9
f 77/77/77 9/9/9 7/7/7
f 11/11/11 78/78/78 79/79/79
f 11/11/11 9/9/9 78/78/78
f 13/13/13 79/79/79 80/80/80
f 13/13/13 11/11/11 79/79/79
f 80/80/80 81/81/81 15/15/15
f 15/15/15 13/13/13 80/80/80
f 81/81/81 82/82/82 17/17/17
f 81/81/81 17/17/17 15/15/15
f 82/82/82 19/19/19 17/17/17
f 82/82/82 83/83/83 19/19/19
f 19/19/19 83/83/83 84/84/84
f 84/84/84 21/21/21 19/19/19
f 21/21/21 84/84/84 85/85/85
f 85/85/85 23/23/23 21/21/21
f 23/23/23 85/85/85 86/86/86
f 86/86/86 25/25/25 23/23/23
f 87/87/87 27/27/27 25/25/25
f 25/25/25 86/86/86 87/87/87
f 88/88/88 29/29/29 27/27/27
f 27/27/27 87/87/87 88/88/88
f 29/29/29 88/88/88 89/89/89
f 89/89/89 32/32/32 29/29/29
f 32/32/32 89/89/89 90/90/90
f 90/90/90 34/34/34 32/32/32
f 34/34/34 90/90/90 91/91/91
f 91/91/91 35/35/35 34/34/34
f 35/35/35 91/91/91 92/92/92
f 92/92/92 37/37/37 35/35/35
f 92/92/92 40/40/40 37/37/37
f 92/92/92 93/93/93 40/40/40
f 93/93/93 42/42/42 40/40/40
f 42/42/42 93/93/93 94/94/94
f 94/94/94 44/44/44 42/42/42
f 44/44/44 94/94/94 95/95/95
f 95/95/95 46/46/46 44/44/44
f 46/46/46 95/95/95 96/96/96
f 96/96/96 47/47/47 46/46/46
f 47/47/47 96/96/96 97/97/97
f 97/97/97 49/49/49 47/47/47
f 49/49/49 97/97/97 98/98/98
f 51/51/51 98/98/98 99/99/99
f 51/51/51 49/49/49 98/98/98
f 99/99/99 100/100/100 53/53/53
f 53/53/53 51/51/51 99/99/99
f 100/100/100 101/101/101 55/55/55
f 55/55/55 53/53/53 100/100/100
f 55/55/55 101/101/101 102/102/102
f 102/102/102 57/57/57 55/55/55
f 57/57/57 102/102/102 103/103/103
f 103/103/103 59/59/59 57/57/57
f 59/59/59 103/103/103 104/104/104
f 104/104/104 61/61/61 59/59/59
f 61/61/61 104/104/104 105/105/105
f 105/105/105 63/63/63 61/61/61
f 63/63/63 105/105/105 106/106/106
f 106/106/106 65/65/65 63/63/63
f 65/65/65 106/106/106 107/107/107
f 107/107/107 67/67/67 65/65/65
f 67/67/67 107/107/107 108/108/108
f 108/108/108 69/69/69 67/67/67
f 69/69/69 108/108/108 109/109/109
f 109/109/109 72/72/72 69/69/69
f 74/74/74 1/1/1 72/72/72
f 72/72/72 109/109/109 74/74/74
f 110/110/110 4/4/4 3/3/3
f 3/3/3 111/111/111 110/110/110
f 3/3/3 6/6/6 112/112/112
f 112/112/112 111/111/111 3/3/3
f 6/6/6 8/8/8 113/113/113
f 113/113/113 112/112/112 6/6/6
f 8/8/8 10/10/10 114/114/114
f 114/114/114 113/113/113 8/8/8
f 10/10/10 12/12/12 115/115/115
f 115/115/115 114/114/114 10/10/10
f 12/12/12 14/14/14 116/116/116
f 116/116/116 115/115/115 12/12/12
f 116/116/116 14/14/14 117/117/117
f 14/14/14 16/16/16 117/117/117
f 117/117/117 16/16/16 118/118/118
f 16/16/16 18/18/18 118/118/118
f 118/118/118 18/18/18 119/119/119
f 18/18/18 20/20/20 119/119/119
f 119/119/119 20/20/20 22/22/22
f 22/22/22 120/120/120 119/119/119
f 120/120/120 22/22/22 24/24/24
f 24/24/24 121/121/121 120/120/120
f 121/121/121 24/24/24 26/26/26
f 26/26/26 122/122/122 121/121/121
f 122/122/122 26/26/26 28/28/28
f 28/28/28 123/123/123 122/122/122
f 123/123/123 28/28/28 30/30/30
f 30/30/30 124/124/124 123/123/123
f 31/31/31 125/125/125 124/124/124
f 124/124/124 30/30/30 31/31/31
f 33/33/33 126/126/126 125/125/125
f 125/125/125 31/31/31 33/33/33
f 36/36/36 127/127/127 126/126/126
f 126/126/126 33/33/33 36/36/36
f 38/38/38 128/128/128 36/36/36
f 127/127/127 36/36/36 128/128/128
f 128/128/128 38/38/38 39/39/39
f 39/39/39 129/129/129 128/128/128
f 41/41/41 130/130/130 39/39/39
f 129/129/129 39/39/39 130/130/130
f 43/43/43 131/131/131 41/41/41
f 130/130/130 41/41/41 131/131/131
f 45/45/45 132/132/132 43/43/43
f 132/132/132 131/131/131 43/43/43
f 48/48/48 133/133/133 45/45/45
f 133/133/133 132/132/132 45/45/45
f 50/50/50 134/134/134 48/48/48
f 134/134/134 133/133/133 48/48/48
f 50/50/50 52/52/52 135/135/135
f 135/135/135 134/134/134 50/50/50
f 52/52/52 54/54/54 136/136/136
f 136/136/136 135/135/135 52/52/52
f 54/54/54 56/56/56 137/137/137
f 137/137/137 136/136/136 54/54/54
f 58/58/58 138/138/138 137/137/137
f 137/137/137 56/56/56 58/58/58
f 138/138/138 58/58/58 60/60/60
f 60/60/60 139/139/139 138/138/138
f 139/139/139 60/60/60 62/62/62
f 62/62/62 140/140/140 139/139/139
f 140/140/140 62/62/62 64/64/64
f 64/64/64 141/141/141 140/140/140
f 141/141/141 64/64/64 66/66/66
f 66/66/66 142/142/142 141/141/141
f 142/142/142 66/66/66 68/68/68
f 68/68/68 143/143/143 142/142/142
f 143/143/143 68/68/68 70/70/70
f 70/70/70 144/144/144 143/143/143
f 144/144/144 70/70/70 71/71/71
f 71/71/71 145/145/145 144/144/144
f 110/110/110 145/145/145 71/71/71
f 71/71/71 4/4/4 110/110/110
