# Blender v2.93.18 OBJ File: 'Ford Transit MK6 New 24.blend'
# www.blender.org
o foxtransit6_dash_badges
v 30.384409 35.307926 46.039677
v 30.381809 34.825489 46.039677
v 29.826094 34.820290 46.049248
v 29.836056 35.328281 46.056572
v 32.164715 35.322697 46.018066
v 31.620258 34.820721 46.017593
v 31.609001 35.317497 46.021965
v 32.162983 34.815094 46.006809
v -3.162234 34.423988 44.237114
v -3.163101 33.919460 44.197269
v -3.610028 33.931587 44.141403
v -3.613926 34.422298 44.168255
v -3.161800 35.171509 44.276043
v -3.162234 34.688202 44.237114
v -3.626095 34.691235 44.185184
v -3.629992 35.174583 44.220654
v -5.060900 35.140762 44.000271
v -5.520820 34.708557 43.889439
v -5.522985 35.154186 43.934959
v -5.060466 34.703362 43.962635
v -5.061766 34.397610 43.945786
v -5.519087 33.956707 43.842331
v -5.520820 34.414898 43.889439
v -5.060900 33.958439 43.910275
v -32.866116 32.187138 47.723671
v -32.880405 31.785202 47.725842
v -33.310398 32.191860 47.850906
v -33.337296 31.790401 47.866070
v -31.574787 32.193203 47.385963
v -31.127857 32.186272 47.290295
v -31.555254 31.801664 47.369553
v -31.113567 31.794300 47.275185
v 30.523554 33.275051 46.360023
v 30.515759 33.133396 46.232311
v 30.416931 33.273708 46.365215
v 30.409094 33.133396 46.238808
v 30.522686 33.242573 46.352703
v 30.516623 33.122608 46.248764
v 30.510994 32.976669 46.156178
v 30.509218 32.804699 46.123260
v 30.404806 32.976669 46.162624
v 30.402596 32.804699 46.129757
v 30.509695 32.630600 46.135773
v 30.403463 32.630600 46.141884
v 30.513592 32.460361 46.195976
v 30.406971 32.464737 46.202038
v 30.510994 32.634499 46.154831
v 30.510128 32.803829 46.142750
v 30.409958 33.122608 46.255264
v 30.405626 32.970127 46.181252
v 30.404329 32.634499 46.161327
v 30.407362 32.499813 46.208099
v 30.403894 32.803829 46.149200
v 30.416498 33.240841 46.356987
v 30.512251 32.970127 46.174751
v 30.514025 32.496784 46.202473
v -26.024042 33.557030 46.515450
v -24.397173 33.557415 46.309395
v -24.398470 32.176273 46.241837
v -26.027506 32.172375 46.460884
v -20.602917 33.561745 45.907639
v -20.585592 32.194889 45.829296
v -17.565535 33.566944 45.615009
v -17.553368 32.213943 45.543167
vt 0.851900 0.402700
vt 0.851900 0.310800
vt 0.800300 0.310800
vt 0.800300 0.402700
vt 0.994400 0.288300
vt 0.943200 0.194700
vt 0.943200 0.288300
vt 0.994400 0.194700
vt 0.990900 0.286800
vt 0.990900 0.194700
vt 0.948300 0.194700
vt 0.948300 0.286800
vt 0.991200 0.286000
vt 0.991200 0.196100
vt 0.947300 0.196100
vt 0.947300 0.286000
vt 0.806100 0.397000
vt 0.850300 0.315700
vt 0.850300 0.397000
vt 0.806100 0.315700
vt 0.805700 0.400600
vt 0.849500 0.317900
vt 0.849500 0.400600
vt 0.805700 0.317900
vt 0.849000 0.395700
vt 0.849000 0.318900
vt 0.806400 0.395700
vt 0.806400 0.318900
vt 0.949800 0.277800
vt 0.992200 0.277800
vt 0.949800 0.205000
vt 0.992200 0.205000
vt 0.524400 0.249400
vt 0.560600 0.249400
vt 0.524400 0.208500
vt 0.560600 0.208500
vt 0.529600 0.255700
vt 0.560900 0.257100
vt 0.595000 0.249400
vt 0.628000 0.249400
vt 0.595000 0.208500
vt 0.628000 0.208500
vt 0.661000 0.249400
vt 0.661000 0.208500
vt 0.694600 0.249400
vt 0.694600 0.208500
vt 0.660900 0.257100
vt 0.627900 0.257100
vt 0.560800 0.200900
vt 0.594600 0.200900
vt 0.661100 0.200900
vt 0.689000 0.201600
vt 0.627900 0.200800
vt 0.530000 0.202000
vt 0.594600 0.257100
vt 0.689200 0.256600
vt 0.995000 0.183300
vt 0.894500 0.182400
vt 0.894400 0.012700
vt 0.995200 0.013200
vt 0.660600 0.181300
vt 0.659300 0.013200
vt 0.473500 0.180700
vt 0.472600 0.014500
vn -0.0234 0.0071 -0.9997
vn -0.0172 0.0001 -0.9999
vn -0.0243 0.0082 -0.9997
vn -0.0302 0.0150 -0.9994
vn -0.0137 0.0158 -0.9998
vn -0.0130 0.0150 -0.9998
vn -0.0071 0.0086 -0.9999
vn -0.0196 0.0222 -0.9996
vn 0.1387 0.0659 -0.9881
vn 0.1258 0.0779 -0.9890
vn 0.1372 0.0673 -0.9883
vn 0.1503 0.0552 -0.9871
vn 0.1146 0.0766 -0.9905
vn 0.1114 0.0797 -0.9906
vn 0.1145 0.0767 -0.9905
vn 0.1176 0.0736 -0.9903
vn 0.1500 0.0928 -0.9843
vn 0.1495 0.0934 -0.9843
vn 0.1421 0.1013 -0.9847
vn 0.1574 0.0848 -0.9839
vn 0.1355 0.0909 -0.9866
vn 0.1351 0.0913 -0.9866
vn 0.1250 0.1019 -0.9869
vn 0.1459 0.0800 -0.9861
vn -0.2753 0.0046 -0.9614
vn -0.2836 -0.0050 -0.9589
vn -0.2855 -0.0071 -0.9584
vn -0.2935 -0.0164 -0.9558
vn -0.2088 0.0306 -0.9775
vn -0.2086 0.0303 -0.9775
vn -0.2084 0.0301 -0.9776
vn -0.0446 0.6703 -0.7408
vn -0.0503 0.5594 -0.8274
vn -0.0447 0.6702 -0.7408
vn 0.9990 -0.0168 -0.0424
vn 0.9985 -0.0031 -0.0551
vn 0.9985 -0.0039 -0.0543
vn 0.9990 -0.0175 -0.0418
vn -0.0576 0.3157 -0.9471
vn -0.0600 0.0594 -0.9964
vn -0.0575 0.3158 -0.9471
vn -0.0606 0.0597 -0.9964
vn -0.0584 -0.2073 -0.9765
vn -0.0567 -0.2082 -0.9764
vn -0.0585 -0.2074 -0.9765
vn -0.0672 -0.3340 -0.9402
vn -0.0627 -0.3366 -0.9396
vn -0.0627 -0.3364 -0.9396
vn 0.9978 -0.0016 -0.0669
vn 0.9977 -0.0017 -0.0675
vn 0.9988 -0.0009 -0.0483
vn 0.9989 -0.0010 -0.0467
vn -0.9985 0.0041 0.0548
vn -0.9989 0.0050 0.0461
vn -0.9989 0.0050 0.0465
vn -0.9984 0.0031 0.0557
vn -0.9990 -0.0041 0.0454
vn -0.9989 -0.0038 0.0459
vn -0.9982 0.0004 0.0594
vn -0.9982 0.0008 0.0602
vn -0.9979 0.0000 0.0649
vn -0.9978 -0.0001 0.0666
vn -0.9979 -0.0028 0.0650
vn -0.9979 -0.0033 0.0654
vn 0.9978 0.0028 -0.0658
vn 0.9978 0.0028 -0.0669
vn 0.9979 -0.0003 -0.0654
vn 0.9979 -0.0003 -0.0652
vn -0.1298 0.0435 -0.9906
vn -0.1154 0.0486 -0.9921
vn -0.1174 0.0473 -0.9920
vn -0.1333 0.0394 -0.9903
vn -0.1016 0.0549 -0.9933
vn -0.1015 0.0551 -0.9933
vn -0.0946 0.0530 -0.9941
vn -0.0941 0.0519 -0.9942
s 1
f 1/1/1 2/2/2 3/3/3
f 3/3/3 4/4/4 1/1/1
f 5/5/5 6/6/6 7/7/7
f 5/5/5 8/8/8 6/6/6
f 9/9/9 10/10/10 11/11/11
f 11/11/11 12/12/12 9/9/9
f 13/13/13 14/14/14 15/15/15
f 15/15/15 16/16/16 13/13/13
f 17/17/17 18/18/18 19/19/19
f 17/17/17 20/20/20 18/18/18
f 21/21/21 22/22/22 23/23/23
f 21/21/21 24/24/24 22/22/22
f 25/25/25 26/26/26 27/27/27
f 27/27/27 26/26/26 28/28/28
f 29/29/29 30/30/30 31/31/30
f 30/30/30 32/32/31 31/31/30
f 33/33/32 34/34/33 35/35/34
f 35/35/34 34/34/33 36/36/33
f 37/37/35 38/38/36 34/34/37
f 33/33/38 37/37/35 34/34/37
f 39/39/39 40/40/40 41/41/41
f 41/41/41 40/40/40 42/42/42
f 40/40/40 43/43/43 44/44/44
f 44/44/44 42/42/42 40/40/40
f 36/36/33 34/34/33 39/39/39
f 39/39/39 41/41/41 36/36/33
f 43/43/45 45/45/46 46/46/47
f 46/46/48 44/44/44 43/43/43
f 47/47/49 43/43/50 40/40/51
f 40/40/51 48/48/52 47/47/49
f 49/49/53 41/41/54 50/50/55
f 49/49/53 36/36/56 41/41/54
f 51/51/57 44/44/58 52/52/59
f 46/46/60 52/52/59 44/44/58
f 42/42/61 44/44/58 51/51/57
f 51/51/57 53/53/62 42/42/61
f 42/42/61 50/50/55 41/41/54
f 50/50/55 42/42/61 53/53/62
f 54/54/63 36/36/56 49/49/53
f 36/36/56 54/54/63 35/35/64
f 38/38/36 55/55/65 39/39/66
f 39/39/66 34/34/37 38/38/36
f 55/55/65 48/48/52 40/40/51
f 40/40/51 39/39/66 55/55/65
f 56/56/67 43/43/50 47/47/49
f 43/43/50 56/56/67 45/45/68
f 57/57/69 58/58/70 59/59/71
f 59/59/71 60/60/72 57/57/69
f 61/61/73 59/59/71 58/58/70
f 61/61/73 62/62/74 59/59/71
f 63/63/75 62/62/74 61/61/73
f 63/63/75 64/64/76 62/62/74
