# Blender v2.93.18 OBJ File: 'Ford Transit MK6 New 24.blend'
# www.blender.org
o foxtransit6_shifter_pattern_foxtransit6_shifter_M_pattern
v 0.725092 20.888653 -2.815934
v 0.790096 20.915936 -2.623305
v 1.044134 21.007311 -2.806015
v 1.003816 20.990425 -2.922425
v 1.055827 20.942350 -2.337609
v 1.204499 21.023336 -2.634563
v 0.905422 20.934559 -2.458392
v 1.115200 21.018574 -2.709050
v 1.408259 20.921135 -2.265758
v 1.416488 21.012510 -2.574411
v 1.305968 21.020739 -2.590432
v 1.226197 20.938021 -2.278712
v 1.034607 20.704163 -3.706846
v 1.192806 20.880428 -3.457528
v 1.203634 20.679478 -3.766131
v 1.292067 20.861805 -3.502956
v 0.777969 20.777357 -3.421582
v 1.039803 20.924164 -3.285641
v 1.104807 20.900780 -3.385205
v 0.888099 20.738379 -3.586061
v 0.719029 20.817196 -3.228955
v 0.984327 20.969202 -3.046673
v 0.999917 20.947159 -3.170922
v 0.703871 20.854919 -3.022419
v 1.414756 20.994757 -3.057541
v 1.402197 20.849632 -3.515083
v 1.385264 20.657825 -3.778302
v 2.075403 20.770857 -2.815934
v 1.782345 20.942787 -2.806015
v 2.015987 20.808968 -2.623305
v 1.818766 20.919397 -2.922425
v 1.627177 20.986528 -2.634563
v 1.759392 20.880856 -2.337609
v 1.905900 20.847076 -2.458392
v 1.713876 20.966171 -2.709050
v 1.590755 20.906410 -2.278712
v 1.526140 21.001251 -2.590432
v 1.738562 20.642668 -3.706846
v 1.512283 20.842318 -3.502956
v 1.613707 20.843611 -3.457528
v 1.567759 20.647430 -3.766131
v 2.004294 20.670383 -3.421582
v 1.703440 20.848377 -3.385205
v 1.771951 20.860458 -3.285641
v 1.888967 20.650898 -3.586061
v 2.069298 20.698965 -3.228955
v 1.814869 20.876093 -3.170922
v 1.834357 20.895151 -3.046673
v 2.090562 20.733612 -3.022419
vt 0.375200 0.920500
vt 0.369900 0.935800
vt 0.349500 0.922500
vt 0.352600 0.913600
vt 0.348900 0.958400
vt 0.337200 0.935700
vt 0.360700 0.948800
vt 0.344000 0.929900
vt 0.321100 0.964600
vt 0.321100 0.940400
vt 0.329500 0.939100
vt 0.335500 0.963300
vt 0.349200 0.849100
vt 0.337600 0.871700
vt 0.335700 0.843900
vt 0.329700 0.867900
vt 0.370200 0.871900
vt 0.349800 0.885400
vt 0.344600 0.877500
vt 0.361100 0.858700
vt 0.375400 0.887300
vt 0.354200 0.904000
vt 0.352900 0.894400
vt 0.377000 0.903900
vt 0.321100 0.903300
vt 0.321100 0.866800
vt 0.321100 0.842300
vt 0.267000 0.920500
vt 0.292700 0.922500
vt 0.272300 0.935800
vt 0.289600 0.913600
vt 0.305000 0.935700
vt 0.293300 0.958300
vt 0.281500 0.948800
vt 0.298200 0.929900
vt 0.306700 0.963300
vt 0.312700 0.939100
vt 0.293000 0.849100
vt 0.312500 0.867900
vt 0.304600 0.871700
vt 0.306500 0.843900
vt 0.272000 0.871900
vt 0.297600 0.877500
vt 0.292400 0.885400
vt 0.281100 0.858700
vt 0.266800 0.887300
vt 0.289300 0.894400
vt 0.288000 0.904000
vt 0.265200 0.903900
vn -0.3626 0.9300 -0.0603
vn -0.3112 0.9495 0.0407
vn -0.1925 0.9808 -0.0304
vn -0.2223 0.9698 -0.1002
vn -0.1232 0.9708 0.2060
vn -0.0624 0.9946 0.0825
vn -0.2305 0.9642 0.1313
vn -0.1346 0.9904 0.0315
vn 0.0792 0.9567 0.2800
vn 0.0832 0.9872 0.1358
vn 0.0212 0.9924 0.1212
vn 0.0039 0.9663 0.2574
vn -0.1315 0.8469 -0.5152
vn -0.0682 0.9085 -0.4123
vn -0.0097 0.8252 -0.5648
vn 0.0095 0.8919 -0.4522
vn -0.3150 0.8827 -0.3487
vn -0.1931 0.9359 -0.2947
vn -0.1420 0.9219 -0.3605
vn -0.2379 0.8647 -0.4425
vn -0.3648 0.8974 -0.2483
vn -0.2385 0.9577 -0.1613
vn -0.2226 0.9474 -0.2300
vn -0.3823 0.9117 -0.1505
vn 0.0856 0.9814 -0.1720
vn 0.0752 0.8850 -0.4596
vn 0.0679 0.8068 -0.5870
vn 0.5188 0.8528 -0.0606
vn 0.3596 0.9327 -0.0294
vn 0.4710 0.8812 0.0414
vn 0.3869 0.9167 -0.0999
vn 0.2332 0.9689 0.0829
vn 0.2900 0.9347 0.2056
vn 0.3945 0.9095 0.1313
vn 0.3048 0.9519 0.0311
vn 0.1681 0.9508 0.2601
vn 0.1535 0.9812 0.1167
vn 0.2785 0.8096 -0.5168
vn 0.1453 0.8824 -0.4475
vn 0.2250 0.8839 -0.4101
vn 0.1546 0.8068 -0.5702
vn 0.4632 0.8148 -0.3487
vn 0.2990 0.8833 -0.3610
vn 0.3520 0.8882 -0.2954
vn 0.3840 0.8104 -0.4426
vn 0.5158 0.8201 -0.2477
vn 0.3836 0.8944 -0.2299
vn 0.4013 0.9016 -0.1615
vn 0.5354 0.8310 -0.1508
s 1
f 1/1/1 2/2/2 3/3/3
f 3/3/3 4/4/4 1/1/1
f 5/5/5 6/6/6 7/7/7
f 6/6/6 8/8/8 7/7/7
f 9/9/9 10/10/10 11/11/11
f 11/11/11 12/12/12 9/9/9
f 13/13/13 14/14/14 15/15/15
f 14/14/14 16/16/16 15/15/15
f 17/17/17 18/18/18 19/19/19
f 19/19/19 20/20/20 17/17/17
f 21/21/21 22/22/22 23/23/23
f 21/21/21 24/24/24 22/22/22
f 25/25/25 22/22/22 4/4/4
f 3/3/3 25/25/25 4/4/4
f 25/25/25 3/3/3 8/8/8
f 6/6/6 25/25/25 8/8/8
f 25/25/25 6/6/6 11/11/11
f 10/10/10 25/25/25 11/11/11
f 25/25/25 26/26/26 16/16/16
f 14/14/14 25/25/25 16/16/16
f 25/25/25 14/14/14 19/19/19
f 18/18/18 25/25/25 19/19/19
f 25/25/25 18/18/18 23/23/23
f 22/22/22 25/25/25 23/23/23
f 24/24/24 4/4/4 22/22/22
f 24/24/24 1/1/1 4/4/4
f 8/8/8 2/2/2 7/7/7
f 2/2/2 8/8/8 3/3/3
f 5/5/5 12/12/12 11/11/11
f 11/11/11 6/6/6 5/5/5
f 27/27/27 15/15/15 16/16/16
f 16/16/16 26/26/26 27/27/27
f 13/13/13 20/20/20 19/19/19
f 19/19/19 14/14/14 13/13/13
f 18/18/18 17/17/17 21/21/21
f 21/21/21 23/23/23 18/18/18
f 28/28/28 29/29/29 30/30/30
f 28/28/28 31/31/31 29/29/29
f 32/32/32 33/33/33 34/34/34
f 34/34/34 35/35/35 32/32/32
f 10/10/10 9/9/9 36/36/36
f 36/36/36 37/37/37 10/10/10
f 38/38/38 39/39/39 40/40/40
f 38/38/38 41/41/41 39/39/39
f 42/42/42 43/43/43 44/44/44
f 43/43/43 42/42/42 45/45/45
f 46/46/46 47/47/47 48/48/48
f 48/48/48 49/49/49 46/46/46
f 25/25/25 31/31/31 48/48/48
f 29/29/29 31/31/31 25/25/25
f 25/25/25 35/35/35 29/29/29
f 32/32/32 35/35/35 25/25/25
f 25/25/25 37/37/37 32/32/32
f 10/10/10 37/37/37 25/25/25
f 25/25/25 39/39/39 26/26/26
f 40/40/40 39/39/39 25/25/25
f 25/25/25 43/43/43 40/40/40
f 44/44/44 43/43/43 25/25/25
f 25/25/25 47/47/47 44/44/44
f 48/48/48 47/47/47 25/25/25
f 28/28/28 49/49/49 31/31/31
f 48/48/48 31/31/31 49/49/49
f 35/35/35 34/34/34 30/30/30
f 30/30/30 29/29/29 35/35/35
f 33/33/33 32/32/32 37/37/37
f 37/37/37 36/36/36 33/33/33
f 41/41/41 27/27/27 26/26/26
f 26/26/26 39/39/39 41/41/41
f 40/40/40 43/43/43 45/45/45
f 45/45/45 38/38/38 40/40/40
f 44/44/44 47/47/47 46/46/46
f 46/46/46 42/42/42 44/44/44
