# Blender v2.93.18 OBJ File: 'Ford Transit MK6 New 24.blend'
# www.blender.org
o foxtransit6_door_RR_logo_ext
v 9.350221 -15.653705 -1.108065
v 9.691522 -15.679688 -1.233488
v 9.651593 -15.878120 -1.232523
v 9.305093 -15.878598 -1.107117
v 9.483953 -15.435698 -1.112354
v 9.809189 -15.487793 -1.237383
v 9.702825 -15.231155 -1.120150
v 10.001990 -15.307160 -1.244012
v 9.999393 -15.046192 -1.130590
v 10.263824 -15.144365 -1.253487
v 10.364990 -14.886432 -1.143968
v 10.585985 -15.003664 -1.265665
v 10.788316 -14.757034 -1.160072
v 10.959421 -14.889465 -1.279520
v 11.256854 -14.661542 -1.177537
v 11.372786 -14.805231 -1.295147
v 11.756183 -14.603337 -1.196587
v 11.813047 -14.753522 -1.311705
v 12.271582 -14.583804 -1.216595
v 12.267249 -14.736200 -1.329069
v 12.786546 -14.603337 -1.236132
v 12.721411 -14.753522 -1.346819
v 13.285875 -14.661542 -1.255611
v 13.161715 -14.805231 -1.363754
v 13.754369 -14.757034 -1.273847
v 13.574645 -14.889465 -1.379817
v 14.178171 -14.886432 -1.290741
v 13.948038 -15.003664 -1.394546
v 14.270676 -15.144365 -1.407638
v 14.543768 -15.046192 -1.305159
v 14.532076 -15.307160 -1.418028
v 14.840337 -15.231155 -1.317328
v 14.724835 -15.487793 -1.426252
v 15.058732 -15.435698 -1.326425
v 14.842500 -15.679688 -1.431455
v 15.192464 -15.653705 -1.332526
v 14.882430 -15.878120 -1.433704
v 15.237634 -15.878598 -1.334692
v 15.192464 -16.103493 -1.333743
v 14.842500 -16.076162 -1.432798
v 15.058300 -16.321453 -1.329446
v 14.724402 -16.268494 -1.428854
v 14.839902 -16.525991 -1.321574
v 14.532076 -16.449121 -1.421922
v 14.543336 -16.710958 -1.311218
v 14.270199 -16.611958 -1.412824
v 14.177739 -16.870287 -1.297791
v 13.948038 -16.752619 -1.400706
v 13.754369 -16.999683 -1.281686
v 13.574645 -16.866776 -1.386800
v 13.285440 -17.095219 -1.264364
v 13.161236 -16.951097 -1.371114
v 12.786111 -17.153856 -1.245271
v 12.720979 -17.002323 -1.354657
v 12.271147 -17.173384 -1.225256
v 12.266817 -17.019650 -1.337243
v 11.812613 -17.002323 -1.319443
v 11.756183 -17.153856 -1.205685
v 11.372312 -16.951097 -1.302515
v 11.256854 -17.095219 -1.186147
v 10.958945 -16.866776 -1.286536
v 10.787882 -16.999683 -1.167961
v 10.585551 -16.752619 -1.271724
v 10.364555 -16.870287 -1.150992
v 10.263349 -16.611958 -1.258691
v 9.998960 -16.710958 -1.136649
v 10.001990 -16.449121 -1.248209
v 9.702393 -16.525991 -1.124522
v 9.483953 -16.321453 -1.115392
v 9.809189 -16.268494 -1.240026
v 9.691522 -16.076162 -1.234831
v 9.350221 -16.103493 -1.109274
v 12.259411 -15.877297 -1.531358
v 10.706682 -15.877729 -1.399363
v 10.730587 -15.759628 -1.399833
v 10.800488 -15.645434 -1.401998
v 10.915120 -15.538159 -1.406329
v 11.070980 -15.441324 -1.411951
v 11.262486 -15.357527 -1.418934
v 11.484821 -15.289360 -1.427158
v 11.730547 -15.239426 -1.436306
v 11.992381 -15.209028 -1.446259
v 12.262444 -15.198630 -1.456699
v 12.532508 -15.209028 -1.467139
v 12.794382 -15.239426 -1.477093
v 13.040105 -15.289360 -1.487013
v 13.262445 -15.357527 -1.495757
v 13.453906 -15.441324 -1.503210
v 13.609334 -15.538159 -1.509672
v 13.724011 -15.645434 -1.514422
v 13.794341 -15.759628 -1.517493
v 13.817771 -15.877729 -1.518702
v 13.794341 -15.995395 -1.518333
v 13.724011 -16.110029 -1.516201
v 13.609334 -16.217258 -1.511837
v 13.453906 -16.314093 -1.506197
v 13.261970 -16.397890 -1.499232
v 13.040105 -16.465622 -1.490991
v 12.794382 -16.515560 -1.481860
v 12.532508 -16.546434 -1.471856
v 12.262010 -16.556829 -1.461416
v 11.991947 -16.546434 -1.451110
v 11.730112 -16.515560 -1.440586
v 11.484347 -16.465622 -1.431052
v 11.262486 -16.397890 -1.422358
v 11.070546 -16.314093 -1.414603
v 10.915120 -16.217258 -1.408460
v 10.800488 -16.110029 -1.403744
v 10.730587 -15.995395 -1.400706
v 9.170020 -15.879030 -0.962122
v 9.217355 -15.643265 -0.962987
v 9.357627 -15.415299 -0.967703
v 9.586460 -15.200800 -0.975978
v 9.896929 -15.007088 -0.986846
v 10.279892 -14.839926 -1.001138
v 10.723660 -14.704456 -1.017730
v 11.214284 -14.604633 -1.036311
v 11.737474 -14.543399 -1.056276
v 12.276776 -14.523002 -1.076711
v 12.816080 -14.543399 -1.097625
v 13.339315 -14.604633 -1.118035
v 13.829940 -14.704456 -1.137119
v 14.273707 -14.839926 -1.154491
v 14.656239 -15.007088 -1.170118
v 14.967096 -15.200800 -1.182690
v 15.195929 -15.415299 -1.192215
v 15.335768 -15.643265 -1.198316
v 15.383102 -15.879030 -1.200926
v 15.335768 -16.114355 -1.200095
v 15.195496 -16.342720 -1.195287
v 14.966706 -16.556829 -1.187448
v 14.656239 -16.750885 -1.176144
v 14.273273 -16.917662 -1.161852
v 13.829505 -17.053558 -1.145310
v 13.338839 -17.153423 -1.126604
v 12.816080 -17.214617 -1.106680
v 12.276344 -17.235060 -1.086279
v 11.737084 -17.214617 -1.065457
v 11.213849 -17.153423 -1.045097
v 10.723226 -17.053558 -1.025913
v 10.279892 -16.917662 -1.008540
v 9.896929 -16.750885 -0.993342
v 9.586460 -16.556829 -0.980829
v 9.357627 -16.342720 -0.970783
v 9.217355 -16.114355 -0.964724
vt 0.438200 0.269000
vt 0.413000 0.264500
vt 0.415800 0.237100
vt 0.441300 0.237200
vt 0.428900 0.300000
vt 0.404800 0.291200
vt 0.413600 0.329400
vt 0.391400 0.316500
vt 0.392900 0.356300
vt 0.373200 0.339600
vt 0.367200 0.379700
vt 0.350700 0.359800
vt 0.337400 0.399000
vt 0.324600 0.376300
vt 0.304400 0.413300
vt 0.295600 0.388600
vt 0.269100 0.422300
vt 0.264600 0.396200
vt 0.232700 0.424000
vt 0.232700 0.397900
vt 0.196400 0.422300
vt 0.200800 0.396200
vt 0.161100 0.413300
vt 0.169900 0.388600
vt 0.128000 0.399000
vt 0.140900 0.376300
vt 0.098200 0.379700
vt 0.114800 0.359800
vt 0.092200 0.339600
vt 0.072600 0.356300
vt 0.074000 0.316500
vt 0.051800 0.329400
vt 0.060600 0.291200
vt 0.036600 0.300000
vt 0.052500 0.264500
vt 0.027300 0.269000
vt 0.049700 0.237100
vt 0.024200 0.237200
vt 0.027300 0.205400
vt 0.052500 0.209700
vt 0.036600 0.174300
vt 0.060600 0.183000
vt 0.051800 0.144900
vt 0.074000 0.157800
vt 0.072600 0.118000
vt 0.092200 0.134600
vt 0.098200 0.094500
vt 0.114700 0.114400
vt 0.128000 0.075300
vt 0.140900 0.097900
vt 0.161100 0.060900
vt 0.169900 0.085600
vt 0.196300 0.052100
vt 0.200800 0.078000
vt 0.232700 0.049100
vt 0.232700 0.075500
vt 0.264700 0.078000
vt 0.269100 0.052100
vt 0.295600 0.085600
vt 0.304400 0.060900
vt 0.324600 0.097900
vt 0.337500 0.075200
vt 0.350700 0.114400
vt 0.367300 0.094500
vt 0.373300 0.134600
vt 0.392900 0.118000
vt 0.391500 0.157800
vt 0.413700 0.144900
vt 0.428900 0.174300
vt 0.404800 0.183000
vt 0.413000 0.209700
vt 0.438200 0.205400
vt 0.232700 0.237000
vt 0.341300 0.237100
vt 0.339700 0.253400
vt 0.334800 0.269200
vt 0.326800 0.284000
vt 0.316000 0.297500
vt 0.302700 0.309200
vt 0.287200 0.318800
vt 0.270000 0.326000
vt 0.251700 0.330300
vt 0.232700 0.331600
vt 0.213700 0.330300
vt 0.195400 0.326000
vt 0.178300 0.318800
vt 0.162800 0.309200
vt 0.149400 0.297500
vt 0.138600 0.284000
vt 0.130600 0.269200
vt 0.125800 0.253400
vt 0.124100 0.237100
vt 0.125800 0.220800
vt 0.130600 0.205000
vt 0.138600 0.190100
vt 0.149400 0.176600
vt 0.162800 0.164900
vt 0.178300 0.155200
vt 0.195400 0.148100
vt 0.213800 0.143600
vt 0.232700 0.142100
vt 0.251700 0.143600
vt 0.270000 0.148100
vt 0.287200 0.155200
vt 0.302700 0.164900
vt 0.316000 0.176600
vt 0.326900 0.190100
vt 0.334800 0.205000
vt 0.339700 0.220800
vt 0.455000 0.237200
vt 0.451600 0.273200
vt 0.441600 0.308200
vt 0.425300 0.341100
vt 0.403100 0.370900
vt 0.375700 0.396800
vt 0.344000 0.417800
vt 0.308800 0.433500
vt 0.271300 0.443300
vt 0.232700 0.445100
vt 0.194100 0.443300
vt 0.156600 0.433500
vt 0.121500 0.417800
vt 0.089800 0.396800
vt 0.062400 0.370900
vt 0.040200 0.341100
vt 0.023900 0.308200
vt 0.013800 0.273200
vt 0.010500 0.237200
vt 0.013800 0.201100
vt 0.023800 0.166100
vt 0.040200 0.133200
vt 0.062400 0.103300
vt 0.089700 0.077500
vt 0.121500 0.056400
vt 0.156600 0.040800
vt 0.194100 0.031200
vt 0.232700 0.027900
vt 0.271400 0.031200
vt 0.308900 0.040800
vt 0.344000 0.056400
vt 0.375700 0.077500
vt 0.403100 0.103300
vt 0.425300 0.133200
vt 0.441600 0.166100
vt 0.451600 0.201100
vn -0.5483 0.2132 -0.8087
vn -0.2548 0.0942 -0.9624
vn -0.2609 0.0031 -0.9653
vn -0.5718 0.0022 -0.8204
vn -0.4908 0.3882 -0.7800
vn -0.2391 0.1776 -0.9546
vn -0.4188 0.5198 -0.7446
vn -0.2169 0.2502 -0.9436
vn -0.3462 0.6153 -0.7082
vn -0.1911 0.3101 -0.9313
vn -0.2766 0.6833 -0.6758
vn -0.1625 0.3581 -0.9195
vn -0.2098 0.7306 -0.6498
vn -0.1311 0.3950 -0.9093
vn -0.1460 0.7617 -0.6312
vn -0.0993 0.4210 -0.9016
vn -0.0842 0.7790 -0.6214
vn -0.0669 0.4363 -0.8973
vn -0.0238 0.7849 -0.6191
vn -0.0347 0.4410 -0.8968
vn 0.0364 0.7793 -0.6256
vn -0.0018 0.4365 -0.8997
vn 0.0971 0.7614 -0.6409
vn 0.0300 0.4208 -0.9067
vn 0.1591 0.7303 -0.6644
vn 0.0612 0.3949 -0.9167
vn 0.2236 0.6834 -0.6950
vn 0.0905 0.3580 -0.9293
vn 0.1190 0.3097 -0.9434
vn 0.2913 0.6153 -0.7325
vn 0.1441 0.2500 -0.9575
vn 0.3607 0.5198 -0.7744
vn 0.1652 0.1779 -0.9701
vn 0.4290 0.3882 -0.8156
vn 0.1802 0.0947 -0.9791
vn 0.4847 0.2128 -0.8484
vn 0.1862 0.0031 -0.9825
vn 0.5076 0.0023 -0.8616
vn 0.4846 -0.2077 -0.8497
vn 0.1804 -0.0881 -0.9796
vn 0.4290 -0.3829 -0.8182
vn 0.1652 -0.1714 -0.9713
vn 0.3611 -0.5146 -0.7777
vn 0.1444 -0.2431 -0.9592
vn 0.2912 -0.6103 -0.7367
vn 0.1188 -0.3027 -0.9456
vn 0.2235 -0.6788 -0.6995
vn 0.0905 -0.3518 -0.9317
vn 0.1590 -0.7256 -0.6695
vn 0.0612 -0.3886 -0.9194
vn 0.0970 -0.7567 -0.6465
vn 0.0298 -0.4141 -0.9097
vn 0.0361 -0.7747 -0.6312
vn -0.0023 -0.4294 -0.9031
vn -0.0241 -0.7804 -0.6248
vn -0.0348 -0.4351 -0.8997
vn -0.0669 -0.4290 -0.9008
vn -0.0843 -0.7743 -0.6271
vn -0.0993 -0.4145 -0.9046
vn -0.1462 -0.7569 -0.6369
vn -0.1312 -0.3887 -0.9120
vn -0.2100 -0.7257 -0.6552
vn -0.1625 -0.3517 -0.9219
vn -0.2767 -0.6789 -0.6801
vn -0.1908 -0.3035 -0.9335
vn -0.3464 -0.6107 -0.7120
vn -0.2172 -0.2429 -0.9454
vn -0.4199 -0.5147 -0.7475
vn -0.4913 -0.3826 -0.7825
vn -0.2394 -0.1706 -0.9558
vn -0.2550 -0.0874 -0.9630
vn -0.5484 -0.2079 -0.8100
vn -0.0384 0.0035 -0.9993
vn -0.1250 0.0036 -0.9922
vn -0.1228 0.0397 -0.9916
vn -0.1179 0.0719 -0.9904
vn -0.1104 0.1016 -0.9887
vn -0.1006 0.1286 -0.9866
vn -0.0897 0.1506 -0.9845
vn -0.0775 0.1680 -0.9827
vn -0.0644 0.1805 -0.9815
vn -0.0514 0.1878 -0.9809
vn -0.0379 0.1903 -0.9810
vn -0.0239 0.1875 -0.9820
vn -0.0110 0.1806 -0.9835
vn 0.0018 0.1681 -0.9858
vn 0.0145 0.1499 -0.9886
vn 0.0249 0.1286 -0.9914
vn 0.0338 0.1026 -0.9941
vn 0.0414 0.0723 -0.9965
vn 0.0466 0.0386 -0.9982
vn 0.0485 0.0035 -0.9988
vn 0.0467 -0.0310 -0.9984
vn 0.0412 -0.0660 -0.9970
vn 0.0336 -0.0965 -0.9948
vn 0.0248 -0.1213 -0.9923
vn 0.0142 -0.1432 -0.9896
vn 0.0023 -0.1608 -0.9870
vn -0.0105 -0.1732 -0.9848
vn -0.0243 -0.1809 -0.9832
vn -0.0377 -0.1833 -0.9823
vn -0.0521 -0.1808 -0.9821
vn -0.0651 -0.1734 -0.9827
vn -0.0774 -0.1610 -0.9839
vn -0.0899 -0.1432 -0.9856
vn -0.1007 -0.1218 -0.9874
vn -0.1098 -0.0961 -0.9893
vn -0.1176 -0.0657 -0.9909
vn -0.1229 -0.0322 -0.9919
vn -0.7317 0.0022 -0.6817
vn -0.7043 0.2533 -0.6632
vn -0.6310 0.4696 -0.6175
vn -0.5321 0.6332 -0.5621
vn -0.4299 0.7456 -0.5092
vn -0.3339 0.8195 -0.4658
vn -0.2460 0.8675 -0.4324
vn -0.1650 0.8966 -0.4110
vn -0.0884 0.9117 -0.4011
vn -0.0153 0.9171 -0.3984
vn 0.0574 0.9118 -0.4066
vn 0.1330 0.8965 -0.4226
vn 0.2118 0.8673 -0.4505
vn 0.2976 0.8201 -0.4888
vn 0.3896 0.7458 -0.5404
vn 0.4874 0.6330 -0.6014
vn 0.5810 0.4693 -0.6649
vn 0.6515 0.2528 -0.7153
vn 0.6770 0.0024 -0.7360
vn 0.6507 -0.2478 -0.7178
vn 0.5809 -0.4653 -0.6679
vn 0.4877 -0.6290 -0.6054
vn 0.3899 -0.7422 -0.5452
vn 0.2972 -0.8172 -0.4939
vn 0.2114 -0.8638 -0.4574
vn 0.1328 -0.8934 -0.4292
vn 0.0578 -0.9096 -0.4114
vn -0.0156 -0.9142 -0.4049
vn -0.0892 -0.9094 -0.4064
vn -0.1651 -0.8929 -0.4188
vn -0.2462 -0.8638 -0.4396
vn -0.3339 -0.8170 -0.4702
vn -0.4304 -0.7426 -0.5131
vn -0.5333 -0.6295 -0.5651
vn -0.6313 -0.4652 -0.6205
vn -0.7038 -0.2482 -0.6656
s 1
f 1/1/1 2/2/2 3/3/3
f 3/3/3 4/4/4 1/1/1
f 5/5/5 6/6/6 2/2/2
f 2/2/2 1/1/1 5/5/5
f 7/7/7 8/8/8 6/6/6
f 6/6/6 5/5/5 7/7/7
f 8/8/8 7/7/7 9/9/9
f 9/9/9 10/10/10 8/8/8
f 10/10/10 9/9/9 11/11/11
f 11/11/11 12/12/12 10/10/10
f 12/12/12 11/11/11 13/13/13
f 13/13/13 14/14/14 12/12/12
f 14/14/14 13/13/13 15/15/15
f 15/15/15 16/16/16 14/14/14
f 16/16/16 15/15/15 17/17/17
f 17/17/17 18/18/18 16/16/16
f 18/18/18 17/17/17 19/19/19
f 19/19/19 20/20/20 18/18/18
f 21/21/21 22/22/22 19/19/19
f 22/22/22 20/20/20 19/19/19
f 23/23/23 24/24/24 21/21/21
f 22/22/22 21/21/21 24/24/24
f 25/25/25 26/26/26 23/23/23
f 24/24/24 23/23/23 26/26/26
f 27/27/27 28/28/28 25/25/25
f 26/26/26 25/25/25 28/28/28
f 29/29/29 27/27/27 30/30/30
f 28/28/28 27/27/27 29/29/29
f 30/30/30 31/31/31 29/29/29
f 31/31/31 30/30/30 32/32/32
f 32/32/32 33/33/33 31/31/31
f 33/33/33 32/32/32 34/34/34
f 34/34/34 35/35/35 33/33/33
f 34/34/34 36/36/36 35/35/35
f 37/37/37 35/35/35 36/36/36
f 36/36/36 38/38/38 37/37/37
f 37/37/37 38/38/38 39/39/39
f 39/39/39 40/40/40 37/37/37
f 40/40/40 39/39/39 41/41/41
f 41/41/41 42/42/42 40/40/40
f 42/42/42 41/41/41 43/43/43
f 43/43/43 44/44/44 42/42/42
f 44/44/44 43/43/43 45/45/45
f 45/45/45 46/46/46 44/44/44
f 47/47/47 48/48/48 46/46/46
f 46/46/46 45/45/45 47/47/47
f 49/49/49 50/50/50 48/48/48
f 48/48/48 47/47/47 49/49/49
f 51/51/51 52/52/52 50/50/50
f 50/50/50 49/49/49 51/51/51
f 53/53/53 54/54/54 52/52/52
f 52/52/52 51/51/51 53/53/53
f 55/55/55 56/56/56 54/54/54
f 54/54/54 53/53/53 55/55/55
f 57/57/57 56/56/56 55/55/55
f 55/55/55 58/58/58 57/57/57
f 59/59/59 57/57/57 58/58/58
f 58/58/58 60/60/60 59/59/59
f 61/61/61 59/59/59 60/60/60
f 60/60/60 62/62/62 61/61/61
f 63/63/63 61/61/61 62/62/62
f 64/64/64 63/63/63 62/62/62
f 65/65/65 63/63/63 64/64/64
f 66/66/66 65/65/65 64/64/64
f 67/67/67 65/65/65 66/66/66
f 68/68/68 67/67/67 66/66/66
f 69/69/69 70/70/70 68/68/68
f 67/67/67 68/68/68 70/70/70
f 71/71/71 69/69/69 72/72/72
f 70/70/70 69/69/69 71/71/71
f 3/3/3 72/72/72 4/4/4
f 71/71/71 72/72/72 3/3/3
f 73/73/73 74/74/74 75/75/75
f 73/73/73 75/75/75 76/76/76
f 73/73/73 76/76/76 77/77/77
f 73/73/73 77/77/77 78/78/78
f 73/73/73 78/78/78 79/79/79
f 73/73/73 79/79/79 80/80/80
f 73/73/73 80/80/80 81/81/81
f 73/73/73 81/81/81 82/82/82
f 73/73/73 82/82/82 83/83/83
f 73/73/73 83/83/83 84/84/84
f 73/73/73 84/84/84 85/85/85
f 73/73/73 85/85/85 86/86/86
f 73/73/73 86/86/86 87/87/87
f 73/73/73 87/87/87 88/88/88
f 73/73/73 88/88/88 89/89/89
f 73/73/73 89/89/89 90/90/90
f 73/73/73 90/90/90 91/91/91
f 73/73/73 91/91/91 92/92/92
f 73/73/73 92/92/92 93/93/93
f 73/73/73 93/93/93 94/94/94
f 73/73/73 94/94/94 95/95/95
f 73/73/73 95/95/95 96/96/96
f 73/73/73 96/96/96 97/97/97
f 73/73/73 97/97/97 98/98/98
f 73/73/73 98/98/98 99/99/99
f 73/73/73 99/99/99 100/100/100
f 73/73/73 100/100/100 101/101/101
f 73/73/73 101/101/101 102/102/102
f 73/73/73 102/102/102 103/103/103
f 73/73/73 103/103/103 104/104/104
f 73/73/73 104/104/104 105/105/105
f 73/73/73 105/105/105 106/106/106
f 73/73/73 106/106/106 107/107/107
f 73/73/73 107/107/107 108/108/108
f 73/73/73 108/108/108 109/109/109
f 73/73/73 109/109/109 74/74/74
f 75/75/75 74/74/74 2/2/2
f 74/74/74 3/3/3 2/2/2
f 6/6/6 76/76/76 75/75/75
f 75/75/75 2/2/2 6/6/6
f 8/8/8 77/77/77 76/76/76
f 6/6/6 8/8/8 76/76/76
f 10/10/10 78/78/78 77/77/77
f 8/8/8 10/10/10 77/77/77
f 10/10/10 12/12/12 78/78/78
f 79/79/79 78/78/78 12/12/12
f 12/12/12 14/14/14 79/79/79
f 80/80/80 79/79/79 14/14/14
f 14/14/14 16/16/16 80/80/80
f 81/81/81 80/80/80 16/16/16
f 16/16/16 18/18/18 81/81/81
f 82/82/82 81/81/81 18/18/18
f 20/20/20 82/82/82 18/18/18
f 83/83/83 82/82/82 20/20/20
f 20/20/20 22/22/22 84/84/84
f 84/84/84 83/83/83 20/20/20
f 22/22/22 24/24/24 85/85/85
f 85/85/85 84/84/84 22/22/22
f 24/24/24 26/26/26 86/86/86
f 86/86/86 85/85/85 24/24/24
f 87/87/87 86/86/86 26/26/26
f 26/26/26 28/28/28 87/87/87
f 88/88/88 87/87/87 28/28/28
f 28/28/28 29/29/29 88/88/88
f 89/89/89 88/88/88 29/29/29
f 29/29/29 31/31/31 89/89/89
f 90/90/90 89/89/89 31/31/31
f 31/31/31 33/33/33 90/90/90
f 91/91/91 90/90/90 33/33/33
f 33/33/33 35/35/35 91/91/91
f 92/92/92 91/91/91 35/35/35
f 35/35/35 37/37/37 92/92/92
f 37/37/37 40/40/40 92/92/92
f 40/40/40 93/93/93 92/92/92
f 40/40/40 42/42/42 93/93/93
f 94/94/94 93/93/93 42/42/42
f 42/42/42 44/44/44 94/94/94
f 95/95/95 94/94/94 44/44/44
f 44/44/44 46/46/46 95/95/95
f 96/96/96 95/95/95 46/46/46
f 46/46/46 48/48/48 96/96/96
f 97/97/97 96/96/96 48/48/48
f 48/48/48 50/50/50 97/97/97
f 98/98/98 97/97/97 50/50/50
f 99/99/99 98/98/98 52/52/52
f 98/98/98 50/50/50 52/52/52
f 54/54/54 100/100/100 99/99/99
f 99/99/99 52/52/52 54/54/54
f 56/56/56 101/101/101 100/100/100
f 100/100/100 54/54/54 56/56/56
f 102/102/102 101/101/101 56/56/56
f 56/56/56 57/57/57 102/102/102
f 103/103/103 102/102/102 57/57/57
f 57/57/57 59/59/59 103/103/103
f 104/104/104 103/103/103 59/59/59
f 59/59/59 61/61/61 104/104/104
f 105/105/105 104/104/104 61/61/61
f 61/61/61 63/63/63 105/105/105
f 106/106/106 105/105/105 63/63/63
f 63/63/63 65/65/65 106/106/106
f 107/107/107 106/106/106 65/65/65
f 65/65/65 67/67/67 107/107/107
f 108/108/108 107/107/107 67/67/67
f 67/67/67 70/70/70 108/108/108
f 109/109/109 108/108/108 70/70/70
f 70/70/70 71/71/71 109/109/109
f 71/71/71 3/3/3 74/74/74
f 74/74/74 109/109/109 71/71/71
f 1/1/1 4/4/4 110/110/110
f 110/110/110 111/111/111 1/1/1
f 1/1/1 111/111/111 112/112/112
f 112/112/112 5/5/5 1/1/1
f 112/112/112 113/113/113 5/5/5
f 113/113/113 7/7/7 5/5/5
f 114/114/114 7/7/7 113/113/113
f 9/9/9 7/7/7 114/114/114
f 115/115/115 9/9/9 114/114/114
f 11/11/11 9/9/9 115/115/115
f 116/116/116 11/11/11 115/115/115
f 13/13/13 11/11/11 116/116/116
f 13/13/13 117/117/117 15/15/15
f 117/117/117 13/13/13 116/116/116
f 15/15/15 118/118/118 17/17/17
f 118/118/118 15/15/15 117/117/117
f 17/17/17 119/119/119 19/19/19
f 119/119/119 17/17/17 118/118/118
f 119/119/119 120/120/120 21/21/21
f 21/21/21 19/19/19 119/119/119
f 120/120/120 121/121/121 23/23/23
f 23/23/23 21/21/21 120/120/120
f 121/121/121 122/122/122 25/25/25
f 25/25/25 23/23/23 121/121/121
f 122/122/122 123/123/123 27/27/27
f 27/27/27 25/25/25 122/122/122
f 123/123/123 124/124/124 30/30/30
f 30/30/30 27/27/27 123/123/123
f 124/124/124 125/125/125 32/32/32
f 32/32/32 30/30/30 124/124/124
f 125/125/125 126/126/126 34/34/34
f 34/34/34 32/32/32 125/125/125
f 126/126/126 127/127/127 36/36/36
f 36/36/36 34/34/34 126/126/126
f 36/36/36 128/128/128 38/38/38
f 128/128/128 36/36/36 127/127/127
f 128/128/128 129/129/129 39/39/39
f 39/39/39 38/38/38 128/128/128
f 39/39/39 130/130/130 41/41/41
f 130/130/130 39/39/39 129/129/129
f 41/41/41 131/131/131 43/43/43
f 131/131/131 41/41/41 130/130/130
f 43/43/43 132/132/132 45/45/45
f 43/43/43 131/131/131 132/132/132
f 45/45/45 133/133/133 47/47/47
f 45/45/45 132/132/132 133/133/133
f 47/47/47 134/134/134 49/49/49
f 47/47/47 133/133/133 134/134/134
f 135/135/135 51/51/51 49/49/49
f 49/49/49 134/134/134 135/135/135
f 136/136/136 53/53/53 51/51/51
f 51/51/51 135/135/135 136/136/136
f 137/137/137 55/55/55 53/53/53
f 53/53/53 136/136/136 137/137/137
f 137/137/137 138/138/138 58/58/58
f 58/58/58 55/55/55 137/137/137
f 60/60/60 58/58/58 138/138/138
f 138/138/138 139/139/139 60/60/60
f 62/62/62 60/60/60 139/139/139
f 139/139/139 140/140/140 62/62/62
f 64/64/64 62/62/62 140/140/140
f 140/140/140 141/141/141 64/64/64
f 66/66/66 64/64/64 141/141/141
f 141/141/141 142/142/142 66/66/66
f 68/68/68 66/66/66 142/142/142
f 142/142/142 143/143/143 68/68/68
f 69/69/69 68/68/68 143/143/143
f 143/143/143 144/144/144 69/69/69
f 72/72/72 69/69/69 144/144/144
f 144/144/144 145/145/145 72/72/72
f 72/72/72 145/145/145 110/110/110
f 110/110/110 4/4/4 72/72/72
