# Blender v2.93.18 OBJ File: 'Ford Transit MK6 New 24.blend'
# www.blender.org
o foxtransit6_interior_F_lights
v -2.902175 61.905708 21.059341
v -2.902175 61.723301 21.124302
v -3.032183 61.767128 21.246819
v -3.032183 61.949409 21.181860
v -2.756923 61.723301 21.124302
v -2.844490 61.786095 21.300909
v 0.000000 62.468273 23.216465
v 0.000000 62.526733 23.379688
v -2.756923 62.526733 23.379688
v -2.844490 62.463463 23.203083
v -2.902175 62.526733 23.379688
v -3.032183 62.483036 23.257172
v -3.032183 62.435307 23.123396
v 0.000000 61.781376 21.287483
v 0.000000 61.723301 21.124302
v -3.032183 61.811691 21.371933
v -2.756923 61.905708 21.059341
v -2.756923 62.708622 23.314726
v 0.000000 62.708622 23.314726
v -3.032183 62.617672 23.058914
v -3.032183 62.665318 23.192255
v -2.902175 62.708622 23.314726
v 0.000000 61.905708 21.059341
v -3.032183 61.993576 21.306973
v -3.032226 62.431488 36.051014
v -2.902175 62.446602 35.922001
v -2.902175 62.254284 35.899483
v -3.032226 62.239162 36.028534
v -2.756968 62.254284 35.899483
v -2.844490 62.232624 36.085655
v 0.000000 61.995743 38.105541
v 0.000000 61.975819 38.277424
v -2.756968 61.975819 38.277424
v -2.844490 61.997513 38.091290
v -2.902175 61.975819 38.277424
v -3.032226 61.990974 38.148411
v -3.032226 62.007423 38.007317
v 0.000000 62.234360 36.071796
v 0.000000 62.254284 35.899483
v -3.032226 62.223534 36.160538
v -2.756968 62.446602 35.922001
v -2.756968 62.168144 38.299900
v 0.000000 62.168144 38.299900
v -3.032226 62.199711 38.029797
v -3.032226 62.182823 38.170933
v -2.902175 62.168144 38.299900
v 0.000000 62.446602 35.922001
v -3.032226 62.415855 36.183052
v 2.902132 61.905708 21.059341
v 3.032183 61.949409 21.181860
v 3.032183 61.767128 21.246819
v 2.902132 61.723301 21.124302
v 2.844490 61.786095 21.300909
v 2.756923 61.723301 21.124302
v 2.756923 62.526733 23.379688
v 2.844490 62.463463 23.203083
v 2.902132 62.526733 23.379688
v 3.032183 62.483036 23.257172
v 3.032183 62.435307 23.123396
v 3.032183 61.811691 21.371933
v 2.756923 61.905708 21.059341
v 2.756923 62.708622 23.314726
v 3.032183 62.617672 23.058914
v 3.032183 62.665318 23.192255
v 2.902132 62.708622 23.314726
v 3.032183 61.993576 21.306973
v 3.032183 62.431488 36.051014
v 2.902132 62.254284 35.899483
v 2.902132 62.446602 35.922001
v 3.032183 62.239162 36.028534
v 2.844490 62.232624 36.085655
v 2.756923 62.254284 35.899483
v 2.756923 61.975819 38.277424
v 2.844490 61.997513 38.091290
v 2.902132 61.975819 38.277424
v 3.032183 61.990974 38.148411
v 3.032183 62.007423 38.007317
v 3.032183 62.223534 36.160538
v 2.756923 62.446602 35.922001
v 2.756923 62.168144 38.299900
v 3.032183 62.199711 38.029797
v 3.032183 62.182823 38.170933
v 2.902132 62.168144 38.299900
v 3.032183 62.415855 36.183052
vt 0.015200 0.104300
vt 0.018700 0.098800
vt 0.014500 0.094500
vt 0.008900 0.097800
vt 0.023400 0.099600
vt 0.020700 0.092600
vt 0.124100 0.018600
vt 0.124100 0.012400
vt 0.023400 0.012400
vt 0.020700 0.019400
vt 0.018700 0.013200
vt 0.014500 0.017500
vt 0.013800 0.022200
vt 0.124100 0.093400
vt 0.124100 0.099600
vt 0.013900 0.090100
vt 0.022200 0.106500
vt 0.022200 0.005500
vt 0.124100 0.005200
vt 0.006900 0.021200
vt 0.008900 0.014200
vt 0.015200 0.007700
vt 0.124100 0.106800
vt 0.006900 0.091100
vt 0.008800 0.097800
vt 0.015100 0.104300
vt 0.018700 0.098800
vt 0.014400 0.094500
vt 0.023400 0.099600
vt 0.020700 0.092600
vt 0.124100 0.018600
vt 0.124100 0.012300
vt 0.023400 0.012400
vt 0.020700 0.019400
vt 0.018700 0.013200
vt 0.014400 0.017500
vt 0.013800 0.022200
vt 0.124100 0.093400
vt 0.124100 0.099600
vt 0.013800 0.090100
vt 0.022100 0.106500
vt 0.022100 0.005500
vt 0.124100 0.005200
vt 0.006800 0.021200
vt 0.008800 0.014200
vt 0.015100 0.007700
vt 0.124100 0.106800
vt 0.006800 0.091100
vt 0.233100 0.104300
vt 0.239400 0.097800
vt 0.233800 0.094500
vt 0.229600 0.098800
vt 0.227600 0.092600
vt 0.224800 0.099600
vt 0.224800 0.012400
vt 0.227600 0.019400
vt 0.229600 0.013200
vt 0.233800 0.017500
vt 0.234400 0.022200
vt 0.234400 0.090100
vt 0.226100 0.106500
vt 0.226100 0.005500
vt 0.241400 0.021200
vt 0.239400 0.014200
vt 0.233100 0.007700
vt 0.241400 0.091100
vt 0.239300 0.097800
vt 0.229500 0.098800
vt 0.233000 0.104300
vt 0.233800 0.094500
vt 0.227500 0.092600
vt 0.224800 0.099600
vt 0.224800 0.012400
vt 0.227500 0.019400
vt 0.229500 0.013200
vt 0.233700 0.017500
vt 0.234400 0.022200
vt 0.234400 0.090100
vt 0.226000 0.106500
vt 0.226000 0.005500
vt 0.241400 0.021200
vt 0.239300 0.014200
vt 0.233000 0.007700
vt 0.241300 0.091100
vn -0.3829 -0.3100 -0.8702
vn -0.2975 -0.8343 -0.4642
vn -0.7178 -0.6929 -0.0684
vn -0.9238 -0.1285 -0.3607
vn 0.0000 -0.9032 -0.4291
vn -0.0007 -0.9421 0.3353
vn 0.0000 -0.9417 0.3363
vn 0.0000 -0.4277 0.9039
vn 0.0000 -0.4276 0.9040
vn -0.0005 -0.9418 0.3363
vn -0.2973 -0.3520 0.8875
vn -0.7176 -0.4934 0.4915
vn -0.7075 -0.6657 0.2372
vn 0.0000 -0.9421 0.3354
vn 0.0000 -0.9033 -0.4290
vn -0.7077 -0.6656 0.2370
vn 0.0000 -0.3355 -0.9420
vn 0.0000 0.3364 0.9417
vn 0.0000 0.3363 0.9417
vn -1.0000 0.0000 0.0000
vn -0.9238 0.1284 0.3606
vn -0.3829 0.3106 0.8700
vn -0.9237 0.0445 -0.3805
vn -0.3824 0.1075 -0.9177
vn -0.2968 -0.5428 -0.7856
vn -0.7170 -0.5914 -0.3688
vn 0.0000 -0.6204 -0.7843
vn 0.0005 -0.9932 -0.1162
vn 0.0000 -0.9933 -0.1158
vn 0.0000 -0.7841 0.6206
vn -0.0000 -0.7843 0.6204
vn -0.0003 -0.9932 -0.1161
vn -0.2970 -0.7093 0.6393
vn -0.7174 -0.6602 0.2222
vn -0.7072 -0.7022 -0.0821
vn 0.0000 -0.9933 -0.1157
vn 0.0000 -0.6206 -0.7841
vn -0.7064 -0.7030 -0.0826
vn 0.0000 0.1163 -0.9932
vn 0.0000 -0.1161 0.9932
vn -0.9237 -0.0447 0.3806
vn -0.3821 -0.1074 0.9179
vn 0.3828 -0.3100 -0.8703
vn 0.9238 -0.1286 -0.3607
vn 0.7178 -0.6929 -0.0684
vn 0.2974 -0.8343 -0.4642
vn 0.0007 -0.9421 0.3353
vn 0.0005 -0.9418 0.3363
vn 0.2973 -0.3520 0.8875
vn 0.7176 -0.4934 0.4916
vn 0.7075 -0.6657 0.2372
vn 0.7077 -0.6656 0.2370
vn 1.0000 0.0000 0.0000
vn 0.9238 0.1285 0.3607
vn 0.3828 0.3105 0.8701
vn 0.9237 0.0445 -0.3805
vn 0.2968 -0.5428 -0.7856
vn 0.3824 0.1075 -0.9177
vn 0.7170 -0.5914 -0.3688
vn -0.0005 -0.9932 -0.1162
vn 0.0003 -0.9932 -0.1161
vn 0.2970 -0.7093 0.6393
vn 0.7174 -0.6602 0.2222
vn 0.7072 -0.7022 -0.0822
vn 0.7064 -0.7030 -0.0826
vn 0.9237 -0.0447 0.3806
vn 0.3821 -0.1074 0.9179
s 1
f 1/1/1 2/2/2 3/3/3
f 3/3/3 4/4/4 1/1/1
f 2/2/2 5/5/5 6/6/6
f 7/7/7 8/8/8 9/9/9
f 9/9/9 10/10/10 7/7/7
f 11/11/11 12/12/12 10/10/10
f 12/12/12 13/13/13 10/10/10
f 3/3/3 2/2/2 6/6/6
f 14/14/14 6/6/6 5/5/5
f 5/5/5 15/15/15 14/14/14
f 9/9/9 11/11/11 10/10/10
f 13/13/13 16/16/16 6/6/6
f 6/6/6 10/10/10 13/13/13
f 7/7/7 10/10/10 6/6/6
f 6/6/6 14/14/14 7/7/7
f 16/16/16 3/3/3 6/6/6
f 17/17/17 5/5/5 1/1/1
f 1/1/1 5/5/5 2/2/2
f 18/18/18 8/8/8 19/19/19
f 18/18/18 9/9/9 8/8/8
f 20/20/20 13/13/13 12/12/12
f 12/12/12 21/21/21 20/20/20
f 12/12/12 22/22/22 21/21/21
f 22/22/22 12/12/12 11/11/11
f 23/23/17 5/5/5 17/17/17
f 23/23/17 15/15/15 5/5/5
f 22/22/22 11/11/11 18/18/18
f 18/18/18 11/11/11 9/9/9
f 13/13/13 20/20/20 24/24/20
f 24/24/20 16/16/16 13/13/13
f 3/3/3 24/24/20 4/4/4
f 24/24/20 3/3/3 16/16/16
f 25/25/23 26/26/24 27/27/25
f 27/27/25 28/28/26 25/25/23
f 27/27/25 29/29/27 30/30/28
f 31/31/29 32/32/30 33/33/31
f 33/33/31 34/34/32 31/31/29
f 35/35/33 36/36/34 34/34/32
f 36/36/34 37/37/35 34/34/32
f 28/28/26 27/27/25 30/30/28
f 38/38/36 30/30/28 29/29/27
f 29/29/27 39/39/37 38/38/36
f 33/33/31 35/35/33 34/34/32
f 37/37/35 40/40/38 30/30/28
f 30/30/28 34/34/32 37/37/35
f 34/34/32 30/30/28 38/38/36
f 38/38/36 31/31/29 34/34/32
f 40/40/38 28/28/26 30/30/28
f 41/41/39 29/29/27 26/26/24
f 26/26/24 29/29/27 27/27/25
f 42/42/40 32/32/30 43/43/40
f 42/42/40 33/33/31 32/32/30
f 44/44/20 37/37/35 36/36/34
f 36/36/34 45/45/41 44/44/20
f 45/45/41 36/36/34 46/46/42
f 46/46/42 36/36/34 35/35/33
f 47/47/39 29/29/27 41/41/39
f 47/47/39 39/39/37 29/29/27
f 46/46/42 35/35/33 42/42/40
f 42/42/40 35/35/33 33/33/31
f 48/48/20 37/37/35 44/44/20
f 48/48/20 40/40/38 37/37/35
f 25/25/23 28/28/26 48/48/20
f 48/48/20 28/28/26 40/40/38
f 49/49/43 50/50/44 51/51/45
f 51/51/45 52/52/46 49/49/43
f 52/52/46 53/53/47 54/54/5
f 55/55/9 8/8/8 7/7/7
f 7/7/7 56/56/48 55/55/9
f 57/57/49 56/56/48 58/58/50
f 58/58/50 56/56/48 59/59/51
f 51/51/45 53/53/47 52/52/46
f 14/14/14 15/15/15 54/54/5
f 54/54/5 53/53/47 14/14/14
f 55/55/9 56/56/48 57/57/49
f 59/59/51 56/56/48 53/53/47
f 53/53/47 60/60/52 59/59/51
f 53/53/47 56/56/48 7/7/7
f 7/7/7 14/14/14 53/53/47
f 60/60/52 53/53/47 51/51/45
f 61/61/17 49/49/43 54/54/5
f 49/49/43 52/52/46 54/54/5
f 55/55/9 62/62/19 8/8/8
f 19/19/19 8/8/8 62/62/19
f 63/63/53 64/64/54 58/58/50
f 58/58/50 59/59/51 63/63/53
f 58/58/50 64/64/54 65/65/55
f 65/65/55 57/57/49 58/58/50
f 15/15/15 23/23/17 54/54/5
f 61/61/17 54/54/5 23/23/17
f 57/57/49 65/65/55 62/62/19
f 62/62/19 55/55/9 57/57/49
f 60/60/52 66/66/53 59/59/51
f 66/66/53 63/63/53 59/59/51
f 51/51/45 50/50/44 66/66/53
f 66/66/53 60/60/52 51/51/45
f 67/67/56 68/68/57 69/69/58
f 67/67/56 70/70/59 68/68/57
f 68/68/57 71/71/60 72/72/27
f 73/73/31 32/32/30 31/31/29
f 31/31/29 74/74/61 73/73/31
f 75/75/62 74/74/61 76/76/63
f 76/76/63 74/74/61 77/77/64
f 70/70/59 71/71/60 68/68/57
f 38/38/36 39/39/37 72/72/27
f 72/72/27 71/71/60 38/38/36
f 73/73/31 74/74/61 75/75/62
f 77/77/64 74/74/61 71/71/60
f 71/71/60 78/78/65 77/77/64
f 74/74/61 31/31/29 38/38/36
f 38/38/36 71/71/60 74/74/61
f 78/78/65 71/71/60 70/70/59
f 72/72/27 79/79/39 69/69/58
f 69/69/58 68/68/57 72/72/27
f 73/73/31 80/80/40 32/32/30
f 43/43/40 32/32/30 80/80/40
f 81/81/53 82/82/66 76/76/63
f 76/76/63 77/77/64 81/81/53
f 82/82/66 83/83/67 76/76/63
f 83/83/67 75/75/62 76/76/63
f 39/39/37 47/47/39 72/72/27
f 79/79/39 72/72/27 47/47/39
f 83/83/67 80/80/40 75/75/62
f 80/80/40 73/73/31 75/75/62
f 78/78/65 84/84/53 77/77/64
f 81/81/53 77/77/64 84/84/53
f 67/67/56 84/84/53 70/70/59
f 84/84/53 78/78/65 70/70/59
