# Blender v2.93.18 OBJ File: 'Chevrolet Corvair 1969 12.blend'
# www.blender.org
mtllib 1969 Corvair steering logo.mtl
o steering_logo_steering_ok
v 0.747729 0.012773 2.704218
v 0.738119 0.111213 2.703644
v -0.005632 0.013215 2.818583
v -0.005611 0.114103 2.804233
v -0.748946 0.110388 2.700838
v -0.758537 0.012821 2.701219
v -0.744088 -0.134110 2.701745
v -0.005616 -0.120732 2.802158
v 0.733264 -0.134210 2.704667
vt 0.685124 0.479968
vt 0.683324 0.498176
vt 0.544759 0.479917
vt 0.544780 0.498682
vt 0.406103 0.498152
vt 0.404304 0.479968
vt 0.407003 0.452576
vt 0.544682 0.454868
vt 0.682441 0.452576
vn 0.1501 0.0043 0.9886
vn 0.1488 0.0300 0.9884
vn -0.0020 0.0113 0.9999
vn -0.0019 0.1408 0.9900
vn -0.1527 0.0287 0.9878
vn -0.1540 0.0037 0.9880
vn -0.1517 -0.0233 0.9881
vn -0.0020 -0.1217 0.9926
vn 0.1477 -0.0235 0.9887
usemtl monza69_interior.9
s 1
f 1/1/1 2/2/2 3/3/3
f 3/3/3 2/2/2 4/4/4
f 3/3/3 4/4/4 5/5/5
f 3/3/3 5/5/5 6/6/6
f 3/3/3 6/6/6 7/7/7
f 3/3/3 7/7/7 8/8/8
f 3/3/3 8/8/8 9/9/9
f 3/3/3 9/9/9 1/1/1
