# Blender v2.93.18 OBJ File: 'Chevrolet Corvair 1969 12.blend'
# www.blender.org
mtllib 1969 Corvair door r badge.mtl
o door_r_badge_door_rf_ok.008
v -6.532951 -3.149360 12.760763
v -6.533395 -3.376229 12.759939
v -6.527613 -3.149551 13.976142
v -6.528233 -3.376569 13.974049
vt 0.111959 0.503287
vt 0.111671 0.460234
vt 0.387984 0.503287
vt 0.387605 0.460234
vn -1.0000 0.0019 0.0044
vn -1.0000 0.0020 0.0044
vn -1.0000 0.0026 0.0042
vn -1.0000 0.0027 0.0042
usemtl monza69_interior.9
s 1
f 1/1/1 2/2/2 3/3/3
f 3/3/3 2/2/2 4/4/4
