# Blender v2.93.18 OBJ File: 'Ford Corcel II 14.blend'
# www.blender.org
mtllib Ford Corcel 2 tail lights.mtl
o tail_lights_lanternas
v 33.186127 -3.698066 89.695335
v 32.882137 -3.076719 90.924057
v 32.656162 -3.690113 90.511330
v 33.651157 2.584594 90.805763
v 33.288639 3.223645 89.571312
v 33.750317 2.593466 89.902267
v 33.805199 2.295587 89.570007
v 33.898361 -2.896111 88.411049
v 33.865189 -3.097252 88.609146
v 33.397438 -3.713772 88.248047
v 33.680882 -3.083555 89.872810
v 33.506481 -3.052338 87.597137
v 33.397671 2.631181 88.910439
v 33.148808 2.579562 91.337898
v 33.148750 3.211131 90.846062
v 29.490244 3.207369 91.396667
v 17.476406 3.206187 91.812843
v 12.574052 3.206187 91.813187
v 12.574015 -3.678514 91.903839
v 13.200252 -3.064923 92.373978
v 13.200213 2.574693 92.299652
v 17.476463 2.574693 92.299400
v 17.476463 -3.064923 92.373619
v 29.535357 2.575866 91.881592
v 29.673656 -3.074354 91.835556
v 31.506577 -3.071761 91.660263
v 31.365929 -3.685472 91.201935
v 29.640907 -3.687907 91.366905
v 17.476406 -3.678514 91.903481
v -33.262360 -3.698066 89.695335
v -32.732395 -3.690113 90.511330
v -31.582809 -3.071761 91.660263
v -32.958370 -3.076719 90.924057
v -33.727390 2.584594 90.805763
v -33.224983 3.211131 90.846062
v -33.364872 3.223645 89.571312
v -33.881432 2.295587 89.570007
v -33.473904 2.631181 88.910439
v -33.974594 -2.896111 88.411049
v -33.582714 -3.052338 87.597137
v -33.473671 -3.713772 88.248047
v -33.941422 -3.097252 88.609146
v -33.757114 -3.083555 89.872810
v -33.826550 2.593466 89.902267
v -29.566477 3.207369 91.396667
v -17.552639 3.206187 91.812843
v -13.276446 2.574693 92.299652
v -12.650285 3.206187 91.813187
v -12.650248 -3.678514 91.903839
v -13.276484 -3.064923 92.373978
v -17.552696 2.574693 92.299400
v -17.552696 -3.064923 92.373619
v -29.611589 2.575866 91.881592
v -31.442162 -3.685472 91.201935
v -29.717140 -3.687907 91.366905
v -29.749889 -3.074354 91.835556
v -17.552639 -3.678514 91.903481
v -33.225040 2.579562 91.337898
v 13.200252 -3.064923 92.373978
v 13.200252 -3.064923 92.373978
v 13.200252 -3.064923 92.373978
v 13.200213 2.574693 92.299652
v 13.200213 2.574693 92.299652
v 13.200213 2.574693 92.299652
v 13.200213 2.574693 92.299652
v 32.656162 -3.690113 90.511330
v 32.882137 -3.076719 90.924057
v 32.882137 -3.076719 90.924057
v 32.882137 -3.076719 90.924057
v 32.882137 -3.076719 90.924057
v 32.882137 -3.076719 90.924057
v 33.288639 3.223645 89.571312
v 33.750317 2.593466 89.902267
v 33.750317 2.593466 89.902267
v 33.750317 2.593466 89.902267
v 33.898361 -2.896111 88.411049
v 33.898361 -2.896111 88.411049
v 33.898361 -2.896111 88.411049
v 33.865189 -3.097252 88.609146
v 33.865189 -3.097252 88.609146
v 33.865189 -3.097252 88.609146
v 33.397438 -3.713772 88.248047
v 33.506481 -3.052338 87.597137
v 33.397671 2.631181 88.910439
v 33.397671 2.631181 88.910439
v 33.148808 2.579562 91.337898
v 33.148808 2.579562 91.337898
v 33.148808 2.579562 91.337898
v 33.148808 2.579562 91.337898
v 33.148750 3.211131 90.846062
v 33.148750 3.211131 90.846062
v 17.476406 -3.678514 91.903481
v 29.640907 -3.687907 91.366905
v -13.276446 2.574693 92.299652
v -13.276446 2.574693 92.299652
v -13.276446 2.574693 92.299652
v -13.276446 2.574693 92.299652
v -17.552639 3.206187 91.812843
v -17.552639 3.206187 91.812843
v -33.727390 2.584594 90.805763
v -33.727390 2.584594 90.805763
v -33.727390 2.584594 90.805763
v -33.727390 2.584594 90.805763
v -33.224983 3.211131 90.846062
v -33.224983 3.211131 90.846062
v -33.582714 -3.052338 87.597137
v -33.473671 -3.713772 88.248047
v -33.757114 -3.083555 89.872810
v -33.757114 -3.083555 89.872810
v -33.757114 -3.083555 89.872810
v -33.757114 -3.083555 89.872810
v -33.757114 -3.083555 89.872810
v -33.941422 -3.097252 88.609146
v -33.941422 -3.097252 88.609146
v -33.941422 -3.097252 88.609146
v -29.611589 2.575866 91.881592
v -29.611589 2.575866 91.881592
v -29.611589 2.575866 91.881592
v -29.611589 2.575866 91.881592
v -29.611589 2.575866 91.881592
v -17.552696 -3.064923 92.373619
v -17.552696 -3.064923 92.373619
v -17.552696 -3.064923 92.373619
v -17.552696 -3.064923 92.373619
v -17.552696 -3.064923 92.373619
v -31.442162 -3.685472 91.201935
v -29.717140 -3.687907 91.366905
v 17.476406 3.206187 91.812843
v 17.476406 3.206187 91.812843
v 17.476463 2.574693 92.299400
v 17.476463 2.574693 92.299400
v 17.476463 2.574693 92.299400
v 17.476463 2.574693 92.299400
v 12.574052 3.206187 91.813187
v 17.476463 -3.064923 92.373619
v 17.476463 -3.064923 92.373619
v 17.476463 -3.064923 92.373619
v 17.476463 -3.064923 92.373619
v 17.476463 -3.064923 92.373619
v 12.574015 -3.678514 91.903839
v 12.574015 -3.678514 91.903839
v 12.574015 -3.678514 91.903839
v 33.680882 -3.083555 89.872810
v 33.680882 -3.083555 89.872810
v 33.680882 -3.083555 89.872810
v 33.680882 -3.083555 89.872810
v 33.680882 -3.083555 89.872810
v 33.651157 2.584594 90.805763
v 33.651157 2.584594 90.805763
v 33.651157 2.584594 90.805763
v 33.651157 2.584594 90.805763
v 33.186127 -3.698066 89.695335
v 33.186127 -3.698066 89.695335
v 31.506577 -3.071761 91.660263
v 31.506577 -3.071761 91.660263
v 31.506577 -3.071761 91.660263
v 31.506577 -3.071761 91.660263
v 33.805199 2.295587 89.570007
v 33.805199 2.295587 89.570007
v 33.805199 2.295587 89.570007
v 33.805199 2.295587 89.570007
v 29.535357 2.575866 91.881592
v 29.535357 2.575866 91.881592
v 29.535357 2.575866 91.881592
v 29.535357 2.575866 91.881592
v 29.535357 2.575866 91.881592
v 29.490244 3.207369 91.396667
v 29.673656 -3.074354 91.835556
v 29.673656 -3.074354 91.835556
v 29.673656 -3.074354 91.835556
v 31.365929 -3.685472 91.201935
v -17.552696 2.574693 92.299400
v -17.552696 2.574693 92.299400
v -17.552696 2.574693 92.299400
v -17.552696 2.574693 92.299400
v -12.650285 3.206187 91.813187
v -13.276484 -3.064923 92.373978
v -13.276484 -3.064923 92.373978
v -13.276484 -3.064923 92.373978
v -12.650248 -3.678514 91.903839
v -12.650248 -3.678514 91.903839
v -12.650248 -3.678514 91.903839
v -17.552639 -3.678514 91.903481
v -33.826550 2.593466 89.902267
v -33.826550 2.593466 89.902267
v -33.826550 2.593466 89.902267
v -32.958370 -3.076719 90.924057
v -32.958370 -3.076719 90.924057
v -32.958370 -3.076719 90.924057
v -32.958370 -3.076719 90.924057
v -32.958370 -3.076719 90.924057
v -33.262360 -3.698066 89.695335
v -33.262360 -3.698066 89.695335
v -32.732395 -3.690113 90.511330
v -31.582809 -3.071761 91.660263
v -31.582809 -3.071761 91.660263
v -31.582809 -3.071761 91.660263
v -31.582809 -3.071761 91.660263
v -33.225040 2.579562 91.337898
v -33.225040 2.579562 91.337898
v -33.225040 2.579562 91.337898
v -33.225040 2.579562 91.337898
v -33.364872 3.223645 89.571312
v -33.473904 2.631181 88.910439
v -33.473904 2.631181 88.910439
v -33.881432 2.295587 89.570007
v -33.881432 2.295587 89.570007
v -33.881432 2.295587 89.570007
v -33.881432 2.295587 89.570007
v -33.974594 -2.896111 88.411049
v -33.974594 -2.896111 88.411049
v -33.974594 -2.896111 88.411049
v -29.566477 3.207369 91.396667
v -29.749889 -3.074354 91.835556
v -29.749889 -3.074354 91.835556
v -29.749889 -3.074354 91.835556
vt 0.888294 0.608450
vt 0.712430 0.608450
vt 0.712432 0.630341
vt 0.712432 0.630341
vt 0.909864 0.630341
vt 0.888294 0.608450
vt 0.712430 0.608450
vt 0.888294 0.608450
vt 0.888293 0.364591
vt 0.888293 0.364591
vt 0.712430 0.364591
vt 0.712430 0.608450
vt 0.888294 0.608450
vt 0.909864 0.630341
vt 0.909866 0.345338
vt 0.909866 0.345338
vt 0.888293 0.364591
vt 0.888294 0.608450
vt 0.909866 0.345338
vt 0.712432 0.345338
vt 0.712430 0.364591
vt 0.712430 0.364591
vt 0.888293 0.364591
vt 0.909866 0.345338
vt 0.089927 0.609102
vt 0.093343 0.608794
vt 0.092319 0.364006
vt 0.093343 0.608794
vt 0.119834 0.364220
vt 0.092319 0.364006
vt 0.092319 0.364006
vt 0.119834 0.364220
vt 0.109362 0.344724
vt 0.119834 0.364220
vt 0.127618 0.344974
vt 0.109362 0.344724
vt 0.127618 0.344974
vt 0.119834 0.364220
vt 0.183752 0.364376
vt 0.183752 0.364376
vt 0.119834 0.364220
vt 0.110648 0.608620
vt 0.093343 0.608794
vt 0.110648 0.608620
vt 0.119834 0.364220
vt 0.110650 0.630512
vt 0.110648 0.608620
vt 0.093343 0.608794
vt 0.110650 0.630512
vt 0.093343 0.608794
vt 0.089927 0.609102
vt 0.105831 0.630946
vt 0.102075 0.610409
vt 0.105831 0.630946
vt 0.089927 0.609102
vt 0.088036 0.598776
vt 0.102075 0.610409
vt 0.088036 0.598776
vt 0.084827 0.369887
vt 0.088036 0.598776
vt 0.085970 0.363576
vt 0.084827 0.369887
vt 0.098327 0.364986
vt 0.084827 0.369887
vt 0.085970 0.363576
vt 0.102083 0.344232
vt 0.102083 0.344232
vt 0.085970 0.363576
vt 0.092319 0.364006
vt 0.088036 0.598776
vt 0.092319 0.364006
vt 0.085970 0.363576
vt 0.089927 0.609102
vt 0.092319 0.364006
vt 0.088036 0.598776
vt 0.109362 0.344724
vt 0.102075 0.610409
vt 0.084827 0.369887
vt 0.098327 0.364986
vt 0.267619 0.608491
vt 0.110648 0.608620
vt 0.110650 0.630512
vt 0.269174 0.630382
vt 0.712430 0.608450
vt 0.267619 0.608491
vt 0.269174 0.630382
vt 0.712432 0.630341
vt 0.712430 0.608450
vt 0.712430 0.364591
vt 0.267619 0.608491
vt 0.712430 0.364591
vt 0.262855 0.364294
vt 0.267619 0.608491
vt 0.267619 0.608491
vt 0.262855 0.364294
vt 0.183752 0.364376
vt 0.188597 0.345120
vt 0.183752 0.364376
vt 0.262855 0.364294
vt 0.263983 0.345043
vt 0.263983 0.345043
vt 0.262855 0.364294
vt 0.712430 0.364591
vt 0.712432 0.345338
vt 0.188597 0.345120
vt 0.267619 0.608491
vt 0.183752 0.364376
vt 0.110648 0.608620
vt 0.712523 0.608450
vt 0.888388 0.608450
vt 0.712525 0.630341
vt 0.909958 0.630341
vt 0.712525 0.630341
vt 0.888388 0.608450
vt 0.888388 0.608450
vt 0.712523 0.608450
vt 0.888387 0.364591
vt 0.712523 0.364591
vt 0.888387 0.364591
vt 0.712523 0.608450
vt 0.909958 0.630341
vt 0.888388 0.608450
vt 0.909959 0.345338
vt 0.888387 0.364591
vt 0.909959 0.345338
vt 0.888388 0.608450
vt 0.712525 0.345338
vt 0.909959 0.345338
vt 0.712523 0.364591
vt 0.888387 0.364591
vt 0.712523 0.364591
vt 0.909959 0.345338
vt 0.093437 0.608794
vt 0.090021 0.609102
vt 0.092413 0.364006
vt 0.119928 0.364220
vt 0.093437 0.608794
vt 0.092413 0.364006
vt 0.119928 0.364220
vt 0.092413 0.364006
vt 0.109456 0.344724
vt 0.127712 0.344974
vt 0.119928 0.364220
vt 0.109456 0.344724
vt 0.119928 0.364220
vt 0.127712 0.344974
vt 0.183846 0.364376
vt 0.119928 0.364220
vt 0.183846 0.364376
vt 0.110741 0.608620
vt 0.110741 0.608620
vt 0.093437 0.608794
vt 0.119928 0.364220
vt 0.110741 0.608620
vt 0.110743 0.630512
vt 0.093437 0.608794
vt 0.093437 0.608794
vt 0.110743 0.630512
vt 0.090021 0.609102
vt 0.105925 0.630946
vt 0.105925 0.630946
vt 0.102169 0.610409
vt 0.090021 0.609102
vt 0.088130 0.598776
vt 0.088130 0.598776
vt 0.102169 0.610409
vt 0.084921 0.369887
vt 0.086064 0.363576
vt 0.088130 0.598776
vt 0.084921 0.369887
vt 0.084921 0.369887
vt 0.098421 0.364986
vt 0.086064 0.363576
vt 0.102177 0.344232
vt 0.086064 0.363576
vt 0.102177 0.344232
vt 0.092413 0.364006
vt 0.092413 0.364006
vt 0.088130 0.598776
vt 0.086064 0.363576
vt 0.092413 0.364006
vt 0.090021 0.609102
vt 0.088130 0.598776
vt 0.109456 0.344724
vt 0.084921 0.369887
vt 0.102169 0.610409
vt 0.098421 0.364986
vt 0.110741 0.608620
vt 0.267713 0.608491
vt 0.110743 0.630512
vt 0.269267 0.630382
vt 0.267713 0.608491
vt 0.712523 0.608450
vt 0.269267 0.630382
vt 0.712525 0.630341
vt 0.712523 0.364591
vt 0.712523 0.608450
vt 0.267713 0.608491
vt 0.262949 0.364294
vt 0.712523 0.364591
vt 0.267713 0.608491
vt 0.262949 0.364294
vt 0.267713 0.608491
vt 0.183846 0.364376
vt 0.183846 0.364376
vt 0.188691 0.345120
vt 0.262949 0.364294
vt 0.264077 0.345043
vt 0.262949 0.364294
vt 0.264077 0.345043
vt 0.712523 0.364591
vt 0.712525 0.345338
vt 0.188691 0.345120
vt 0.183846 0.364376
vt 0.267713 0.608491
vt 0.110741 0.608620
vn 0.0000 0.6103 0.7921
vn 0.0000 0.6103 0.7922
vn 0.0000 0.0132 0.9999
vn 0.0001 0.0132 0.9999
vn -0.6069 0.0105 0.7947
vn 0.0000 -0.6082 0.7938
vn 0.0001 -0.6082 0.7937
vn 0.9940 -0.0127 0.1090
vn 0.7923 -0.0950 0.6026
vn 0.6153 -0.6316 0.4716
vn 0.6918 -0.5609 0.4548
vn 0.3727 -0.6086 0.7005
vn 0.4698 -0.0864 0.8785
vn 0.7249 -0.0842 0.6836
vn 0.6384 0.4729 0.6072
vn 0.7797 0.6193 0.0916
vn 0.8385 0.4671 -0.2804
vn 0.8386 0.4671 -0.2804
vn 0.8385 0.4672 -0.2803
vn 0.8709 0.1219 -0.4761
vn 0.9886 -0.0157 0.1496
vn 0.8357 -0.4490 -0.3161
vn 0.8356 -0.4491 -0.3161
vn 0.8357 -0.4489 -0.3161
vn 0.7568 -0.6430 0.1174
vn 0.7569 -0.6429 0.1173
vn 0.7567 -0.6431 0.1174
vn 0.9894 -0.0147 0.1444
vn 0.9846 -0.0129 0.1742
vn 0.8851 0.1208 -0.4494
vn 0.1173 0.6101 0.7836
vn 0.1173 0.6102 0.7835
vn 0.0273 0.6101 0.7918
vn 0.0274 0.6100 0.7919
vn 0.0346 0.0131 0.9993
vn 0.0440 -0.0070 0.9990
vn 0.0952 -0.0058 0.9954
vn 0.0764 -0.6078 0.7904
vn 0.0345 -0.6078 0.7933
vn 0.3728 -0.6085 0.7005
vn 0.1487 0.0132 0.9888
vn -0.0001 0.0132 0.9999
vn 0.6069 0.0104 0.7947
vn 0.6069 0.0105 0.7947
vn -0.0001 -0.6082 0.7937
vn -0.9940 -0.0127 0.1090
vn -0.7923 -0.0950 0.6026
vn -0.6153 -0.6316 0.4716
vn -0.6918 -0.5608 0.4548
vn -0.3727 -0.6086 0.7005
vn -0.4698 -0.0864 0.8785
vn -0.7249 -0.0842 0.6836
vn -0.6385 0.4729 0.6072
vn -0.7797 0.6193 0.0916
vn -0.8386 0.4671 -0.2804
vn -0.8385 0.4671 -0.2804
vn -0.8385 0.4672 -0.2803
vn -0.8709 0.1219 -0.4761
vn -0.9886 -0.0157 0.1496
vn -0.8356 -0.4491 -0.3161
vn -0.8357 -0.4490 -0.3161
vn -0.8357 -0.4489 -0.3161
vn -0.7569 -0.6429 0.1173
vn -0.7568 -0.6430 0.1174
vn -0.7567 -0.6431 0.1174
vn -0.9894 -0.0147 0.1444
vn -0.9846 -0.0129 0.1742
vn -0.8851 0.1208 -0.4494
vn -0.1173 0.6102 0.7835
vn -0.1173 0.6101 0.7836
vn -0.0274 0.6100 0.7919
vn -0.0273 0.6101 0.7918
vn -0.0346 0.0131 0.9993
vn -0.0440 -0.0070 0.9990
vn -0.0952 -0.0058 0.9954
vn -0.0764 -0.6078 0.7904
vn -0.0345 -0.6078 0.7933
vn -0.3728 -0.6085 0.7005
vn -0.1487 0.0132 0.9888
usemtl lanternas.0
s 1
f 63/1/1 130/2/1 128/3/1
f 129/4/2 134/5/2 64/6/2
f 131/7/3 62/8/3 59/9/3
f 60/10/4 135/11/4 132/12/4
f 65/13/5 18/14/5 140/15/5
f 141/16/5 61/17/5 21/18/5
f 142/19/6 29/20/6 136/21/6
f 23/22/7 20/23/7 19/24/7
f 74/25/8 148/26/8 143/27/8
f 149/28/9 68/29/9 144/30/9
f 145/31/10 69/32/10 152/33/10
f 67/34/11 66/35/11 153/36/11
f 3/37/12 70/38/12 154/39/12
f 155/40/13 71/41/13 87/42/13
f 150/43/14 88/44/14 2/45/14
f 90/46/15 86/47/15 151/48/15
f 91/49/16 4/50/16 73/51/16
f 73/51/16 72/52/16 91/49/16
f 85/53/17 5/54/18 75/55/17
f 75/55/17 158/56/19 85/53/17
f 13/57/20 159/58/20 77/59/20
f 160/60/21 79/61/21 76/62/21
f 12/63/22 78/64/23 80/65/22
f 80/65/22 82/66/24 12/63/22
f 10/67/25 81/68/26 146/69/27
f 161/70/28 147/71/28 9/72/28
f 6/73/29 11/74/29 7/75/29
f 146/69/27 1/76/27 10/67/25
f 84/77/30 8/78/30 83/79/30
f 162/80/31 89/81/32 15/82/32
f 15/82/32 167/83/31 162/80/31
f 133/84/33 163/85/34 16/86/34
f 16/86/34 17/87/33 133/84/33
f 22/88/35 137/89/35 164/90/35
f 138/91/36 168/92/36 165/93/36
f 166/94/37 169/95/37 156/96/37
f 171/97/38 157/98/38 170/99/38
f 170/99/38 28/100/38 171/97/38
f 93/101/39 25/102/39 139/103/39
f 139/103/39 92/104/39 93/101/39
f 154/39/12 27/105/40 3/37/12
f 24/106/41 26/107/41 14/108/41
f 172/109/1 94/110/1 98/111/1
f 176/112/2 99/113/2 95/114/2
f 96/115/3 173/116/3 177/117/3
f 122/118/42 178/119/42 174/120/42
f 48/121/43 97/122/43 180/123/43
f 179/124/44 181/125/44 47/126/44
f 183/127/6 182/128/6 123/129/6
f 50/130/45 52/131/45 49/132/45
f 101/133/46 184/134/46 109/135/46
f 187/136/47 102/137/47 110/138/47
f 188/139/48 111/140/48 192/141/48
f 194/142/49 189/143/49 193/144/49
f 190/145/50 31/146/50 195/147/50
f 191/148/51 196/149/51 199/150/51
f 200/151/52 103/152/52 33/153/52
f 201/154/53 104/155/53 100/156/53
f 34/157/54 105/158/54 185/159/54
f 203/160/54 185/159/54 105/158/54
f 36/161/55 204/162/56 186/163/56
f 206/164/57 186/163/56 204/162/56
f 207/165/58 205/166/58 210/167/58
f 114/168/59 208/169/59 211/170/59
f 212/171/60 106/172/61 115/173/61
f 107/174/62 115/173/61 106/172/61
f 113/175/63 41/176/64 108/177/65
f 112/178/66 209/179/66 42/180/66
f 43/181/67 44/182/67 37/183/67
f 30/184/65 108/177/65 41/176/64
f 39/185/68 38/186/68 40/187/68
f 202/188/69 117/189/70 35/190/69
f 213/191/70 35/190/69 117/189/70
f 118/192/71 175/193/72 45/194/71
f 46/195/72 45/194/71 175/193/72
f 121/196/73 51/197/73 116/198/73
f 214/199/74 124/200/74 119/201/74
f 215/202/75 120/203/75 197/204/75
f 198/205/76 126/206/76 216/207/76
f 127/208/76 216/207/76 126/206/76
f 56/209/77 55/210/77 125/211/77
f 57/212/77 125/211/77 55/210/77
f 54/213/78 195/147/50 31/146/50
f 32/214/79 53/215/79 58/216/79
